<?xml version="1.0" encoding="utf-8"?>
<!-- Generator: Adobe Illustrator 25.3.1, SVG Export Plug-In . SVG Version: 6.00 Build 0)  -->
<svg version="1.1" xmlns="http://www.w3.org/2000/svg" xmlns:xlink="http://www.w3.org/1999/xlink" x="0px" y="0px"
	 viewBox="0 0 512 512" enable-background="new 0 0 512 512" xml:space="preserve">
<g id="_x33_0_1_">
</g>
<g id="_x32_9">
</g>
<g id="_x32_8">
</g>
<g id="_x32_7">
</g>
<g id="_x32_6">
</g>
<g id="_x32_5">
</g>
<g id="_x32_4">
</g>
<g id="_x32_3">
</g>
<g id="_x32_2">
</g>
<g id="_x32_1">
</g>
<g id="_x32_0">
</g>
<g id="_x31_9">
</g>
<g id="_x31_8">
</g>
<g id="_x31_7">
</g>
<g id="_x31_6">
	<g>
		<g>
			<path fill="#DAF3F6" d="M464.5,436h-417c-22.1,0-40-17.9-40-40V116c0-22.1,17.9-40,40-40h417c22.1,0,40,17.9,40,40v280
				C504.5,418.1,486.6,436,464.5,436z"/>
		</g>
		<g>
			<path fill="#BFECF2" d="M176,396V116c0-22.1,17.9-40,40-40H47.5c-22.1,0-40,17.9-40,40v280c0,22.1,17.9,40,40,40H216
				C193.9,436,176,418.1,176,396z"/>
		</g>
		<g>
			<path fill="#BFECF2" d="M464.5,356V156c-22.1,0-40-17.9-40-40h-337c0,22.1-17.9,40-40,40v200c22.1,0,40,17.9,40,40h337
				C424.5,373.9,442.4,356,464.5,356z"/>
		</g>
		<g>
			<path fill="#A4E5EE" d="M47.5,156v200c22.1,0,40,17.9,40,40H176V116H87.5C87.5,138.1,69.6,156,47.5,156z"/>
		</g>
		<g>
			<path fill="#9FA2E2" d="M151,154.5L151,154.5c-35.9,0-65,29.1-65,65c0,35.9,29.1,65,65,65h65v-65
				C216,183.6,186.9,154.5,151,154.5z M176,244.5h-25c-13.8,0-25-11.2-25-25s11.2-25,25-25s25,11.2,25,25V244.5z"/>
		</g>
		<g>
			<path fill="#8E93D6" d="M171,174.5c0,11-9,20-20,20c13.8,0,25,11.2,25,25v25h-25c11,0,20,9,20,20c0,11-9,20-20,20h65v-65
				c0-35.9-29.1-65-65-65h0C162,154.5,171,163.5,171,174.5z"/>
		</g>
		<g>
			<path fill="#9FA2E2" d="M361,154.5L361,154.5c-35.9,0-65,29.1-65,65v65h65c35.9,0,65-29.1,65-65C426,183.6,396.9,154.5,361,154.5
				z M361,244.5h-25v-25c0-13.8,11.2-25,25-25s25,11.2,25,25S374.8,244.5,361,244.5z"/>
		</g>
		<g>
			<path fill="#8E93D6" d="M341,174.5c0,11,9,20,20,20c-13.8,0-25,11.2-25,25v25h25c-11,0-20,9-20,20c0,11,9,20,20,20h-65v-65
				c0-35.9,29.1-65,65-65h0C350,154.5,341,163.5,341,174.5z"/>
		</g>
		<g>
			<path fill="#9FA2E2" d="M256,284.5h-40v-45c0-11,9-20,20-20h0c11,0,20,9,20,20V284.5z"/>
		</g>
		<g>
			<path fill="#B9BAF0" d="M296,284.5h-40v-45c0-11,9-20,20-20h0c11,0,20,9,20,20V284.5z"/>
		</g>
		<g>
			<rect x="126" y="316" fill="#EDEBED" width="260" height="120"/>
		</g>
		<g>
			<rect x="126" y="316" fill="#E3E3E3" width="50" height="120"/>
		</g>
		<g>
			<path fill="#F7F5F6" d="M392,344.5H120c-7.7,0-14-6.3-14-14v-32c0-7.7,6.3-14,14-14h272c7.7,0,14,6.3,14,14v32
				C406,338.2,399.7,344.5,392,344.5z"/>
		</g>
		<g>
			<rect x="216" y="284.5" fill="#8E93D6" width="80" height="151.5"/>
		</g>
		<g>
			<path fill="#EDEBED" d="M157,330.5v-32c0-7.7,6.3-14,14-14h-51c-7.7,0-14,6.3-14,14v32c0,7.7,6.3,14,14,14h51
				C163.3,344.5,157,338.2,157,330.5z"/>
		</g>
		<g>
			<path d="M504.5,307c4.1,0,7.5-3.4,7.5-7.5V116c0-26.2-21.3-47.5-47.5-47.5h-417C21.3,68.5,0,89.8,0,116v280
				c0,26.2,21.3,47.5,47.5,47.5h417c26.2,0,47.5-21.3,47.5-47.5v-66.5c0-4.1-3.4-7.5-7.5-7.5s-7.5,3.4-7.5,7.5V396
				c0,17.9-14.6,32.5-32.5,32.5h-71v-25h31c4.1,0,7.5-3.4,7.5-7.5c0-17.9,14.6-32.5,32.5-32.5c4.1,0,7.5-3.4,7.5-7.5V156
				c0-4.1-3.4-7.5-7.5-7.5c-17.9,0-32.5-14.6-32.5-32.5c0-4.1-3.4-7.5-7.5-7.5H391c-4.1,0-7.5,3.4-7.5,7.5s3.4,7.5,7.5,7.5h26.6
				c3.2,20.2,19.2,36.2,39.4,39.4v186.2c-20.2,3.2-36.2,19.2-39.4,39.4h-24.1v-36.6c11.2-0.8,20-10.1,20-21.4v-32
				c0-8.3-4.8-15.5-11.7-19.1c19.1-13.1,31.7-35,31.7-59.9c0-40-32.5-72.5-72.5-72.5c-38.5,0-70.1,30.2-72.4,68.1
				c-3.8-2-8.1-3.1-12.6-3.1c-7.9,0-15,3.3-20,8.7c-5-5.3-12.1-8.7-20-8.7c-4.6,0-8.9,1.1-12.6,3.1c-2.3-37.9-33.9-68.1-72.4-68.1
				c-13.5,0-26.6,3.7-38.1,10.8c-3.5,2.2-4.6,6.8-2.4,10.3c2.2,3.5,6.8,4.6,10.3,2.4c9-5.6,19.5-8.5,30.2-8.5
				c31.7,0,57.5,25.8,57.5,57.5V277H151c-31.7,0-57.5-25.8-57.5-57.5c0-10.6,2.9-20.9,8.4-29.9c2.2-3.5,1-8.2-2.5-10.3
				c-3.5-2.2-8.2-1-10.3,2.5c-6.9,11.3-10.6,24.4-10.6,37.7c0,24.9,12.6,46.8,31.7,59.9c-6.9,3.6-11.7,10.8-11.7,19.1v32
				c0,11.3,8.8,20.6,20,21.4v36.6H94.4c-3.2-20.2-19.2-36.2-39.4-39.4V162.9c20.2-3.2,36.2-19.2,39.4-39.4H331
				c4.1,0,7.5-3.4,7.5-7.5s-3.4-7.5-7.5-7.5H87.5c-4.1,0-7.5,3.4-7.5,7.5c0,17.9-14.6,32.5-32.5,32.5c-4.1,0-7.5,3.4-7.5,7.5v200
				c0,4.1,3.4,7.5,7.5,7.5c17.9,0,32.5,14.6,32.5,32.5c0,4.1,3.4,7.5,7.5,7.5h31v25h-71C29.6,428.5,15,413.9,15,396V116
				c0-17.9,14.6-32.5,32.5-32.5h417c17.9,0,32.5,14.6,32.5,32.5v183.5C497,303.6,500.4,307,504.5,307z M303.5,428.5V352h75v76.5
				H303.5z M392,292c3.6,0,6.5,2.9,6.5,6.5v32c0,3.6-2.9,6.5-6.5,6.5h-88.5v-45H392z M303.5,219.5c0-31.7,25.8-57.5,57.5-57.5
				s57.5,25.8,57.5,57.5S392.7,277,361,277h-57.5V219.5z M276,227c6.9,0,12.5,5.6,12.5,12.5V277h-25v-37.5
				C263.5,232.6,269.1,227,276,227z M223.5,239.5c0-6.9,5.6-12.5,12.5-12.5s12.5,5.6,12.5,12.5V277h-25V239.5z M113.5,330.5v-32
				c0-3.6,2.9-6.5,6.5-6.5h88.5v45H120C116.4,337,113.5,334.1,113.5,330.5z M133.5,352h75v8.2c0,4.1,3.4,7.5,7.5,7.5
				s7.5-3.4,7.5-7.5V292h65v136.5h-65v-8.2c0-4.1-3.4-7.5-7.5-7.5s-7.5,3.4-7.5,7.5v8.2h-75V352z"/>
			<path d="M176,252c4.1,0,7.5-3.4,7.5-7.5v-25c0-17.9-14.6-32.5-32.5-32.5s-32.5,14.6-32.5,32.5S133.1,252,151,252H176z
				 M133.5,219.5c0-9.6,7.9-17.5,17.5-17.5s17.5,7.9,17.5,17.5V237H151C141.4,237,133.5,229.1,133.5,219.5z"/>
			<path d="M336,252h25c17.9,0,32.5-14.6,32.5-32.5S378.9,187,361,187s-32.5,14.6-32.5,32.5v25C328.5,248.6,331.9,252,336,252z
				 M343.5,219.5c0-9.6,7.9-17.5,17.5-17.5s17.5,7.9,17.5,17.5S370.6,237,361,237h-17.5V219.5z"/>
			<circle cx="361" cy="116" r="7.5"/>
			<circle cx="216" cy="390.3" r="7.5"/>
		</g>
	</g>
</g>
<g id="_x31_5">
</g>
<g id="_x31_4">
</g>
<g id="_x31_3">
</g>
<g id="_x31_2">
</g>
<g id="_x31_1">
</g>
<g id="_x31_0">
</g>
<g id="_x30_9">
</g>
<g id="_x30_8">
</g>
<g id="_x30_7">
</g>
<g id="_x30_6">
</g>
<g id="_x30_5">
</g>
<g id="_x30_4">
</g>
<g id="_x30_3">
</g>
<g id="_x30_2">
</g>
<g id="_x30_1">
</g>
</svg>
