<svg width="51" height="51" viewBox="0 0 51 51" fill="none" xmlns="http://www.w3.org/2000/svg">
<path d="M25.669 0.198364C11.8591 0.198364 0.669189 11.3883 0.669189 25.1982C0.669189 39.008 11.8591 50.198 25.669 50.198C39.4789 50.198 50.6688 39.008 50.6688 25.1982C50.6688 11.3883 39.4689 0.198364 25.669 0.198364ZM25.669 46.198C14.0891 46.198 4.66916 36.7781 4.66916 25.1982C4.66916 13.6183 14.0891 4.19833 25.669 4.19833C37.2489 4.19833 46.6688 13.6183 46.6688 25.1982C46.6688 36.7781 37.2389 46.198 25.669 46.198Z" fill="black"/>
<path d="M34.3789 16.4883C33.5989 15.7083 32.3289 15.7083 31.5489 16.4883L25.6689 22.3682L19.789 16.4883C19.009 15.7083 17.739 15.7083 16.959 16.4883C16.179 17.2682 16.179 18.5382 16.959 19.3182L22.839 25.1982L16.959 31.0781C16.179 31.8581 16.179 33.1281 16.959 33.9081C17.349 34.2981 17.859 34.4981 18.369 34.4981C18.879 34.4981 19.389 34.2981 19.779 33.9081L25.659 28.0282L31.5389 33.9081C31.9289 34.2981 32.4389 34.4981 32.9489 34.4981C33.4589 34.4981 33.9689 34.2981 34.3589 33.9081C35.1389 33.1281 35.1389 31.8581 34.3589 31.0781L28.4789 25.1982L34.3589 19.3182C35.1589 18.5382 35.1589 17.2682 34.3789 16.4883Z" fill="black"/>
</svg>
