<?xml version="1.0" encoding="UTF-8" standalone="no"?>
<svg
   viewBox="0 0 45 60"
   width="45"
   height="60"
   version="1.1"
   id="svg4"
   sodipodi:docname="up.svg"
   inkscape:version="1.3 (0e150ed6c4, 2023-07-21)"
   xmlns:inkscape="http://www.inkscape.org/namespaces/inkscape"
   xmlns:sodipodi="http://sodipodi.sourceforge.net/DTD/sodipodi-0.dtd"
   xmlns="http://www.w3.org/2000/svg"
   xmlns:svg="http://www.w3.org/2000/svg">
  <defs
     id="defs4">
    <clipPath
       clipPathUnits="userSpaceOnUse"
       id="clipPath4">
      <path
         style="opacity:0.972689;fill:#fefae7;stroke:#09e60f"
         d="M 24.290999,48.212084 36.49815,11.837238 59.309494,9.3711467 l 7.644883,16.5228113 8.63132,15.659679 0.369913,10.110975 -8.138101,9.864365 -7.644883,8.38471 -9.494451,2.836005 -8.754624,0.369913 -11.09741,-10.110974 -7.644883,-8.631319 z"
         id="path5" />
    </clipPath>
  </defs>
  <sodipodi:namedview
     id="namedview4"
     pagecolor="#ffffff"
     bordercolor="#000000"
     borderopacity="0.25"
     inkscape:showpageshadow="2"
     inkscape:pageopacity="0.0"
     inkscape:pagecheckerboard="true"
     inkscape:deskcolor="#d1d1d1"
     inkscape:zoom="8.11"
     inkscape:cx="49.938348"
     inkscape:cy="50"
     inkscape:window-width="1920"
     inkscape:window-height="1046"
     inkscape:window-x="-11"
     inkscape:window-y="-11"
     inkscape:window-maximized="1"
     inkscape:current-layer="svg4" />
  <path
     fill="#60be92"
     d="M 64.37,43.99 54,53.747 V 15 H 50 46 V 53.747 L 35.63,43.99 29.98,49.65 50,68.997 70.02,49.65 Z M 81,70 V 83 H 19 V 69 h 6 v 8 h 50 v -7 z"
     id="path1"
     clip-path="url(#clipPath4)"
     transform="rotate(-0.5398,-1207.2435,2904.4296)"
     style="fill:#e03e3e;fill-opacity:1" />
  <path
     fill="#1f212b"
     d="m 22.996306,58.283067 c -0.25,0 -0.501,-0.094 -0.695,-0.281 l -20.0199998,-19.347 c -0.193,-0.186 -0.303,-0.441 -0.305,-0.71 -0.002,-0.268 0.103,-0.525 0.292,-0.715 l 5.65,-5.66 c 0.382,-0.383 0.999,-0.394 1.393,-0.022 l 8.6849998,8.172 V 3.2860675 c 0,-0.553 0.448,-1 1,-1 h 8 c 0.552,0 1,0.447 1,1 V 39.720067 l 8.685,-8.172 c 0.393,-0.371 1.011,-0.36 1.393,0.022 l 5.65,5.66 c 0.189,0.189 0.295,0.447 0.292,0.715 -0.002,0.269 -0.112,0.524 -0.305,0.71 l -20.02,19.347 c -0.194,0.187 -0.445,0.281 -0.695,0.281 z m -18.5939998,-20.359 18.5939998,17.968 18.594,-17.969 -4.246,-4.254 -9.663,9.092 c -0.291,0.273 -0.717,0.35 -1.082,0.189 -0.366,-0.157 -0.603,-0.518 -0.603,-0.917 V 4.2860675 h -6 V 42.033067 c 0,0.399 -0.237,0.76 -0.604,0.918 -0.364,0.157 -0.791,0.084 -1.082,-0.189 l -9.6629998,-9.092 z"
     id="path2" />
</svg>
