<?xml version="1.0" encoding="UTF-8" standalone="no"?>
<svg
   viewBox="0 0 2000 1700"
   version="1.1"
   id="svg212"
   sodipodi:docname="jrweb.svg"
   xml:space="preserve"
   width="2000"
   height="1700"
   inkscape:version="1.3 (0e150ed6c4, 2023-07-21)"
   xmlns:inkscape="http://www.inkscape.org/namespaces/inkscape"
   xmlns:sodipodi="http://sodipodi.sourceforge.net/DTD/sodipodi-0.dtd"
   xmlns="http://www.w3.org/2000/svg"
   xmlns:svg="http://www.w3.org/2000/svg"
   xmlns:rdf="http://www.w3.org/1999/02/22-rdf-syntax-ns#"
   xmlns:cc="http://creativecommons.org/ns#"
   xmlns:dc="http://purl.org/dc/elements/1.1/"><sodipodi:namedview
     id="namedview212"
     pagecolor="#ffffff"
     bordercolor="#000000"
     borderopacity="0.25"
     inkscape:showpageshadow="2"
     inkscape:pageopacity="0.0"
     inkscape:pagecheckerboard="true"
     inkscape:deskcolor="#d1d1d1"
     inkscape:zoom="0.2508547"
     inkscape:cx="2013.1175"
     inkscape:cy="1098.2453"
     inkscape:window-width="1920"
     inkscape:window-height="1046"
     inkscape:window-x="-11"
     inkscape:window-y="-11"
     inkscape:window-maximized="1"
     inkscape:current-layer="g212" /><defs
     id="defs1"><style
       id="style1">.cls-1{isolation:isolate;}.cls-18,.cls-2,.cls-22{fill:#fff;}.cls-2{opacity:0;}.cls-3{fill:#f2ecfa;}.cls-4{opacity:0.59;mix-blend-mode:multiply;}.cls-5{fill:#ddcef4;}.cls-6{fill:#f4b3c2;}.cls-7{fill:#f9a4b6;}.cls-8{fill:#f57692;}.cls-9{fill:#f45b83;}.cls-10,.cls-25{fill:#ef1b49;}.cls-11,.cls-34{fill:#371b43;}.cls-12,.cls-33{fill:#693e74;}.cls-13{fill:#8b519e;}.cls-14{fill:#7d7df3;}.cls-15{fill:#9d9ef6;}.cls-16,.cls-24{fill:#f4d240;}.cls-17{fill:#f7e9b2;}.cls-19{fill:#bebdf9;}.cls-20{fill:#f5f5f5;}.cls-21,.cls-30{fill:#f4babe;}.cls-21,.cls-22,.cls-23,.cls-24,.cls-25,.cls-26,.cls-33,.cls-34{fill-rule:evenodd;}.cls-23{fill:#b31437;}.cls-26,.cls-31{fill:#ea889b;}.cls-27{fill:#d3b94f;}.cls-28{fill:#a1a2a3;}.cls-29{fill:#f8e48c;}.cls-32{fill:#ffe3e6;}.cls-35{fill:#5c5df0;}</style><clipPath
       clipPathUnits="userSpaceOnUse"
       id="clipPath249"><path
         style="opacity:0.972689;fill:none;stroke:#09e60f"
         d="m 1682.8178,1261.4086 c 0,0 -33.1208,-2.1141 -36.292,34.1779 -3.1711,36.2919 -1.057,306.1911 -1.057,306.1911 0,0 -12.6846,9.5134 -12.6846,13.0369 0,3.5234 -2.4664,-11.2752 -2.4664,-11.2752 0,0 -17.6174,46.51 -24.6644,48.6241 -7.047,2.1141 -21.8456,29.245 -11.9799,50.0336 l 16.9128,27.8355 c 0,0 -20.0839,-1.7617 -17.9698,19.0268 2.1141,20.7886 37.349,28.5403 32.4161,29.5973 -4.9329,1.0571 -11.2752,35.9396 -11.2752,35.9396 l -4.9329,-1.4094 -2.8188,6.3423 -2.4664,-2.4664 c 0,0 -44.0436,40.5201 -110.2852,60.2516 0,0 -36.2919,28.1879 -38.0536,58.8422 -1.7618,30.6544 -10.5705,132.8355 -10.5705,132.8355 0,0 8.4564,156.7952 16.5604,163.1375 8.104,6.3423 49.6812,25.7215 52.8523,25.0168 3.1711,-0.7047 57.0805,14.7986 57.0805,14.7986 0,0 16.2081,53.2047 20.7886,56.7282 l -94.7818,91.6107 c 0,0 -13.0369,95.1341 92.3153,107.114 l 226.9127,0.7047 c 0,0 34.8825,57.0805 32.0637,63.7751 -2.8188,6.6947 -1.4094,7.7517 -1.4094,7.7517 l 8.104,1.057 c 0,0 -2.1141,19.7316 -10.2181,31.3591 -8.104,11.6275 14.4463,46.1577 14.4463,46.1577 0,0 10.2181,13.3892 14.094,29.9496 0,0 13.7416,8.104 9.5134,37.7013 0,0 4.2282,21.4933 26.0738,12.3323 0,0 6.6946,12.3322 23.6074,0.7047 0,0 17.6174,3.5234 22.1979,-0.3524 4.5806,-3.8758 1.0571,-14.4463 -3.1711,-25.3691 l -1.7618,-5.6376 c 0,0 17.2651,15.151 17.2651,18.3221 0,3.1712 15.5034,8.4564 18.6745,8.1041 3.1712,-0.3524 20.4363,-3.1712 19.0269,-26.4262 l -22.198,-18.3221 c 0,0 0.7047,-16.9128 -4.9329,-17.9698 -5.6376,-1.0571 -19.7315,-5.9899 -19.7315,-5.9899 l -51.0906,-60.604 -11.9799,-30.6544 10.5705,-7.3993 -5.9899,-6.6946 c 0,0 -2.8188,-49.6812 -4.5806,-52.5 l 1359.3616,1.057 c 0,0 90.2013,-16.9127 84.5637,-109.9328 l -143.7583,-146.5771 -19.7315,2.8188 c 0,0 29.5973,-22.5503 26.7785,-39.463 -2.8188,-16.9128 -4.2282,-937.2478 -4.2282,-937.2478 0,0 -5.6376,-42.2818 -43.6912,-39.4631 -38.0537,2.8188 -1471.4085,2.8188 -1471.4085,2.8188 z"
         id="path249"
         sodipodi:nodetypes="cscscsccsscccccscsscccccsccscccccsc" /></clipPath></defs><title
     id="title1">03</title><g
     class="cls-1"
     id="g212"><g
       id="_03"
       data-name="03"
       clip-path="url(#clipPath249)"
       transform="translate(-1391.2436,-1068.3475)"><rect
         id="_03-2"
         data-name="03"
         class="cls-2"
         width="4680"
         height="3120"
         x="0"
         y="0" /><g
         class="cls-4"
         id="g1" /><polygon
         class="cls-5"
         points="3439.75,1067.35 3435.97,1064.66 3435.97,1064.83 "
         id="polygon12" /><path
         class="cls-14"
         d="M 3163,1261.9 H 1680 a 34.2,34.2 0 0 0 -34.2,34.2 v 944.84 a 34.2,34.2 0 0 0 34.2,34.2 h 1483 a 34.2,34.2 0 0 0 34.2,-34.2 V 1296.1 a 34.2,34.2 0 0 0 -34.2,-34.2 z"
         id="path46" /><polygon
         class="cls-15"
         points="3197.15,2275.14 1645.71,2275.14 1496.67,2420.14 3339.56,2420.14 "
         id="polygon46" /><path
         class="cls-14"
         d="m 1496.67,2432.35 a 95.35,95.35 0 0 0 95.33,95.35 h 1652.22 a 95.35,95.35 0 0 0 95.34,-95.35 v -13.24 H 1496.67 Z"
         id="path47" /><path
         class="cls-15"
         d="m 2282.61,2430 a 24.81,24.81 0 0 0 24.81,24.81 h 221.39 a 24.81,24.81 0 0 0 24.81,-24.81 v -4.85 h -271 z"
         id="path48" /><rect
         class="cls-18"
         x="1701.36"
         y="1353.08"
         width="1443.4399"
         height="850.90002"
         id="rect48" /><rect
         class="cls-5"
         x="1701.36"
         y="1353.08"
         width="1443.4399"
         height="70.699997"
         id="rect49" /><path
         class="cls-18"
         d="m 1747.32,1380.11 a 9.81,9.81 0 1 0 10.14,9.8 10,10 0 0 0 -10.14,-9.8 z"
         id="path49" /><path
         class="cls-18"
         d="m 1777.55,1380.11 a 9.81,9.81 0 1 0 10.14,9.8 10,10 0 0 0 -10.14,-9.8 z"
         id="path50" /><path
         class="cls-18"
         d="m 1806.3,1380.11 a 9.81,9.81 0 1 0 10.14,9.8 10,10 0 0 0 -10.14,-9.8 z"
         id="path51" /><rect
         class="cls-5"
         x="1701.08"
         y="1529.08"
         width="1443.99"
         height="201.47"
         id="rect51" /><rect
         class="cls-19"
         x="1725.59"
         y="1465.1"
         width="141.13"
         height="35.950001"
         id="rect52" /><path
         class="cls-18"
         d="m 2359.54,1687.65 a 12.42,12.42 0 1 0 12.84,12.42 12.63,12.63 0 0 0 -12.84,-12.42 z"
         id="path52" /><path
         class="cls-18"
         d="m 2410.64,1687.65 a 12.42,12.42 0 1 0 12.84,12.42 12.63,12.63 0 0 0 -12.84,-12.42 z"
         id="path53" /><path
         class="cls-18"
         d="m 2459.44,1687.65 a 12.42,12.42 0 1 0 12.83,12.42 12.64,12.64 0 0 0 -12.83,-12.42 z"
         id="path54" /><rect
         class="cls-5"
         x="1891.29"
         y="1800.5"
         width="218.25999"
         height="190.39"
         rx="16.01"
         id="rect54" /><rect
         class="cls-5"
         x="2361.51"
         y="1797.09"
         width="184.02"
         height="184.02"
         rx="29.83"
         id="rect55" /><rect
         class="cls-5"
         x="2783.54"
         y="1791.4301"
         width="195.34"
         height="195.34"
         rx="25.15"
         id="rect56" /><path
         class="cls-5"
         d="m 2085.88,2030.62 h -165 a 12.72,12.72 0 0 0 0,25.43 h 165 a 12.72,12.72 0 1 0 0,-25.43 z"
         id="path58" /><path
         class="cls-5"
         d="m 2531.65,2030.62 h -165 a 12.72,12.72 0 0 0 0,25.43 h 165 a 12.72,12.72 0 1 0 0,-25.43 z"
         id="path59" /><path
         class="cls-5"
         d="m 2968.7,2031.26 h -156.62 a 12.07,12.07 0 1 0 0,24.14 h 156.62 a 12.07,12.07 0 1 0 0,-24.14 z"
         id="path60" /><rect
         class="cls-19"
         x="2963.5601"
         y="1435.1899"
         width="139.3"
         height="139.3"
         rx="14.72"
         id="rect72" /><path
         class="cls-14"
         d="m 1251.05,1583.39 0.06,0.07 v 0 z"
         id="path85" /><path
         class="cls-14"
         d="m 1442.8,2032.4 c 0,0.63 -0.07,1.26 -0.11,1.9 0,-0.29 0,-0.58 0,-0.87 z"
         id="path87" /><path
         class="cls-14"
         d="m 1453.64,1947.08 0.54,-0.83 -0.33,0.5 z"
         id="path89" /><path
         class="cls-14"
         d="m 1284.29,1597 v 0.09 l -0.55,-1.06 c 0.15,0.28 0.3,0.57 0.44,0.86 l 1.43,2.78 c -0.43,-0.84 -0.86,-1.67 -1.28,-2.51 z"
         id="path93" /><path
         class="cls-14"
         d="M 1304.35,1643.31 Z"
         id="path97" /><path
         class="cls-14"
         d="m 1346,1716.78 c -0.26,-0.52 -0.52,-1 -0.79,-1.55 l 0.36,0.71 z"
         id="path98" /><path
         class="cls-21"
         d="m 1683,1788.28 c 3.45,-9.74 -44.09,-72.45 -44.09,-72.45 0,0 -20.92,94.8 -29.45,108.53 0,0 19.16,12.39 29.69,21.86 15.09,13.57 49.84,17.9 49.84,17.9 0,0 -9.45,-66.12 -5.99,-75.84 z"
         id="path106" /><path
         class="cls-22"
         d="m 1637.44,1722.9 a 38,38 0 0 1 -3.28,12.18 c 0,0 -0.14,29.78 14.79,48.1 14.93,18.32 31.55,16.9 31.55,16.9 l 2.48,-11.8 -29.28,-52.16 z"
         id="path107" /><path
         d="m 1654.56,1735.4 -18,-14.67 -0.16,2.09 a 37,37 0 0 1 -3.18,11.78 l -0.11,0.23 v 0.25 c 0,1.23 0,30.38 15,48.79 13.13,16.13 27.43,17.34 31.43,17.34 0.6,0 1,0 1.07,0 l 0.8,-0.07 2.74,-13 -29.48,-52.52 z m 25,63.61 c -3.44,0 -17.29,-1.14 -29.81,-16.52 -13.81,-17 -14.51,-44.33 -14.55,-47.16 a 39.78,39.78 0 0 0 3.06,-10.31 l 14.54,11.81 29,51.63 z"
         id="path108" /><path
         class="cls-22"
         d="m 1953.51,2184.14 c 0,0 -30.08,39.3 3.37,72.13 0,0 8,-5.94 6.55,-31.39 -1.45,-25.45 -9.92,-40.74 -9.92,-40.74 z"
         id="path109" /><path
         d="m 1954.47,2183.61 -0.81,-1.46 -1,1.33 c -0.3,0.4 -30.28,40.45 3.48,73.57 l 0.67,0.66 0.75,-0.56 c 0.34,-0.26 8.48,-6.59 7,-32.34 -1.51,-25.4 -9.74,-40.56 -10.09,-41.2 z m 2.41,71.11 c -13,-13.15 -17.4,-28.79 -13.18,-46.5 a 70.32,70.32 0 0 1 9.65,-21.94 c 2.12,4.53 7.81,18.4 9,38.66 1.15,19.98 -3.67,27.64 -5.47,29.78 z"
         id="path110" /><path
         class="cls-23"
         d="m 1950.42,2186.45 a 695,695 0 0 1 -100.37,7.3 l -2.33,-5.85 c -2.33,-5.84 -9.45,-5 -9.45,-5 1.79,-7.75 -31.79,-245.42 -31.79,-245.42 l -17.12,-26.33 c 0,0 -26.9,139.83 -40.75,191.76 -13.85,51.93 50.07,152.24 50.07,152.24 60,15.89 128.73,-11.13 128.73,-11.13 16.49,9.93 27.22,11.18 27.22,11.18 -21.92,-37.75 -4.21,-68.75 -4.21,-68.75 z"
         id="path111" /><path
         class="cls-18"
         d="m 2081.21,2204 a 27,27 0 0 0 -8,-7.06 c -5.18,-3 -15.87,-1.06 -15.87,-1.06 l -7.23,-1.67 c 0,0 1,-8.22 -1.66,-14.4 -2.66,-6.18 -11.1,-9 -11.1,-9 -20.79,2.52 -54.48,20 -54.48,20 0,0 -3.73,-3.84 -3.15,-6.34 0.58,-2.5 9.39,-9 8.38,-21.08 -1.01,-12.08 -13.16,-18.4 -13.16,-18.4 -8.93,-5 -12.72,2.05 -12.72,2.05 4.16,12.09 3.54,37.72 3.54,37.72 -5.34,13.71 -4.36,18.91 -4.36,18.91 l -12.21,-0.18 c -2.51,2.8 -2.62,7.75 -1.64,13.12 -0.35,8.86 0.94,19.63 8.46,23.64 l 17.81,-4.18 v 0 c 4.7,-0.94 9,-1.58 10.69,-1.29 4.8,0.81 19.73,14.81 33.75,11 14.02,-3.81 32.31,-16.72 32.31,-16.72 3.71,4.21 14.7,3.55 15.49,1.39 0.79,-2.16 1,-12.06 1,-12.06 0,0 4.9,10.5 12.62,12.57 7.72,2.07 10.65,-4.27 10.65,-4.27 2.19,2 9.74,6.05 10.51,2.71 0.77,-3.34 -4,-18.2 -8.23,-22.76 -4.23,-4.56 -11.4,-2.64 -11.4,-2.64 z"
         id="path112" /><path
         d="m 2081.66,2202.77 a 28.17,28.17 0 0 0 -7.94,-6.8 c -5.09,-2.9 -14.74,-1.49 -16.38,-1.22 l -6.08,-1.41 c 0.18,-2.42 0.41,-8.82 -1.83,-14 -2.84,-6.55 -11.4,-9.48 -11.76,-9.61 l -0.23,-0.07 h -0.25 c -19.28,2.33 -48.9,17.06 -54.1,19.71 -1.26,-1.46 -2.6,-3.58 -2.33,-4.73 a 11.54,11.54 0 0 1 1.67,-2.45 c 2.81,-3.61 7.51,-9.65 6.73,-19 -1,-12.47 -13,-18.9 -13.73,-19.27 -3.28,-1.83 -6.31,-2.35 -9,-1.57 a 9.19,9.19 0 0 0 -5.2,4.06 l -0.22,0.42 0.15,0.46 c 3.87,11.22 3.53,34.79 3.49,37.14 -3.91,10.1 -4.44,15.69 -4.44,18 l -11.52,-0.17 -0.34,0.37 c -2.44,2.73 -3.09,7.41 -1.92,13.93 -0.48,12.64 2.65,21.12 9,24.53 l 0.37,0.2 18.17,-4.27 c 6.78,-1.36 9.34,-1.45 10.3,-1.29 1.19,0.2 3.47,1.57 6.12,3.16 5.85,3.51 14.18,8.52 22.77,8.52 a 20.24,20.24 0 0 0 5.32,-0.69 c 12.61,-3.41 28.28,-13.87 31.91,-16.36 3.25,2.76 9.34,3.15 12.92,2.48 2.09,-0.39 3.34,-1.11 3.72,-2.13 0.51,-1.4 0.8,-5.43 1,-8.54 2.19,3.42 6.13,8.32 11.38,9.73 6.35,1.7 9.84,-1.79 11.22,-3.72 2.35,1.68 6.9,4.12 9.5,3.3 a 2.59,2.59 0 0 0 1.79,-2 c 0.88,-3.82 -4.21,-19.14 -8.49,-23.75 -3.85,-4 -9.71,-3.35 -11.77,-2.96 z m 18.11,26.35 c -0.06,0.24 -0.15,0.31 -0.32,0.36 -1.63,0.51 -6.49,-1.93 -8.39,-3.64 l -1.1,-1 -0.62,1.35 c -0.11,0.22 -2.63,5.49 -9.38,3.68 -7.13,-1.92 -11.86,-11.89 -11.91,-12 l -2,-4.22 -0.11,4.66 c -0.09,3.76 -0.43,10.26 -0.94,11.67 -0.18,0.26 -1.48,0.88 -4.12,1 -3.43,0.17 -7.69,-0.6 -9.54,-2.7 l -0.65,-0.74 -0.81,0.57 c -0.18,0.13 -18.29,12.86 -32,16.55 -9.49,2.57 -19.66,-3.54 -26.4,-7.59 -3.06,-1.84 -5.27,-3.17 -6.88,-3.44 a 8.34,8.34 0 0 0 -1.23,-0.08 58.14,58.14 0 0 0 -9.89,1.39 l -17.4,4.08 c -6.79,-4 -7.85,-14.34 -7.53,-22.43 v -0.12 -0.12 c -1,-5.56 -0.64,-9.54 1.08,-11.82 l 11.68,0.17 h 1.31 l -0.22,-1.3 c 0,-0.05 -0.79,-5.22 4.31,-18.32 l 0.07,-0.18 v -0.19 c 0,-1 0.56,-25.29 -3.44,-37.6 a 6.9,6.9 0 0 1 3.64,-2.63 c 2.12,-0.61 4.59,-0.15 7.34,1.39 v 0 c 0.12,0.06 11.63,6.16 12.58,17.51 0.71,8.47 -3.67,14.09 -6.28,17.44 a 10.33,10.33 0 0 0 -2.07,3.3 c -0.7,3 3,6.92 3.42,7.35 l 0.57,0.59 0.72,-0.38 c 0.34,-0.17 33.47,-17.26 53.86,-19.84 1.31,0.49 8,3.21 10.22,8.32 2.52,5.83 1.58,13.76 1.57,13.84 l -0.12,1 8.41,1.94 h 0.22 c 0.1,0 10.35,-1.79 15.13,0.93 a 25.94,25.94 0 0 1 7.68,6.74 l 0.44,0.63 0.74,-0.2 c 0.07,0 6.61,-1.69 10.32,2.32 4.1,4.33 8.73,18.78 8.04,21.76 z"
         id="path113" /><path
         class="cls-22"
         d="m 1982.84,2190.77 c 0,0 22.68,12.67 23.72,25.72 0,0 13.48,11 44.14,8 L 2008.88,2179 c 0,0 -15.12,6.49 -26.04,11.77 z"
         id="path114" /><path
         d="m 2008.44,2178 c -0.15,0.06 -15.26,6.54 -26.08,11.76 l -1.89,0.92 1.83,1 c 0.23,0.12 22.19,12.54 23.17,24.85 v 0.47 l 0.36,0.29 c 0.5,0.41 11,8.76 34.36,8.76 3.27,0 6.8,-0.17 10.58,-0.54 l 2.19,-0.22 -43.84,-47.63 z m -0.83,37.88 c -1.34,-11.22 -17,-21.72 -22.45,-25 9.18,-4.36 20.51,-9.28 23.44,-10.53 l 39.79,43.24 c -25.66,2.01 -38.56,-6.12 -40.78,-7.69 z"
         id="path115" /><path
         class="cls-22"
         d="m 2032.37,2188 -6.15,3.26 -4.87,1.28 c 0,0 5.39,5.08 12.08,16.07 a 44.68,44.68 0 0 0 17.27,15.91 l 2.4,-10.38 -9.59,-21.85 z"
         id="path116" /><path
         d="m 2032.3,2186.75 -6.48,3.44 -6.66,1.74 1.44,1.36 c 0.05,0.05 5.38,5.13 11.9,15.84 a 45.24,45.24 0 0 0 17.74,16.33 l 1.23,0.57 2.78,-12.05 -9.92,-22.6 z m 17.66,36.09 a 44.08,44.08 0 0 1 -15.59,-14.85 95.24,95.24 0 0 0 -10.93,-14.92 l 3.06,-0.8 5.94,-3.12 10.25,3.95 9.26,21.09 z"
         id="path117" /><path
         class="cls-22"
         d="m 2075.9,2197.68 c -8.23,-6.09 -20.15,-2.06 -20.15,-2.06 a 134.58,134.58 0 0 0 7.59,19.19 c 4.52,9 13.42,15.45 13.42,15.45 10,3.83 12.8,-2.38 12.8,-2.38 -2.07,-10.3 -9.04,-26.79 -13.66,-30.2 z"
         id="path118" /><path
         d="m 2076.55,2196.8 c -8.59,-6.36 -20.64,-2.38 -21.15,-2.21 l -1,0.34 0.3,1 a 138.42,138.42 0 0 0 7.66,19.36 c 4.59,9.08 13.38,15.57 13.75,15.84 l 0.26,0.14 a 17.57,17.57 0 0 0 6.29,1.31 c 5.91,0 7.88,-4.21 7.9,-4.27 l 0.14,-0.32 -0.07,-0.34 c -2.13,-10.58 -9.18,-27.24 -14.08,-30.85 z m 0.74,32.49 c -1,-0.79 -8.89,-6.9 -13,-15 a 133.13,133.13 0 0 1 -7.18,-17.94 c 3,-0.77 11.81,-2.48 18.12,2.19 4.28,3.16 11.06,19.19 13.16,29.14 -0.64,1.07 -3.46,4.47 -11.1,1.61 z"
         id="path119" /><path
         class="cls-22"
         d="m 2050.08,2194.19 -4,5.49 c 0,0 1.21,24.59 4.51,29.35 3.3,4.76 14.15,4.68 15.19,3.31 1.04,-1.37 1.09,-8.42 1.33,-14 0.24,-5.58 -8.58,-21.23 -9.75,-22.5 -1.17,-1.27 -7.28,-1.65 -7.28,-1.65 z"
         id="path120" /><path
         d="m 2050.15,2193.1 h -0.6 l -4.63,6.28 v 0.39 c 0.12,2.55 1.32,25 4.69,29.92 2.24,3.24 7.42,4.5 11.52,4.59 h 0.54 c 1.68,0 4.11,-0.19 4.91,-1.24 1,-1.34 1.22,-5.29 1.44,-11.63 0,-1 0.07,-2 0.11,-3 0.26,-6.08 -9,-22.1 -10,-23.28 -1.38,-1.48 -6.46,-1.93 -7.98,-2.03 z m 15.7,28.21 c -0.13,3.77 -0.33,9.49 -0.92,10.29 -0.45,0.32 -3.31,0.76 -6.83,0.15 -3.19,-0.56 -5.56,-1.74 -6.66,-3.34 -2.51,-3.63 -3.93,-21.36 -4.29,-28.4 l 3.45,-4.68 c 2.78,0.24 5.46,0.81 5.9,1.28 1.09,1.17 9.69,16.48 9.46,21.7 -0.04,0.97 -0.07,1.98 -0.11,3 z"
         id="path121" /><path
         class="cls-22"
         d="m 2013.21,2177.57 a 29.36,29.36 0 0 0 -4.33,1.45 c 0,0 1.71,-0.59 4.33,-1.45 z"
         id="path122" /><path
         class="cls-22"
         d="m 2037.32,2170.78 c -5.19,0.68 -17.52,4.61 -24.11,6.79 a 25.85,25.85 0 0 1 18,1.69 c 2.69,6.77 0,23.06 0,23.06 5.34,8.26 15.18,8.17 15.18,8.17 1.5,-6.84 3.76,-16.3 3.76,-16.3 1.97,-23.44 -12.83,-23.41 -12.83,-23.41 z"
         id="path123" /><path
         d="m 2037.32,2169.69 h -0.14 c -5.28,0.69 -17.54,4.59 -24.19,6.79 a 31.11,31.11 0 0 0 -4.54,1.53 l 0.78,2 c 0.06,0 1.74,-0.6 4.29,-1.44 a 25.48,25.48 0 0 1 16.79,1.42 c 2.31,6.63 -0.22,21.94 -0.25,22.1 l -0.07,0.42 0.23,0.35 c 5.5,8.5 15.29,8.68 16.07,8.68 h 0.91 l 0.18,-0.85 c 1.49,-6.75 3.74,-16.19 3.76,-16.28 v -0.16 c 0.79,-9.13 -0.8,-15.93 -4.74,-20.21 a 13.24,13.24 0 0 0 -9.08,-4.35 z M 2049,2194 c -0.21,0.89 -2.13,9 -3.54,15.33 -2.37,-0.2 -9.07,-1.3 -13.16,-7.28 0.43,-2.7 2.47,-16.78 -0.08,-23.21 l -0.14,-0.35 -0.34,-0.19 a 24.08,24.08 0 0 0 -9.15,-2.6 c 5.62,-1.72 11.59,-3.41 14.8,-3.84 a 11.29,11.29 0 0 1 7.48,3.71 c 3.45,3.83 4.84,10.03 4.13,18.43 z"
         id="path124" /><path
         class="cls-22"
         d="m 2057.31,2195.86 c 7.14,8.63 9.66,24.64 9.66,24.64 0.81,-16.91 -6,-26 -6,-26 z"
         id="path125" /><path
         d="m 2061.32,2193.23 -5.85,2.14 1,1.19 c 6.87,8.3 9.41,24 9.43,24.12 l 1.67,10.56 0.51,-10.68 c 0.81,-17.11 -6,-26.3 -6.27,-26.68 z m -2.23,3.15 1.41,-0.52 a 37.58,37.58 0 0 1 4.67,13 46.32,46.32 0 0 0 -6.08,-12.48 z"
         id="path126" /><path
         class="cls-24"
         d="m 1670.42,1851.32 c -16.8,-0.54 -61.57,-39.13 -61.57,-39.13 l -11.37,22.73 c 0,0 60.36,42.6 78.55,40.29 18.19,-2.31 19.23,-18.79 19.23,-18.79 l -8.39,-14.64 c 0,0 -6.95,9.85 -16.45,9.54 z"
         id="path127" /><path
         class="cls-25"
         d="m 1802,1930.07 c -15.18,-25.34 -10.14,-23.3 -40.76,-38.09 -5.63,-2.7 -11.14,-5.71 -16.43,-8.83 v 0 c -23,-13.54 -57.1,-40.64 -58,-41.34 0.42,1.23 9.74,18.46 -12.28,18.86 -35.62,0.64 -70.18,-42.92 -70.18,-42.92 -9.72,9.17 -32.71,24.5 -59.78,36.06 -24.44,10.45 -47,19.36 -51.49,22.37 -9.5,6.33 -20.05,27.44 -20.05,27.44 0,0 22.59,79.06 48.16,145.81 3.23,8.47 6.52,16.72 9.81,24.6 v 0.11 q 3.72,8.91 7.44,17.08 c 31.65,69.36 32,104.46 32,104.46 0,0 -10.08,17.61 -7.75,21.82 2.33,4.21 8.72,7.52 8.72,7.52 -1.89,9.05 -2.5,16.35 -5.84,20.61 -5.8,7.44 8.32,26.08 8.32,26.08 0,0 28.89,-37 51.46,-46.47 22.57,-9.47 65.74,1.31 94.29,-0.81 6.27,-0.47 13.57,-1.33 21.12,-2.39 26.74,-3.76 56.72,-10.06 56.72,-10.06 0,0 -6.58,-10.67 -11,-14.87 -4.42,-4.2 -20.42,-1.43 -20.42,-1.43 -6.55,-7.77 -11.61,-21.89 -15.4,-36.27 -0.09,-0.36 -0.2,-0.69 -0.28,-1.05 -0.36,-1.35 -0.72,-2.85 -1.11,-4.49 -3.76,-15.8 -6,-30.92 -6.86,-37.33 -0.25,-2 -0.39,-3.21 -0.39,-3.21 32.59,-47.85 36,-120 40.23,-131.59 4.23,-11.59 19.75,-51.67 19.75,-51.67 z"
         id="path128" /><path
         class="cls-23"
         d="m 1749.41,2153.84 c -3.27,-14 -6.83,-37.33 -6.83,-37.33 v 0 l -80.73,-20.09 -96.89,-28.13 c 0,0 -9.86,2.81 -12,-50 -2.14,-52.81 -44.41,-94.24 -44.41,-94.24 l 12.68,125.33 9.81,24.6 v 0.11 q 3.72,8.91 7.44,17.08 c 31.65,69.36 32,104.46 32,104.46 0,0 -10.08,17.61 -7.75,21.82 2.33,4.21 8.72,7.52 8.72,7.52 -1.89,9.05 -2.5,16.35 -5.84,20.61 -5.8,7.44 8.33,26.08 8.33,26.08 0,0 28.88,-37 51.45,-46.47 22.57,-9.47 65.74,1.31 94.29,-0.81 6.27,-0.47 13.57,-1.33 21.12,-2.39 -1.14,-0.73 -2.39,-1.45 -3.76,-2.21 -57.95,-32.14 -136.34,0.48 -136.34,0.48 0,0 2.85,-28.83 49.2,-25 30.42,2.51 67.16,2.82 88.84,2.7 -20.51,-0.44 -53.91,-6.73 -83.81,-18.49 -46.43,-18.3 -54.23,-34.49 -54.23,-34.49 49.62,25.1 147.87,14.62 150,14.4 v 0 c -0.12,-0.33 -0.2,-0.69 -0.31,-1.05 -0.23,-1.33 -0.59,-2.85 -0.98,-4.49 z"
         id="path129" /><path
         class="cls-22"
         d="m 1654.82,2257.09 c -5.36,21.13 4.9,39.5 4.9,39.5 9.63,-4 30.43,-37.35 30.83,-58.43 0.4,-21.08 -4.54,-27.26 -4.54,-27.26 0,0 -25.82,25.1 -31.19,46.19 z"
         id="path130" /><path
         d="m 1686.11,2209.27 -0.86,0.85 c -1.07,1 -26.1,25.51 -31.49,46.7 -5.39,21.19 4.58,39.54 5,40.3 l 0.47,0.86 0.91,-0.38 c 10.38,-4.36 31.09,-38 31.5,-59.42 0.39,-21.22 -4.57,-27.7 -4.78,-28 z m 3.35,28.87 c -0.4,20.82 -20.06,51.66 -29.26,57 -1.93,-3.95 -8.84,-19.94 -4.32,-37.76 4.64,-18.25 25.14,-39.85 29.9,-44.68 1.27,2.52 3.97,9.81 3.68,25.44 z"
         id="path131" /><path
         class="cls-21"
         d="m 1796.27,2248 c -5.41,-3.63 -2.92,-7.75 -2.92,-7.75 v 0 a 1.71,1.71 0 0 0 0.11,-0.14 c 6,-7.16 -28.35,-41.61 -28.35,-41.61 0,0 -11.57,-5.26 -17.94,-5.81 -6.37,-0.55 -41.54,24.1 -46.09,25.05 -4.55,0.95 -13.59,-0.43 -13.59,-0.43 0,0 -13.83,23.31 -11.45,35.39 0,0 22.42,-5.92 31.21,-5.27 0,0 6.92,7.31 17.14,8.5 10.22,1.19 13.4,-1.11 19.79,0.65 3.45,1 5.88,2.9 8.89,4.36 v 0 l 0.56,0.26 c 16.72,8 25.72,-4.45 35,-3.42 9.28,1.03 36.76,14.5 36.76,14.5 7.86,-5.56 5.29,-10.69 5.29,-10.69 -8.27,-20.51 -34.41,-13.59 -34.41,-13.59 z"
         id="path132" /><path
         class="cls-26"
         d="m 1745,2193 -1,9.41 c 0,0 3.21,6.38 8,10 4.79,3.62 9.2,6.4 9.2,6.4 -5.87,-6.45 -14.08,-26.16 -14.08,-26.16 z"
         id="path133" /><path
         class="cls-26"
         d="m 1788.2,2222 -15.39,-8.62 -18.76,-4 -1.08,-4.1 -10.31,4.05 c -0.84,10.4 -2.27,15.42 23.82,26.81 a 142.47,142.47 0 0 0 26.91,8.72 c -0.82,-3.45 2.4,-7.41 2.4,-7.41 z"
         id="path134" /><path
         class="cls-21"
         d="m 1810.85,2208.68 c 0,0 -1.41,-3.34 -3.36,-7.15 -1.95,-3.81 -6.5,-8 -10.39,-8.64 -3.89,-0.64 -11.34,2.06 -11.34,2.06 -2.84,-3.88 -10.92,-4.9 -14,-4.53 -3.08,0.37 -8.41,3.53 -8.41,3.53 -10.75,-5 -18.36,-0.93 -18.36,-0.93 0,0 10.64,21.49 16.21,25.8 5.15,4 13.41,0.7 13.41,0.7 0,0 3.43,9.07 8.74,14.43 5.31,5.36 15.86,6.49 15.86,6.49 2.14,3.2 11.49,8 13.74,7.41 2.25,-0.59 2.15,-4.53 2.15,-4.53 0,0 9.19,3.2 10.19,0.11 1,-3.09 0.17,-20.17 -2.61,-24.93 -2.78,-4.76 -11.83,-9.82 -11.83,-9.82 z"
         id="path135" /><path
         class="cls-26"
         d="m 1763.54,2194.2 -0.19,-0.25 z"
         id="path136" /><path
         class="cls-26"
         d="m 1774.61,2219.52 a 46.25,46.25 0 0 0 8.74,14.43 149,149 0 0 0 -19.51,-39.33 c 4.5,6.38 10.77,24.9 10.77,24.9 z"
         id="path137" /><path
         class="cls-26"
         d="m 1763.84,2194.62 c -0.1,-0.15 -0.2,-0.28 -0.3,-0.42 z"
         id="path138" /><path
         class="cls-26"
         d="m 1785.76,2195 c 0,0 12.55,20.89 13.45,45.49 0,0 -0.33,-27.8 -8.07,-47 z"
         id="path139" /><path
         class="cls-22"
         d="m 1810.85,2208.68 c 0,0 5.19,17 4.25,34.64 0,0 2.77,-18.05 0.23,-31.79 z"
         id="path140" /><path
         d="m 1816.32,2210.86 -7.38,-4.69 0.87,2.83 c 0,0.17 5.11,17 4.2,34.26 l 2.17,0.22 c 0.12,-0.74 2.78,-18.38 0.23,-32.15 z m -3.67,0.26 1.69,1.08 a 75.23,75.23 0 0 1 1,12.7 125.18,125.18 0 0 0 -2.69,-13.78 z"
         id="path141" /><path
         class="cls-16"
         d="m 1662.27,2264.71 19.32,-1.62 c 0,0 3.22,-27.88 14.79,-50.48 l -23.86,-2.33 c 0,0 -7.72,32.61 -10.25,54.43 z"
         id="path142" /><path
         class="cls-25"
         d="m 1557.64,2180.93 c 0,0 4.93,-8.7 -0.36,-13.57 -5.29,-4.87 -28.9,-9.36 -28.9,-9.36 0,0 27,-69.89 13,-174.3 L 1496,1874.63 c -22,16.91 -40.33,43.72 -41.49,62.81 -1.16,19.09 -6.14,109.62 -5.78,130.17 1.79,102 11.6,164.41 11.6,164.41 41.85,33.47 165.72,48.14 176.11,50.91 a 46.58,46.58 0 0 1 12.37,5.81 101.7,101.7 0 0 1 10.9,7.85 c -2.63,-41.76 26.77,-87.18 26.77,-87.18 -68.39,-5.24 -128.84,-28.48 -128.84,-28.48 z"
         id="path143" /><path
         class="cls-23"
         d="m 1619.64,2254.46 c -62.52,-12.73 -144.85,-50.46 -144.85,-50.46 -26.6,-71.76 -20.27,-266.56 -20.27,-266.56 -1.15,19 -6.75,86.3 -8.27,114.79 -3.78,70.41 14.09,179.79 14.09,179.79 41.85,33.47 165.72,48.14 176.11,50.91 a 46.58,46.58 0 0 1 12.37,5.81 l -1,-2.14 c -7.81,-31.33 21,-67.42 24.7,-71.93 -23.28,24.88 -52.88,39.79 -52.88,39.79 z"
         id="path144" /><path
         class="cls-23"
         d="m 1550.12,2165.25 c 0,0 -27.71,-1 -53.94,9 0,0 44.41,-4.94 58.55,1.64 0,0.02 3.32,-5.32 -4.61,-10.64 z"
         id="path145" /><path
         class="cls-27"
         d="m 2088.52,1986.77 h -241.78 c -11.23,0 -20.62,12.11 -21.68,28 l -16.08,195 c -1.22,18.13 8.84,33.8 21.68,33.8 h 241.78 c 11.23,0 20.61,-12.1 21.68,-28 l 16.07,-195 c 1.22,-18.12 -8.83,-33.8 -21.67,-33.8 z"
         id="path146" /><path
         class="cls-28"
         d="m 2072.44,2243.57 c 7.9,0 14.88,-6 18.7,-15.09 l -68,15.09 z"
         id="path147" /><path
         d="m 2090.14,2228.06 c -0.29,0.66 -0.6,1.31 -0.92,2 l 2.15,-0.47 z"
         id="path148" /><path
         d="m 2073.62,2231.37 c -5.75,1.37 -11.5,2.75 -17.17,4.17 l -16.83,4.16 c -5.51,1.35 -11.06,2.64 -16.49,3.87 5.9,-1.28 11.68,-2.5 17.51,-3.67 l 17.17,-3.39 c 5.68,-1.09 11.25,-2.22 16.84,-3.37 4.86,-1 9.71,-2.07 14.57,-3.13 0.32,-0.64 0.63,-1.29 0.92,-2 l 1.23,1.48 -2.15,0.47 a 27.68,27.68 0 0 1 -3.72,5.74 19.9,19.9 0 0 1 -6.93,5.42 14.61,14.61 0 0 1 -4.18,1.25 15.79,15.79 0 0 1 -2.19,0.16 h -2.29 c -3,0 -6.09,0.06 -9.14,0.13 -6.09,0.12 -12.23,0.34 -18.5,0.51 -6.27,0.17 -12.66,0.29 -19.14,0.32 6,0 12.1,0.13 18.25,0.33 6.15,0.2 12.51,0.39 18.88,0.51 3.18,0.07 6.37,0.11 9.55,0.13 h 2.38 a 17.05,17.05 0 0 0 2.47,-0.14 16.07,16.07 0 0 0 4.77,-1.34 22,22 0 0 0 7.71,-5.94 31.48,31.48 0 0 0 5,-8.24 l 0.83,-2 -2.07,0.47 c -5.74,1.45 -11.53,2.73 -17.28,4.1 z"
         id="path149" /><path
         class="cls-16"
         d="m 2110.89,1986.77 h -241.78 c -11.23,0 -20.62,12.11 -21.68,28 l -16.07,195 c -1.22,18.13 8.83,33.8 21.67,33.8 h 241.78 c 11.23,0 20.61,-12.1 21.68,-28 l 16.07,-195 c 1.22,-18.12 -8.83,-33.8 -21.67,-33.8 z"
         id="path150" /><path
         class="cls-29"
         d="m 2110.89,1986.77 h -241.78 c -11.23,0 -20.62,12.11 -21.68,28 l -6.28,93.54 c 23.41,-27.7 54,-51.87 90.41,-69.59 68.64,-33.4 142.52,-36.4 200.72,-13.84 l 0.28,-4.25 c 1.22,-18.18 -8.83,-33.86 -21.67,-33.86 z"
         id="path151" /><rect
         class="cls-18"
         x="1707.95"
         y="2275.98"
         width="386.85999"
         height="28.33"
         rx="9.8400002"
         id="rect151" /><path
         d="m 2085,2274.88 h -367.21 a 11,11 0 0 0 -10.93,10.94 v 8.65 a 10.94,10.94 0 0 0 10.93,10.93 H 2085 a 10.94,10.94 0 0 0 10.93,-10.93 v -8.65 A 11,11 0 0 0 2085,2274.88 Z m 8.74,19.59 a 8.75,8.75 0 0 1 -8.74,8.74 h -367.21 a 8.75,8.75 0 0 1 -8.74,-8.74 v -8.65 a 8.76,8.76 0 0 1 8.74,-8.75 H 2085 a 8.76,8.76 0 0 1 8.74,8.75 z"
         id="path152" /><path
         class="cls-11"
         d="m 2141.72,2254.2 a 10.29,10.29 0 0 0 -2.09,-3.86 c -5.8,-6.68 -14.58,-11.81 -22.35,-15.81 -6.23,-3.21 -17.89,-7.53 -21.63,-1.55 -87.41,10.33 -175.13,-7.37 -260.58,13.75 -8.71,-7.22 -17.51,-14 -26.22,-21.21 -14.62,-0.94 -30.47,-0.22 -43.19,7 -12.72,7.22 -22.6,20.42 -23.4,35 -0.72,13.17 5.65,25.6 12.37,36.95 9.1,15.36 20,29.62 31,43.71 76.87,3.85 150.91,-1.33 227.71,3.82 22.05,1.48 44.43,2.24 66,-2.48 21.57,-4.72 42.56,-15.47 55.66,-33.26 a 63.8,63.8 0 0 0 10.09,-20.89 58,58 0 0 0 0.72,-28.89 c -1.03,-4.15 -2.81,-8.16 -4.09,-12.28 z"
         id="path153" /><path
         class="cls-30"
         d="m 1906.58,2310 c -0.14,-0.22 -0.31,-0.48 -0.44,-0.7 -0.13,-0.22 -0.35,-0.09 -0.79,-0.09 -1,0 -2.55,0.05 -2.5,0.05 a 49.81,49.81 0 0 0 -6.67,0.52 c -1,0.18 -2,0.36 -3.08,0.57 a 68.82,68.82 0 0 0 -10,2.94 28.38,28.38 0 0 0 -7.72,3.87 22.63,22.63 0 0 1 -6.23,4 c -7.37,2.81 -14.79,5.53 -22.2,8.29 -11,4.08 -17.68,13.6 -24.4,23.21 1.84,16.63 7.51,35.68 14.13,51 a 29,29 0 0 0 4.74,8.25 11.32,11.32 0 0 0 8.34,4 c 1.8,-4.7 3.55,-10.93 5.35,-15.67 q 20.67,-12.24 41.33,-24.53 c 7.33,-4.34 14.66,-8.73 22,-13.07 -0.26,-3.69 -1,-7.59 -0.31,-11.28 0.22,-1.32 0.7,-2.59 0.84,-3.9 0.44,-4.17 -0.88,-8.87 -1.89,-12.86 a 85.57,85.57 0 0 0 -10.5,-24.6 z"
         id="path154" /><path
         class="cls-31"
         d="m 1906.58,2310 c -0.4,-0.26 -0.79,-0.52 -1.23,-0.79 -3.16,-1.88 -7.16,-3.64 -10.14,-1.44 a 7.18,7.18 0 0 0 -2.11,2.58 c -2.15,4.35 -0.65,11.28 -0.35,15.45 0.57,7.63 1.14,15.27 1.71,22.86 0.62,8.56 1.28,17.11 1.89,25.67 0.05,0.48 0.09,0.92 0.13,1.4 7.33,-4.34 14.66,-8.73 22,-13.07 -0.26,-3.69 -1,-7.59 -0.31,-11.28 0.22,-1.32 0.7,-2.59 0.84,-3.9 0.44,-4.17 -0.88,-8.87 -1.89,-12.86 A 85.57,85.57 0 0 0 1906.58,2310 Z"
         id="path155" /><path
         class="cls-12"
         d="m 2087.44,2240.84 c -34.84,1 -64.28,25.58 -96.36,39.18 -26.72,11.33 -46.29,20.19 -86.61,24.66 -4.08,0.44 -8,-0.52 -12,-1.49 8.29,10.09 11.28,25.06 14.87,37.34 a 144.43,144.43 0 0 1 6.06,35.11 c 3,-1.5 3.38,-5.84 6.71,-5.8 h 0.18 c 31.38,0.63 63.25,-0.44 94.54,1.95 20.14,1.54 40.16,4.41 60.29,6.06 10.35,0.85 20.72,1.36 31.1,1.24 8.22,-0.1 17,-0.57 23.61,-6.08 a 120.78,120.78 0 0 0 34.16,-48.32 c 8.2,-21.37 3.82,-46.2 -7.07,-66.34 -20.73,-10.01 -46.44,-18.12 -69.48,-17.51 z"
         id="path156" /><path
         class="cls-11"
         d="m 1968,2351.85 c -11.71,1.54 -23.69,3.16 -34.31,8.3 a 44.42,44.42 0 0 0 -13.38,9.69 c 22.54,0.45 45.09,0.42 67.63,1 22,0.6 43.27,2.91 65.07,5.65 19.35,2.43 39.64,3.95 59.13,3 4.53,-0.22 9.22,-0.7 13.11,-3 -22.63,-3.7 -41.69,-16.36 -63.26,-23.26 -30.1,-9.58 -62.66,-5.5 -93.99,-1.38 z"
         id="path157" /><path
         class="cls-30"
         d="m 2003,2724.58 a 1.49,1.49 0 0 0 -0.29,-0.2 81.39,81.39 0 0 1 -18.89,-14.49 c -0.47,-0.47 -0.94,-0.95 -1.4,-1.44 1.71,-5.79 -0.75,-11.8 -3.82,-17 -6.36,-1.54 -13.56,-4.3 -19.92,-5.88 -18.43,-22.56 -34.44,-44.32 -52,-61.48 -3.42,-8.73 -6.89,-17.46 -10.31,-26.19 q -5.32,-13.5 -10.66,-27 c -7,-0.22 -15,1.4 -22,3.82 -7.88,2.69 -6,10.95 -7.05,18.09 a 140,140 0 0 1 -6.62,27.91 c -2.88,7.76 -6.94,15 -6.78,23.54 0.22,11.57 6.62,21.54 13.15,30.79 a 150.67,150.67 0 0 1 9.71,14.71 c 2.89,5.3 4,10.95 6.23,16.45 1.92,4.7 6.68,5.88 8,11.15 2.08,8 3.54,15.58 2.71,23.87 -0.66,6.52 1.23,12.88 7,16.68 a 17,17 0 0 0 18.25,-0.13 13.86,13.86 0 0 0 10.84,6.49 c 4.34,0.22 10.13,-1.8 12.81,-5.22 4.38,3 10.58,3.21 15.62,2.21 6.9,-1.38 9.1,-5.44 9.09,-12.52 0,-8.14 -6.92,-14.1 -7.67,-21.84 a 85.59,85.59 0 0 1 15.6,15.12 c 4,5.23 8.7,9.26 15.38,10.59 7.3,1.46 16.3,-0.56 20.74,-6.9 4.13,-5.89 4.41,-13.91 2.48,-20.64 a 1,1 0 0 0 -0.2,-0.49 z"
         id="path158" /><path
         class="cls-31"
         d="m 1936.68,2752.86 c -3.38,-6.63 -6.72,-13.25 -10.1,-19.88 2.07,6.76 3,13.91 5.09,20.71 -4.87,1.36 -11.32,0.22 -16,-1.58 -2,-7.06 -4.08,-14.08 -6.1,-21.15 0.53,6.1 -1,13.25 -0.48,19.35 a 10.72,10.72 0 0 1 -10.53,2.15 c -3.34,-1.14 -4.92,-3.6 -6.63,-6.45 -3.86,-6.4 -5,-13.86 -6.19,-21.19 -1.93,-12.2 -3,-24.75 -7.9,-36.07 -3.24,-7.41 -8.07,-14.08 -11,-21.63 -2.93,-7.55 -5,-17.95 -0.22,-24.53 -3.56,-1.05 -6,-4.52 -6.89,-8.12 -0.89,-3.6 -0.57,-7.41 -0.18,-11.1 1.1,-11.23 2.24,-22.46 3.34,-33.7 0.35,-3.59 -1.67,-6.89 -4.74,-9.43 -0.57,5.09 -1.54,10.14 -2.55,15.18 -0.7,3.34 -0.48,6.8 -1,10.18 a 39.89,39.89 0 0 1 -1.36,5.66 106.11,106.11 0 0 1 -4.12,10.8 c -2.94,7.06 -6.1,14.34 -5.93,22.15 0.43,18.94 16.58,31.32 24.16,47.36 2.29,4.84 2.71,10.26 5,15 1.47,3.07 3.59,4 6,6 2,1.67 2,4.57 2.55,6.92 1.57,7.2 3.45,14.26 2,21.67 a 16.74,16.74 0 0 0 7.11,16.67 17,17 0 0 0 18.25,-0.13 13.86,13.86 0 0 0 10.84,6.49 c 4.34,0.22 10.13,-1.8 12.81,-5.22 5.79,4 16.93,3.37 22.73,-0.58 0.44,-2.41 1.27,-4.65 1.71,-6.89 -5.07,1.13 -15.02,1.88 -19.67,1.36 z"
         id="path159" /><path
         class="cls-31"
         d="m 1992.62,2737.68 a 27,27 0 0 1 -16.32,2.89 c -8.3,-1.14 -13.47,-8.25 -19.53,-14 a 6.37,6.37 0 0 1 -0.13,-1.27 c -0.09,-0.88 -0.18,-1.76 -0.26,-2.59 -0.22,-1.71 -0.44,-3.42 -0.79,-5.13 a 61,61 0 0 0 -2.24,-8.25 4.8,4.8 0 0 0 -2,-2.07 19.61,19.61 0 0 0 -6.36,-3.07 184.63,184.63 0 0 0 4.65,23.13 c 5,5.09 10.62,9.08 15,14.7 4.65,6 7.29,8.11 15.14,10.92 9.17,0.22 17.29,-0.35 21.54,-8.42 3.34,-6.32 4.26,-11.37 2.46,-17.77 a 27,27 0 0 1 -11.16,10.93 z"
         id="path160" /><path
         class="cls-32"
         d="m 1990.9,2718.66 c -5.71,1.6 -14.78,6.5 -15.44,7.71 -0.66,1.21 2.44,9.57 5.07,12.34 a 49.55,49.55 0 0 0 17.5,-12.42 c -0.3,-2.93 -4.84,-5.61 -7.13,-7.63 z"
         id="path161" /><path
         class="cls-32"
         d="m 1948.78,2735.94 a 36.18,36.18 0 0 1 -4.86,2.63 7.32,7.32 0 0 1 -2.51,0.74 c -2.1,0.12 -3.91,-1.36 -5.48,-2.76 0.62,3.47 1.12,7.44 2.8,10.53 a 6.55,6.55 0 0 0 2.75,3.05 6,6 0 0 0 4.82,-0.46 8.85,8.85 0 0 0 4,-3.16 8,8 0 0 0 0.9,-5.46 c -0.33,-1.87 -1.71,-3.36 -2.42,-5.11 z"
         id="path162" /><path
         class="cls-32"
         d="m 1927.42,2742.21 c -0.3,-1.8 -0.85,-3.57 -3,-3.5 a 14.43,14.43 0 0 0 -4.36,1.31 l -4.63,1.71 c -0.59,0.22 -1.25,0.5 -1.46,1.09 a 2.13,2.13 0 0 0 0.32,1.61 41,41 0 0 0 3.66,6 5.86,5.86 0 0 0 2.75,2.38 6.36,6.36 0 0 0 4.06,-0.56 5.36,5.36 0 0 0 2.48,-1.48 5.1,5.1 0 0 0 0.71,-3.45 45.53,45.53 0 0 0 -0.53,-5.11 z"
         id="path163" /><path
         class="cls-32"
         d="m 1907.09,2737.13 a 11.23,11.23 0 0 0 -2.17,0.58 14.1,14.1 0 0 1 -2.42,0.43 15.47,15.47 0 0 1 -4.94,-0.32 14.65,14.65 0 0 1 -2.35,-0.76 c -0.22,-0.09 -2.2,-0.93 -2.15,-1.12 a 24.77,24.77 0 0 0 -1,5.44 7.38,7.38 0 0 0 5.91,8 24.71,24.71 0 0 0 5.29,0.66 c 1.54,0.08 3.3,0.07 4.33,-1.08 a 5,5 0 0 0 1,-2.69 45.59,45.59 0 0 0 0.47,-6.71 c 0.01,-1.26 -0.5,-2.5 -1.97,-2.43 z"
         id="path164" /><path
         class="cls-31"
         d="m 1863.66,2574.67 q -2.57,17 -5.18,34 a 68,68 0 0 0 16.33,-1.75 69.21,69.21 0 0 0 14,-4.83 c 2.33,-1.1 5.4,-2.32 7.59,-4.21 q -5.32,-13.5 -10.66,-27 c -7.07,-0.25 -15.01,1.37 -22.08,3.79 z"
         id="path165" /><path
         class="cls-12"
         d="m 1898.81,2578.79 c -2.15,-115.13 -43.75,-229.74 -108.56,-325 -6.49,-9.52 -35.19,-16.37 -35.19,-16.37 -49,-2.19 -91.57,9.52 -137.77,25.45 l -3.43,1.19 c -5.79,2 -9.91,5 -15.84,6.4 -10.48,-2.85 -19.87,-5 -28.78,-9.08 4.25,19.31 9.83,32.38 15.22,51.34 6.1,21.5 23.52,37.12 45,43.35 23,6.67 48,7.85 71.87,6 0,4.17 1.8,8.3 3.73,12 3.73,-1.49 7.9,-3.73 11.67,-5.22 -0.13,4.74 -0.13,9.48 0.09,14.22 0.53,9.39 2,18.78 5.62,27.47 8.11,19.57 25.53,32.95 39.88,47.69 15.84,16.37 33.88,26.37 45.42,51.08 15.31,31.33 28.78,51.47 40,80.6 0,2.55 0,5.88 0,8.56 v 0.52 c 19.65,5 41.68,0.53 57.56,-12.06 -1.58,-2.7 -6.45,-5.02 -6.49,-8.14 z"
         id="path166" /><path
         class="cls-11"
         d="m 1795.08,2446.32 c -22,-27.29 -70.47,-50.11 -64.76,-84.73 2.63,-15.84 6.88,-32.33 15,-46.16 -10.1,7.9 -20.14,15.84 -30.24,23.74 0.62,-11.63 2.94,-24.31 9,-34.22 -5.79,6.49 -12.07,12.06 -17.86,18.56 -18.34,2.32 -37.82,2.37 -51.86,-9.7 a 138.44,138.44 0 0 1 -37.12,-50.9 l -3.43,1.19 c -5.79,2 -9.91,5 -15.84,6.4 -10.48,-2.85 -19.87,-5 -28.78,-9.08 4.25,19.31 9.83,32.38 15.22,51.34 6.1,21.5 23.52,37.12 45,43.35 23,6.67 48,7.85 71.87,6 0,4.17 1.8,8.3 3.73,12 3.73,-1.49 7.9,-3.73 11.67,-5.22 -0.13,4.74 -0.13,9.48 0.09,14.22 0.53,9.39 2,18.78 5.62,27.47 8.11,19.57 25.53,32.95 39.88,47.69 15.84,16.37 33.88,26.37 45.42,51.08 15.31,31.33 28.78,51.47 40,80.6 0,2.55 0,5.88 0,8.56 a 49.69,49.69 0 0 0 6,-22.38 c 0.44,-13.52 -3.6,-26.77 -8.25,-39.45 -12.01,-32.48 -28.6,-63.42 -50.36,-90.36 z"
         id="path167" /><path
         class="cls-33"
         d="m 1711.12,1616 -12.88,25.82 c 0,0 24,33.46 32.55,22.78 8.55,-10.68 12.38,-26.55 4.89,-38 -7.49,-11.45 -24.56,-10.6 -24.56,-10.6 z"
         id="path168" /><path
         class="cls-21"
         d="m 1737.29,1684.68 a 135.5,135.5 0 0 0 -1.77,-26.78 c -8.67,-24.14 -33.68,-42.86 -33.68,-42.86 -54.69,-4.65 -86.85,26.16 -96.82,42 -9.97,15.84 2.22,58.94 2.22,58.94 0,0 28.75,60.07 50.77,76.35 22.02,16.28 57.76,22 75.94,10 18.18,-12 18.77,-51.45 15.44,-69 -3.33,-17.55 -12.62,-34.04 -12.1,-48.65 z"
         id="path169" /><path
         class="cls-33"
         d="m 1717.16,1593.66 c -0.88,0.94 -11.49,12.54 -21.66,14.46 -10.59,2 -15.83,-4.58 -33.6,-7.87 -17.77,-3.29 -28.55,12.23 -28.55,12.23 l -3.92,-10.32 c -1.71,10.3 -10.41,32.5 -19.86,44.32 -9.45,11.82 -19.73,24.09 -20,37.59 0,4 1.8,9.75 4.44,15.8 1.63,3.78 3.58,7.67 5.56,11.34 5.37,10 10.92,18.48 10.92,18.48 l 23.18,9.5 c 0,0 -7.26,-7.18 -9.55,-15.49 a 16,16 0 0 1 -0.14,-6.66 c 1.11,-7.11 5.44,-15.49 6.75,-25.09 1.75,-12.82 -10.76,-32.24 -10.76,-32.24 14,-9.93 26.41,-9.7 51.9,-6.43 25.49,3.27 36.57,-9.3 36.57,-9.3 a 41.46,41.46 0 0 0 7.74,-14.32 9.57,9.57 0 0 0 0.3,-1 v 0 a 38.77,38.77 0 0 0 -2.75,-27.18 z"
         id="path170" /><path
         class="cls-21"
         d="m 1633.7,1739.2 c 0,0 -19.17,-13.59 -33.48,-8.66 0,0 -6.48,3.71 -8.6,17.42 0,0 10.47,17.79 22.73,25.79 12.26,8 19.36,4.15 23,2.6 3.64,-1.55 6.17,-11.15 6.17,-11.15 0,0 0.83,-17.71 -9.82,-26 z"
         id="path171" /><path
         class="cls-26"
         d="m 1598.77,1745.65 c 0,0 2.58,16.27 16.77,25 0,0 -12.07,-9.41 -13.38,-22.26 a 53.71,53.71 0 0 1 7.65,-0.68 v 0 a 26,26 0 0 0 9.53,14.17 c 7.73,5.63 14.13,-1.76 15.23,-8.2 0,0 -5,11.12 -11.47,6.33 -4.87,-3.59 -5.43,-9.32 -5.4,-12 a 38.36,38.36 0 0 1 16.87,5.64 c 0,0 -11.51,-14.21 -35.8,-8 z"
         id="path172" /><path
         class="cls-34"
         d="m 1721.35,1665.71 -0.4,-2.37 c -4.52,7.51 -3.48,19 -3.48,19 0,0 5.17,-7.84 10.56,-11 5.39,-3.16 9,-0.91 9,-0.91 1,-12.3 -2.91,-16.11 -2.91,-16.11 a 40.21,40.21 0 0 0 -12.77,11.39 z"
         id="path173" /><path
         class="cls-34"
         d="m 1655.42,1689.26 -1,-1.67 c -3.34,6.42 -3.09,17.17 -3.09,17.17 a 52.34,52.34 0 0 1 14.39,-9.62 c 8.89,-4 21.34,-8.86 21.34,-8.86 2.63,-9.12 -0.89,-15.3 -0.89,-15.3 -14.84,4.68 -30.75,18.28 -30.75,18.28 z"
         id="path174" /><path
         class="cls-26"
         d="m 1722.07,1676.49 c 0,0 -4.67,1.31 -4.7,3.57 -0.03,2.26 -2.11,15.71 -0.92,17.71 1.19,2 12,17.51 12,17.51 -3.77,-7.53 -8.76,-16.2 -8.76,-16.2 -1.86,-9.08 2.38,-22.59 2.38,-22.59 z"
         id="path175" /><path
         class="cls-33"
         d="m 1737.43,1735.2 c -6.38,-2.34 -10.29,4.27 -25.11,3.23 -5.59,-0.39 -11.07,1.23 -16,3.53 0,0 -0.1,0 -0.16,0.07 -8.11,3.8 -14.62,9.33 -17.18,10.41 -4.07,1.7 -15.42,2.15 -30.08,-6.15 -1.18,-0.67 -2.3,-1.37 -3.41,-2.13 -13.07,-8.76 -23.21,-23.13 -23.21,-23.13 l 2.72,13.6 c 0,0 9.73,9 13.63,18.72 3.9,9.72 0.81,22.13 0.81,22.13 0,0 7.06,15.68 30.19,29.36 a 79.66,79.66 0 0 0 46.23,10.72 l -5.72,-3.72 a 68.09,68.09 0 0 0 30,-7.57 c 6.76,-6.38 16,-31.08 14,-40.61 -2,-9.53 -10.35,-26.16 -16.71,-28.46 z m -8.53,33.74 c 0,0 -3.64,-7.38 -9,-6.75 -5.36,0.63 -3.19,8.14 -9,10.37 -5.81,2.23 -18.56,-4.27 -20.11,-11.74 -1.55,-7.47 5.78,-10.52 7.41,-9 0,0 0.34,6.28 20.06,5.77 12.81,-0.35 13.72,-8.37 13.72,-8.37 0,0 1.62,-0.4 4.22,6.14 -0.05,-0.02 0.27,10.15 -7.3,13.58 z"
         id="path176" /><path
         class="cls-26"
         d="m 1731.54,1748.66 c 0,0 -0.34,6.18 -10,7.93 -12,2.16 -21.32,-3.23 -26.32,-7.19 l -1.82,2.61 c 0,0 15.55,9.82 29,6.75 11.27,-2.58 10,-8.93 10,-8.93 z"
         id="path177" /><path
         class="cls-34"
         d="m 1692.32,1644.49 c -21.28,1.74 -52.53,-16.92 -66.41,-9.15 -13.88,7.77 -8.82,19.62 -8.82,19.62 0,0 -7.21,28.36 -23,44.91 0,0 8.81,-4.33 20.74,-23.18 a 60.73,60.73 0 0 1 -15.18,34.52 l 10.92,18.48 c 0,0 5.37,-1 13.49,-12.65 1.11,-7.11 5.44,-15.49 6.75,-25.09 1.75,-12.82 -10.76,-32.24 -10.76,-32.24 14,-9.93 26.41,-9.7 51.9,-6.43 25.49,3.27 36.57,-9.3 36.57,-9.3 a 41.46,41.46 0 0 0 7.74,-14.32 c -1.16,3.23 -6.14,13.34 -23.94,14.83 z"
         id="path178" /><path
         class="cls-34"
         d="m 1633.36,1612.47 -5,10.16 c 0,0 17,-19.42 33.59,-22.39 -0.04,0 -15.89,-2.96 -28.59,12.23 z"
         id="path179" /><path
         class="cls-34"
         d="m 1717.76,1616.49 c 0,0 0.76,6.58 -1.22,12.11 0,0 13.23,15.3 16.11,22.3 0,0 7.35,-26.05 -14.89,-34.41 z"
         id="path180" /><path
         class="cls-34"
         d="m 1622.32,1721 2.72,13.6 c 0,0 9.73,9 13.63,18.72 3.9,9.72 0.81,22.13 0.81,22.13 0,0 7.06,15.68 30.19,29.36 a 76.17,76.17 0 0 0 16.71,7.35 c -15.24,-15 -36.87,-54 -40.85,-68 -13.07,-8.76 -23.21,-23.16 -23.21,-23.16 z"
         id="path181" /><path
         class="cls-26"
         d="m 1701.84,1728.63 c 0,0 9.64,2.35 13.93,7.32 0,0 2.92,1.43 11.08,-2.07 0,0 3.76,-2.59 7,-9 0,0 -5.31,4.18 -17.1,4.89 -0.01,-0.03 -9.01,-1.77 -14.91,-1.14 z"
         id="path182" /><path
         class="cls-34"
         d="m 1684.37,1621.64 c 0,0 19.76,3.67 32.84,-9.83 a 29.82,29.82 0 0 0 -3.42,-10.39 c 0,0 -15.12,16.95 -29.42,20.22 z"
         id="path183" /><path
         class="cls-11"
         d="m 1682,1690.6 c -3.78,-1.4 -16,2.2 -18.73,19.74 0,0 5.85,-16.14 15.32,-17 7.19,-0.65 11.36,5.8 11.36,5.8 0,0 -4.21,-7.14 -7.95,-8.54 z"
         id="path184" /><path
         class="cls-11"
         d="m 1681,1696.1 c -3.45,1 -5.28,5.09 -4.11,9.12 1.17,4.03 4.92,6.47 8.37,5.47 3.45,-1 5.28,-5.09 4.1,-9.12 -1.18,-4.03 -4.96,-6.47 -8.36,-5.47 z"
         id="path185" /><path
         class="cls-11"
         d="m 1728.09,1687 c -2.38,0.69 -3.36,4.52 -2.18,8.55 1.18,4.03 4.06,6.73 6.45,6 2.39,-0.73 3.36,-4.52 2.18,-8.55 -1.18,-4.03 -4.06,-6.73 -6.45,-6 z"
         id="path186" /><path
         class="cls-18"
         d="m 1679.73,1705 a 1.72,1.72 0 1 0 1.72,1.72 1.72,1.72 0 0 0 -1.72,-1.72 z"
         id="path187" /><circle
         class="cls-18"
         cx="1728.51"
         cy="1696.9"
         r="1.72"
         id="circle187" /><path
         class="cls-11"
         d="m 1727.72,1681.25 c -2.87,-1 -9.85,11.1 -6.85,22.27 0,0 -1.77,-16 6.8,-18.35 0,0 3.16,-1.7 6.36,3.82 -0.03,0.01 -3.44,-6.69 -6.31,-7.74 z"
         id="path188" /></g></g><g
     style="fill:#000000"
     id="g214"
     transform="matrix(7.2013385,0,0,7.2013385,974.68789,732.41657)"><path
       d="M 18.5,2 C 18.224,2 18,2.224 18,2.5 v 3 C 18,5.776 18.224,6 18.5,6 h 3 C 21.776,6 22,5.776 22,5.5 v -3 C 22,2.224 21.776,2 21.5,2 Z m -6.140625,1.203125 c -0.126125,0.021 -0.244219,0.091125 -0.324219,0.203125 l -1.74414,2.4414062 c -0.161,0.2240001 -0.109766,0.5362657 0.115234,0.6972657 l 2.441406,1.7421875 c 0.224,0.161 0.536266,0.1097656 0.697266,-0.1152344 l 1.74414,-2.4414062 c 0.161001,-0.224 0.109766,-0.5362657 -0.115234,-0.6972657 L 12.732422,3.2890625 c -0.1125,-0.08 -0.246922,-0.1069375 -0.373047,-0.085937 z M 2.5,8 C 2.224,8 2,8.224 2,8.5 v 3 C 2,11.776 2.224,12 2.5,12 h 3 C 5.776,12 6,11.776 6,11.5 v -3 C 6,8.224 5.776,8 5.5,8 Z m 14.253906,1.8007812 c -0.126875,-0.017375 -0.261094,0.012203 -0.371094,0.095703 l -2.390624,1.8144538 c -0.22,0.167 -0.262704,0.479218 -0.0957,0.699218 l 1.814454,2.390625 c 0.166999,0.22 0.479218,0.262703 0.699218,0.0957 l 2.390625,-1.8125 c 0.22,-0.167 0.262703,-0.481171 0.0957,-0.701172 l -1.8125,-2.3906247 c -0.0835,-0.11 -0.203203,-0.1740312 -0.330078,-0.1914063 z M 2.5,13 C 2.224,13 2,13.224 2,13.5 v 3 C 2,16.776 2.224,17 2.5,17 h 3 C 5.776,17 6,16.776 6,16.5 v -3 C 6,13.224 5.776,13 5.5,13 Z m 5,0 C 7.224,13 7,13.224 7,13.5 v 3 C 7,16.776 7.224,17 7.5,17 h 3 c 0.276,0 0.5,-0.224 0.5,-0.5 v -3 C 11,13.224 10.776,13 10.5,13 Z m -5,5 C 2.224,18 2,18.224 2,18.5 v 3 C 2,21.776 2.224,22 2.5,22 h 3 C 5.776,22 6,21.776 6,21.5 v -3 C 6,18.224 5.776,18 5.5,18 Z m 5,0 C 7.224,18 7,18.224 7,18.5 v 3 C 7,21.776 7.224,22 7.5,22 h 3 c 0.276,0 0.5,-0.224 0.5,-0.5 v -3 C 11,18.224 10.776,18 10.5,18 Z m 5,0 C 12.224,18 12,18.224 12,18.5 v 3 c 0,0.276 0.224,0.5 0.5,0.5 h 3 c 0.276,0 0.5,-0.224 0.5,-0.5 v -3 C 16,18.224 15.776,18 15.5,18 Z"
       id="path1-2" /></g><g
     style="fill:#000000"
     id="g215"
     transform="matrix(4.9463063,0,0,4.9463063,1588.6204,376.12136)"><path
       d="M 7,2 C 5.346,2 4,3.346 4,5 4,6.3016094 4.8387486,7.4021391 6,7.8164062 V 15 16.183594 C 4.8387486,16.597861 4,17.698391 4,19 c 0,1.654 1.346,3 3,3 1.654,0 3,-1.346 3,-3 0,-1.301609 -0.8387486,-2.402139 -2,-2.816406 V 15 c 0,-0.583333 0.2768974,-0.910547 1.0664062,-1.371094 0.7895089,-0.460547 1.9996578,-0.868142 3.2636718,-1.310547 1.264014,-0.442405 2.588863,-0.920227 3.689453,-1.708984 C 16.914759,9.9677956 17.655875,9.0256499 17.904297,7.8457031 19.114653,7.4592359 20,6.3367217 20,5 20,3.346 18.654,2 17,2 c -1.654,0 -3,1.346 -3,3 0,1.2519861 0.772996,2.3245811 1.865234,2.7734375 -0.165103,0.4722554 -0.487832,0.8368854 -1.009765,1.2109375 -0.77441,0.5549935 -1.949561,1.0146702 -3.185547,1.447266 -1.235986,0.432595 -2.5258371,0.8375 -3.6113282,1.470703 C 8.0382791,11.914194 8.0202303,11.931219 8,11.943359 V 7.8164062 C 9.1612514,7.4021391 10,6.3016094 10,5 10,3.346 8.654,2 7,2 Z"
       id="path1-8" /></g><g
     style="fill:#000000"
     id="g216"
     transform="matrix(5.3813793,0,0,5.3813793,542.67158,775.61427)"><path
       d="m 14.974609,1.9882812 a 1.0001,1.0001 0 0 0 -0.689453,0.3125 l -1.71875,1.7558594 C 12.382877,4.0215578 12.193762,4 12,4 11.806238,4 11.617123,4.0215578 11.433594,4.0566406 L 9.7148438,2.3007812 A 1.0001,1.0001 0 0 0 9,1.9902344 1.0001,1.0001 0 0 0 8.2851562,3.6992188 l 1.3925782,1.421875 C 9.260057,5.636562 9,6.2847794 9,7 9,7.052956 9.0129152,7.0844865 9.015625,7.1328125 8.5230033,7.2727347 8.0696549,7.5201888 7.703125,7.8867188 7.3525146,8.2367169 7.0413175,8.6121149 6.7539062,9 H 4 c -0.552,0 -1,0.448 -1,1 0,0.552 0.448,1 1,1 H 5.6191406 C 5.3519342,11.653018 5.168123,12.324015 5.0761719,13 H 4 c -0.552,0 -1,0.448 -1,1 0,0.552 0.448,1 1,1 h 1.0449219 c 0.059023,0.711296 0.178026,1.380873 0.359375,2 H 4 c -0.552,0 -1,0.448 -1,1 0,0.552 0.448,1 1,1 H 6.3007812 C 7.3420013,20.635639 8.9615919,21.677117 11,21.931641 V 12 c 0,-0.552 0.448,-1 1,-1 0.552,0 1,0.448 1,1 v 9.931641 C 15.038408,21.677117 16.657999,20.635639 17.699219,19 H 20 c 0.552,0 1,-0.448 1,-1 0,-0.552 -0.448,-1 -1,-1 h -1.404297 c 0.181349,-0.619127 0.300352,-1.288704 0.359375,-2 H 20 c 0.552,0 1,-0.448 1,-1 0,-0.552 -0.448,-1 -1,-1 h -1.082031 c -0.09692,-0.667443 -0.287593,-1.341783 -0.558594,-2 H 20 c 0.552,0 1,-0.448 1,-1 C 21,9.448 20.552,9 20,9 H 17.236328 C 16.949689,8.6069491 16.640781,8.2300062 16.296875,7.8867188 15.930345,7.5201888 15.476997,7.2727347 14.984375,7.1328125 14.987085,7.0844865 15,7.052956 15,7 15,6.2847794 14.739943,5.636562 14.322266,5.1210938 l 1.392578,-1.421875 A 1.0001,1.0001 0 0 0 14.974609,1.9882812 Z"
       id="path1-5" /></g><g
     style="fill:#000000"
     id="g217"
     transform="matrix(5.7919434,0,0,5.7919434,528.47338,523.82597)"><path
       d="M 3,2 C 1.895,2 1,2.895 1,4 v 12 c 0,1.105 0.895,2 2,2 h 7 v 2 H 9 c -0.552,0 -1,0.448 -1,1 0,0.552 0.448,1 1,1 h 6 c 0.552,0 1,-0.448 1,-1 0,-0.552 -0.448,-1 -1,-1 h -1 v -2 h 7 c 1.105,0 2,-0.895 2,-2 V 4 C 23,2.895 22.105,2 21,2 Z M 3,4 H 21 V 16 H 3 Z M 6,6 C 5.448,6 5,6.448 5,7 v 6 c 0,0.552 0.448,1 1,1 h 2 c 0.552,0 1,-0.448 1,-1 V 7 C 9,6.448 8.552,6 8,6 Z m 6,0 c -0.552,0 -1,0.448 -1,1 v 6 c 0,0.552 0.448,1 1,1 h 6 c 0.552,0 1,-0.448 1,-1 V 7 C 19,6.448 18.552,6 18,6 Z m -5,5 c 0.552,0 1,0.448 1,1 0,0.552 -0.448,1 -1,1 -0.552,0 -1,-0.448 -1,-1 0,-0.552 0.448,-1 1,-1 z m 8,0 c 0.552,0 1,0.448 1,1 0,0.552 -0.448,1 -1,1 -0.552,0 -1,-0.448 -1,-1 0,-0.552 0.448,-1 1,-1 z"
       id="path1-52" /></g><g
     style="fill:#000000"
     id="g218"
     transform="matrix(6.7941799,0,0,6.7941799,1412.2582,747.16817)"><path
       d="m 4.1702339,2.5851169 c -1.0930628,0 -2,0.9069372 -2,2 V 18.585117 c 0,1.093063 0.9069372,2 2,2 H 18.170234 c 1.093063,0 2,-0.906937 2,-2 V 4.5851169 c 0,-1.0930628 -0.906937,-2 -2,-2 z m 0,5 H 18.170234 V 18.585117 H 4.1702339 Z m 2.1699219,3.0000001 c -0.383,0 -0.7063438,0.270484 -0.7773438,0.646484 -0.095,0.497 -0.1972656,1.282516 -0.1972656,2.353516 0,1.071 0.1022656,1.856516 0.1972656,2.353516 0.071,0.376 0.3943438,0.646484 0.7773438,0.646484 h 0.042969 c 0.491,0 0.8533438,-0.440781 0.7773438,-0.925781 -0.078,-0.494 -0.1484378,-1.185219 -0.1484378,-2.074219 0,-0.889 0.069484,-1.580219 0.1464843,-2.074219 0.077,-0.485 -0.2853906,-0.925781 -0.7753906,-0.925781 z m 9.6171872,0 c -0.491,0 -0.853343,0.440781 -0.777343,0.925781 0.078,0.494 0.146484,1.185219 0.146484,2.074219 0,0.889 -0.06948,1.580219 -0.146484,2.074219 -0.076,0.485 0.287343,0.925781 0.777343,0.925781 h 0.04297 c 0.383,0 0.706344,-0.270484 0.777344,-0.646484 0.095,-0.497 0.197266,-1.282516 0.197266,-2.353516 0,-1.071 -0.102266,-1.856516 -0.197266,-2.353516 -0.071,-0.376 -0.394345,-0.646484 -0.777345,-0.646484 z m -6.1269531,0.0039 c -0.09503,0.0096 -0.188343,0.03769 -0.277344,0.08594 -0.355999,0.194 -0.4870151,0.636281 -0.291015,0.988281 l 1.0683591,1.921879 -1.0683591,1.921875 c -0.1960001,0.352 -0.06694,0.794281 0.289062,0.988281 0.357,0.193 0.8050001,0.06489 1.0000001,-0.287109 l 0.619141,-1.113281 0.619141,1.113281 c 0.195,0.352 0.643,0.480109 1,0.287109 0.356,-0.194 0.485062,-0.636281 0.289062,-0.988281 l -1.068359,-1.921875 1.068359,-1.921875 c 0.196,-0.352 0.06498,-0.794281 -0.291015,-0.988281 -0.356,-0.193 -0.802047,-0.06489 -0.998047,0.287109 l -0.619141,1.113281 -0.619141,-1.113281 c -0.147,-0.264 -0.435609,-0.401969 -0.7207031,-0.373047 z"
       id="path1-57" /></g><g
     style="fill:#000000"
     id="g219"
     transform="matrix(5.7919434,0,0,5.7919434,1348.7414,523.82597)"><path
       d="M 3,2 C 1.895,2 1,2.895 1,4 v 12 c 0,1.105 0.895,2 2,2 h 7 v 2 H 9 c -0.552,0 -1,0.448 -1,1 0,0.552 0.448,1 1,1 h 6 c 0.552,0 1,-0.448 1,-1 0,-0.552 -0.448,-1 -1,-1 h -1 v -2 h 7 c 1.105,0 2,-0.895 2,-2 V 4 C 23,2.895 22.105,2 21,2 Z M 3,4 H 21 V 16 H 3 Z m 9.703125,1.9863281 c -0.28875,0.045141 -0.536328,0.2590469 -0.611328,0.5605469 l -1.636719,6.544922 C 10.354078,13.492797 10.598,13.899 11,14 c 0.402,0.101 0.808203,-0.144875 0.908203,-0.546875 L 13.544922,6.9082031 C 13.645922,6.5072031 13.402,6.101 13,6 12.8995,5.97475 12.799375,5.9712812 12.703125,5.9863281 Z M 8,7 C 7.81375,7 7.6283281,7.0708906 7.4863281,7.2128906 L 5.2128906,9.484375 c -0.284,0.284 -0.284,0.745297 0,1.029297 l 2.2714844,2.271484 c 0.284,0.284 0.7452969,0.284 1.0292969,0 0.284,-0.284 0.284,-0.743344 0,-1.027344 L 6.7578125,10 8.5136719,8.2421875 c 0.285,-0.285 0.2859531,-0.7452969 0.00195,-1.0292969 C 8.373625,7.0708906 8.18625,7 8,7 Z m 7.994141,0 c -0.18625,0 -0.373625,0.070891 -0.515625,0.2128906 -0.284,0.284 -0.284,0.7442969 0,1.0292969 L 17.236328,10 15.478516,11.757812 c -0.284,0.284001 -0.284,0.743344 0,1.027344 0.284,0.284 0.745297,0.284 1.029296,0 l 2.271485,-2.271484 c 0.284,-0.284 0.284,-0.745297 0,-1.029297 L 16.507812,7.2128906 C 16.365813,7.0708906 16.180391,7 15.994141,7 Z"
       id="path1-6" /></g><metadata
     id="metadata249"><rdf:RDF><cc:Work
         rdf:about=""><dc:title>03</dc:title></cc:Work></rdf:RDF></metadata></svg>
