<?xml version="1.0" encoding="UTF-8" standalone="no"?>
<!-- Generator: Adobe Illustrator 24.3.0, SVG Export Plug-In . SVG Version: 6.00 Build 0)  -->

<svg
   version="1.1"
   id="Layer_1"
   x="0px"
   y="0px"
   viewBox="0 0 3000 3000"
   xml:space="preserve"
   sodipodi:docname="kid1.svg"
   inkscape:version="1.3 (0e150ed6c4, 2023-07-21)"
   width="3000"
   height="3000"
   xmlns:inkscape="http://www.inkscape.org/namespaces/inkscape"
   xmlns:sodipodi="http://sodipodi.sourceforge.net/DTD/sodipodi-0.dtd"
   xmlns="http://www.w3.org/2000/svg"
   xmlns:svg="http://www.w3.org/2000/svg"><defs
   id="defs559"><clipPath
     clipPathUnits="userSpaceOnUse"
     id="clipPath559"><path
       style="opacity:0.972689;fill:none;stroke:#09e60f"
       d="m 660.02446,3178.4929 c 0,0 4.35947,-15.2581 21.36142,-13.5143 17.00195,1.7438 121.1934,0 121.1934,0 0,0 -26.5928,-25.285 -31.38822,-51.8778 -4.79542,-26.5928 -39.67122,-349.1939 -39.67122,-349.1939 0,0 1.74379,-42.2869 57.98101,-35.7477 0,0 -122.50123,-285.1096 -132.96397,-394.0965 -10.46274,-108.9869 9.59084,-265.056 34.0039,-299.9318 24.41306,-34.8758 58.41696,-9.5909 58.41696,-9.5909 l 84.57381,90.6771 c 0,0 31.38821,-147.3503 81.08622,-182.2261 0,0 89.80513,-412.4063 532.72783,-684.4375 0,0 40.979,-151.7097 103.7555,-175.2509 0,0 -190.0731,-92.42081 -81.9582,-168.27567 0,0 73.2392,-16.566 129.0405,20.92548 0,0 -26.1569,-71.49539 13.0784,-96.78034 39.2353,-25.28495 82.83,32.26011 87.1895,60.16075 0,0 195.3045,-223.2051 606.8389,-76.72675 0,0 224.9489,91.54896 253.7214,245.87433 0,0 16.566,33.132 -68.8797,7.8471 0,0 61.0326,99.396 64.5202,190.0731 0,0 290.341,187.4574 386.2495,361.8364 95.9084,174.379 246.7462,568.4755 156.0692,875.3825 -90.6771,306.907 -320.8574,575.4506 -460.3606,673.1029 l 351.0593,-2.1108 c 0,0 27.1271,17.8792 1.8496,36.9914 0,0 808.2614,110.3575 -12.947,133.7854 -821.2083,23.4279 -880.3945,22.1948 -880.3945,22.1948 0,0 -549.9384,8.6314 -739.8274,-13.5635 -189.889,-22.1948 -245.5561,-36.9223 -249.9155,-44.7693 -4.3595,-7.8471 -86.3176,-11.3346 -86.3176,-11.3346 0,0 -372.29917,-14.8223 -381.89002,-20.9255 -9.59084,-6.1033 -521.39316,-41.851 -10.46274,-86.3176 510.93046,-44.4667 32.26012,-2.1798 32.26012,-2.1798 z"
       id="path560" /></clipPath></defs><sodipodi:namedview
   id="namedview559"
   pagecolor="#ffffff"
   bordercolor="#000000"
   borderopacity="0.25"
   inkscape:showpageshadow="2"
   inkscape:pageopacity="0.0"
   inkscape:pagecheckerboard="true"
   inkscape:deskcolor="#d1d1d1"
   inkscape:zoom="0.1433659"
   inkscape:cx="2566.8586"
   inkscape:cy="1077.6621"
   inkscape:window-width="1920"
   inkscape:window-height="1046"
   inkscape:window-x="-11"
   inkscape:window-y="-11"
   inkscape:window-maximized="1"
   inkscape:current-layer="Layer_1" />&#10;<style
   type="text/css"
   id="style1">&#10;	.st0{fill:#FFFFFF;}&#10;	.st1{opacity:0.3;}&#10;	.st2{fill:#451661;}&#10;	.st3{fill:#02DAFF;}&#10;	.st4{fill:#1BCE81;}&#10;	.st5{opacity:0.4;}&#10;	.st6{fill:#4DEF73;}&#10;	.st7{fill:#EDEDED;}&#10;	.st8{fill:#D3623B;}&#10;	.st9{fill:#878787;}&#10;	.st10{fill:#8C8C8C;}&#10;	.st11{fill:#909090;}&#10;	.st12{fill:#707070;}&#10;	.st13{fill:#FDBD91;}&#10;	.st14{fill:#F9C710;}&#10;	.st15{opacity:0.55;}&#10;	.st16{fill:#AC3D50;}&#10;	.st17{opacity:0.2;}&#10;	.st18{fill:#FEFEFE;}&#10;	.st19{fill:#6B184E;}&#10;	.st20{fill:#B8C5D3;}&#10;	.st21{opacity:0.6;}&#10;	.st22{fill:#4A83FF;}&#10;	.st23{fill:#22A7F0;}&#10;</style>&#10;<g
   id="g559"
   clip-path="url(#clipPath559)"
   transform="translate(-376.65861,-383.63376)">&#10;	<g
   id="g4">&#10;		<g
   id="g3">&#10;			<g
   id="g2">&#10;				<g
   id="g1">&#10;					<rect
   class="st0"
   width="4000"
   height="4000"
   id="rect1"
   x="0"
   y="0" />&#10;				</g>&#10;			</g>&#10;		</g>&#10;	</g>&#10;	<g
   id="g558">&#10;		<g
   class="st1"
   id="g8">&#10;			<g
   id="g7">&#10;				<g
   id="g6">&#10;					<g
   id="g5">&#10;						<path
   class="st2"
   d="m 3033.6806,3213.2456 c 261.4057,-77.948 453.9856,129.7118 601.0517,70.86 -19.42,36.13 -1213.2923,74.8244 -1673.1423,74.8244 -472.34,0 -855.19,-30.42 -855.19,-67.91 0,-0.47 0.05,-0.89 0.19,-1.36 -427.69,-14.56 -708.09,-38.94 -708.09,-66.55 0,-44.6 731.21,-80.78 1633.25,-80.78 901.99,0 959.1903,83.6602 1001.9306,70.9156 z"
   id="path4"
   sodipodi:nodetypes="scsscsss" />&#10;					</g>&#10;				</g>&#10;			</g>&#10;		</g>&#10;		<g
   id="g12">&#10;			<g
   id="g11">&#10;				<g
   id="g10">&#10;					<g
   id="g9">&#10;						<path
   class="st3"
   d="m 3124.23,2236.03 c 0,400.86 -209.79,752.7 -525.58,951.76 H 1401.36 c -315.79,-199.05 -525.58,-550.9 -525.58,-951.76 0,-620.89 503.34,-1124.23 1124.23,-1124.23 620.89,0 1124.22,503.34 1124.22,1124.23 z"
   id="path8" />&#10;					</g>&#10;				</g>&#10;			</g>&#10;		</g>&#10;		<g
   id="g103">&#10;			<g
   id="g21">&#10;				<g
   id="g16">&#10;					<g
   id="g15">&#10;						<g
   id="g14">&#10;							<g
   id="g13">&#10;								<path
   class="st4"
   d="m 927.85,2814.69 c -0.69,0 -1.38,-0.04 -2.08,-0.13 l -59.88,-7.34 c -5.18,-0.63 -9.78,-3.61 -12.48,-8.07 -150.18,-247.79 -181.82,-439.43 -181.91,-556.57 -0.1,-128.8 36.12,-198.03 37.66,-200.91 2.36,-4.42 6.56,-7.58 11.46,-8.62 1.18,-0.25 2.37,-0.37 3.55,-0.37 3.75,0 7.42,1.24 10.43,3.57 3.52,2.73 87.03,68.38 155.11,195.97 62.7,117.51 123.07,311.76 54.58,569.82 -2.01,7.52 -8.82,12.65 -16.44,12.65 z"
   id="path12" />&#10;							</g>&#10;						</g>&#10;					</g>&#10;				</g>&#10;				<g
   id="g20">&#10;					<g
   id="g19">&#10;						<g
   id="g18">&#10;							<g
   id="g17">&#10;								<path
   class="st2"
   d="m 724.16,2049.69 c 0,0 333.51,258.75 203.67,747.98 l -59.88,-7.34 C 581.16,2317.15 724.16,2049.69 724.16,2049.69 Z m 0,-34.03 c -2.36,0 -4.74,0.25 -7.09,0.75 -9.81,2.09 -18.19,8.4 -22.92,17.24 -1.62,3.04 -39.78,75.93 -39.67,208.95 0.06,76.4 12.63,157.82 37.37,241.98 30.61,104.14 80.07,212.94 147.01,323.39 5.41,8.92 14.61,14.87 24.96,16.14 l 59.88,7.34 c 1.4,0.17 2.79,0.25 4.17,0.25 15.24,0 28.87,-10.24 32.87,-25.31 30.79,-115.99 38.78,-229.28 23.76,-336.7 -12.06,-86.3 -38.9,-168.89 -79.78,-245.5 -69.77,-130.75 -156.05,-198.57 -159.69,-201.4 -6.03,-4.66 -13.38,-7.13 -20.87,-7.13 z"
   id="path16" />&#10;							</g>&#10;						</g>&#10;					</g>&#10;				</g>&#10;			</g>&#10;			<g
   class="st5"
   id="g25">&#10;				<g
   id="g24">&#10;					<g
   id="g23">&#10;						<g
   id="g22">&#10;							<path
   class="st0"
   d="m 714.39,2073.1 c 5.54,-15.5 9.77,-23.41 9.77,-23.41 0,0 333.51,258.75 203.67,747.98 l -9.38,-1.15 C 1025.39,2354.94 754.07,2106.61 714.39,2073.1 Z"
   id="path21" />&#10;						</g>&#10;					</g>&#10;				</g>&#10;			</g>&#10;			<g
   id="g29">&#10;				<g
   id="g28">&#10;					<g
   id="g27">&#10;						<g
   id="g26">&#10;							<path
   class="st6"
   d="m 928.67,2723.57 c 75.14,-301.63 -182.08,-599.56 -182.08,-599.56 0,0 -86.52,183.76 121.38,634.43 l 40,7.76 z"
   id="path25" />&#10;						</g>&#10;					</g>&#10;				</g>&#10;			</g>&#10;			<g
   id="g38">&#10;				<g
   id="g33">&#10;					<g
   id="g32">&#10;						<g
   id="g31">&#10;							<g
   id="g30">&#10;								<path
   class="st4"
   d="m 909.56,2795.93 c -7.71,0 -14.45,-5.18 -16.44,-12.62 -171.83,-642.44 30.13,-834.65 38.81,-842.52 3.24,-2.94 7.34,-4.41 11.43,-4.41 4.09,0 8.19,1.47 11.43,4.41 8.68,7.87 210.64,200.08 38.81,842.52 -1.99,7.44 -8.74,12.62 -16.44,12.62 z"
   id="path29" />&#10;							</g>&#10;						</g>&#10;					</g>&#10;				</g>&#10;				<g
   id="g37">&#10;					<g
   id="g36">&#10;						<g
   id="g35">&#10;							<g
   id="g34">&#10;								<path
   class="st2"
   d="m 943.36,1953.41 c 0,0 204.92,185.72 33.8,825.51 h -67.6 c -171.12,-639.79 33.8,-825.51 33.8,-825.51 z m 0,-34.04 c -8.19,0 -16.37,2.94 -22.86,8.82 -9,8.15 -218.31,207.17 -43.82,859.52 3.98,14.89 17.47,25.24 32.88,25.24 h 67.6 c 15.41,0 28.9,-10.35 32.88,-25.24 174.48,-652.35 -34.83,-851.37 -43.82,-859.52 -6.49,-5.88 -14.67,-8.82 -22.86,-8.82 z"
   id="path33" />&#10;							</g>&#10;						</g>&#10;					</g>&#10;				</g>&#10;			</g>&#10;			<g
   class="st5"
   id="g42">&#10;				<g
   id="g41">&#10;					<g
   id="g40">&#10;						<g
   id="g39">&#10;							<path
   class="st0"
   d="m 929.24,1969.79 c 8.53,-11.29 14.12,-16.38 14.12,-16.38 0,0 204.92,185.72 33.8,825.51 h -16.63 c 149.64,-569.13 -0.4,-774.36 -31.29,-809.13 z"
   id="path38" />&#10;						</g>&#10;					</g>&#10;				</g>&#10;			</g>&#10;			<g
   id="g46">&#10;				<g
   id="g45">&#10;					<g
   id="g44">&#10;						<g
   id="g43">&#10;							<path
   class="st6"
   d="m 948.72,2040.69 c 0,0 135.25,166.08 22.31,738.22 h -44.62 c -112.94,-572.14 22.31,-738.22 22.31,-738.22 z"
   id="path42" />&#10;						</g>&#10;					</g>&#10;				</g>&#10;			</g>&#10;			<g
   id="g55">&#10;				<g
   id="g50">&#10;					<g
   id="g49">&#10;						<g
   id="g48">&#10;							<g
   id="g47">&#10;								<path
   class="st4"
   d="m 938.08,2807.34 c -9.19,0 -16.72,-7.29 -17.01,-16.48 -8.65,-275.63 50.2,-441.29 101.09,-531.73 56.34,-100.11 115.41,-133.53 117.9,-134.9 2.55,-1.41 5.38,-2.12 8.23,-2.12 2.03,0 4.06,0.36 6,1.09 4.66,1.75 8.32,5.47 10.01,10.16 55.73,154.8 25.05,327.7 -10.5,445.48 -38.26,126.78 -88.77,216.17 -90.9,219.91 -3.02,5.31 -8.67,8.59 -14.79,8.59 z"
   id="path46" />&#10;							</g>&#10;						</g>&#10;					</g>&#10;				</g>&#10;				<g
   id="g54">&#10;					<g
   id="g53">&#10;						<g
   id="g52">&#10;							<g
   id="g51">&#10;								<path
   class="st2"
   d="m 1148.28,2139.13 c 104.83,291.19 -100.17,651.2 -100.17,651.2 H 938.08 c -16.5,-526 210.2,-651.2 210.2,-651.2 z m 0.01,-34.04 c -5.69,0 -11.36,1.43 -16.46,4.24 -10,5.52 -244.73,141.48 -227.77,682.06 0.58,18.37 15.64,32.97 34.02,32.97 h 110.04 c 12.23,0 23.52,-6.56 29.58,-17.19 2.17,-3.81 53.59,-94.82 92.4,-223.41 22.91,-75.92 36.62,-149.27 40.74,-218 5.23,-87.25 -5.04,-167.38 -30.52,-238.16 -3.38,-9.38 -10.7,-16.81 -20.02,-20.32 -3.9,-1.47 -7.96,-2.19 -12.01,-2.19 z"
   id="path50" />&#10;							</g>&#10;						</g>&#10;					</g>&#10;				</g>&#10;			</g>&#10;			<g
   class="st5"
   id="g59">&#10;				<g
   id="g58">&#10;					<g
   id="g57">&#10;						<g
   id="g56">&#10;							<path
   class="st0"
   d="m 1033.53,2789.72 c 0,0 201.01,-353.08 103.07,-642.74 7.37,-5.47 11.69,-7.86 11.69,-7.86 104.83,291.19 -100.17,651.2 -100.17,651.2 H 938.08 c -0.01,-0.2 -0.01,-0.4 -0.01,-0.6 z"
   id="path55" />&#10;						</g>&#10;					</g>&#10;				</g>&#10;			</g>&#10;			<g
   id="g63">&#10;				<g
   id="g62">&#10;					<g
   id="g61">&#10;						<g
   id="g60">&#10;							<path
   class="st6"
   d="m 1025.45,2811.64 c 0,0 178.9,-379.62 102.55,-610.09 0,0 -194.71,193.77 -182.69,610.09 z"
   id="path59" />&#10;						</g>&#10;					</g>&#10;				</g>&#10;			</g>&#10;			<g
   id="g79">&#10;				<g
   class="st1"
   id="g68">&#10;					<g
   id="g67">&#10;						<g
   id="g66">&#10;							<g
   id="g65">&#10;								<g
   id="g64">&#10;									<path
   class="st2"
   d="m 942.41,1954.32 v 824.59 h -32.85 c -164.39,-614.61 18.22,-810.15 32.85,-824.59 z"
   id="path63" />&#10;								</g>&#10;							</g>&#10;						</g>&#10;					</g>&#10;				</g>&#10;				<g
   class="st1"
   id="g73">&#10;					<g
   id="g72">&#10;						<g
   id="g71">&#10;							<g
   id="g70">&#10;								<g
   id="g69">&#10;									<path
   class="st2"
   d="m 723.57,2050.87 200.8,746.37 -56.41,-6.92 C 591.94,2334.93 714,2070.13 723.57,2050.87 Z"
   id="path68" />&#10;								</g>&#10;							</g>&#10;						</g>&#10;					</g>&#10;				</g>&#10;				<g
   class="st1"
   id="g78">&#10;					<g
   id="g77">&#10;						<g
   id="g76">&#10;							<g
   id="g75">&#10;								<g
   id="g74">&#10;									<path
   class="st2"
   d="m 938.08,2790.33 c -15.6,-497.35 186.19,-636.35 208.23,-650.02 l -174.23,650.02 z"
   id="path73" />&#10;								</g>&#10;							</g>&#10;						</g>&#10;					</g>&#10;				</g>&#10;			</g>&#10;			<g
   id="g98">&#10;				<g
   id="g86">&#10;					<g
   id="g82">&#10;						<g
   id="g81">&#10;							<g
   id="g80">&#10;								<path
   class="st7"
   d="m 1135.46,2744.78 c 11.82,0 21.02,10.28 19.7,22.03 l -2.78,24.85 -6.89,61.6 -27.07,241.9 c -5.36,47.94 -45.9,84.2 -94.14,84.2 H 880.16 c -48.24,0 -88.78,-36.25 -94.14,-84.2 l -27.07,-241.9 -6.87,-61.38 -2.81,-25.07 c -1.31,-11.75 7.88,-22.03 19.7,-22.03 z"
   id="path79" />&#10;							</g>&#10;						</g>&#10;					</g>&#10;					<g
   id="g85">&#10;						<g
   id="g84">&#10;							<g
   id="g83">&#10;								<path
   class="st2"
   d="M 1024.28,3196.38 H 880.16 c -56.98,0 -104.72,-42.7 -111.05,-99.32 l -36.74,-328.35 c -1.16,-10.41 2.17,-20.85 9.15,-28.66 6.98,-7.81 16.99,-12.28 27.46,-12.28 h 366.47 c 10.47,0 20.48,4.48 27.46,12.28 6.98,7.8 10.32,18.25 9.15,28.66 l -36.74,328.35 c -6.32,56.62 -54.06,99.32 -111.04,99.32 z M 768.99,2761.8 c -1.04,0 -1.71,0.51 -2.09,0.94 -0.38,0.43 -0.81,1.15 -0.7,2.18 l 36.74,328.35 c 4.41,39.38 37.61,69.07 77.23,69.07 h 144.12 c 39.62,0 72.82,-29.69 77.23,-69.07 l 36.74,-328.35 c 0.11,-1.03 -0.32,-1.76 -0.7,-2.18 -0.38,-0.43 -1.05,-0.94 -2.09,-0.94 z"
   id="path82" />&#10;							</g>&#10;						</g>&#10;					</g>&#10;				</g>&#10;				<g
   id="g93">&#10;					<g
   id="g89">&#10;						<g
   id="g88">&#10;							<g
   id="g87">&#10;								<path
   class="st8"
   d="m 755.65,2811.25 h 396.73 l -6.89,61.6 H 758.95 l -6.87,-61.38 c 1.18,-0.14 2.36,-0.22 3.57,-0.22 z"
   id="path86" />&#10;							</g>&#10;						</g>&#10;					</g>&#10;					<g
   id="g92">&#10;						<g
   id="g91">&#10;							<g
   id="g90">&#10;								<path
   class="st2"
   d="M 1158.54,2887.43 H 745.91 l -9.93,-88.8 14.45,-1.66 c 1.72,-0.2 3.46,-0.32 5.23,-0.32 H 1168.7 Z M 772,2858.26 h 360.44 l 3.63,-32.43 h -367.7 z"
   id="path89" />&#10;							</g>&#10;						</g>&#10;					</g>&#10;				</g>&#10;				<g
   class="st1"
   id="g97">&#10;					<g
   id="g96">&#10;						<g
   id="g95">&#10;							<g
   id="g94">&#10;								<polygon
   class="st0"
   points="1136.07,2825.83 1132.44,2858.26 1098.41,2858.26 1102.04,2825.83 "
   id="polygon93" />&#10;							</g>&#10;						</g>&#10;					</g>&#10;				</g>&#10;			</g>&#10;			<g
   class="st1"
   id="g102">&#10;				<g
   id="g101">&#10;					<g
   id="g100">&#10;						<g
   id="g99">&#10;							<path
   class="st2"
   d="m 746.82,2744.78 h 97.28 l 0.37,3.34 1.62,14.49 c -0.54,0.04 -1.09,0.04 -1.62,0.1 l 6.87,61.38 h 1.63 l 25.43,227.32 c 5.36,47.94 45.9,84.2 94.14,84.2 h 131.58 c -16.92,26.47 -46.54,43.76 -79.84,43.76 H 880.16 c -48.24,0 -88.78,-36.25 -94.14,-84.2 l -25.43,-227.32 h -1.63 l -6.87,-61.38 c 0.53,-0.06 1.08,-0.06 1.62,-0.1 l -1.62,-14.49 z"
   id="path98" />&#10;						</g>&#10;					</g>&#10;				</g>&#10;			</g>&#10;		</g>&#10;		<g
   id="g292">&#10;			<g
   id="g110">&#10;				<g
   id="g106">&#10;					<g
   id="g105">&#10;						<g
   id="g104">&#10;							&#10;						</g>&#10;					</g>&#10;				</g>&#10;				<g
   id="g109">&#10;					<g
   id="g108">&#10;						<g
   id="g107">&#10;							&#10;						</g>&#10;					</g>&#10;				</g>&#10;			</g>&#10;			<g
   class="st5"
   id="g114">&#10;				<g
   id="g113">&#10;					<g
   id="g112">&#10;						<g
   id="g111">&#10;							&#10;						</g>&#10;					</g>&#10;				</g>&#10;			</g>&#10;			<g
   class="st1"
   id="g119">&#10;				<g
   id="g118">&#10;					<g
   id="g117">&#10;						<g
   id="g116">&#10;							<g
   id="g115">&#10;								&#10;							</g>&#10;						</g>&#10;					</g>&#10;				</g>&#10;			</g>&#10;			<g
   id="g129">&#10;				<g
   id="g128">&#10;					<g
   id="g123">&#10;						<g
   id="g122">&#10;							<g
   id="g121">&#10;								<g
   id="g120">&#10;									&#10;								</g>&#10;							</g>&#10;						</g>&#10;					</g>&#10;					<g
   id="g127">&#10;						<g
   id="g126">&#10;							<g
   id="g125">&#10;								<g
   id="g124">&#10;									&#10;								</g>&#10;							</g>&#10;						</g>&#10;					</g>&#10;				</g>&#10;			</g>&#10;			<g
   class="st5"
   id="g134">&#10;				<g
   id="g133">&#10;					<g
   id="g132">&#10;						<g
   id="g131">&#10;							<g
   id="g130">&#10;								&#10;							</g>&#10;						</g>&#10;					</g>&#10;				</g>&#10;			</g>&#10;			<g
   id="g143">&#10;				<g
   id="g138">&#10;					<g
   id="g137">&#10;						<g
   id="g136">&#10;							<g
   id="g135">&#10;								&#10;							</g>&#10;						</g>&#10;					</g>&#10;				</g>&#10;				<g
   id="g142">&#10;					<g
   id="g141">&#10;						<g
   id="g140">&#10;							<g
   id="g139">&#10;								&#10;							</g>&#10;						</g>&#10;					</g>&#10;				</g>&#10;			</g>&#10;			<g
   class="st1"
   id="g148">&#10;				<g
   id="g147">&#10;					<g
   id="g146">&#10;						<g
   id="g145">&#10;							<g
   id="g144">&#10;								&#10;							</g>&#10;						</g>&#10;					</g>&#10;				</g>&#10;			</g>&#10;			<g
   id="g157">&#10;				<g
   id="g152">&#10;					<g
   id="g151">&#10;						<g
   id="g150">&#10;							<g
   id="g149">&#10;								&#10;							</g>&#10;						</g>&#10;					</g>&#10;				</g>&#10;				<g
   id="g156">&#10;					<g
   id="g155">&#10;						<g
   id="g154">&#10;							<g
   id="g153">&#10;								&#10;							</g>&#10;						</g>&#10;					</g>&#10;				</g>&#10;			</g>&#10;			<g
   id="g203">&#10;				<g
   id="g166">&#10;					<g
   id="g161">&#10;						<g
   id="g160">&#10;							<g
   id="g159">&#10;								<g
   id="g158">&#10;									&#10;								</g>&#10;							</g>&#10;						</g>&#10;					</g>&#10;					<g
   id="g165">&#10;						<g
   id="g164">&#10;							<g
   id="g163">&#10;								<g
   id="g162">&#10;									&#10;								</g>&#10;							</g>&#10;						</g>&#10;					</g>&#10;				</g>&#10;				<g
   id="g175">&#10;					<g
   id="g170">&#10;						<g
   id="g169">&#10;							<g
   id="g168">&#10;								<g
   id="g167">&#10;									&#10;								</g>&#10;							</g>&#10;						</g>&#10;					</g>&#10;					<g
   id="g174">&#10;						<g
   id="g173">&#10;							<g
   id="g172">&#10;								<g
   id="g171">&#10;									&#10;								</g>&#10;							</g>&#10;						</g>&#10;					</g>&#10;				</g>&#10;				<g
   id="g184">&#10;					<g
   id="g179">&#10;						<g
   id="g178">&#10;							<g
   id="g177">&#10;								<g
   id="g176">&#10;									&#10;								</g>&#10;							</g>&#10;						</g>&#10;					</g>&#10;					<g
   id="g183">&#10;						<g
   id="g182">&#10;							<g
   id="g181">&#10;								<g
   id="g180">&#10;									&#10;								</g>&#10;							</g>&#10;						</g>&#10;					</g>&#10;				</g>&#10;				<g
   class="st1"
   id="g189">&#10;					<g
   id="g188">&#10;						<g
   id="g187">&#10;							<g
   id="g186">&#10;								<g
   id="g185">&#10;									&#10;								</g>&#10;							</g>&#10;						</g>&#10;					</g>&#10;				</g>&#10;				<g
   class="st5"
   id="g193">&#10;					<g
   id="g192">&#10;						<g
   id="g191">&#10;							<g
   id="g190">&#10;								&#10;							</g>&#10;						</g>&#10;					</g>&#10;				</g>&#10;				<g
   id="g197">&#10;					<g
   id="g196">&#10;						<g
   id="g195">&#10;							<g
   id="g194">&#10;								&#10;							</g>&#10;						</g>&#10;					</g>&#10;				</g>&#10;				<g
   class="st5"
   id="g202">&#10;					<g
   id="g201">&#10;						<g
   id="g200">&#10;							<g
   id="g199">&#10;								<g
   id="g198">&#10;									&#10;								</g>&#10;							</g>&#10;						</g>&#10;					</g>&#10;				</g>&#10;			</g>&#10;			<g
   id="g231">&#10;				<g
   id="g213">&#10;					<g
   id="g207">&#10;						<g
   id="g206">&#10;							<g
   id="g205">&#10;								<g
   id="g204">&#10;									&#10;								</g>&#10;							</g>&#10;						</g>&#10;					</g>&#10;					<g
   id="g212">&#10;						<g
   id="g211">&#10;							<g
   id="g210">&#10;								<g
   id="g209">&#10;									<g
   id="g208">&#10;										&#10;									</g>&#10;								</g>&#10;							</g>&#10;						</g>&#10;					</g>&#10;				</g>&#10;				<g
   class="st5"
   id="g218">&#10;					<g
   id="g217">&#10;						<g
   id="g216">&#10;							<g
   id="g215">&#10;								<g
   id="g214">&#10;									&#10;								</g>&#10;							</g>&#10;						</g>&#10;					</g>&#10;				</g>&#10;				<g
   class="st5"
   id="g222">&#10;					<g
   id="g221">&#10;						<g
   id="g220">&#10;							<g
   id="g219">&#10;								&#10;							</g>&#10;						</g>&#10;					</g>&#10;				</g>&#10;				<g
   id="g226">&#10;					<g
   id="g225">&#10;						<g
   id="g224">&#10;							<g
   id="g223">&#10;								&#10;							</g>&#10;						</g>&#10;					</g>&#10;				</g>&#10;				<g
   class="st5"
   id="g230">&#10;					<g
   id="g229">&#10;						<g
   id="g228">&#10;							<g
   id="g227">&#10;								&#10;							</g>&#10;						</g>&#10;					</g>&#10;				</g>&#10;			</g>&#10;			<g
   id="g238">&#10;				<g
   id="g234">&#10;					<g
   id="g233">&#10;						<g
   id="g232">&#10;							&#10;						</g>&#10;					</g>&#10;				</g>&#10;				<g
   id="g237">&#10;					<g
   id="g236">&#10;						<g
   id="g235">&#10;							&#10;						</g>&#10;					</g>&#10;				</g>&#10;			</g>&#10;			<g
   class="st1"
   id="g243">&#10;				<g
   id="g242">&#10;					<g
   id="g241">&#10;						<g
   id="g240">&#10;							<g
   id="g239">&#10;								&#10;							</g>&#10;						</g>&#10;					</g>&#10;				</g>&#10;			</g>&#10;			<g
   class="st5"
   id="g247">&#10;				<g
   id="g246">&#10;					<g
   id="g245">&#10;						<g
   id="g244">&#10;							&#10;						</g>&#10;					</g>&#10;				</g>&#10;			</g>&#10;			<g
   id="g275">&#10;				<g
   id="g254">&#10;					<g
   id="g250">&#10;						<g
   id="g249">&#10;							<g
   id="g248">&#10;								&#10;							</g>&#10;						</g>&#10;					</g>&#10;					<g
   id="g253">&#10;						<g
   id="g252">&#10;							<g
   id="g251">&#10;								&#10;							</g>&#10;						</g>&#10;					</g>&#10;				</g>&#10;				<g
   class="st1"
   id="g258">&#10;					<g
   id="g257">&#10;						<g
   id="g256">&#10;							<g
   id="g255">&#10;								&#10;							</g>&#10;						</g>&#10;					</g>&#10;				</g>&#10;				<g
   id="g265">&#10;					<g
   id="g261">&#10;						<g
   id="g260">&#10;							<g
   id="g259">&#10;								&#10;							</g>&#10;						</g>&#10;					</g>&#10;					<g
   id="g264">&#10;						<g
   id="g263">&#10;							<g
   id="g262">&#10;								&#10;							</g>&#10;						</g>&#10;					</g>&#10;				</g>&#10;				<g
   id="g274">&#10;					<g
   id="g269">&#10;						<g
   id="g268">&#10;							<g
   id="g267">&#10;								<g
   id="g266">&#10;									&#10;								</g>&#10;							</g>&#10;						</g>&#10;					</g>&#10;					<g
   id="g273">&#10;						<g
   id="g272">&#10;							<g
   id="g271">&#10;								<g
   id="g270">&#10;									&#10;								</g>&#10;							</g>&#10;						</g>&#10;					</g>&#10;				</g>&#10;			</g>&#10;			<g
   id="g279">&#10;				<g
   id="g278">&#10;					<g
   id="g277">&#10;						<g
   id="g276">&#10;							&#10;						</g>&#10;					</g>&#10;				</g>&#10;			</g>&#10;			<g
   id="g283">&#10;				<g
   id="g282">&#10;					<g
   id="g281">&#10;						<g
   id="g280">&#10;							&#10;						</g>&#10;					</g>&#10;				</g>&#10;			</g>&#10;			<g
   id="g287">&#10;				<g
   id="g286">&#10;					<g
   id="g285">&#10;						<g
   id="g284">&#10;							&#10;						</g>&#10;					</g>&#10;				</g>&#10;			</g>&#10;			<g
   id="g291">&#10;				<g
   id="g290">&#10;					<g
   id="g289">&#10;						<g
   id="g288">&#10;							&#10;						</g>&#10;					</g>&#10;				</g>&#10;			</g>&#10;		</g>&#10;		<g
   id="g523">&#10;			<g
   id="g296">&#10;				<g
   id="g295">&#10;					<g
   id="g294">&#10;						<g
   id="g293">&#10;							<path
   class="st13"
   d="m 2151.59,2094.65 c 0,52.51 -33.28,87.66 -77.79,105.35 -89.86,35.71 -225.36,0.61 -225.36,-105.35 z"
   id="path292" />&#10;						</g>&#10;					</g>&#10;				</g>&#10;			</g>&#10;			<g
   id="g300">&#10;				<g
   id="g299">&#10;					<g
   id="g298">&#10;						<g
   id="g297">&#10;							<path
   class="st14"
   d="m 2603.24,2643.23 c 0,87.94 -33.32,156.23 -113.73,182.86 h -979.03 c -168.96,-55.98 -130.02,-295.89 -10.76,-515.87 118.18,-218.01 348.73,-215.58 348.73,-215.58 0,158.48 303.15,158.48 303.15,0 0,0 153.7,-1.64 274.45,116.49 27.1,26.54 52.56,59.11 74.23,99.08 62.52,115.33 102.96,236.13 102.96,333.02 z"
   id="path296" />&#10;						</g>&#10;					</g>&#10;				</g>&#10;			</g>&#10;			<g
   class="st15"
   id="g304">&#10;				<g
   id="g303">&#10;					<g
   id="g302">&#10;						<g
   id="g301">&#10;							<path
   class="st0"
   d="m 1848.44,2094.65 c 0,9.22 1.03,17.93 3,26.07 -68.75,8.71 -224.19,46.8 -314.28,213 -103.86,191.61 -146.82,398.34 -44.51,485.4 -148.13,-66.65 -107.79,-297.01 7.07,-508.89 118.17,-218.02 348.72,-215.58 348.72,-215.58 z"
   id="path300" />&#10;						</g>&#10;					</g>&#10;				</g>&#10;			</g>&#10;			<g
   id="g308">&#10;				<g
   id="g307">&#10;					<g
   id="g306">&#10;						<g
   id="g305">&#10;							<path
   class="st2"
   d="m 2489.51,2842.92 h -979.03 c -1.8,0 -3.59,-0.29 -5.29,-0.85 -52.28,-17.32 -88.82,-51.43 -108.6,-101.39 -39.48,-99.7 -6.46,-263.62 88.33,-438.47 121.61,-224.35 353.78,-224.37 363.71,-224.38 9.22,0.1 16.65,7.6 16.65,16.83 0,70.1 69.85,102.03 134.74,102.03 64.9,0 134.74,-31.93 134.74,-102.03 0,-9.22 7.43,-16.73 16.65,-16.83 6.53,-0.01 162.1,-0.31 286.4,121.29 30.22,29.59 56.21,64.27 77.26,103.09 67.71,124.88 105,246 105,341.03 0,102.94 -43.32,171.69 -125.27,198.84 -1.71,0.55 -3.49,0.84 -5.29,0.84 z m -976.26,-33.66 h 973.48 c 66.15,-23.01 99.68,-78.85 99.68,-166.03 0,-89.52 -35.84,-204.94 -100.93,-324.98 -19.44,-35.86 -43.4,-67.85 -71.21,-95.08 -92.26,-90.26 -206.11,-107.59 -247,-110.91 -10.38,77.6 -89.27,118.07 -167.25,118.07 -77.97,0 -156.85,-40.47 -167.25,-118.05 -52.26,4.33 -223.86,31.82 -318.26,205.96 -90.1,166.2 -122.49,319.49 -86.63,410.04 15.62,39.46 44.34,66.69 85.37,80.98 z"
   id="path304" />&#10;						</g>&#10;					</g>&#10;				</g>&#10;			</g>&#10;			<g
   id="g399">&#10;				<g
   id="g358">&#10;					<g
   id="g317">&#10;						<g
   id="g312">&#10;							<g
   id="g311">&#10;								<g
   id="g310">&#10;									<g
   id="g309">&#10;										<path
   class="st13"
   d="m 2586.44,1643.72 c -1.29,3.93 -2.69,7.91 -4.15,12 -38.87,99.57 -115.11,152.63 -161.27,92.56 l 27.54,-135.25 18.74,-91.94 c 72.02,-49.19 168.05,-27.09 119.14,122.63 z"
   id="path308" />&#10;									</g>&#10;								</g>&#10;							</g>&#10;						</g>&#10;						<g
   id="g316">&#10;							<g
   id="g315">&#10;								<g
   id="g314">&#10;									<g
   id="g313">&#10;										<path
   class="st2"
   d="m 2467.2,1776.13 c -18.32,0 -34.84,-8.98 -48.16,-26.32 l -0.7,-0.91 0.23,-1.12 46.48,-228.18 0.83,-0.57 c 39.32,-26.85 83.56,-31.51 110.11,-11.6 17.28,12.96 41.92,48.01 12.83,137.07 v 0 c -1.3,3.95 -2.71,7.95 -4.17,12.06 -25.98,66.55 -68.82,113.22 -109.17,118.97 -2.8,0.4 -5.57,0.6 -8.28,0.6 z m -43.51,-28.47 c 14.03,17.77 31.66,25.7 51.07,22.92 38.6,-5.5 79.89,-50.94 105.2,-115.76 1.43,-4.01 2.82,-7.97 4.11,-11.88 20.85,-63.8 16.91,-110.51 -11.08,-131.51 -24.65,-18.49 -66.12,-13.98 -103.45,11.16 z"
   id="path312" />&#10;									</g>&#10;								</g>&#10;							</g>&#10;						</g>&#10;					</g>&#10;					<g
   class="st1"
   id="g321">&#10;						<g
   id="g320">&#10;							<g
   id="g319">&#10;								<g
   id="g318">&#10;									<path
   class="st2"
   d="m 2586.44,1643.72 c -1.29,3.93 -2.69,7.91 -4.15,12 -38.87,99.57 -115.11,152.63 -161.27,92.56 l 27.54,-135.25 c 6.45,-0.51 10.32,-0.79 10.32,-0.79 27.99,87.56 68.66,95.36 122.01,23.34 0,0.01 2.02,2.98 5.55,8.14 z"
   id="path317" />&#10;								</g>&#10;							</g>&#10;						</g>&#10;					</g>&#10;					<g
   id="g325">&#10;						<g
   id="g324">&#10;							<g
   id="g323">&#10;								<g
   id="g322">&#10;									<path
   class="st2"
   d="m 2467.3,1790.44 c -22.73,0 -43.61,-11.08 -59.62,-31.89 -2.97,-3.87 -4.12,-8.84 -3.15,-13.62 l 46.28,-227.19 c 0.87,-4.29 3.38,-8.07 7,-10.54 44.93,-30.69 96.24,-34.93 127.67,-10.56 21.08,16.34 50.76,59.49 12.64,164.82 -28.37,72.69 -74.53,121.68 -120.61,128.25 -3.44,0.48 -6.85,0.73 -10.21,0.73 z m -28.16,-46.81 c 9.91,10.38 20.95,14.56 33.62,12.76 33.04,-4.71 70.76,-47.62 93.86,-106.78 22.39,-61.89 21.81,-108.1 -1.76,-126.37 -18.42,-14.28 -51.66,-10.81 -82.48,8.13 z"
   id="path321" />&#10;								</g>&#10;							</g>&#10;						</g>&#10;					</g>&#10;					<g
   id="g329">&#10;						<g
   id="g328">&#10;							<g
   id="g327">&#10;								<g
   id="g326">&#10;									<path
   class="st13"
   d="m 1411.55,1643.72 c 1.29,3.93 2.69,7.91 4.15,12 38.87,99.57 115.11,152.63 161.27,92.56 l -27.54,-135.25 -18.74,-91.94 c -72.02,-49.19 -168.05,-27.09 -119.14,122.63 z"
   id="path325" />&#10;								</g>&#10;							</g>&#10;						</g>&#10;					</g>&#10;					<g
   class="st15"
   id="g333">&#10;						<g
   id="g332">&#10;							<g
   id="g331">&#10;								<g
   id="g330">&#10;									<path
   class="st0"
   d="m 1514.78,1771.98 c -35.62,-11.89 -72.36,-54.86 -95.7,-114.6 -1.46,-4.1 -2.86,-8.08 -4.15,-12 -48.91,-149.72 47.12,-171.82 119.15,-122.62 l 0.34,1.68 c -65.13,-24.63 -130.81,9.54 -88.63,138.72 1.29,3.93 2.69,7.91 4.15,12 16.54,42.46 39.93,76.46 64.84,96.82 z"
   id="path329" />&#10;								</g>&#10;							</g>&#10;						</g>&#10;					</g>&#10;					<g
   id="g337">&#10;						<g
   id="g336">&#10;							<g
   id="g335">&#10;								<g
   id="g334">&#10;									<path
   class="st2"
   d="m 1530.7,1790.44 c -3.37,0 -6.77,-0.24 -10.21,-0.73 -46.08,-6.57 -92.23,-55.56 -120.46,-127.86 -38.27,-105.72 -8.59,-148.87 12.5,-165.21 31.43,-24.37 82.74,-20.12 127.67,10.56 3.62,2.47 6.13,6.25 7,10.54 l 46.28,227.19 c 0.97,4.78 -0.17,9.75 -3.15,13.62 -16.02,20.8 -36.9,31.89 -59.63,31.89 z m -68.36,-275.97 c -11.45,0 -21.59,2.87 -29.2,8.77 -23.57,18.27 -24.16,64.47 -1.61,126.76 22.95,58.76 60.66,101.67 93.71,106.39 12.66,1.81 23.7,-2.37 33.62,-12.76 l -43.24,-212.26 c -18.09,-11.11 -37.01,-16.9 -53.28,-16.9 z"
   id="path333" />&#10;								</g>&#10;							</g>&#10;						</g>&#10;					</g>&#10;					<g
   id="g341">&#10;						<g
   id="g340">&#10;							<g
   id="g339">&#10;								<g
   id="g338">&#10;									<path
   class="st13"
   d="m 2457.14,1616.46 v 77.75 c 0,133.73 -64,260.56 -174.23,336.29 -1.57,1.07 -3.14,2.08 -4.66,3.14 -168.12,112.7 -388.23,112.7 -556.35,0.06 -1.51,-1.07 -3.09,-2.13 -4.66,-3.2 -110.28,-75.67 -174.29,-202.5 -174.29,-336.29 v -77.75 c 0,0 0.28,-4.99 0.84,-13.97 4.15,-70.96 22.94,-389.36 25.97,-397.49 100.08,-269.37 1100.6,-203.35 887.38,411.46 z"
   id="path337" />&#10;								</g>&#10;							</g>&#10;						</g>&#10;					</g>&#10;					<g
   class="st1"
   id="g345">&#10;						<g
   id="g344">&#10;							<g
   id="g343">&#10;								<g
   id="g342">&#10;									<path
   class="st2"
   d="m 2457.14,1616.46 v 77.75 c 0,133.73 -64,260.56 -174.23,336.29 -1.57,1.07 -3.14,2.08 -4.66,3.14 -168.12,112.7 -388.23,112.7 -556.35,0.06 -1.51,-1.07 -3.09,-2.13 -4.66,-3.2 -3.48,-2.41 -6.96,-4.88 -10.38,-7.4 158.19,76.91 347.79,65.46 496.61,-34.33 1.51,-1.07 3.09,-2.08 4.66,-3.14 110.23,-75.73 174.23,-202.56 174.23,-336.29 l 6.65,-98 c 72.36,-208.62 -1.71,-333.76 -126.24,-424.3 169.46,83.51 280.14,242.04 194.37,489.42 z"
   id="path341" />&#10;								</g>&#10;							</g>&#10;						</g>&#10;					</g>&#10;					<g
   class="st1"
   id="g349">&#10;						<g
   id="g348">&#10;							<g
   id="g347">&#10;								<g
   id="g346">&#10;									<path
   class="st2"
   d="m 2457.14,1616.46 v 31.58 c -50.26,-74.05 -59.97,-276.1 -59.97,-276.1 -43.94,47.72 -290.74,102.74 -463.94,10.73 -9.34,-4.96 -19.59,4.96 -14.9,14.44 2.11,4.27 2.97,5.72 2.97,5.72 -22.78,14.1 -130.09,0.36 -188.3,-33.52 -16.19,-9.42 -36.83,0.78 -39.73,19.29 -13.04,83.22 -54.48,141.16 -143.13,227.86 -2.19,-4.66 -4.32,-9.31 -6.34,-13.97 4.15,-70.96 22.94,-389.36 25.97,-397.49 100.07,-269.37 1100.59,-203.35 887.37,411.46 z"
   id="path345" />&#10;								</g>&#10;							</g>&#10;						</g>&#10;					</g>&#10;					<g
   class="st15"
   id="g353">&#10;						<g
   id="g352">&#10;							<g
   id="g351">&#10;								<g
   id="g350">&#10;									<path
   class="st0"
   d="m 2189.73,2080.81 c -152.02,62.32 -327.93,46.61 -467.83,-47.12 -1.51,-1.07 -3.09,-2.13 -4.66,-3.2 -110.28,-75.67 -174.29,-202.5 -174.29,-336.29 v -77.75 c 0,0 23.39,-402.32 26.81,-411.46 21.04,-56.6 81.79,-98.39 162.73,-123.41 -60.86,25.41 -105.57,62.15 -123.02,109.05 -3.42,9.2 -26.81,411.46 -26.81,411.46 v 77.75 c 0,133.79 64,260.62 174.29,336.35 1.57,1.01 3.3,1.87 4.71,3.14 109.17,98.84 285.82,106.19 428.07,61.48 z"
   id="path349" />&#10;								</g>&#10;							</g>&#10;						</g>&#10;					</g>&#10;					<g
   id="g357">&#10;						<g
   id="g356">&#10;							<g
   id="g355">&#10;								<g
   id="g354">&#10;									<path
   class="st2"
   d="m 2000.05,2135.45 c -100.09,0 -200.17,-29.26 -287.5,-87.79 -1.62,-1.08 -3.22,-2.17 -4.82,-3.27 -113.72,-78.03 -181.61,-208.95 -181.61,-350.2 v -77.74 c 0,-0.33 0.01,-0.65 0.03,-0.98 23.54,-404.76 26.77,-413.51 27.84,-416.36 v 0 c 28,-75.34 120.85,-130.84 254.74,-152.24 126.67,-20.25 274.19,-6.51 394.63,36.75 114.73,41.21 201.59,106.56 251.21,188.98 58.39,97 64.91,213.63 19.39,346.67 v 74.92 c 0,141.21 -67.87,272.11 -181.56,350.16 -1.58,1.09 -3.18,2.17 -4.79,3.25 -87.33,58.57 -187.45,87.85 -287.56,87.85 z m -440.26,-518.5 v 77.25 c 0,130.15 62.43,250.69 166.99,322.44 1.5,1.03 3.01,2.05 4.52,3.06 163.29,109.44 374.3,109.42 537.56,-0.04 1.49,-1 3,-2.02 4.5,-3.05 104.55,-71.77 166.96,-192.29 166.96,-322.41 v -77.74 c 0,-1.88 0.31,-3.74 0.93,-5.52 113.05,-325.93 -136.65,-455.2 -249.26,-495.64 -244.07,-87.66 -554.65,-39.12 -605.98,94.33 -3.12,21.73 -17.3,253.93 -26.22,407.32 z m 25.75,-406.11 z m 0.12,-0.32 c -0.04,0.1 -0.07,0.19 -0.11,0.29 0.04,-0.08 0.08,-0.18 0.11,-0.29 z m -15.89,-5.54 h 0.05 z"
   id="path353" />&#10;								</g>&#10;							</g>&#10;						</g>&#10;					</g>&#10;				</g>&#10;				<g
   id="g362">&#10;					<g
   id="g361">&#10;						<g
   id="g360">&#10;							<g
   id="g359">&#10;								<path
   class="st16"
   d="m 2451.87,1040.08 c 126.21,161.27 110.51,441.92 4.21,589 -81.34,-44.88 -86.72,-257.14 -86.72,-257.14 -192.52,52.39 -387.34,20.42 -563.98,-131.77 -3.76,59.8 46.33,115.28 46.33,115.28 -22.72,-0.67 -43.08,-3.98 -61.37,-9.48 -63.89,-19.13 -101.92,-65.41 -125.2,-123.58 -22.44,201.94 -23.84,246.82 -122.18,394.07 -98.17,-210.36 -116.23,-469.8 47.4,-547.38 -228.14,-78.53 -144,-237.51 52.34,-96.32 -96.32,-138.39 25.24,-191.73 50.49,-39.27 141.98,-259.33 765.7,-168.29 850.24,126.21 l -91.32,-19.58 c -0.19,-0.04 -0.24,-0.04 -0.24,-0.04 z"
   id="path358" />&#10;							</g>&#10;						</g>&#10;					</g>&#10;				</g>&#10;				<g
   class="st1"
   id="g366">&#10;					<g
   id="g365">&#10;						<g
   id="g364">&#10;							<g
   id="g363">&#10;								<path
   class="st2"
   d="m 1641.78,1187.23 c 8.36,16.14 16,34.34 21.05,55.91 -20.36,184.5 -25.02,231.22 -119.88,373.31 -11.11,-23.84 -21.2,-48.24 -30.07,-72.98 77.89,-120.82 86.99,-189.07 104.99,-351.85 1.39,-12.5 18.12,-15.56 23.91,-4.39 z"
   id="path362" />&#10;							</g>&#10;						</g>&#10;					</g>&#10;				</g>&#10;				<g
   class="st15"
   id="g370">&#10;					<g
   id="g369">&#10;						<g
   id="g368">&#10;							<g
   id="g367">&#10;								<path
   class="st0"
   d="m 1605.61,948.81 c -123.52,-52.34 -168.23,38.14 -47.91,107.59 -173.66,-75.73 -111.73,-199.02 47.91,-107.59 z"
   id="path366" />&#10;							</g>&#10;						</g>&#10;					</g>&#10;				</g>&#10;				<g
   class="st15"
   id="g374">&#10;					<g
   id="g373">&#10;						<g
   id="g372">&#10;							<g
   id="g371">&#10;								<path
   class="st0"
   d="m 1586.43,1071.04 c 0.11,0.05 0.23,0.1 0.35,0.16 15.55,6.88 18.84,27.28 5.75,38.14 -111.76,92.67 -107.51,301.17 -33.75,482.95 -4.94,7.74 -10.21,15.82 -15.82,24.18 -97.39,-208.69 -115.95,-465.6 43.47,-545.43 z"
   id="path370" />&#10;							</g>&#10;						</g>&#10;					</g>&#10;				</g>&#10;				<g
   class="st15"
   id="g378">&#10;					<g
   id="g377">&#10;						<g
   id="g376">&#10;							<g
   id="g375">&#10;								<path
   class="st0"
   d="m 1635.01,970.52 -0.38,-0.21 c -65.18,-100.35 -5.88,-158.15 33.73,-111.87 -21.87,3.23 -34.86,37.06 -10.57,90.58 6.44,14.2 -9.1,28.98 -22.78,21.5 z"
   id="path374" />&#10;							</g>&#10;						</g>&#10;					</g>&#10;				</g>&#10;				<g
   class="st15"
   id="g382">&#10;					<g
   id="g381">&#10;						<g
   id="g380">&#10;							<g
   id="g379">&#10;								<path
   class="st0"
   d="m 2419.61,908.26 c -107.48,-49.59 -251.42,-82.74 -382.06,-83.36 -20.14,38.65 -88.01,36.74 -116.57,9.26 -73.48,13.18 -135.69,41.01 -174.51,87.4 -11.11,13.29 -32.82,12.4 -41.57,-2.58 -0.5,-0.79 -0.95,-1.63 -1.35,-2.58 121.73,-155.23 532.35,-168.02 716.06,-8.14 z"
   id="path378" />&#10;							</g>&#10;						</g>&#10;					</g>&#10;				</g>&#10;				<g
   id="g386">&#10;					<g
   id="g385">&#10;						<g
   id="g384">&#10;							<g
   id="g383">&#10;								<path
   class="st2"
   d="m 2456.06,1645.91 c -2.76,0 -5.55,-0.68 -8.12,-2.1 -74.22,-40.95 -90.79,-192.15 -94.45,-250.43 -94.79,22.9 -187.42,24.88 -275.64,5.84 -88.04,-19 -172.06,-59.06 -250.29,-119.26 11.39,35.72 36.31,63.85 36.64,64.22 4.5,5.01 5.58,12.23 2.74,18.34 -2.84,6.11 -9.13,9.91 -15.77,9.74 -77.27,-2.37 -136.06,-33.57 -175.43,-92.92 -17.77,158.69 -27.9,210.33 -118.8,346.46 -3.37,5.05 -9.2,7.89 -15.27,7.43 -6.06,-0.46 -11.4,-4.16 -13.97,-9.66 -96.47,-206.72 -115.08,-453.26 24.03,-551.41 -79.56,-34.57 -111.89,-78.96 -114.97,-111.37 -2.06,-21.69 7.63,-40.37 26.58,-51.25 25.48,-14.62 72.27,-15.7 135.09,16.23 -13.85,-37.69 -10.23,-66.03 0.67,-82.41 9.9,-14.88 26.08,-21.55 43.27,-17.87 24.72,5.31 45.23,29.4 57.91,66.62 88.97,-114.27 268.3,-139.65 415.05,-123.34 186.16,20.69 395.73,117.24 444.26,286.28 1.63,5.68 0.16,11.81 -3.87,16.13 -4.04,4.32 -10.05,6.21 -15.83,4.97 l -50.08,-10.74 c 45.56,74.73 69.56,170.55 68.18,274.69 -1.51,114.37 -33.69,223.28 -88.28,298.81 -3.26,4.54 -8.4,7 -13.65,7 z m -86.71,-290.8 c 3.58,0 7.11,1.14 10.05,3.33 4.15,3.09 6.65,7.91 6.78,13.07 1.35,52.29 15.96,188.16 65.72,233.86 91.68,-142.06 106.18,-402.28 -13.28,-554.92 -4.37,-5.58 -4.77,-13.29 -1.02,-19.3 3.75,-6.01 10.88,-9.01 17.8,-7.53 l 62.11,13.32 c -58.32,-137.2 -241.53,-216.44 -405.89,-234.71 -187.48,-20.84 -345.93,33.86 -403.68,139.34 -3.44,6.29 -10.5,9.72 -17.58,8.51 -7.08,-1.2 -12.61,-6.76 -13.78,-13.84 -9.37,-56.56 -31.09,-75.64 -41.27,-77.83 -2.5,-0.54 -5.43,-0.53 -8.18,3.6 -6.93,10.42 -9.71,44.96 29.38,101.13 4.68,6.73 3.84,15.85 -2.01,21.61 -5.84,5.75 -14.98,6.46 -21.63,1.67 -72.31,-52 -128.82,-61.42 -152.76,-47.68 -7.41,4.26 -10.63,10.43 -9.83,18.87 2.56,26.93 42.38,66.92 125.56,95.55 6.47,2.23 10.94,8.15 11.32,14.98 0.38,6.83 -3.41,13.21 -9.59,16.14 -88.02,41.73 -109.63,136.85 -112.27,209.3 -3.12,85.9 18.77,189.34 60.49,287.85 75.83,-118.23 81.2,-166.93 99.92,-336.56 l 2.69,-24.34 c 0.85,-7.67 6.81,-13.78 14.46,-14.82 7.64,-1.06 15.02,3.26 17.89,10.43 27.09,67.77 71.58,106.88 135.42,118.73 -14.46,-23.89 -29.94,-58.71 -27.61,-95.76 0.4,-6.38 4.38,-11.98 10.27,-14.46 5.88,-2.48 12.67,-1.41 17.51,2.76 162.47,139.97 347.04,183.13 548.58,128.28 1.47,-0.39 2.95,-0.58 4.43,-0.58 z"
   id="path382" />&#10;							</g>&#10;						</g>&#10;					</g>&#10;				</g>&#10;				<g
   id="g390">&#10;					<g
   id="g389">&#10;						<g
   id="g388">&#10;							<g
   id="g387">&#10;								<path
   class="st2"
   d="m 2369.34,1388.77 c -7.43,0 -14.22,-4.95 -16.24,-12.46 -2.41,-8.98 2.91,-18.21 11.88,-20.62 20.89,-5.62 42.02,-12.37 62.81,-20.06 8.72,-3.23 18.4,1.23 21.62,9.94 3.23,8.72 -1.22,18.4 -9.94,21.62 -21.76,8.05 -43.88,15.12 -65.76,21 -1.45,0.39 -2.92,0.58 -4.37,0.58 z"
   id="path386" />&#10;							</g>&#10;						</g>&#10;					</g>&#10;				</g>&#10;				<g
   class="st1"
   id="g394">&#10;					<g
   id="g393">&#10;						<g
   id="g392">&#10;							<g
   id="g391">&#10;								<path
   class="st2"
   d="m 2456.07,1629.08 c -81.34,-44.88 -86.72,-257.14 -86.72,-257.14 -192.52,52.39 -387.34,20.42 -563.98,-131.77 -3.76,59.8 46.33,115.28 46.33,115.28 -22.72,-0.67 -43.08,-3.98 -61.37,-9.48 -92.11,-151.79 -52.9,-187.58 79.54,-140.91 367.54,118.59 635.11,137.15 581.99,-164.98 126.22,161.27 110.52,441.92 4.21,589 z"
   id="path390" />&#10;							</g>&#10;						</g>&#10;					</g>&#10;				</g>&#10;				<g
   class="st17"
   id="g398">&#10;					<g
   id="g397">&#10;						<g
   id="g396">&#10;							<g
   id="g395">&#10;								<path
   class="st18"
   d="m 2362.77,1180.33 c 0,25.49 -49.91,46.16 -111.48,46.16 -61.57,0 -111.48,-20.67 -111.48,-46.16 0,-25.49 49.91,-26.15 111.48,-26.15 61.56,0 111.48,0.66 111.48,26.15 z"
   id="path394" />&#10;							</g>&#10;						</g>&#10;					</g>&#10;				</g>&#10;			</g>&#10;			<g
   class="st1"
   id="g408">&#10;				<g
   id="g403">&#10;					<g
   id="g402">&#10;						<g
   id="g401">&#10;							<g
   id="g400">&#10;								<path
   class="st19"
   d="m 2151.59,2094.65 c 0,52.51 -33.28,87.66 -77.79,105.35 l -110.69,10.3 c 53.5,-33.23 40.53,-66.18 0,-98.99 0,0 50.62,9.45 104.72,1.17 z"
   id="path399" />&#10;							</g>&#10;						</g>&#10;					</g>&#10;				</g>&#10;				<g
   id="g407">&#10;					<g
   id="g406">&#10;						<g
   id="g405">&#10;							<g
   id="g404">&#10;								<path
   class="st2"
   d="m 1952.79,2213.77 9.01,-5.6 c 21.78,-13.53 33.28,-27.74 34.18,-42.23 0.99,-15.9 -10.27,-33.13 -34.44,-52.69 l -7.67,-6.21 9.7,1.81 c 0.5,0.1 50.86,9.27 103.88,1.16 l 86.63,-18.45 v 3.09 c 0,48.38 -28.93,87.63 -79.36,107.68 l -0.69,0.17 z m 18.7,-98.66 c 20.82,18.38 30.47,35.17 29.48,51.14 -0.9,14.37 -10.15,27.72 -28.22,40.63 l 100.46,-9.35 c 28.03,-11.21 74.32,-38.92 75.84,-99.8 l -80.7,17.18 c -40.75,6.26 -79.87,2.48 -96.86,0.2 z"
   id="path403" />&#10;							</g>&#10;						</g>&#10;					</g>&#10;				</g>&#10;			</g>&#10;			<g
   class="st1"
   id="g412">&#10;				<g
   id="g411">&#10;					<g
   id="g410">&#10;						<g
   id="g409">&#10;							<path
   class="st2"
   d="m 2603.24,2643.23 c 0,87.94 -33.32,156.23 -113.73,182.86 h -48.63 c 46.99,-34.26 67.21,-90.84 67.21,-159.37 0,-96.88 -40.44,-217.68 -102.97,-333.01 -21.67,-39.97 -47.13,-72.55 -74.23,-99.08 -1.64,-1.6 -3.28,-3.19 -4.93,-4.74 -35.13,-33.22 -84.52,-45.97 -131.55,-34.73 -82.9,19.8 -164.7,8.96 -164.7,8.96 71,4.31 103.67,-40.39 117.8,-72.26 -0.7,-0.19 -1.36,-0.33 -2.01,-0.52 3.93,-11.09 6.08,-23.35 6.08,-36.69 0,0 153.7,-1.64 274.45,116.49 27.1,26.54 52.56,59.11 74.23,99.08 62.54,115.32 102.98,236.12 102.98,333.01 z"
   id="path408" />&#10;						</g>&#10;					</g>&#10;				</g>&#10;			</g>&#10;			<g
   id="g437">&#10;				<g
   id="g416">&#10;					<g
   id="g415">&#10;						<g
   id="g414">&#10;							<g
   id="g413">&#10;								<path
   class="st20"
   d="m 1574.89,2974.73 h 846.96 c 28.54,0 52.58,-21.35 55.94,-49.7 l 68.23,-575.46 c 3.97,-33.5 -22.2,-62.96 -55.94,-62.96 h -983.41 c -33.74,0 -59.91,29.46 -55.94,62.96 l 68.23,575.46 c 3.35,28.35 27.39,49.7 55.93,49.7 z"
   id="path412" />&#10;							</g>&#10;						</g>&#10;					</g>&#10;				</g>&#10;				<g
   class="st21"
   id="g420">&#10;					<g
   id="g419">&#10;						<g
   id="g418">&#10;							<g
   id="g417">&#10;								<path
   class="st0"
   d="m 1450.71,2349.57 62.29,525.14 c 0,0 0,0 0,0.04 l 5.96,50.3 c 3.37,28.34 27.38,49.69 55.94,49.69 h 846.96 c 28.55,0 52.57,-21.35 55.94,-49.69 l 68.24,-575.47 c 3.97,-33.52 -22.2,-62.96 -55.94,-62.96 h -983.45 c -33.73,-0.01 -59.91,29.43 -55.94,62.95 z"
   id="path416" />&#10;							</g>&#10;						</g>&#10;					</g>&#10;				</g>&#10;				<g
   id="g424">&#10;					<g
   id="g423">&#10;						<g
   id="g422">&#10;							<g
   id="g421">&#10;								<path
   class="st20"
   d="m 1610.27,2974.73 h 776.22 c 26.08,0 48.03,-19.91 51.1,-46.35 l 62.33,-536.67 c 3.63,-31.25 -20.28,-58.72 -51.1,-58.72 h -900.87 c -30.82,0 -54.73,27.47 -51.1,58.72 l 62.33,536.67 c 3.05,26.44 25.01,46.35 51.09,46.35 z"
   id="path420" />&#10;							</g>&#10;						</g>&#10;					</g>&#10;				</g>&#10;				<g
   id="g428">&#10;					<g
   id="g427">&#10;						<g
   id="g426">&#10;							<g
   id="g425">&#10;								<path
   class="st2"
   d="m 2421.86,2991.56 h -846.97 c -37.05,0 -68.28,-27.75 -72.65,-64.54 l -68.23,-575.46 c -2.46,-20.74 4.09,-41.59 17.96,-57.2 13.87,-15.61 33.8,-24.57 54.69,-24.57 h 983.42 c 20.89,0 40.82,8.96 54.69,24.57 13.87,15.61 20.42,36.46 17.96,57.2 l -68.23,575.46 c -4.36,36.79 -35.59,64.54 -72.64,64.54 z m -915.19,-688.12 c -11.44,0 -21.93,4.71 -29.53,13.26 -7.6,8.55 -11.04,19.52 -9.7,30.89 l 68.23,575.47 c 2.36,19.87 19.22,34.85 39.23,34.85 h 846.97 c 20.01,0 36.87,-14.98 39.23,-34.85 l 68.23,-575.47 c 1.35,-11.36 -2.1,-22.33 -9.7,-30.89 -7.6,-8.55 -18.09,-13.26 -29.53,-13.26 z"
   id="path424" />&#10;							</g>&#10;						</g>&#10;					</g>&#10;				</g>&#10;				<g
   class="st1"
   id="g432">&#10;					<g
   id="g431">&#10;						<g
   id="g430">&#10;							<g
   id="g429">&#10;								<path
   class="st2"
   d="m 1513,2874.71 c 0,0 0,0 0,0.04 l 5.96,50.3 c 3.37,28.34 27.38,49.69 55.94,49.69 h 846.96 c 28.55,0 52.57,-21.35 55.94,-49.69 l 68.24,-575.47 c 3.97,-33.52 -22.2,-62.96 -55.94,-62.96 h -72 c -48.67,487.46 -355.42,677.69 -905.1,588.09 z"
   id="path428" />&#10;							</g>&#10;						</g>&#10;					</g>&#10;				</g>&#10;				<g
   id="g436">&#10;					<g
   id="g435">&#10;						<g
   id="g434">&#10;							<g
   id="g433">&#10;								&#10;									<circle
   transform="matrix(0.9732,-0.2298,0.2298,0.9732,-550.9169,529.512)"
   class="st2"
   cx="1998.42"
   cy="2630.55"
   id="ellipse432"
   r="64.910004" />&#10;							</g>&#10;						</g>&#10;					</g>&#10;				</g>&#10;			</g>&#10;			<g
   id="g487">&#10;				<g
   id="g441">&#10;					<g
   id="g440">&#10;						<g
   id="g439">&#10;							<g
   id="g438">&#10;								<path
   class="st22"
   d="m 1463.59,2918.87 c -37.45,25.06 -56.22,60.55 -60.89,98.08 -11.02,88.67 60.63,166.15 149.98,166.15 H 2212.3 V 3030.99 L 1584,2896.31 c -41.54,-8.34 -85.19,-1 -120.41,22.56 z"
   id="path437" />&#10;							</g>&#10;						</g>&#10;					</g>&#10;				</g>&#10;				<g
   class="st1"
   id="g445">&#10;					<g
   id="g444">&#10;						<g
   id="g443">&#10;							<g
   id="g442">&#10;								<path
   class="st2"
   d="m 2212.29,3030.99 v 152.11 h -659.6 c -82.61,0 -150.1,-66.18 -151.13,-146.31 27.57,36.55 71.8,60.52 121.5,60.52 h 659.6 v -72.69 z"
   id="path441" />&#10;							</g>&#10;						</g>&#10;					</g>&#10;				</g>&#10;				<g
   class="st15"
   id="g449">&#10;					<g
   id="g448">&#10;						<g
   id="g447">&#10;							<g
   id="g446">&#10;								<path
   class="st0"
   d="m 2212.29,3030.99 v 28.83 l -615.42,-131.94 c -41.56,-8.33 -85.18,-0.98 -120.43,22.56 -37.44,25.09 -56.21,60.56 -60.89,98.1 -2.43,19.47 -0.84,38.43 4.03,56.16 -14.18,-25.79 -20.83,-56.07 -16.9,-87.76 4.68,-37.54 23.45,-73.01 60.89,-98.1 35.24,-23.54 78.86,-30.89 120.42,-22.56 z"
   id="path445" />&#10;							</g>&#10;						</g>&#10;					</g>&#10;				</g>&#10;				<g
   id="g453">&#10;					<g
   id="g452">&#10;						<g
   id="g451">&#10;							<g
   id="g450">&#10;								<path
   class="st2"
   d="m 2212.31,3199.93 h -659.62 c -48.44,0 -94.64,-20.83 -126.73,-57.17 -31.12,-35.23 -45.68,-81.84 -39.96,-127.89 5.71,-45.9 29.3,-83.94 68.23,-109.99 v 0 c 37.74,-25.26 86.11,-34.42 132.74,-25.14 117.38,18.77 250.77,49.34 391.98,81.71 76.21,17.47 155.01,35.53 236.88,53.08 7.76,1.66 13.3,8.52 13.3,16.46 v 152.11 c 0.01,9.3 -7.53,16.83 -16.82,16.83 z m -739.36,-267.07 c -30.57,20.45 -49.08,50.25 -53.55,86.17 -4.6,37.01 6.68,73.04 31.78,101.46 25.71,29.1 62.7,45.79 101.5,45.79 h 642.79 v -121.69 c -77.33,-16.69 -151.85,-33.77 -224.04,-50.32 -140.78,-32.27 -273.75,-62.75 -390.09,-81.34 -0.22,-0.04 -0.44,-0.08 -0.66,-0.12 -38.01,-7.63 -77.28,-0.32 -107.73,20.05 z"
   id="path449" />&#10;							</g>&#10;						</g>&#10;					</g>&#10;				</g>&#10;				<g
   id="g457">&#10;					<g
   id="g456">&#10;						<g
   id="g455">&#10;							<g
   id="g454">&#10;								<path
   class="st22"
   d="m 2500.82,2918.87 c 37.45,25.06 56.22,60.55 60.89,98.08 11.02,88.67 -60.63,166.15 -149.98,166.15 h -659.62 v -152.11 c 212.61,-63.45 422.3,-109.84 628.31,-134.68 41.54,-8.34 85.19,-1 120.4,22.56 z"
   id="path453" />&#10;							</g>&#10;						</g>&#10;					</g>&#10;				</g>&#10;				<g
   class="st1"
   id="g461">&#10;					<g
   id="g460">&#10;						<g
   id="g459">&#10;							<g
   id="g458">&#10;								<path
   class="st2"
   d="m 2411.72,3176.08 h -659.6 v -49.14 h 619.82 c 89.35,0 161,-77.46 150.01,-166.15 -1.83,-14.65 -5.8,-29.02 -12.22,-42.54 31.55,24.57 47.69,57.24 52,91.69 11,88.68 -60.66,166.14 -150.01,166.14 z"
   id="path457" />&#10;							</g>&#10;						</g>&#10;					</g>&#10;				</g>&#10;				<g
   class="st15"
   id="g465">&#10;					<g
   id="g464">&#10;						<g
   id="g463">&#10;							<g
   id="g462">&#10;								<path
   class="st0"
   d="m 2561.21,3017.75 c -9.5,-24.67 -26.54,-47.13 -52.61,-64.54 -35.2,-23.59 -78.86,-30.89 -120.38,-22.56 -206.03,24.81 -415.71,71.23 -628.34,134.65 v 122.48 h -7.77 v -152.11 c 212.58,-63.47 422.31,-109.85 628.29,-134.7 41.56,-8.33 85.18,-0.98 120.43,22.56 36.14,24.2 54.91,58.13 60.38,94.22 z"
   id="path461" />&#10;							</g>&#10;						</g>&#10;					</g>&#10;				</g>&#10;				<g
   id="g469">&#10;					<g
   id="g468">&#10;						<g
   id="g467">&#10;							<g
   id="g466">&#10;								<path
   class="st2"
   d="m 2411.73,3199.93 h -659.62 c -9.29,0 -16.83,-7.53 -16.83,-16.83 v -152.11 c 0,-7.39 4.82,-13.91 11.88,-16.08 199.72,-61.48 411.86,-106.98 630.54,-135.21 46.57,-9.19 94.82,-0.02 132.49,25.19 38.93,26.05 62.52,64.09 68.23,109.99 5.73,46.05 -8.84,92.66 -39.96,127.89 -32.1,36.33 -78.29,57.16 -126.73,57.16 z m -642.79,-33.65 h 642.79 c 38.8,0 75.8,-16.69 101.5,-45.79 25.1,-28.41 36.38,-64.44 31.78,-101.45 -4.47,-35.92 -22.98,-65.72 -53.55,-86.17 -30.44,-20.38 -69.71,-27.67 -107.74,-20.05 -0.38,0.08 -0.77,0.14 -1.16,0.19 -212.66,27.43 -419.04,71.31 -613.63,130.44 v 122.83 z"
   id="path465" />&#10;							</g>&#10;						</g>&#10;					</g>&#10;				</g>&#10;				<g
   id="g478">&#10;					<g
   id="g473">&#10;						<g
   id="g472">&#10;							<g
   id="g471">&#10;								<g
   id="g470">&#10;									<path
   class="st0"
   d="m 1752.11,3183.1 h -237.14 c 0,0 -30.42,-43.68 36.66,-51.48 67.08,-7.8 106.87,-52.26 106.87,-52.26 0,0 49.92,-54.6 93.61,-7.8 z"
   id="path469" />&#10;								</g>&#10;							</g>&#10;						</g>&#10;					</g>&#10;					<g
   id="g477">&#10;						<g
   id="g476">&#10;							<g
   id="g475">&#10;								<g
   id="g474">&#10;									<path
   class="st2"
   d="m 1754.61,3185.6 h -240.94 l -0.74,-1.07 c -0.5,-0.72 -12.12,-17.7 -5.09,-33.29 5.38,-11.94 20.02,-19.37 43.52,-22.1 65.39,-7.6 104.9,-51.01 105.29,-51.45 1.04,-1.14 25.43,-27.43 55.72,-27.59 0.09,0 0.18,0 0.27,0 15.18,0 29.08,6.64 41.31,19.75 l 0.67,0.72 v 115.03 z m -238.26,-5 h 233.26 v -108.05 c -11.14,-11.65 -23.85,-17.39 -37.22,-17.45 -28.13,0.14 -51.8,25.68 -52.04,25.94 -0.39,0.43 -41.18,45.24 -108.43,53.06 -21.61,2.51 -34.91,8.96 -39.52,19.17 -4.98,11 1.71,23.63 3.95,27.33 z"
   id="path473" />&#10;								</g>&#10;							</g>&#10;						</g>&#10;					</g>&#10;				</g>&#10;				<g
   class="st1"
   id="g482">&#10;					<g
   id="g481">&#10;						<g
   id="g480">&#10;							<g
   id="g479">&#10;								<path
   class="st2"
   d="m 1752.12,3071.57 v 111.53 h -237.15 c 0,0 -13.81,-19.8 -2.29,-35.1 h 150.71 c 30.23,0 54.81,-24.52 54.81,-54.81 v -40.25 c 11.04,1.27 22.69,6.6 33.92,18.63 z"
   id="path478" />&#10;							</g>&#10;						</g>&#10;					</g>&#10;				</g>&#10;				<g
   id="g486">&#10;					<g
   id="g485">&#10;						<g
   id="g484">&#10;							<g
   id="g483">&#10;								<path
   class="st2"
   d="m 1752.11,3198.1 h -237.14 c -4.91,0 -9.5,-2.4 -12.31,-6.43 -1.66,-2.39 -15.97,-23.96 -6.23,-45.57 7.31,-16.22 25.3,-26.11 53.47,-29.38 60.24,-7 97.09,-47 97.45,-47.4 1.25,-1.37 29.24,-31.54 64.94,-31.72 0.11,0 0.23,0 0.34,0 18.78,0 35.74,7.98 50.44,23.72 2.59,2.78 4.03,6.44 4.03,10.23 v 111.55 c 0.01,8.29 -6.71,15 -14.99,15 z m -227.88,-30 h 212.88 v -90.27 c -7.74,-6.92 -15.85,-10.44 -24.66,-10.23 -22.36,0.11 -42.68,21.66 -42.87,21.88 -1.67,1.87 -44.3,48.68 -116.21,57.04 -15.94,1.85 -26.99,6.28 -29.56,11.86 -1.25,2.71 -0.69,6.42 0.42,9.72 z"
   id="path482" />&#10;							</g>&#10;						</g>&#10;					</g>&#10;				</g>&#10;			</g>&#10;			<g
   id="g497">&#10;				<g
   id="g496">&#10;					<g
   id="g491">&#10;						<g
   id="g490">&#10;							<g
   id="g489">&#10;								<g
   id="g488">&#10;									<path
   class="st2"
   d="m 2059.03,1927.65 c 0,0 -24.14,15.42 -87.04,15.42 -13.65,0.94 -52.7,-1.2 -102.05,-46.26 0,0 22.8,65.72 100.58,65.72 -0.01,-0.02 44.25,4.01 88.51,-34.88 z"
   id="path487" />&#10;								</g>&#10;							</g>&#10;						</g>&#10;					</g>&#10;					<g
   id="g495">&#10;						<g
   id="g494">&#10;							<g
   id="g493">&#10;								<g
   id="g492">&#10;									<path
   class="st2"
   d="m 1974.36,1970.14 c -2.06,0 -3.47,-0.08 -4.14,-0.13 -81.93,-0.17 -107.13,-70.05 -107.37,-70.76 -1.13,-3.24 0.09,-6.83 2.96,-8.72 2.87,-1.89 6.65,-1.59 9.18,0.73 46.86,42.79 83.08,45.24 96.48,44.32 0.17,-0.01 0.34,-0.02 0.52,-0.02 59.25,0 82.82,-14.13 83.05,-14.27 3.32,-2.04 7.67,-1.23 10,1.91 2.32,3.13 1.87,7.51 -1.05,10.08 -38.38,33.72 -76.7,36.86 -89.63,36.86 z m -71.84,-39.58 c 14.54,12.98 36.35,24.46 68,24.46 0.23,0 0.45,0.01 0.68,0.03 0.25,0.02 16.22,1.19 38.11,-6.5 -10.57,1.22 -22.87,2 -37.06,2.01 -11.49,0.75 -36.81,-0.59 -69.73,-20 z"
   id="path491" />&#10;								</g>&#10;							</g>&#10;						</g>&#10;					</g>&#10;				</g>&#10;			</g>&#10;			<g
   id="g522">&#10;				<g
   id="g501">&#10;					<g
   id="g500">&#10;						<g
   id="g499">&#10;							<g
   id="g498">&#10;								<path
   class="st2"
   d="m 1701.87,1635.6 c 5.24,-17.21 17.96,-31.41 33.51,-41.16 15.66,-9.71 34.43,-14.67 53.04,-14.48 18.63,0.13 37.14,5.47 52.62,15.12 15.4,9.71 28.12,23.51 33.99,40.52 -16.97,-5.77 -31.32,-10.49 -45.58,-13.45 -14.14,-3.05 -27.77,-4.57 -41.38,-4.75 -13.61,-0.14 -27.2,1.06 -41.21,4.04 -14.12,2.88 -28.3,7.72 -44.99,14.16 z"
   id="path497" />&#10;							</g>&#10;						</g>&#10;					</g>&#10;				</g>&#10;				<g
   id="g505">&#10;					<g
   id="g504">&#10;						<g
   id="g503">&#10;							<g
   id="g502">&#10;								<path
   class="st2"
   d="m 2304.99,1635.6 c -16.69,-6.44 -30.87,-11.28 -45,-14.16 -14.01,-2.97 -27.6,-4.18 -41.21,-4.04 -13.61,0.18 -27.24,1.7 -41.38,4.75 -14.26,2.96 -28.61,7.68 -45.58,13.45 5.87,-17 18.59,-30.81 33.99,-40.52 15.49,-9.65 33.99,-14.99 52.62,-15.12 18.61,-0.19 37.38,4.77 53.04,14.48 15.56,9.75 28.28,23.95 33.52,41.16 z"
   id="path501" />&#10;							</g>&#10;						</g>&#10;					</g>&#10;				</g>&#10;				<g
   id="g509">&#10;					<g
   id="g508">&#10;						<g
   id="g507">&#10;							<g
   id="g506">&#10;								<ellipse
   class="st2"
   cx="1805.37"
   cy="1738.12"
   rx="57.849998"
   ry="76.32"
   id="ellipse505" />&#10;							</g>&#10;						</g>&#10;					</g>&#10;				</g>&#10;				<g
   id="g513">&#10;					<g
   id="g512">&#10;						<g
   id="g511">&#10;							<g
   id="g510">&#10;								<ellipse
   class="st0"
   cx="1820.15"
   cy="1720.41"
   rx="17.48"
   ry="25.629999"
   id="ellipse509" />&#10;							</g>&#10;						</g>&#10;					</g>&#10;				</g>&#10;				<g
   id="g517">&#10;					<g
   id="g516">&#10;						<g
   id="g515">&#10;							<g
   id="g514">&#10;								<ellipse
   class="st2"
   cx="2205.3701"
   cy="1738.12"
   rx="57.849998"
   ry="76.32"
   id="ellipse513" />&#10;							</g>&#10;						</g>&#10;					</g>&#10;				</g>&#10;				<g
   id="g521">&#10;					<g
   id="g520">&#10;						<g
   id="g519">&#10;							<g
   id="g518">&#10;								<ellipse
   class="st0"
   cx="2190.5901"
   cy="1720.41"
   rx="17.48"
   ry="25.629999"
   id="ellipse517" />&#10;							</g>&#10;						</g>&#10;					</g>&#10;				</g>&#10;			</g>&#10;		</g>&#10;		<g
   id="g527">&#10;			<g
   id="g526">&#10;				<g
   id="g525">&#10;					<g
   id="g524">&#10;						<path
   class="st2"
   d="M 2988.3952,3200.6 H 674.79742 c -7.60356,0 -13.76032,-7.83 -13.76032,-17.5 0,-9.67 6.15676,-17.5 13.76032,-17.5 H 2988.3952 c 7.6036,0 13.7604,7.83 13.7604,17.5 0,9.67 -6.1646,17.5 -13.7604,17.5 z"
   id="path523"
   style="stroke-width:0.886738" />&#10;					</g>&#10;				</g>&#10;			</g>&#10;		</g>&#10;		<g
   id="g557">&#10;			<g
   id="g531">&#10;				<g
   id="g530">&#10;					<g
   id="g529">&#10;						<g
   id="g528">&#10;							<path
   class="st2"
   d="m 1324.21,3199.93 h -129.08 c -40.17,0 -73.12,-31.43 -75.02,-71.56 l -14.7,-311.27 c -0.58,-12.22 3.93,-24.31 12.38,-33.16 8.45,-8.85 20.31,-13.93 32.55,-13.93 h 218.68 c 12.42,0 23.97,4.95 32.54,13.93 8.45,8.85 12.96,20.94 12.38,33.16 l -14.71,311.27 c -1.9,40.13 -34.85,71.56 -75.02,71.56 z m -173.88,-396.27 c -3.12,0 -6.03,1.25 -8.19,3.51 -2.16,2.26 -3.26,5.22 -3.12,8.34 l 14.7,311.27 c 1.05,22.14 19.23,39.49 41.4,39.49 h 129.08 c 22.17,0 40.35,-17.35 41.4,-39.49 l 14.71,-311.27 c 0.15,-3.12 -0.96,-6.08 -3.12,-8.35 -2.16,-2.26 -5.07,-3.51 -8.19,-3.51 h -218.67 z"
   id="path527" />&#10;						</g>&#10;					</g>&#10;				</g>&#10;			</g>&#10;			<g
   id="g535">&#10;				<g
   id="g534">&#10;					<g
   id="g533">&#10;						<g
   id="g532">&#10;							<path
   class="st23"
   d="m 1397.13,2816.29 -3.23,68.29 -11.47,243 c -1.5,31.08 -27.1,55.51 -58.22,55.51 h -129.08 c -31.12,0 -56.73,-24.43 -58.22,-55.51 l -14.7,-311.29 c -0.75,-16.01 12.08,-29.44 28.13,-29.44 H 1369 c 16.05,0 28.88,13.43 28.13,29.44 z"
   id="path531" />&#10;						</g>&#10;					</g>&#10;				</g>&#10;			</g>&#10;			<g
   class="st15"
   id="g539">&#10;				<g
   id="g538">&#10;					<g
   id="g537">&#10;						<g
   id="g536">&#10;							<path
   class="st0"
   d="m 1167.65,2844.37 14.7,311.29 c 0.42,9.13 2.95,17.69 7.11,25.23 -23.59,-6.6 -41.19,-27.71 -42.4,-53.31 l -14.7,-311.29 c -0.75,-16.01 12.08,-29.44 28.13,-29.44 h 218.67 c 15.59,0 28.13,12.64 28.18,28.08 h -211.55 c -16.07,0 -28.89,13.44 -28.14,29.44 z"
   id="path535" />&#10;						</g>&#10;					</g>&#10;				</g>&#10;			</g>&#10;			<g
   id="g543">&#10;				<g
   id="g542">&#10;					<g
   id="g541">&#10;						<g
   id="g540">&#10;							<path
   class="st2"
   d="m 1324.21,3198.1 h -129.08 c -39.19,0 -71.35,-30.67 -73.19,-69.82 l -14.7,-311.27 c -0.56,-11.9 3.65,-23.2 11.88,-31.82 8.22,-8.62 19.31,-13.37 31.22,-13.37 h 218.68 c 11.91,0 23,4.75 31.22,13.37 8.22,8.62 12.44,19.92 11.88,31.81 l -14.71,311.27 c -1.86,39.17 -34.01,69.83 -73.2,69.83 z m -173.88,-396.26 c -3.63,0 -7.01,1.45 -9.51,4.07 -2.5,2.63 -3.79,6.07 -3.62,9.69 l 14.7,311.27 c 1.09,23.12 20.08,41.23 43.23,41.23 h 129.08 c 23.15,0 42.14,-18.11 43.23,-41.23 l 14.71,-311.27 c 0.17,-3.62 -1.12,-7.07 -3.62,-9.69 -2.5,-2.62 -5.88,-4.07 -9.51,-4.07 z"
   id="path539" />&#10;						</g>&#10;					</g>&#10;				</g>&#10;			</g>&#10;			<g
   class="st17"
   id="g547">&#10;				<g
   id="g546">&#10;					<g
   id="g545">&#10;						<g
   id="g544">&#10;							<path
   class="st0"
   d="m 1206.26,2981.01 c -1.28,-39.08 -0.73,-67.29 17.67,-67.9 18.4,-0.61 34.37,30.58 35.65,69.66 1.28,39.08 -12.6,71.24 -31.01,71.85 -18.41,0.61 -21.03,-34.53 -22.31,-73.61 z"
   id="path543" />&#10;						</g>&#10;					</g>&#10;				</g>&#10;			</g>&#10;			<g
   class="st1"
   id="g556">&#10;				<g
   id="g551">&#10;					<g
   id="g550">&#10;						<g
   id="g549">&#10;							<g
   id="g548">&#10;								<path
   class="st19"
   d="m 1393.9,2884.58 -11.47,243 c -1.5,31.08 -27.1,55.51 -58.22,55.51 h -49 l -106.01,-12.54 c 144.48,-12.22 215.08,-103.67 215.06,-290.09 0,0 3.84,1.59 9.64,4.12 z"
   id="path547" />&#10;							</g>&#10;						</g>&#10;					</g>&#10;				</g>&#10;				<g
   id="g555">&#10;					<g
   id="g554">&#10;						<g
   id="g553">&#10;							<g
   id="g552">&#10;								<path
   class="st2"
   d="m 1324.21,3185.59 h -49 l -130.79,-15.46 24.57,-2.08 c 145.19,-12.28 212.8,-103.66 212.77,-287.6 v -3.74 l 3.46,1.43 c 0,0 3.85,1.6 9.68,4.14 l 1.58,0.69 -11.55,244.72 c -1.57,32.47 -28.24,57.9 -60.72,57.9 z m -133.41,-15 84.7,10.02 48.71,-0.02 c 29.81,0 54.29,-23.34 55.73,-53.13 l 11.38,-241.28 c -1.78,-0.77 -3.33,-1.43 -4.57,-1.96 -0.45,92.25 -18.07,160.35 -53.83,208.11 -32.41,43.29 -79.04,69.01 -142.12,78.26 z"
   id="path551" />&#10;							</g>&#10;						</g>&#10;					</g>&#10;				</g>&#10;			</g>&#10;		</g>&#10;	</g>&#10;</g>&#10;</svg>
