<?xml version="1.0" encoding="UTF-8" standalone="no"?>
<svg
   version="1.1"
   width="753.39099"
   height="202.21899"
   viewBox="0 0 753.39099 202.21899"
   id="svg16"
   sodipodi:docname="logo.svg"
   inkscape:version="1.3 (0e150ed6c4, 2023-07-21)"
   xmlns:inkscape="http://www.inkscape.org/namespaces/inkscape"
   xmlns:sodipodi="http://sodipodi.sourceforge.net/DTD/sodipodi-0.dtd"
   xmlns="http://www.w3.org/2000/svg"
   xmlns:svg="http://www.w3.org/2000/svg">
  <defs
     id="defs16">
    <clipPath
       clipPathUnits="userSpaceOnUse"
       id="clipPath16">
      <rect
         style="opacity:0.64;fill:#000000"
         id="rect17"
         width="753.39099"
         height="202.21899"
         x="124.53761"
         y="390.87549"
         ry="0" />
    </clipPath>
  </defs>
  <sodipodi:namedview
     id="namedview16"
     pagecolor="#ffffff"
     bordercolor="#000000"
     borderopacity="0.25"
     inkscape:showpageshadow="2"
     inkscape:pageopacity="0.0"
     inkscape:pagecheckerboard="0"
     inkscape:deskcolor="#d1d1d1"
     showguides="true"
     inkscape:zoom="0.811"
     inkscape:cx="374.84587"
     inkscape:cy="108.50801"
     inkscape:window-width="1920"
     inkscape:window-height="1046"
     inkscape:window-x="-11"
     inkscape:window-y="-11"
     inkscape:window-maximized="1"
     inkscape:current-layer="svg16">
    <sodipodi:guide
       position="-364.98151,1369.9137"
       orientation="0,-1"
       id="guide16"
       inkscape:locked="false" />
  </sodipodi:namedview>
  <rect
     width="1000"
     height="1000"
     fill="#3A1D83"
     id="rect1"
     clip-path="url(#clipPath16)"
     x="0"
     y="0"
     transform="translate(-124.53761,-390.87549)" />
  <g
     transform="matrix(0.7,0,0,0.7,25.038147,35.809352)"
     id="g15">
    <svg
       viewBox="0 0 396 83"
       data-background-color="#3A1D83"
       preserveAspectRatio="xMidYMid"
       height="209"
       width="1000"
       version="1.1"
       id="svg15">
      <g
         id="tight-bounds"
         transform="translate(0.24000006,0.09370305)">
        <svg
           viewBox="0 0 395.52 82.812595"
           height="82.812592"
           width="395.51999"
           version="1.1"
           id="svg14">
          <g
             id="g13">
            <svg
               viewBox="0 0 518.36447 108.53334"
               height="82.812592"
               width="395.51999"
               version="1.1"
               id="svg13">
              <g
                 id="g5">
                <svg
                   viewBox="0 0 395.52 108.53334"
                   height="108.53334"
                   width="395.51999"
                   version="1.1"
                   id="svg5">
                  <g
                     id="textblocktransform">
                    <svg
                       viewBox="0 0 395.52 108.53334"
                       height="108.53334"
                       width="395.51999"
                       id="textblock"
                       version="1.1">
                      <g
                         id="g2">
                        <svg
                           viewBox="0 0 395.52 66.081317"
                           height="66.081314"
                           width="395.51999"
                           version="1.1"
                           id="svg2">
                          <g
                             id="g1">
                            <svg
                               width="395.51999"
                               viewBox="3.9000001 -36.799999 224.72 37.549999"
                               height="66.081314"
                               data-palette-color="#ffffff"
                               version="1.1"
                               id="svg1">
                              <path
                                 d="m 3.9,0 v -35 h 16.7 v 3.5 H 7.5 v 10.85 h 8.1 l -1.35,3.5 H 7.5 V 0 Z m 30.85,0 q -5.4,0.55 -7.8,0.55 v 0 q -5.25,0 -8.35,-1.95 -3.1,-1.95 -3.1,-7.05 v 0 -4.15 q 0,-4.95 3.45,-6.65 v 0 q 1.65,-0.8 4.05,-0.8 v 0 q 2.2,0 4.45,0.67 2.25,0.68 3.7,1.73 v 0 q 0,-5.15 -7.05,-5.15 v 0 l 0.25,-2.65 q 4.8,0 7.07,1.52 2.28,1.53 2.8,3.63 0.53,2.1 0.53,5.4 v 0 z m -3.6,-14.4 q -1.75,-0.85 -3.85,-1.53 -2.1,-0.67 -3.85,-0.67 v 0 q -4.35,0 -4.35,4.3 v 0 3.9 q 0,5.7 7.8,5.7 v 0 q 1.55,0 4.25,-0.35 v 0 z M 57.65,0 q -5.4,0.55 -7.81,0.55 v 0 q -5.25,0 -8.34,-1.95 -3.1,-1.95 -3.1,-7.05 v 0 -4.15 q 0,-4.95 3.44,-6.65 v 0 q 1.66,-0.8 4.06,-0.8 v 0 q 2.19,0 4.44,0.67 2.25,0.68 3.71,1.73 v 0 q 0,-5.15 -7.05,-5.15 v 0 l 0.25,-2.65 q 4.8,0 7.07,1.52 2.27,1.53 2.8,3.63 0.53,2.1 0.53,5.4 v 0 z m -3.6,-14.4 q -1.75,-0.85 -3.85,-1.53 -2.11,-0.67 -3.86,-0.67 v 0 q -4.34,0 -4.34,4.3 v 0 3.9 q 0,5.7 7.8,5.7 v 0 q 1.54,0 4.25,-0.35 v 0 z m 9.29,-2.9 q 0,-5.25 4.25,-7.2 v 0 q 2.05,-0.95 4.8,-0.95 v 0 q 1.7,0 3.25,0.37 1.55,0.38 2.55,1.03 v 0 V -35 h 3.6 V 0 L 79.04,0.25 Q 75.79,0.6 73.94,0.6 v 0 Q 72.09,0.6 70.47,0.25 68.84,-0.1 67.24,-0.9 v 0 q -1.8,-0.9 -2.85,-2.65 -1.05,-1.75 -1.05,-4.3 v 0 z m 14.85,-3.3 q -1.2,-0.65 -2.67,-1.05 -1.48,-0.4 -2.88,-0.4 v 0 q -2.55,0 -4.15,1.3 -1.6,1.3 -1.6,4.15 v 0 8.9 q 0,2.6 1.95,3.77 1.95,1.18 5.15,1.18 v 0 q 1.9,0 4.2,-0.4 v 0 z m 11.35,-10.8 q -0.85,0 -1.47,-0.62 -0.63,-0.63 -0.63,-1.43 v 0 q 0,-0.8 0.63,-1.43 0.62,-0.62 1.47,-0.62 v 0 q 0.8,0 1.4,0.6 0.6,0.6 0.6,1.45 v 0 q 0,0.85 -0.6,1.45 -0.6,0.6 -1.4,0.6 z M 87.64,0 v -25.05 h 3.6 V 0 Z m 13.9,-31.4 q -0.85,0 -1.48,-0.62 -0.62,-0.63 -0.62,-1.43 v 0 q 0,-0.8 0.62,-1.43 0.63,-0.62 1.48,-0.62 v 0 q 0.8,0 1.4,0.6 0.6,0.6 0.6,1.45 v 0 q 0,0.85 -0.6,1.45 -0.6,0.6 -1.4,0.6 z M 99.64,0 v -25.05 h 3.6 V 0 Z m 10.9,-29.45 -0.7,-5.45 q 0,-0.9 0.57,-1.4 0.58,-0.5 1.33,-0.5 v 0 q 0.75,0 1.3,0.5 0.55,0.5 0.55,1.4 v 0 l -0.7,5.45 z m 10.94,22.95 q 0.2,1.85 1.85,2.87 1.65,1.03 3.9,1.03 v 0 q 2.05,0 3.63,-0.98 1.57,-0.97 1.57,-2.92 v 0 q 0,-1.35 -0.77,-2.25 -0.78,-0.9 -1.95,-1.43 -1.18,-0.52 -3.23,-1.22 v 0 q -2.45,-0.85 -3.92,-1.53 -1.48,-0.67 -2.6,-1.97 -1.13,-1.3 -1.38,-3.35 v 0 l -0.05,-0.6 q 0,-1.65 0.93,-3.23 0.92,-1.57 2.85,-2.57 1.92,-1 4.82,-1 v 0 q 1.6,0 2.83,0.32 1.22,0.33 1.92,0.68 0.7,0.35 0.85,0.45 v 0 l -1.15,3.15 q -0.15,-0.1 -0.67,-0.4 -0.53,-0.3 -1.53,-0.58 -1,-0.27 -2.25,-0.27 v 0 q -2.35,0 -3.7,1.05 -1.35,1.05 -1.15,2.85 v 0 q 0.15,1.35 1.48,2.12 1.32,0.78 4.02,1.73 v 0 q 2.65,0.9 4.33,1.72 1.67,0.83 2.85,2.35 1.17,1.53 1.17,3.98 v 0 q 0,3.1 -2.25,5.17 -2.25,2.08 -6.65,2.08 v 0 q -2.85,0 -4.92,-0.98 -2.08,-0.97 -3.15,-2.57 -1.08,-1.6 -1.18,-3.55 v 0 z M 159.73,0 v -31.6 h -8.1 V -35 h 20.1 v 3.4 h -8.4 V 0 Z m 26.6,-1.75 q -1.8,1.15 -4.1,1.75 -2.3,0.6 -4.6,0.6 v 0 q -3.7,0 -5.88,-1.83 -2.17,-1.82 -2.17,-5.47 v 0 -10.25 q 0,-4.05 2.52,-6.3 2.53,-2.25 6.68,-2.25 v 0 q 4.15,0 6.47,2.22 2.33,2.23 2.33,6.18 v 0 6.85 l -14.4,0.75 v 2.6 q 0,2.1 1.3,3.15 1.3,1.05 3.55,1.05 v 0 q 3.25,0 6.95,-2 v 0 z m -2.4,-15.55 q 0,-2.65 -1.65,-3.78 -1.65,-1.12 -3.55,-1.12 v 0 q -2.5,0 -4.03,1.35 -1.52,1.35 -1.52,3.95 v 0 4 l 10.75,-0.55 z m 23.49,17 q -3.1,0.8 -6,0.8 v 0 q -2.7,0 -4.5,-0.6 v 0 q -2.95,-1 -4.27,-3.08 -1.33,-2.07 -1.33,-5.82 v 0 -6.4 q 0,-4.95 2.6,-7.53 2.6,-2.57 6.7,-2.57 v 0 q 3.25,0 6.7,1.6 v 0 l -1,2.85 q -2.85,-1.1 -5.1,-1.1 v 0 q -2.85,0 -4.57,1.62 -1.73,1.63 -1.73,4.83 v 0 7.25 q 0,2.95 1.93,4.28 1.92,1.32 4.92,1.32 v 0 q 2.35,0 4.8,-0.65 v 0 z m 17.6,0.3 v -16.6 q 0,-2.95 -1.6,-4.25 -1.6,-1.3 -4.1,-1.3 v 0 q -1.45,0 -2.95,0.4 -1.5,0.4 -2.6,1.05 v 0 V 0 h -3.6 v -35 h 3.6 v 10.95 q 1.05,-0.65 2.63,-1.03 1.57,-0.37 3.27,-0.37 v 0 q 2.85,0 4.7,0.9 v 0 q 2,0.9 3.13,2.7 1.12,1.8 1.12,4.55 v 0 V 0 Z"
                                 opacity="1"
                                 fill="#ffffff"
                                 class="wordmark-text-0"
                                 data-fill-palette-color="primary"
                                 id="text-0" />
                            </svg>
                          </g>
                        </svg>
                      </g>
                      <g
                         transform="translate(163.31021,81.68153)"
                         id="g4">
                        <svg
                           viewBox="0 0 232.20979 26.851811"
                           height="26.85181"
                           width="232.20979"
                           version="1.1"
                           id="svg4">
                          <g
                             id="g3">
                            <svg
                               width="232.20979"
                               viewBox="3.3 -35.5 397.75 46"
                               height="26.85181"
                               data-palette-color="#ffffff"
                               version="1.1"
                               id="svg3">
                              <path
                                 d="M 21.35,-1.15 Q 16.9,0.5 13.05,0.5 v 0 Q 8.7,0.5 6,-1.8 3.3,-4.1 3.3,-9.15 v 0 -16.05 q 0,-3.8 1.08,-5.75 1.07,-1.95 3.27,-3.3 v 0 q 2.2,-1.25 5.4,-1.25 v 0 q 3.9,0 7.05,1.65 v 0 L 19.05,-31 q -2.7,-1 -5.25,-1 v 0 q -2.75,0 -4.83,1.4 -2.07,1.4 -2.07,4.95 v 0 16.4 q 0,3.15 1.75,4.7 Q 10.4,-3 13.6,-3 v 0 q 3.1,0 7.05,-1.35 v 0 z m 22.9,-8.05 q 0,4.2 -2.3,6.95 Q 39.65,0.5 35,0.5 v 0 Q 30.35,0.5 27.97,-2.27 25.6,-5.05 25.6,-9.2 v 0 -6.6 q 0,-4.75 2.42,-7.28 2.43,-2.52 6.98,-2.52 v 0 q 4.35,0 6.8,2.62 2.45,2.63 2.45,7.18 v 0 z m -3.6,-6.6 q 0,-6.35 -5.65,-6.35 v 0 q -2.65,0 -4.23,1.5 -1.57,1.5 -1.57,4.85 v 0 7.1 q 0,2.7 1.57,4.28 1.58,1.57 4.23,1.57 v 0 q 2.65,0 4.15,-1.57 1.5,-1.58 1.5,-4.28 v 0 z m 9.25,-1.5 q 0,-5.25 4.25,-7.2 v 0 q 2.05,-0.95 4.8,-0.95 v 0 q 1.7,0 3.25,0.37 1.55,0.38 2.55,1.03 v 0 V -35 h 3.59 V 0 L 65.59,0.25 Q 62.35,0.6 60.5,0.6 v 0 Q 58.65,0.6 57.02,0.25 55.4,-0.1 53.8,-0.9 v 0 Q 52,-1.8 50.95,-3.55 49.9,-5.3 49.9,-7.85 v 0 z m 14.85,-3.3 q -1.2,-0.65 -2.68,-1.05 -1.47,-0.4 -2.87,-0.4 v 0 q -2.55,0 -4.15,1.3 -1.6,1.3 -1.6,4.15 v 0 8.9 q 0,2.6 1.95,3.77 1.95,1.18 5.15,1.18 v 0 q 1.9,0 4.2,-0.4 v 0 z m 24.14,18.85 q -1.8,1.15 -4.1,1.75 -2.3,0.6 -4.6,0.6 v 0 q -3.7,0 -5.87,-1.83 -2.18,-1.82 -2.18,-5.47 v 0 -10.25 q 0,-4.05 2.53,-6.3 2.52,-2.25 6.67,-2.25 v 0 q 4.15,0 6.48,2.22 2.32,2.23 2.32,6.18 v 0 6.85 l -14.4,0.75 v 2.6 q 0,2.1 1.3,3.15 1.3,1.05 3.55,1.05 v 0 q 3.25,0 6.95,-2 v 0 z m -2.4,-15.55 q 0,-2.65 -1.65,-3.78 -1.65,-1.12 -3.55,-1.12 v 0 q -2.5,0 -4.02,1.35 -1.53,1.35 -1.53,3.95 v 0 4 l 10.75,-0.55 z m 3.9,20.1 q 1.05,-0.6 1.8,-1.2 0.75,-0.6 1.1,-0.97 0.35,-0.38 0.4,-0.48 v 0 L 93.14,0 Q 92.49,-0.4 92.27,-0.98 92.04,-1.55 92.04,-2 v 0 q 0.05,-0.8 0.65,-1.33 0.6,-0.52 1.45,-0.47 v 0 q 0.8,0.05 1.38,0.75 0.57,0.7 0.57,1.45 v 0 q 0,3 -3.25,5.8 v 0 z m 43.1,-3.95 q -4.45,1.65 -8.3,1.65 v 0 q -4.35,0 -7.05,-2.3 -2.7,-2.3 -2.7,-7.35 v 0 -16.05 q 0,-3.8 1.07,-5.75 1.08,-1.95 3.28,-3.3 v 0 q 2.2,-1.25 5.4,-1.25 v 0 q 3.9,0 7.05,1.65 v 0 l -1.05,2.85 q -2.7,-1 -5.25,-1 v 0 q -2.75,0 -4.83,1.4 -2.07,1.4 -2.07,4.95 v 0 16.4 q 0,3.15 1.75,4.7 1.75,1.55 4.95,1.55 v 0 q 3.1,0 7.05,-1.35 v 0 z M 136.88,0 v -25.05 h 3.5 v 1.3 q 2.35,-1.75 5.55,-1.75 v 0 q 1.6,0 3.9,0.5 v 0 l -0.9,3.4 q -1.5,-0.55 -3.15,-0.55 v 0 q -2.2,0 -3.75,0.92 -1.55,0.93 -1.55,2.68 v 0 V 0 Z m 30.45,-1.75 q -1.8,1.15 -4.1,1.75 -2.3,0.6 -4.6,0.6 v 0 q -3.7,0 -5.87,-1.83 -2.18,-1.82 -2.18,-5.47 v 0 -10.25 q 0,-4.05 2.53,-6.3 2.52,-2.25 6.67,-2.25 v 0 q 4.15,0 6.48,2.22 2.32,2.23 2.32,6.18 v 0 6.85 l -14.4,0.75 v 2.6 q 0,2.1 1.3,3.15 1.3,1.05 3.55,1.05 v 0 q 3.25,0 6.95,-2 v 0 z m -2.4,-15.55 q 0,-2.65 -1.65,-3.78 -1.65,-1.12 -3.55,-1.12 v 0 q -2.5,0 -4.02,1.35 -1.53,1.35 -1.53,3.95 v 0 4 l 10.75,-0.55 z M 191.63,0 q -5.4,0.55 -7.8,0.55 v 0 q -5.25,0 -8.35,-1.95 -3.1,-1.95 -3.1,-7.05 v 0 -4.15 q 0,-4.95 3.45,-6.65 v 0 q 1.65,-0.8 4.05,-0.8 v 0 q 2.2,0 4.45,0.67 2.25,0.68 3.7,1.73 v 0 q 0,-5.15 -7.05,-5.15 v 0 l 0.25,-2.65 q 4.8,0 7.07,1.52 2.28,1.53 2.8,3.63 0.53,2.1 0.53,5.4 v 0 z m -3.6,-14.4 q -1.75,-0.85 -3.85,-1.53 -2.1,-0.67 -3.85,-0.67 v 0 q -4.35,0 -4.35,4.3 v 0 3.9 q 0,5.7 7.8,5.7 v 0 q 1.55,0 4.25,-0.35 v 0 z m 13,15.05 q -3.2,-0.6 -4.6,-2.4 -1.4,-1.8 -1.4,-4.85 v 0 -28.4 h 3.65 v 9.95 h 5.6 l -1.2,3.4 h -4.4 V -6.6 q 0,3.55 3.4,4.45 v 0 z m 22.89,-2.4 q -1.8,1.15 -4.1,1.75 -2.3,0.6 -4.6,0.6 v 0 q -3.7,0 -5.87,-1.83 -2.18,-1.82 -2.18,-5.47 v 0 -10.25 q 0,-4.05 2.53,-6.3 2.52,-2.25 6.67,-2.25 v 0 q 4.15,0 6.48,2.22 2.32,2.23 2.32,6.18 v 0 6.85 l -14.4,0.75 v 2.6 q 0,2.1 1.3,3.15 1.3,1.05 3.55,1.05 v 0 q 3.25,0 6.95,-2 v 0 z m -2.4,-15.55 q 0,-2.65 -1.65,-3.78 -1.65,-1.12 -3.55,-1.12 v 0 q -2.5,0 -4.02,1.35 -1.53,1.35 -1.53,3.95 v 0 4 l 10.75,-0.55 z m 3.9,20.1 q 1.05,-0.6 1.8,-1.2 0.75,-0.6 1.1,-0.97 0.35,-0.38 0.4,-0.48 v 0 L 228.17,0 q -0.65,-0.4 -0.87,-0.98 -0.23,-0.57 -0.23,-1.02 v 0 q 0.05,-0.8 0.65,-1.33 0.6,-0.52 1.45,-0.47 v 0 q 0.8,0.05 1.38,0.75 0.57,0.7 0.57,1.45 v 0 q 0,3 -3.25,5.8 v 0 z m 43.1,-3.95 q -4.45,1.65 -8.3,1.65 v 0 q -4.35,0 -7.05,-2.3 -2.7,-2.3 -2.7,-7.35 v 0 -16.05 q 0,-3.8 1.07,-5.75 1.08,-1.95 3.28,-3.3 v 0 q 2.2,-1.25 5.4,-1.25 v 0 q 3.9,0 7.05,1.65 v 0 l -1.05,2.85 q -2.7,-1 -5.25,-1 v 0 q -2.75,0 -4.83,1.4 -2.07,1.4 -2.07,4.95 v 0 16.4 q 0,3.15 1.75,4.7 1.75,1.55 4.95,1.55 v 0 q 3.1,0 7.05,-1.35 v 0 z m 22.89,-8.05 q 0,4.2 -2.3,6.95 -2.3,2.75 -6.95,2.75 v 0 q -4.65,0 -7.02,-2.77 -2.38,-2.78 -2.38,-6.93 v 0 -6.6 q 0,-4.75 2.43,-7.28 2.42,-2.52 6.97,-2.52 v 0 q 4.35,0 6.8,2.62 2.45,2.63 2.45,7.18 v 0 z m -3.6,-6.6 q 0,-6.35 -5.65,-6.35 v 0 q -2.65,0 -4.22,1.5 -1.58,1.5 -1.58,4.85 v 0 7.1 q 0,2.7 1.58,4.28 1.57,1.57 4.22,1.57 v 0 q 2.65,0 4.15,-1.57 1.5,-1.58 1.5,-4.28 v 0 z M 311.21,0 v -16.75 q 0,-2.7 -1.62,-4.03 -1.63,-1.32 -4.13,-1.32 v 0 q -1.4,0 -2.85,0.37 -1.45,0.38 -2.65,1.08 v 0 V 0 h -3.6 v -25.05 h 3.4 l 0.05,1.3 q 1.15,-0.8 2.78,-1.25 1.62,-0.45 3.42,-0.45 v 0 q 2.6,0 4.55,0.9 v 0 q 2,0.9 3.13,2.7 1.12,1.8 1.12,4.55 v 0 V 0 Z m 24.05,9.4 V -1.5 q -1.1,1.15 -2.5,1.63 -1.4,0.47 -3.45,0.47 v 0 q -4.2,0 -6.75,-2.43 -2.55,-2.42 -2.55,-6.97 v 0 -6.9 q 0,-4.3 2.42,-7.03 2.43,-2.72 7.08,-2.72 v 0 q 1.7,0 3.22,0.62 1.53,0.63 2.73,1.78 v 0 l -0.1,-2 h 3.5 V 10.5 Z m 0,-25.45 q -0.1,-3.25 -1.85,-4.63 -1.75,-1.37 -4.1,-1.37 v 0 q -2.25,0 -3.98,1.42 -1.72,1.43 -1.72,4.98 v 0 7.15 q 0,2.75 1.57,4.2 1.58,1.45 4.13,1.45 v 0 q 2.85,0 4.4,-1.48 1.55,-1.47 1.55,-4.37 v 0 z M 358.01,0 v -1.85 q -1.05,1.15 -2.6,1.77 -1.55,0.63 -3.2,0.63 v 0 q -9.4,0 -9.4,-9.15 v 0 -16.45 h 3.6 V -8.6 q 0,2.9 1.5,4.32 1.5,1.43 4.3,1.43 v 0 q 5.65,0 5.65,-5.8 v 0 -16.4 h 3.6 V 0 Z m 23.84,-1.75 q -1.8,1.15 -4.1,1.75 -2.3,0.6 -4.6,0.6 v 0 q -3.7,0 -5.87,-1.83 -2.18,-1.82 -2.18,-5.47 v 0 -10.25 q 0,-4.05 2.53,-6.3 2.52,-2.25 6.67,-2.25 v 0 q 4.15,0 6.48,2.22 2.32,2.23 2.32,6.18 v 0 6.85 l -14.4,0.75 v 2.6 q 0,2.1 1.3,3.15 1.3,1.05 3.55,1.05 v 0 q 3.25,0 6.95,-2 v 0 z m -2.4,-15.55 q 0,-2.65 -1.65,-3.78 -1.65,-1.12 -3.55,-1.12 v 0 q -2.5,0 -4.02,1.35 -1.53,1.35 -1.53,3.95 v 0 4 l 10.75,-0.55 z M 388.1,0 v -25.05 h 3.5 v 1.3 q 2.35,-1.75 5.55,-1.75 v 0 q 1.6,0 3.9,0.5 v 0 l -0.9,3.4 q -1.5,-0.55 -3.15,-0.55 v 0 q -2.2,0 -3.75,0.92 -1.55,0.93 -1.55,2.68 v 0 V 0 Z"
                                 opacity="1"
                                 fill="#ffffff"
                                 class="slogan-text-1"
                                 data-fill-palette-color="secondary"
                                 id="text-1" />
                            </svg>
                          </g>
                        </svg>
                      </g>
                    </svg>
                  </g>
                </svg>
              </g>
              <g
                 transform="translate(411.12021,0.64454093)"
                 id="g12">
                <svg
                   viewBox="0 0 107.24426 107.24426"
                   height="107.24426"
                   width="107.24426"
                   version="1.1"
                   id="svg12">
                  <g
                     id="g6">
                    <svg
                       version="1.1"
                       id="svg6"
                       width="100%"
                       height="100%" />
                  </g>
                  <g
                     id="icon-0">
                    <svg
                       viewBox="0 0 107.24426 107.24426"
                       height="107.24426"
                       width="107.24426"
                       version="1.1"
                       id="svg11">
                      <g
                         id="g7">
                        <rect
                           width="97.512833"
                           height="97.512833"
                           x="4.8657117"
                           y="4.8657117"
                           fill="#ffffff"
                           data-fill-palette-color="accent"
                           id="rect6" />
                        <rect
                           width="97.512833"
                           height="97.512833"
                           x="-2.6645353e-15"
                           y="-2.6645353e-15"
                           fill="#ffffff"
                           opacity="0.5"
                           data-fill-palette-color="accent"
                           id="rect7" />
                      </g>
                      <g
                         transform="translate(13.902034,35.521847)"
                         id="g11">
                        <svg
                           viewBox="0 0 79.440192 36.200566"
                           height="36.200565"
                           width="79.440193"
                           version="1.1"
                           id="svg10">
                          <g
                             id="g10">
                            <svg
                               version="1.1"
                               x="0"
                               y="0"
                               viewBox="5 29.493874 90 41.012627"
                               enable-background="new 0 0 100 100"
                               xml:space="preserve"
                               height="36.200565"
                               width="79.440193"
                               class="icon-s-0"
                               data-fill-palette-color="background"
                               id="s-0"><g
                                 fill="#3A1D83"
                                 data-fill-palette-color="background"
                                 id="g9"><path
                                   d="M 23.943,30.807 5,50.001 23.942,69.193 c 1.728,1.751 4.53,1.751 6.258,0.002 1.729,-1.75 1.73,-4.587 0.002,-6.338 L 18.193,50.695 14.569,52.984 30.203,37.143 c 0.864,-0.875 1.295,-2.021 1.295,-3.168 0,-1.147 -0.433,-2.295 -1.297,-3.17 -1.728,-1.749 -4.53,-1.748 -6.258,0.002 z"
                                   fill="#3A1D83"
                                   data-fill-palette-color="background"
                                   id="path7" /><path
                                   d="M 76.057,30.808 95,50.001 76.058,69.193 c -1.728,1.751 -4.53,1.751 -6.258,0.002 -1.729,-1.75 -1.73,-4.587 -0.002,-6.338 L 81.807,50.696 85.431,52.985 69.796,37.144 c -0.864,-0.875 -1.295,-2.021 -1.295,-3.168 0,-1.147 0.433,-2.295 1.297,-3.17 1.729,-1.75 4.531,-1.749 6.259,0.002 z"
                                   fill="#3A1D83"
                                   data-fill-palette-color="background"
                                   id="path8" /><path
                                   d="m 60.899,32.352 c -0.419,-1.068 -1.241,-1.978 -2.366,-2.476 -2.249,-0.997 -4.857,0.028 -5.825,2.288 l -13.82,32.062 c -0.484,1.13 -0.467,2.355 -0.048,3.422 0.419,1.068 1.241,1.978 2.366,2.476 2.249,0.997 4.857,-0.028 5.825,-2.288 l 13.82,-32.062 c 0.484,-1.13 0.467,-2.355 0.048,-3.422 z"
                                   fill="#3A1D83"
                                   data-fill-palette-color="background"
                                   id="path9" /></g></svg>
                          </g>
                        </svg>
                      </g>
                    </svg>
                  </g>
                </svg>
              </g>
            </svg>
          </g>
          <defs
             id="defs13" />
        </svg>
        <rect
           width="395.51999"
           height="82.812592"
           fill="none"
           stroke="none"
           visibility="hidden"
           id="rect14"
           x="0"
           y="0" />
      </g>
    </svg>
  </g>
</svg>
