<svg xmlns="http://www.w3.org/2000/svg"  viewBox="0 0 100 100" width="100px" height="100px"><path fill="#f1bc19" d="M77 12A1 1 0 1 0 77 14A1 1 0 1 0 77 12Z"/><path fill="#e4e4f9" d="M50 13A37 37 0 1 0 50 87A37 37 0 1 0 50 13Z"/><path fill="#f1bc19" d="M83 11A4 4 0 1 0 83 19A4 4 0 1 0 83 11Z"/><path fill="#8889b9" d="M87 22A2 2 0 1 0 87 26A2 2 0 1 0 87 22Z"/><path fill="#fbcd59" d="M81 74A2 2 0 1 0 81 78 2 2 0 1 0 81 74zM15 59A4 4 0 1 0 15 67 4 4 0 1 0 15 59z"/><path fill="#8889b9" d="M25 85A2 2 0 1 0 25 89A2 2 0 1 0 25 85Z"/><path fill="#fff" d="M79.5 32A1.5 1.5 0 1 0 79.5 35A1.5 1.5 0 1 0 79.5 32Z"/><path fill="#f15b6c" d="M35,72.3c-4.025,0-7.3-3.274-7.3-7.3V35c0-4.025,3.274-7.3,7.3-7.3h30c4.025,0,7.3,3.274,7.3,7.3 v30c0,4.025-3.274,7.3-7.3,7.3H35z"/><path fill="#472b29" d="M65,28.4c3.639,0,6.6,2.961,6.6,6.6v30c0,3.639-2.961,6.6-6.6,6.6H35c-3.639,0-6.6-2.961-6.6-6.6 V35c0-3.639,2.961-6.6,6.6-6.6H65 M65,27H35c-4.4,0-8,3.6-8,8v30c0,4.4,3.6,8,8,8h30c4.4,0,8-3.6,8-8V35C73,30.6,69.4,27,65,27 L65,27z"/><path fill="#fefdef" d="M62.391,69H37.609C33.974,69,31,66.026,31,62.391V37.609C31,33.974,33.974,31,37.609,31h24.783 C66.026,31,69,33.974,69,37.609v24.783C69,66.026,66.026,69,62.391,69z"/><g><path fill="#472b29" d="M68.5,47.375c-0.276,0-0.5-0.224-0.5-0.5V43c0-0.276,0.224-0.5,0.5-0.5S69,42.724,69,43v3.875 C69,47.151,68.776,47.375,68.5,47.375z"/></g><g><path fill="#472b29" d="M68.5,40.5c-0.276,0-0.5-0.224-0.5-0.5v-2c0-0.276,0.224-0.5,0.5-0.5S69,37.724,69,38v2 C69,40.276,68.776,40.5,68.5,40.5z"/></g><g><path fill="#472b29" d="M64,69H36c-2.757,0-5-2.243-5-5V36c0-2.757,2.243-5,5-5h25.375c0.276,0,0.5,0.224,0.5,0.5 s-0.224,0.5-0.5,0.5H36c-2.206,0-4,1.794-4,4v28c0,2.206,1.794,4,4,4h28c2.206,0,4-1.794,4-4V49.625c0-0.276,0.224-0.5,0.5-0.5 s0.5,0.224,0.5,0.5V64C69,66.757,66.757,69,64,69z"/></g><g><path fill="#e1e0d8" d="M55 38L46 43 37 38 37 56 46 61 55 56 63.5 61 63.5 43z"/><path fill="#472b29" d="M64,61.874l-9.007-5.298L46,61.572l-9.5-5.278V37.15l9.5,5.277l9.007-5.004L64,42.714V61.874z M37.5,55.706l8.5,4.722l9.007-5.004L63,60.126v-16.84l-8.007-4.71L46,43.572l-8.5-4.723V55.706z"/></g><g><path fill="#cbc9bc" d="M46 43L55 38 55 56 46 61z"/><path fill="#472b29" d="M46,61.5c-0.088,0-0.176-0.023-0.254-0.069C45.594,61.341,45.5,61.177,45.5,61V43 c0-0.182,0.099-0.349,0.257-0.438l9-5c0.156-0.086,0.344-0.083,0.497,0.007C55.406,37.659,55.5,37.823,55.5,38v18 c0,0.182-0.099,0.349-0.257,0.438l-9,5C46.167,61.479,46.084,61.5,46,61.5z M46.5,43.294V60.15l8-4.444V38.85L46.5,43.294z"/></g><g><path fill="#472b29" d="M41.486 46.072c-.092 0-.18-.051-.224-.138-.062-.124-.012-.273.111-.336.309-.154.646-.271 1.001-.344.141-.021.268.06.296.194.027.136-.06.268-.194.296-.313.064-.608.165-.878.301C41.563 46.063 41.524 46.072 41.486 46.072zM45.446 55.749c-.135 0-.246-.107-.25-.243-.004-.138.105-.253.243-.257.608-.017 1.18-.204 1.747-.575.114-.076.27-.044.346.072.076.115.043.271-.072.346-.639.417-1.313.639-2.007.657C45.451 55.749 45.448 55.749 45.446 55.749zM43.463 55.491c-.022 0-.046-.003-.069-.01-.686-.198-1.314-.509-1.869-.923-.11-.082-.134-.239-.051-.35.083-.108.239-.131.35-.051.507.378 1.082.661 1.709.843.133.038.209.177.171.31C43.671 55.42 43.571 55.491 43.463 55.491zM48.791 53.774c-.057 0-.113-.02-.16-.059-.106-.088-.12-.246-.031-.352.362-.435.73-.943 1.157-1.603.076-.117.229-.148.346-.074.116.075.149.23.074.346-.438.677-.818 1.201-1.194 1.651C48.934 53.744 48.862 53.774 48.791 53.774zM40.315 53.146c-.082 0-.163-.041-.211-.115-.375-.586-.647-1.23-.811-1.917-.032-.134.051-.269.186-.301.139-.034.269.051.301.186.15.631.401 1.224.746 1.763.074.116.04.271-.076.346C40.408 53.134 40.361 53.146 40.315 53.146zM51.02 50.435c-.044 0-.089-.012-.129-.036-.118-.071-.156-.225-.085-.343.393-.652.721-1.193 1.065-1.715.078-.117.233-.145.347-.071.115.076.147.231.071.347-.34.515-.666 1.05-1.056 1.697C51.187 50.392 51.104 50.435 51.02 50.435zM39.41 49.313c-.009 0-.019-.001-.028-.002-.137-.016-.235-.139-.22-.276.083-.733.312-1.422.659-1.993.073-.12.228-.155.344-.084.118.072.155.227.084.344-.312.51-.516 1.129-.591 1.79C39.644 49.22 39.536 49.313 39.41 49.313zM53.305 47.139c-.063 0-.128-.024-.177-.073-.098-.098-.098-.256 0-.354.465-.466 1.113-.84 1.827-1.054.137-.04.272.036.312.168.04.132-.035.271-.168.311-.626.188-1.216.526-1.617.929C53.433 47.114 53.369 47.139 53.305 47.139zM58.733 47.015c-.066 0-.132-.026-.182-.078-.44-.465-.977-.767-1.592-.898-.136-.028-.222-.161-.192-.296.028-.136.159-.221.296-.192.717.152 1.34.503 1.852 1.043.095.1.091.258-.01.354C58.857 46.992 58.795 47.015 58.733 47.015zM60 49.75c-.117 0-.223-.083-.245-.202-.064-.328-.146-.644-.246-.938-.044-.131.026-.273.157-.317.132-.042.273.026.317.157.105.315.194.652.262 1.002.026.136-.062.267-.197.293C60.031 49.749 60.016 49.75 60 49.75z"/></g><g><path fill="#f15b6c" d="M58.5 50.439L61.061 53"/><path fill="#ee3e54" d="M61.061,53.25c-0.064,0-0.128-0.024-0.177-0.073l-2.561-2.561c-0.098-0.098-0.098-0.256,0-0.354 s0.256-0.098,0.354,0l2.561,2.561c0.098,0.098,0.098,0.256,0,0.354C61.188,53.226,61.125,53.25,61.061,53.25z"/></g><g><path fill="#f15b6c" d="M58.5 53L61.061 50.439"/><path fill="#ee3e54" d="M58.5,53.25c-0.064,0-0.128-0.024-0.177-0.073c-0.098-0.098-0.098-0.256,0-0.354l2.561-2.561 c0.098-0.098,0.256-0.098,0.354,0s0.098,0.256,0,0.354l-2.561,2.561C58.628,53.226,58.564,53.25,58.5,53.25z"/></g></svg>