<?xml version="1.0" encoding="utf-8"?>
<!-- Generator: Adobe Illustrator 25.3.1, SVG Export Plug-In . SVG Version: 6.00 Build 0)  -->
<svg version="1.1" xmlns="http://www.w3.org/2000/svg" xmlns:xlink="http://www.w3.org/1999/xlink" x="0px" y="0px"
	 viewBox="0 0 512 512" enable-background="new 0 0 512 512" xml:space="preserve">
<g id="_x33_0_1_">
</g>
<g id="_x32_9">
</g>
<g id="_x32_8">
</g>
<g id="_x32_7">
</g>
<g id="_x32_6">
</g>
<g id="_x32_5">
</g>
<g id="_x32_4">
</g>
<g id="_x32_3">
</g>
<g id="_x32_2">
</g>
<g id="_x32_1">
</g>
<g id="_x32_0">
</g>
<g id="_x31_9">
</g>
<g id="_x31_8">
</g>
<g id="_x31_7">
</g>
<g id="_x31_6">
</g>
<g id="_x31_5">
</g>
<g id="_x31_4">
</g>
<g id="_x31_3">
</g>
<g id="_x31_2">
</g>
<g id="_x31_1">
	<g>
		<g>
			<path fill="#FACB7F" d="M67.5,466h377c22.1,0,40-17.9,40-40V146h-457v280C27.5,448.1,45.4,466,67.5,466z"/>
		</g>
		<g>
			<path fill="#F9C36D" d="M107.5,426V146h-80v280c0,22.1,17.9,40,40,40h80C125.4,466,107.5,448.1,107.5,426z"/>
		</g>
		<g>
			<path fill="#FBD599" d="M484.5,46H316l-60,28.4L196,46H27.5c-11,0-20,9-20,20v80c0,11,9,20,20,20h457c11,0,20-9,20-20V66
				C504.5,55,495.5,46,484.5,46z"/>
		</g>
		<g>
			<path fill="#FACB7F" d="M87.5,146V66c0-11,9-20,20-20h-80c-11,0-20,9-20,20v80c0,11,9,20,20,20h80C96.5,166,87.5,157,87.5,146z"
				/>
		</g>
		<g>
			<path fill="#FCEFD8" d="M211.5,218.7l8.9-5.9c3.4-2.2,7.7-2.2,11.1,0l16.1,10.8c5,3.4,11.6,3.4,16.6,0l16.1-10.8
				c3.4-2.2,7.7-2.2,11.1,0l8.9,5.9c6.6,4.4,15.5-0.3,15.5-8.3V46H196v164.3C196,218.3,204.9,223.1,211.5,218.7z"/>
		</g>
		<g>
			<path fill="#F8E0BE" d="M271.5,218.7c-6.6,4.4-15.5-0.3-15.5-8.3V46h-60v164.3c0,8,8.9,12.8,15.5,8.3l8.9-5.9
				c3.4-2.2,7.7-2.2,11.1,0l16.1,10.8c5,3.4,11.6,3.4,16.6,0L271.5,218.7z"/>
		</g>
		<g>
			<path fill="#FCEFD8" d="M364.5,426h60c11,0,20-9,20-20v-60c0-11-9-20-20-20h-60c-11,0-20,9-20,20v60
				C344.5,417,353.5,426,364.5,426z"/>
		</g>
		<g>
			<path fill="#F8E0BE" d="M384.5,406v-60c0-11,9-20,20-20h-40c-11,0-20,9-20,20v60c0,11,9,20,20,20h40
				C393.5,426,384.5,417,384.5,406z"/>
		</g>
		<g>
			<path fill="#FCEFD8" d="M344.5,266L344.5,266c0,11,9,20,20,20h60c11,0,20-9,20-20v0c0-11-9-20-20-20h-60
				C353.5,246,344.5,255,344.5,266z"/>
		</g>
		<g>
			<path fill="#F8E0BE" d="M384.5,266c0-11,9-20,20-20h-40c-11,0-20,9-20,20s9,20,20,20h40C393.5,286,384.5,277,384.5,266z"/>
		</g>
		<g>
			<path d="M484.5,38.5h-457C12.3,38.5,0,50.8,0,66v80c0,12.6,8.5,23.2,20,26.5v131c0,4.1,3.4,7.5,7.5,7.5s7.5-3.4,7.5-7.5v-130
				h153.5v36.8c0,6.5,3.5,12.4,9.2,15.4c5.7,3.1,12.6,2.7,18-0.9l8.9-5.9c0.8-0.6,1.9-0.6,2.8,0l16.1,10.8c3.8,2.5,8.1,3.8,12.5,3.8
				c4.3,0,8.7-1.3,12.5-3.8l16.1-10.8c0.8-0.6,1.9-0.6,2.8,0l8.9,5.9c5.4,3.6,12.3,3.9,18,0.9c5.7-3.1,9.2-9,9.2-15.4v-36.8h41
				c4.1,0,7.5-3.4,7.5-7.5s-3.4-7.5-7.5-7.5h-41v-105h161c6.9,0,12.5,5.6,12.5,12.5v80c0,6.9-5.6,12.5-12.5,12.5h-60
				c-4.1,0-7.5,3.4-7.5,7.5s3.4,7.5,7.5,7.5H477V426c0,17.9-14.6,32.5-32.5,32.5h-377C49.6,458.5,35,443.9,35,426v-62.5
				c0-4.1-3.4-7.5-7.5-7.5s-7.5,3.4-7.5,7.5V426c0,26.2,21.3,47.5,47.5,47.5h377c26.2,0,47.5-21.3,47.5-47.5V172.5
				c11.5-3.3,20-13.9,20-26.5V66C512,50.8,499.7,38.5,484.5,38.5z M308.5,210.3c0,1.3-0.8,1.9-1.3,2.2c-0.5,0.3-1.5,0.6-2.6-0.1
				l-8.9-5.9c-5.9-3.9-13.5-3.9-19.4,0l-16.1,10.8c-2.5,1.7-5.8,1.7-8.3,0l-16.1-10.8c-5.9-3.9-13.5-3.9-19.4,0l-8.9,5.9
				c-1.1,0.7-2.1,0.4-2.6,0.1c-0.5-0.3-1.3-0.9-1.3-2.2V121c0-4.1-3.4-7.5-7.5-7.5s-7.5,3.4-7.5,7.5v37.5h-161
				c-6.9,0-12.5-5.6-12.5-12.5V66c0-6.9,5.6-12.5,12.5-12.5h161V91c0,4.1,3.4,7.5,7.5,7.5s7.5-3.4,7.5-7.5V53.5h105V210.3z"/>
			<path d="M344.5,383.5c-4.1,0-7.5,3.4-7.5,7.5v15c0,15.2,12.3,27.5,27.5,27.5h60c15.2,0,27.5-12.3,27.5-27.5v-60
				c0-15.2-12.3-27.5-27.5-27.5h-60c-15.2,0-27.5,12.3-27.5,27.5v15c0,4.1,3.4,7.5,7.5,7.5s7.5-3.4,7.5-7.5v-15
				c0-6.9,5.6-12.5,12.5-12.5h60c6.9,0,12.5,5.6,12.5,12.5v60c0,6.9-5.6,12.5-12.5,12.5h-60c-6.9,0-12.5-5.6-12.5-12.5v-15
				C352,386.9,348.6,383.5,344.5,383.5z"/>
			<path d="M337,266c0,15.2,12.3,27.5,27.5,27.5h60c15.2,0,27.5-12.3,27.5-27.5s-12.3-27.5-27.5-27.5h-60
				C349.3,238.5,337,250.8,337,266z M437,266c0,6.9-5.6,12.5-12.5,12.5h-60c-6.9,0-12.5-5.6-12.5-12.5s5.6-12.5,12.5-12.5h60
				C431.4,253.5,437,259.1,437,266z"/>
			<path d="M75,341h100c4.1,0,7.5-3.4,7.5-7.5s-3.4-7.5-7.5-7.5H75c-4.1,0-7.5,3.4-7.5,7.5S70.9,341,75,341z"/>
			<path d="M75,426h50c4.1,0,7.5-3.4,7.5-7.5s-3.4-7.5-7.5-7.5H75c-4.1,0-7.5,3.4-7.5,7.5S70.9,426,75,426z"/>
			<path d="M75,383.5h100c4.1,0,7.5-3.4,7.5-7.5s-3.4-7.5-7.5-7.5H75c-4.1,0-7.5,3.4-7.5,7.5S70.9,383.5,75,383.5z"/>
			<circle cx="394.5" cy="166" r="7.5"/>
			<circle cx="27.5" cy="333.5" r="7.5"/>
		</g>
	</g>
</g>
<g id="_x31_0">
</g>
<g id="_x30_9">
</g>
<g id="_x30_8">
</g>
<g id="_x30_7">
</g>
<g id="_x30_6">
</g>
<g id="_x30_5">
</g>
<g id="_x30_4">
</g>
<g id="_x30_3">
</g>
<g id="_x30_2">
</g>
<g id="_x30_1">
</g>
</svg>
