<svg xmlns="http://www.w3.org/2000/svg"  viewBox="0 0 100 100" width="100px" height="100px"><path fill="#ee3e54" d="M12.875,27.958c-1.105,0-2,0.895-2,2s0.895,2,2,2s2-0.895,2-2S13.98,27.958,12.875,27.958z"/><path fill="#f1bc19" d="M76.875,12.958c-0.551,0-1,0.449-1,1s0.449,1,1,1s1-0.449,1-1S77.426,12.958,76.875,12.958z"/><path fill="#fce0a2" d="M49.875,13.958c-20.434,0-37,16.566-37,37s16.566,37,37,37s37-16.566,37-37 S70.309,13.958,49.875,13.958z"/><path fill="#f1bc19" d="M82.875,11.958c-2.211,0-4,1.789-4,4s1.789,4,4,4s4-1.789,4-4S85.086,11.958,82.875,11.958z"/><path fill="#ee3e54" d="M86.875,22.958c-1.105,0-2,0.895-2,2s0.895,2,2,2s2-0.895,2-2S87.98,22.958,86.875,22.958z"/><path fill="#fbcd59" d="M80.875,74.958c-1.105,0-2,0.895-2,2s0.895,2,2,2s2-0.895,2-2S81.98,74.958,80.875,74.958z M14.875,59.958c-2.211,0-4,1.789-4,4c0,2.211,1.789,4,4,4s4-1.789,4-4C18.875,61.747,17.086,59.958,14.875,59.958z"/><path fill="#ee3e54" d="M24.875,85.958c-1.105,0-2,0.895-2,2s0.895,2,2,2s2-0.895,2-2S25.98,85.958,24.875,85.958z"/><path fill="#fff" d="M17.375,42.958c-1.379,0-2.5,1.121-2.5,2.5s1.121,2.5,2.5,2.5s2.5-1.121,2.5-2.5 S18.754,42.958,17.375,42.958z"/><path fill="#f1bc19" d="M20.875,65.958c-0.551,0-1,0.449-1,1s0.449,1,1,1s1-0.449,1-1S21.426,65.958,20.875,65.958z"/><path fill="#fff" d="M81.875,37.958c-0.551,0-1,0.449-1,1s0.449,1,1,1s1-0.449,1-1S82.426,37.958,81.875,37.958z"/><path fill="#8889b9" d="M73.73,68.363L52.586,25.616c-1.066-2.154-4.107-2.154-5.172,0L26.27,68.363 c-0.989,2,0.907,4.21,3.005,3.503L50,64.882l20.725,6.983C72.823,72.572,74.719,70.362,73.73,68.363z"/><path fill="#a2b3cb" d="M50,24c-1.027,0-2.053,0.539-2.586,1.616L26.27,68.363c-0.989,2,0.907,4.209,3.005,3.502L50,64.882 V24z"/><g><path fill="#472b29" d="M50,25.4c0.574,0,1.072,0.313,1.331,0.836l21.144,42.747c0.243,0.492,0.076,0.892-0.045,1.087 c-0.203,0.326-0.548,0.529-0.902,0.529c-0.116,0-0.236-0.021-0.357-0.062l-20.725-6.983L50,63.405l-0.447,0.151l-20.725,6.983 c-0.121,0.041-0.241,0.062-0.357,0.062c-0.353,0-0.699-0.203-0.902-0.53c-0.121-0.195-0.288-0.596-0.045-1.087l21.144-42.747 C48.928,25.713,49.426,25.4,50,25.4 M50,24c-1.027,0-2.053,0.539-2.586,1.616L26.27,68.363C25.41,70.102,26.732,72,28.471,72 c0.261,0,0.53-0.042,0.804-0.135L50,64.882l20.725,6.983C70.998,71.958,71.268,72,71.529,72c1.739,0,3.062-1.898,2.201-3.637 L52.586,25.616C52.053,24.539,51.027,24,50,24L50,24z"/></g><g><path fill="#472b29" d="M50,35.458c-0.276,0-0.5-0.224-0.5-0.5V24.833c0-0.276,0.224-0.5,0.5-0.5s0.5,0.224,0.5,0.5v10.125 C50.5,35.234,50.276,35.458,50,35.458z"/></g><g><path fill="#472b29" d="M50,44.5c-0.276,0-0.5-0.224-0.5-0.5v-6.375c0-0.276,0.224-0.5,0.5-0.5s0.5,0.224,0.5,0.5V44 C50.5,44.276,50.276,44.5,50,44.5z"/></g><g><path fill="#472b29" d="M50,64.542c-0.276,0-0.5-0.224-0.5-0.5V46.917c0-0.276,0.224-0.5,0.5-0.5s0.5,0.224,0.5,0.5v17.125 C50.5,64.318,50.276,64.542,50,64.542z"/></g><g><path fill="#472b29" d="M68.625,67.25c-0.027,0-0.055-0.004-0.081-0.013L54.211,62.32c-0.131-0.045-0.2-0.187-0.155-0.318 c0.045-0.131,0.19-0.198,0.317-0.156l13.76,4.72l-1.802-3.651c-0.061-0.124-0.01-0.274,0.114-0.335 c0.123-0.061,0.273-0.01,0.335,0.114l2.069,4.195c0.044,0.091,0.03,0.2-0.037,0.276C68.765,67.22,68.695,67.25,68.625,67.25z"/></g><g><path fill="#472b29" d="M65.517,60.95c-0.092,0-0.181-0.051-0.225-0.139l-2.664-5.398c-0.061-0.124-0.01-0.274,0.114-0.335 c0.123-0.061,0.273-0.01,0.335,0.114l2.664,5.398c0.061,0.124,0.01,0.274-0.114,0.335C65.592,60.942,65.554,60.95,65.517,60.95z"/></g><g><path fill="#472b29" d="M61.55,52.913c-0.092,0-0.181-0.051-0.225-0.139l-2.342-4.746c-0.061-0.124-0.01-0.274,0.114-0.335 c0.123-0.061,0.273-0.01,0.335,0.114l2.342,4.746c0.061,0.124,0.01,0.274-0.114,0.335C61.625,52.904,61.587,52.913,61.55,52.913z"/></g><g><path fill="#472b29" d="M39.037,51.801c-0.037,0-0.075-0.008-0.11-0.026c-0.124-0.061-0.175-0.211-0.114-0.334l4.621-9.41 c0.062-0.124,0.211-0.174,0.335-0.114c0.124,0.061,0.175,0.211,0.114,0.334l-4.621,9.41C39.218,51.75,39.129,51.801,39.037,51.801z"/></g><g><path fill="#472b29" d="M32.188,65.75c-0.037,0-0.075-0.008-0.11-0.026c-0.124-0.061-0.175-0.211-0.114-0.334l5.569-11.34 c0.061-0.124,0.211-0.175,0.335-0.114c0.124,0.061,0.175,0.211,0.114,0.334l-5.569,11.34C32.369,65.699,32.28,65.75,32.188,65.75z"/></g></svg>