<?xml version="1.0" encoding="utf-8"?>
<!-- Generator: Adobe Illustrator 22.0.0, SVG Export Plug-In . SVG Version: 6.00 Build 0)  -->
<svg version="1.1" id="Layer_1" xmlns="http://www.w3.org/2000/svg" xmlns:xlink="http://www.w3.org/1999/xlink" x="0px" y="0px"
	 viewBox="0 0 500 500" style="enable-background:new 0 0 500 500;" xml:space="preserve">
<style type="text/css">
	.st0{fill:#C9C9C9;}
	.st1{fill:#A0A0A0;}
	.st2{fill:#71CCFF;}
	.st3{fill:#231F20;}
	.st4{fill:#F9F9F9;}
	.st5{fill:#7A7979;}
	.st6{fill:#4C4C4C;}
	.st7{fill:#F9B630;}
	.st8{fill:#D88A0E;}
	.st9{fill:#FFEDCC;}
	.st10{fill:#C0E7F9;}
	.st11{fill:#08B26C;}
	.st12{fill:#15A9EA;}
	.st13{fill:none;stroke:#C9C9C9;stroke-width:10;stroke-linecap:round;stroke-linejoin:round;stroke-miterlimit:10;}
	.st14{fill:none;stroke:#231F20;stroke-width:10;stroke-linecap:round;stroke-linejoin:round;stroke-miterlimit:10;}
	.st15{fill:#FFFFFF;}
	.st16{fill:#35EF9F;}
	.st17{fill:#22A6E0;}
	.st18{fill:#FC3A6D;}
	.st19{fill:#FFA9C8;}
	.st20{fill:#038E52;}
	.st21{fill:#E2074B;}
</style>
<g>
	<g>
		<path class="st11" d="M455,356c0,11-9,20-20,20H65c-11,0-20-9-20-20V65c0-11,9-20,20-20h370c11,0,20,9,20,20V356z"/>
	</g>
</g>
<g>
	<g>
		<path class="st5" d="M455,5H45C22.9,5,5,22.9,5,45v410c0,22.1,17.9,40,40,40h410c22.1,0,40-17.9,40-40V45C495,22.9,477.1,5,455,5z
			 M455,356c0,11-9,20-20,20H65c-11,0-20-9-20-20V65c0-11,9-20,20-20h370c11,0,20,9,20,20V356z"/>
	</g>
</g>
<g>
	<g>
		<path class="st0" d="M25,91.9c-2.8,0-5-2.2-5-5V75.4c0-2.8,2.2-5,5-5s5,2.2,5,5v11.5C30,89.7,27.8,91.9,25,91.9z"/>
	</g>
</g>
<g>
	<g>
		<path class="st0" d="M187.9,480H50c-16.5,0-30-13.5-30-30V123.9c0-2.8,2.2-5,5-5s5,2.2,5,5V450c0,11,9,20,20,20h137.9
			c2.8,0,5,2.2,5,5C192.9,477.8,190.6,480,187.9,480z"/>
	</g>
</g>
<g>
	<g>
		<path class="st3" d="M455,500H45c-24.8,0-45-20.2-45-45V265.3c0-2.8,2.2-5,5-5s5,2.2,5,5V455c0,19.3,15.7,35,35,35h410
			c19.3,0,35-15.7,35-35V45c0-19.3-15.7-35-35-35H45c-19.3,0-35,15.7-35,35v26.5c0,2.8-2.2,5-5,5s-5-2.2-5-5V45C0,20.2,20.2,0,45,0
			h410c24.8,0,45,20.2,45,45v410C500,479.8,479.8,500,455,500z"/>
	</g>
</g>
<g>
	<g>
		<path class="st3" d="M5,241.7c-2.8,0-5-2.2-5-5V135c0-2.8,2.2-5,5-5s5,2.2,5,5v101.7C10,239.5,7.8,241.7,5,241.7z"/>
	</g>
</g>
<g>
	<g>
		<path class="st3" d="M5,116.5c-2.8,0-5-2.2-5-5v-10c0-2.8,2.2-5,5-5s5,2.2,5,5v10C10,114.3,7.8,116.5,5,116.5z"/>
	</g>
</g>
<g>
	<g>
		<path class="st3" d="M435,381H65c-13.8,0-25-11.2-25-25V65c0-13.8,11.2-25,25-25h370c13.8,0,25,11.2,25,25v291
			C460,369.8,448.8,381,435,381z M65,50c-8.3,0-15,6.7-15,15v291c0,8.3,6.7,15,15,15h370c8.3,0,15-6.7,15-15V65c0-8.3-6.7-15-15-15
			H65z"/>
	</g>
</g>
<g>
	<g>
		<circle class="st7" cx="250" cy="435.3" r="27.1"/>
	</g>
</g>
<g>
	<g>
		<path class="st3" d="M250,467.3c-17.7,0-32.1-14.4-32.1-32.1s14.4-32.1,32.1-32.1s32.1,14.4,32.1,32.1S267.7,467.3,250,467.3z
			 M250,413.2c-12.2,0-22.1,9.9-22.1,22.1s9.9,22.1,22.1,22.1s22.1-9.9,22.1-22.1S262.2,413.2,250,413.2z"/>
	</g>
</g>
<g>
	<g>
		<path class="st0" d="M106.2,455.3h58.6c11.1,0,20.1-9,20.1-20.1v0c0-11.1-9-20.1-20.1-20.1h-58.6c-11.1,0-20.1,9-20.1,20.1v0
			C86.1,446.4,95.1,455.3,106.2,455.3z"/>
	</g>
</g>
<g>
	<g>
		<path class="st0" d="M335.2,455.3h58.6c11.1,0,20.1-9,20.1-20.1v0c0-11.1-9-20.1-20.1-20.1h-58.6c-11.1,0-20.1,9-20.1,20.1v0
			C315.1,446.4,324.1,455.3,335.2,455.3z"/>
	</g>
</g>
<g>
	<g>
		<path class="st3" d="M164.8,460.3h-58.6c-13.8,0-25.1-11.2-25.1-25.1c0-13.8,11.2-25.1,25.1-25.1h58.6c13.8,0,25.1,11.2,25.1,25.1
			S178.6,460.3,164.8,460.3z M106.2,420.2c-8.3,0-15.1,6.8-15.1,15.1s6.8,15.1,15.1,15.1h58.6c8.3,0,15.1-6.8,15.1-15.1
			c0-8.3-6.8-15.1-15.1-15.1H106.2z"/>
	</g>
</g>
<g>
	<g>
		<path class="st3" d="M393.8,460.3h-58.6c-13.8,0-25.1-11.2-25.1-25.1c0-13.8,11.2-25.1,25.1-25.1h58.6c13.8,0,25.1,11.2,25.1,25.1
			S407.6,460.3,393.8,460.3z M335.2,420.2c-8.3,0-15.1,6.8-15.1,15.1s6.8,15.1,15.1,15.1h58.6c8.3,0,15.1-6.8,15.1-15.1
			c0-8.3-6.8-15.1-15.1-15.1H335.2z"/>
	</g>
</g>
<g>
	<g>
		<path class="st0" d="M386.4,95.7H178.8c-38.3,0-69.5,31.2-69.5,69.5s31.2,69.5,69.5,69.5h5.9v0.1h91c10.5,0,19,8.5,19,19
			c0,10.5-8.5,19-19,19l-104.7-0.1v0.1h-5.9c-38.3,0-69.5,31.2-69.5,69.5V376h50.6v-33.6c0-10.5,8.5-19,19-19h110.6
			c38.3,0,69.5-31.2,69.5-69.5s-31.2-69.5-69.5-69.5h-5.9v-0.1h-91c-10.5,0-19-8.5-19-19s8.5-19,19-19h207.5"/>
	</g>
</g>
<g>
	<g>
		<path class="st1" d="M184.7,234.8v0.1h91c1.6,0,3.1,0.2,4.6,0.6c0.2-1.6,0.4-3.2,0.4-4.8c0-8.9-3.6-17-9.5-22.7
			c-3.1-12.5-13.8-22.1-26.8-23.7h-48.5c-13.1,1.6-23.7,11.2-26.8,23.7c-6,5.8-9.5,13.9-9.5,22.7c0,0.4,0,0.9,0,1.3
			c6.1,1.8,12.6,2.8,19.3,2.8H184.7z"/>
	</g>
</g>
<g>
	<g>
		<path class="st1" d="M386.4,95.7H329c1.6,7.6,4.7,14.9,9.3,21.5l20.2,29.1h27.9V95.7z"/>
	</g>
</g>
<g>
	<g>
		<path class="st3" d="M146.2,381H95.7c-2.8,0-5-2.2-5-5v-33.6c0-41.1,33.4-74.5,74.5-74.5h4.7c0.4-0.1,0.8-0.2,1.2-0.1l104.7,0.1
			c7.7,0,14-6.3,14-14c0-7.7-6.3-14-14-14h-91c-0.4,0-0.8,0-1.2-0.1h-4.7c-41.1,0-74.5-33.4-74.5-74.5c0-41.1,33.4-74.5,74.5-74.5
			h182.7c2.8,0,5,2.2,5,5c0,2.8-2.2,5-5,5H178.8c-35.6,0-64.5,29-64.5,64.5s29,64.5,64.5,64.5h5.9c0.4,0,0.8,0,1.2,0.1h89.8
			c13.2,0,24,10.8,24,24c0,13.2-10.8,24-24,24l-103.5-0.1c-0.4,0.1-0.8,0.1-1.2,0.1h-5.9c-35.6,0-64.5,29-64.5,64.5V371h40.6v-28.6
			c0-13.2,10.8-24,24-24h110.6c35.6,0,64.5-29,64.5-64.5c0-35.6-29-64.5-64.5-64.5h-5.9c-0.4,0-0.8,0-1.2-0.1h-89.8
			c-13.2,0-24-10.8-24-24c0-13.2,10.8-24,24-24h207.5c2.8,0,5,2.2,5,5c0,2.8-2.2,5-5,5H178.8c-7.7,0-14,6.3-14,14
			c0,7.7,6.3,14,14,14h91c0.4,0,0.8,0,1.2,0.1h4.7c41.1,0,74.5,33.4,74.5,74.5c0,41.1-33.4,74.5-74.5,74.5H165.2
			c-7.7,0-14,6.3-14,14V376C151.2,378.8,149,381,146.2,381z"/>
	</g>
</g>
<g>
	<g>
		<path class="st4" d="M115.7,361c-2.8,0-5-2.2-5-5v-13.6c0-30.1,24.5-54.5,54.5-54.5H190c0.4-0.1,0.7-0.1,1.1-0.1l53.4,0.1
			c2.8,0,5,2.2,5,5c0,2.8-2.2,5-5,5c0,0,0,0,0,0l-52.3-0.1c-0.3,0.1-0.7,0.1-1.1,0.1h-25.9c-24.6,0-44.5,20-44.5,44.5V356
			C120.7,358.8,118.4,361,115.7,361z"/>
	</g>
</g>
<g>
	<g>
		<path class="st4" d="M275.8,297.9C275.8,297.9,275.8,297.9,275.8,297.9l-6.8,0c-2.8,0-5-2.2-5-5c0-2.8,2.2-5,5-5c0,0,0,0,0,0
			l6.8,0c2.8,0,5,2.2,5,5C280.8,295.7,278.5,297.9,275.8,297.9z"/>
	</g>
</g>
<g>
	<g>
		<path class="st4" d="M149.7,210.4c-1,0-2.1-0.3-2.9-1c-14.1-10.3-22.5-26.7-22.5-44.1c0-30.1,24.5-54.5,54.5-54.5h114.5
			c2.8,0,5,2.2,5,5c0,2.8-2.2,5-5,5H178.8c-24.6,0-44.5,20-44.5,44.5c0,14.2,6.9,27.6,18.4,36c2.2,1.6,2.7,4.8,1.1,7
			C152.8,209.6,151.3,210.4,149.7,210.4z"/>
	</g>
</g>
<g>
	<g>
		<path class="st4" d="M321.3,120.7h-6.7c-2.8,0-5-2.2-5-5s2.2-5,5-5h6.7c2.8,0,5,2.2,5,5S324.1,120.7,321.3,120.7z"/>
	</g>
</g>
<g>
	<g>
		<path class="st2" d="M165.2,272.9h5.9v-0.1l104.7,0.1c10.5,0,19-8.5,19-19s-8.5-19-19-19h-91v-0.1h-5.9
			c-38.3,0-69.5-31.2-69.5-69.5s31.2-69.5,69.5-69.5h182.7V45H65c-11,0-20,9-20,20v291c0,11,9,20,20,20h30.7v-33.6
			C95.7,304.1,126.9,272.9,165.2,272.9z"/>
	</g>
</g>
<g>
	<g>
		<path class="st3" d="M95.7,381H65c-13.8,0-25-11.2-25-25V65c0-13.8,11.2-25,25-25h296.6c2.8,0,5,2.2,5,5v50.7c0,2.8-2.2,5-5,5
			H178.8c-35.6,0-64.5,29-64.5,64.5c0,35.6,29,64.5,64.5,64.5h5.9c0.4,0,0.8,0,1.2,0.1h89.8c13.2,0,24,10.8,24,24
			c0,13.2-10.8,24-24,24l-103.5-0.1c-0.4,0.1-0.8,0.1-1.2,0.1h-5.9c-35.6,0-64.5,29-64.5,64.5V376C100.7,378.8,98.4,381,95.7,381z
			 M65,50c-8.3,0-15,6.7-15,15v291c0,8.3,6.7,15,15,15h25.7v-28.6c0-41.1,33.4-74.5,74.5-74.5h4.7c0.4-0.1,0.8-0.2,1.2-0.1
			l104.7,0.1c7.7,0,14-6.3,14-14c0-7.7-6.3-14-14-14h-91c-0.4,0-0.8,0-1.2-0.1h-4.7c-41.1,0-74.5-33.4-74.5-74.5
			s33.4-74.5,74.5-74.5h177.7V50H65z"/>
	</g>
</g>
<g>
	<g>
		<path class="st10" d="M65,75c-2.8,0-5-2.2-5-5v-5c0-2.8,2.2-5,5-5s5,2.2,5,5v5C70,72.8,67.8,75,65,75z"/>
	</g>
</g>
<g>
	<g>
		<path class="st10" d="M65,361c-2.8,0-5-2.2-5-5V92c0-2.8,2.2-5,5-5s5,2.2,5,5v264C70,358.8,67.8,361,65,361z"/>
	</g>
</g>
<g>
	<g>
		<path class="st7" d="M387.5,44.6c-0.4,0-0.8,0-1.1,0c-0.4,0-0.8,0-1.1,0c-30.8,0.8-48.1,35.9-30.5,61.2l26.1,37.6
			c2.7,3.9,8.4,3.9,11.1,0l26.1-37.6C435.6,80.5,418.3,45.4,387.5,44.6z M386.4,100.2c-9.4,0-17.1-7.6-17.1-17.1
			c0-9.4,7.6-17.1,17.1-17.1c9.4,0,17.1,7.6,17.1,17.1C403.4,92.5,395.8,100.2,386.4,100.2z"/>
	</g>
</g>
<g>
	<g>
		<path class="st3" d="M386.4,151.3C386.4,151.3,386.4,151.3,386.4,151.3c-3.9,0-7.5-1.9-9.7-5.1l-26.1-37.6
			c-9.4-13.5-10.6-30.4-3.1-45.2c7.4-14.5,21.4-23.4,37.6-23.9c0.8,0,1.7,0,2.5,0c16.2,0.4,30.2,9.3,37.6,23.9
			c7.5,14.8,6.3,31.7-3.1,45.2L396,146.3C393.8,149.4,390.2,151.3,386.4,151.3z M386.4,49.6c-0.3,0-0.7,0-1,0
			c-12.4,0.3-23.3,7.2-28.9,18.4c-5.8,11.4-4.9,24.5,2.4,35l26.1,37.6c0.5,0.7,1.1,0.8,1.5,0.8l0,0c0.3,0,1-0.1,1.5-0.8l26.1-37.6
			c7.3-10.5,8.2-23.5,2.4-35c-5.7-11.2-16.5-18.1-28.9-18.4l0,0C387,49.6,386.7,49.6,386.4,49.6z"/>
	</g>
</g>
<g>
	<g>
		<path class="st3" d="M386.4,105.2c-12.2,0-22.1-9.9-22.1-22.1S374.2,61,386.4,61s22.1,9.9,22.1,22.1S398.5,105.2,386.4,105.2z
			 M386.4,71c-6.7,0-12.1,5.4-12.1,12.1s5.4,12.1,12.1,12.1s12.1-5.4,12.1-12.1S393,71,386.4,71z"/>
	</g>
</g>
<g>
	<g>
		<path class="st11" d="M210.9,219.3c0.4-1.1,0.6-2.3,0.6-3.6c0-6.5-5.2-11.7-11.7-11.7c-6.5,0-11.7,5.2-11.7,11.7
			c0,1.3,0.2,2.5,0.6,3.6c-5.2,1.2-9.2,5.8-9.2,11.4c0,6.5,5.2,11.7,11.7,11.7c3.4,0,6.5-1.4,8.6-3.8c2.1,2.3,5.2,3.8,8.6,3.8
			c6.5,0,11.7-5.2,11.7-11.7C220.1,225.1,216.2,220.5,210.9,219.3z"/>
	</g>
</g>
<g>
	<g>
		<path class="st11" d="M251.6,219.3c0.4-1.1,0.6-2.3,0.6-3.6c0-6.5-5.2-11.7-11.7-11.7c-6.5,0-11.7,5.2-11.7,11.7
			c0,1.3,0.2,2.5,0.6,3.6c-5.2,1.2-9.2,5.8-9.2,11.4c0,6.5,5.2,11.7,11.7,11.7c3.4,0,6.5-1.4,8.6-3.8c2.1,2.3,5.2,3.8,8.6,3.8
			c6.5,0,11.7-5.2,11.7-11.7C260.7,225.1,256.8,220.5,251.6,219.3z"/>
	</g>
</g>
<g>
	<g>
		<path class="st3" d="M208.4,247.4c-3,0-6-0.8-8.6-2.4c-2.6,1.5-5.5,2.4-8.6,2.4c-9.2,0-16.7-7.5-16.7-16.7
			c0-6.1,3.4-11.7,8.6-14.6c0-0.1,0-0.3,0-0.4c0-9.2,7.5-16.7,16.7-16.7s16.7,7.5,16.7,16.7c0,0.1,0,0.3,0,0.4
			c5.2,2.9,8.6,8.5,8.6,14.6C225.1,239.9,217.6,247.4,208.4,247.4z M199.8,233.7C199.8,233.7,199.8,233.7,199.8,233.7
			c1.4,0,2.7,0.6,3.7,1.6c1.3,1.4,3,2.2,4.9,2.2c3.7,0,6.7-3,6.7-6.7c0-3.1-2.2-5.9-5.2-6.5c-1.4-0.3-2.6-1.2-3.3-2.4
			c-0.7-1.2-0.9-2.7-0.4-4c0.2-0.7,0.3-1.4,0.3-2.1c0-3.7-3-6.7-6.7-6.7s-6.7,3-6.7,6.7c0,0.7,0.1,1.4,0.3,2.1
			c0.4,1.3,0.3,2.8-0.4,4c-0.7,1.2-1.9,2.1-3.3,2.4c-3,0.7-5.2,3.4-5.2,6.5c0,3.7,3,6.7,6.7,6.7c1.9,0,3.6-0.8,4.9-2.2
			C197.1,234.3,198.4,233.7,199.8,233.7z"/>
	</g>
</g>
<g>
	<g>
		<path class="st3" d="M249,247.4c-3,0-6-0.8-8.6-2.4c-2.6,1.5-5.5,2.4-8.6,2.4c-9.2,0-16.7-7.5-16.7-16.7c0-6.1,3.4-11.7,8.6-14.6
			c0-0.1,0-0.3,0-0.4c0-9.2,7.5-16.7,16.7-16.7s16.7,7.5,16.7,16.7c0,0.1,0,0.3,0,0.4c5.2,2.9,8.6,8.5,8.6,14.6
			C265.7,239.9,258.2,247.4,249,247.4z M240.4,233.7c1.4,0,2.7,0.6,3.7,1.6c1.3,1.4,3,2.2,4.9,2.2c3.7,0,6.7-3,6.7-6.7
			c0-3.1-2.2-5.9-5.2-6.5c-1.4-0.3-2.6-1.2-3.3-2.4c-0.7-1.2-0.9-2.7-0.4-4c0.2-0.7,0.3-1.4,0.3-2.1c0-3.7-3-6.7-6.7-6.7
			s-6.7,3-6.7,6.7c0,0.7,0.1,1.4,0.3,2.1c0.4,1.3,0.3,2.8-0.4,4c-0.7,1.2-1.9,2.1-3.3,2.4c-3,0.7-5.2,3.4-5.2,6.5
			c0,3.7,3,6.7,6.7,6.7c1.9,0,3.6-0.8,4.9-2.2C237.7,234.3,239,233.7,240.4,233.7z"/>
	</g>
</g>
<g>
	<g>
		<path class="st3" d="M199.8,277.9c-2.8,0-5-2.2-5-5v-34.2c0-2.8,2.2-5,5-5s5,2.2,5,5v34.2C204.8,275.6,202.6,277.9,199.8,277.9z"
			/>
	</g>
</g>
<g>
	<g>
		<path class="st3" d="M240.4,277.9c-2.8,0-5-2.2-5-5v-34.2c0-2.8,2.2-5,5-5s5,2.2,5,5v34.2C245.4,275.6,243.2,277.9,240.4,277.9z"
			/>
	</g>
</g>
</svg>
