<?xml version="1.0" encoding="utf-8"?>
<!-- Generator: Adobe Illustrator 22.0.0, SVG Export Plug-In . SVG Version: 6.00 Build 0)  -->
<svg version="1.1" id="Layer_1" xmlns="http://www.w3.org/2000/svg" xmlns:xlink="http://www.w3.org/1999/xlink" x="0px" y="0px"
	 viewBox="0 0 500 500" style="enable-background:new 0 0 500 500;" xml:space="preserve">
<style type="text/css">
	.st0{fill:#C9C9C9;}
	.st1{fill:#A0A0A0;}
	.st2{fill:#71CCFF;}
	.st3{fill:#231F20;}
	.st4{fill:#F9F9F9;}
	.st5{fill:#7A7979;}
	.st6{fill:#4C4C4C;}
	.st7{fill:#F9B630;}
	.st8{fill:#D88A0E;}
	.st9{fill:#FFEDCC;}
	.st10{fill:#C0E7F9;}
	.st11{fill:#08B26C;}
	.st12{fill:#15A9EA;}
	.st13{fill:none;stroke:#C9C9C9;stroke-width:10;stroke-linecap:round;stroke-linejoin:round;stroke-miterlimit:10;}
	.st14{fill:none;stroke:#231F20;stroke-width:10;stroke-linecap:round;stroke-linejoin:round;stroke-miterlimit:10;}
	.st15{fill:#FFFFFF;}
	.st16{fill:#35EF9F;}
	.st17{fill:#22A6E0;}
	.st18{fill:#FC3A6D;}
	.st19{fill:#FFA9C8;}
	.st20{fill:#038E52;}
	.st21{fill:#E2074B;}
</style>
<g>
	<g>
		<path class="st0" d="M66.1,495c0-101.5,82.3-183.9,183.9-183.9S433.9,393.5,433.9,495H66.1z"/>
	</g>
</g>
<g>
	<g>
		<path class="st3" d="M433.9,500H66.1c-2.8,0-5-2.2-5-5c0-104.1,84.7-188.9,188.9-188.9S438.9,390.9,438.9,495
			C438.9,497.8,436.6,500,433.9,500z M71.2,490h357.6C426.1,393.7,347,316.1,250,316.1S73.9,393.7,71.2,490z"/>
	</g>
</g>
<g>
	<g>
		<path class="st4" d="M243.2,336.3c-2.7,0-4.9-2.1-5-4.8c-0.1-2.8,2-5.1,4.8-5.2c1.5-0.1,2.9-0.1,4.4-0.1c0.9,0,1.7,0,2.6,0
			c2.8,0,5,2.2,5,5s-2.2,5-5,5c-0.8,0-1.6,0-2.4,0c-1.4,0-2.8,0.1-4.1,0.1C243.4,336.3,243.3,336.3,243.2,336.3z"/>
	</g>
</g>
<g>
	<g>
		<path class="st4" d="M128.1,390.6c-1.2,0-2.4-0.4-3.3-1.3c-2.1-1.8-2.2-5-0.4-7.1c24.8-27.7,58.5-46.6,94.8-53.3
			c2.7-0.5,5.3,1.3,5.8,4c0.5,2.7-1.3,5.3-4,5.8c-34.1,6.3-65.8,24.1-89.2,50.2C130.8,390,129.5,390.6,128.1,390.6z"/>
	</g>
</g>
<g>
	<g>
		<path class="st3" d="M66.1,500H36.3c-2.8,0-5-2.2-5-5s2.2-5,5-5h29.8c2.8,0,5,2.2,5,5S68.9,500,66.1,500z"/>
	</g>
</g>
<g>
	<g>
		<path class="st3" d="M16.3,500h-7c-2.8,0-5-2.2-5-5s2.2-5,5-5h7c2.8,0,5,2.2,5,5S19,500,16.3,500z"/>
	</g>
</g>
<g>
	<g>
		<path class="st3" d="M463.7,500h-29.8c-2.8,0-5-2.2-5-5s2.2-5,5-5h29.8c2.8,0,5,2.2,5,5S466.4,500,463.7,500z"/>
	</g>
</g>
<g>
	<g>
		<path class="st3" d="M490.8,500h-7c-2.8,0-5-2.2-5-5s2.2-5,5-5h7c2.8,0,5,2.2,5,5S493.5,500,490.8,500z"/>
	</g>
</g>
<g>
	<g>
		<path class="st3" d="M306.4,95.1H193.6c-2.8,0-5-2.2-5-5s2.2-5,5-5h112.8c2.8,0,5,2.2,5,5S309.2,95.1,306.4,95.1z"/>
	</g>
</g>
<g>
	<g>
		<path class="st7" d="M224.8,30.2C224.8,16.3,236.1,5,250,5s25.2,11.3,25.2,25.2H224.8z"/>
	</g>
</g>
<g>
	<g>
		<path class="st3" d="M275.2,35.2h-50.4c-2.8,0-5-2.2-5-5C219.8,13.5,233.4,0,250,0s30.2,13.5,30.2,30.2
			C280.2,32.9,277.9,35.2,275.2,35.2z M230.4,25.2h39.1C267.3,16.5,259.4,10,250,10S232.7,16.5,230.4,25.2z"/>
	</g>
</g>
<g>
	<g>
		<path class="st5" d="M206.8,214.9c0-23.9,19.4-43.2,43.2-43.2s43.2,19.4,43.2,43.2H206.8z"/>
	</g>
</g>
<g>
	<g>
		<path class="st3" d="M293.2,219.9h-86.5c-2.8,0-5-2.2-5-5c0-26.6,21.6-48.2,48.2-48.2s48.2,21.6,48.2,48.2
			C298.2,217.6,296,219.9,293.2,219.9z M212.1,209.9h75.8c-2.5-18.7-18.5-33.2-37.9-33.2S214.6,191.1,212.1,209.9z"/>
	</g>
</g>
<g>
	<g>
		<path class="st0" d="M261.8,199.9c-0.9,0-1.7-0.2-2.5-0.7c-2.8-1.7-6-2.5-9.3-2.5s-6.5,0.9-9.3,2.5c-2.4,1.4-5.4,0.6-6.9-1.8
			c-1.4-2.4-0.6-5.4,1.8-6.9c4.3-2.6,9.3-3.9,14.4-3.9s10,1.4,14.4,3.9c2.4,1.4,3.2,4.5,1.8,6.9C265.2,199,263.5,199.9,261.8,199.9z
			"/>
	</g>
</g>
<g>
	<g>
		<path class="st7" d="M275.3,214.9c0,14-11.3,25.3-25.3,25.3c-14,0-25.3-11.3-25.3-25.3H275.3z"/>
	</g>
</g>
<g>
	<g>
		<path class="st3" d="M250,245.2c-16.7,0-30.3-13.6-30.3-30.3c0-2.8,2.2-5,5-5h50.7c2.8,0,5,2.2,5,5
			C280.3,231.6,266.7,245.2,250,245.2z M230.3,219.9c2.2,8.8,10.2,15.3,19.7,15.3s17.5-6.5,19.7-15.3H230.3z"/>
	</g>
</g>
<g>
	<g>
		<path class="st5" d="M228,30.2h44c5.5,0,10,4.5,10,10v99.9c0,5.5-4.5,10-10,10h-44c-5.5,0-10-4.5-10-10V40.2
			C218,34.7,222.5,30.2,228,30.2z"/>
	</g>
</g>
<g>
	<g>
		<path class="st3" d="M272,155.1h-44c-8.3,0-15-6.7-15-15V40.2c0-8.3,6.7-15,15-15h44c8.3,0,15,6.7,15,15v99.9
			C287,148.4,280.3,155.1,272,155.1z M228,35.2c-2.8,0-5,2.2-5,5v99.9c0,2.8,2.2,5,5,5h44c2.8,0,5-2.2,5-5V40.2c0-2.8-2.2-5-5-5H228
			z"/>
	</g>
</g>
<g>
	<g>
		<path class="st0" d="M238,59.3c-2.8,0-5-2.2-5-5v-4.1c0-2.8,2.2-5,5-5s5,2.2,5,5v4.1C243,57.1,240.8,59.3,238,59.3z"/>
	</g>
</g>
<g>
	<g>
		<path class="st0" d="M238,135.1c-2.8,0-5-2.2-5-5V76c0-2.8,2.2-5,5-5s5,2.2,5,5v54.1C243,132.9,240.8,135.1,238,135.1z"/>
	</g>
</g>
<g>
	<g>
		<path class="st2" d="M426.3,68.1v44c0,5.5-4.5,10-10,10h-99.9c-5.5,0-10-4.5-10-10v-44c0-5.5,4.5-10,10-10h99.9
			C421.8,58.1,426.3,62.6,426.3,68.1z"/>
	</g>
</g>
<g>
	<g>
		<path class="st2" d="M193.6,68.1v44c0,5.5-4.5,10-10,10H83.7c-5.5,0-10-4.5-10-10v-44c0-5.5,4.5-10,10-10h99.9
			C189.1,58.1,193.6,62.6,193.6,68.1z"/>
	</g>
</g>
<g>
	<g>
		<path class="st3" d="M416.3,127.1h-99.9c-8.3,0-15-6.7-15-15v-44c0-8.3,6.7-15,15-15h99.9c8.3,0,15,6.7,15,15v44
			C431.3,120.4,424.6,127.1,416.3,127.1z M316.4,63.1c-2.8,0-5,2.2-5,5v44c0,2.8,2.2,5,5,5h99.9c2.8,0,5-2.2,5-5v-44
			c0-2.8-2.2-5-5-5H316.4z"/>
	</g>
</g>
<g>
	<g>
		<path class="st3" d="M183.6,127.1H83.7c-8.3,0-15-6.7-15-15v-44c0-8.3,6.7-15,15-15h99.9c8.3,0,15,6.7,15,15v44
			C198.6,120.4,191.9,127.1,183.6,127.1z M83.7,63.1c-2.8,0-5,2.2-5,5v44c0,2.8,2.2,5,5,5h99.9c2.8,0,5-2.2,5-5v-44c0-2.8-2.2-5-5-5
			H83.7z"/>
	</g>
</g>
<g>
	<g>
		<path class="st10" d="M93.7,112.3c-2.8,0-5-2.2-5-5V73c0-2.8,2.2-5,5-5s5,2.2,5,5v34.3C98.7,110,96.4,112.3,93.7,112.3z"/>
	</g>
</g>
<g>
	<g>
		<path class="st10" d="M406.3,112.3c-2.8,0-5-2.2-5-5V73c0-2.8,2.2-5,5-5s5,2.2,5,5v34.3C411.3,110,409.1,112.3,406.3,112.3z"/>
	</g>
</g>
<g>
	<g>
		<path class="st3" d="M426.3,95.1H306.4c-2.8,0-5-2.2-5-5s2.2-5,5-5h119.9c2.8,0,5,2.2,5,5S429.1,95.1,426.3,95.1z"/>
	</g>
</g>
<g>
	<g>
		<path class="st3" d="M366.4,127.1c-2.8,0-5-2.2-5-5v-64c0-2.8,2.2-5,5-5s5,2.2,5,5v64C371.4,124.9,369.1,127.1,366.4,127.1z"/>
	</g>
</g>
<g>
	<g>
		<path class="st3" d="M193.6,95.1H73.7c-2.8,0-5-2.2-5-5s2.2-5,5-5h119.9c2.8,0,5,2.2,5,5S196.4,95.1,193.6,95.1z"/>
	</g>
</g>
<g>
	<g>
		<path class="st3" d="M133.6,127.1c-2.8,0-5-2.2-5-5v-64c0-2.8,2.2-5,5-5s5,2.2,5,5v64C138.6,124.9,136.4,127.1,133.6,127.1z"/>
	</g>
</g>
<g>
	<g>
		<path class="st3" d="M250,176.6c-2.8,0-5-2.2-5-5v-21.5c0-2.8,2.2-5,5-5s5,2.2,5,5v21.5C255,174.4,252.8,176.6,250,176.6z"/>
	</g>
</g>
<g>
	<g>
		<circle class="st5" cx="250" cy="431.2" r="28.1"/>
	</g>
</g>
<g>
	<g>
		<path class="st3" d="M250,464.4c-18.3,0-33.1-14.9-33.1-33.1c0-18.3,14.9-33.1,33.1-33.1s33.1,14.9,33.1,33.1
			C283.1,449.5,268.3,464.4,250,464.4z M250,408.1c-12.8,0-23.1,10.4-23.1,23.1c0,12.8,10.4,23.1,23.1,23.1s23.1-10.4,23.1-23.1
			C273.1,418.5,262.8,408.1,250,408.1z"/>
	</g>
</g>
<g>
	<g>
		<circle class="st5" cx="370.9" cy="427.7" r="20.7"/>
	</g>
</g>
<g>
	<g>
		<circle class="st5" cx="301.2" cy="371.5" r="14.1"/>
	</g>
</g>
<g>
	<g>
		<path class="st3" d="M301.2,390.6c-10.5,0-19.1-8.6-19.1-19.1s8.6-19.1,19.1-19.1c10.5,0,19.1,8.6,19.1,19.1
			S311.7,390.6,301.2,390.6z M301.2,362.4c-5,0-9.1,4.1-9.1,9.1s4.1,9.1,9.1,9.1s9.1-4.1,9.1-9.1S306.2,362.4,301.2,362.4z"/>
	</g>
</g>
<g>
	<g>
		<path class="st3" d="M370.9,453.3c-14.2,0-25.7-11.5-25.7-25.7s11.5-25.7,25.7-25.7s25.7,11.5,25.7,25.7S385.1,453.3,370.9,453.3z
			 M370.9,412c-8.6,0-15.7,7-15.7,15.7s7,15.7,15.7,15.7s15.7-7,15.7-15.7S379.5,412,370.9,412z"/>
	</g>
</g>
<g>
	<g>
		<circle class="st5" cx="129.1" cy="427.7" r="20.7"/>
	</g>
</g>
<g>
	<g>
		<circle class="st5" cx="198.8" cy="371.5" r="14.1"/>
	</g>
</g>
<g>
	<g>
		<path class="st3" d="M198.8,390.6c-10.5,0-19.1-8.6-19.1-19.1s8.6-19.1,19.1-19.1c10.5,0,19.1,8.6,19.1,19.1
			S209.3,390.6,198.8,390.6z M198.8,362.4c-5,0-9.1,4.1-9.1,9.1s4.1,9.1,9.1,9.1s9.1-4.1,9.1-9.1S203.8,362.4,198.8,362.4z"/>
	</g>
</g>
<g>
	<g>
		<path class="st3" d="M129.1,453.3c-14.2,0-25.7-11.5-25.7-25.7s11.5-25.7,25.7-25.7s25.7,11.5,25.7,25.7S143.3,453.3,129.1,453.3z
			 M129.1,412c-8.6,0-15.7,7-15.7,15.7s7,15.7,15.7,15.7s15.7-7,15.7-15.7S137.7,412,129.1,412z"/>
	</g>
</g>
<g>
	<g>
		<g>
			<path class="st3" d="M389.7,309.4c-2.8,0-5-2.2-5-5v-26.2c0-2.8,2.2-5,5-5s5,2.2,5,5v26.2C394.7,307.2,392.4,309.4,389.7,309.4z"
				/>
		</g>
	</g>
	<g>
		<g>
			<path class="st3" d="M402.8,296.3h-26.2c-2.8,0-5-2.2-5-5s2.2-5,5-5h26.2c2.8,0,5,2.2,5,5S405.5,296.3,402.8,296.3z"/>
		</g>
	</g>
</g>
<g>
	<g>
		<g>
			<path class="st3" d="M349.7,206.3c-2.8,0-5-2.2-5-5v-26.2c0-2.8,2.2-5,5-5s5,2.2,5,5v26.2C354.7,204.1,352.4,206.3,349.7,206.3z"
				/>
		</g>
	</g>
	<g>
		<g>
			<path class="st3" d="M362.8,193.2h-26.2c-2.8,0-5-2.2-5-5s2.2-5,5-5h26.2c2.8,0,5,2.2,5,5S365.5,193.2,362.8,193.2z"/>
		</g>
	</g>
</g>
<g>
	<g>
		<g>
			<path class="st3" d="M110.3,309.4c-2.8,0-5-2.2-5-5v-26.2c0-2.8,2.2-5,5-5s5,2.2,5,5v26.2C115.3,307.2,113.1,309.4,110.3,309.4z"
				/>
		</g>
	</g>
	<g>
		<g>
			<path class="st3" d="M123.4,296.3H97.2c-2.8,0-5-2.2-5-5s2.2-5,5-5h26.2c2.8,0,5,2.2,5,5S126.2,296.3,123.4,296.3z"/>
		</g>
	</g>
</g>
<g>
	<g>
		<g>
			<path class="st3" d="M150.3,206.3c-2.8,0-5-2.2-5-5v-26.2c0-2.8,2.2-5,5-5s5,2.2,5,5v26.2C155.3,204.1,153.1,206.3,150.3,206.3z"
				/>
		</g>
	</g>
	<g>
		<g>
			<path class="st3" d="M163.4,193.2h-26.2c-2.8,0-5-2.2-5-5s2.2-5,5-5h26.2c2.8,0,5,2.2,5,5S166.2,193.2,163.4,193.2z"/>
		</g>
	</g>
</g>
</svg>
