<svg xmlns="http://www.w3.org/2000/svg"  viewBox="0 0 100 100" width="100px" height="100px"><path fill="#c7ede6" d="M88.136,56.788c0.299-0.614,0.563-1.259,0.792-1.935c2.622-7.739-1.343-17.008-9.693-19.245c-0.903-11.338-8.87-19.115-17.867-20.442C51.07,13.648,41.635,20.19,38.496,30.588c-3.784-1.34-7.471-1.177-10.945,0.853c-1.576,0.729-3.018,1.805-4.312,3.22c-1.9,2.077-3.134,4.7-3.637,7.465c-0.745,0.117-1.477,0.235-2.167,0.482c-4.023,1.443-6.562,4.413-7.258,8.886c-0.434,2.785,0.441,5.564,0.929,6.687c1.927,4.436,6.396,6.952,10.936,6.286c0.226-0.033,0.554,0.069,0.749,0.232c0.24,7.091,3.683,13.362,8.848,16.944c8.287,5.748,18.949,3.977,25.675-3.905c2.882,2.948,6.313,4.38,10.342,3.86c4.006-0.517,7.117-2.728,9.387-6.322c1.048,0.282,2.043,0.689,3.071,0.801c4.025,0.44,7.294-1.161,9.692-4.78c0.918-1.385,1.786-3.181,1.786-6.328C91.592,61.725,90.304,58.77,88.136,56.788z"/><path fill="#fdfcef" d="M76.29,50.187c0,0,11.643,0,11.714,0c2.689,0,4.868-2.18,4.868-4.869c0-2.346-1.659-4.303-3.868-4.765c0.025-0.205,0.043-0.413,0.043-0.625c0-2.785-2.257-5.042-5.042-5.042c-1.644,0-3.1,0.791-4.02,2.008c-0.235-3.1-3.004-5.491-6.244-5.095c-2.369,0.29-4.328,2.121-4.764,4.467c-0.14,0.752-0.125,1.483,0.014,2.168c-0.635-0.684-1.539-1.115-2.546-1.115c-1.843,0-3.347,1.435-3.466,3.248c-0.837-0.185-1.747-0.173-2.706,0.187c-1.832,0.688-3.137,2.413-3.214,4.369c-0.108,2.778,2.111,5.064,4.864,5.064c0.209,0,0.944,0,1.114,0h10.109"/><path fill="#472b29" d="M88.004,50.687H76.29c-0.276,0-0.5-0.224-0.5-0.5s0.224-0.5,0.5-0.5h11.714c2.409,0,4.368-1.96,4.368-4.368c0-2.058-1.459-3.855-3.47-4.275c-0.255-0.053-0.426-0.292-0.394-0.551c0.023-0.186,0.039-0.373,0.039-0.564c0-2.505-2.038-4.542-4.542-4.542c-1.433,0-2.752,0.659-3.622,1.81c-0.125,0.166-0.339,0.238-0.54,0.178c-0.199-0.059-0.342-0.234-0.357-0.441c-0.104-1.371-0.775-2.659-1.842-3.533c-1.078-0.883-2.442-1.275-3.843-1.104c-2.156,0.264-3.938,1.934-4.333,4.062c-0.124,0.665-0.12,1.33,0.012,1.979c0.044,0.22-0.062,0.442-0.262,0.545c-0.198,0.102-0.441,0.059-0.595-0.105c-0.571-0.616-1.345-0.955-2.179-0.955c-1.561,0-2.864,1.222-2.967,2.781c-0.01,0.146-0.083,0.279-0.199,0.367c-0.117,0.087-0.265,0.118-0.408,0.088c-0.825-0.184-1.64-0.128-2.422,0.166c-1.661,0.624-2.822,2.2-2.89,3.921c-0.047,1.201,0.385,2.339,1.216,3.203c0.832,0.864,1.95,1.341,3.149,1.341h11.223c0.276,0,0.5,0.224,0.5,0.5s-0.224,0.5-0.5,0.5H61.924c-1.474,0-2.848-0.585-3.87-1.647s-1.552-2.46-1.495-3.936c0.083-2.118,1.504-4.054,3.538-4.817c0.798-0.3,1.622-0.398,2.457-0.298c0.377-1.815,1.991-3.169,3.891-3.169c0.681,0,1.347,0.178,1.934,0.506c0-0.383,0.035-0.768,0.106-1.151c0.474-2.553,2.61-4.556,5.195-4.871c1.675-0.206,3.307,0.265,4.598,1.322c0.999,0.819,1.708,1.941,2.03,3.178c1.008-0.91,2.309-1.417,3.697-1.417c3.056,0,5.542,2.486,5.542,5.542c0,0.083-0.002,0.165-0.007,0.246c2.245,0.671,3.832,2.767,3.832,5.145C93.372,48.279,90.964,50.687,88.004,50.687z"/><path fill="#fdfcef" d="M73.469,39.462c-1.801-0.118-3.351,1.126-3.462,2.778c-0.014,0.205-0.005,0.407,0.025,0.604c-0.347-0.392-0.862-0.659-1.452-0.697c-1.08-0.071-2.013,0.643-2.149,1.613c-0.197-0.054-0.401-0.09-0.614-0.104c-1.576-0.103-2.932,0.985-3.029,2.431"/><path fill="#472b29" d="M62.789,46.336c-0.006,0-0.012,0-0.017-0.001c-0.138-0.009-0.242-0.128-0.233-0.266c0.106-1.581,1.564-2.772,3.295-2.663c0.133,0.008,0.269,0.025,0.406,0.052c0.273-0.964,1.261-1.645,2.357-1.561c0.417,0.026,0.817,0.161,1.157,0.381c0-0.018,0.002-0.036,0.003-0.055c0.121-1.787,1.797-3.133,3.729-3.011c0.138,0.009,0.242,0.128,0.233,0.266c-0.009,0.139-0.124,0.264-0.266,0.232c-1.66-0.093-3.094,1.034-3.196,2.546c-0.012,0.183-0.004,0.367,0.023,0.55c0.017,0.109-0.041,0.217-0.141,0.264s-0.219,0.022-0.293-0.061c-0.316-0.358-0.783-0.582-1.28-0.614c-0.945-0.034-1.768,0.553-1.885,1.397c-0.01,0.071-0.05,0.135-0.109,0.174c-0.059,0.039-0.132,0.054-0.203,0.033c-0.192-0.052-0.382-0.083-0.565-0.096c-1.423-0.082-2.676,0.893-2.764,2.198C63.029,46.235,62.919,46.336,62.789,46.336z"/><path fill="#fdfcef" d="M89.975,41.124c-1.692-0.798-3.649-0.233-4.371,1.262c-0.09,0.186-0.156,0.377-0.2,0.571"/><path fill="#472b29" d="M85.404,43.206c-0.018,0-0.037-0.002-0.055-0.006c-0.135-0.031-0.219-0.165-0.188-0.3c0.049-0.215,0.123-0.424,0.219-0.624c0.78-1.615,2.889-2.234,4.702-1.379c0.125,0.06,0.179,0.208,0.12,0.333c-0.059,0.126-0.209,0.176-0.333,0.12c-1.566-0.74-3.378-0.226-4.039,1.144c-0.08,0.166-0.141,0.34-0.182,0.518C85.622,43.128,85.519,43.206,85.404,43.206z"/><path fill="#fff" d="M18.09 48.859H8.1c-.276 0-.5-.224-.5-.5s.224-.5.5-.5h9.99c.276 0 .5.224.5.5S18.366 48.859 18.09 48.859zM20.959 48.859h-1.44c-.276 0-.5-.224-.5-.5s.224-.5.5-.5h1.44c.276 0 .5.224.5.5S21.235 48.859 20.959 48.859zM24.997 48.859h-2.536c-.276 0-.5-.224-.5-.5s.224-.5.5-.5h2.536c.276 0 .5.224.5.5S25.273 48.859 24.997 48.859zM24.997 50.716H15.42c-.276 0-.5-.224-.5-.5s.224-.5.5-.5h9.577c.276 0 .5.224.5.5S25.273 50.716 24.997 50.716zM13.695 50.716h-.578c-.276 0-.5-.224-.5-.5s.224-.5.5-.5h.578c.276 0 .5.224.5.5S13.972 50.716 13.695 50.716zM11.329 50.716H9.878c-.276 0-.5-.224-.5-.5s.224-.5.5-.5h1.451c.276 0 .5.224.5.5S11.605 50.716 11.329 50.716zM20.427 47.001H15.42c-.276 0-.5-.224-.5-.5s.224-.5.5-.5h5.007c.276 0 .5.224.5.5S20.703 47.001 20.427 47.001zM20.427 45.145h-1.252c-.276 0-.5-.224-.5-.5s.224-.5.5-.5h1.252c.276 0 .5.224.5.5S20.703 45.145 20.427 45.145zM17.171 52.574H15.42c-.276 0-.5-.224-.5-.5s.224-.5.5-.5h1.751c.276 0 .5.224.5.5S17.448 52.574 17.171 52.574zM71.049 22.69H61.06c-.276 0-.5-.224-.5-.5s.224-.5.5-.5h9.989c.276 0 .5.224.5.5S71.326 22.69 71.049 22.69zM73.919 22.69h-1.44c-.276 0-.5-.224-.5-.5s.224-.5.5-.5h1.44c.276 0 .5.224.5.5S74.195 22.69 73.919 22.69zM77.957 22.69h-2.535c-.276 0-.5-.224-.5-.5s.224-.5.5-.5h2.535c.276 0 .5.224.5.5S78.233 22.69 77.957 22.69zM75.939 18.975h-9.577c-.276 0-.5-.224-.5-.5s.224-.5.5-.5h9.577c.276 0 .5.224.5.5S76.215 18.975 75.939 18.975zM64.638 18.975H64.06c-.276 0-.5-.224-.5-.5s.224-.5.5-.5h.578c.276 0 .5.224.5.5S64.914 18.975 64.638 18.975zM62.271 18.975H60.82c-.276 0-.5-.224-.5-.5s.224-.5.5-.5h1.451c.276 0 .5.224.5.5S62.547 18.975 62.271 18.975zM73.387 20.832H68.38c-.276 0-.5-.224-.5-.5s.224-.5.5-.5h5.007c.276 0 .5.224.5.5S73.663 20.832 73.387 20.832z"/><path fill="#fff" d="M73.387 18.975h-1.252c-.276 0-.5-.224-.5-.5s.224-.5.5-.5h1.252c.276 0 .5.224.5.5S73.663 18.975 73.387 18.975zM66.931 20.832h-1.751c-.276 0-.5-.224-.5-.5s.224-.5.5-.5h1.751c.276 0 .5.224.5.5S67.207 20.832 66.931 20.832z"/><path fill="#fdfcef" d="M40.275,76.444c1.876,0,3.502,0,3.526,0c2.101,0,3.805-1.667,3.805-3.724c0-1.794-1.297-3.292-3.023-3.645c0.02-0.157,0.033-0.316,0.033-0.478c0-2.13-1.764-3.857-3.941-3.857c-1.285,0-2.423,0.605-3.142,1.536c-0.184-2.371-2.348-4.2-4.88-3.897c-1.851,0.222-3.383,1.622-3.723,3.417c-0.109,0.576-0.098,1.134,0.011,1.659c-0.496-0.523-1.203-0.853-1.99-0.853c-1.44,0-2.616,1.097-2.709,2.484c-0.654-0.142-1.365-0.132-2.115,0.143c-1.432,0.526-2.452,1.846-2.512,3.342c-0.085,2.125,1.65,3.873,3.802,3.873c0.163,0,0.738,0,0.87,0h7.901 M33.824,76.444h0.358"/><path fill="#472b29" d="M43.8,76.944h-3.525c-0.276,0-0.5-0.224-0.5-0.5s0.224-0.5,0.5-0.5H43.8c1.822,0,3.305-1.446,3.305-3.224c0-1.518-1.103-2.844-2.623-3.154c-0.256-0.053-0.429-0.294-0.396-0.554c0.018-0.136,0.029-0.274,0.029-0.415c0-1.852-1.543-3.357-3.44-3.357c-1.086,0-2.087,0.489-2.747,1.342c-0.126,0.164-0.341,0.23-0.539,0.174c-0.198-0.06-0.339-0.234-0.355-0.44c-0.079-1.015-0.562-1.935-1.363-2.591c-0.825-0.678-1.875-0.979-2.959-0.849c-1.639,0.195-2.992,1.435-3.292,3.015c-0.093,0.49-0.09,0.982,0.01,1.463c0.045,0.219-0.06,0.441-0.258,0.545c-0.199,0.104-0.441,0.063-0.595-0.1c-0.426-0.449-1.004-0.696-1.627-0.696c-1.164,0-2.134,0.887-2.209,2.018c-0.01,0.146-0.082,0.279-0.198,0.366c-0.116,0.087-0.264,0.121-0.407,0.089c-0.636-0.137-1.236-0.098-1.836,0.124c-1.256,0.461-2.134,1.624-2.185,2.892c-0.035,0.871,0.282,1.7,0.891,2.334c0.631,0.657,1.488,1.02,2.411,1.02h8.771c0.276,0,0.5,0.224,0.5,0.5s-0.224,0.5-0.5,0.5h-8.771c-1.181,0-2.322-0.483-3.132-1.326c-0.799-0.832-1.214-1.921-1.169-3.066c0.066-1.668,1.207-3.191,2.839-3.792c0.608-0.222,1.237-0.301,1.872-0.243c0.344-1.39,1.624-2.414,3.124-2.414c0.49,0,0.971,0.112,1.406,0.32c0.009-0.239,0.037-0.479,0.082-0.72c0.38-2.003,2.089-3.573,4.156-3.819c1.356-0.17,2.674,0.216,3.712,1.067c0.732,0.601,1.266,1.405,1.537,2.293c0.789-0.646,1.78-1.004,2.833-1.004c2.448,0,4.44,1.955,4.44,4.357c0,0.033,0,0.067-0.001,0.101c1.757,0.552,2.991,2.18,2.991,4.022C48.105,75.049,46.174,76.944,43.8,76.944z M34.182,76.944h-0.358c-0.276,0-0.5-0.224-0.5-0.5s0.224-0.5,0.5-0.5h0.358c0.276,0,0.5,0.224,0.5,0.5S34.458,76.944,34.182,76.944z"/><path fill="#472b29" d="M42.1 71.164c-.018 0-.036-.002-.055-.006-.135-.03-.219-.164-.189-.299.037-.165.094-.325.169-.478.602-1.219 2.265-1.673 3.708-1.002.125.058.18.206.122.331-.059.126-.206.18-.332.122-1.197-.552-2.566-.208-3.049.771-.058.117-.102.239-.129.365C42.317 71.084 42.214 71.164 42.1 71.164zM36.962 76.944H35.86c-.276 0-.5-.224-.5-.5s.224-.5.5-.5h1.103c.276 0 .5.224.5.5S37.239 76.944 36.962 76.944z"/><path fill="#e1e0d8" d="M42.445 28.748A15.697 15.697 0 1 0 42.445 60.141999999999996A15.697 15.697 0 1 0 42.445 28.748Z" transform="rotate(-45.001 42.445 44.446)"/><path fill="#472b29" d="M42.445,60.834c-4.199,0-8.397-1.599-11.594-4.795c-6.393-6.394-6.393-16.795,0-23.188c6.394-6.393,16.795-6.393,23.189,0l0,0c6.393,6.394,6.393,16.795,0,23.188C50.843,59.236,46.643,60.834,42.445,60.834z M42.445,29.456c-3.84,0-7.681,1.462-10.604,4.386c-5.847,5.847-5.847,15.361,0,21.208c5.846,5.846,15.361,5.846,21.208,0c5.847-5.847,5.847-15.361,0-21.208C50.125,30.917,46.285,29.456,42.445,29.456z"/><path fill="#e1e0d8" d="M53.899 55.899L57.076 59.076"/><path fill="#472b29" d="M57.076,59.776c-0.179,0-0.358-0.068-0.495-0.205l-3.176-3.176c-0.273-0.273-0.273-0.717,0-0.99s0.717-0.273,0.99,0l3.176,3.176c0.273,0.273,0.273,0.717,0,0.99C57.434,59.707,57.255,59.776,57.076,59.776z"/><path fill="#9daa39" d="M72.211,74.211L72.211,74.211c-1.387,1.387-3.658,1.387-5.045,0l-10.09-10.09c-1.387-1.387-1.387-3.658,0-5.045l0,0c1.387-1.387,3.658-1.387,5.045,0l10.09,10.09C73.599,70.553,73.599,72.824,72.211,74.211z"/><path fill="#472b29" d="M69.688,75.954c-1.093,0-2.186-0.416-3.018-1.247l-10.09-10.091c-0.803-0.803-1.245-1.874-1.245-3.018c0-1.143,0.442-2.214,1.245-3.018c1.664-1.664,4.371-1.664,6.036,0l10.09,10.091c0.803,0.803,1.246,1.874,1.246,3.018c0,1.143-0.442,2.214-1.246,3.018l0,0C71.874,75.538,70.781,75.954,69.688,75.954z M59.598,58.735c-0.769,0-1.489,0.297-2.027,0.836s-0.835,1.259-0.835,2.027c0,0.77,0.296,1.489,0.835,2.027l10.09,10.091c1.117,1.117,2.937,1.117,4.055,0l0,0c0.539-0.539,0.836-1.259,0.836-2.027s-0.297-1.489-0.835-2.027l-10.09-10.091C61.087,59.032,60.367,58.735,59.598,58.735z M72.211,74.211h0.01H72.211z"/><path fill="#78ccd3" d="M42.445 31.959A12.486 12.486 0 1 0 42.445 56.931A12.486 12.486 0 1 0 42.445 31.959Z" transform="rotate(-45.001 42.445 44.446)"/><path fill="#472b29" d="M42.445 57.3c-3.293 0-6.587-1.254-9.094-3.761-2.429-2.43-3.767-5.659-3.767-9.095 0-3.435 1.338-6.665 3.767-9.095 5.015-5.014 13.173-5.014 18.188 0l0 0c5.014 5.016 5.014 13.175 0 18.189C49.032 56.046 45.738 57.3 42.445 57.3zM42.445 32.339c-3.102 0-6.203 1.181-8.564 3.542-2.288 2.287-3.547 5.329-3.547 8.563 0 3.235 1.26 6.276 3.547 8.563 4.722 4.723 12.406 4.724 17.127 0 4.722-4.722 4.722-12.404 0-17.127C48.648 33.52 45.546 32.339 42.445 32.339zM57.833 64.244c-.096 0-.192-.036-.265-.109-.146-.146-.146-.385 0-.531l4.541-4.541c.146-.145.384-.146.53 0s.146.385 0 .531l-4.541 4.541C58.024 64.206 57.929 64.244 57.833 64.244zM64.93 69.828c-.096 0-.192-.036-.265-.109l-5.079-5.079c-.146-.146-.146-.385 0-.531s.384-.146.53 0l5.079 5.079c.146.146.146.385 0 .531C65.122 69.791 65.026 69.828 64.93 69.828zM66.409 71.307c-.096 0-.192-.037-.265-.11l-.504-.505c-.146-.146-.146-.384 0-.53.147-.146.384-.146.53.001l.504.505c.146.146.146.384 0 .53C66.601 71.271 66.505 71.307 66.409 71.307z"/><path fill="#fdfcee" d="M49.423,43.917H35.566c-0.318,0-0.577,0.26-0.577,0.577s0.26,0.577,0.577,0.577h13.857c0.318,0,0.577-0.26,0.577-0.577S49.74,43.917,49.423,43.917z"/><path fill="#472b29" d="M49.423,43.917c0.318,0,0.577,0.26,0.577,0.577c0,0.318-0.26,0.577-0.577,0.577H35.566c-0.318,0-0.577-0.26-0.577-0.577c0-0.318,0.26-0.577,0.577-0.577H49.423 M49.423,43.167H35.566c-0.732,0-1.327,0.595-1.327,1.327s0.595,1.327,1.327,1.327h13.857c0.732,0,1.327-0.595,1.327-1.327S50.155,43.167,49.423,43.167L49.423,43.167z"/></svg>