<?xml version="1.0" encoding="UTF-8" standalone="no"?>
<!-- Generator: Adobe Illustrator 24.1.0, SVG Export Plug-In . SVG Version: 6.00 Build 0)  -->

<svg
   version="1.1"
   id="Capa_1"
   x="0px"
   y="0px"
   viewBox="0 0 1000 200"
   enable-background="new 0 0 1000 1000"
   xml:space="preserve"
   sodipodi:docname="dalle.svg"
   width="1000"
   height="200"
   inkscape:version="1.3 (0e150ed6c4, 2023-07-21)"
   xmlns:inkscape="http://www.inkscape.org/namespaces/inkscape"
   xmlns:sodipodi="http://sodipodi.sourceforge.net/DTD/sodipodi-0.dtd"
   xmlns="http://www.w3.org/2000/svg"
   xmlns:svg="http://www.w3.org/2000/svg"><defs
   id="defs7" /><sodipodi:namedview
   id="namedview7"
   pagecolor="#ffffff"
   bordercolor="#000000"
   borderopacity="0.25"
   inkscape:showpageshadow="2"
   inkscape:pageopacity="0.0"
   inkscape:pagecheckerboard="true"
   inkscape:deskcolor="#d1d1d1"
   inkscape:zoom="0.811"
   inkscape:cx="499.38348"
   inkscape:cy="500"
   inkscape:window-width="1920"
   inkscape:window-height="1046"
   inkscape:window-x="-11"
   inkscape:window-y="-11"
   inkscape:window-maximized="1"
   inkscape:current-layer="Capa_1" />&#10;<g
   id="g7"
   transform="matrix(1.2255822,0,0,1.2255822,-109.09198,-513.75656)">&#10;	<path
   d="m 106.4438,437.6772 v 7.7549 l 10.7812,0.9457 3.2154,2.648 V 553.244 l -3.2154,2.648 -10.7812,0.9457 v 7.7549 h 46.7185 c 19.1035,0 30.8304,-2.2697 40.855,-8.1332 18.9144,-10.9703 29.1281,-30.4521 29.1281,-55.419 0,-40.0984 -25.5344,-63.3631 -69.9831,-63.3631 h -46.7185 z m 31.0196,8.7006 h 14.9424 c 34.4241,0 51.2579,17.9687 51.2579,54.2842 0,37.0721 -16.8338,55.2299 -51.2579,55.2299 h -14.9423 z"
   id="path1" />&#10;	<path
   d="m 278.0443,436.164 -44.2596,118.4039 -10.9703,2.2697 v 7.7549 h 37.0722 v -7.7549 l -12.2943,-0.9457 -1.8914,-2.648 13.4292,-36.1265 h 44.6369 l 13.6183,36.1265 -1.324,2.648 -11.7269,0.9457 v 7.7549 H 347.27 v -7.7549 L 335.9214,554.5679 290.5278,436.164 Z m 3.0263,19.8601 19.4809,52.3928 h -38.2061 z"
   id="path2" />&#10;	<path
   d="m 350.0466,564.5925 h 90.5998 v -34.4241 h -9.8354 l -3.2155,22.6973 -2.648,3.0263 H 382.3902 V 449.0258 l 3.0263,-2.648 10.7812,-0.9457 v -7.7549 h -46.151 v 7.7549 l 12.1052,0.9457 3.2154,2.648 V 553.244 l -3.2154,2.648 -12.1052,0.9457 z"
   id="path3" />&#10;	<path
   d="m 448.3123,564.5925 h 90.5998 v -34.4241 h -9.8354 l -3.2155,22.6973 -2.648,3.0263 H 480.6559 V 449.0258 l 3.0263,-2.648 10.7812,-0.9457 v -7.7549 h -46.151 v 7.7549 l 12.1052,0.9457 3.2155,2.648 V 553.244 l -3.2155,2.648 -12.1052,0.9457 z"
   id="path4" />&#10;	<path
   d="m 568.3296,489.1243 c -6.8092,0 -12.2943,5.296 -12.2943,12.1052 0,6.62 5.4851,11.916 12.1052,11.916 6.62,0 11.916,-5.296 11.916,-11.916 0,-6.62 -5.2961,-12.1052 -11.7269,-12.1052 z"
   id="path5" />&#10;	<path
   d="m 600.7299,564.5925 h 97.4089 v -30.8304 h -9.8355 l -3.2155,19.1035 -2.648,3.0263 h -50.6904 v -52.9602 h 31.0195 l 2.648,2.8372 1.8914,13.6183 h 8.8898 v -41.6116 h -8.8898 l -1.8914,13.8075 -2.648,2.648 h -31.0195 v -47.8534 h 43.6922 l 2.6479,2.8372 2.648,16.0772 h 10.592 v -27.615 h -90.5997 v 7.7549 l 10.7812,0.9457 3.2155,2.648 V 553.244 l -3.2155,2.648 -10.7812,0.9457 v 7.7548 z"
   id="path6" />&#10;	<path
   d="m 824.708,549.6502 c 25.9127,-20.9949 30.8304,-25.1561 39.3419,-33.6675 17.9686,-17.5904 25.3452,-31.0196 25.3452,-45.5836 0,-20.995 -15.6989,-34.9916 -39.1527,-34.9916 -22.1298,0 -40.2876,12.1052 -40.2876,26.8584 0,6.2418 4.1612,10.4029 10.4029,10.4029 3.2155,0 5.8635,-0.7566 8.7006,-2.8371 v -20.2384 c 6.0526,-3.2154 10.7813,-4.5394 16.8338,-4.5394 15.3206,0 25.1561,10.5921 25.1561,27.0476 0,15.8881 -7.1874,28.7498 -26.291,47.2859 -8.7006,8.5115 -17.7795,16.0772 -38.7744,33.2893 v 11.916 h 87.5734 V 533.573 h -8.5115 l -3.4045,16.0772 z"
   id="path7" />&#10;</g>&#10;</svg>
