<?xml version="1.0" encoding="UTF-8" standalone="no"?>
<!-- Generator: Adobe Illustrator 25.1.0, SVG Export Plug-In . SVG Version: 6.00 Build 0)  -->

<svg
   version="1.1"
   id="Layer_1"
   x="0px"
   y="0px"
   viewBox="0 0 1000.0006 665.229"
   xml:space="preserve"
   sodipodi:docname="future.svg"
   width="1000.0005"
   height="665.229"
   inkscape:version="1.3 (0e150ed6c4, 2023-07-21)"
   xmlns:inkscape="http://www.inkscape.org/namespaces/inkscape"
   xmlns:sodipodi="http://sodipodi.sourceforge.net/DTD/sodipodi-0.dtd"
   xmlns="http://www.w3.org/2000/svg"
   xmlns:svg="http://www.w3.org/2000/svg"><defs
   id="defs292"><clipPath
     clipPathUnits="userSpaceOnUse"
     id="clipPath293"><path
       style="opacity:0.972689;fill:none;stroke:#09e60f"
       d="m 70.092845,611.09114 c 0,0 290.243615,325.78365 1002.031555,11.84668 0,0 -43.4379,-478.80324 -132.28794,-543.959967 -88.85009,-65.156729 -267.53748,0 -267.53748,0 0,0 -263.58859,11.846679 -216.20188,-30.603918 0,0 -290.24361,88.850085 -276.42248,169.802385 13.82112,80.9523 31.59114,323.8092 -4.93612,326.77087 -36.52726,2.96167 -104.645655,66.14395 -104.645655,66.14395 z"
       id="path293" /></clipPath></defs><sodipodi:namedview
   id="namedview292"
   pagecolor="#ffffff"
   bordercolor="#000000"
   borderopacity="0.25"
   inkscape:showpageshadow="2"
   inkscape:pageopacity="0.0"
   inkscape:pagecheckerboard="true"
   inkscape:deskcolor="#d1d1d1"
   inkscape:zoom="0.71625829"
   inkscape:cx="195.46022"
   inkscape:cy="461.42572"
   inkscape:window-width="1920"
   inkscape:window-height="1046"
   inkscape:window-x="-11"
   inkscape:window-y="-11"
   inkscape:window-maximized="1"
   inkscape:current-layer="Layer_1" />&#10;<style
   type="text/css"
   id="style1">&#10;	.st0{fill:#FFFFFF;}&#10;	.st1{fill:#D0D7E2;}&#10;	.st2{fill:#1E2530;}&#10;	.st3{fill:#96A7BA;}&#10;	.st4{fill:#F4A062;}&#10;	.st5{fill:#AF4A4A;}&#10;	.st6{fill:#657A6A;}&#10;	.st7{fill:#C76A6A;}&#10;	.st8{fill:#5B695B;}&#10;	.st9{fill:#FDC551;}&#10;	.st10{fill:#647B68;}&#10;	.st11{fill:#69AFD3;}&#10;	.st12{fill:#4576A1;}&#10;	.st13{fill:#FDCA55;}&#10;	.st14{fill:#F9B835;}&#10;	.st15{fill:#FEA9A4;}&#10;	.st16{fill:#FF6C6E;}&#10;	.st17{fill:#202733;}&#10;	.st18{fill:#1F212E;}&#10;	.st19{fill:#FFA9A4;}&#10;	.st20{fill:#6AAFD3;}&#10;	.st21{fill:#4476A1;}&#10;	.st22{fill:#383838;}&#10;	.st23{fill:#545454;}&#10;	.st24{fill:#7FBFDB;}&#10;	.st25{fill:#444444;}&#10;	.st26{fill:#636363;}&#10;	.st27{fill:#13141C;}&#10;	.st28{opacity:0.5;fill:#FF6C6E;}&#10;	.st29{fill:#2D303F;}&#10;	.st30{fill:url(#SVGID_1_);}&#10;	.st31{fill:#FCBDBB;}&#10;	.st32{fill:#76899B;}&#10;	.st33{fill:#F1B49F;}&#10;	.st34{fill:#D28B85;}&#10;	.st35{opacity:0.5;fill:#FFFFFF;}&#10;</style>&#10;&#10;<g
   id="g292"
   transform="translate(-108.89927,-51.657337)">&#10;	<g
   id="g1">&#10;		&#10;	</g>&#10;	<path
   class="st2"
   d="m 187.23,673.14 h 817.4 c 0,0 -398.53,31.09 -817.4,0 z"
   id="path2" />&#10;	<g
   id="g32">&#10;		<g
   id="g2">&#10;			&#10;				<circle
   transform="matrix(0.7071,-0.7071,0.7071,0.7071,-44.226,231.9278)"
   class="st3"
   cx="257.85001"
   cy="169.35001"
   id="ellipse2"
   r="9.6999998" />&#10;		</g>&#10;		<g
   id="g3">&#10;			&#10;				<circle
   transform="matrix(0.1597,-0.9872,0.9872,0.1597,94.4594,449.6675)"
   class="st3"
   cx="311.35999"
   cy="169.35001"
   id="ellipse3"
   r="9.6999998" />&#10;		</g>&#10;		<g
   id="g4">&#10;			&#10;				<circle
   transform="matrix(0.1597,-0.9872,0.9872,0.1597,139.4244,502.4914)"
   class="st3"
   cx="364.87"
   cy="169.35001"
   id="ellipse4"
   r="9.6999998" />&#10;		</g>&#10;		<g
   id="g5">&#10;			&#10;				<circle
   transform="matrix(0.1799,-0.9837,0.9837,0.1799,22.8938,1191.7803)"
   class="st3"
   cx="726.17999"
   cy="582.15997"
   id="ellipse5"
   r="9.6999998" />&#10;		</g>&#10;		<g
   id="g6">&#10;			&#10;				<circle
   transform="matrix(0.2288,-0.9735,0.9735,0.2288,34.5805,1207.9709)"
   class="st3"
   cx="779.69"
   cy="582.15997"
   id="ellipse6"
   r="9.6999998" />&#10;		</g>&#10;		<g
   id="g7">&#10;			&#10;				<circle
   transform="matrix(0.7071,-0.7071,0.7071,0.7071,-167.6099,759.6744)"
   class="st3"
   cx="833.20001"
   cy="582.15997"
   id="ellipse7"
   r="9.6999998" />&#10;		</g>&#10;		<g
   id="g8">&#10;			<polygon
   class="st3"
   points="256.35,530.19 256.35,169.35 259.35,169.35 259.35,527.19 410.12,527.19 410.12,580.66 726.18,580.66 726.18,583.66 407.12,583.66 407.12,530.19 "
   id="polygon7" />&#10;		</g>&#10;		<g
   id="g9">&#10;			<polygon
   class="st3"
   points="615.34,117.43 615.34,299.51 941,299.51 941,391.65 999.22,391.65 999.22,492.41 834.7,492.91 834.7,582.16 831.7,582.16 831.7,489.92 996.22,489.42 996.22,394.65 938,394.65 938,302.51 612.34,302.51 612.34,120.43 366.37,120.43 366.37,169.35 363.37,169.35 363.37,117.43 "
   id="polygon8" />&#10;		</g>&#10;		<g
   id="g10">&#10;			<polygon
   class="st3"
   points="778.19,582.16 778.19,501.34 673.02,501.34 673.02,433.17 504.35,433.17 504.35,234.26 309.86,234.26 309.86,169.35 312.86,169.35 312.86,231.26 507.35,231.26 507.35,430.17 676.02,430.17 676.02,498.34 781.19,498.34 781.19,582.16 "
   id="polygon9" />&#10;		</g>&#10;		<g
   id="g15">&#10;			<g
   id="g11">&#10;				<path
   class="st3"
   d="m 958.69,501.62 h 5.49 v 10.09 h 6.01 v -10.09 h 5.49 v 25 h -5.49 V 516.4 h -6.01 v 10.22 h -5.49 z"
   id="path10" />&#10;			</g>&#10;			<g
   id="g12">&#10;				<path
   class="st3"
   d="m 977.61,501.62 h 15.59 v 4.69 h -5.11 v 20.31 h -5.49 v -20.31 h -4.98 v -4.69 z"
   id="path11" />&#10;			</g>&#10;			<g
   id="g13">&#10;				<path
   class="st3"
   d="m 995.1,501.62 h 8.06 l 3.53,15.44 3.97,-15.44 h 7.82 v 25 h -5.15 v -20.93 l -5.11,20.93 h -3.99 l -4.67,-20.93 v 20.93 h -4.47 v -25 z"
   id="path12" />&#10;			</g>&#10;			<g
   id="g14">&#10;				<path
   class="st3"
   d="m 1023.21,501.62 h 5.49 v 20.31 h 8.06 v 4.69 h -13.55 z"
   id="path13" />&#10;			</g>&#10;		</g>&#10;		<g
   id="g19">&#10;			<g
   id="g16">&#10;				<path
   class="st3"
   d="m 924.85,282.96 4.92,0.3 c -0.18,2.63 -1.01,4.77 -2.51,6.42 -1.49,1.65 -3.46,2.48 -5.92,2.48 -2.98,0 -5.26,-1.11 -6.82,-3.32 -1.56,-2.22 -2.35,-5.27 -2.35,-9.15 0,-3.92 0.78,-6.99 2.33,-9.2 1.55,-2.22 3.86,-3.32 6.91,-3.32 5.06,0 7.81,3.13 8.26,9.38 l -4.87,0.36 c -0.13,-3.6 -1.26,-5.4 -3.38,-5.4 -1.11,0 -2,0.58 -2.66,1.74 -0.66,1.16 -0.99,3.41 -0.99,6.75 0,2.99 0.3,5.04 0.91,6.16 0.6,1.12 1.51,1.68 2.72,1.68 1.96,-0.01 3.1,-1.63 3.45,-4.88 z"
   id="path15" />&#10;			</g>&#10;			<g
   id="g17">&#10;				<path
   class="st3"
   d="m 947.73,272.82 -4.41,1.69 c -0.63,-2 -1.78,-3 -3.45,-3 -0.78,0 -1.4,0.22 -1.86,0.67 -0.46,0.44 -0.68,0.96 -0.68,1.55 0,0.69 0.27,1.23 0.81,1.64 0.54,0.41 1.67,0.94 3.38,1.61 1.56,0.58 2.79,1.15 3.69,1.72 0.9,0.57 1.62,1.34 2.17,2.32 0.55,0.98 0.83,2.11 0.83,3.4 0,2.26 -0.78,4.12 -2.34,5.57 -1.56,1.45 -3.65,2.18 -6.26,2.18 -4.39,0 -7.2,-2.22 -8.42,-6.66 l 4.66,-1.33 c 0.57,2.44 1.87,3.66 3.89,3.66 0.92,0 1.67,-0.24 2.25,-0.72 0.57,-0.48 0.86,-1.11 0.86,-1.89 0,-0.59 -0.2,-1.12 -0.6,-1.59 -0.4,-0.47 -1.33,-0.96 -2.77,-1.48 -1.86,-0.66 -3.25,-1.26 -4.16,-1.8 -0.91,-0.54 -1.66,-1.31 -2.26,-2.31 -0.59,-1 -0.89,-2.14 -0.89,-3.42 0,-2.18 0.7,-3.97 2.11,-5.36 1.4,-1.39 3.26,-2.09 5.57,-2.09 4.21,-0.01 6.84,1.87 7.88,5.64 z"
   id="path16" />&#10;			</g>&#10;			<g
   id="g18">&#10;				<path
   class="st3"
   d="m 966.33,272.82 -4.41,1.69 c -0.63,-2 -1.78,-3 -3.45,-3 -0.78,0 -1.4,0.22 -1.86,0.67 -0.46,0.44 -0.68,0.96 -0.68,1.55 0,0.69 0.27,1.23 0.81,1.64 0.54,0.41 1.67,0.94 3.38,1.61 1.56,0.58 2.79,1.15 3.69,1.72 0.89,0.57 1.62,1.34 2.17,2.32 0.55,0.98 0.83,2.11 0.83,3.4 0,2.26 -0.78,4.12 -2.34,5.57 -1.56,1.45 -3.65,2.18 -6.26,2.18 -4.39,0 -7.2,-2.22 -8.42,-6.66 l 4.66,-1.33 c 0.57,2.44 1.87,3.66 3.89,3.66 0.92,0 1.67,-0.24 2.25,-0.72 0.57,-0.48 0.86,-1.11 0.86,-1.89 0,-0.59 -0.2,-1.12 -0.6,-1.59 -0.4,-0.47 -1.33,-0.96 -2.77,-1.48 -1.86,-0.66 -3.25,-1.26 -4.16,-1.8 -0.91,-0.54 -1.66,-1.31 -2.26,-2.31 -0.59,-1 -0.89,-2.14 -0.89,-3.42 0,-2.18 0.7,-3.97 2.11,-5.36 1.4,-1.39 3.26,-2.09 5.57,-2.09 4.21,-0.01 6.84,1.87 7.88,5.64 z"
   id="path17" />&#10;			</g>&#10;		</g>&#10;		<g
   id="g23">&#10;			<g
   id="g20">&#10;				<path
   class="st3"
   d="m 585.12,84.05 h 7.2 c 2.19,0 3.88,0.18 5.08,0.55 1.2,0.37 2.21,1.19 3.03,2.48 0.82,1.29 1.23,2.88 1.23,4.79 0,1.83 -0.33,3.35 -0.99,4.54 -0.66,1.2 -1.57,2.06 -2.74,2.59 -1.17,0.53 -2.96,0.8 -5.38,0.8 h -1.94 v 9.25 h -5.49 z m 5.5,4.04 v 7.42 h 1.7 c 1.5,0 2.47,-0.35 2.9,-1.05 0.43,-0.7 0.65,-1.6 0.65,-2.72 0,-0.94 -0.17,-1.7 -0.5,-2.29 -0.34,-0.58 -0.73,-0.95 -1.17,-1.12 -0.45,-0.16 -1.07,-0.25 -1.88,-0.25 h -1.7 z"
   id="path19" />&#10;			</g>&#10;			<g
   id="g21">&#10;				<path
   class="st3"
   d="m 604.3,84.05 h 5.49 v 10.09 h 6.01 V 84.05 h 5.49 v 25 H 615.8 V 98.83 h -6.01 v 10.22 h -5.49 z"
   id="path20" />&#10;			</g>&#10;			<g
   id="g22">&#10;				<path
   class="st3"
   d="m 626.02,84.05 h 7.2 c 2.19,0 3.88,0.18 5.08,0.55 1.2,0.37 2.21,1.19 3.03,2.48 0.82,1.29 1.23,2.88 1.23,4.79 0,1.83 -0.33,3.35 -0.99,4.54 -0.66,1.2 -1.57,2.06 -2.74,2.59 -1.17,0.53 -2.96,0.8 -5.38,0.8 h -1.94 v 9.25 h -5.49 z m 5.49,4.04 v 7.42 h 1.7 c 1.5,0 2.47,-0.35 2.9,-1.05 0.43,-0.7 0.65,-1.6 0.65,-2.72 0,-0.94 -0.17,-1.7 -0.5,-2.29 -0.34,-0.58 -0.73,-0.95 -1.17,-1.12 -0.45,-0.16 -1.07,-0.25 -1.88,-0.25 h -1.7 z"
   id="path21" />&#10;			</g>&#10;		</g>&#10;		<g
   id="g27">&#10;			<g
   id="g24">&#10;				<path
   class="st3"
   d="m 394.41,603 4.92,0.3 c -0.18,2.63 -1.01,4.77 -2.51,6.42 -1.49,1.65 -3.46,2.48 -5.92,2.48 -2.99,0 -5.26,-1.11 -6.82,-3.32 -1.56,-2.21 -2.35,-5.27 -2.35,-9.15 0,-3.92 0.78,-6.99 2.33,-9.2 1.55,-2.22 3.86,-3.32 6.91,-3.32 5.06,0 7.81,3.13 8.26,9.38 l -4.87,0.36 c -0.13,-3.6 -1.26,-5.4 -3.38,-5.4 -1.11,0 -2,0.58 -2.66,1.74 -0.66,1.16 -0.99,3.41 -0.99,6.75 0,2.99 0.3,5.04 0.91,6.16 0.6,1.12 1.51,1.68 2.72,1.68 1.96,-0.01 3.11,-1.64 3.45,-4.88 z"
   id="path23" />&#10;			</g>&#10;			<g
   id="g25">&#10;				<path
   class="st3"
   d="m 411.47,597.78 h 5.44 v 3.86 h -5.44 v 5.51 h -4 v -5.51 h -5.44 v -3.86 h 5.44 v -5.51 h 4 z"
   id="path24" />&#10;			</g>&#10;			<g
   id="g26">&#10;				<path
   class="st3"
   d="m 430.07,597.78 h 5.44 v 3.86 h -5.44 v 5.51 h -4 v -5.51 h -5.44 v -3.86 h 5.44 v -5.51 h 4 z"
   id="path25" />&#10;			</g>&#10;		</g>&#10;		<g
   id="g28">&#10;			<rect
   x="609.53998"
   y="115.5"
   class="st3"
   width="8.1700001"
   height="8.1700001"
   id="rect27" />&#10;		</g>&#10;		<g
   id="g29">&#10;			<rect
   x="935.60999"
   y="297.12"
   class="st3"
   width="8.1700001"
   height="8.1700001"
   id="rect28" />&#10;		</g>&#10;		<g
   id="g30">&#10;			<rect
   x="993.64001"
   y="485.95001"
   class="st3"
   width="8.1700001"
   height="8.1700001"
   id="rect29" />&#10;		</g>&#10;		<g
   id="g31">&#10;			<rect
   x="404.60001"
   y="578.08002"
   class="st3"
   width="8.1700001"
   height="8.1700001"
   id="rect30" />&#10;		</g>&#10;	</g>&#10;	<g
   id="flower_00000129903367083957863340000008024923539012271232_">&#10;		<g
   id="g33">&#10;			&#10;		</g>&#10;		<g
   id="g74">&#10;			<g
   id="g34">&#10;				<path
   class="st5"
   d="m 894.49,534.96 c 3.8,-8.8 3.8,-26.21 3.8,-33.22 0,-8.53 2.3,-16.95 2.3,-16.95 l -1.96,-2.46 c 0,0 -3.75,9.17 -2.05,19.41 1.71,10.21 0.9,20.45 -2.09,33.22 z"
   id="path33" />&#10;			</g>&#10;			<g
   id="g35">&#10;				<path
   class="st6"
   d="m 888.06,477.87 c 0.71,14.48 -0.42,22.49 2.56,31.55 0.4,1.22 1.48,4.28 1.71,8.53 0.27,5.07 -0.79,9.25 -1.71,11.94 0.43,0.13 1.07,0.24 1.71,0 4.16,-1.6 1.55,-16.13 0.85,-28.14 -0.49,-8.39 -0.33,-20.38 2.83,-35.23 v -0.02 c 0,-0.08 0.02,-0.15 0.03,-0.24 v -0.02 c 1.86,-14.36 3.96,-25.89 3.96,-25.89 0,0 0.39,-0.9 1.02,-2.37 0,-0.02 0,-0.03 0.02,-0.05 0.29,-0.68 0.63,-1.48 1.01,-2.39 0,-0.02 0,-0.03 0.02,-0.05 3.09,-7.25 8.65,-20.46 9.87,-24.13 0.15,-0.48 0.41,-0.97 0.78,-1.52 2.13,-3.24 7.66,-7.71 14.49,-14.29 0.14,-0.12 0.27,-0.26 0.43,-0.39 0.95,-0.94 1.93,-1.89 2.92,-2.9 0.15,-0.15 0.29,-0.29 0.44,-0.44 3.19,-3.24 6.55,-6.94 9.92,-11.15 10.23,-12.77 13.74,-27.47 15.59,-34.75 v -0.02 c 0.61,-2.42 1.04,-4.02 1.47,-4.45 1.71,-1.71 10.23,-5.12 11.94,-8.53 1.71,-3.41 10.23,-10.23 10.23,-10.23 0,-3.41 -17.05,8.53 -27.28,11.94 -1.38,0.46 -2.9,1.16 -4.55,2.08 -0.15,0.09 -0.31,0.17 -0.48,0.27 -5.68,3.24 -12.65,8.87 -19.47,15.4 -0.14,0.14 -0.27,0.26 -0.41,0.39 -1.72,1.65 -3.43,3.36 -5.08,5.1 -0.2,0.2 -0.41,0.43 -0.6,0.63 -0.02,0.02 -0.02,0.02 -0.02,0.02 -3.73,3.92 -7.25,7.96 -10.32,11.92 -0.36,0.44 -0.7,0.89 -1.02,1.31 -3.7,4.72 -6.53,8.1 -8.65,11.19 -0.1,0.15 -0.2,0.27 -0.29,0.43 -0.02,0 -0.02,0.02 -0.02,0.02 -4.01,5.97 -5.37,11.02 -5.37,22.87 0,18.76 -3.41,32.4 -11.94,42.63 -7.01,8.4 2.36,7.64 3.41,28.98 z"
   id="path34" />&#10;			</g>&#10;			<g
   id="g36">&#10;				<path
   class="st6"
   d="m 765.29,367.03 c 7.47,-0.14 12.38,1.79 15.35,3.41 8.66,4.72 7.59,10.52 17.05,15.35 5.76,2.93 8.61,2.05 13.56,6.22 3.07,2.61 3.94,3.73 6.91,5.71 5.12,3.41 8.53,0 11.94,6.82 3.79,7.59 11.97,11.82 18.76,20.46 1.93,2.46 7.59,9.84 10.23,20.46 3.58,10.16 4.76,19.17 5.12,25.58 0.68,0.22 1.33,0.1 1.71,0 0,0 1.21,-0.61 2.47,-2.08 1.77,-2.01 3.63,-5.64 2.64,-11.56 -1.71,-10.23 10.23,-6.82 1.71,-23.87 -5.03,-10.08 -7.69,-17.77 -12.53,-24.13 -0.27,-0.36 -0.55,-0.7 -0.84,-1.06 -1.48,-1.81 -3.19,-3.53 -5.22,-5.15 -0.27,-0.22 -0.56,-0.44 -0.85,-0.66 -2.2,-1.69 -4.77,-3.27 -7.84,-4.81 -4.72,-2.35 -7.4,-4.38 -11.73,-5.7 -6.57,-1.98 -7.9,-0.49 -12.14,-2.83 -4.16,-2.29 -3.5,-4.08 -8.53,-6.82 -1.4,-0.77 -4.57,-2.4 -8.92,-3.19 -2.86,-0.51 -4.69,-0.27 -6.68,-0.84 -0.02,-0.02 -0.03,-0.02 -0.05,-0.02 -1.64,-0.46 -3.38,-1.47 -5.87,-3.87 -0.22,-0.19 -0.44,-0.41 -0.65,-0.61 -0.17,-0.17 -0.32,-0.32 -0.48,-0.49 -8.07,-8.23 -8.41,-13.01 -25.12,-6.32 z"
   id="path35" />&#10;			</g>&#10;			<g
   id="g37">&#10;				<path
   class="st6"
   d="m 790.88,402.89 c 0.41,1.21 7.01,20.45 16.78,32.04 0.09,0.1 0.17,0.2 0.26,0.31 0.46,0.55 0.97,1.11 1.52,1.67 4.47,4.66 11.27,9.91 18.09,14.89 0.02,-0.02 0.03,-0.02 0.03,0.02 1.4,1.01 2.78,2.01 4.16,2.98 0.03,0.02 0.05,0.03 0.07,0.05 8.95,6.39 17.05,11.94 18.76,14.49 3.41,5.12 8.53,15.35 8.53,15.35 v -3.41 c 0,0 0,-22.83 -5.99,-35.11 0.02,-0.02 0.02,-0.02 0,-0.03 -0.2,-0.44 -0.43,-0.87 -0.67,-1.28 -0.56,-1.04 -1.19,-1.98 -1.88,-2.8 -8.53,-10.23 -28.99,-27.28 -40.93,-30.69 -11.86,-3.4 -16.99,-5.1 -18.73,-8.48 z"
   id="path36" />&#10;			</g>&#10;			<g
   id="g38">&#10;				<path
   class="st5"
   d="m 879.54,534.14 c 0,0 -5.12,-28.99 -8.53,-32.4 -3.41,-3.41 -5.12,-15.35 -15.35,-15.35 0,0 20.46,-5.12 23.87,3.41 3.41,8.53 3.41,10.23 0,15.35 -3.41,5.12 3.41,32.4 3.41,32.4 z"
   id="path37" />&#10;			</g>&#10;			<g
   id="g39">&#10;				<path
   class="st7"
   d="m 869.31,486.39 c 0.08,-0.5 -2.04,-1.23 -3.41,-1.71 -8.79,-3.03 -11.69,-0.53 -15.35,-3.41 -2.09,-1.65 -2.77,-3.75 -5.9,-4.71 -0.88,-0.27 -1.54,-0.4 -2.62,-0.4 -5.12,0 -11.94,1.71 -11.94,1.71 1.8,-0.08 4.47,0.1 6.82,1.71 2.62,1.79 2.59,4.49 4.48,5.75 3.03,2.01 7.55,2.33 15.98,1.2 5.46,0.4 11.8,0.71 11.94,-0.14 z"
   id="path38" />&#10;			</g>&#10;			<g
   id="g40">&#10;				<path
   class="st0"
   d="m 784.04,394.31 c 1.19,4.89 4.64,8.87 8.39,12.07 3.82,3.21 8.13,5.8 12.53,8.12 4.4,2.25 8.7,4.74 12.43,7.96 1.88,1.6 3.62,3.36 5.24,5.22 1.64,1.84 3.19,3.79 4.93,5.61 2.61,2.61 5.08,5.37 7.54,8.15 0.39,0.44 0.78,0.89 1.18,1.33 0.43,0.49 0.87,1.01 1.31,1.5 1.64,1.86 3.29,3.72 4.98,5.54 0.84,0.92 1.71,1.81 2.59,2.69 0.38,0.48 0.78,0.89 1.13,1.4 0.34,0.51 0.68,1.01 0.99,1.53 2.44,4.28 4.26,8.94 6.04,13.56 1.77,4.64 3.41,9.33 4.93,14.05 -1.38,-4.77 -2.88,-9.52 -4.54,-14.2 -1.69,-4.66 -3.44,-9.33 -5.85,-13.73 -0.63,-1.09 -1.33,-2.15 -2.2,-3.1 -0.85,-0.89 -1.72,-1.77 -2.54,-2.69 -1.38,-1.48 -2.73,-3 -4.04,-4.54 -0.31,-0.34 -0.61,-0.68 -0.9,-1.02 -0.2,-0.22 -0.39,-0.46 -0.6,-0.68 -3.07,-3.51 -6.1,-7.08 -9.4,-10.38 -1.71,-1.76 -3.26,-3.7 -4.93,-5.56 -1.65,-1.88 -3.43,-3.65 -5.35,-5.25 -3.8,-3.26 -8.17,-5.8 -12.64,-7.96 -4.4,-2.23 -8.71,-4.74 -12.55,-7.86 -3.81,-3.08 -7.34,-6.91 -8.67,-11.76 z"
   id="path39" />&#10;			</g>&#10;			<g
   id="g41">&#10;				<path
   class="st0"
   d="m 827.56,451.81 c 1.4,1.01 2.78,2.01 4.16,2.98 0.03,0.02 0.05,0.03 0.07,0.05 0.94,0.49 1.86,1.01 2.8,1.52 1.48,0.75 2.97,1.5 4.52,2.15 1.55,0.67 3.22,1.02 4.76,1.5 3.07,1.02 5.99,2.76 8.24,5.18 -1.99,-2.66 -4.89,-4.6 -8.03,-5.8 -1.59,-0.61 -3.19,-0.92 -4.67,-1.6 -1.5,-0.65 -2.95,-1.42 -4.42,-2.18 -2.47,-1.27 -4.89,-2.64 -7.43,-3.8 z"
   id="path40" />&#10;			</g>&#10;			<g
   id="g42">&#10;				<path
   class="st0"
   d="m 850.97,462.42 c 0.94,-3.89 1.5,-7.86 1.88,-11.83 0.12,-1.47 0.2,-2.93 0.24,-4.42 0.02,-0.02 0.02,-0.02 0,-0.03 -0.2,-0.44 -0.43,-0.87 -0.67,-1.28 -0.12,1.89 -0.26,3.77 -0.43,5.66 -0.32,3.95 -0.74,7.91 -1.02,11.9 z"
   id="path41" />&#10;			</g>&#10;			<g
   id="g43">&#10;				<path
   class="st0"
   d="m 807.66,434.93 c 0.09,0.1 0.17,0.2 0.26,0.31 0.46,0.55 0.97,1.11 1.52,1.67 0.34,0.2 0.65,0.44 0.96,0.7 0.34,0.29 0.92,0.82 1.5,1.01 2.3,0.82 4.6,0.89 6.89,1.11 4.57,0.32 9.19,0.43 13.59,1.42 1.11,0.22 2.15,0.61 3.1,1.13 0.27,0.17 0.53,0.32 0.8,0.51 0.67,0.43 1.33,0.89 1.96,1.36 0.29,0.22 0.56,0.43 0.84,0.65 -0.31,-0.34 -0.61,-0.68 -0.9,-1.02 -0.2,-0.22 -0.39,-0.46 -0.6,-0.68 -0.58,-0.46 -1.18,-0.87 -1.79,-1.26 -0.22,-0.14 -0.44,-0.26 -0.68,-0.38 -0.82,-0.41 -1.67,-0.73 -2.56,-0.94 -4.5,-1.16 -9.14,-1.24 -13.69,-1.64 -2.25,-0.19 -4.62,-0.26 -6.63,-0.97 -0.51,-0.17 -0.78,-0.43 -1.3,-0.87 -0.46,-0.36 -0.92,-0.68 -1.42,-0.99 -0.6,-0.4 -1.22,-0.78 -1.85,-1.12 z"
   id="path42" />&#10;			</g>&#10;			<g
   id="g44">&#10;				<path
   class="st0"
   d="m 853.28,402.53 c 0.22,0.66 0.43,1.33 0.61,1.99 0.75,2.95 1.3,5.95 1.6,8.99 0.36,3.04 0.48,6.09 0.49,9.14 0.02,3.05 -0.09,6.1 -0.32,9.17 0.6,-3.02 0.85,-6.09 0.99,-9.17 0.1,-3.07 -0.02,-6.16 -0.31,-9.23 -0.38,-3.07 -0.94,-6.12 -1.82,-9.09 -0.12,-0.39 -0.26,-0.77 -0.39,-1.14 -0.27,-0.21 -0.56,-0.44 -0.85,-0.66 z"
   id="path43" />&#10;			</g>&#10;			<g
   id="g45">&#10;				<path
   class="st0"
   d="m 859.07,438.65 c 0.56,-3.53 0.96,-7.11 1.19,-10.67 0.26,-3.58 0.36,-7.16 0.32,-10.76 -0.07,-2.61 -0.17,-5.22 -0.41,-7.81 -0.27,-0.36 -0.55,-0.7 -0.84,-1.06 0.27,2.95 0.36,5.92 0.39,8.88 0.1,3.56 -0.02,7.13 -0.12,10.71 -0.12,3.56 -0.27,7.14 -0.53,10.71 z"
   id="path44" />&#10;			</g>&#10;			<g
   id="g46">&#10;				<path
   class="st0"
   d="m 942.63,363.62 c -0.15,-2.52 -0.05,-5.03 0.24,-7.52 0.29,-2.49 0.77,-4.96 1.4,-7.38 0.56,-2.44 1.31,-4.84 2.13,-7.21 0.43,-1.18 0.87,-2.35 1.36,-3.51 0.17,-0.43 0.36,-0.85 0.55,-1.28 -0.15,0.09 -0.31,0.17 -0.48,0.27 -0.78,1.36 -1.42,2.85 -2.03,4.3 -0.97,2.34 -1.72,4.77 -2.37,7.23 -0.56,2.47 -1.06,4.98 -1.21,7.52 -0.15,2.53 -0.1,5.09 0.41,7.58 z"
   id="path45" />&#10;			</g>&#10;			<g
   id="g47">&#10;				<path
   class="st0"
   d="m 926.96,367.13 c 0.14,2.32 0.36,4.6 0.63,6.89 0.6,4.55 1.31,9.09 2.11,13.61 0.27,1.55 0.56,3.09 0.85,4.64 0.15,-0.15 0.29,-0.29 0.44,-0.44 l -0.65,-4.3 c -0.67,-4.54 -1.38,-9.07 -1.91,-13.61 -0.31,-2.28 -0.56,-4.55 -0.72,-6.82 -0.14,-2.27 -0.02,-4.55 0.05,-6.84 0.14,-2.63 0.32,-5.25 0.58,-7.88 -0.14,0.14 -0.27,0.26 -0.41,0.39 -0.36,2.47 -0.63,4.95 -0.82,7.45 -0.17,2.29 -0.27,4.59 -0.15,6.91 z"
   id="path46" />&#10;			</g>&#10;			<g
   id="g48">&#10;				<path
   class="st0"
   d="m 922.8,375.85 c 0.44,2.46 1.09,4.81 1.65,7.18 l 1.62,7.15 c 0.39,1.79 0.77,3.58 1.14,5.39 0.14,-0.12 0.27,-0.26 0.43,-0.39 -0.29,-1.72 -0.6,-3.43 -0.92,-5.13 -0.44,-2.4 -0.97,-4.79 -1.52,-7.18 -0.53,-2.4 -1.16,-4.76 -1.57,-7.14 -0.82,-4.77 -0.99,-9.67 -0.89,-14.55 0.02,-1.09 0.07,-2.2 0.12,-3.29 -0.2,0.2 -0.41,0.43 -0.6,0.63 -0.02,0.02 -0.02,0.02 -0.02,0.02 -0.07,0.87 -0.12,1.76 -0.15,2.63 -0.23,4.87 -0.06,9.82 0.71,14.68 z"
   id="path47" />&#10;			</g>&#10;			<g
   id="g49">&#10;				<path
   class="st0"
   d="m 910.91,371.75 c -2,6.22 -3.83,12.49 -5.19,18.9 -0.32,1.61 -0.65,3.21 -0.82,4.86 -0.21,1.65 -0.16,3.31 -0.13,4.94 0.06,3.27 0.15,6.52 0.13,9.78 0,6.49 -0.18,13.07 -1.82,19.34 -1.93,6.24 -3.06,12.78 -3.08,19.31 0.34,-6.53 1.68,-12.94 3.71,-19.13 1.8,-6.37 1.97,-13 2.04,-19.52 -0.01,-3.27 -0.12,-6.54 -0.21,-9.8 -0.04,-1.64 -0.1,-3.25 0.09,-4.84 0.16,-1.6 0.45,-3.21 0.73,-4.81 0.6,-3.2 1.34,-6.38 2.12,-9.54 0.75,-3.18 1.56,-6.34 2.43,-9.49 z"
   id="path48" />&#10;			</g>&#10;			<g
   id="g50">&#10;				<path
   class="st0"
   d="m 893.86,458.63 c 0.26,1.96 0.63,3.92 1.28,5.8 0.24,0.7 0.53,1.4 0.87,2.06 v 0.02 c 0.58,1.09 1.3,2.08 2.28,2.83 -1.01,-0.84 -1.72,-1.91 -2.25,-3.09 v -0.02 c -0.29,-0.61 -0.51,-1.24 -0.72,-1.88 -0.56,-1.88 -0.87,-3.82 -1.06,-5.76 -0.36,-3.9 -0.24,-7.84 0.15,-11.75 0.41,-3.89 1.02,-7.78 2.01,-11.56 0.49,-1.89 1.07,-3.77 1.77,-5.58 0.73,-1.79 1.52,-3.65 2.1,-5.56 1.14,-3.82 1.45,-7.9 1.01,-11.83 -0.41,-3.94 -1.01,-7.81 -0.97,-11.73 0,-3.9 0.43,-7.83 0.99,-11.71 0.27,-1.98 0.6,-3.96 0.94,-5.93 -0.1,0.15 -0.2,0.27 -0.29,0.43 -0.02,0 -0.02,0.02 -0.02,0.02 -1.21,5.64 -2.11,11.39 -2.29,17.21 -0.14,3.97 0.49,7.91 0.87,11.8 0.39,3.89 0.09,7.81 -1.06,11.53 -0.56,1.88 -1.3,3.65 -2.05,5.51 -0.7,1.86 -1.28,3.75 -1.76,5.68 -0.96,3.84 -1.6,7.76 -1.93,11.7 -0.28,3.92 -0.31,7.89 0.13,11.81 z"
   id="path49" />&#10;			</g>&#10;			<g
   id="g56">&#10;				<g
   id="g51">&#10;					<path
   class="st7"
   d="m 918.76,428.42 c 3.24,0.53 7.95,1.19 13.64,1.71 12.4,1.09 18.59,1.64 22.17,0 2.27,-1.04 3.96,-2.42 5.39,-3.97 0.26,-0.29 0.51,-0.6 0.77,-0.9 0.89,-1.09 1.67,-2.23 2.44,-3.38 0.2,-0.29 0.41,-0.6 0.6,-0.89 2.35,-3.51 4.69,-6.77 9.57,-7.91 2.83,-0.66 5.32,-0.32 6.82,0 -14.24,-4.54 -20.65,-2.68 -23.87,0 -1.48,1.24 -3.82,3.92 -8.53,6.82 -2.17,1.35 -4.09,2.52 -6.82,3.41 -6.36,2.06 -9.23,-0.12 -15.35,1.71 -2.42,0.7 -4.69,1.83 -6.83,3.4 z"
   id="path50" />&#10;				</g>&#10;				<g
   id="g52">&#10;					<path
   class="st5"
   d="m 939.22,431.83 c 0,0 -22.17,3.41 -28.99,23.87 -6.82,20.46 -5.12,17.05 -10.23,30.69 l -1.71,-1.71 c 0,0 1.71,-6.82 -1.71,-13.64 -3.41,-6.82 -11.94,-17.05 -8.53,-27.28 3.41,-10.23 14.9,-16.08 33.88,-14.86 18.98,1.22 21.12,2.08 21.12,2.08 z"
   id="path51" />&#10;				</g>&#10;				<g
   id="g53">&#10;					<path
   class="st0"
   d="m 976.42,411.98 c -2.52,-0.67 -5.21,-0.87 -7.81,-0.36 -1.3,0.27 -2.56,0.74 -3.72,1.41 -1.16,0.68 -2.13,1.64 -3.05,2.56 -1.86,1.85 -3.58,3.81 -5.72,5.22 -2.13,1.41 -4.58,2.29 -7.09,2.88 -2.51,0.63 -5.09,0.97 -7.67,1.36 l -7.75,1.17 c -5.16,0.79 -10.32,1.64 -15.47,2.54 5.2,-0.58 10.38,-1.21 15.57,-1.89 l 7.77,-1.05 c 2.58,-0.36 5.2,-0.68 7.77,-1.3 2.56,-0.63 5.1,-1.56 7.32,-3.06 2.22,-1.51 3.99,-3.51 5.76,-5.41 3.22,-4.2 9.05,-5.16 14.09,-4.07 z"
   id="path52" />&#10;				</g>&#10;				<g
   id="g54">&#10;					<path
   class="st0"
   d="m 945.9,424.77 c 2.22,0.63 4.52,1.13 6.84,1.31 2.32,0.2 4.66,0.22 6.97,0.09 0.09,0 0.15,-0.02 0.24,-0.02 0.26,-0.29 0.51,-0.6 0.77,-0.9 -0.36,0.03 -0.7,0.05 -1.06,0.07 -2.28,0.2 -4.59,0.19 -6.87,0.1 -2.3,-0.06 -4.58,-0.36 -6.89,-0.65 z"
   id="path53" />&#10;				</g>&#10;				<g
   id="g55">&#10;					<path
   class="st0"
   d="m 955.13,421.85 c 2.68,0.29 5.35,0.27 8.03,0.02 0.2,-0.29 0.41,-0.6 0.6,-0.89 -1.04,0.15 -2.1,0.29 -3.14,0.39 -1.83,0.23 -3.65,0.33 -5.49,0.48 z"
   id="path54" />&#10;				</g>&#10;			</g>&#10;			<g
   id="g57">&#10;				<path
   class="st8"
   d="m 912.72,409.85 c 2.13,-3.24 7.66,-7.71 14.49,-14.29 0.14,-0.12 0.27,-0.26 0.43,-0.39 0.95,-0.94 1.93,-1.89 2.92,-2.9 0.15,-0.15 0.29,-0.29 0.44,-0.44 3.19,-3.24 6.55,-6.94 9.92,-11.15 10.23,-12.77 13.74,-27.47 15.59,-34.75 -4.95,4.16 -16.66,14.43 -23.26,23.67 -7.43,10.39 -16.16,20.81 -20.53,40.25 z"
   id="path56" />&#10;			</g>&#10;			<g
   id="g61">&#10;				<g
   id="g58">&#10;					<path
   class="st6"
   d="m 996.95,518.75 c 0,0 -1.46,-22.12 -20.22,-30.65 -18.76,-8.53 -23.87,-20.46 -37.51,-22.17 -13.64,-1.71 -11.46,-7.08 -22.78,5.84 0,0 2.32,-5.84 15.96,-10.96 0,0 10.23,-11.94 23.87,-6.82 13.64,5.12 15.35,15.35 25.58,20.46 10.23,5.12 14.85,30.61 15.1,44.3 z"
   id="path57" />&#10;				</g>&#10;				<g
   id="g59">&#10;					<path
   class="st0"
   d="m 897.44,534.99 c 2.5,-8.25 4.69,-16.61 6.08,-25.14 0.33,-2.13 0.62,-4.28 0.79,-6.43 0.23,-2.15 0.15,-4.34 0.36,-6.45 0.44,-4.25 1.79,-8.39 3.57,-12.27 3.55,-7.77 9.18,-14.72 16.5,-19.13 3.68,-2.1 7.68,-3.8 11.92,-4.34 2.08,-0.49 4.23,-0.42 6.36,-0.53 1.07,-0.11 2.13,0.13 3.19,0.19 l 3.19,0.31 -0.06,-0.01 c 6.17,2.28 11.96,5.77 16.9,10.15 4.79,4.58 9.48,9.34 14.05,14.16 2.27,2.43 4.51,4.89 6.61,7.46 2.07,2.58 4.16,5.21 5.51,8.23 1.33,3.03 2.2,6.26 2.96,9.5 0.75,3.24 1.35,6.52 1.83,9.81 -0.41,-3.3 -0.96,-6.59 -1.65,-9.85 -0.7,-3.26 -1.52,-6.5 -2.81,-9.6 -1.31,-3.12 -3.42,-5.77 -5.48,-8.38 -2.1,-2.59 -4.33,-5.08 -6.59,-7.53 -4.56,-4.87 -9.19,-9.64 -14,-14.29 -5,-4.47 -10.79,-8.03 -17.1,-10.4 l -0.02,-0.01 -0.04,-0.01 c -8.55,-1.45 -17.74,-0.14 -25.18,4.49 -7.46,4.56 -13.11,11.65 -16.66,19.54 -1.77,3.95 -3.12,8.13 -3.54,12.47 -0.19,2.19 -0.11,4.32 -0.32,6.46 -0.15,2.14 -0.43,4.28 -0.74,6.4 -1.27,8.51 -3.26,16.92 -5.63,25.2 z"
   id="path58" />&#10;				</g>&#10;				<g
   id="g60">&#10;					<path
   class="st8"
   d="m 943.8,466.97 c 0,0 -19.93,-7.86 -30.16,17.72 -10.23,25.58 -3.95,16.56 -10.5,26.18 0,0 0.27,-17.66 3.68,-24.48 3.41,-6.82 13.64,-25.58 28.99,-23.87 1.03,0.08 3.05,0.37 5.12,1.71 1.41,0.92 2.33,1.99 2.87,2.74 z"
   id="path59" />&#10;				</g>&#10;			</g>&#10;			<g
   id="g62">&#10;				<path
   class="st8"
   d="m 765.29,367.03 c 7.47,-0.14 12.38,1.79 15.35,3.41 8.66,4.72 7.59,10.52 17.05,15.35 5.76,2.93 8.61,2.05 13.56,6.22 3.07,2.61 3.94,3.73 6.91,5.71 5.12,3.41 8.53,0 11.94,6.82 3.79,7.59 11.97,11.82 18.76,20.46 5.49,6.99 7.78,13.51 10.23,20.46 3.58,10.16 4.76,19.17 5.12,25.58 0.49,4.54 1.07,6.8 1.71,6.82 0.73,0 1.55,-2.97 2.47,-8.9 0.77,-10.11 1.48,-25.82 -0.77,-30.32 -3.41,-6.82 -11.94,-13.64 -18.76,-18.76 -6.82,-5.12 -11.94,-15.35 -18.76,-20.46 0,0 -5.12,-3.41 -15.35,-11.94 -7.01,-5.83 -12.41,-6.87 -17.31,-9.14 -0.02,-0.02 -0.03,-0.02 -0.05,-0.02 -2.01,-0.94 -3.96,-2.1 -5.87,-3.87 -0.22,-0.19 -0.44,-0.41 -0.65,-0.61 -0.17,-0.17 -0.32,-0.32 -0.48,-0.49 -8.05,-8.23 -8.39,-13.01 -25.1,-6.32 z"
   id="path61" />&#10;			</g>&#10;			<g
   id="g70">&#10;				<g
   id="g63">&#10;					<path
   class="st7"
   d="m 830.09,297.12 v 18.76 c 0,0.73 0.03,1.48 0.09,2.23 0,0.14 0.02,0.27 0.03,0.41 v 0.02 c 0.8,10.32 5.75,22.34 6.7,24.62 4.86,11.66 9.6,19.61 15.35,27.28 5.12,6.82 25.58,40.92 25.58,40.92 0,0 6.82,-30.69 6.82,-47.75 0,-9.43 -5.73,-18.33 -12.02,-25.56 -0.14,-0.17 -0.29,-0.34 -0.44,-0.51 0,0 0,-0.02 -0.02,-0.02 -1.33,-1.52 -2.68,-2.95 -3.99,-4.3 -0.22,-0.22 -0.44,-0.44 -0.65,-0.67 -3.34,-3.36 -6.43,-6.14 -8.46,-8.17 -6.82,-6.82 -1.71,-13.64 -11.94,-17.05 -7.64,-2.54 -6.72,-5.1 -8.61,-6.92 -0.63,-0.63 -1.31,-0.87 -3.33,-1.6 -1.3,-0.45 -3.02,-1.05 -5.11,-1.69 z"
   id="path62" />&#10;				</g>&#10;				<g
   id="g64">&#10;					<path
   class="st0"
   d="M 830.09,297.64 V 298 l 5.15,4.52 c 3.99,3.5 8,7.01 11.9,10.59 0.97,0.9 1.94,1.81 2.88,2.75 0.48,0.46 0.82,0.95 1.21,1.47 0.29,0.58 0.67,1.09 0.89,1.72 1.04,2.39 1.64,4.98 2.18,7.55 0.53,2.64 0.94,5.32 1.35,8 0,0 0,0.02 0.02,0.02 v 0.02 c 0.36,2.34 0.72,4.67 1.18,7.01 0,0.03 0.02,0.05 0.02,0.09 0.03,0.2 0.09,0.39 0.12,0.6 0.53,2.59 1.28,5.23 2.37,7.67 1.02,2.46 2.13,4.88 3.21,7.3 2.17,4.84 4.35,9.69 6.26,14.63 0.89,2.47 1.89,4.98 1.96,7.59 0.19,2.69 0.8,5.29 1.35,7.89 1.19,5.18 2.56,10.32 4.01,15.43 -1.14,-4.48 -2.22,-8.99 -3.17,-13.52 0,0 -0.02,-0.02 -0.02,-0.03 -0.14,-0.65 -0.27,-1.31 -0.41,-1.96 -0.49,-2.59 -1.07,-5.22 -1.23,-7.83 -0.02,-1.18 -0.2,-2.34 -0.51,-3.46 v -0.02 c 0,-0.09 -0.03,-0.15 -0.05,-0.22 v -0.02 c -0.36,-1.38 -0.85,-2.75 -1.31,-4.08 -1.82,-5.01 -4.02,-9.86 -6.16,-14.72 -2.08,-4.91 -4.57,-9.62 -5.46,-14.85 -1.07,-5.17 -1.69,-10.45 -2.76,-15.69 -0.55,-2.61 -1.16,-5.22 -2.25,-7.71 -0.24,-0.63 -0.65,-1.21 -0.97,-1.81 -0.39,-0.55 -0.84,-1.14 -1.31,-1.59 -0.97,-0.94 -1.94,-1.82 -2.93,-2.71 -5.78,-5.11 -11.62,-10.07 -17.52,-14.99 z"
   id="path63" />&#10;				</g>&#10;				<g
   id="g65">&#10;					<path
   class="st0"
   d="m 872.94,389.28 c -0.03,0.14 -0.07,0.26 -0.1,0.39 0.03,-0.12 0.09,-0.24 0.12,-0.36 1.42,-4.35 2.61,-8.8 3.24,-13.37 0.15,-1.18 0.27,-2.37 0.29,-3.56 0.03,-1.16 0.14,-2.3 0.31,-3.46 0.36,-2.32 0.77,-4.66 0.94,-7.03 0.29,-4.76 -0.27,-9.55 -1.55,-14.1 -0.9,-3.34 -2.15,-6.58 -3.55,-9.74 -0.14,-0.17 -0.29,-0.34 -0.44,-0.51 1.31,3.41 2.49,6.87 3.36,10.42 1.13,4.54 1.69,9.23 1.33,13.86 -0.14,2.34 -0.51,4.64 -0.85,6.99 -0.17,1.16 -0.26,2.37 -0.27,3.56 -0.02,1.16 -0.09,2.32 -0.2,3.48 -0.24,2.32 -0.65,4.64 -1.13,6.94 -0.45,2.18 -0.94,4.34 -1.5,6.49 z"
   id="path64" />&#10;				</g>&#10;				<g
   id="g66">&#10;					<path
   class="st0"
   d="m 867.53,332.57 c 0.32,1.62 0.63,3.24 0.94,4.88 0.78,4.35 1.6,8.71 1.96,13.1 0.24,2.17 0.15,4.38 0.15,6.6 l -0.02,6.65 c 0.02,3.99 0.07,7.98 0.17,11.99 0,0.43 0,0.87 0.02,1.3 0.02,-0.34 0.03,-0.7 0.03,-1.04 0.2,-4.08 0.34,-8.15 0.44,-12.24 l 0.12,-6.65 c 0.03,-2.2 0.14,-4.43 -0.07,-6.68 -0.44,-4.43 -1.24,-8.8 -2.17,-13.15 -0.29,-1.36 -0.6,-2.73 -0.94,-4.08 -0.2,-0.24 -0.42,-0.46 -0.63,-0.68 z"
   id="path65" />&#10;				</g>&#10;				<g
   id="g67">&#10;					<path
   class="st0"
   d="m 830.09,309.51 v 0.48 c 1.4,0.77 2.78,1.57 4.14,2.39 2.97,1.86 5.92,3.77 8.61,6 2.73,2.18 5.3,4.55 7.52,7.25 2.2,2.69 4.04,5.68 5.29,8.97 -0.92,-3.39 -2.63,-6.57 -4.76,-9.38 -2.17,-2.83 -4.79,-5.25 -7.52,-7.5 -2.76,-2.22 -5.75,-4.16 -8.82,-5.9 -1.46,-0.82 -2.95,-1.59 -4.46,-2.31 z"
   id="path66" />&#10;				</g>&#10;				<g
   id="g68">&#10;					<path
   class="st0"
   d="m 830.17,318.11 c 0,0.14 0.02,0.27 0.03,0.41 v 0.02 c 3.82,3.77 7.78,7.4 11.7,11.07 2.47,2.22 5,4.37 7.57,6.45 2.42,1.94 4.88,3.87 7.38,5.68 0.17,0.14 0.34,0.26 0.51,0.38 -0.17,-0.15 -0.36,-0.31 -0.53,-0.46 -2.3,-2.05 -4.62,-4.06 -6.94,-6.09 -2.49,-2.18 -5.01,-4.33 -7.42,-6.58 -4.06,-3.69 -8.12,-7.37 -12.3,-10.88 z"
   id="path67" />&#10;				</g>&#10;				<g
   id="g69">&#10;					<path
   class="st5"
   d="m 845.69,360.75 c 0,0 13.39,19.92 20.21,26.75 6.82,6.82 15.35,10.23 17.05,27.28 1.71,17.05 1.71,69.91 1.71,69.91 0,0 -3.41,-35.81 -6.82,-52.86 -3.42,-17.05 -32.15,-71.08 -32.15,-71.08 z"
   id="path68" />&#10;				</g>&#10;			</g>&#10;			<g
   id="g71">&#10;				<path
   class="st8"
   d="m 865.04,471.9 c -0.24,6.35 -0.14,11.62 0,15.35 0.73,18.95 3.97,32.87 5.12,37.51 1.27,5.12 2.54,9.25 3.41,11.94 0.57,-0.57 1.14,-1.14 1.71,-1.71 -3.08,-11.29 -5.82,-25.08 -6.82,-40.93 -0.59,-9.3 -0.49,-17.87 0,-25.58 -1.14,1.15 -2.28,2.28 -3.42,3.42 z"
   id="path70" />&#10;			</g>&#10;			<g
   id="g72">&#10;				<path
   class="st5"
   d="m 884.47,458.51 c 0,0 7.85,61.14 4.44,74.78 h -1.71 l -7.22,-88.43 z"
   id="path71" />&#10;			</g>&#10;			<g
   id="g73">&#10;				<path
   class="st8"
   d="m 906.75,504.75 c 0,0 -0.79,23.42 -9.31,30.24 v -1.71 c 0,0 6.66,-19.56 6.74,-28.54 h 2.57 z"
   id="path72" />&#10;			</g>&#10;		</g>&#10;		<g
   id="g75">&#10;			<path
   class="st9"
   d="m 847.02,627.79 c 1.53,-34.52 10.2,-49.61 7.12,-78.36 -1.28,-11.94 -4.06,-21.37 -5.94,-26.89 h 36.59 2.59 36.59 c -1.88,5.52 -4.65,14.95 -5.94,26.89 -3.08,28.76 5.59,43.85 7.12,78.36 0.34,7.85 0.47,20.03 -1.19,35.2 0,5.47 -4.44,9.91 -9.91,9.91 h -26.68 -2.59 -26.68 c -5.47,0 -9.91,-4.44 -9.91,-9.91 -1.64,-15.17 -1.51,-27.35 -1.17,-35.2 z"
   id="path74" />&#10;		</g>&#10;		<g
   id="g112">&#10;			<g
   id="g76">&#10;				<polygon
   class="st0"
   points="915.64,571.56 914.17,571.56 914.17,568.27 915.64,568.26 "
   id="polygon75" />&#10;			</g>&#10;			<g
   id="g77">&#10;				<polygon
   class="st0"
   points="908.29,571.25 907.12,571.26 907.11,568.63 908.29,568.62 "
   id="polygon76" />&#10;			</g>&#10;			<g
   id="g78">&#10;				<polygon
   class="st0"
   points="899.52,571.13 898.58,571.15 898.57,569.04 899.51,569.02 "
   id="polygon77" />&#10;			</g>&#10;			<g
   id="g79">&#10;				<polygon
   class="st0"
   points="890.66,571.29 889.91,571.32 889.89,569.63 890.65,569.61 "
   id="polygon78" />&#10;			</g>&#10;			<g
   id="g80">&#10;				<polygon
   class="st0"
   points="882.2,571.48 881.6,571.51 881.59,570.16 882.19,570.13 "
   id="polygon79" />&#10;			</g>&#10;			<g
   id="g81">&#10;				<polygon
   class="st0"
   points="873.59,571.74 873.11,571.76 873.1,570.68 873.58,570.66 "
   id="polygon80" />&#10;			</g>&#10;			<g
   id="g82">&#10;				<polygon
   class="st0"
   points="915.64,581.21 914.18,581.21 914.18,577.91 915.64,577.91 "
   id="polygon81" />&#10;			</g>&#10;			<g
   id="g83">&#10;				<polygon
   class="st0"
   points="908.32,580.9 907.15,580.91 907.14,578.28 908.31,578.27 "
   id="polygon82" />&#10;			</g>&#10;			<g
   id="g84">&#10;				<polygon
   class="st0"
   points="899.57,580.78 898.63,580.8 898.62,578.69 899.56,578.67 "
   id="polygon83" />&#10;			</g>&#10;			<g
   id="g85">&#10;				<polygon
   class="st0"
   points="890.73,580.94 889.98,580.97 889.97,579.28 890.72,579.26 "
   id="polygon84" />&#10;			</g>&#10;			<g
   id="g86">&#10;				<polygon
   class="st0"
   points="882.29,581.13 881.7,581.15 881.68,579.81 882.28,579.78 "
   id="polygon85" />&#10;			</g>&#10;			<g
   id="g87">&#10;				<polygon
   class="st0"
   points="873.71,581.38 873.23,581.41 873.22,580.33 873.7,580.3 "
   id="polygon86" />&#10;			</g>&#10;			<g
   id="g88">&#10;				<polygon
   class="st0"
   points="915.65,590.85 914.18,590.86 914.18,587.56 915.65,587.56 "
   id="polygon87" />&#10;			</g>&#10;			<g
   id="g89">&#10;				<polygon
   class="st0"
   points="908.34,590.55 907.17,590.56 907.16,587.93 908.33,587.91 "
   id="polygon88" />&#10;			</g>&#10;			<g
   id="g90">&#10;				<polygon
   class="st0"
   points="899.62,590.43 898.68,590.45 898.67,588.34 899.61,588.32 "
   id="polygon89" />&#10;			</g>&#10;			<g
   id="g91">&#10;				<polygon
   class="st0"
   points="890.8,590.59 890.05,590.61 890.04,588.93 890.79,588.9 "
   id="polygon90" />&#10;			</g>&#10;			<g
   id="g92">&#10;				<polygon
   class="st0"
   points="882.39,590.77 881.79,590.8 881.78,589.45 882.38,589.43 "
   id="polygon91" />&#10;			</g>&#10;			<g
   id="g93">&#10;				<polygon
   class="st0"
   points="873.83,591.03 873.35,591.05 873.33,589.97 873.81,589.95 "
   id="polygon92" />&#10;			</g>&#10;			<g
   id="g94">&#10;				<polygon
   class="st0"
   points="915.65,600.5 914.19,600.51 914.19,597.21 915.65,597.21 "
   id="polygon93" />&#10;			</g>&#10;			<g
   id="g95">&#10;				<polygon
   class="st0"
   points="908.36,600.19 907.2,600.21 907.19,597.57 908.36,597.56 "
   id="polygon94" />&#10;			</g>&#10;			<g
   id="g96">&#10;				<polygon
   class="st0"
   points="899.66,600.07 898.73,600.09 898.72,597.98 899.65,597.97 "
   id="polygon95" />&#10;			</g>&#10;			<g
   id="g97">&#10;				<polygon
   class="st0"
   points="890.87,600.24 890.12,600.26 890.11,598.57 890.86,598.55 "
   id="polygon96" />&#10;			</g>&#10;			<g
   id="g98">&#10;				<polygon
   class="st0"
   points="882.48,600.42 881.89,600.45 881.87,599.1 882.47,599.07 "
   id="polygon97" />&#10;			</g>&#10;			<g
   id="g99">&#10;				<polygon
   class="st0"
   points="873.94,600.67 873.47,600.7 873.45,599.62 873.93,599.59 "
   id="polygon98" />&#10;			</g>&#10;			<g
   id="g100">&#10;				<polygon
   class="st0"
   points="915.65,610.15 914.2,610.16 914.2,606.86 915.65,606.86 "
   id="polygon99" />&#10;			</g>&#10;			<g
   id="g101">&#10;				<polygon
   class="st0"
   points="908.39,609.84 907.22,609.86 907.22,607.22 908.38,607.21 "
   id="polygon100" />&#10;			</g>&#10;			<g
   id="g102">&#10;				<polygon
   class="st0"
   points="899.71,609.72 898.78,609.74 898.77,607.63 899.7,607.61 "
   id="polygon101" />&#10;			</g>&#10;			<g
   id="g103">&#10;				<polygon
   class="st0"
   points="890.94,609.88 890.2,609.91 890.18,608.22 890.93,608.2 "
   id="polygon102" />&#10;			</g>&#10;			<g
   id="g104">&#10;				<polygon
   class="st0"
   points="882.58,610.07 881.98,610.09 881.97,608.75 882.56,608.72 "
   id="polygon103" />&#10;			</g>&#10;			<g
   id="g105">&#10;				<polygon
   class="st0"
   points="874.06,610.32 873.58,610.34 873.57,609.27 874.05,609.24 "
   id="polygon104" />&#10;			</g>&#10;			<g
   id="g106">&#10;				<polygon
   class="st0"
   points="915.66,619.8 914.21,619.8 914.2,616.51 915.65,616.51 "
   id="polygon105" />&#10;			</g>&#10;			<g
   id="g107">&#10;				<polygon
   class="st0"
   points="908.41,619.49 907.25,619.5 907.24,616.87 908.4,616.86 "
   id="polygon106" />&#10;			</g>&#10;			<g
   id="g108">&#10;				<polygon
   class="st0"
   points="899.76,619.37 898.83,619.39 898.82,617.28 899.75,617.26 "
   id="polygon107" />&#10;			</g>&#10;			<g
   id="g109">&#10;				<polygon
   class="st0"
   points="891.01,619.53 890.27,619.56 890.26,617.87 891,617.85 "
   id="polygon108" />&#10;			</g>&#10;			<g
   id="g110">&#10;				<polygon
   class="st0"
   points="882.67,619.72 882.08,619.74 882.06,618.39 882.66,618.37 "
   id="polygon109" />&#10;			</g>&#10;			<g
   id="g111">&#10;				<polygon
   class="st0"
   points="874.18,619.97 873.7,619.99 873.69,618.91 874.16,618.88 "
   id="polygon110" />&#10;			</g>&#10;		</g>&#10;	</g>&#10;	<g
   id="flower_00000072994402045592482110000013543083698636303509_">&#10;		<g
   id="g113">&#10;			&#10;		</g>&#10;		&#10;		&#10;		<g
   id="g115">&#10;			&#10;		</g>&#10;		<g
   id="g116">&#10;			&#10;		</g>&#10;		<g
   id="g117">&#10;			&#10;		</g>&#10;		<g
   id="g118">&#10;			&#10;		</g>&#10;		<g
   id="g119">&#10;			&#10;		</g>&#10;		&#10;		&#10;		&#10;		&#10;		&#10;		&#10;		&#10;		<g
   id="g127">&#10;			&#10;		</g>&#10;		<g
   id="g128">&#10;			&#10;		</g>&#10;		&#10;		&#10;		<path
   class="st0"
   d="m 151.43,207.61 c 9.59,7.73 18.79,15.93 27.69,24.45 8.88,8.53 17.42,17.45 25.41,26.83 3.98,4.71 7.8,9.55 11.39,14.57 3.59,5.01 6.96,10.2 9.88,15.64 2.88,5.45 5.39,11.15 6.87,17.16 1.44,5.97 1.77,12.41 -0.31,18.26 1.94,-5.89 1.47,-12.27 -0.08,-18.16 -1.55,-5.94 -4.1,-11.57 -7.03,-16.96 -5.95,-10.75 -13.4,-20.61 -21.34,-29.98 -7.92,-9.4 -16.45,-18.29 -25.22,-26.91 -4.39,-4.31 -8.87,-8.53 -13.41,-12.68 -4.54,-4.16 -9.13,-8.26 -13.85,-12.22 z"
   id="path131" />&#10;		<path
   class="st0"
   d="m 208.66,327.78 c 0.55,3.52 1.2,7.03 1.9,10.53 0.67,3.5 1.4,6.99 2.18,10.47 1.57,6.95 3.27,13.87 5.36,20.68 2.02,6.82 4.4,13.55 7.36,20.02 1.48,3.23 3.13,6.39 5.04,9.39 1.89,3.01 4.09,5.85 6.77,8.21 -2.76,-2.26 -5.09,-5.04 -7.1,-7.99 -2,-2.97 -3.71,-6.12 -5.28,-9.34 -1.58,-3.21 -2.9,-6.54 -4.16,-9.89 -1.26,-3.35 -2.38,-6.74 -3.42,-10.16 -2.04,-6.85 -3.76,-13.79 -5.19,-20.79 -0.71,-3.5 -1.37,-7.01 -1.96,-10.53 -0.56,-3.52 -1.08,-7.06 -1.5,-10.6 z"
   id="path132" />&#10;		&#10;		&#10;		<path
   class="st0"
   d="m 360.78,377.26 c -3.65,1.59 -7.23,3.3 -10.79,5.07 -3.56,1.75 -7.1,3.57 -10.58,5.47 -6.97,3.8 -13.84,7.81 -20.37,12.31 -6.57,4.43 -12.85,9.33 -18.45,14.94 -2.78,2.82 -5.38,5.83 -7.59,9.11 -2.22,3.27 -4.06,6.85 -5.05,10.71 0.86,-3.89 2.58,-7.56 4.71,-10.93 2.16,-3.36 4.72,-6.44 7.47,-9.33 2.73,-2.91 5.77,-5.52 8.85,-8.05 3.09,-2.53 6.31,-4.88 9.6,-7.13 3.29,-2.24 6.67,-4.36 10.1,-6.38 3.43,-2.02 6.89,-3.99 10.43,-5.81 3.53,-1.83 7.1,-3.6 10.71,-5.28 3.62,-1.65 7.27,-3.24 10.96,-4.7 z"
   id="path135" />&#10;		<path
   class="st0"
   d="m 190.67,486.37 c 2.12,-4.23 4.66,-8.25 7.43,-12.09 2.78,-3.84 5.86,-7.47 9.25,-10.8 1.7,-1.66 3.51,-3.21 5.41,-4.65 1.89,-1.44 3.87,-2.79 5.99,-3.88 2.11,-1.1 4.3,-2.08 6.59,-2.71 2.3,-0.62 4.66,-1 7.02,-1.02 -4.72,0.38 -9.26,1.93 -13.32,4.28 -1.03,0.57 -2,1.22 -2.99,1.85 -0.96,0.68 -1.93,1.34 -2.84,2.07 -1.85,1.44 -3.62,2.99 -5.29,4.65 -3.4,3.25 -6.45,6.85 -9.32,10.59 -1.44,1.87 -2.81,3.79 -4.13,5.74 -1.33,1.94 -2.59,3.94 -3.8,5.97 z"
   id="path136" />&#10;		&#10;		<g
   id="g172">&#10;			<polygon
   class="st0"
   points="219.2,611.65 220.24,611.66 220.24,609.34 219.2,609.34 "
   id="polygon137" />&#10;			<polygon
   class="st0"
   points="224.37,611.44 225.2,611.45 225.2,609.59 224.38,609.59 "
   id="polygon138" />&#10;			<polygon
   class="st0"
   points="230.54,611.35 231.2,611.37 231.21,609.88 230.55,609.87 "
   id="polygon139" />&#10;			<polygon
   class="st0"
   points="236.78,611.47 237.31,611.49 237.32,610.3 236.79,610.28 "
   id="polygon140" />&#10;			<polygon
   class="st0"
   points="242.73,611.6 243.15,611.62 243.16,610.67 242.74,610.65 "
   id="polygon141" />&#10;			<polygon
   class="st0"
   points="248.79,611.78 249.12,611.8 249.13,611.04 248.79,611.02 "
   id="polygon142" />&#10;			<polygon
   class="st0"
   points="219.2,618.44 220.23,618.45 220.23,616.13 219.2,616.12 "
   id="polygon143" />&#10;			<polygon
   class="st0"
   points="224.36,618.23 225.18,618.23 225.18,616.38 224.36,616.37 "
   id="polygon144" />&#10;			<polygon
   class="st0"
   points="230.51,618.14 231.17,618.16 231.18,616.67 230.52,616.66 "
   id="polygon145" />&#10;			<polygon
   class="st0"
   points="236.73,618.26 237.26,618.27 237.27,617.09 236.74,617.07 "
   id="polygon146" />&#10;			<polygon
   class="st0"
   points="242.66,618.39 243.09,618.4 243.09,617.46 242.67,617.44 "
   id="polygon147" />&#10;			<polygon
   class="st0"
   points="248.7,618.57 249.04,618.59 249.05,617.83 248.71,617.81 "
   id="polygon148" />&#10;			<polygon
   class="st0"
   points="219.2,625.23 220.23,625.23 220.23,622.92 219.2,622.91 "
   id="polygon149" />&#10;			<polygon
   class="st0"
   points="224.34,625.01 225.16,625.02 225.17,623.17 224.34,623.16 "
   id="polygon150" />&#10;			<polygon
   class="st0"
   points="230.48,624.93 231.13,624.94 231.14,623.46 230.48,623.45 "
   id="polygon151" />&#10;			<polygon
   class="st0"
   points="236.68,625.04 237.21,625.06 237.22,623.87 236.69,623.86 "
   id="polygon152" />&#10;			<polygon
   class="st0"
   points="242.6,625.17 243.02,625.19 243.03,624.24 242.61,624.23 "
   id="polygon153" />&#10;			<polygon
   class="st0"
   points="248.62,625.35 248.96,625.37 248.97,624.61 248.63,624.59 "
   id="polygon154" />&#10;			<polygon
   class="st0"
   points="219.2,632.02 220.22,632.02 220.22,629.7 219.2,629.7 "
   id="polygon155" />&#10;			<polygon
   class="st0"
   points="224.32,631.8 225.14,631.81 225.15,629.96 224.33,629.95 "
   id="polygon156" />&#10;			<polygon
   class="st0"
   points="230.44,631.72 231.1,631.73 231.11,630.25 230.45,630.23 "
   id="polygon157" />&#10;			<polygon
   class="st0"
   points="236.63,631.83 237.16,631.85 237.16,630.66 236.64,630.65 "
   id="polygon158" />&#10;			<polygon
   class="st0"
   points="242.53,631.96 242.95,631.98 242.96,631.03 242.54,631.01 "
   id="polygon159" />&#10;			<polygon
   class="st0"
   points="248.54,632.14 248.88,632.16 248.88,631.4 248.55,631.38 "
   id="polygon160" />&#10;			<polygon
   class="st0"
   points="219.19,638.81 220.22,638.81 220.22,636.49 219.2,636.49 "
   id="polygon161" />&#10;			<polygon
   class="st0"
   points="224.31,638.59 225.12,638.6 225.13,636.75 224.31,636.74 "
   id="polygon162" />&#10;			<polygon
   class="st0"
   points="230.41,638.51 231.07,638.52 231.07,637.03 230.42,637.02 "
   id="polygon163" />&#10;			<polygon
   class="st0"
   points="236.58,638.62 237.1,638.64 237.11,637.45 236.59,637.43 "
   id="polygon164" />&#10;			<polygon
   class="st0"
   points="242.47,638.75 242.88,638.77 242.89,637.82 242.48,637.8 "
   id="polygon165" />&#10;			<polygon
   class="st0"
   points="248.46,638.93 248.79,638.94 248.8,638.18 248.47,638.17 "
   id="polygon166" />&#10;			<polygon
   class="st0"
   points="219.19,645.59 220.21,645.6 220.21,643.28 219.19,643.28 "
   id="polygon167" />&#10;			<polygon
   class="st0"
   points="224.29,645.38 225.11,645.39 225.11,643.53 224.3,643.53 "
   id="polygon168" />&#10;			<polygon
   class="st0"
   points="230.38,645.29 231.03,645.31 231.04,643.82 230.39,643.81 "
   id="polygon169" />&#10;			<polygon
   class="st0"
   points="236.53,645.41 237.05,645.42 237.06,644.24 236.54,644.22 "
   id="polygon170" />&#10;			<polygon
   class="st0"
   points="242.4,645.54 242.82,645.55 242.83,644.6 242.41,644.59 "
   id="polygon171" />&#10;			<polygon
   class="st0"
   points="248.38,645.71 248.71,645.73 248.72,644.97 248.38,644.95 "
   id="polygon172" />&#10;		</g>&#10;		<g
   id="g174">&#10;			<g
   id="g173">&#10;				&#10;			</g>&#10;		</g>&#10;		&#10;		&#10;		&#10;		&#10;		&#10;		&#10;		&#10;	</g>&#10;	<g
   id="g282">&#10;		<g
   id="g270">&#10;			<g
   id="g180">&#10;				<rect
   x="444.72"
   y="473.20999"
   class="st13"
   width="15.58"
   height="190.13"
   id="rect180" />&#10;			</g>&#10;			<g
   id="g181">&#10;				<path
   class="st13"
   d="m 379.08,673.8 h 146.85 c 0,-2.47 -0.72,-4.76 -1.98,-6.68 -0.47,-0.71 -1,-1.38 -1.6,-1.98 -2.21,-2.21 -5.27,-3.58 -8.66,-3.58 H 391.32 c -4.29,0 -8.08,2.21 -10.26,5.56 -1.25,1.92 -1.98,4.21 -1.98,6.68 z"
   id="path181" />&#10;			</g>&#10;			<g
   id="g182">&#10;				<rect
   x="444.72"
   y="479.32999"
   class="st14"
   width="15.58"
   height="31.15"
   id="rect181" />&#10;			</g>&#10;			<g
   id="g183">&#10;				<path
   class="st13"
   d="m 257.65,290.83 c 28.3,60.62 56.61,121.22 84.9,181.83 2.93,-0.09 5.87,-0.18 8.8,-0.28 0.89,-0.03 1.77,-0.06 2.66,-0.09 53.67,-1.73 107.32,-3.45 160.99,-5.19 l -7.53,-16.36 0.61,-0.07 c -3.76,-8.04 -7.51,-16.08 -11.26,-24.11 -11.44,-24.5 -22.87,-49 -34.32,-73.49 -8.45,-18.1 -16.89,-36.18 -25.34,-54.27 -4.18,-8.95 -8.36,-17.9 -12.54,-26.85 -3.68,-7.86 -11.56,-12.89 -20.24,-12.89 H 277.89 c -16.34,-0.01 -27.15,16.97 -20.24,31.77 z"
   id="path182" />&#10;			</g>&#10;			<g
   id="g184">&#10;				<path
   class="st14"
   d="m 348.67,458.22 c 0.05,3.84 0.76,7.45 0.76,7.45 0.45,2.36 1.1,4.6 1.93,6.71 0.89,-0.03 1.77,-0.06 2.66,-0.09 53.67,-1.73 107.32,-3.45 160.99,-5.19 l -7.53,-16.36 0.61,-0.07 c -3.76,-8.04 -7.51,-16.08 -11.26,-24.11 -11.44,-24.5 -22.87,-49 -34.32,-73.49 -8.45,-18.1 -16.89,-36.18 -25.34,-54.27 -4.33,-9.08 -8.66,-18.17 -12.99,-27.25 -22.44,24.47 -36.66,47.78 -45.44,64.63 -0.01,-0.02 -30.87,59.16 -30.07,122.04 z"
   id="path183" />&#10;			</g>&#10;			<g
   id="g186">&#10;				<g
   id="g185">&#10;					<path
   class="st0"
   d="m 269.39,291.07 c -3.33,-7.13 -2.79,-15.34 1.43,-21.98 4.23,-6.64 11.44,-10.6 19.31,-10.6 h 126.48 c 8.85,0 16.99,5.18 20.74,13.21 l 68.27,146.19 15.51,33.22 -0.6,0.08 7.57,16.43 -173.65,5.6 z m 249.5,159.22 0.59,-0.08 -83.14,-178.04 c -3.56,-7.63 -11.31,-12.56 -19.73,-12.56 H 290.13 c -7.48,0 -14.35,3.77 -18.37,10.08 -4.02,6.31 -4.53,14.13 -1.36,20.91 l 84.75,181.49 171.24,-5.52 z"
   id="path184" />&#10;				</g>&#10;			</g>&#10;			<g
   id="g187">&#10;				<path
   class="st13"
   d="m 354.06,484.89 h 226.03 c 6.45,0 11.68,-5.23 11.68,-11.68 v 0 c 0,-6.45 -5.23,-11.68 -11.68,-11.68 H 354.06 c -6.45,0 -11.68,5.23 -11.68,11.68 v 0 c 0,6.45 5.23,11.68 11.68,11.68 z"
   id="path186" />&#10;			</g>&#10;			<g
   id="g188">&#10;				<path
   class="st14"
   d="m 379.08,673.8 h 146.85 c 0,-2.47 -0.72,-4.76 -1.98,-6.68 H 381.06 c -1.25,1.92 -1.98,4.21 -1.98,6.68 z"
   id="path187" />&#10;			</g>&#10;			<g
   id="man_00000026858762536868682930000016253796715867205539_">&#10;				<g
   id="g197">&#10;					<path
   class="st15"
   d="m 538.46,657.85 c 2.28,3.37 5.26,4.78 9.27,6.67 4.29,2.03 7.83,3.7 11,2.12 2.61,-1.3 7.29,-5.01 7.7,-6.44 2.84,-10.95 -8.61,-81.32 -8.61,-81.32 l -41.64,5.82 19.99,60.05 c -0.34,1.72 -1.32,7.77 2.29,13.1 z"
   id="path188" />&#10;					<path
   class="st16"
   d="m 533.83,622.65 c 2.99,0.94 5.99,2 9.1,2.42 3.56,0.48 7.14,0.8 10.73,1 3.63,0.2 7.27,0.29 10.91,0.3 -2.68,-22.51 -6.75,-47.49 -6.75,-47.49 l -41.64,5.82 12.12,36.43 c 1.88,0.4 3.72,0.95 5.53,1.52 z"
   id="path189" />&#10;					<path
   class="st10"
   d="m 522.72,668.37 c 0.19,1.64 0.4,3.29 0.6,4.92 h 37.58 c 0.83,-1.33 2.23,-3.58 3.83,-6.13 3.19,-5.13 7.18,-11.52 8.93,-14.32 0.19,-1.6 0.27,-3.76 -0.13,-6.24 -0.29,-1.86 -0.8,-3.5 -1.35,-4.87 -0.53,-1.32 -1.1,-2.38 -1.59,-3.2 -1.33,-1.62 -3.66,-3.93 -7.16,-5.11 -6.35,-2.14 -13.9,0.32 -19.41,6.13 -1.18,1.23 -3.01,2.59 -4.09,2.04 -1.52,-0.76 -0.39,-4.87 -1.02,-5.11 -1.27,-0.51 -8.61,15.01 -15.66,30.66 -0.16,0.41 -0.35,0.81 -0.53,1.23 z"
   id="path190" />&#10;					<path
   class="st8"
   d="m 522.72,668.37 c 0.19,1.64 0.4,3.29 0.6,4.92 h 34.29 c 3.23,-2.45 2.83,-4.65 -3.86,-6.13 -27.52,-6.13 -21.98,-9.67 -13.56,-21.26 6.48,-8.91 24.18,-5.98 32,-4.16 -0.53,-1.32 -1.1,-2.38 -1.59,-3.2 -1.33,-1.62 -3.66,-3.93 -7.16,-5.11 -6.35,-2.14 -13.9,0.32 -19.41,6.13 -1.18,1.23 -3.01,2.59 -4.09,2.04 -1.52,-0.76 -0.39,-4.87 -1.02,-5.11 -1.27,-0.51 -8.61,15.01 -15.66,30.66 -0.17,0.4 -0.36,0.8 -0.54,1.22 z"
   id="path191" />&#10;					<path
   class="st1"
   d="m 522.56,667.15 c 0.05,0.41 0.1,0.81 0.15,1.22 0.19,1.64 0.4,3.28 0.6,4.92 h 66.7 v -6.11 c 0,-0.01 0,-0.01 -0.01,-0.02 h -67.44 z"
   id="path192" />&#10;					<path
   class="st1"
   d="m 540.96,673.28 c 16.35,0 32.71,0 49.06,0 0.1,-2.37 -0.03,-7.38 -3.07,-12.27 -5.06,-8.13 -14.25,-9.63 -17.14,-10.1 -9.44,-1.54 -23.32,1.16 -27.83,11.12 -1.95,4.34 -1.53,8.67 -1.02,11.25 z"
   id="path193" />&#10;					<path
   class="st17"
   d="m 575.71,652.26 c -3.52,-0.32 -6.99,-0.38 -10.42,-0.08 -3.41,0.33 -6.8,0.91 -9.96,2.12 -1.58,0.58 -3.13,1.27 -4.58,2.12 -1.49,0.8 -2.87,1.78 -4.19,2.85 -2.61,2.17 -4.83,4.84 -6.63,7.88 0.96,-3.41 2.91,-6.58 5.47,-9.15 2.56,-2.58 5.78,-4.49 9.17,-5.77 3.42,-1.26 7.06,-1.78 10.64,-1.76 3.6,0.02 7.18,0.58 10.5,1.79 z"
   id="path194" />&#10;					<path
   class="st17"
   d="m 590.02,667.15 c -11.24,0.79 -22.49,0.97 -33.73,1 -11.24,-0.03 -22.49,-0.21 -33.73,-1 11.24,-0.79 22.49,-0.97 33.73,-1 11.25,0.03 22.49,0.21 33.73,1 z"
   id="path195" />&#10;					<path
   class="st17"
   d="m 570.13,647.62 c -3.74,0.16 -7.32,0.2 -10.89,0.51 -1.79,0.11 -3.55,0.38 -5.32,0.64 -1.78,0.28 -3.51,0.71 -5.36,1.12 1.47,-1.17 3.17,-2.07 4.97,-2.66 1.79,-0.6 3.66,-0.97 5.54,-1.13 1.88,-0.13 3.77,-0.12 5.62,0.13 1.87,0.24 3.71,0.64 5.44,1.39 z"
   id="path196" />&#10;					<path
   class="st17"
   d="m 570.13,641.49 c -3.74,0.16 -7.32,0.2 -10.89,0.51 -1.79,0.11 -3.55,0.38 -5.32,0.64 -1.78,0.28 -3.51,0.71 -5.36,1.12 1.47,-1.17 3.17,-2.07 4.97,-2.66 1.79,-0.6 3.66,-0.97 5.54,-1.13 1.88,-0.13 3.77,-0.12 5.62,0.13 1.87,0.23 3.71,0.64 5.44,1.39 z"
   id="path197" />&#10;				</g>&#10;				<g
   id="g207">&#10;					<path
   class="st15"
   d="m 634.59,643.28 c 12.27,10.48 31.36,1.27 31.36,1.27 -0.87,-11.47 -17.25,-49.52 -17.25,-62.38 -10.83,3.87 -22.79,7.01 -33.62,10.88 l 18.66,42.81 z"
   id="path198" />&#10;					<path
   class="st16"
   d="m 634.53,624.85 c 8.66,0.04 17.31,-0.12 25.96,-0.55 -5.06,-15.31 -11.78,-33.89 -11.78,-42.13 -10.83,3.87 -22.79,7.01 -33.62,10.88 l 13.83,31.74 c 1.87,0.01 3.74,0.05 5.61,0.06 z"
   id="path199" />&#10;					<path
   class="st10"
   d="m 624.74,673.28 h 102.12 c 0.82,-5.38 0.62,-8.99 -0.5,-11.54 -1.11,-2.58 -3.18,-4.08 -6.08,-5.27 -5.79,-2.36 -14.91,-3.45 -26.63,-9.19 -4.7,-2.29 -8.48,-4.03 -11.55,-5.37 -1.95,-0.85 -4.16,-1.51 -7.15,-3.02 -2.19,-1.11 -3.97,-2.2 -5.29,-3.09 -0.27,-0.17 -0.52,-0.34 -0.76,-0.5 0.09,-0.53 1.19,-7.66 -1.04,-8.56 -0.78,-0.32 -1.78,0.24 -3.4,1.13 -2.6,1.44 -4.24,3.11 -4.54,3.4 -3.99,4.1 -7.46,10.39 -8.14,11.63 -1.6,0.42 -3.82,-2.2 -6.79,-4.5 -2.95,-2.3 -6.64,-4.29 -11.18,-2.59 -1.13,5.32 -2.31,10.54 -3.53,15.65 -1.22,5.11 -2.46,10.1 -3.74,14.99 -0.3,1.15 -0.59,2.28 -0.9,3.42 -0.28,1.16 -0.59,2.29 -0.9,3.41 z"
   id="path200" />&#10;					<path
   class="st8"
   d="m 624.74,673.28 h 102.12 c 0.82,-5.38 0.62,-8.99 -0.5,-11.54 -22.98,-0.34 -66.62,-0.94 -73.26,-0.94 -9.08,0 -4.54,-9.08 4.54,-13.62 5.33,-2.67 9.5,-7.68 12.02,-11.37 -0.27,-0.17 -0.52,-0.34 -0.76,-0.5 0.09,-0.53 1.19,-7.66 -1.04,-8.56 -0.78,-0.32 -1.78,0.24 -3.4,1.13 -2.6,1.44 -4.24,3.11 -4.54,3.4 -3.99,4.1 -7.46,10.39 -8.14,11.63 -1.6,0.42 -3.82,-2.2 -6.79,-4.5 -2.95,-2.3 -6.64,-4.29 -11.18,-2.59 -1.13,5.32 -2.31,10.54 -3.53,15.65 -1.22,5.11 -2.46,10.1 -3.74,14.99 -0.3,1.15 -0.59,2.28 -0.9,3.42 -0.28,1.15 -0.59,2.28 -0.9,3.4 z"
   id="path201" />&#10;					<path
   class="st1"
   d="m 687.74,673.28 h 39.12 c 0.62,-2.41 1.25,-6.07 0.24,-9.52 -0.3,-1.02 -0.74,-2.02 -1.37,-2.96 -2.66,-3.97 -7.36,-4.99 -10.21,-5.67 0,0 -6.84,-1.65 -21.87,-7.84 -3.82,5.64 -7.1,14.1 -5.91,25.99 z"
   id="path202" />&#10;					<path
   class="st1"
   d="m 624.74,673.28 h 102.12 c 0.47,-1.78 0.92,-4.24 0.71,-6.81 H 626.55 c -0.59,2.3 -1.19,4.57 -1.81,6.81 z"
   id="path203" />&#10;					<path
   class="st17"
   d="m 725.17,665.91 c -16.88,0.99 -33.76,1.29 -50.64,1.42 -16.88,0.06 -33.77,-0.05 -50.66,-0.85 16.88,-0.99 33.76,-1.29 50.64,-1.42 16.88,-0.06 33.77,0.05 50.66,0.85 z"
   id="path204" />&#10;					<path
   class="st17"
   d="m 694.02,647.44 -1.85,4.65 c -0.58,1.53 -1.16,3.03 -1.64,4.57 -0.53,1.52 -0.99,3.07 -1.42,4.64 -0.46,1.57 -0.8,3.17 -1.32,4.83 -0.42,-1.67 -0.57,-3.41 -0.42,-5.13 0.02,-0.87 0.21,-1.71 0.34,-2.56 0.2,-0.84 0.4,-1.68 0.68,-2.5 0.56,-1.63 1.28,-3.21 2.22,-4.65 0.91,-1.46 2.01,-2.81 3.41,-3.85 z"
   id="path205" />&#10;					<path
   class="st17"
   d="m 674.67,639.24 c -1.84,1.69 -3.43,3.15 -4.87,4.8 -0.71,0.82 -1.43,1.66 -2.08,2.57 -0.71,0.89 -1.31,1.85 -2.12,2.84 -0.21,-2.52 0.84,-5.02 2.51,-6.91 0.83,-0.95 1.84,-1.75 2.95,-2.33 1.11,-0.57 2.33,-0.99 3.61,-0.97 z"
   id="path206" />&#10;					<path
   class="st17"
   d="m 683.75,642.65 c -1.84,1.69 -3.43,3.15 -4.87,4.8 -0.71,0.82 -1.43,1.66 -2.08,2.57 -0.71,0.89 -1.31,1.85 -2.12,2.84 -0.21,-2.52 0.84,-5.02 2.51,-6.91 0.83,-0.95 1.84,-1.75 2.96,-2.33 1.1,-0.58 2.32,-1 3.6,-0.97 z"
   id="path207" />&#10;				</g>&#10;				<path
   class="st18"
   d="m 550.28,355.1 c 0,0 -2.94,26.67 19.29,20.53 22.23,-6.15 34.73,-53.24 16.36,-57.97 -18.37,-4.72 -35.65,37.44 -35.65,37.44 z"
   id="path208" />&#10;				<path
   class="st19"
   d="m 511.55,293.14 c 9.49,19.87 19.16,35.38 26.59,46.24 16.51,24.14 25.92,37.56 43.35,45.67 3.9,1.82 10.77,4.57 29.26,5.84 3.18,0.22 6.71,0.39 10.62,0.52 18.5,0.58 73.18,-6.71 105.9,-12.96 0.22,-1.29 5.02,-12.73 5.76,-17.02 -21.88,-5.09 -74.49,-3.32 -96.36,-8.41 -7.42,-1.72 -14.83,-3.46 -22.25,-5.18 -3.85,-0.89 -7.69,-1.79 -11.54,-2.68 -20.43,-30.83 -40.84,-61.65 -61.27,-92.49 -10.47,-5.02 -22.75,-2.99 -30.17,4.69 -8.94,9.23 -9.35,25.02 0.11,35.78 z"
   id="path209" />&#10;				<path
   class="st16"
   d="m 646.52,386.43 c -5.15,-1.64 -10.16,-3.7 -14.85,-6.41 -4.48,-2.59 -8.76,-5.75 -12.02,-9.8 -3.2,-3.98 -5.91,-8.41 -7.95,-13.1 -1.45,-3.34 -2.64,-6.94 -3.01,-10.61 -1.93,-0.45 -3.87,-0.9 -5.8,-1.35 -20.43,-30.83 -40.84,-61.65 -61.27,-92.49 -10.47,-5.02 -22.75,-2.99 -30.17,4.69 -8.94,9.23 -9.34,25.02 0.12,35.77 9.49,19.87 19.16,35.38 26.59,46.24 16.51,24.14 25.92,37.56 43.35,45.67 3.9,1.82 10.77,4.57 29.26,5.84 3.18,0.22 6.71,0.39 10.62,0.52 7.16,0.22 19.75,-0.73 34.38,-2.35 -3.12,-0.78 -6.2,-1.65 -9.25,-2.62 z"
   id="path210" />&#10;				<path
   class="st20"
   d="m 511.8,278.23 c 0.26,17.74 9.21,35.61 19.41,55.91 8.38,16.7 17.15,29.32 23.23,37.36 1.54,-6.6 4.62,-16.17 11.11,-26.26 4.6,-7.17 9.74,-12.76 14.5,-17.04 0.63,-0.56 1.24,-1.1 1.85,-1.62 3.34,-2.83 6.42,-5 8.9,-6.59 -7.34,-10 -12.21,-18.6 -15.15,-24.24 -9.06,-17.32 -12.55,-30.73 -19.47,-42.27 -3.03,-5.06 -6.73,-9.76 -11.84,-14.28 -3.55,-3.14 -6.77,-5.28 -8.65,-6.46 -14.63,11.51 -19.65,23.27 -21.64,29.69 -1.64,5.31 -2.33,10.55 -2.25,15.8 z"
   id="path211" />&#10;				<path
   class="st21"
   d="m 511.8,278.23 c 0.26,17.74 9.21,35.61 19.41,55.91 8.38,16.7 17.15,29.32 23.23,37.36 1.54,-6.6 4.62,-16.17 11.11,-26.26 4.6,-7.17 9.74,-12.76 14.5,-17.04 -8.27,-2.39 -22.32,2.02 -32.68,-3.16 -12.12,-6.06 -19.19,-56.55 -19.19,-56.55 z"
   id="path212" />&#10;				<path
   class="st22"
   d="M 517.66,394.73 604.79,447 c 4.85,2.91 8.44,7.54 10.04,12.97 14.2,50.96 28.41,101.92 42.61,152.88 -5.07,0.8 -10.46,1.49 -16.16,2.02 -6.03,0.56 -11.77,0.87 -17.17,1.01 -4.09,-9.26 -11.09,-24.55 -19.9,-40.81 -5.85,-10.8 -11.16,-19.58 -12,-20.97 -3.19,-5.24 -5.59,-8.92 -7.48,-11.94 -5.24,-8.38 -10.5,-16.47 -15.77,-24.27 -2.23,-3.3 -3.35,-7.22 -3.22,-11.2 0.27,-8.71 0.54,-17.42 0.82,-26.12 -28.92,-12.2 -57.84,-24.4 -86.76,-36.61 0,0 -40.4,-65.64 37.86,-49.23 z"
   id="path213" />&#10;				<path
   class="st22"
   d="m 396.11,424.64 6.85,-59.2 105.52,-5.32 12.62,63.89 c 0,0 -57.23,30.55 -105.36,25.37 -12.26,-1.31 -21.04,-12.48 -19.63,-24.74 z"
   id="path214" />&#10;				<path
   class="st23"
   d="m 384.79,461.38 c 8.17,2.03 16.9,3.96 26.15,5.68 0.01,0 0.02,0.01 0.03,0.01 7.9,1.47 16.17,2.8 24.81,3.91 13.43,1.74 26.11,2.76 37.93,3.28 2.37,0.1 4.71,0.18 7.01,0.25 1.54,15.72 3.08,31.45 4.62,47.17 0.28,2.87 1.03,5.68 2.22,8.3 5.77,12.69 11.52,25.4 17.28,38.1 6.77,14.92 13.54,29.85 20.31,44.77 5.09,0.92 10.84,1.68 17.17,2.02 6.09,0.33 11.72,0.24 16.8,-0.1 1.64,-0.11 3.22,-0.24 4.75,-0.4 -0.6,-8.17 -15.23,-99.24 -22.5,-144.99 -1.29,-8.15 -2.34,-14.86 -3.05,-19.41 -0.34,-2.24 -1.26,-4.32 -2.63,-6.05 -1.21,-1.56 -2.77,-2.83 -4.58,-3.72 -12.76,-6.21 -25.53,-12.39 -38.31,-18.56 -17.48,-8.42 -34.98,-16.8 -52.5,-25.13 -0.03,-0.02 -0.07,-0.03 -0.1,-0.05 -15.42,-7.34 -30.86,-14.65 -46.32,-21.92 -3.87,9.27 -7.92,21.55 -10.1,36.35 -3.08,20.83 -1.25,38.46 1.01,50.49 z"
   id="path215" />&#10;				<path
   class="st20"
   d="m 393.87,374.53 c 3.07,1.4 6.07,2.72 9.01,3.96 21.23,9.03 38.9,14.18 51.58,17.25 10.54,2.54 18.32,3.82 27.26,4.04 1.44,0.04 2.86,0.04 4.25,0.02 13.44,-0.17 24.5,-2.74 32.1,-5.07 0.06,-0.37 0.13,-0.76 0.19,-1.13 8.09,-47.66 16.18,-95.3 24.28,-142.96 0.64,-3.73 1.26,-7.46 1.9,-11.19 -8,-6.58 -17.76,-13.68 -29.4,-20.43 -8.57,-4.97 -16.75,-8.94 -24.24,-12.12 -3.8,-1.36 -9.33,-3.04 -16.16,-4.04 -9.02,-1.32 -15.88,-0.3 -26.26,0 -3.89,0.11 -8.28,0.43 -13.07,1.13 -3.22,0.45 -6.61,1.07 -10.16,1.9 -11.28,2.65 -20.45,6.56 -27.26,10.1 -0.24,9.5 -0.48,19 -0.73,28.51 -0.14,5.57 -0.28,11.15 -0.42,16.72 -0.08,3.04 -0.15,6.07 -0.23,9.11 -0.1,3.95 -0.2,7.9 -0.3,11.85 -0.02,0.83 -0.04,1.67 -0.06,2.49 -0.75,29.96 -1.52,59.91 -2.28,89.86 z"
   id="path216" />&#10;				<path
   class="st24"
   d="m 556.45,285.67 c 3.35,10.05 19.88,33.27 25.44,40.93 3.34,-2.83 6.42,-5 8.9,-6.59 -7.34,-10 -12.21,-18.6 -15.15,-24.24 -9.06,-17.32 -12.55,-30.73 -19.47,-42.27 -0.01,0 -0.01,0 -0.01,0 0,0 -3.75,20.05 0.29,32.17 z"
   id="path217" />&#10;				<path
   class="st21"
   d="m 393.87,374.53 c 3.07,1.4 6.07,2.72 9.01,3.96 0.64,-6.9 3.11,-33.9 3.11,-38.29 v -41.4 c 0,-4.04 4.04,-35.34 4.04,-35.34 l -13.27,-2.23 c -0.08,3.04 -0.15,6.07 -0.23,9.11 -0.1,3.95 -0.2,7.9 -0.3,11.85 -0.79,30.78 -1.58,61.56 -2.36,92.34 z"
   id="path218" />&#10;				<path
   class="st24"
   d="m 485.98,399.8 c 13.44,-0.17 24.5,-2.74 32.1,-5.07 8.15,-48.04 16.31,-96.05 24.47,-144.09 -9.24,27.28 -14.91,49.69 -18.41,65.32 -6.09,27.21 -8.77,48.02 -25.25,69.68 -4.9,6.45 -9.66,11.18 -12.91,14.16 z"
   id="path219" />&#10;				<path
   class="st21"
   d="m 407.62,334.71 c 7.99,6.91 16.65,13.09 25.84,18.3 9.37,5.31 19.28,9.66 29.5,13.05 5.07,1.68 10.23,3.13 15.43,4.33 5.77,1.32 11.51,2.77 17.24,4.23 2.88,0.73 5.77,1.46 8.65,2.17 2.78,0.68 5.58,1.42 8.41,1.91 2.63,0.45 5.29,0.66 7.95,0.92 -0.79,4.66 -1.58,9.33 -2.38,13.99 -0.06,0.37 -0.13,0.76 -0.19,1.13 -7.6,2.33 -18.66,4.9 -32.1,5.07 -1.39,0.02 -2.81,0.02 -4.25,-0.02 -8.95,-0.22 -16.72,-1.49 -27.26,-4.04 -12.68,-3.07 -30.35,-8.22 -51.58,-17.25 -2.94,-1.24 -5.94,-2.55 -9.01,-3.96 0.44,-17.29 0.88,-34.57 1.32,-51.86 3.92,4.23 8.07,8.26 12.43,12.03 z"
   id="path220" />&#10;				<path
   class="st25"
   d="m 473.71,474.25 c 2.37,0.1 4.71,0.18 7.01,0.25 1.54,15.72 3.08,31.45 4.62,47.17 0.28,2.87 1.03,5.68 2.22,8.3 5.77,12.69 11.52,25.4 17.28,38.1 -2.75,-15.56 -7.57,-41.23 -11,-50.15 -5.05,-13.13 0,-43.42 1.01,-50.49 0.65,-4.53 -11.99,1.74 -21.14,6.82 z"
   id="path221" />&#10;				<path
   class="st25"
   d="m 384.79,461.38 c 8.17,2.03 16.9,3.96 26.15,5.68 -24.35,-9.47 -38.27,-36.98 -17.07,-60.2 9.44,-10.34 28.3,-11.88 46.32,-10.39 -15.42,-7.34 -30.86,-14.65 -46.32,-21.92 -3.87,9.27 -7.92,21.55 -10.1,36.35 -3.07,20.82 -1.24,38.45 1.02,50.48 z"
   id="path222" />&#10;				<path
   class="st26"
   d="m 428.21,398.77 c -0.81,4.84 62.11,34.78 87.51,46.65 6.46,3.02 14.03,2.45 19.97,-1.5 v 0 c -1.21,-1.56 -2.77,-2.83 -4.58,-3.72 -12.76,-6.21 -25.53,-12.39 -38.31,-18.56 -17.48,-8.42 -34.98,-16.8 -52.5,-25.13 -6.35,-0.48 -11.7,-0.12 -12.09,2.26 z"
   id="path223" />&#10;				<path
   class="st26"
   d="m 559.12,614.77 c 1.64,-0.11 3.22,-0.24 4.75,-0.4 -0.6,-8.17 -15.23,-99.24 -22.5,-144.99 -2.19,3.97 -4.97,11.55 -6.12,25.33 -1.75,20.93 18.38,99.18 23.87,120.06 z"
   id="path224" />&#10;				<path
   class="st21"
   d="m 427.2,316.97 c 3.11,6.8 6.92,13.28 11.19,19.44 4.28,6.15 9.03,12.02 14.35,17.34 5.32,5.31 11.22,10.12 17.79,13.85 3.29,1.85 6.72,3.46 10.29,4.65 3.59,1.13 7.27,1.97 11,2.27 -3.66,-0.76 -7.24,-1.78 -10.66,-3.2 -3.43,-1.39 -6.68,-3.16 -9.83,-5.08 -3.14,-1.93 -6.11,-4.14 -8.97,-6.47 -2.88,-2.31 -5.59,-4.83 -8.2,-7.45 -2.64,-2.59 -5.13,-5.33 -7.54,-8.15 -2.42,-2.8 -4.72,-5.72 -6.97,-8.67 -2.23,-2.97 -4.39,-5.99 -6.47,-9.09 -2.09,-3.07 -4.07,-6.23 -5.98,-9.44 z"
   id="path225" />&#10;				<path
   class="st21"
   d="m 433.76,323.54 c 3.28,5.58 7.46,10.63 12.14,15.15 4.69,4.51 9.93,8.5 15.68,11.63 5.74,3.13 11.96,5.45 18.41,6.57 6.43,1.21 13.06,1.08 19.41,-0.03 -3.23,0.09 -6.45,0.24 -9.64,-0.1 -1.6,-0.07 -3.18,-0.33 -4.76,-0.52 l -2.36,-0.41 c -0.79,-0.13 -1.57,-0.28 -2.34,-0.48 -3.11,-0.68 -6.15,-1.64 -9.12,-2.78 -2.98,-1.1 -5.85,-2.49 -8.64,-4.02 -2.81,-1.5 -5.5,-3.21 -8.08,-5.07 -2.61,-1.83 -5.09,-3.85 -7.5,-5.95 -2.4,-2.12 -4.71,-4.34 -6.91,-6.67 -2.24,-2.3 -4.32,-4.76 -6.29,-7.32 z"
   id="path226" />&#10;				<path
   class="st18"
   d="m 360.25,304.84 c 0,0 -20.7,17.08 -0.48,28.16 20.22,11.09 62.02,-13.96 52.14,-30.15 -9.87,-16.19 -51.66,1.99 -51.66,1.99 z"
   id="path227" />&#10;				<path
   class="st19"
   d="m 428.31,223.74 c -9.71,-0.27 -29.67,0.55 -44.69,13.2 -6.74,5.67 -10.54,12.08 -19.59,42.03 -12.2,40.36 -17.06,55.19 -10.5,63.58 7.52,9.62 25.47,14.12 37.13,4.95 5.51,-4.34 12.01,-9.7 17.34,-28.85 6.53,-23.45 7.01,-43.07 9.55,-54.45 2.16,-9.68 5.57,-23.65 10.76,-40.46 z"
   id="path228" />&#10;				<g
   id="g256">&#10;					<path
   class="st27"
   d="m 447.53,94.81 c -4,0.5 -8.64,1.27 -11.65,4 -2.79,2.75 -4.06,7.15 -2.18,10.71 4.22,7.93 14.21,7.52 22.11,7.1 -8.17,2.23 -19.31,2.63 -23.89,-6.23 -2.22,-4.27 -0.61,-9.68 3,-12.64 3.51,-2.75 8.33,-3.12 12.61,-2.94 z"
   id="path229" />&#10;					<path
   class="st27"
   d="m 459.71,103.67 c 0,0 0,-17.24 -10.04,-12.86 -10.04,4.38 -17.38,12.7 -12.35,19.13 5.02,6.43 14.39,5.37 14.39,5.37 z"
   id="path230" />&#10;					<path
   class="st19"
   d="m 492.81,239.16 c 2.35,-16.86 3.33,-18.97 5.68,-35.84 l 4.1,-19.03 c -14.98,-6.55 -29.97,-13.1 -44.95,-19.66 0.32,0.14 -0.59,6.53 -0.65,7.22 -0.23,2.51 -0.45,5.02 -0.68,7.53 -0.45,5.02 -0.91,10.04 -1.36,15.07 -0.42,4.68 -1.14,8.52 -1.32,13.02 -0.19,4.54 0.31,9.17 2.06,13.36 2.29,5.48 6.61,9.91 11.47,13.32 5.24,3.67 11.2,6.28 17.45,7.65 2.85,0.64 7.26,1 8.2,-2.64 z"
   id="path231" />&#10;					<path
   class="st16"
   d="m 496.57,217.07 c 0.88,-6.36 1.98,-14.06 3.34,-20.39 -6.87,-4.09 -13.73,-8.17 -20.6,-12.26 0,0 -0.61,26.64 17.26,32.65 z"
   id="path232" />&#10;					<path
   class="st19"
   d="m 458.82,161.63 c 5.08,13.39 6.94,19.5 18.95,27.92 3.24,2.29 7.24,4.73 12.23,7.55 0.55,0.32 1.1,0.61 1.64,0.9 16.47,8.79 26.96,6.92 32.91,0.24 2.13,-2.39 3.68,-5.4 4.71,-8.76 0.33,-1.08 0.51,-2.47 0.58,-4.11 0.05,-1.22 0.03,-2.58 -0.04,-4.05 -0.59,-11.82 -4.96,-30.97 -8.52,-44.96 -0.06,-0.25 -0.12,-0.49 -0.18,-0.73 -0.21,-0.81 -0.42,-1.6 -0.6,-2.37 -0.07,-0.28 -0.14,-0.56 -0.22,-0.83 -0.04,-0.19 -0.09,-0.36 -0.14,-0.55 -0.07,-0.29 -0.16,-0.58 -0.23,-0.86 -0.09,-0.35 -0.18,-0.68 -0.26,-1 -0.02,-0.04 -0.02,-0.09 -0.03,-0.13 -0.09,-0.34 -0.18,-0.68 -0.26,-1 -0.1,-0.37 -0.19,-0.72 -0.28,-1.07 -1.48,-5.49 -2.49,-9 -2.49,-9 -44.85,-25.95 -59.31,7.93 -59.52,30.4 -0.05,4.94 0.59,9.34 1.75,12.41 z"
   id="path233" />&#10;					<path
   class="st0"
   d="m 503.02,148.92 0.05,0.53 c 0.24,1.54 0.96,2.68 1.78,2.63 h 0.01 c 0.81,-0.06 1.39,-1.29 1.43,-2.83 0,-0.18 0.01,-0.36 -0.01,-0.54 -0.05,-0.81 -0.24,-1.54 -0.53,-2.09 -0.34,-0.69 -0.81,-1.1 -1.31,-1.07 -0.9,0.06 -1.53,1.55 -1.42,3.37 z"
   id="path234" />&#10;					<path
   class="st0"
   d="m 518.39,144.84 0.05,0.53 c 0.24,1.54 0.96,2.68 1.78,2.63 h 0.01 c 0.81,-0.06 1.39,-1.29 1.43,-2.83 0,-0.18 0.01,-0.36 -0.01,-0.54 -0.05,-0.81 -0.24,-1.54 -0.53,-2.09 -0.34,-0.69 -0.81,-1.1 -1.31,-1.07 -0.9,0.06 -1.53,1.55 -1.42,3.37 z"
   id="path235" />&#10;					<path
   class="st18"
   d="m 505.98,147.17 c -0.22,0 -0.45,0.01 -0.67,0.03 -0.01,0 -0.08,0.01 -0.09,0.01 -0.04,0.01 -0.09,0.01 -0.13,0.02 -0.09,0.02 -0.19,0.04 -0.28,0.06 -0.19,0.05 -0.38,0.1 -0.57,0.17 -0.11,0.04 -0.08,0.03 -0.21,0.09 -0.09,0.04 -0.18,0.09 -0.26,0.15 -0.08,0.05 -0.15,0.1 -0.23,0.15 -0.03,0.02 -0.03,0.02 0,0 -0.02,0.02 -0.04,0.03 -0.06,0.05 -0.04,0.03 -0.07,0.07 -0.11,0.1 -0.15,0.15 -0.27,0.3 -0.36,0.47 0,0.14 0,0.29 0,0.44 l 0.05,0.53 c 0.24,1.54 0.96,2.68 1.78,2.63 h 0.01 c 0.81,-0.06 1.39,-1.29 1.43,-2.83 0,-0.18 0.01,-0.36 -0.01,-0.54 -0.03,-0.55 -0.13,-1.07 -0.29,-1.53 z"
   id="path236" />&#10;					<path
   class="st18"
   d="m 521.42,143.31 c -0.6,0 -1.19,0.04 -1.78,0.24 -0.45,0.16 -0.85,0.41 -1.26,0.65 -0.01,0.2 -0.01,0.41 0.01,0.63 l 0.05,0.53 c 0.24,1.54 0.96,2.68 1.78,2.63 h 0.01 c 0.81,-0.06 1.39,-1.29 1.43,-2.83 0,-0.18 0.01,-0.36 -0.01,-0.54 -0.03,-0.46 -0.11,-0.9 -0.23,-1.31 z"
   id="path237" />&#10;					<path
   class="st28"
   d="m 458.82,161.63 c 5.08,13.39 6.94,19.5 18.95,27.92 3.24,2.29 7.24,4.73 12.23,7.55 0.55,0.32 1.1,0.61 1.64,0.9 3.07,-3.13 5.77,-6.3 7.53,-9.07 6.81,-10.7 13.03,-15.76 -2.68,-16.5 -15.71,-0.75 -14.42,-34.38 -14.42,-34.38 l -17.13,-3.97 -7.87,15.13 c -0.05,4.95 0.59,9.35 1.75,12.42 z"
   id="path238" />&#10;					<path
   class="st18"
   d="m 446.83,151.35 c 0.12,6.83 1.4,16.01 6.49,25.16 0.84,1.51 1.73,2.92 2.63,4.22 2.51,0.44 4.28,0.05 5.54,-0.52 6.59,-3.01 8.99,-15.63 5.57,-31.38 3.48,-0.98 6.96,-1.95 10.45,-2.93 l 4.8,-4.96 c 0.49,-0.5 0.84,-1.13 1.01,-1.81 0.04,-0.14 0.07,-0.28 0.1,-0.41 0.07,-0.43 0.07,-0.88 0.01,-1.33 l -1.24,-7.69 -0.06,-0.4 -0.25,-1.53 c -0.18,-1.09 0.34,-2.18 1.31,-2.72 l 1.59,-0.9 4,-2.24 c 0.87,-0.5 1.57,-1.19 2.07,-1.99 0.82,-1.34 1.09,-2.99 0.65,-4.57 0,0 2.95,2.73 6.83,4.43 1.88,0.84 3.97,1.43 6.06,1.36 2.88,-0.11 5.84,0.11 8.23,0.35 2.9,0.3 4.93,0.66 4.93,0.66 0,0 3.81,-15.16 -8.28,-18.04 -1.54,-0.38 -3.3,-0.85 -5.25,-1.39 l -0.02,0.01 c -20.13,-6.53 -36.93,-7.9 -43.65,-4 -0.58,0.33 -2.27,1.4 -4.09,2.67 -8.71,6.06 -10.69,9.94 -11.24,11.12 -0.12,0.27 -0.23,0.51 -0.33,0.75 0,0 -0.23,0.56 -0.45,1.22 -0.02,0.07 -0.04,0.13 -0.06,0.2 -0.02,0.06 -0.03,0.1 -0.05,0.16 -0.04,0.15 -0.08,0.32 -0.12,0.51 -0.03,0.19 -0.06,0.4 -0.09,0.62 -0.24,2.5 0.02,7.51 0.48,12.97 0.04,0.49 0.08,0.98 0.13,1.46 0.88,9.97 2.3,20.94 2.3,20.94 z"
   id="path239" />&#10;					<path
   class="st29"
   d="m 482.55,100.63 c 0.3,0.38 5.37,6.45 16.68,7.85 8.9,1.09 12.29,9.23 13.38,13 2.9,0.3 4.93,0.66 4.93,0.66 0,0 3.81,-15.16 -8.28,-18.04 -1.54,-0.38 -3.3,-0.85 -5.25,-1.39 l -0.02,0.01 c -9.17,1.3 -21.08,-2 -21.44,-2.09 z"
   id="path240" />&#10;					<path
   class="st29"
   d="m 467.73,111.03 c 0,0 0.41,1.45 10.18,1.84 5.68,0.23 10.15,3.97 12.92,7.04 0.82,-1.34 1.09,-2.99 0.65,-4.57 0,0 2.95,2.73 6.83,4.43 -12.81,-19.5 -30.58,-8.74 -30.58,-8.74 z"
   id="path241" />&#10;					<path
   class="st18"
   d="m 516.8,162.68 c -1.54,0.5 -4.86,1.84 -7.33,5.16 -0.94,1.26 -1.4,2.37 -1.9,3.53 -1.37,3.21 -2.03,6.69 -1.59,6.85 0.73,0.27 2.75,-8.98 9.02,-10.91 0.53,-0.16 1.03,-0.26 1.49,-0.31 1.18,-0.13 2.34,-0.31 3.5,-0.54 0.85,-0.17 1.8,-0.2 2.76,0.12 3.77,1.24 4.8,6.93 5.48,10.65 0.44,2.41 0.84,6.3 -0.06,11.18 0.37,-0.03 0.74,-0.07 1.11,-0.1 0.82,-5.83 0.36,-10.46 -0.15,-13.39 -0.16,-0.9 -0.83,-4.61 -3.05,-8.65 -0.99,-1.8 -1.68,-2.56 -2.53,-3.11 -2.58,-1.67 -5.75,-0.79 -6.75,-0.48 z"
   id="path242" />&#10;					<path
   class="st18"
   d="m 514.31,195.32 c 0,0 3.49,-10.38 0.75,-15.71 l 7.75,-0.73 c 0,0 -0.9,2.32 -1.58,5.46 -1.21,5.56 1.39,9.15 -0.28,10.36 -0.51,0.36 -0.74,0.06 -6.64,0.62 z"
   id="path243" />&#10;					<path
   class="st18"
   d="m 477.29,143.21 c 3.57,14.32 7.28,25.07 9.76,29.55 0.65,1.17 1.33,5.18 4.65,7.94 0.9,0.75 1.96,1.61 3.53,1.9 4.75,0.86 8.88,-4.5 9.55,-5.37 0.86,-1.12 2.09,-3.04 2.8,-5.85 -0.78,4.65 -1.56,9.3 -2.34,13.95 -0.41,2.47 0.79,5 3.06,6.05 0.02,0.01 0.04,0.02 0.06,0.03 0.81,0.37 2.01,0.92 3.43,0.79 3.21,-0.29 3.7,-3.73 6.33,-3.95 2.51,-0.21 3.38,2.8 5.85,2.8 1.38,0 3.4,-0.94 5.9,-5.69 -0.13,1.32 -0.32,2.69 -0.58,4.11 -1.09,5.98 -3.1,10.99 -5.16,14.97 -3.54,1.43 -14.61,5.38 -27.79,1.51 -9.03,-2.65 -14.93,-7.77 -17.76,-10.61 -2.34,-16.91 -4.69,-33.82 -7.03,-50.72 3.54,-0.87 2.18,-0.54 5.74,-1.41 z"
   id="path244" />&#10;					<path
   class="st16"
   d="m 514.23,147.29 c -0.69,-2.66 -0.14,-4.38 -0.42,-4.43 -0.49,-0.09 -3.15,5.36 -2.02,11.4 0.15,0.82 1.5,8.07 5.2,8.35 2.59,0.2 6.26,-3.16 5.26,-5.2 -0.75,-1.52 -2.3,-1.47 -4.97,-4.54 -0.6,-0.69 -2.3,-2.67 -3.05,-5.58 z"
   id="path245" />&#10;					<g
   id="g249">&#10;						<path
   class="st19"
   d="m 475.92,155.42 c 0.43,-6.15 -5.29,-11.22 -11.23,-9.54 -1.68,0.47 -3.27,1.48 -4.43,3.38 -3.96,6.51 -0.07,11.76 6.46,13.11 1.12,0.19 4.24,0.57 6.54,-1.27 1.55,-1.24 2.49,-3.28 2.66,-5.68 z"
   id="path246" />&#10;						&#10;							<linearGradient
   id="SVGID_1_"
   gradientUnits="userSpaceOnUse"
   x1="-554.60779"
   y1="154.3291"
   x2="-547.26569"
   y2="160.8369"
   gradientTransform="matrix(-0.9956,0.0942,0.0942,0.9956,-94.1684,48.7894)">&#10;							<stop
   offset="0"
   style="stop-color:#FF6C6E"
   id="stop246" />&#10;							<stop
   offset="1"
   style="stop-color:#FFA9A4"
   id="stop247" />&#10;						</linearGradient>&#10;						<path
   class="st30"
   d="m 473.2,158.5 c -0.48,-5.22 -3.54,-8.82 -6.5,-8.96 -1.25,-0.06 -3.35,0.46 -4.65,2.14 -0.06,0.07 -0.98,1.3 -1.05,2.73 -0.14,2.7 2.76,5.68 7.25,7.19 0.39,0.09 1.45,0.27 2.6,-0.25 1.78,-0.8 2.28,-2.6 2.35,-2.85 z"
   id="path247"
   style="fill:url(#SVGID_1_)" />&#10;						<path
   class="st16"
   d="m 464.56,156.28 c 0.34,-0.63 0.56,-1.23 0.83,-1.79 0.27,-0.56 0.52,-1.1 0.84,-1.59 0.3,-0.51 0.65,-0.96 1.05,-1.41 0.4,-0.45 0.86,-0.86 1.39,-1.34 -0.71,-0.04 -1.42,0.17 -2.03,0.55 -0.62,0.37 -1.14,0.92 -1.52,1.53 -0.75,1.23 -0.96,2.71 -0.56,4.05 z"
   id="path248" />&#10;						<path
   class="st16"
   d="m 472.7,155.86 c -0.07,-1.16 -0.43,-2.28 -0.97,-3.32 -0.55,-1.04 -1.34,-2.01 -2.41,-2.68 -0.28,-0.14 -0.56,-0.29 -0.85,-0.42 -0.31,-0.09 -0.61,-0.18 -0.92,-0.25 -0.63,-0.05 -1.27,-0.11 -1.86,0.08 -0.62,0.08 -1.14,0.4 -1.67,0.64 -0.5,0.3 -0.95,0.69 -1.38,1.06 0.58,-0.13 1.09,-0.34 1.62,-0.47 0.54,-0.09 1.05,-0.25 1.57,-0.22 1.02,-0.05 1.99,0.15 2.82,0.7 0.85,0.51 1.57,1.27 2.23,2.11 0.64,0.84 1.24,1.78 1.82,2.77 z"
   id="path249" />&#10;					</g>&#10;					<path
   class="st18"
   d="m 509.78,135.18 c -0.89,-0.59 -5.36,-3.4 -11.13,-2.2 -4.25,0.89 -6.86,3.46 -7.77,4.47 1.83,-0.63 4.97,-1.44 8.9,-1.13 4.8,0.37 8.29,2.23 10.02,3.31 z"
   id="path250" />&#10;					<path
   class="st18"
   d="m 517.4,137.46 c 0.9,-0.35 2.24,-0.8 3.89,-1.11 -0.06,-0.25 -0.12,-0.49 -0.18,-0.73 -0.21,-0.81 -0.42,-1.6 -0.6,-2.37 -0.07,-0.28 -0.14,-0.56 -0.22,-0.83 -1,0.25 -1.73,0.53 -2.04,0.66 z"
   id="path251" />&#10;					<path
   class="st0"
   d="m 522.87,169.93 c -2.18,0.21 -4.36,0.41 -6.54,0.62 -1.74,0.17 -3.49,0.33 -5.23,0.5 0.5,0.81 3.51,5.49 8.47,5.8 0.72,0.05 1.61,0 2.62,-0.25 -0.08,-0.87 -0.17,-1.74 -0.25,-2.62 0.39,-0.48 0.79,-0.95 1.18,-1.43 -0.08,-0.88 -0.16,-1.75 -0.25,-2.62 z"
   id="path252" />&#10;					<path
   class="st27"
   d="m 484.77,124.16 c -1.82,0.04 -3.62,-0.24 -5.38,-0.62 -1.77,-0.35 -3.51,-0.84 -5.23,-1.39 -3.43,-1.15 -6.83,-2.39 -10.21,-3.72 -1.7,-0.64 -3.39,-1.33 -5.19,-1.82 -1.83,-0.49 -3.65,-0.64 -5.46,-0.82 -1.81,-0.18 -3.62,-0.35 -5.41,-0.6 -0.9,-0.11 -1.79,-0.24 -2.67,-0.44 -0.44,-0.1 -0.87,-0.22 -1.29,-0.38 -0.4,-0.16 -0.87,-0.35 -1,-0.81 0.07,0.48 0.55,0.74 0.93,0.96 0.41,0.21 0.85,0.37 1.28,0.51 0.87,0.28 1.77,0.5 2.66,0.69 1.79,0.36 3.6,0.63 5.39,0.91 1.79,0.31 3.61,0.47 5.28,0.99 1.7,0.5 3.38,1.19 5.08,1.84 3.4,1.31 6.84,2.54 10.37,3.5 3.53,0.92 7.21,1.66 10.85,1.2 z"
   id="path253" />&#10;					<path
   class="st27"
   d="m 443.92,115.95 4.82,2.88 c 1.9,1.15 3.84,2.23 5.76,3.34 0.94,0.56 1.99,1.07 3.06,1.49 1.09,0.38 2.25,0.64 3.42,0.65 1.17,0.01 2.27,-0.19 3.33,-0.23 1.06,-0.04 2.1,0.09 3.1,0.42 1.02,0.32 1.97,0.79 2.97,1.28 1,0.52 2.02,0.97 3.07,1.37 2.84,1.09 5.76,1.95 8.73,2.53 l -0.06,-0.4 c -0.72,-0.2 -1.44,-0.41 -2.15,-0.65 -2.1,-0.64 -4.19,-1.38 -6.19,-2.27 -1,-0.44 -1.99,-0.93 -2.95,-1.43 -0.98,-0.51 -2.01,-1.05 -3.1,-1.39 -1.1,-0.38 -2.28,-0.57 -3.45,-0.53 -1.16,0.03 -2.25,0.21 -3.29,0.19 -1.05,0 -2.08,-0.21 -3.08,-0.55 -1,-0.37 -1.97,-0.82 -2.93,-1.38 -1.93,-1.07 -3.85,-2.17 -5.81,-3.2 l -5.15,-2.75 c -0.04,0.2 -0.07,0.41 -0.1,0.63 z"
   id="path254" />&#10;					<path
   class="st27"
   d="m 444.53,130.39 c 0.88,0.81 1.86,1.51 2.95,2.06 0.67,0.33 1.36,0.59 2.08,0.77 0.71,0.15 1.4,0.3 2.11,0.43 1.42,0.22 2.86,0.37 4.29,0.39 2.87,0.02 5.68,-0.47 8.3,0.23 1.32,0.3 2.58,0.91 3.79,1.54 1.22,0.67 2.34,1.45 3.56,2.21 1.21,0.78 2.5,1.48 3.9,1.88 1.37,0.46 2.86,0.59 4.3,0.41 1.25,-0.15 2.44,-0.58 3.51,-1.17 0.04,-0.14 0.07,-0.28 0.1,-0.41 -1.15,0.59 -2.39,0.97 -3.67,1.05 -2.75,0.26 -5.42,-0.88 -7.66,-2.46 -2.27,-1.63 -4.71,-3.27 -7.56,-4.03 -2.88,-0.78 -5.8,-0.3 -8.55,-0.35 -1.37,0 -2.76,-0.13 -4.12,-0.34 -0.69,-0.1 -1.36,-0.25 -2.05,-0.39 -0.64,-0.16 -1.28,-0.37 -1.88,-0.66 -1.32,-0.63 -2.48,-1.55 -3.52,-2.62 0.03,0.48 0.07,0.97 0.12,1.46 z"
   id="path255" />&#10;					<path
   class="st27"
   d="m 498.22,119.75 c -1.53,-2.78 -3.51,-5.31 -5.85,-7.5 -2.33,-2.17 -5.22,-4 -8.56,-4.41 -1.71,-0.13 -3.22,0.05 -4.82,0.12 -1.58,0.12 -3.16,0.21 -4.73,0.38 -3.15,0.3 -6.29,0.65 -9.42,1.17 l 4.74,-0.13 4.73,-0.19 4.73,-0.18 c 1.56,-0.04 3.2,-0.2 4.65,-0.06 2.99,0.34 5.73,1.99 8.11,3.95 1.2,0.99 2.33,2.07 3.38,3.24 1.09,1.13 2.09,2.35 3.04,3.61 z"
   id="path256" />&#10;				</g>&#10;				<path
   class="st19"
   d="m 370.47,316.27 c -0.07,0.03 -0.1,0.04 -0.1,0.04 -8.64,3.74 -17.87,7.74 -19.13,13.86 -2.09,10.21 2.43,19.41 18.62,25.19 19.71,7.04 51.67,8.7 89.2,6.87 3.6,-0.17 7.69,-0.37 12.22,-0.58 14.3,-0.68 33.1,-1.48 55.43,-2.28 1.28,-0.05 2.59,-0.09 3.91,-0.14 0.71,-0.18 11.19,-3.06 14.11,-11.86 0.6,-1.83 0.77,-3.54 0.71,-5.05 -0.09,-1.97 -0.57,-3.56 -0.91,-4.53 -0.3,-0.09 -0.59,-0.17 -0.89,-0.25 -54.14,-15.64 -98.88,-24.76 -125.95,-27.44 -7.95,-0.79 -14.38,-1.03 -19.08,-0.7 -13.87,0.95 -26.87,6.32 -28.14,6.87 z"
   id="path257" />&#10;				<path
   class="st16"
   d="m 365.39,338.68 c 1.47,-4.43 4.33,-8.43 7.48,-11.82 3.35,-3.61 7.26,-6.7 11.43,-9.31 7.79,-4.87 16.94,-8.5 26.2,-8.91 4.21,-18.98 4.89,-34.72 7.06,-44.44 2.16,-9.68 5.57,-23.64 10.76,-40.45 -9.71,-0.27 -29.67,0.55 -44.69,13.2 -6.74,5.67 -10.54,12.08 -19.59,42.03 -9.43,31.2 -14.47,47.13 -13.25,56.64 0.33,6.82 4.36,12.94 13.77,17.52 -0.18,-4.87 -0.73,-9.76 0.83,-14.46 z"
   id="path258" />&#10;				<path
   class="st19"
   d="m 546.46,340.93 c 0.25,-0.73 0.72,-1.85 1.66,-2.91 3.79,-4.28 9.72,-1.53 17.48,-3.54 9.1,-2.36 13.15,-9.33 15.08,-7.81 1.21,0.95 0.39,4.29 -0.73,6.35 -1.28,2.36 -2.84,2.82 -5.93,5.31 -4.92,3.97 -3.98,5.25 -7.21,7.16 -5.1,3 -10.71,1.73 -11.31,1.59 -5.34,-1.3 -8.26,-5.07 -9.04,-6.15 z"
   id="path259" />&#10;				<g
   id="g264">&#10;					<path
   class="st19"
   d="m 523.45,336.96 c 0.08,1.47 0.17,2.84 0.25,4.11 0.08,1.41 0.18,2.71 0.28,3.9 0.89,11.13 1.83,13.04 2.73,14.41 0.03,0.04 0.04,0.07 0.07,0.1 3.67,1.76 7.83,3.52 12.5,5.11 0.18,0.06 0.37,0.12 0.56,0.19 7.91,2.62 15.17,4.02 21.29,4.74 0,0.01 0.02,0.01 0.03,0 0.16,0.02 0.3,0.05 0.46,0.06 1.38,-1.4 3.35,-3.59 5.26,-6.58 0.39,-0.62 0.79,-1.27 1.18,-1.95 0.93,-1.65 1.82,-3.5 2.57,-5.54 0.29,-0.74 0.55,-1.51 0.78,-2.3 0.14,-0.41 0.26,-0.83 0.37,-1.26 0.45,-1.72 0.77,-3.37 0.97,-4.93 0.07,-0.45 0.11,-0.89 0.14,-1.32 0.09,-0.9 0.14,-1.77 0.18,-2.58 0.07,-1.8 -0.01,-3.4 -0.13,-4.75 l -0.48,-0.03 c -0.99,-0.03 -1.96,-0.05 -2.95,-0.08 -8.62,-0.24 -17.24,-0.5 -25.85,-0.73 -6.74,-0.19 -13.48,-0.39 -20.21,-0.57 z"
   id="path260" />&#10;					<path
   class="st19"
   d="m 569.52,338.22 -0.03,0.05 -3.11,4.72 -0.53,0.81 -1.52,2.3 8.4,0.93 8.53,0.95 8.07,0.89 c 0,0 3.28,0.95 11.49,3.33 7.78,2.25 9.05,-0.58 9.56,-2.28 0.02,-0.1 0.05,-0.19 0.08,-0.27 0.42,-1.43 -15.91,-8.38 -20.04,-10.12 -0.63,-0.26 -1.28,-0.41 -1.95,-0.44 l -15.55,-0.71 -0.48,-0.03 z"
   id="path261" />&#10;					<path
   class="st19"
   d="m 562.78,342.97 26.61,7.21 c 0,0 15.48,6.5 17.67,9.4 2.18,2.9 -3.38,5.57 -7.49,4.12 -4.11,-1.44 -16.21,-7.47 -16.21,-7.47 l -20.55,-1.18 z"
   id="path262" />&#10;					<path
   class="st19"
   d="m 565.69,350.99 21.53,8.38 c 0,0 15.48,6.5 12.59,8.68 -2.9,2.18 -7.25,2.43 -12.82,-0.95 -5.57,-3.38 -19.84,-6.26 -19.84,-6.26 0,0 -1.69,-4 -1.46,-9.85 z"
   id="path263" />&#10;					<path
   class="st19"
   d="m 563.53,362.07 c 0,0 19.45,5.19 21.46,8.14 2.01,2.95 -5,3.68 -9.11,2.24 -4.11,-1.44 -14.51,-1.19 -19.11,-5.29 -4.6,-4.11 6.76,-5.09 6.76,-5.09 z"
   id="path264" />&#10;				</g>&#10;				<path
   class="st16"
   d="m 523.97,344.96 c 0.91,11.4 1.88,13.12 2.8,14.51 3.67,1.76 7.83,3.52 12.5,5.11 -2.22,-1.04 -5.82,-3.08 -9.1,-6.86 -4.3,-4.97 -5.7,-10.22 -6.2,-12.76 z"
   id="path265" />&#10;				<path
   class="st31"
   d="m 417.7,310.09 c 15.13,20.32 64.27,27.96 106,30.97 7.58,0.55 14.9,0.95 21.74,1.24 7.74,0.34 14.83,0.53 20.94,0.68 2.38,0.05 4.61,0.09 6.67,0.13 9.31,0.19 13.97,0.33 15.33,0.52 11.96,1.65 20.05,8.86 21.78,6.7 0.13,-0.17 0.19,-0.34 0.21,-0.43 0.02,-0.1 0.05,-0.19 0.08,-0.27 0.42,-1.43 -15.91,-8.38 -20.04,-10.12 -0.63,-0.26 -1.28,-0.41 -1.95,-0.44 l -15.55,-0.71 -0.48,-0.03 -2.92,-0.13 -0.03,0.05 c -8.62,-0.24 -17.24,-0.5 -25.85,-0.73 C 489.5,321.9 444.76,312.78 417.7,310.09 Z"
   id="path266" />&#10;				<path
   class="st20"
   d="m 361.19,276.51 c -5.64,17.82 -8.15,32.98 -9.4,42.98 5.71,-3.66 14.59,-8.37 26.27,-11.08 8.3,-1.93 15.88,-2.36 22.27,-2.1 0.84,0.04 1.66,0.08 2.45,0.13 4.37,0.3 8.09,0.89 10.98,1.48 1.71,-12.29 4.22,-21.85 6.04,-27.93 5.58,-18.73 12.42,-30.78 15.51,-43.88 1.36,-5.74 10.21,-32.36 3.16,-32.17 -7,0.19 -32.73,3.41 -43.16,8.13 -20.66,9.36 -27.27,42.78 -34.12,64.44 z"
   id="path267" />&#10;				<path
   class="st24"
   d="m 374.64,242.68 c 0.96,0.84 2.35,0.87 3.54,0.69 1.39,-0.2 2.65,-0.84 3.78,-1.66 2.49,-1.81 4.42,-4.32 6.31,-6.72 1.93,-2.45 3.94,-4.75 6.26,-6.85 5.22,-4.74 11.53,-8.19 18.55,-9.27 6.78,-1.04 14.13,0.14 20.54,-2.75 1.64,-0.74 3.13,-1.68 4.03,-3.28 0.85,-1.52 1.18,-3.48 0.75,-5.18 -0.47,-1.81 -1.83,-2.86 -3.43,-3.51 -9.79,0.82 -30.55,3.79 -39.65,7.92 -10.16,4.6 -16.92,15.03 -21.99,27.02 0.03,1.37 0.33,2.73 1.31,3.59 z"
   id="path268" />&#10;				<path
   class="st21"
   d="m 370.16,251.16 c -1.4,7.37 -2.41,15.03 -2.04,22.55 0.3,6.06 1.63,12.74 6.16,17.13 5.79,5.62 14.68,5.02 22.14,5.23 2.13,0.06 4.23,0.26 6.35,0.41 2.3,0.16 4.61,0.22 6.9,0.47 1.93,0.21 3.87,0.51 5.78,0.82 -0.61,3.13 -1.18,6.52 -1.68,10.14 -2.89,-0.58 -6.61,-1.17 -10.98,-1.48 -0.79,-0.05 -1.62,-0.09 -2.45,-0.13 -6.39,-0.25 -13.97,0.17 -22.27,2.1 -11.68,2.71 -20.56,7.42 -26.27,11.08 1.25,-10 3.76,-25.16 9.4,-42.98 3.22,-10.2 6.4,-23 11.01,-34.67 -0.76,3.1 -1.46,6.2 -2.05,9.33 z"
   id="path269" />&#10;				<path
   class="st21"
   d="m 361.19,276.51 c -4.85,13.89 -8.19,28.3 -10.2,42.88 l -0.23,1.68 c 4.99,-3.15 10.22,-5.96 15.72,-8.09 15.18,-5.93 32.09,-7.3 48.04,-3.99 1.32,-9.87 3.23,-19.68 5.99,-29.26 2.75,-9.26 6.03,-18.41 8.99,-27.62 -1.78,4.51 -3.52,9.03 -5.25,13.56 -5.36,13.55 -9.4,27.67 -11.38,42.13 0,0 1.07,-0.76 1.07,-0.76 -16.01,-3.35 -32.96,-1.9 -48.12,4.26 -5.04,2.05 -9.92,4.52 -14.46,7.52 l 1.23,0.78 c 1.62,-14.58 4.62,-28.98 8.6,-43.09 z"
   id="path270" />&#10;			</g>&#10;		</g>&#10;		<g
   id="g281">&#10;			<g
   id="g274">&#10;				<g
   id="table_00000021103525128929453050000004995265780136643213_">&#10;					<polygon
   class="st3"
   points="495.01,393.15 498.92,413.28 500.29,420.39 549.37,673.8 534.98,673.8 476.43,428.68 384.3,428.68 325.76,673.8 311.36,673.8 360.44,420.39 361.82,413.28 365.72,393.15 "
   id="polygon270" />&#10;					<polygon
   class="st3"
   points="844.34,393.15 848.24,413.28 849.62,420.39 898.7,673.8 884.3,673.8 825.76,428.68 733.63,428.68 675.08,673.8 660.68,673.8 709.77,420.39 711.14,413.28 715.05,393.15 "
   id="polygon271" />&#10;					<polygon
   class="st32"
   points="498.92,413.28 361.82,413.28 365.72,393.15 495.01,393.15 "
   id="polygon272" />&#10;					<polygon
   class="st32"
   points="711.14,413.28 715.05,393.15 844.34,393.15 848.24,413.28 "
   id="polygon273" />&#10;					<rect
   x="326.75"
   y="388.42001"
   class="st33"
   width="568.39001"
   height="12.94"
   id="rect273" />&#10;					<rect
   x="326.75"
   y="388.42001"
   class="st34"
   width="222.62"
   height="12.94"
   id="rect274" />&#10;				</g>&#10;			</g>&#10;			<g
   id="laptop_00000050624338048663055800000007874608277097477295_">&#10;				<path
   class="st23"
   d="m 540.67,388.24 h 222.7 c 2.2,0 3.98,-1.78 3.98,-3.98 v 0 c 0,-2.2 -1.78,-3.98 -3.98,-3.98 h -222.7 c -2.2,0 -3.98,1.78 -3.98,3.98 v 0 c 0,2.2 1.78,3.98 3.98,3.98 z"
   id="path274" />&#10;				<g
   id="g275">&#10;					<path
   class="st2"
   d="m 612.19,387.91 3.12,0.01 156.65,0.32 c 3.68,0 6.88,-2.55 7.7,-6.14 7.18,-31.72 14.37,-63.43 21.55,-95.15 0.36,-1.58 0.02,-3.13 -0.78,-4.37 -1,-1.52 -2.72,-2.57 -4.73,-2.59 h -0.04 l -152.03,-0.32 c -4.05,-0.01 -7.56,2.79 -8.45,6.74 l -21.34,94.21 -1.13,5 z"
   id="path275" />&#10;				</g>&#10;				<path
   class="st23"
   d="m 613.84,380.63 c 73.79,-21.09 139.94,-66.72 181.83,-100.64 l -148.99,-0.31 c -5.83,-0.01 -10.89,4.02 -12.17,9.7 z"
   id="path276" />&#10;				<path
   class="st2"
   d="m 612.19,387.91 3.12,0.01 1.05,-4.71 21.95,-96.85 c 0.54,-2.4 2.68,-4.11 5.15,-4.1 l 154.74,0.32 h 2.23 c -1,-1.52 -2.72,-2.57 -4.73,-2.59 h -0.04 l -154.74,-0.32 c -2.46,-0.01 -4.6,1.7 -5.15,4.1 l -21.94,96.85 -1.13,5 z"
   id="path277" />&#10;				<g
   id="g279">&#10;					<g
   id="g278">&#10;						&#10;					</g>&#10;				</g>&#10;				<g
   id="g280">&#10;					<rect
   x="700.31"
   y="331.23001"
   class="st0"
   width="25.469999"
   height="2.3900001"
   id="rect279" />&#10;				</g>&#10;			</g>&#10;		</g>&#10;	</g>&#10;	<g
   id="g291">&#10;		<path
   class="st3"
   d="M 870.64,104.42 H 707.17 c -5.71,0 -10.33,4.62 -10.33,10.33 v 89.75 c 0,5.71 4.62,10.33 10.33,10.33 h 28.88 v 29.26 l 34.11,-23.06 c 5.98,-4.04 13.04,-6.2 20.26,-6.2 h 80.22 c 5.71,0 10.33,-4.62 10.33,-10.33 v -89.75 c 0,-5.7 -4.63,-10.33 -10.33,-10.33 z"
   id="path282" />&#10;		<path
   class="st32"
   d="M 870.82,104.42 H 706.99 c -5.61,0 -10.15,4.54 -10.15,10.15 v 10.98 h 184.13 v -10.98 c 0,-5.6 -4.55,-10.15 -10.15,-10.15 z"
   id="path283" />&#10;		<circle
   class="st0"
   cx="839.88"
   cy="114.99"
   r="4.9400001"
   id="circle283" />&#10;		<circle
   class="st0"
   cx="854.08002"
   cy="114.99"
   r="4.9400001"
   id="circle284" />&#10;		<circle
   class="st0"
   cx="868.28003"
   cy="114.99"
   r="4.9400001"
   id="circle285" />&#10;		<rect
   x="710.84998"
   y="136"
   class="st0"
   width="55.919998"
   height="6.0500002"
   id="rect285" />&#10;		<rect
   x="710.84998"
   y="168.64999"
   class="st0"
   width="38.939999"
   height="6.0500002"
   id="rect286" />&#10;		<rect
   x="721.06"
   y="147.03999"
   class="st35"
   width="145.13"
   height="6.0500002"
   id="rect287" />&#10;		<rect
   x="721.06"
   y="190.25"
   class="st0"
   width="136.05"
   height="6.0500002"
   id="rect288" />&#10;		<rect
   x="721.06"
   y="179.45"
   class="st35"
   width="62.330002"
   height="6.0500002"
   id="rect289" />&#10;		<rect
   x="787.65997"
   y="179.45"
   class="st0"
   width="55.740002"
   height="6.0500002"
   id="rect290" />&#10;		<rect
   x="721.06"
   y="157.84"
   class="st0"
   width="94.910004"
   height="6.0500002"
   id="rect291" />&#10;	</g>&#10;</g>&#10;</svg>
