<?xml version="1.0" encoding="utf-8"?>
<!-- Generator: Adobe Illustrator 21.0.0, SVG Export Plug-In . SVG Version: 6.00 Build 0)  -->
<svg version="1.1" id="Layer_1" xmlns="http://www.w3.org/2000/svg" xmlns:xlink="http://www.w3.org/1999/xlink" x="0px" y="0px"
	 viewBox="0 0 198 108" style="enable-background:new 0 0 198 108;" xml:space="preserve">
<style type="text/css">
	.st0{fill:#FEFAD7;}
	.st1{fill:#A7B0C4;}
	.st2{fill:#FEECA8;}
	.st3{fill:#FEE279;}
	.st4{fill:#EA9344;}
	.st5{fill:#FFCB5D;}
	.st6{fill:#F16B56;}
	.st7{fill:#F6B545;}
	.st8{fill:#F7964B;}
	.st9{fill:#0F395A;}
	.st10{fill:#D3E2EB;}
	.st11{fill:#3E5560;}
	.st12{fill:#FFFFFF;}
	.st13{fill:#577280;}
	.st14{fill:#F04D4E;}
	.st15{fill:#AFC3D7;}
	.st16{fill:#CDDAE4;}
	.st17{fill:#384C54;}
	.st18{fill:#CAD5E3;}
	.st19{fill:#F48576;}
	.st20{fill:#ADD7F3;}
	.st21{fill:#72B7E5;}
	.st22{fill:#F47423;}
	.st23{fill:#E58824;}
	.st24{fill:#66869B;}
	.st25{fill:#567789;}
</style>
<g>
	<g>
		<path class="st0" d="M121.9,35.4c0.7,0.1,1.3,0.7,1.5,1.4c0.2,0.5,0.3,0.9,0.6,1.4c0.3,0.6,0.3,1.4-0.1,2l-0.5,0.8
			c-0.3,0.5-0.3,1.1,0.2,1.5l0,0c0.4,0.4,1.1,0.5,1.5,0.2l0.8-0.5c0.6-0.4,1.4-0.4,2-0.1c0.4,0.2,0.9,0.4,1.4,0.6
			c0.7,0.2,1.2,0.8,1.4,1.5l0.2,0.9c0.1,0.6,0.6,1,1.2,1l0,0c0.6,0,1.1-0.4,1.2-1l0.2-0.9c0.1-0.7,0.7-1.3,1.4-1.5
			c0.5-0.2,0.9-0.3,1.4-0.6c0.6-0.3,1.4-0.3,2,0.1l0.8,0.5c0.5,0.3,1.1,0.3,1.5-0.2l0,0c0.4-0.4,0.5-1.1,0.2-1.5l-0.5-0.8
			c-0.4-0.6-0.4-1.4-0.1-2c0.2-0.4,0.4-0.9,0.6-1.4c0.2-0.7,0.8-1.2,1.5-1.4l0.9-0.2c0.6-0.1,1-0.6,1-1.2v0c0-0.6-0.4-1.1-1-1.2
			l-0.9-0.2c-0.7-0.1-1.3-0.7-1.5-1.4c-0.2-0.5-0.3-0.9-0.6-1.4c-0.3-0.6-0.3-1.4,0.1-2l0.5-0.8c0.3-0.5,0.3-1.1-0.2-1.5v0
			c-0.4-0.4-1.1-0.5-1.5-0.2l-0.8,0.5c-0.6,0.4-1.4,0.4-2,0.1c-0.4-0.2-0.9-0.4-1.4-0.6c-0.7-0.2-1.2-0.8-1.4-1.5l-0.2-0.9
			c-0.1-0.6-0.6-1-1.2-1l0,0c-0.6,0-1.1,0.4-1.2,1l-0.2,0.9c-0.1,0.7-0.7,1.3-1.4,1.5c-0.5,0.2-0.9,0.3-1.4,0.6
			c-0.6,0.3-1.4,0.3-2-0.1l-0.8-0.5c-0.5-0.3-1.1-0.3-1.5,0.2l0,0c-0.4,0.4-0.5,1.1-0.2,1.5l0.5,0.8c0.4,0.6,0.4,1.4,0.1,2
			c-0.2,0.4-0.4,0.9-0.6,1.4c-0.2,0.7-0.8,1.2-1.5,1.4l-0.9,0.2c-0.6,0.1-1,0.6-1,1.2v0c0,0.6,0.4,1.1,1,1.2L121.9,35.4z M132,29
			c2.8,0,5,2.2,5,5s-2.2,5-5,5s-5-2.2-5-5S129.2,29,132,29z"/>
		<path class="st1" d="M132,47c-1.1,0-2-0.8-2.2-1.8l-0.2-0.9c-0.1-0.4-0.3-0.6-0.7-0.7c-0.5-0.2-1-0.4-1.5-0.6
			c-0.3-0.2-0.7-0.2-1,0l-0.8,0.5c-0.9,0.6-2.1,0.5-2.8-0.3c-0.7-0.7-0.9-1.9-0.3-2.8l0.5-0.8c0.2-0.3,0.2-0.7,0-1
			c-0.3-0.5-0.5-1-0.6-1.5c-0.1-0.3-0.4-0.6-0.7-0.7l-0.9-0.2c-1-0.2-1.8-1.1-1.8-2.2s0.8-2,1.8-2.2l0.9-0.2
			c0.4-0.1,0.6-0.3,0.7-0.7c0.2-0.5,0.4-1,0.6-1.5c0.2-0.3,0.2-0.7,0-1l-0.5-0.8c-0.6-0.9-0.5-2.1,0.3-2.8c0.7-0.7,1.9-0.9,2.8-0.3
			l0.8,0.5c0.3,0.2,0.7,0.2,1,0c0.5-0.3,1-0.5,1.5-0.6c0.3-0.1,0.6-0.4,0.7-0.7l0.2-0.9c0.2-1,1.1-1.8,2.2-1.8s2,0.8,2.2,1.8
			l0.2,0.9c0.1,0.4,0.3,0.6,0.7,0.7c0.5,0.2,1,0.4,1.5,0.6c0.3,0.2,0.7,0.2,1,0l0.8-0.5c0.9-0.6,2.1-0.5,2.8,0.3
			c0.7,0.7,0.9,1.9,0.3,2.8l-0.5,0.8c-0.2,0.3-0.2,0.7,0,1c0.3,0.5,0.5,1,0.6,1.5c0.1,0.3,0.4,0.6,0.7,0.7l0.9,0.2
			c1,0.2,1.8,1.1,1.8,2.2s-0.8,2-1.8,2.2l-0.9,0.2c-0.4,0.1-0.6,0.3-0.7,0.7c-0.2,0.5-0.4,1-0.6,1.5c-0.2,0.3-0.2,0.7,0,1l0.5,0.8
			c0.6,0.9,0.5,2.1-0.3,2.8c-0.7,0.7-1.9,0.9-2.8,0.3l-0.8-0.5c-0.3-0.2-0.7-0.2-1,0c-0.5,0.3-1,0.5-1.5,0.6
			c-0.3,0.1-0.6,0.4-0.7,0.7l-0.2,0.9C134,46.2,133.1,47,132,47z M127,40.8c0.5,0,0.9,0.1,1.4,0.3c0.4,0.2,0.8,0.4,1.2,0.5
			c1,0.3,1.8,1.2,2,2.3l0.2,0.9c0,0.2,0.4,0.2,0.4,0l0.2-0.9c0.2-1.1,1-1.9,2-2.3c0.4-0.1,0.8-0.3,1.2-0.5c1-0.5,2.1-0.4,3,0.2
			l0.8,0.5c0.1,0.1,0.2,0,0.3,0c0.1-0.1,0.1-0.2,0-0.3l-0.5-0.8c-0.6-0.9-0.7-2.1-0.2-3c0.2-0.4,0.4-0.8,0.5-1.2
			c0.3-1,1.2-1.8,2.3-2l0.9-0.2c0.1,0,0.2-0.1,0.2-0.2s-0.1-0.2-0.2-0.2l-0.9-0.2c-1.1-0.2-1.9-1-2.3-2c-0.1-0.4-0.3-0.8-0.5-1.2
			c-0.5-1-0.4-2.1,0.2-3l0.5-0.8c0.1-0.1,0-0.2,0-0.3c-0.1-0.1-0.2-0.1-0.3,0l-0.8,0.5c-0.9,0.6-2.1,0.7-3,0.2
			c-0.4-0.2-0.8-0.4-1.2-0.5c-1-0.3-1.8-1.2-2-2.3l-0.2-0.9c0-0.2-0.4-0.2-0.4,0l-0.2,0.9c-0.2,1.1-1,1.9-2,2.3
			c-0.4,0.1-0.8,0.3-1.2,0.5c-1,0.5-2.1,0.4-3-0.2l-0.8-0.5c-0.1-0.1-0.2,0-0.3,0c-0.1,0.1-0.1,0.2,0,0.3l0.5,0.8
			c0.6,0.9,0.7,2.1,0.2,3c-0.2,0.4-0.4,0.8-0.5,1.2c-0.3,1-1.2,1.8-2.3,2l-0.9,0.2c-0.1,0-0.2,0.1-0.2,0.2s0.1,0.2,0.2,0.2l0.9,0.2
			l0,0c1.1,0.2,1.9,1,2.3,2c0.1,0.4,0.3,0.8,0.5,1.2c0.5,1,0.4,2.1-0.2,3l-0.5,0.8c-0.1,0.1,0,0.2,0,0.3c0.1,0.1,0.2,0.1,0.3,0
			l0.8-0.5C125.8,40.9,126.4,40.8,127,40.8z M132,40c-3.3,0-6-2.7-6-6s2.7-6,6-6s6,2.7,6,6S135.3,40,132,40z M132,30
			c-2.2,0-4,1.8-4,4s1.8,4,4,4s4-1.8,4-4S134.2,30,132,30z"/>
	</g>
	<g>
		<path class="st2" d="M142.8,33.8l-0.9-0.2c-1.1-0.2-1.9-1-2.3-2.1c-0.1-0.4-0.3-0.8-0.5-1.2c-0.5-1-0.4-2.1,0.2-3l0.5-0.8
			c0.1-0.1,0-0.2,0-0.3l-2.2,2.2c-0.4,0.4-0.4,0.9-0.1,1.3c1.2,1.5,1.7,3.5,1.3,5.7c-0.5,2.8-2.7,5-5.5,5.5
			c-2.1,0.4-4.2-0.2-5.7-1.3c-0.4-0.3-1-0.3-1.3,0.1l-2.2,2.2c0.1,0.1,0.2,0.1,0.3,0l0.8-0.5c0.5-0.3,1.1-0.5,1.7-0.5
			c0.5,0,0.9,0.1,1.4,0.3c0.4,0.2,0.8,0.4,1.2,0.5c1.1,0.3,1.9,1.2,2.1,2.3l0.2,0.9c0,0.2,0.4,0.2,0.4,0l0.2-0.9
			c0.2-1.1,1-1.9,2.1-2.3c0.4-0.1,0.8-0.3,1.2-0.5c1-0.5,2.1-0.4,3,0.2l0.8,0.5c0.1,0.1,0.2,0,0.3,0c0.1-0.1,0.1-0.2,0-0.3l-0.5-0.8
			c-0.6-0.9-0.7-2.1-0.2-3c0.2-0.4,0.4-0.8,0.5-1.2c0.3-1.1,1.2-1.9,2.3-2.1l0.9-0.2c0.1,0,0.2-0.1,0.2-0.2S142.9,33.8,142.8,33.8z"
			/>
	</g>
	<g>
		<path class="st2" d="M126,34c0-3.3,2.7-6,6-6c1.7,0,3.2,0.7,4.2,1.8c0,0,0.8-0.8-0.2-1.5c-1.1-0.8-2.5-1.3-4-1.3c-3.9,0-7,3.1-7,7
			c0,1.5,0.4,2.9,1.3,4c0.7,1,1.5,0.2,1.5,0.2C126.7,37.2,126,35.7,126,34z"/>
	</g>
</g>
<g>
	<path class="st3" d="M81,16H62v-1h-5c-0.6,0-1,0.4-1,1c0,0.6,0.4,1,1,1h1c0.6,0,1,0.4,1,1c0,0.6-0.4,1-1,1h-4c-0.6,0-1,0.4-1,1
		c0,0.6,0.4,1,1,1h2c0.6,0,1,0.4,1,1c0,0.6-0.4,1-1,1s-1,0.4-1,1c0,0.6,0.4,1,1,1h6v-1h19c0.6,0,1-0.4,1-1v-6C82,16.4,81.6,16,81,16
		z"/>
</g>
<g>
	<circle class="st4" cx="191" cy="92" r="1"/>
</g>
<g>
	<circle class="st4" cx="189" cy="101" r="1"/>
</g>
<g>
	<circle class="st5" cx="108" cy="28" r="1"/>
</g>
<g>
	<circle class="st5" cx="16" cy="35" r="1"/>
</g>
<g>
	<circle class="st5" cx="8" cy="65" r="1"/>
</g>
<g>
	<circle class="st5" cx="39" cy="101" r="1"/>
</g>
<g>
	<circle class="st5" cx="114" cy="11" r="1"/>
</g>
<g>
	<circle class="st5" cx="163" cy="20" r="1"/>
</g>
<g>
	<circle class="st6" cx="189" cy="47" r="1"/>
</g>
<g>
	<circle class="st6" cx="179" cy="97" r="1"/>
</g>
<g>
	<circle class="st6" cx="49" cy="32" r="1"/>
</g>
<g>
	<circle class="st6" cx="127" cy="10" r="1"/>
</g>
<g>
	<circle class="st6" cx="112" cy="36" r="1"/>
</g>
<g>
	<circle class="st6" cx="16" cy="53" r="1"/>
</g>
<g>
	<circle class="st6" cx="49" cy="96" r="1"/>
</g>
<g>
	<path class="st7" d="M119,22c-1.7,0-3-1.3-3-3s1.3-3,3-3s3,1.3,3,3S120.7,22,119,22z M119,18c-0.6,0-1,0.4-1,1s0.4,1,1,1s1-0.4,1-1
		S119.6,18,119,18z"/>
</g>
<g>
	<path class="st7" d="M67,11c-1.7,0-3-1.3-3-3s1.3-3,3-3s3,1.3,3,3S68.7,11,67,11z M67,7c-0.6,0-1,0.4-1,1s0.4,1,1,1s1-0.4,1-1
		S67.6,7,67,7z"/>
</g>
<g>
	<path class="st8" d="M35,35c-1.7,0-3-1.3-3-3s1.3-3,3-3s3,1.3,3,3S36.7,35,35,35z M35,31c-0.6,0-1,0.4-1,1s0.4,1,1,1s1-0.4,1-1
		S35.6,31,35,31z"/>
</g>
<g>
	<path class="st8" d="M183,29c-1.7,0-3-1.3-3-3s1.3-3,3-3s3,1.3,3,3S184.7,29,183,29z M183,25c-0.6,0-1,0.4-1,1s0.4,1,1,1s1-0.4,1-1
		S183.6,25,183,25z"/>
</g>
<g>
	<path class="st8" d="M151,101c-1.7,0-3-1.3-3-3s1.3-3,3-3s3,1.3,3,3S152.7,101,151,101z M151,97c-0.6,0-1,0.4-1,1s0.4,1,1,1
		s1-0.4,1-1S151.6,97,151,97z"/>
</g>
<g>
	<path class="st6" d="M105,11c-1.7,0-3-1.3-3-3s1.3-3,3-3s3,1.3,3,3S106.7,11,105,11z M105,7c-0.6,0-1,0.4-1,1s0.4,1,1,1s1-0.4,1-1
		S105.6,7,105,7z"/>
</g>
<path class="st7" d="M164.9,33.5l0.8-0.8c0.4-0.4,0.4-1,0-1.4s-1-0.4-1.4,0l-0.8,0.8l-0.8-0.8c-0.4-0.4-1-0.4-1.4,0s-0.4,1,0,1.4
	l0.8,0.8l-0.8,0.8c-0.4,0.4-0.4,1,0,1.4c0.2,0.2,0.5,0.3,0.7,0.3s0.5-0.1,0.7-0.3l0.8-0.8l0.8,0.8c0.2,0.2,0.5,0.3,0.7,0.3
	s0.5-0.1,0.7-0.3c0.4-0.4,0.4-1,0-1.4L164.9,33.5z"/>
<path class="st6" d="M148.9,15.5l0.8-0.8c0.4-0.4,0.4-1,0-1.4s-1-0.4-1.4,0l-0.8,0.8l-0.8-0.8c-0.4-0.4-1-0.4-1.4,0s-0.4,1,0,1.4
	l0.8,0.8l-0.8,0.8c-0.4,0.4-0.4,1,0,1.4c0.2,0.2,0.5,0.3,0.7,0.3s0.5-0.1,0.7-0.3l0.8-0.8l0.8,0.8c0.2,0.2,0.5,0.3,0.7,0.3
	s0.5-0.1,0.7-0.3c0.4-0.4,0.4-1,0-1.4L148.9,15.5z"/>
<path class="st7" d="M85.9,2.5l0.8-0.8c0.4-0.4,0.4-1,0-1.4s-1-0.4-1.4,0l-0.8,0.8l-0.8-0.8c-0.4-0.4-1-0.4-1.4,0s-0.4,1,0,1.4
	l0.8,0.8l-0.8,0.8c-0.4,0.4-0.4,1,0,1.4C82.5,4.9,82.7,5,83,5s0.5-0.1,0.7-0.3l0.8-0.8l0.8,0.8C85.5,4.9,85.7,5,86,5
	s0.5-0.1,0.7-0.3c0.4-0.4,0.4-1,0-1.4L85.9,2.5z"/>
<path class="st7" d="M29.9,97.5l0.8-0.8c0.4-0.4,0.4-1,0-1.4s-1-0.4-1.4,0l-0.8,0.8l-0.8-0.8c-0.4-0.4-1-0.4-1.4,0s-0.4,1,0,1.4
	l0.8,0.8l-0.8,0.8c-0.4,0.4-0.4,1,0,1.4c0.2,0.2,0.5,0.3,0.7,0.3s0.5-0.1,0.7-0.3l0.8-0.8l0.8,0.8c0.2,0.2,0.5,0.3,0.7,0.3
	s0.5-0.1,0.7-0.3c0.4-0.4,0.4-1,0-1.4L29.9,97.5z"/>
<path class="st8" d="M44.9,16.5l0.8-0.8c0.4-0.4,0.4-1,0-1.4s-1-0.4-1.4,0l-0.8,0.8l-0.8-0.8c-0.4-0.4-1-0.4-1.4,0s-0.4,1,0,1.4
	l0.8,0.8l-0.8,0.8c-0.4,0.4-0.4,1,0,1.4c0.2,0.2,0.5,0.3,0.7,0.3s0.5-0.1,0.7-0.3l0.8-0.8l0.8,0.8c0.2,0.2,0.5,0.3,0.7,0.3
	s0.5-0.1,0.7-0.3c0.4-0.4,0.4-1,0-1.4L44.9,16.5z"/>
<g>
	<path class="st9" d="M184,108H14c-0.6,0-1-0.4-1-1s0.4-1,1-1h170c0.6,0,1,0.4,1,1S184.6,108,184,108z"/>
</g>
<g>
	<circle class="st9" cx="197" cy="107" r="1"/>
</g>
<g>
	<path class="st9" d="M193,108h-5c-0.6,0-1-0.4-1-1s0.4-1,1-1h5c0.6,0,1,0.4,1,1S193.6,108,193,108z"/>
</g>
<g>
	<circle class="st9" cx="1" cy="107" r="1"/>
</g>
<g>
	<path class="st9" d="M10,108H5c-0.6,0-1-0.4-1-1s0.4-1,1-1h5c0.6,0,1,0.4,1,1S10.6,108,10,108z"/>
</g>
<g>
	<path class="st10" d="M128,107H70c-1.7,0-3-1.3-3-3V62c0-1.7,1.3-3,3-3h58c1.7,0,3,1.3,3,3v42C131,105.7,129.7,107,128,107z"/>
	<path class="st9" d="M128,108H70c-2.2,0-4-1.8-4-4V62c0-2.2,1.8-4,4-4h58c2.2,0,4,1.8,4,4v42C132,106.2,130.2,108,128,108z M70,60
		c-1.1,0-2,0.9-2,2v42c0,1.1,0.9,2,2,2h58c1.1,0,2-0.9,2-2V62c0-1.1-0.9-2-2-2H70z"/>
</g>
<g>
	<rect x="73" y="65" class="st11" width="52" height="30"/>
	<path class="st9" d="M126,97H72c-0.6,0-1-0.4-1-1V64c0-0.6,0.4-1,1-1h54c0.6,0,1,0.4,1,1v32C127,96.6,126.6,97,126,97z M73,95h52
		V65H73V95z"/>
</g>
<path class="st10" d="M104,101L104,101c0,1.1-0.9,2-2,2h-6c-1.1,0-2-0.9-2-2l0,0H62v3c0,1.7,1.3,3,3,3h68c1.7,0,3-1.3,3-3v-3H104z"
	/>
<g>
	<circle class="st9" cx="99" cy="99" r="1"/>
</g>
<g>
	<rect x="73" y="65" class="st12" width="13" height="30"/>
</g>
<g>
	<g>
		<path class="st13" d="M80,70h-4c-0.6,0-1-0.4-1-1s0.4-1,1-1h4c0.6,0,1,0.4,1,1S80.6,70,80,70z"/>
	</g>
</g>
<g>
	<g>
		<path class="st12" d="M94,70h-4c-0.6,0-1-0.4-1-1s0.4-1,1-1h4c0.6,0,1,0.4,1,1S94.6,70,94,70z"/>
	</g>
</g>
<g>
	<g>
		<path class="st12" d="M94,80h-4c-0.6,0-1-0.4-1-1s0.4-1,1-1h4c0.6,0,1,0.4,1,1S94.6,80,94,80z"/>
	</g>
</g>
<g>
	<g>
		<path class="st12" d="M105,73h-3c-0.6,0-1-0.4-1-1s0.4-1,1-1h3c0.6,0,1,0.4,1,1S105.6,73,105,73z"/>
	</g>
</g>
<g>
	<g>
		<path class="st12" d="M114,83h-3c-0.6,0-1-0.4-1-1s0.4-1,1-1h3c0.6,0,1,0.4,1,1S114.6,83,114,83z"/>
	</g>
</g>
<g>
	<g>
		<path class="st12" d="M95,92h-3c-0.6,0-1-0.4-1-1s0.4-1,1-1h3c0.6,0,1,0.4,1,1S95.6,92,95,92z"/>
	</g>
</g>
<g>
	<g>
		<path class="st14" d="M107,76h-3c-0.6,0-1-0.4-1-1s0.4-1,1-1h3c0.6,0,1,0.4,1,1S107.6,76,107,76z"/>
	</g>
</g>
<g>
	<g>
		<path class="st14" d="M107,86h-3c-0.6,0-1-0.4-1-1s0.4-1,1-1h3c0.6,0,1,0.4,1,1S107.6,86,107,86z"/>
	</g>
</g>
<g>
	<g>
		<path class="st12" d="M112,73h-4c-0.6,0-1-0.4-1-1s0.4-1,1-1h4c0.6,0,1,0.4,1,1S112.6,73,112,73z"/>
	</g>
</g>
<g>
	<g>
		<path class="st13" d="M80,80h-4c-0.6,0-1-0.4-1-1s0.4-1,1-1h4c0.6,0,1,0.4,1,1S80.6,80,80,80z"/>
	</g>
</g>
<g>
	<g>
		<path class="st13" d="M82,73h-4c-0.6,0-1-0.4-1-1s0.4-1,1-1h4c0.6,0,1,0.4,1,1S82.6,73,82,73z"/>
	</g>
</g>
<g>
	<g>
		<path class="st5" d="M99,73h-7c-0.6,0-1-0.4-1-1s0.4-1,1-1h7c0.6,0,1,0.4,1,1S99.6,73,99,73z"/>
	</g>
</g>
<g>
	<g>
		<path class="st5" d="M105,92h-7c-0.6,0-1-0.4-1-1s0.4-1,1-1h7c0.6,0,1,0.4,1,1S105.6,92,105,92z"/>
	</g>
</g>
<g>
	<g>
		<path class="st14" d="M99,89h-7c-0.6,0-1-0.4-1-1s0.4-1,1-1h7c0.6,0,1,0.4,1,1S99.6,89,99,89z"/>
	</g>
</g>
<g>
	<g>
		<path class="st5" d="M96,83h-4c-0.6,0-1-0.4-1-1s0.4-1,1-1h4c0.6,0,1,0.4,1,1S96.6,83,96,83z"/>
	</g>
</g>
<g>
	<g>
		<path class="st12" d="M101,76h-9c-0.6,0-1-0.4-1-1s0.4-1,1-1h9c0.6,0,1,0.4,1,1S101.6,76,101,76z"/>
	</g>
</g>
<g>
	<g>
		<path class="st12" d="M108,83h-9c-0.6,0-1-0.4-1-1s0.4-1,1-1h9c0.6,0,1,0.4,1,1S108.6,83,108,83z"/>
	</g>
</g>
<g>
	<g>
		<path class="st12" d="M101,86h-9c-0.6,0-1-0.4-1-1s0.4-1,1-1h9c0.6,0,1,0.4,1,1S101.6,86,101,86z"/>
	</g>
</g>
<g>
	<g>
		<path class="st13" d="M81,76h-3c-0.6,0-1-0.4-1-1s0.4-1,1-1h3c0.6,0,1,0.4,1,1S81.6,76,81,76z"/>
	</g>
</g>
<g>
	<g>
		<path class="st13" d="M83,83h-5c-0.6,0-1-0.4-1-1s0.4-1,1-1h5c0.6,0,1,0.4,1,1S83.6,83,83,83z"/>
	</g>
</g>
<g>
	<g>
		<path class="st13" d="M80,86h-2c-0.6,0-1-0.4-1-1s0.4-1,1-1h2c0.6,0,1,0.4,1,1S80.6,86,80,86z"/>
	</g>
</g>
<g>
	<g>
		<path class="st13" d="M82,89h-4c-0.6,0-1-0.4-1-1s0.4-1,1-1h4c0.6,0,1,0.4,1,1S82.6,89,82,89z"/>
	</g>
</g>
<g>
	<g>
		<path class="st12" d="M110,89h-8c-0.6,0-1-0.4-1-1s0.4-1,1-1h8c0.6,0,1,0.4,1,1S110.6,89,110,89z"/>
	</g>
</g>
<g>
	<g>
		<path class="st13" d="M81,92h-3c-0.6,0-1-0.4-1-1s0.4-1,1-1h3c0.6,0,1,0.4,1,1S81.6,92,81,92z"/>
	</g>
</g>
<g>
	<path class="st15" d="M65,106h68c1.1,0,2-0.9,2-2h-33h-6H63C63,105.1,63.9,106,65,106z"/>
</g>
<g>
	<path class="st15" d="M129,60.3V100h1V62C130,61.3,129.6,60.6,129,60.3z"/>
</g>
<g>
	<rect x="73" y="65" class="st16" width="13" height="1"/>
</g>
<g>
	<rect x="86" y="65" class="st17" width="39" height="1"/>
</g>
<path class="st9" d="M136,100h-32H94H62c-0.6,0-1,0.4-1,1v3c0,2.2,1.8,4,4,4h68c2.2,0,4-1.8,4-4v-3C137,100.4,136.6,100,136,100z
	 M135,104c0,1.1-0.9,2-2,2H65c-1.1,0-2-0.9-2-2v-2h30.2c0.4,1.2,1.5,2,2.8,2h6c1.3,0,2.4-0.8,2.8-2H135V104z"/>
<g>
	<g>
		<path class="st10" d="M154,41c-0.4,0-0.8,0-1.1,0.1c0.1-0.4,0.1-0.7,0.1-1.1c0-2.8-2.2-5-5-5c-2.3,0-4.1,1.5-4.8,3.6
			c-0.7-0.3-1.4-0.6-2.2-0.6c-2.8,0-5,2.2-5,5c0,0,0,0.1,0,0.1c-0.3-0.1-0.7-0.1-1-0.1c-2.8,0-5,2.2-5,5s2.2,5,5,5h19
			c3.3,0,6-2.7,6-6S157.3,41,154,41z"/>
		<path class="st9" d="M154,54h-19c-3.3,0-6-2.7-6-6c0-3.3,2.7-6.1,6.1-6c0.5-2.8,2.9-5,5.9-5c0.6,0,1.1,0.1,1.7,0.3
			c1-2,3-3.3,5.3-3.3c3.3,0,6,2.7,6,6c3.9,0,7,3.1,7,7S157.9,54,154,54z M135,44c-2.2,0-4,1.8-4,4s1.8,4,4,4h19c2.8,0,5-2.2,5-5
			c0-3.1-2.7-5.5-5.9-4.9c-0.3,0.1-0.7,0-0.9-0.3s-0.3-0.6-0.3-0.9c0.1-0.3,0.1-0.6,0.1-0.9c0-2.2-1.8-4-4-4c-1.8,0-3.3,1.1-3.8,2.8
			c-0.1,0.3-0.3,0.5-0.6,0.6c-0.3,0.1-0.6,0.1-0.8,0c-0.6-0.3-1.2-0.4-1.8-0.4c-2.2,0-4,1.8-4,3.9c0,0,0,0.1,0,0.1
			c0,0.3-0.1,0.6-0.4,0.8c-0.2,0.2-0.5,0.3-0.8,0.2C135.5,44,135.3,44,135,44z"/>
	</g>
	<g>
		<path class="st15" d="M157,43c0.6,0.8,1,1.9,1,3c0,2.8-2.2,5-5,5h-2h-18.7c0.7,0.6,1.6,1,2.6,1h18c0.2,0,0.8,0,1,0
			c2.8,0,5-2.2,5-5C159,45.4,158.2,43.9,157,43z"/>
	</g>
	<g>
		<path class="st9" d="M160,48c-0.6,0-1-0.4-1-1c0-2.8-2.2-5-5-5c-1.7,0-3.2,0.8-4.2,2.2c-0.3,0.5-0.9,0.6-1.4,0.3
			c-0.5-0.3-0.6-0.9-0.3-1.4c1.3-2,3.5-3.1,5.8-3.1c3.9,0,7,3.1,7,7C161,47.6,160.6,48,160,48z"/>
	</g>
	<g>
		<path class="st9" d="M145.6,42c-0.4,0-0.8-0.2-0.9-0.6c-0.6-1.5-2.1-2.4-3.7-2.4c-0.6,0-1-0.4-1-1s0.4-1,1-1
			c2.4,0,4.5,1.4,5.5,3.6c0.2,0.5,0,1.1-0.5,1.3C145.9,42,145.7,42,145.6,42z"/>
	</g>
	<g>
		<path class="st9" d="M139.6,47c-0.4,0-0.8-0.2-0.9-0.6c-0.6-1.5-2.1-2.4-3.7-2.4c-0.6,0-1-0.4-1-1s0.4-1,1-1
			c2.4,0,4.5,1.4,5.5,3.6c0.2,0.5,0,1.1-0.5,1.3C139.9,47,139.7,47,139.6,47z"/>
	</g>
	<g>
		<path class="st9" d="M148,54c-2.2,0-4-1.8-4-4c0-0.6,0.4-1,1-1s1,0.4,1,1c0,1.1,0.9,2,2,2c0.6,0,1,0.4,1,1S148.6,54,148,54z"/>
	</g>
</g>
<g>
	<path class="st18" d="M143,73h-8c-0.6,0-1-0.4-1-1s0.4-1,1-1h8c0.6,0,1-0.4,1-1V56c0-0.6,0.4-1,1-1s1,0.4,1,1v14
		C146,71.7,144.7,73,143,73z"/>
</g>
<g>
	<path class="st18" d="M141,69h-6c-0.6,0-1-0.4-1-1s0.4-1,1-1h5V57h-1c-0.6,0-1-0.4-1-1s0.4-1,1-1h2c0.6,0,1,0.4,1,1v12
		C142,68.6,141.6,69,141,69z"/>
</g>
<g>
	<path class="st18" d="M144,77h-9c-0.6,0-1-0.4-1-1s0.4-1,1-1h9c2.2,0,4-1.8,4-4V56c0-0.6,0.4-1,1-1h2c0.6,0,1,0.4,1,1s-0.4,1-1,1
		h-1v14C150,74.3,147.3,77,144,77z"/>
</g>
<g>
	<g>
		<path class="st12" d="M54,70H26c-1.1,0-2-0.9-2-2V46c0-1.1,0.9-2,2-2h28c1.1,0,2,0.9,2,2v22C56,69.1,55.1,70,54,70z"/>
		<path class="st1" d="M54,71H26c-1.7,0-3-1.3-3-3V46c0-1.7,1.3-3,3-3h28c1.7,0,3,1.3,3,3v22C57,69.7,55.7,71,54,71z M26,45
			c-0.6,0-1,0.4-1,1v22c0,0.6,0.4,1,1,1h28c0.6,0,1-0.4,1-1V46c0-0.6-0.4-1-1-1H26z"/>
	</g>
	<g>
		<path class="st10" d="M56,50H24v-4c0-1.1,0.9-2,2-2h28c1.1,0,2,0.9,2,2V50z"/>
		<path class="st1" d="M56,51H24c-0.6,0-1-0.4-1-1v-4c0-1.7,1.3-3,3-3h28c1.7,0,3,1.3,3,3v4C57,50.6,56.6,51,56,51z M25,49h30v-3
			c0-0.6-0.4-1-1-1H26c-0.6,0-1,0.4-1,1V49z"/>
	</g>
	<g>
		<path class="st12" d="M60,75H32c-1.1,0-2-0.9-2-2V51c0-1.1,0.9-2,2-2h28c1.1,0,2,0.9,2,2v22C62,74.1,61.1,75,60,75z"/>
		<path class="st9" d="M60,76H32c-1.7,0-3-1.3-3-3V51c0-1.7,1.3-3,3-3h28c1.7,0,3,1.3,3,3v22C63,74.7,61.7,76,60,76z M32,50
			c-0.6,0-1,0.4-1,1v22c0,0.6,0.4,1,1,1h28c0.6,0,1-0.4,1-1V51c0-0.6-0.4-1-1-1H32z"/>
	</g>
	<g>
		<path class="st10" d="M62,55H30v-4c0-1.1,0.9-2,2-2h28c1.1,0,2,0.9,2,2V55z"/>
		<path class="st9" d="M62,56H30c-0.6,0-1-0.4-1-1v-4c0-1.7,1.3-3,3-3h28c1.7,0,3,1.3,3,3v4C63,55.6,62.6,56,62,56z M31,54h30v-3
			c0-0.6-0.4-1-1-1H32c-0.6,0-1,0.4-1,1V54z"/>
	</g>
	<g>
		<path class="st9" d="M41,69c-0.3,0-0.5-0.1-0.7-0.3l-3-3c-0.4-0.4-0.4-1,0-1.4l3-3c0.4-0.4,1-0.4,1.4,0s0.4,1,0,1.4L39.4,65
			l2.3,2.3c0.4,0.4,0.4,1,0,1.4C41.5,68.9,41.3,69,41,69z"/>
	</g>
	<g>
		<path class="st9" d="M51,69c-0.3,0-0.5-0.1-0.7-0.3c-0.4-0.4-0.4-1,0-1.4l2.3-2.3l-2.3-2.3c-0.4-0.4-0.4-1,0-1.4s1-0.4,1.4,0l3,3
			c0.4,0.4,0.4,1,0,1.4l-3,3C51.5,68.9,51.3,69,51,69z"/>
	</g>
	<g>
		<circle class="st9" cx="33" cy="52" r="1"/>
	</g>
	<g>
		<circle class="st9" cx="36" cy="52" r="1"/>
	</g>
	<g>
		<circle class="st9" cx="39" cy="52" r="1"/>
	</g>
	<g>
		<circle class="st1" cx="27" cy="47" r="1"/>
	</g>
	<g>
		<circle class="st1" cx="30" cy="47" r="1"/>
	</g>
	<g>
		<circle class="st1" cx="33" cy="47" r="1"/>
	</g>
	<g>
		<path class="st9" d="M44,70c-0.1,0-0.3,0-0.4-0.1c-0.5-0.2-0.7-0.8-0.4-1.3l4-8c0.2-0.5,0.8-0.7,1.3-0.4c0.5,0.2,0.7,0.8,0.4,1.3
			l-4,8C44.7,69.8,44.4,70,44,70z"/>
	</g>
</g>
<g>
	<g>
		<path class="st7" d="M61,34c-1.1,0-2,0.9-2,2v13v3l2.9-2.2c0.7-0.5,1.5-0.8,2.4-0.8H81c1.1,0,2-0.9,2-2V36c0-1.1-0.9-2-2-2H61z"/>
		<path class="st9" d="M59,53c-0.2,0-0.3,0-0.4-0.1C58.2,52.7,58,52.4,58,52V36c0-1.7,1.3-3,3-3h20c1.7,0,3,1.3,3,3v11
			c0,1.7-1.3,3-3,3H64.3c-0.6,0-1.3,0.2-1.8,0.6l-2.9,2.2C59.4,52.9,59.2,53,59,53z M61,35c-0.6,0-1,0.4-1,1v14l1.3-1
			c0.9-0.6,1.9-1,3-1H81c0.6,0,1-0.4,1-1V36c0-0.6-0.4-1-1-1H61z"/>
	</g>
	<g>
		<path class="st9" d="M63.4,41.2c0-1.5,1-2.9,2.8-2.9c0.7,0,1.2,0.2,1.8,0.7c0.2,0.2,0.2,0.6,0,0.8c-0.2,0.2-0.5,0.2-0.7,0
			c-0.3-0.3-0.7-0.4-1.1-0.4c-1.2,0-1.8,0.9-1.8,1.8c0,1,0.6,1.9,1.8,1.9c0.5,0,0.9-0.2,1.2-0.5c0.2-0.2,0.6-0.1,0.7,0.1
			c0.1,0.2,0.2,0.5-0.1,0.8c-0.6,0.5-1.2,0.6-1.9,0.6C64.2,44.1,63.4,42.7,63.4,41.2z"/>
		<path class="st9" d="M69.1,39.7c0.2-1.6,2.5-1.8,3.6-1c0.5,0.4,0,1.1-0.5,0.8c-0.6-0.4-1.9-0.6-2.1,0.3c-0.2,1.3,3.3,0.6,3.2,2.7
			c-0.1,2-3,2.1-4.1,1.2C69,43.4,69,43,69.1,42.8c0.2-0.2,0.4-0.3,0.7-0.1c0.7,0.4,2.3,0.8,2.5-0.4C72.2,41.2,68.8,41.9,69.1,39.7z"
			/>
		<path class="st9" d="M74.1,39.7c0.2-1.6,2.5-1.8,3.6-1c0.5,0.4,0,1.1-0.5,0.8c-0.6-0.4-1.9-0.6-2.1,0.3c-0.2,1.3,3.3,0.6,3.2,2.7
			c-0.1,2-3,2.1-4.1,1.2C74,43.4,74,43,74.2,42.8c0.2-0.2,0.4-0.3,0.7-0.1c0.7,0.4,2.3,0.8,2.5-0.4C77.2,41.2,73.9,41.9,74.1,39.7z"
			/>
	</g>
</g>
<g>
	<g>
		<path class="st19" d="M36,90c1.1,0,2-0.9,2-2V75v-3l-2.9,2.2c-0.7,0.5-1.5,0.8-2.4,0.8H12c-1.1,0-2,0.9-2,2v11c0,1.1,0.9,2,2,2H36
			z"/>
		<path class="st9" d="M36,91H12c-1.7,0-3-1.3-3-3V77c0-1.7,1.3-3,3-3h20.7c0.6,0,1.3-0.2,1.8-0.6l2.9-2.2c0.3-0.2,0.7-0.3,1-0.1
			c0.3,0.2,0.6,0.5,0.6,0.9v16C39,89.7,37.7,91,36,91z M12,76c-0.6,0-1,0.4-1,1v11c0,0.6,0.4,1,1,1h24c0.6,0,1-0.4,1-1V74l-1.3,1
			c-0.9,0.6-1.9,1-3,1H12z"/>
	</g>
	<g>
		<path class="st9" d="M13.6,84.5V80c0-0.3,0.2-0.5,0.6-0.5c0.3,0,0.5,0.2,0.5,0.5v1.7h2.6V80c0-0.3,0.3-0.5,0.5-0.5
			c0.3,0,0.5,0.2,0.5,0.5v4.5c0,0.3-0.2,0.5-0.5,0.5c-0.3,0-0.5-0.2-0.5-0.5v-1.8h-2.6v1.8c0,0.3-0.2,0.5-0.5,0.5
			C13.8,85,13.6,84.8,13.6,84.5z"/>
		<path class="st9" d="M20.9,80.5h-1.4c-0.7,0-0.7-1,0-1h3.8c0.7,0,0.7,1,0,1h-1.3v4c0,0.7-1.1,0.7-1.1,0V80.5z"/>
		<path class="st9" d="M25.6,81.5v3c0,0.4-0.3,0.6-0.6,0.6c-0.3,0-0.5-0.2-0.5-0.6v-4.5c0-0.4,0.4-0.6,0.5-0.6
			c0.2,0,0.4,0.1,0.5,0.3l1.8,2.4l1.8-2.5c0.3-0.3,0.9-0.2,0.9,0.4v4.5c0,0.4-0.2,0.6-0.5,0.6c-0.3,0-0.5-0.2-0.5-0.6v-3l-1.3,1.7
			c-0.3,0.4-0.6,0.4-0.9,0L25.6,81.5z"/>
		<path class="st9" d="M31.2,79.9c0-0.3,0.2-0.5,0.5-0.5c0.3,0,0.5,0.2,0.5,0.5v4h2.2c0.8,0,0.8,1,0,1h-2.6c-0.3,0-0.5-0.2-0.5-0.5
			V79.9z"/>
	</g>
</g>
<g>
	<path class="st9" d="M63,85H48c-1.7,0-3-1.3-3-3v-3c0-0.6,0.4-1,1-1s1,0.4,1,1v3c0,0.6,0.4,1,1,1h15c0.6,0,1,0.4,1,1S63.6,85,63,85
		z"/>
</g>
<g>
	<path class="st20" d="M164,96L164,96c-2.8,0-5-2.2-5-5v-6c0-2.8,2.2-5,5-5l0,0c2.8,0,5,2.2,5,5v6C169,93.8,166.8,96,164,96z"/>
	<path class="st9" d="M164,97c-3.3,0-6-2.7-6-6v-6c0-3.3,2.7-6,6-6s6,2.7,6,6v6C170,94.3,167.3,97,164,97z M164,81c-2.2,0-4,1.8-4,4
		v6c0,2.2,1.8,4,4,4s4-1.8,4-4v-6C168,82.8,166.2,81,164,81z"/>
</g>
<g>
	<path class="st21" d="M167,82.4V90c0,2.2-1.8,4-4,4c-0.8,0-1.6-0.3-2.3-0.7c0.7,1,1.9,1.7,3.3,1.7c2.2,0,4-1.8,4-4v-6
		C168,84,167.6,83.1,167,82.4z"/>
</g>
<g>
	<circle class="st9" cx="164" cy="85" r="1"/>
</g>
<g>
	<path class="st9" d="M149,92h-14c-0.6,0-1-0.4-1-1s0.4-1,1-1h14c1.7,0,3-1.3,3-3V76.5c0-3.6,2.9-6.5,6.5-6.5s6.5,2.9,6.5,6.5V80
		c0,0.6-0.4,1-1,1s-1-0.4-1-1v-3.5c0-2.5-2-4.5-4.5-4.5s-4.5,2-4.5,4.5V87C154,89.8,151.8,92,149,92z"/>
</g>
<g>
	<g>
		<circle class="st22" cx="116" cy="58" r="7"/>
		<path class="st9" d="M116,67c-5,0-9-4-9-9c0-5,4-9,9-9s9,4,9,9C125,63,121,67,116,67z M116,51c-3.9,0-7,3.1-7,7c0,3.9,3.1,7,7,7
			s7-3.1,7-7C123,54.1,119.9,51,116,51z"/>
	</g>
	<g>
		<path class="st12" d="M115,61c-0.3,0-0.5-0.1-0.7-0.3l-2-2c-0.4-0.4-0.4-1,0-1.4s1-0.4,1.4,0l1.3,1.3l3.3-3.3c0.4-0.4,1-0.4,1.4,0
			s0.4,1,0,1.4l-4,4C115.5,60.9,115.3,61,115,61z"/>
	</g>
</g>
<g>
	<circle class="st9" cx="172" cy="48" r="1"/>
</g>
<g>
	<circle class="st9" cx="175" cy="48" r="1"/>
</g>
<g>
	<circle class="st9" cx="166" cy="48" r="1"/>
</g>
<g>
	<circle class="st9" cx="163" cy="48" r="1"/>
</g>
<g>
	<circle class="st9" cx="169" cy="48" r="1"/>
</g>
<g>
	<circle class="st9" cx="178" cy="51" r="1"/>
</g>
<g>
	<circle class="st9" cx="178" cy="48" r="1"/>
</g>
<g>
	<circle class="st9" cx="178" cy="45" r="1"/>
</g>
<g>
	<circle class="st9" cx="178" cy="42" r="1"/>
</g>
<g>
	<circle class="st9" cx="178" cy="84" r="1"/>
</g>
<g>
	<circle class="st9" cx="178" cy="87" r="1"/>
</g>
<g>
	<circle class="st9" cx="178" cy="81" r="1"/>
</g>
<g>
	<rect x="95" y="45" class="st7" width="6" height="8"/>
	<path class="st9" d="M102,55h-8c-0.6,0-1-0.4-1-1V44c0-0.6,0.4-1,1-1h8c0.6,0,1,0.4,1,1v10C103,54.6,102.6,55,102,55z M95,53h6v-8
		h-6V53z"/>
</g>
<g>
	<path class="st10" d="M94,47L94,47c-1.7,0-3-1.3-3-3v-3h3V47z"/>
	<path class="st9" d="M94,48c-2.2,0-4-1.8-4-4v-3c0-0.6,0.4-1,1-1h3c0.6,0,1,0.4,1,1v6C95,47.6,94.6,48,94,48z M92,42v2
		c0,0.7,0.4,1.4,1,1.7V42H92z"/>
</g>
<g>
	<path class="st10" d="M102,47L102,47c1.7,0,3-1.3,3-3v-3h-3V47z"/>
	<path class="st9" d="M102,48c-0.6,0-1-0.4-1-1v-6c0-0.6,0.4-1,1-1h3c0.6,0,1,0.4,1,1v3C106,46.2,104.2,48,102,48z M103,42v3.7
		c0.6-0.3,1-1,1-1.7v-2H103z"/>
</g>
<g>
	<rect x="91" y="38" class="st10" width="14" height="2"/>
	<path class="st9" d="M106,42H90c-0.6,0-1-0.4-1-1v-4c0-0.6,0.4-1,1-1h16c0.6,0,1,0.4,1,1v4C107,41.6,106.6,42,106,42z M91,40h14v-2
		H91V40z"/>
</g>
<g>
	<path class="st9" d="M98,37c-0.6,0-1-0.4-1-1V20c0-0.6,0.4-1,1-1s1,0.4,1,1v16C99,36.6,98.6,37,98,37z"/>
</g>
<g>
	<path class="st9" d="M98,38c-1.1,0-2-0.9-2-2v-3c0-1.1,0.9-2,2-2s2,0.9,2,2v3C100,37.1,99.1,38,98,38z"/>
</g>
<g>
	<rect x="84" y="19" class="st10" width="6" height="2"/>
	<path class="st9" d="M91,23h-8c-0.6,0-1-0.4-1-1v-4c0-0.6,0.4-1,1-1h8c0.6,0,1,0.4,1,1v4C92,22.6,91.6,23,91,23z M84,21h6v-2h-6V21
		z"/>
</g>
<g>
	<path class="st9" d="M81,26H59c-0.6,0-1-0.4-1-1s0.4-1,1-1h22c0.6,0,1-0.4,1-1v-6c0-0.6-0.4-1-1-1H62c-0.6,0-1-0.4-1-1s0.4-1,1-1
		h19c1.7,0,3,1.3,3,3v6C84,24.7,82.7,26,81,26z"/>
</g>
<g>
	<rect x="91" y="39" class="st15" width="14" height="1"/>
</g>
<g>
	<path class="st5" d="M80,16v5c0,1.1-0.9,2-2,2H67.4c-0.9,0-1.8,0.4-2.4,1v0h15h1c0.6,0,1-0.4,1-1v-6c0-0.6-0.4-1-1-1H80z"/>
</g>
<g>
	<circle class="st23" cx="98" cy="47" r="1"/>
</g>
<g>
	<circle class="st23" cx="98" cy="51" r="1"/>
</g>
<g>
	<circle class="st23" cx="98" cy="49" r="1"/>
</g>
<g>
	<rect x="103" y="42" class="st15" width="1" height="1"/>
</g>
<g>
	<rect x="92" y="42" class="st15" width="1" height="1"/>
</g>
<g>
	<rect x="84" y="20" class="st15" width="6" height="1"/>
</g>
<g>
	<circle class="st10" cx="94" cy="20" r="3"/>
	<path class="st9" d="M94,25c-2.8,0-5-2.2-5-5s2.2-5,5-5s5,2.2,5,5S96.8,25,94,25z M94,17c-1.7,0-3,1.3-3,3s1.3,3,3,3s3-1.3,3-3
		S95.7,17,94,17z"/>
</g>
<g>
	<circle class="st9" cx="94" cy="20" r="1"/>
</g>
<g>
	<g>
		<path class="st24" d="M167.9,67.4c0.7,0.1,1.3,0.7,1.5,1.4c0.2,0.5,0.3,0.9,0.6,1.4c0.3,0.6,0.3,1.4-0.1,2l-0.5,0.8
			c-0.3,0.5-0.3,1.1,0.2,1.5l0,0c0.4,0.4,1.1,0.5,1.5,0.2l0.8-0.5c0.6-0.4,1.4-0.4,2-0.1c0.4,0.2,0.9,0.4,1.4,0.6
			c0.7,0.2,1.2,0.8,1.4,1.5l0.2,0.9c0.1,0.6,0.6,1,1.2,1l0,0c0.6,0,1.1-0.4,1.2-1l0.2-0.9c0.1-0.7,0.7-1.3,1.4-1.5
			c0.5-0.2,0.9-0.3,1.4-0.6c0.6-0.3,1.4-0.3,2,0.1l0.8,0.5c0.5,0.3,1.1,0.3,1.5-0.2l0,0c0.4-0.4,0.5-1.1,0.2-1.5l-0.5-0.8
			c-0.4-0.6-0.4-1.4-0.1-2c0.2-0.4,0.4-0.9,0.6-1.4c0.2-0.7,0.8-1.2,1.5-1.4l0.9-0.2c0.6-0.1,1-0.6,1-1.2v0c0-0.6-0.4-1.1-1-1.2
			l-0.9-0.2c-0.7-0.1-1.3-0.7-1.5-1.4c-0.2-0.5-0.3-0.9-0.6-1.4c-0.3-0.6-0.3-1.4,0.1-2l0.5-0.8c0.3-0.5,0.3-1.1-0.2-1.5l0,0
			c-0.4-0.4-1.1-0.5-1.5-0.2l-0.8,0.5c-0.6,0.4-1.4,0.4-2,0.1c-0.4-0.2-0.9-0.4-1.4-0.6c-0.7-0.2-1.2-0.8-1.4-1.5l-0.2-0.9
			c-0.1-0.6-0.6-1-1.2-1l0,0c-0.6,0-1.1,0.4-1.2,1l-0.2,0.9c-0.1,0.7-0.7,1.3-1.4,1.5c-0.5,0.2-0.9,0.3-1.4,0.6
			c-0.6,0.3-1.4,0.3-2-0.1l-0.8-0.5c-0.5-0.3-1.1-0.3-1.5,0.2l0,0c-0.4,0.4-0.5,1.1-0.2,1.5l0.5,0.8c0.4,0.6,0.4,1.4,0.1,2
			c-0.2,0.4-0.4,0.9-0.6,1.4c-0.2,0.7-0.8,1.2-1.5,1.4l-0.9,0.2c-0.6,0.1-1,0.6-1,1.2v0c0,0.6,0.4,1.1,1,1.2L167.9,67.4z M178,61
			c2.8,0,5,2.2,5,5s-2.2,5-5,5s-5-2.2-5-5S175.2,61,178,61z"/>
		<path class="st9" d="M178,79c-1.1,0-2-0.8-2.2-1.8l-0.2-0.9c-0.1-0.4-0.3-0.6-0.7-0.7c-0.5-0.2-1-0.4-1.5-0.6
			c-0.3-0.2-0.7-0.2-1,0l-0.8,0.5c-0.9,0.6-2.1,0.5-2.8-0.3c-0.7-0.7-0.9-1.9-0.3-2.8l0.5-0.8c0.2-0.3,0.2-0.7,0-1
			c-0.2-0.5-0.5-1-0.6-1.5c-0.1-0.3-0.4-0.6-0.7-0.7l0,0l-0.9-0.2c-1-0.2-1.8-1.1-1.8-2.2s0.8-2,1.8-2.2l0.9-0.2
			c0.4-0.1,0.6-0.3,0.7-0.7c0.2-0.5,0.4-1,0.6-1.5c0.2-0.3,0.2-0.7,0-1l-0.5-0.8c-0.6-0.9-0.5-2.1,0.3-2.8c0.7-0.7,1.9-0.9,2.8-0.3
			l0.8,0.5c0.3,0.2,0.7,0.2,1,0c0.5-0.3,1-0.5,1.5-0.6c0.3-0.1,0.6-0.4,0.7-0.7l0.2-0.9c0.2-1,1.1-1.8,2.2-1.8s2,0.8,2.2,1.8
			l0.2,0.9c0.1,0.4,0.3,0.6,0.7,0.7c0.5,0.2,1,0.4,1.5,0.6c0.3,0.2,0.7,0.2,1,0l0.8-0.5c0.9-0.6,2.1-0.5,2.8,0.3
			c0.7,0.7,0.9,1.9,0.3,2.8l-0.5,0.8c-0.2,0.3-0.2,0.7,0,1c0.3,0.5,0.5,1,0.6,1.5c0.1,0.3,0.4,0.6,0.7,0.7l0.9,0.2
			c1,0.2,1.8,1.1,1.8,2.2s-0.8,2-1.8,2.2l-0.9,0.2c-0.4,0.1-0.6,0.3-0.7,0.7c-0.2,0.5-0.4,1-0.6,1.5c-0.2,0.3-0.2,0.7,0,1l0.5,0.8
			c0.6,0.9,0.5,2.1-0.3,2.8c-0.7,0.7-1.9,0.9-2.8,0.3l-0.8-0.5c-0.3-0.2-0.7-0.2-1,0c-0.5,0.3-1,0.5-1.5,0.6
			c-0.3,0.1-0.6,0.4-0.7,0.7l-0.2,0.9C180,78.2,179.1,79,178,79z M173,72.8c0.5,0,0.9,0.1,1.4,0.3c0.4,0.2,0.8,0.4,1.2,0.5
			c1,0.3,1.8,1.2,2,2.3l0.2,0.9c0,0.2,0.4,0.2,0.4,0l0.2-0.9c0.2-1.1,1-1.9,2-2.3c0.4-0.1,0.8-0.3,1.2-0.5c1-0.5,2.1-0.4,3,0.2
			l0.8,0.5c0.1,0.1,0.2,0,0.3,0c0.1-0.1,0.1-0.2,0-0.3l-0.5-0.8c-0.6-0.9-0.7-2.1-0.2-3c0.2-0.4,0.4-0.8,0.5-1.2
			c0.3-1,1.2-1.8,2.3-2l0.9-0.2c0.1,0,0.2-0.1,0.2-0.2s-0.1-0.2-0.2-0.2l-0.9-0.2c-1.1-0.2-1.9-1-2.3-2c-0.1-0.4-0.3-0.8-0.5-1.2
			c-0.5-1-0.4-2.1,0.2-3l0.5-0.8c0.1-0.1,0-0.2,0-0.3c-0.1-0.1-0.2-0.1-0.3,0l-0.8,0.5c-0.9,0.6-2.1,0.7-3,0.2
			c-0.4-0.2-0.8-0.4-1.2-0.5c-1-0.3-1.8-1.2-2-2.3l-0.2-0.9c0-0.2-0.4-0.2-0.4,0l-0.2,0.9c-0.2,1.1-1,1.9-2,2.3
			c-0.4,0.1-0.8,0.3-1.2,0.5c-1,0.5-2.1,0.4-3-0.2l-0.8-0.5c-0.1-0.1-0.2,0-0.3,0c-0.1,0.1-0.1,0.2,0,0.3l0.5,0.8
			c0.6,0.9,0.7,2.1,0.2,3c-0.2,0.4-0.4,0.8-0.5,1.2c-0.3,1-1.2,1.8-2.3,2l-0.9,0.2c-0.1,0-0.2,0.1-0.2,0.2s0.1,0.2,0.2,0.2l0.9,0.2
			c1.1,0.2,1.9,1,2.3,2c0.1,0.4,0.3,0.8,0.5,1.2c0.5,1,0.4,2.1-0.2,3l-0.5,0.8c-0.1,0.1,0,0.2,0,0.3c0.1,0.1,0.2,0.1,0.3,0l0.8-0.5
			C171.8,72.9,172.4,72.8,173,72.8z M178,72c-3.3,0-6-2.7-6-6s2.7-6,6-6s6,2.7,6,6S181.3,72,178,72z M178,62c-2.2,0-4,1.8-4,4
			s1.8,4,4,4s4-1.8,4-4S180.2,62,178,62z"/>
	</g>
	<g>
		<path class="st25" d="M188.8,65.8l-0.9-0.2c-1.1-0.2-1.9-1-2.3-2.1c-0.1-0.4-0.3-0.8-0.5-1.2c-0.5-1-0.4-2.1,0.2-3l0.5-0.8
			c0.1-0.1,0-0.2,0-0.3l-2.2,2.2c-0.4,0.4-0.4,0.9-0.1,1.3c1.2,1.5,1.7,3.5,1.3,5.7c-0.5,2.8-2.7,5-5.5,5.5
			c-2.1,0.4-4.2-0.2-5.7-1.3c-0.4-0.3-1-0.3-1.3,0.1l-2.2,2.2c0.1,0.1,0.2,0.1,0.3,0l0.8-0.5c0.5-0.3,1.1-0.5,1.7-0.5
			c0.5,0,0.9,0.1,1.4,0.3c0.4,0.2,0.8,0.4,1.2,0.5c1.1,0.3,1.9,1.2,2.1,2.3l0.2,0.9c0,0.2,0.4,0.2,0.4,0l0.2-0.9
			c0.2-1.1,1-1.9,2.1-2.3c0.4-0.1,0.8-0.3,1.2-0.5c1-0.5,2.1-0.4,3,0.2l0.8,0.5c0.1,0.1,0.2,0,0.3,0c0.1-0.1,0.1-0.2,0-0.3l-0.5-0.8
			c-0.6-0.9-0.7-2.1-0.2-3c0.2-0.4,0.4-0.8,0.5-1.2c0.3-1.1,1.2-1.9,2.3-2.1l0.9-0.2c0.1,0,0.2-0.1,0.2-0.2S188.9,65.8,188.8,65.8z"
			/>
	</g>
	<g>
		<path class="st25" d="M172,66c0-3.3,2.7-6,6-6c1.7,0,3.2,0.7,4.2,1.8c0,0,0.8-0.8-0.2-1.5c-1.1-0.8-2.5-1.3-4-1.3
			c-3.9,0-7,3.1-7,7c0,1.5,0.4,2.9,1.3,4c0.7,1,1.5,0.2,1.5,0.2C172.7,69.2,172,67.7,172,66z"/>
	</g>
</g>
</svg>
