<?xml version="1.0" encoding="utf-8"?>
<!-- Generator: Adobe Illustrator 22.0.1, SVG Export Plug-In . SVG Version: 6.00 Build 0)  -->
<svg version="1.1" xmlns="http://www.w3.org/2000/svg" xmlns:xlink="http://www.w3.org/1999/xlink" x="0px" y="0px"
	 viewBox="0 0 64 64" style="enable-background:new 0 0 64 64;" xml:space="preserve">
<style type="text/css">
	.st0{fill:#63312D;}
	.st1{fill:#EFC36A;}
	.st2{fill:#DB785A;}
	.st3{fill:#F9A287;}
	.st4{fill:#FFC8BB;}
	.st5{fill:#F9DD9D;}
	.st6{fill:#FFEECF;}
	.st7{fill:#52B8D9;}
	.st8{fill:#84DBFF;}
	.st9{fill:#CAF4FF;}
	.st10{fill:#D1D1D1;}
	.st11{fill:#F8F3F3;}
	.st12{fill:#FFFFFF;}
	.st13{fill:#82D9FF;}
</style>
<g id="Layer_1">
</g>
<g id="Layer_2">
	<g>
		<path class="st11" d="M43.146,18.404H20.375v-2h22.771c1.537,0,2.787-1.25,2.787-2.788c0-1.537-1.25-2.787-2.787-2.787
			c-1.537,0-2.787,1.251-2.787,2.787h-2c0-2.64,2.148-4.787,4.787-4.787c2.641,0,4.787,2.148,4.787,4.787
			C47.934,16.256,45.787,18.404,43.146,18.404z"/>
		<path class="st11" d="M55.965,23.045H14.559v-2h41.406c1.537,0,2.787-1.25,2.787-2.788c0-1.537-1.25-2.787-2.787-2.787
			c-1.537,0-2.787,1.251-2.787,2.787h-2c0-2.64,2.147-4.787,4.787-4.787c2.64,0,4.787,2.148,4.787,4.787
			C60.752,20.897,58.604,23.045,55.965,23.045z"/>
		<path class="st11" d="M52.728,35.226c-2.641,0-4.788-2.147-4.788-4.787h2c0,1.537,1.251,2.787,2.788,2.787
			c1.536,0,2.787-1.251,2.787-2.787c0-1.537-1.251-2.788-2.787-2.788H24.96v-2h27.768c2.639,0,4.787,2.148,4.787,4.788
			C57.516,33.079,55.367,35.226,52.728,35.226z"/>
		<path class="st0" d="M43.146,18.904H20.375c-0.276,0-0.5-0.224-0.5-0.5v-2c0-0.276,0.224-0.5,0.5-0.5h22.771
			c1.261,0,2.287-1.026,2.287-2.288s-1.026-2.287-2.287-2.287s-2.287,1.026-2.287,2.287c0,0.276-0.224,0.5-0.5,0.5h-2
			c-0.276,0-0.5-0.224-0.5-0.5c0-2.916,2.372-5.287,5.287-5.287s5.287,2.372,5.287,5.287S46.062,18.904,43.146,18.904z
			 M20.875,17.904h22.271c2.364,0,4.287-1.923,4.287-4.288c0-2.364-1.923-4.287-4.287-4.287c-2.194,0-4.01,1.658-4.258,3.787h1.009
			c0.241-1.576,1.606-2.787,3.249-2.787c1.813,0,3.287,1.475,3.287,3.287c0,1.813-1.475,3.288-3.287,3.288H20.875V17.904z"/>
		<path class="st0" d="M55.965,23.545H14.559c-0.276,0-0.5-0.224-0.5-0.5v-2c0-0.276,0.224-0.5,0.5-0.5h41.406
			c1.261,0,2.287-1.026,2.287-2.288s-1.026-2.287-2.287-2.287s-2.287,1.026-2.287,2.287c0,0.276-0.224,0.5-0.5,0.5h-2
			c-0.276,0-0.5-0.224-0.5-0.5c0-2.916,2.372-5.287,5.287-5.287s5.287,2.372,5.287,5.287S58.88,23.545,55.965,23.545z
			 M15.059,22.545h40.906c2.364,0,4.287-1.923,4.287-4.288c0-2.364-1.923-4.287-4.287-4.287c-2.194,0-4.01,1.658-4.258,3.787h1.009
			c0.241-1.576,1.606-2.787,3.249-2.787c1.813,0,3.287,1.475,3.287,3.287c0,1.813-1.475,3.288-3.287,3.288H15.059V22.545z"/>
		<path class="st0" d="M52.729,35.726c-2.916,0-5.288-2.372-5.288-5.287c0-0.276,0.224-0.5,0.5-0.5h2c0.276,0,0.5,0.224,0.5,0.5
			c0,1.261,1.026,2.287,2.288,2.287c1.261,0,2.287-1.026,2.287-2.287s-1.026-2.288-2.287-2.288H24.96c-0.276,0-0.5-0.224-0.5-0.5v-2
			c0-0.276,0.224-0.5,0.5-0.5h27.769c2.915,0,5.287,2.372,5.287,5.288S55.644,35.726,52.729,35.726z M48.47,30.939
			c0.248,2.129,2.063,3.787,4.259,3.787c2.364,0,4.287-1.923,4.287-4.287c0-2.364-1.923-4.288-4.287-4.288H25.46v1h27.269
			c1.813,0,3.287,1.475,3.287,3.288c0,1.813-1.475,3.287-3.287,3.287c-1.644,0-3.009-1.211-3.25-2.787H48.47z"/>
		<path class="st11" d="M20.775,46.552h22.773v2H20.775c-1.536,0-2.787,1.25-2.787,2.788c0,1.537,1.251,2.787,2.787,2.787
			c1.537,0,2.788-1.25,2.788-2.787h2c0,2.64-2.147,4.787-4.788,4.787c-2.639,0-4.787-2.147-4.787-4.787
			C15.988,48.7,18.137,46.552,20.775,46.552z"/>
		<path class="st11" d="M7.958,41.91h41.405v2H7.958c-1.536,0-2.787,1.25-2.787,2.788c0,1.537,1.251,2.787,2.787,2.787
			c1.537,0,2.788-1.25,2.788-2.787h2c0,2.64-2.148,4.787-4.788,4.787c-2.64,0-4.787-2.148-4.787-4.787
			C3.171,44.058,5.318,41.91,7.958,41.91z"/>
		<path class="st11" d="M11.195,29.729c2.639,0,4.787,2.148,4.787,4.787h-2c0-1.537-1.25-2.787-2.787-2.787s-2.787,1.25-2.787,2.787
			c0,1.537,1.25,2.788,2.787,2.788h27.768v2H11.195c-2.641,0-4.787-2.148-4.787-4.788C6.408,31.877,8.555,29.729,11.195,29.729z"/>
		<path class="st0" d="M20.775,56.626c-2.915,0-5.287-2.372-5.287-5.287s2.372-5.288,5.287-5.288h22.773c0.276,0,0.5,0.224,0.5,0.5
			v2c0,0.276-0.224,0.5-0.5,0.5H20.775c-1.261,0-2.287,1.026-2.287,2.288s1.026,2.287,2.287,2.287c1.262,0,2.288-1.026,2.288-2.287
			c0-0.276,0.224-0.5,0.5-0.5h2c0.276,0,0.5,0.224,0.5,0.5C26.063,54.255,23.691,56.626,20.775,56.626z M20.775,47.052
			c-2.364,0-4.287,1.923-4.287,4.288c0,2.364,1.923,4.287,4.287,4.287c2.195,0,4.011-1.658,4.259-3.787h-1.009
			c-0.241,1.576-1.606,2.787-3.25,2.787c-1.813,0-3.287-1.475-3.287-3.287c0-1.813,1.475-3.288,3.287-3.288h22.273v-1H20.775z"/>
		<path class="st0" d="M7.958,51.985c-2.915,0-5.287-2.372-5.287-5.287s2.372-5.288,5.287-5.288h41.405c0.276,0,0.5,0.224,0.5,0.5v2
			c0,0.276-0.224,0.5-0.5,0.5H7.958c-1.261,0-2.287,1.026-2.287,2.288s1.026,2.287,2.287,2.287c1.262,0,2.288-1.026,2.288-2.287
			c0-0.276,0.224-0.5,0.5-0.5h2c0.276,0,0.5,0.224,0.5,0.5C13.246,49.613,10.874,51.985,7.958,51.985z M7.958,42.41
			c-2.364,0-4.287,1.923-4.287,4.288c0,2.364,1.923,4.287,4.287,4.287c2.195,0,4.011-1.658,4.259-3.787h-1.009
			c-0.241,1.576-1.606,2.787-3.25,2.787c-1.813,0-3.287-1.475-3.287-3.287c0-1.813,1.475-3.288,3.287-3.288h40.905v-1H7.958z"/>
		<path class="st0" d="M38.963,39.804H11.195c-2.915,0-5.287-2.372-5.287-5.288s2.372-5.287,5.287-5.287s5.287,2.372,5.287,5.287
			c0,0.276-0.224,0.5-0.5,0.5h-2c-0.276,0-0.5-0.224-0.5-0.5c0-1.261-1.026-2.287-2.287-2.287s-2.287,1.026-2.287,2.287
			s1.026,2.288,2.287,2.288h27.768c0.276,0,0.5,0.224,0.5,0.5v2C39.463,39.581,39.239,39.804,38.963,39.804z M11.195,30.229
			c-2.364,0-4.287,1.923-4.287,4.287c0,2.364,1.923,4.288,4.287,4.288h27.268v-1H11.195c-1.813,0-3.287-1.475-3.287-3.288
			c0-1.813,1.475-3.287,3.287-3.287c1.643,0,3.008,1.211,3.249,2.787h1.009C15.205,31.887,13.391,30.229,11.195,30.229z"/>
		<rect x="9.813" y="3.219" class="st0" width="1" height="14.229"/>
		<path class="st0" d="M8.607,16.407l-0.75-0.66l2.08-2.364c0.095-0.108,0.231-0.17,0.375-0.17l0,0c0.144,0,0.28,0.062,0.376,0.17
			l2.078,2.364l-0.752,0.66l-1.702-1.937L8.607,16.407z"/>
		<path class="st0" d="M10.313,7.454c-0.144,0-0.28-0.062-0.375-0.17L7.859,4.921l0.75-0.66l1.703,1.936l1.703-1.936l0.75,0.66
			l-2.078,2.363C10.593,7.392,10.456,7.454,10.313,7.454z"/>
		<rect x="3.197" y="9.834" class="st0" width="14.229" height="1"/>
		<path class="st0" d="M4.898,12.788l-0.66-0.751l1.937-1.704L4.238,8.631l0.66-0.751l2.363,2.077
			c0.108,0.095,0.17,0.231,0.17,0.375c0,0.144-0.062,0.28-0.17,0.375L4.898,12.788z"/>
		<path class="st0" d="M15.725,12.788l-2.363-2.078c-0.108-0.095-0.17-0.232-0.17-0.375s0.062-0.281,0.17-0.375l2.363-2.078
			l0.66,0.751l-1.937,1.703l1.937,1.703L15.725,12.788z"/>
		<path class="st8" d="M11.838,10.334c0,0.842-0.684,1.525-1.525,1.525c-0.844,0-1.525-0.684-1.525-1.525
			c0-0.843,0.682-1.526,1.525-1.526C11.154,8.808,11.838,9.491,11.838,10.334z"/>
		<path class="st0" d="M10.313,12.359c-1.117,0-2.025-0.909-2.025-2.025c0-1.117,0.908-2.026,2.025-2.026s2.025,0.909,2.025,2.026
			C12.338,11.451,11.43,12.359,10.313,12.359z M10.313,9.308c-0.565,0-1.025,0.46-1.025,1.026c0,0.565,0.46,1.025,1.025,1.025
			s1.025-0.46,1.025-1.025C11.338,9.768,10.878,9.308,10.313,9.308z"/>
		<rect x="53.216" y="46.552" class="st0" width="1" height="14.229"/>
		<path class="st0" d="M52.012,59.74l-0.75-0.66l2.079-2.364c0.095-0.108,0.231-0.17,0.375-0.17l0,0c0.144,0,0.28,0.062,0.376,0.17
			l2.078,2.364l-0.752,0.66l-1.702-1.937L52.012,59.74z"/>
		<path class="st0" d="M53.717,50.787c-0.144,0-0.28-0.062-0.375-0.17l-2.078-2.363l0.75-0.66l1.703,1.936l1.703-1.936l0.75,0.66
			l-2.078,2.363C53.997,50.725,53.86,50.787,53.717,50.787z"/>
		<rect x="46.602" y="53.167" class="st0" width="14.229" height="1"/>
		<path class="st0" d="M48.303,56.121l-0.66-0.751l1.937-1.704l-1.937-1.702l0.66-0.751l2.363,2.077
			c0.108,0.095,0.17,0.231,0.17,0.375c0,0.144-0.062,0.28-0.17,0.375L48.303,56.121z"/>
		<path class="st0" d="M59.129,56.121l-2.363-2.078c-0.108-0.095-0.17-0.232-0.17-0.375s0.062-0.281,0.17-0.375l2.363-2.078
			l0.66,0.751l-1.937,1.703l1.937,1.703L59.129,56.121z"/>
		<path class="st8" d="M55.241,53.667c0,0.842-0.683,1.525-1.525,1.525c-0.843,0-1.525-0.684-1.525-1.525
			c0-0.843,0.683-1.526,1.525-1.526C54.559,52.141,55.241,52.824,55.241,53.667z"/>
		<path class="st0" d="M53.716,55.692c-1.117,0-2.025-0.909-2.025-2.025c0-1.117,0.908-2.026,2.025-2.026s2.025,0.909,2.025,2.026
			C55.741,54.784,54.833,55.692,53.716,55.692z M53.716,52.641c-0.565,0-1.025,0.46-1.025,1.026c0,0.565,0.46,1.025,1.025,1.025
			s1.025-0.46,1.025-1.025C54.741,53.101,54.281,52.641,53.716,52.641z"/>
	</g>
</g>
</svg>
