<svg xmlns="http://www.w3.org/2000/svg"  viewBox="0 0 100 100" width="100px" height="100px"><path fill="#f8e55b" d="M74.323,48.584c1.348-1.463,4.744-5.182,5.569-7.122c0.504-1.184,1.405-3.479,1.641-4.692c-3.472,2.074-7.779,2.385-11.738,0.701c-6.646-2.826-9.517-9.437-6.637-16.209c0.673-1.582,0.999-3.831,2.125-4.992c-7.091-0.374-14.164,4.66-17.151,11.685c-0.81,1.905-1.345,5.671-1.474,7.621"/><path fill="#565fa0" d="M76.77,48.5c-0.756,0-1.484,0.116-2.18,0.314c-0.456-5.918-5.122-10.573-10.82-10.573c-3.285,0-6.223,1.553-8.215,3.996c-2.432-5.203-7.478-8.79-13.325-8.79c-8.058,0-14.603,6.797-14.856,15.277c-0.598-0.143-1.217-0.225-1.855-0.225c-4.636,0-8.394,3.985-8.394,8.902s3.758,8.902,8.394,8.902c0.539,0,50.713,0,51.253,0c4.636,0,8.394-3.985,8.394-8.902S81.405,48.5,76.77,48.5z"/><path fill="#1f212b" d="M77.406,67.067h-0.408c-0.553,0-1-0.447-1-1s0.447-1,1-1c4.148,0,7.503-3.584,7.503-7.99c0-5.076-4.477-9.115-9.406-7.71c-0.288,0.08-0.6,0.03-0.845-0.142c-0.246-0.171-0.402-0.444-0.426-0.743c-0.422-5.47-4.783-9.755-9.93-9.755c-2.879,0-5.621,1.337-7.521,3.668c-0.218,0.267-0.557,0.403-0.898,0.36c-0.342-0.042-0.638-0.257-0.783-0.568c-2.393-5.12-7.202-8.301-12.551-8.301c-7.611,0-13.762,6.351-14.003,14.458c-0.01,0.302-0.153,0.582-0.393,0.765c-0.238,0.184-0.551,0.249-0.84,0.179c-4.829-1.156-9.118,2.812-9.118,7.789c0,4.406,3.354,7.99,7.477,7.99c0.008,0,0.018,0,0.025,0c0.553,0,1.008,0.447,1.008,1s-0.44,1-0.993,1c-5.266,0-9.517-4.481-9.517-9.99c0-5.837,4.772-10.551,10.421-9.938c0.796-8.641,7.598-15.253,15.933-15.253c5.663,0,10.789,3.088,13.688,8.151c2.197-2.119,5.066-3.311,8.066-3.311c5.82,0,10.802,4.513,11.786,10.466c0.451-0.07,0.9-0.105,1.343-0.105c5.226,0,9.478,4.481,9.478,9.989c0,5.306-3.944,9.659-8.904,9.973C77.535,67.061,77.471,67.067,77.406,67.067z"/><path fill="#1f212b" d="M63.942 65.264h-4.343c-.276 0-.5-.224-.5-.5s.224-.5.5-.5h4.343c.276 0 .5.224.5.5S64.218 65.264 63.942 65.264zM57.445 65.288c-.13 0-.261-.06-.36-.149-.09-.101-.14-.221-.14-.351 0-.14.05-.26.14-.359.05-.04.1-.08.17-.11.18-.07.4-.03.54.11.05.05.08.1.11.159.02.07.04.131.04.2 0 .13-.061.25-.15.351C57.695 65.228 57.575 65.288 57.445 65.288zM56.125 65.264H29.198c-.276 0-.5-.224-.5-.5s.224-.5.5-.5h26.927c.276 0 .5.224.5.5S56.401 65.264 56.125 65.264zM73.062 70.542H32.238c-.553 0-1-.447-1-1s.447-1 1-1h40.824c.553 0 1 .447 1 1S73.615 70.542 73.062 70.542zM61.77 79.227H28.763c-.553 0-1-.447-1-1s.447-1 1-1H61.77c.553 0 1 .447 1 1S62.323 79.227 61.77 79.227zM67.417 74.819h-.869c-.276 0-.5-.224-.5-.5s.224-.5.5-.5h.869c.276 0 .5.224.5.5S67.693 74.819 67.417 74.819zM64.81 74.819H39.621c-.276 0-.5-.224-.5-.5s.224-.5.5-.5H64.81c.276 0 .5.224.5.5S65.087 74.819 64.81 74.819zM77.593 45.764c-.245 0-.489-.089-.683-.269-.403-.377-.425-1.01-.049-1.414 1.281-1.372 2.307-2.953 3.049-4.698.178-.419.339-.85.482-1.29-3.391 1.334-7.132 1.297-10.548-.157-7.104-3.021-10.426-11.258-7.404-18.362.392-.922.881-1.796 1.462-2.611-5.984.425-11.341 4.168-13.726 9.777-.728 1.71-1.153 3.512-1.265 5.354-.033.551-.515.97-1.059.938-.551-.033-.971-.507-.938-1.059.125-2.07.603-4.095 1.421-6.016 2.989-7.032 10.148-11.478 17.773-11.003.392.022.733.272.874.639.142.365.056.78-.219 1.06-1.065 1.085-1.901 2.331-2.485 3.705-2.589 6.089.258 13.149 6.348 15.739 3.518 1.496 7.44 1.239 10.76-.705.338-.196.762-.18 1.081.046.321.227.479.619.406 1.004-.247 1.298-.625 2.551-1.125 3.726-.833 1.96-1.985 3.736-3.426 5.28C78.128 45.657 77.861 45.764 77.593 45.764z"/><path fill="#1f212b" d="M57.588 21.443c-.175 0-.346-.093-.438-.257-.134-.241-.047-.546.194-.681 1.161-.645 2.403-.944 3.666-.893.276.012.49.245.479.521-.013.275-.259.455-.521.479-1.077-.05-2.142.213-3.139.768C57.754 21.423 57.671 21.443 57.588 21.443zM51.64 31.93c-.268 0-.489-.211-.5-.48-.013-.342-.012-.688.002-1.038.144-3.416 1.628-6.542 3.972-8.362.216-.17.531-.132.701.088.17.218.13.532-.088.701-2.114 1.643-3.455 4.489-3.585 7.614-.014.323-.015.644-.002.958.011.276-.205.509-.48.52C51.653 31.93 51.646 31.93 51.64 31.93z"/></svg>