<svg xmlns="http://www.w3.org/2000/svg"  viewBox="0 0 100 100" width="100px" height="100px"><path fill="#c7ede6" d="M88.704,55.881c0.3-0.616,0.566-1.264,0.796-1.943c2.633-7.77-1.349-17.078-9.733-19.325C78.86,23.23,70.86,15.421,61.826,14.088c-10.341-1.525-19.814,5.044-22.966,15.485c-3.799-1.346-7.501-1.182-10.99,0.857c-1.583,0.732-3.031,1.812-4.33,3.233c-1.907,2.086-3.147,4.719-3.652,7.495c-0.748,0.118-1.483,0.236-2.176,0.484c-4.04,1.449-6.589,4.431-7.288,8.923c-0.435,2.797,0.443,5.587,0.933,6.714c1.935,4.455,6.422,6.98,10.981,6.312c0.227-0.033,0.557,0.069,0.752,0.233c0.241,7.12,3.698,13.417,8.884,17.014c8.321,5.772,19.027,3.994,25.781-3.921c2.894,2.96,6.338,4.398,10.384,3.876c4.023-0.519,7.147-2.739,9.426-6.349c1.053,0.283,2.051,0.691,3.083,0.804c4.042,0.442,7.324-1.165,9.732-4.8c0.922-1.391,1.793-3.194,1.793-6.354C92.174,60.838,90.88,57.871,88.704,55.881z"/><path fill="#fff" d="M18.369 47.917H8.338c-.276 0-.5-.224-.5-.5s.224-.5.5-.5h10.03c.276 0 .5.224.5.5S18.645 47.917 18.369 47.917zM21.249 47.917h-1.445c-.276 0-.5-.224-.5-.5s.224-.5.5-.5h1.445c.276 0 .5.224.5.5S21.526 47.917 21.249 47.917zM25.304 47.917h-2.546c-.276 0-.5-.224-.5-.5s.224-.5.5-.5h2.546c.276 0 .5.224.5.5S25.581 47.917 25.304 47.917zM25.304 49.782h-9.616c-.276 0-.5-.224-.5-.5s.224-.5.5-.5h9.616c.276 0 .5.224.5.5S25.581 49.782 25.304 49.782zM13.956 49.782h-.58c-.276 0-.5-.224-.5-.5s.224-.5.5-.5h.58c.276 0 .5.224.5.5S14.233 49.782 13.956 49.782zM11.58 49.782h-1.456c-.276 0-.5-.224-.5-.5s.224-.5.5-.5h1.456c.276 0 .5.224.5.5S11.856 49.782 11.58 49.782zM20.715 46.053h-5.027c-.276 0-.5-.224-.5-.5s.224-.5.5-.5h5.027c.276 0 .5.224.5.5S20.992 46.053 20.715 46.053zM20.715 44.187h-1.257c-.276 0-.5-.224-.5-.5s.224-.5.5-.5h1.257c.276 0 .5.224.5.5S20.992 44.187 20.715 44.187zM17.447 51.647h-1.759c-.276 0-.5-.224-.5-.5s.224-.5.5-.5h1.759c.276 0 .5.224.5.5S17.723 51.647 17.447 51.647z"/><path fill="#fdfcef" d="M44.779,69.954c1.883,0,3.517,0,3.54,0c2.11,0,3.821-1.674,3.821-3.739c0-1.802-1.302-3.305-3.035-3.66c0.02-0.158,0.034-0.317,0.034-0.48c0-2.139-1.772-3.873-3.957-3.873c-1.29,0-2.433,0.607-3.155,1.543c-0.185-2.381-2.358-4.218-4.9-3.913c-1.859,0.223-3.397,1.629-3.739,3.431c-0.11,0.578-0.098,1.139,0.011,1.665c-0.498-0.525-1.208-0.856-1.998-0.856c-1.446,0-2.627,1.102-2.72,2.494c-0.657-0.142-1.371-0.133-2.123,0.143c-1.438,0.528-2.462,1.853-2.522,3.356c-0.085,2.133,1.657,3.889,3.818,3.889c0.164,0,0.741,0,0.874,0h7.934 M38.301,69.954h0.36"/><path fill="#472b29" d="M48.319,70.454h-3.54c-0.276,0-0.5-0.224-0.5-0.5s0.224-0.5,0.5-0.5h3.54c1.831,0,3.32-1.453,3.32-3.239c0-1.524-1.108-2.857-2.636-3.17c-0.257-0.052-0.429-0.294-0.396-0.554c0.018-0.137,0.03-0.275,0.03-0.416c0-1.86-1.551-3.373-3.457-3.373c-1.093,0-2.099,0.491-2.76,1.348c-0.125,0.164-0.342,0.232-0.538,0.173c-0.198-0.059-0.34-0.234-0.355-0.44c-0.079-1.019-0.565-1.943-1.37-2.603c-0.828-0.68-1.876-0.981-2.973-0.852c-1.646,0.196-3.006,1.442-3.308,3.028c-0.094,0.494-0.09,0.988,0.01,1.47c0.046,0.219-0.06,0.441-0.257,0.544c-0.2,0.104-0.441,0.063-0.595-0.098c-0.43-0.452-1.011-0.701-1.636-0.701c-1.169,0-2.146,0.891-2.222,2.028c-0.01,0.145-0.082,0.278-0.198,0.366s-0.264,0.119-0.406,0.089c-0.64-0.139-1.243-0.098-1.845,0.124c-1.263,0.463-2.145,1.631-2.194,2.906c-0.035,0.875,0.282,1.708,0.894,2.344c0.635,0.661,1.496,1.025,2.424,1.025h8.808c0.276,0,0.5,0.224,0.5,0.5s-0.224,0.5-0.5,0.5h-8.808c-1.186,0-2.332-0.486-3.146-1.332c-0.802-0.835-1.218-1.928-1.172-3.077c0.066-1.674,1.212-3.204,2.85-3.805c0.608-0.224,1.237-0.306,1.88-0.245c0.345-1.396,1.63-2.424,3.136-2.424c0.492,0,0.976,0.113,1.413,0.323c0.009-0.242,0.036-0.484,0.082-0.726c0.382-2.01,2.098-3.586,4.171-3.834c1.363-0.159,2.686,0.218,3.727,1.072c0.747,0.613,1.278,1.409,1.546,2.301c0.791-0.648,1.785-1.006,2.843-1.006c2.458,0,4.457,1.962,4.457,4.373c0,0.034-0.001,0.068-0.002,0.103c1.765,0.555,3.003,2.188,3.003,4.038C52.639,68.553,50.701,70.454,48.319,70.454z M38.661,70.454h-0.359c-0.276,0-0.5-0.224-0.5-0.5s0.224-0.5,0.5-0.5h0.359c0.276,0,0.5,0.224,0.5,0.5S38.937,70.454,38.661,70.454z"/><path fill="#472b29" d="M46.612 64.651c-.018 0-.036-.002-.055-.006-.135-.03-.22-.164-.189-.299.038-.168.095-.33.17-.48.604-1.223 2.272-1.673 3.721-1.006.126.058.181.207.122.332-.058.125-.208.179-.331.122-1.207-.558-2.579-.209-3.063.774-.058.115-.102.238-.13.367C46.83 64.572 46.726 64.651 46.612 64.651zM41.453 70.454h-1.107c-.276 0-.5-.224-.5-.5s.224-.5.5-.5h1.107c.276 0 .5.224.5.5S41.729 70.454 41.453 70.454z"/><path fill="#fff" d="M74.394 25.596h-10.03c-.276 0-.5-.224-.5-.5s.224-.5.5-.5h10.03c.276 0 .5.224.5.5S74.67 25.596 74.394 25.596zM77.276 25.596H75.83c-.276 0-.5-.224-.5-.5s.224-.5.5-.5h1.446c.276 0 .5.224.5.5S77.552 25.596 77.276 25.596zM81.331 25.596h-2.546c-.276 0-.5-.224-.5-.5s.224-.5.5-.5h2.546c.276 0 .5.224.5.5S81.607 25.596 81.331 25.596zM81.331 27.461h-9.616c-.276 0-.5-.224-.5-.5s.224-.5.5-.5h9.616c.276 0 .5.224.5.5S81.607 27.461 81.331 27.461zM69.982 27.461h-.58c-.276 0-.5-.224-.5-.5s.224-.5.5-.5h.58c.276 0 .5.224.5.5S70.258 27.461 69.982 27.461zM67.606 27.461h-1.457c-.276 0-.5-.224-.5-.5s.224-.5.5-.5h1.457c.276 0 .5.224.5.5S67.882 27.461 67.606 27.461zM76.742 23.732h-5.027c-.276 0-.5-.224-.5-.5s.224-.5.5-.5h5.027c.276 0 .5.224.5.5S77.018 23.732 76.742 23.732zM76.742 21.867h-1.258c-.276 0-.5-.224-.5-.5s.224-.5.5-.5h1.258c.276 0 .5.224.5.5S77.018 21.867 76.742 21.867zM73.472 29.326h-1.758c-.276 0-.5-.224-.5-.5s.224-.5.5-.5h1.758c.276 0 .5.224.5.5S73.748 29.326 73.472 29.326z"/><path fill="#fbcd59" d="M67.056,45.21c0-4.492-1.855-8.546-4.835-11.454c-0.29-0.291-0.599-0.567-0.918-0.834c-0.031-0.026-0.06-0.055-0.091-0.08c-0.319-0.264-0.656-0.511-1.003-0.75c-0.095-0.066-0.185-0.137-0.281-0.201c-0.145-0.095-0.298-0.181-0.447-0.272c-2.452-1.526-5.337-2.597-8.438-2.597c-0.082,0-0.43,0.018-0.39,0.019c-8.662,0.209-15.624,7.369-15.624,16.082c0,9.398,16.173,27.784,16.173,27.784S67.056,54.656,67.056,45.21z"/><path fill="#472b29" d="M51.202,73.331c-0.122,0-0.238-0.052-0.319-0.144c-0.664-0.756-16.278-18.615-16.278-28.065c0-8.888,7.194-16.292,16.037-16.507c0.126-0.019,0.267-0.019,0.401-0.019c2.91,0,5.825,0.895,8.663,2.661l0.13,0.078c0.11,0.065,0.22,0.13,0.326,0.2c0.067,0.045,0.132,0.092,0.196,0.139l0.098,0.071c0.352,0.242,0.698,0.497,1.027,0.769c0.001,0,0.094,0.082,0.095,0.083c0.328,0.275,0.646,0.559,0.945,0.859c3.196,3.121,4.958,7.296,4.958,11.755c0,9.496-15.307,27.225-15.958,27.975C51.442,73.277,51.326,73.331,51.202,73.331L51.202,73.331z M50.711,29.461c-0.016,0.002-0.032,0.003-0.049,0.004c-8.386,0.203-15.209,7.226-15.209,15.657c0,8.406,13.478,24.485,15.746,27.132c2.235-2.643,15.432-18.6,15.432-27.044c0-4.228-1.672-8.188-4.706-11.15c-0.286-0.286-0.586-0.553-0.895-0.813l0.182-0.406l-0.271,0.328c-0.31-0.256-0.637-0.496-0.974-0.727l-0.274-0.197c-0.094-0.062-0.192-0.12-0.292-0.179l-0.141-0.084c-2.706-1.684-5.47-2.536-8.219-2.536C50.985,29.446,50.784,29.456,50.711,29.461z"/><path fill="#f1bc19" d="M51.043 33.132A11.802 11.802 0 1 0 51.043 56.736A11.802 11.802 0 1 0 51.043 33.132Z"/><path fill="#472b29" d="M51.042,57.111c-6.715,0-12.178-5.463-12.178-12.177c0-6.715,5.463-12.178,12.178-12.178S63.22,38.219,63.22,44.934C63.22,51.648,57.757,57.111,51.042,57.111z M51.042,33.506c-6.302,0-11.428,5.126-11.428,11.428c0,6.301,5.126,11.427,11.428,11.427S62.47,51.235,62.47,44.934C62.47,38.633,57.344,33.506,51.042,33.506z"/><path fill="#fdfcee" d="M51.043 35.647999999999996A9.286 9.286 0 1 0 51.043 54.22A9.286 9.286 0 1 0 51.043 35.647999999999996Z"/><path fill="#472b29" d="M51.042,54.47c-5.258,0-9.536-4.278-9.536-9.536s4.278-9.536,9.536-9.536s9.536,4.278,9.536,9.536S56.3,54.47,51.042,54.47z M51.042,35.898c-4.982,0-9.036,4.054-9.036,9.036s4.054,9.036,9.036,9.036s9.036-4.054,9.036-9.036S56.025,35.898,51.042,35.898z"/><path fill="#fdfcef" d="M70.262,68.833c0,0,11.233,0,11.301,0c2.594,0,4.697-2.103,4.697-4.697c0-2.263-1.601-4.152-3.732-4.597c0.025-0.198,0.041-0.399,0.041-0.603c0-2.687-2.178-4.865-4.865-4.865c-1.586,0-2.991,0.763-3.879,1.938c-0.227-2.991-2.898-5.298-6.024-4.916c-2.285,0.28-4.176,2.046-4.596,4.31c-0.135,0.726-0.121,1.431,0.014,2.092c-0.613-0.66-1.485-1.075-2.456-1.075c-1.778,0-3.229,1.384-3.344,3.133c-0.807-0.179-1.685-0.167-2.61,0.18c-1.768,0.664-3.027,2.328-3.1,4.215c-0.105,2.68,2.037,4.885,4.693,4.885c0.202,0,0.911,0,1.074,0h9.753"/><path fill="#472b29" d="M81.563,69.333H70.262c-0.276,0-0.5-0.224-0.5-0.5s0.224-0.5,0.5-0.5h11.301c2.314,0,4.197-1.883,4.197-4.197c0-1.977-1.402-3.704-3.335-4.107c-0.254-0.053-0.426-0.292-0.394-0.55c0.021-0.178,0.038-0.358,0.038-0.542c0-2.407-1.958-4.365-4.365-4.365c-1.375,0-2.644,0.634-3.48,1.74c-0.125,0.166-0.343,0.236-0.539,0.178c-0.2-0.059-0.342-0.234-0.358-0.442c-0.1-1.318-0.744-2.556-1.77-3.396c-1.036-0.849-2.347-1.225-3.694-1.062c-2.072,0.254-3.785,1.86-4.166,3.905c-0.118,0.64-0.114,1.279,0.013,1.901c0.045,0.219-0.062,0.442-0.262,0.544c-0.197,0.103-0.442,0.061-0.595-0.105c-0.548-0.59-1.29-0.916-2.09-0.916c-1.498,0-2.747,1.171-2.845,2.666c-0.01,0.146-0.082,0.279-0.199,0.367c-0.116,0.087-0.268,0.119-0.407,0.088c-0.806-0.178-1.566-0.126-2.327,0.16c-1.597,0.599-2.713,2.113-2.776,3.766c-0.045,1.155,0.369,2.248,1.168,3.079c0.799,0.83,1.873,1.288,3.025,1.288h10.827c0.276,0,0.5,0.224,0.5,0.5s-0.224,0.5-0.5,0.5H56.402c-1.427,0-2.757-0.566-3.746-1.595c-0.988-1.028-1.503-2.381-1.447-3.811c0.08-2.05,1.456-3.924,3.425-4.664c0.767-0.287,1.56-0.384,2.362-0.29c0.37-1.751,1.931-3.055,3.768-3.055c0.649,0,1.285,0.167,1.848,0.476c0.002-0.36,0.036-0.722,0.104-1.084c0.459-2.47,2.526-4.409,5.027-4.715c1.62-0.201,3.2,0.256,4.449,1.28c0.959,0.787,1.643,1.862,1.956,3.047c0.974-0.87,2.225-1.354,3.558-1.354c2.958,0,5.365,2.407,5.365,5.365c0,0.075-0.002,0.15-0.006,0.225c2.166,0.653,3.696,2.679,3.696,4.976C86.76,67.001,84.429,69.333,81.563,69.333z"/><path fill="#472b29" d="M57.235 65.126c-.006 0-.011 0-.017 0-.138-.009-.242-.128-.232-.266.102-1.53 1.524-2.689 3.188-2.578.127.009.256.025.385.05.269-.929 1.202-1.578 2.28-1.505.398.026.782.153 1.108.362.001-.013.002-.026.003-.039.116-1.729 1.73-3.043 3.605-2.913.138.009.242.128.232.266-.008.137-.104.253-.266.233-1.565-.104-2.976.992-3.074 2.447-.012.177-.004.354.022.527.017.109-.04.217-.141.264-.102.047-.22.023-.294-.061-.303-.343-.752-.557-1.23-.588-.887-.063-1.696.53-1.808 1.341-.011.071-.051.135-.11.174-.059.04-.132.052-.203.033-.182-.049-.364-.081-.544-.092-1.386-.093-2.572.857-2.657 2.112C57.475 65.025 57.366 65.126 57.235 65.126zM79.055 62.107c-.018 0-.036-.002-.055-.006-.135-.03-.22-.164-.189-.299.046-.205.117-.409.211-.604.754-1.564 2.794-2.163 4.549-1.335.125.059.179.208.12.333-.06.126-.211.177-.333.12-1.509-.71-3.249-.217-3.885 1.1-.078.161-.137.329-.174.497C79.273 62.028 79.169 62.107 79.055 62.107z"/><path fill="#77cbd2" d="M56.392,43.308c-0.157,0-0.309,0.024-0.454,0.065c-0.095-1.228-1.067-2.193-2.255-2.193c-0.685,0-1.297,0.322-1.712,0.829c-0.507-1.08-1.558-1.824-2.777-1.824c-1.679,0-3.043,1.41-3.096,3.17c-0.125-0.03-0.254-0.047-0.387-0.047c-0.966,0-1.749,0.827-1.749,1.847c0,1.02,0.783,1.847,1.749,1.847c0.112,0,10.568,0,10.681,0c0.966,0,1.749-0.827,1.749-1.847C58.141,44.135,57.358,43.308,56.392,43.308z"/><path fill="#f1bc19" d="M51.874,48.614c-0.033-0.008-0.069-0.005-0.103-0.002c-0.421,0.037-0.841,0.075-1.262,0.113c-0.03,0.003-0.059,0.005-0.089,0.008l-0.01-0.021c0.024-0.024,0.048-0.048,0.071-0.073c0.408-0.439,1.166-1.296,1.453-1.638h-1.586c-0.007,0.007-0.013,0.014-0.02,0.022c-0.132,0.183-1.915,2.551-1.915,2.551c-0.024,0.032-0.043,0.094-0.028,0.124c0.015,0.032,0.074,0.058,0.114,0.059c0.168,0.004,0.733-0.003,0.864-0.003c-0.032,0.044-0.05,0.07-0.069,0.095c-0.486,0.631-1.51,2.05-1.488,2.075c0.022,0.025,3.956-3.013,3.956-3.013s0.107-0.08,0.156-0.125C51.987,48.724,51.965,48.637,51.874,48.614z"/><path fill="#472b29" d="M47.756,52.084c-0.038,0-0.057-0.021-0.079-0.048c-0.077-0.091-0.144-0.169,1.343-2.108c-0.201,0.001-0.428,0.002-0.526,0c-0.093-0.002-0.214-0.056-0.262-0.154c-0.053-0.109-0.002-0.24,0.045-0.302c0.018-0.023,1.783-2.369,1.913-2.548c0.032-0.04,0.105-0.093,0.157-0.093h1.586c0.066,0,0.126,0.038,0.154,0.098c0.027,0.06,0.019,0.13-0.024,0.181c-0.243,0.29-0.825,0.951-1.248,1.416l0.94-0.084c0.049-0.003,0.103-0.008,0.16,0.007h0.001c0.104,0.027,0.181,0.101,0.204,0.196c0.024,0.095-0.009,0.195-0.088,0.268c-0.053,0.048-0.168,0.136-0.168,0.136C48.527,51.625,47.933,52.084,47.756,52.084z M49.363,49.585c0.064,0,0.123,0.036,0.151,0.093c0.029,0.057,0.023,0.125-0.015,0.177l-0.068,0.096c-0.257,0.333-0.616,0.821-0.915,1.238c0.828-0.629,2.139-1.637,3.121-2.395l-1.204,0.108c-0.071,0.003-0.137-0.032-0.167-0.096s-0.028-0.161,0.021-0.211l0.069-0.072c0.321-0.345,0.855-0.945,1.208-1.352h-1.132c-0.281,0.376-1.512,2.012-1.817,2.418c0.141,0.001,0.363-0.001,0.53-0.002L49.363,49.585z"/><path fill="#472b29" d="M48.77,47.141h-3.06c-1.103,0-1.999-0.944-1.999-2.105c0-1.215,1.01-2.19,2.154-2.098c0.186-1.784,1.6-3.144,3.328-3.144c1.166,0,2.224,0.626,2.834,1.656c0.455-0.421,1.042-0.657,1.654-0.657c1.209,0,2.245,0.926,2.468,2.154c1.19-0.165,2.241,0.843,2.241,2.089c0,0.499-0.169,0.982-0.476,1.362c-0.085,0.108-0.243,0.124-0.352,0.037c-0.107-0.086-0.124-0.244-0.037-0.352c0.234-0.291,0.364-0.663,0.364-1.048c0-1.02-0.9-1.828-1.886-1.549c-0.071,0.021-0.149,0.008-0.211-0.035c-0.062-0.043-0.101-0.111-0.106-0.186c-0.085-1.106-0.966-1.972-2.006-1.972c-0.581,0-1.135,0.27-1.519,0.74c-0.053,0.067-0.138,0.103-0.224,0.09c-0.086-0.011-0.16-0.064-0.196-0.142c-0.486-1.041-1.464-1.688-2.55-1.688c-1.547,0-2.798,1.292-2.847,2.941c-0.002,0.075-0.038,0.146-0.099,0.191c-0.06,0.045-0.136,0.062-0.21,0.044c-0.959-0.227-1.827,0.565-1.827,1.565c0,0.885,0.673,1.605,1.499,1.605h3.06c0.138,0,0.25,0.112,0.25,0.25S48.908,47.141,48.77,47.141z"/><path fill="#f1bc19" d="M56.274,46.847c-0.033-0.008-0.069-0.005-0.103-0.002c-0.421,0.037-0.841,0.075-1.262,0.113c-0.03,0.003-0.059,0.005-0.089,0.008l-0.01-0.021c0.024-0.024,0.048-0.048,0.071-0.073c0.408-0.439,1.166-1.296,1.453-1.638h-1.586c-0.007,0.007-0.013,0.014-0.02,0.022c-0.132,0.183-1.915,2.551-1.915,2.551c-0.024,0.032-0.043,0.094-0.028,0.124c0.015,0.032,0.074,0.058,0.114,0.059c0.168,0.004,0.733-0.003,0.864-0.003c-0.032,0.044-0.05,0.07-0.069,0.095c-0.486,0.631-1.51,2.05-1.488,2.075c0.022,0.025,3.956-3.013,3.956-3.013s0.107-0.08,0.156-0.125C56.386,46.957,56.365,46.871,56.274,46.847z"/><path fill="#472b29" d="M52.158,50.318c-0.037,0-0.056-0.021-0.078-0.045c-0.08-0.095-0.145-0.174,1.34-2.111c-0.201,0.001-0.428,0.002-0.525,0c-0.096-0.002-0.218-0.057-0.264-0.158c-0.051-0.105-0.001-0.236,0.046-0.298c0.018-0.023,1.783-2.369,1.913-2.548c0.005-0.006,0.024-0.029,0.03-0.035c0.032-0.033,0.082-0.058,0.128-0.058h1.586c0.066,0,0.126,0.038,0.154,0.098c0.027,0.06,0.019,0.131-0.024,0.181c-0.248,0.295-0.83,0.955-1.249,1.416l0.941-0.084c0.044-0.003,0.101-0.008,0.159,0.006c0.001,0,0.002,0,0.002,0c0.104,0.027,0.181,0.101,0.204,0.196s-0.01,0.195-0.089,0.268c-0.053,0.048-0.168,0.136-0.168,0.136C52.919,49.865,52.332,50.318,52.158,50.318z M53.764,47.819c0.063,0,0.122,0.036,0.15,0.093c0.029,0.057,0.023,0.125-0.015,0.177l-0.069,0.096c-0.257,0.333-0.616,0.822-0.916,1.238c0.828-0.628,2.14-1.637,3.122-2.396l-1.2,0.107c-0.055,0.011-0.135-0.028-0.167-0.09c-0.034-0.065-0.033-0.165,0.017-0.217l0.068-0.07c0.318-0.341,0.854-0.944,1.209-1.353h-1.132c-0.263,0.353-1.51,2.009-1.817,2.418c0.137,0,0.33,0,0.491-0.002L53.764,47.819z"/></svg>