<?xml version="1.0" encoding="utf-8"?>
<!-- Generator: Adobe Illustrator 22.0.1, SVG Export Plug-In . SVG Version: 6.00 Build 0)  -->
<svg version="1.1" xmlns="http://www.w3.org/2000/svg" xmlns:xlink="http://www.w3.org/1999/xlink" x="0px" y="0px"
	 viewBox="0 0 64 64" style="enable-background:new 0 0 64 64;" xml:space="preserve">
<style type="text/css">
	.st0{fill:#63312D;}
	.st1{fill:#EFC36A;}
	.st2{fill:#DB785A;}
	.st3{fill:#F9A287;}
	.st4{fill:#FFC8BB;}
	.st5{fill:#F9DD9D;}
	.st6{fill:#FFEECF;}
	.st7{fill:#52B8D9;}
	.st8{fill:#84DBFF;}
	.st9{fill:#CAF4FF;}
	.st10{fill:#D1D1D1;}
	.st11{fill:#F8F3F3;}
	.st12{fill:#FFFFFF;}
	.st13{fill:#82D9FF;}
</style>
<g id="Layer_1">
</g>
<g id="Layer_2">
	<g>
		<path class="st12" d="M60.825,56.681l-2.363,1.471c-0.467,0.291-1.23,0.291-1.697,0l-1.514-0.942c-0.467-0.291-1.23-0.291-1.697,0
			l-1.509,0.942c-0.467,0.291-1.23,0.291-1.697,0l-1.508-0.942c-0.467-0.291-1.231-0.291-1.697,0l-1.508,0.942
			c-0.467,0.291-1.23,0.291-1.697,0l-1.505-0.941c-0.466-0.292-1.23-0.292-1.697,0l-1.508,0.942c-0.467,0.291-1.23,0.291-1.697,0
			l-1.508-0.942c-0.467-0.291-1.23-0.291-1.697,0l-1.507,0.941c-0.466,0.292-1.23,0.292-1.696,0l-1.506-0.941
			c-0.466-0.292-1.23-0.292-1.696,0l-1.507,0.941c-0.466,0.292-1.23,0.292-1.696,0l-1.505-0.941c-0.466-0.292-1.23-0.292-1.696,0
			l-1.506,0.941c-0.466,0.292-1.229,0.292-1.696,0l-1.503-0.94c-0.467-0.292-1.23-0.292-1.696,0l-1.506,0.941
			c-0.466,0.292-1.229,0.291-1.696,0l-1.503-0.94c-0.467-0.292-1.229-0.292-1.696,0l-1.501,0.94c-0.466,0.292-1.23,0.292-1.696,0
			l-2.352-1.47v-2.99l2.352,1.47c0.466,0.292,1.229,0.292,1.696,0l1.501-0.939c0.466-0.292,1.229-0.292,1.696,0l1.503,0.939
			c0.466,0.292,1.229,0.292,1.696,0l1.506-0.94c0.466-0.292,1.229-0.292,1.696,0l1.503,0.939c0.467,0.292,1.23,0.292,1.696,0
			l1.506-0.94c0.466-0.292,1.23-0.292,1.696,0l1.505,0.94c0.466,0.292,1.23,0.292,1.696,0l1.507-0.94
			c0.466-0.292,1.23-0.292,1.696,0l1.506,0.94c0.466,0.292,1.23,0.292,1.696,0l1.507-0.94c0.466-0.292,1.23-0.292,1.697,0
			l1.508,0.941c0.467,0.291,1.23,0.291,1.697,0l1.508-0.941c0.467-0.291,1.23-0.291,1.697,0l1.505,0.94
			c0.466,0.292,1.23,0.292,1.697,0l1.508-0.941c0.467-0.291,1.23-0.291,1.697,0l1.508,0.941c0.467,0.291,1.23,0.291,1.697,0
			l1.509-0.941c0.467-0.291,1.23-0.292,1.697,0l1.514,0.942c0.467,0.291,1.23,0.291,1.697,0l2.363-1.471V56.681z"/>
		<path class="st0" d="M57.613,58.869c-0.4,0-0.801-0.098-1.113-0.292l-1.513-0.942c-0.306-0.19-0.863-0.19-1.168,0l-1.509,0.941
			c-0.624,0.389-1.603,0.389-2.227,0l-1.508-0.941c-0.306-0.19-0.862-0.191-1.168,0l-1.508,0.941
			c-0.624,0.389-1.603,0.389-2.227-0.001l-1.505-0.94c-0.305-0.19-0.861-0.19-1.167,0l-1.508,0.941
			c-0.624,0.389-1.603,0.388-2.227,0l-1.508-0.941c-0.306-0.19-0.862-0.19-1.167,0l-1.508,0.941c-0.624,0.39-1.601,0.39-2.226,0
			l-1.505-0.94c-0.306-0.191-0.862-0.191-1.167,0l-1.508,0.941c-0.624,0.39-1.601,0.39-2.226,0l-1.505-0.94
			c-0.305-0.19-0.861-0.19-1.166,0l-1.507,0.941c-0.623,0.39-1.601,0.39-2.226-0.001l-1.503-0.939c-0.306-0.19-0.861-0.191-1.166,0
			l-1.507,0.941c-0.623,0.39-1.601,0.39-2.226-0.001l-1.503-0.939c-0.305-0.191-0.861-0.191-1.166,0l-1.501,0.939
			c-0.625,0.391-1.603,0.39-2.226,0l-2.352-1.47c-0.146-0.091-0.235-0.251-0.235-0.424v-2.99c0-0.182,0.099-0.349,0.258-0.438
			c0.158-0.088,0.352-0.083,0.507,0.014l2.352,1.47c0.305,0.19,0.861,0.19,1.166,0l1.501-0.939c0.624-0.391,1.602-0.39,2.226,0
			l1.503,0.94c0.305,0.19,0.86,0.19,1.166,0l1.507-0.941c0.623-0.39,1.601-0.39,2.226,0.001l1.503,0.939
			c0.306,0.19,0.861,0.191,1.166,0l1.507-0.941c0.624-0.39,1.602-0.39,2.226,0l1.505,0.94c0.305,0.19,0.861,0.19,1.166,0
			l1.508-0.941c0.624-0.39,1.601-0.39,2.226,0l1.505,0.94c0.306,0.191,0.862,0.191,1.167,0l1.508-0.941
			c0.624-0.39,1.601-0.39,2.226,0l1.508,0.941c0.305,0.19,0.862,0.19,1.168,0l1.508-0.941c0.624-0.389,1.603-0.39,2.227,0.001
			l1.505,0.94c0.305,0.19,0.861,0.19,1.167,0l1.508-0.941c0.624-0.389,1.603-0.389,2.227,0l1.508,0.941
			c0.305,0.19,0.862,0.19,1.168,0l1.509-0.941c0.625-0.39,1.603-0.389,2.227,0l1.513,0.942c0.307,0.19,0.863,0.19,1.168,0
			l2.363-1.471c0.155-0.096,0.348-0.1,0.507-0.013c0.159,0.088,0.257,0.255,0.257,0.437v2.99c0,0.173-0.089,0.333-0.236,0.424
			l-2.363,1.471C58.414,58.771,58.014,58.869,57.613,58.869z M54.403,56.494c0.4,0,0.8,0.097,1.112,0.292l1.513,0.942
			c0.307,0.19,0.863,0.19,1.168,0l2.127-1.325v-1.812l-1.599,0.995c-0.624,0.39-1.601,0.389-2.226,0l-1.513-0.942
			c-0.306-0.19-0.863-0.19-1.168,0l-1.509,0.941c-0.624,0.389-1.603,0.389-2.227,0l-1.508-0.941c-0.306-0.19-0.862-0.191-1.168,0
			l-1.508,0.941c-0.624,0.389-1.603,0.39-2.227-0.001l-1.505-0.94c-0.305-0.19-0.861-0.19-1.167,0l-1.508,0.941
			c-0.624,0.389-1.603,0.389-2.227,0l-1.508-0.941c-0.306-0.19-0.862-0.19-1.167,0l-1.508,0.941c-0.624,0.39-1.601,0.39-2.226,0
			l-1.505-0.94c-0.306-0.191-0.862-0.191-1.167,0l-1.508,0.941c-0.624,0.39-1.601,0.39-2.226,0l-1.505-0.94
			c-0.305-0.19-0.861-0.19-1.166,0l-1.507,0.941c-0.623,0.39-1.601,0.39-2.226-0.001l-1.503-0.939c-0.306-0.19-0.861-0.191-1.166,0
			l-1.507,0.941c-0.623,0.39-1.601,0.39-2.226-0.001l-1.503-0.939c-0.305-0.191-0.861-0.191-1.166,0l-1.501,0.939
			c-0.625,0.391-1.603,0.391-2.226,0l-1.586-0.991v1.811l2.117,1.323c0.305,0.19,0.861,0.19,1.166,0l1.501-0.939
			c0.624-0.391,1.602-0.39,2.226,0l1.503,0.94c0.305,0.19,0.86,0.191,1.166,0l1.507-0.941c0.623-0.39,1.601-0.39,2.226,0.001
			l1.503,0.939c0.306,0.19,0.861,0.191,1.166,0l1.507-0.941c0.624-0.39,1.602-0.39,2.226,0l1.505,0.94
			c0.305,0.19,0.861,0.19,1.166,0l1.508-0.941c0.624-0.39,1.601-0.39,2.226,0l1.505,0.94c0.306,0.191,0.862,0.191,1.167,0
			l1.508-0.941c0.624-0.39,1.601-0.39,2.226,0l1.508,0.941c0.305,0.19,0.862,0.19,1.168,0l1.508-0.941
			c0.624-0.389,1.603-0.39,2.227,0.001l1.505,0.94c0.305,0.19,0.861,0.19,1.167,0l1.508-0.941c0.624-0.389,1.603-0.389,2.227,0
			l1.508,0.941c0.305,0.19,0.862,0.19,1.168,0l1.509-0.941C53.602,56.591,54.002,56.494,54.403,56.494z"/>
		<path class="st12" d="M60.825,47.069l-2.363,1.471c-0.467,0.291-1.23,0.291-1.697,0l-1.514-0.942c-0.467-0.291-1.23-0.291-1.697,0
			l-1.509,0.942c-0.467,0.291-1.23,0.291-1.697,0l-1.508-0.942c-0.467-0.291-1.231-0.291-1.697,0l-1.508,0.942
			c-0.467,0.291-1.23,0.291-1.697,0l-1.505-0.941c-0.466-0.292-1.23-0.292-1.697,0l-1.508,0.942c-0.467,0.291-1.23,0.291-1.697,0
			l-1.508-0.942c-0.467-0.291-1.23-0.291-1.697,0l-1.507,0.941c-0.466,0.292-1.23,0.292-1.696,0l-1.506-0.941
			c-0.466-0.292-1.23-0.292-1.696,0l-1.507,0.941c-0.466,0.292-1.23,0.292-1.696,0l-1.505-0.941c-0.466-0.292-1.23-0.292-1.696,0
			l-1.506,0.941c-0.466,0.292-1.229,0.292-1.696,0l-1.503-0.94c-0.467-0.292-1.23-0.292-1.696,0l-1.506,0.941
			c-0.466,0.292-1.229,0.291-1.696,0l-1.503-0.94c-0.467-0.292-1.229-0.292-1.696,0l-1.501,0.94c-0.466,0.292-1.23,0.292-1.696,0
			l-2.352-1.47v-2.99l2.352,1.47c0.466,0.292,1.229,0.292,1.696,0l1.501-0.939c0.466-0.291,1.229-0.291,1.696,0l1.503,0.939
			c0.466,0.292,1.229,0.292,1.696,0l1.506-0.94c0.466-0.292,1.229-0.292,1.696,0l1.503,0.939c0.467,0.292,1.23,0.292,1.696,0
			l1.506-0.94c0.466-0.292,1.23-0.292,1.696,0l1.505,0.94c0.466,0.292,1.23,0.292,1.696,0l1.507-0.94
			c0.466-0.292,1.23-0.292,1.696,0l1.506,0.94c0.466,0.292,1.23,0.292,1.696,0l1.507-0.94c0.466-0.292,1.23-0.292,1.697,0
			l1.508,0.941c0.467,0.291,1.23,0.291,1.697,0l1.508-0.941c0.467-0.291,1.23-0.291,1.697,0l1.505,0.94
			c0.466,0.292,1.23,0.292,1.697,0l1.508-0.941c0.467-0.291,1.23-0.291,1.697,0l1.508,0.941c0.467,0.291,1.23,0.291,1.697,0
			l1.509-0.941c0.467-0.291,1.23-0.292,1.697,0l1.514,0.942c0.467,0.291,1.23,0.291,1.697,0l2.363-1.471V47.069z"/>
		<path class="st0" d="M57.613,49.256c-0.4,0-0.801-0.098-1.113-0.292l-1.513-0.942c-0.306-0.19-0.863-0.19-1.168,0l-1.509,0.941
			c-0.624,0.389-1.603,0.389-2.227,0l-1.508-0.941c-0.306-0.19-0.862-0.19-1.168,0l-1.508,0.941
			c-0.624,0.389-1.603,0.389-2.227-0.001l-1.505-0.94c-0.305-0.19-0.861-0.19-1.167,0l-1.508,0.941
			c-0.624,0.389-1.603,0.388-2.227,0l-1.508-0.941c-0.306-0.19-0.862-0.19-1.167,0l-1.508,0.941c-0.624,0.39-1.601,0.39-2.226,0
			l-1.505-0.94c-0.306-0.191-0.862-0.191-1.167,0l-1.508,0.941c-0.624,0.39-1.601,0.39-2.226,0l-1.505-0.94
			c-0.305-0.19-0.861-0.19-1.166,0l-1.507,0.941c-0.623,0.39-1.601,0.39-2.226-0.001l-1.503-0.939c-0.306-0.19-0.861-0.191-1.166,0
			l-1.507,0.941c-0.623,0.39-1.601,0.39-2.226-0.001l-1.503-0.939c-0.305-0.19-0.861-0.191-1.166,0l-1.501,0.939
			c-0.625,0.391-1.603,0.39-2.226,0l-2.352-1.47c-0.146-0.091-0.235-0.251-0.235-0.424v-2.99c0-0.182,0.099-0.349,0.258-0.438
			c0.158-0.088,0.352-0.083,0.507,0.014l2.352,1.47c0.305,0.19,0.861,0.189,1.166,0l1.501-0.939c0.624-0.391,1.602-0.39,2.226,0
			l1.503,0.94c0.305,0.189,0.86,0.191,1.166,0l1.507-0.941c0.623-0.39,1.601-0.39,2.226,0.001l1.503,0.939
			c0.306,0.19,0.861,0.191,1.166,0l1.507-0.941c0.624-0.39,1.602-0.39,2.226,0l1.505,0.94c0.305,0.19,0.861,0.19,1.166,0
			l1.508-0.941c0.624-0.39,1.601-0.39,2.226,0l1.505,0.94c0.306,0.191,0.862,0.191,1.167,0l1.508-0.941
			c0.624-0.39,1.601-0.39,2.226,0l1.508,0.941c0.305,0.19,0.862,0.19,1.168,0l1.508-0.941c0.624-0.389,1.603-0.39,2.227,0.001
			l1.505,0.94c0.305,0.19,0.861,0.19,1.167,0l1.508-0.941c0.624-0.389,1.603-0.389,2.227,0l1.508,0.941
			c0.305,0.19,0.862,0.19,1.168,0l1.509-0.941c0.625-0.39,1.603-0.389,2.227,0l1.513,0.942c0.307,0.19,0.863,0.19,1.168,0
			l2.363-1.471c0.155-0.096,0.348-0.101,0.507-0.013s0.257,0.255,0.257,0.437v2.99c0,0.173-0.089,0.333-0.236,0.424l-2.363,1.471
			C58.414,49.159,58.014,49.256,57.613,49.256z M54.403,46.882c0.4,0,0.8,0.097,1.112,0.292l1.513,0.942
			c0.307,0.19,0.863,0.19,1.168,0l2.127-1.325v-1.812l-1.599,0.995c-0.624,0.39-1.601,0.389-2.226,0l-1.513-0.942
			c-0.306-0.19-0.863-0.19-1.168,0l-1.509,0.941c-0.624,0.389-1.603,0.389-2.227,0l-1.508-0.941c-0.306-0.19-0.862-0.19-1.168,0
			l-1.508,0.941c-0.624,0.389-1.603,0.39-2.227-0.001l-1.505-0.94c-0.305-0.19-0.861-0.19-1.167,0l-1.508,0.941
			c-0.624,0.389-1.603,0.389-2.227,0l-1.508-0.941c-0.306-0.19-0.862-0.19-1.167,0l-1.508,0.941c-0.624,0.39-1.601,0.39-2.226,0
			l-1.505-0.94c-0.306-0.191-0.862-0.191-1.167,0l-1.508,0.941c-0.624,0.39-1.601,0.39-2.226,0l-1.505-0.94
			c-0.305-0.19-0.861-0.19-1.166,0l-1.507,0.941c-0.623,0.39-1.601,0.39-2.226-0.001l-1.503-0.939c-0.306-0.19-0.861-0.191-1.166,0
			l-1.507,0.941c-0.623,0.39-1.601,0.39-2.226-0.001l-1.503-0.939c-0.305-0.191-0.861-0.191-1.166,0l-1.501,0.939
			c-0.625,0.391-1.603,0.391-2.226,0l-1.586-0.991v1.811l2.117,1.323c0.305,0.19,0.861,0.189,1.166,0l1.501-0.939
			c0.624-0.391,1.602-0.39,2.226,0l1.503,0.94c0.305,0.189,0.86,0.191,1.166,0l1.507-0.941c0.623-0.39,1.601-0.39,2.226,0.001
			l1.503,0.939c0.306,0.19,0.861,0.191,1.166,0l1.507-0.941c0.624-0.39,1.602-0.39,2.226,0l1.505,0.94
			c0.305,0.19,0.861,0.19,1.166,0l1.508-0.941c0.624-0.39,1.601-0.39,2.226,0l1.505,0.94c0.306,0.191,0.862,0.191,1.167,0
			l1.508-0.941c0.624-0.39,1.601-0.39,2.226,0l1.508,0.941c0.305,0.19,0.862,0.19,1.168,0l1.508-0.941
			c0.624-0.389,1.603-0.39,2.227,0.001l1.505,0.94c0.305,0.19,0.861,0.19,1.167,0l1.508-0.941c0.624-0.389,1.603-0.389,2.227,0
			l1.508,0.941c0.305,0.19,0.862,0.19,1.168,0l1.509-0.941C53.602,46.979,54.002,46.882,54.403,46.882z"/>
		<path class="st12" d="M60.825,37.457l-2.363,1.471c-0.467,0.291-1.23,0.291-1.697,0l-1.514-0.942c-0.467-0.291-1.23-0.291-1.697,0
			l-1.509,0.941c-0.467,0.291-1.23,0.291-1.697,0l-1.508-0.941c-0.467-0.291-1.231-0.291-1.697,0l-1.508,0.941
			c-0.467,0.291-1.23,0.291-1.697,0l-1.505-0.94c-0.466-0.292-1.23-0.292-1.697,0l-1.508,0.941c-0.467,0.291-1.23,0.291-1.697,0
			l-1.508-0.941c-0.467-0.291-1.23-0.291-1.697,0l-1.507,0.94c-0.466,0.292-1.23,0.292-1.696,0l-1.506-0.94
			c-0.466-0.292-1.23-0.292-1.696,0l-1.507,0.94c-0.466,0.292-1.23,0.292-1.696,0l-1.505-0.94c-0.466-0.292-1.23-0.292-1.696,0
			l-1.506,0.94c-0.466,0.292-1.229,0.292-1.696,0l-1.503-0.939c-0.467-0.292-1.23-0.292-1.696,0l-1.506,0.94
			c-0.466,0.292-1.229,0.291-1.696,0l-1.503-0.939c-0.467-0.292-1.229-0.292-1.696,0l-1.501,0.939c-0.466,0.292-1.23,0.292-1.696,0
			l-2.352-1.47v-2.99l2.352,1.47c0.466,0.292,1.229,0.292,1.696,0l1.501-0.939c0.466-0.292,1.229-0.292,1.696,0l1.503,0.939
			c0.466,0.292,1.229,0.292,1.696,0l1.506-0.94c0.466-0.292,1.229-0.292,1.696,0l1.503,0.939c0.467,0.292,1.23,0.292,1.696,0
			l1.506-0.94c0.466-0.292,1.23-0.292,1.696,0l1.505,0.94c0.466,0.292,1.23,0.292,1.696,0l1.507-0.94
			c0.466-0.292,1.23-0.292,1.696,0l1.506,0.94c0.466,0.292,1.23,0.292,1.696,0l1.507-0.94c0.466-0.292,1.23-0.292,1.697,0
			l1.508,0.941c0.467,0.291,1.23,0.291,1.697,0l1.508-0.941c0.467-0.291,1.23-0.291,1.697,0l1.505,0.94
			c0.466,0.292,1.23,0.292,1.697,0l1.508-0.941c0.467-0.291,1.23-0.291,1.697,0l1.508,0.941c0.467,0.291,1.23,0.291,1.697,0
			l1.509-0.941c0.467-0.291,1.23-0.292,1.697-0.001l1.514,0.942c0.467,0.291,1.23,0.291,1.697,0l2.363-1.471V37.457z"/>
		<path class="st0" d="M57.613,39.644c-0.4,0-0.801-0.098-1.113-0.292l-1.513-0.942c-0.306-0.19-0.863-0.19-1.168,0l-1.509,0.941
			c-0.624,0.389-1.603,0.389-2.227,0l-1.508-0.941c-0.306-0.19-0.862-0.19-1.168,0l-1.508,0.941
			c-0.624,0.389-1.603,0.389-2.227-0.001l-1.505-0.94c-0.305-0.19-0.861-0.19-1.167,0l-1.508,0.941
			c-0.624,0.389-1.603,0.388-2.227,0l-1.508-0.941c-0.306-0.19-0.862-0.19-1.167,0l-1.508,0.941c-0.624,0.39-1.601,0.39-2.226,0
			l-1.505-0.94c-0.306-0.191-0.862-0.191-1.167,0l-1.508,0.941c-0.624,0.39-1.601,0.39-2.226,0l-1.505-0.94
			c-0.305-0.19-0.861-0.19-1.166,0l-1.507,0.941c-0.623,0.39-1.601,0.39-2.226-0.001l-1.503-0.939c-0.306-0.19-0.861-0.191-1.166,0
			l-1.507,0.941c-0.623,0.39-1.601,0.39-2.226-0.001l-1.503-0.939c-0.305-0.19-0.861-0.191-1.166,0L7.477,39.35
			c-0.625,0.391-1.603,0.39-2.226,0l-2.352-1.47c-0.146-0.091-0.235-0.251-0.235-0.424v-2.99c0-0.182,0.099-0.349,0.258-0.438
			c0.158-0.087,0.352-0.083,0.507,0.014l2.352,1.47c0.305,0.19,0.861,0.19,1.166,0l1.501-0.939c0.624-0.391,1.602-0.39,2.226,0
			l1.503,0.94c0.305,0.19,0.86,0.19,1.166,0l1.507-0.941c0.623-0.39,1.601-0.39,2.226,0.001l1.503,0.939
			c0.306,0.19,0.861,0.191,1.166,0l1.507-0.941c0.624-0.39,1.602-0.39,2.226,0l1.505,0.94c0.305,0.19,0.861,0.19,1.166,0
			l1.508-0.941c0.624-0.39,1.601-0.39,2.226,0l1.505,0.94c0.306,0.191,0.862,0.191,1.167,0l1.508-0.941
			c0.624-0.39,1.601-0.39,2.226,0l1.508,0.941c0.305,0.19,0.862,0.191,1.168,0l1.508-0.941c0.624-0.389,1.603-0.39,2.227,0.001
			l1.505,0.94c0.305,0.19,0.861,0.19,1.167,0l1.508-0.941c0.624-0.389,1.603-0.389,2.227,0l1.508,0.941
			c0.305,0.19,0.862,0.191,1.168,0l1.509-0.941c0.625-0.39,1.603-0.389,2.227,0l1.513,0.942c0.307,0.19,0.863,0.19,1.168,0
			l2.363-1.471c0.155-0.096,0.348-0.101,0.507-0.013s0.257,0.255,0.257,0.437v2.99c0,0.173-0.089,0.333-0.236,0.424l-2.363,1.471
			C58.414,39.547,58.014,39.644,57.613,39.644z M54.403,37.27c0.4,0,0.8,0.097,1.112,0.292l1.513,0.942
			c0.307,0.19,0.863,0.19,1.168,0l2.127-1.325v-1.812l-1.599,0.995c-0.624,0.39-1.601,0.389-2.226,0l-1.513-0.942
			c-0.306-0.19-0.863-0.19-1.168,0l-1.509,0.941c-0.624,0.389-1.603,0.389-2.227,0l-1.508-0.941c-0.306-0.19-0.862-0.19-1.168,0
			l-1.508,0.941c-0.624,0.389-1.603,0.39-2.227-0.001l-1.505-0.94c-0.305-0.19-0.861-0.19-1.167,0l-1.508,0.941
			c-0.624,0.389-1.603,0.389-2.227,0l-1.508-0.941c-0.306-0.19-0.862-0.19-1.167,0l-1.508,0.941c-0.624,0.39-1.601,0.39-2.226,0
			l-1.505-0.94c-0.306-0.191-0.862-0.191-1.167,0l-1.508,0.941c-0.624,0.39-1.601,0.39-2.226,0l-1.505-0.94
			c-0.305-0.19-0.861-0.19-1.166,0l-1.507,0.941c-0.623,0.39-1.601,0.39-2.226-0.001l-1.503-0.939c-0.306-0.19-0.861-0.191-1.166,0
			l-1.507,0.941c-0.623,0.39-1.601,0.39-2.226-0.001l-1.503-0.939c-0.305-0.19-0.861-0.191-1.166,0L7.477,36.36
			c-0.625,0.391-1.603,0.391-2.226,0l-1.586-0.991v1.811l2.117,1.323c0.305,0.19,0.861,0.19,1.166,0l1.501-0.939
			c0.624-0.391,1.602-0.39,2.226,0l1.503,0.94c0.305,0.19,0.86,0.19,1.166,0l1.507-0.941c0.623-0.39,1.601-0.39,2.226,0.001
			l1.503,0.939c0.306,0.19,0.861,0.191,1.166,0l1.507-0.941c0.624-0.39,1.602-0.39,2.226,0l1.505,0.94
			c0.305,0.19,0.861,0.19,1.166,0l1.508-0.941c0.624-0.39,1.601-0.39,2.226,0l1.505,0.94c0.306,0.191,0.862,0.191,1.167,0
			l1.508-0.941c0.624-0.39,1.601-0.39,2.226,0l1.508,0.941c0.305,0.19,0.862,0.191,1.168,0l1.508-0.941
			c0.624-0.389,1.603-0.39,2.227,0.001l1.505,0.94c0.305,0.19,0.861,0.19,1.167,0l1.508-0.941c0.624-0.389,1.603-0.389,2.227,0
			l1.508,0.941c0.305,0.19,0.862,0.191,1.168,0l1.509-0.941C53.602,37.367,54.002,37.27,54.403,37.27z"/>
		<path class="st12" d="M60.825,27.844l-2.363,1.471c-0.467,0.291-1.23,0.291-1.697,0l-1.514-0.942
			c-0.467-0.291-1.23-0.29-1.697,0.001l-1.509,0.941c-0.467,0.291-1.23,0.291-1.697,0l-1.508-0.941
			c-0.467-0.291-1.231-0.291-1.697,0l-1.508,0.941c-0.467,0.291-1.23,0.291-1.697,0l-1.505-0.941c-0.466-0.292-1.23-0.292-1.697,0
			l-1.508,0.941c-0.467,0.291-1.23,0.291-1.697,0l-1.508-0.941c-0.467-0.291-1.23-0.291-1.697,0l-1.507,0.941
			c-0.466,0.292-1.23,0.292-1.696,0l-1.506-0.941c-0.466-0.292-1.23-0.292-1.696,0l-1.507,0.941c-0.466,0.292-1.23,0.292-1.696,0
			l-1.505-0.941c-0.466-0.292-1.23-0.292-1.696,0l-1.506,0.941c-0.466,0.292-1.229,0.292-1.696-0.001l-1.503-0.939
			c-0.467-0.292-1.23-0.292-1.696,0l-1.506,0.941c-0.466,0.292-1.229,0.291-1.696-0.001l-1.503-0.939
			c-0.467-0.292-1.229-0.292-1.696,0l-1.501,0.939c-0.466,0.292-1.23,0.292-1.696,0l-2.352-1.47v-2.99l2.352,1.47
			c0.466,0.292,1.229,0.292,1.696,0l1.501-0.939c0.466-0.292,1.229-0.292,1.696,0l1.503,0.939c0.466,0.292,1.229,0.292,1.696,0
			l1.506-0.94c0.466-0.292,1.229-0.292,1.696,0l1.503,0.939c0.467,0.292,1.23,0.292,1.696,0l1.506-0.94
			c0.466-0.292,1.23-0.292,1.696,0l1.505,0.94c0.466,0.292,1.23,0.292,1.696,0l1.507-0.94c0.466-0.292,1.23-0.292,1.696,0
			l1.506,0.94c0.466,0.292,1.23,0.292,1.696,0l1.507-0.94c0.466-0.292,1.23-0.292,1.697,0l1.508,0.941
			c0.467,0.291,1.23,0.291,1.697,0l1.508-0.941c0.467-0.291,1.23-0.291,1.697,0l1.505,0.94c0.466,0.292,1.23,0.292,1.697,0
			l1.508-0.941c0.467-0.291,1.23-0.291,1.697,0l1.508,0.941c0.467,0.291,1.23,0.291,1.697,0l1.509-0.941
			c0.467-0.291,1.23-0.292,1.697-0.001l1.514,0.942c0.467,0.291,1.23,0.291,1.697,0l2.363-1.471V27.844z"/>
		<path class="st0" d="M57.613,30.032c-0.4,0-0.801-0.098-1.113-0.292l-1.513-0.942c-0.306-0.19-0.863-0.19-1.168,0l-1.509,0.941
			c-0.624,0.389-1.603,0.389-2.227,0l-1.508-0.941c-0.306-0.19-0.862-0.191-1.168,0l-1.508,0.941
			c-0.624,0.389-1.603,0.389-2.227-0.001l-1.505-0.94c-0.305-0.19-0.861-0.19-1.167,0l-1.508,0.941
			c-0.624,0.389-1.603,0.388-2.227,0l-1.508-0.941c-0.306-0.19-0.862-0.19-1.167,0l-1.508,0.941c-0.624,0.39-1.601,0.39-2.226,0
			l-1.505-0.94c-0.306-0.191-0.862-0.191-1.167,0l-1.508,0.941c-0.624,0.39-1.601,0.39-2.226,0l-1.505-0.94
			c-0.305-0.19-0.861-0.19-1.166,0l-1.507,0.941c-0.623,0.39-1.601,0.39-2.226-0.001l-1.503-0.939c-0.306-0.19-0.861-0.191-1.166,0
			l-1.507,0.941c-0.623,0.39-1.601,0.39-2.226-0.001l-1.503-0.939c-0.305-0.191-0.861-0.191-1.166,0l-1.501,0.939
			c-0.625,0.391-1.603,0.39-2.226,0l-2.352-1.47c-0.146-0.091-0.235-0.251-0.235-0.424v-2.99c0-0.182,0.099-0.349,0.258-0.438
			c0.158-0.088,0.352-0.083,0.507,0.014l2.352,1.47c0.305,0.19,0.861,0.19,1.166,0l1.501-0.939c0.624-0.391,1.602-0.39,2.226,0
			l1.503,0.94c0.305,0.19,0.86,0.191,1.166,0l1.507-0.941c0.623-0.39,1.601-0.39,2.226,0.001l1.503,0.939
			c0.306,0.19,0.861,0.191,1.166,0l1.507-0.941c0.624-0.39,1.602-0.39,2.226,0l1.505,0.94c0.305,0.19,0.861,0.19,1.166,0
			l1.508-0.941c0.624-0.39,1.601-0.39,2.226,0l1.505,0.94c0.306,0.191,0.862,0.191,1.167,0l1.508-0.941
			c0.624-0.39,1.601-0.39,2.226,0l1.508,0.941c0.305,0.19,0.862,0.19,1.168,0l1.508-0.941c0.624-0.389,1.603-0.39,2.227,0.001
			l1.505,0.94c0.305,0.19,0.861,0.19,1.167,0l1.508-0.941c0.624-0.389,1.603-0.389,2.227,0l1.508,0.941
			c0.305,0.19,0.862,0.19,1.168,0l1.509-0.941c0.625-0.39,1.603-0.389,2.227,0l1.513,0.942c0.307,0.19,0.863,0.19,1.168,0
			l2.363-1.471c0.155-0.096,0.348-0.101,0.507-0.013s0.257,0.255,0.257,0.437v2.99c0,0.173-0.089,0.333-0.236,0.424l-2.363,1.471
			C58.414,29.935,58.014,30.032,57.613,30.032z M54.403,27.657c0.4,0,0.8,0.097,1.112,0.292l1.513,0.942
			c0.307,0.19,0.863,0.19,1.168,0l2.127-1.325v-1.812l-1.599,0.995c-0.624,0.39-1.601,0.389-2.226,0l-1.513-0.942
			c-0.306-0.19-0.863-0.19-1.168,0l-1.509,0.941c-0.624,0.389-1.603,0.389-2.227,0l-1.508-0.941c-0.306-0.19-0.862-0.191-1.168,0
			l-1.508,0.941c-0.624,0.389-1.603,0.39-2.227-0.001l-1.505-0.94c-0.305-0.19-0.861-0.19-1.167,0l-1.508,0.941
			c-0.624,0.389-1.603,0.389-2.227,0l-1.508-0.941c-0.306-0.19-0.862-0.19-1.167,0l-1.508,0.941c-0.624,0.39-1.601,0.39-2.226,0
			l-1.505-0.94c-0.306-0.191-0.862-0.191-1.167,0l-1.508,0.941c-0.624,0.39-1.601,0.39-2.226,0l-1.505-0.94
			c-0.305-0.19-0.861-0.19-1.166,0l-1.507,0.941c-0.623,0.39-1.601,0.39-2.226-0.001l-1.503-0.939c-0.306-0.19-0.861-0.191-1.166,0
			l-1.507,0.941c-0.623,0.39-1.601,0.39-2.226-0.001l-1.503-0.939c-0.305-0.191-0.861-0.191-1.166,0l-1.501,0.939
			c-0.625,0.391-1.603,0.391-2.226,0l-1.586-0.991v1.811l2.117,1.323c0.305,0.19,0.861,0.189,1.166,0l1.501-0.939
			c0.624-0.391,1.602-0.39,2.226,0l1.503,0.94c0.305,0.189,0.86,0.191,1.166,0l1.507-0.941c0.623-0.39,1.601-0.39,2.226,0.001
			l1.503,0.939c0.306,0.19,0.861,0.191,1.166,0l1.507-0.941c0.624-0.39,1.602-0.39,2.226,0l1.505,0.94
			c0.305,0.19,0.861,0.19,1.166,0l1.508-0.941c0.624-0.39,1.601-0.39,2.226,0l1.505,0.94c0.306,0.191,0.862,0.191,1.167,0
			l1.508-0.941c0.624-0.39,1.601-0.39,2.226,0l1.508,0.941c0.305,0.19,0.862,0.19,1.168,0l1.508-0.941
			c0.624-0.389,1.603-0.39,2.227,0.001l1.505,0.94c0.305,0.19,0.861,0.19,1.167,0l1.508-0.941c0.624-0.389,1.603-0.389,2.227,0
			l1.508,0.941c0.305,0.19,0.862,0.19,1.168,0l1.509-0.941C53.602,27.754,54.002,27.657,54.403,27.657z"/>
		<path class="st12" d="M60.825,18.232l-2.363,1.471c-0.467,0.291-1.23,0.291-1.697,0l-1.514-0.942c-0.467-0.291-1.23-0.291-1.697,0
			l-1.509,0.941c-0.467,0.291-1.23,0.291-1.697,0l-1.508-0.941c-0.467-0.291-1.231-0.291-1.697,0l-1.508,0.941
			c-0.467,0.291-1.23,0.291-1.697,0l-1.505-0.94c-0.466-0.292-1.23-0.292-1.697,0l-1.508,0.941c-0.467,0.291-1.23,0.291-1.697,0
			l-1.508-0.941c-0.467-0.291-1.23-0.291-1.697,0l-1.507,0.94c-0.466,0.292-1.23,0.292-1.696,0l-1.506-0.94
			c-0.466-0.292-1.23-0.292-1.696,0l-1.507,0.94c-0.466,0.292-1.23,0.292-1.696,0l-1.505-0.94c-0.466-0.292-1.23-0.292-1.696,0
			l-1.506,0.94c-0.466,0.292-1.229,0.292-1.696,0l-1.503-0.94c-0.467-0.292-1.23-0.292-1.696,0l-1.506,0.94
			c-0.466,0.292-1.229,0.291-1.696,0l-1.503-0.94c-0.467-0.292-1.229-0.292-1.696,0l-1.501,0.94c-0.466,0.292-1.23,0.292-1.696,0
			l-2.352-1.47v-2.99l2.352,1.47c0.466,0.292,1.229,0.292,1.696,0l1.501-0.939c0.466-0.292,1.229-0.292,1.696,0l1.503,0.939
			c0.466,0.292,1.229,0.292,1.696,0.001l1.506-0.94c0.466-0.292,1.229-0.292,1.696,0.001l1.503,0.939
			c0.467,0.292,1.23,0.292,1.696,0.001l1.506-0.94c0.466-0.292,1.23-0.292,1.696,0l1.505,0.94c0.466,0.292,1.23,0.292,1.696,0
			l1.507-0.94c0.466-0.292,1.23-0.292,1.696,0l1.506,0.94c0.466,0.292,1.23,0.292,1.696,0l1.507-0.94
			c0.466-0.292,1.23-0.292,1.697,0l1.508,0.941c0.467,0.291,1.23,0.291,1.697,0l1.508-0.941c0.467-0.291,1.23-0.291,1.697,0
			l1.505,0.94c0.466,0.292,1.23,0.292,1.697,0l1.508-0.941c0.467-0.291,1.23-0.291,1.697,0l1.508,0.941
			c0.467,0.291,1.23,0.291,1.697,0l1.509-0.941c0.467-0.291,1.23-0.292,1.697,0l1.514,0.942c0.467,0.291,1.23,0.291,1.697,0
			l2.363-1.471V18.232z"/>
		<path class="st0" d="M57.613,20.419c-0.4,0-0.801-0.098-1.113-0.292l-1.513-0.942c-0.306-0.19-0.863-0.19-1.168,0l-1.509,0.941
			c-0.624,0.389-1.603,0.389-2.227,0l-1.508-0.941c-0.306-0.19-0.862-0.19-1.168,0l-1.508,0.941
			c-0.624,0.389-1.603,0.389-2.227-0.001l-1.505-0.94c-0.305-0.19-0.861-0.19-1.167,0l-1.508,0.941
			c-0.624,0.389-1.603,0.388-2.227,0l-1.508-0.941c-0.306-0.19-0.862-0.19-1.167,0l-1.508,0.941c-0.624,0.39-1.601,0.39-2.226,0
			l-1.505-0.94c-0.306-0.191-0.862-0.191-1.167,0l-1.508,0.941c-0.624,0.39-1.601,0.39-2.226,0l-1.505-0.94
			c-0.305-0.19-0.861-0.19-1.166,0l-1.507,0.941c-0.623,0.39-1.601,0.39-2.226-0.001l-1.503-0.939c-0.306-0.19-0.861-0.191-1.166,0
			l-1.507,0.941c-0.623,0.39-1.601,0.39-2.226-0.001l-1.503-0.939c-0.305-0.19-0.861-0.191-1.166,0l-1.501,0.939
			c-0.625,0.391-1.603,0.39-2.226,0l-2.352-1.47c-0.146-0.091-0.235-0.251-0.235-0.424v-2.99c0-0.182,0.099-0.349,0.258-0.438
			c0.158-0.088,0.352-0.083,0.507,0.014l2.352,1.47c0.305,0.19,0.861,0.189,1.166,0l1.501-0.939c0.624-0.391,1.602-0.39,2.226,0
			l1.503,0.94c0.305,0.189,0.86,0.191,1.166,0l1.507-0.941c0.623-0.39,1.601-0.39,2.226,0.001l1.503,0.939
			c0.306,0.19,0.861,0.191,1.166,0l1.507-0.941c0.624-0.39,1.602-0.39,2.226,0l1.505,0.94c0.305,0.19,0.861,0.19,1.166,0
			l1.508-0.941c0.624-0.39,1.601-0.39,2.226,0l1.505,0.94c0.306,0.191,0.862,0.191,1.167,0l1.508-0.941
			c0.624-0.39,1.601-0.39,2.226,0l1.508,0.941c0.305,0.19,0.862,0.19,1.168,0l1.508-0.941c0.624-0.389,1.603-0.39,2.227,0.001
			l1.505,0.94c0.305,0.19,0.861,0.19,1.167,0l1.508-0.941c0.624-0.389,1.603-0.389,2.227,0l1.508,0.941
			c0.305,0.19,0.862,0.19,1.168,0l1.509-0.941c0.625-0.39,1.603-0.389,2.227,0l1.513,0.942c0.307,0.19,0.863,0.19,1.168,0
			l2.363-1.471c0.155-0.095,0.348-0.1,0.507-0.013c0.159,0.088,0.257,0.255,0.257,0.437v2.99c0,0.173-0.089,0.333-0.236,0.424
			l-2.363,1.471C58.414,20.322,58.014,20.419,57.613,20.419z M54.403,18.045c0.4,0,0.8,0.097,1.112,0.292l1.513,0.942
			c0.307,0.19,0.863,0.19,1.168,0l2.127-1.325v-1.812l-1.599,0.995c-0.624,0.39-1.601,0.389-2.226,0l-1.513-0.942
			c-0.306-0.19-0.863-0.19-1.168,0l-1.509,0.941c-0.624,0.389-1.603,0.389-2.227,0l-1.508-0.941c-0.306-0.19-0.862-0.19-1.168,0
			l-1.508,0.941c-0.624,0.389-1.603,0.39-2.227-0.001l-1.505-0.94c-0.305-0.19-0.861-0.19-1.167,0l-1.508,0.941
			c-0.624,0.389-1.603,0.389-2.227,0l-1.508-0.941c-0.306-0.19-0.862-0.19-1.167,0l-1.508,0.941c-0.624,0.39-1.601,0.39-2.226,0
			l-1.505-0.94c-0.306-0.191-0.862-0.191-1.167,0l-1.508,0.941c-0.624,0.39-1.601,0.39-2.226,0l-1.505-0.94
			c-0.305-0.19-0.861-0.19-1.166,0l-1.507,0.941c-0.623,0.39-1.601,0.39-2.226-0.001l-1.503-0.939c-0.306-0.19-0.861-0.191-1.166,0
			l-1.507,0.941c-0.623,0.39-1.601,0.39-2.226-0.001l-1.503-0.939c-0.305-0.19-0.861-0.191-1.166,0l-1.501,0.939
			c-0.625,0.391-1.603,0.391-2.226,0l-1.586-0.991v1.811l2.117,1.323c0.305,0.19,0.861,0.189,1.166,0l1.501-0.939
			c0.624-0.391,1.602-0.39,2.226,0l1.503,0.94c0.305,0.189,0.86,0.191,1.166,0l1.507-0.941c0.623-0.39,1.601-0.39,2.226,0.001
			l1.503,0.939c0.306,0.19,0.861,0.191,1.166,0l1.507-0.941c0.624-0.39,1.602-0.39,2.226,0l1.505,0.94
			c0.305,0.19,0.861,0.19,1.166,0l1.508-0.941c0.624-0.39,1.601-0.39,2.226,0l1.505,0.94c0.306,0.191,0.862,0.191,1.167,0
			l1.508-0.941c0.624-0.39,1.601-0.39,2.226,0l1.508,0.941c0.305,0.19,0.862,0.19,1.168,0l1.508-0.941
			c0.624-0.389,1.603-0.39,2.227,0.001l1.505,0.94c0.305,0.19,0.861,0.19,1.167,0l1.508-0.941c0.624-0.389,1.603-0.389,2.227,0
			l1.508,0.941c0.305,0.19,0.862,0.19,1.168,0l1.509-0.941C53.602,18.142,54.002,18.045,54.403,18.045z"/>
		<path class="st12" d="M60.825,8.62l-2.363,1.471c-0.467,0.291-1.23,0.291-1.697,0l-1.514-0.942c-0.467-0.291-1.23-0.291-1.697,0
			l-1.509,0.941c-0.467,0.291-1.23,0.291-1.697,0l-1.508-0.941c-0.467-0.291-1.231-0.291-1.697,0l-1.508,0.941
			c-0.467,0.291-1.23,0.291-1.697,0l-1.505-0.94c-0.466-0.292-1.23-0.292-1.697,0l-1.508,0.941c-0.467,0.291-1.23,0.291-1.697,0
			l-1.508-0.941c-0.467-0.291-1.23-0.291-1.697,0l-1.507,0.94c-0.466,0.292-1.23,0.292-1.696,0l-1.506-0.94
			c-0.466-0.292-1.23-0.292-1.696,0l-1.507,0.94c-0.466,0.292-1.23,0.292-1.696,0l-1.505-0.94c-0.466-0.292-1.23-0.292-1.696,0
			l-1.506,0.94c-0.466,0.292-1.229,0.292-1.696,0L16.81,9.15c-0.467-0.292-1.23-0.292-1.696-0.001l-1.506,0.94
			c-0.466,0.292-1.229,0.291-1.696,0L10.409,9.15c-0.467-0.292-1.229-0.292-1.696,0l-1.501,0.939c-0.466,0.292-1.23,0.292-1.696,0
			L3.164,8.62v-2.99l2.352,1.47c0.466,0.292,1.229,0.292,1.696,0L8.713,6.16c0.466-0.292,1.229-0.292,1.696,0l1.503,0.939
			c0.466,0.292,1.229,0.292,1.696,0l1.506-0.94c0.466-0.292,1.229-0.292,1.696,0l1.503,0.939c0.467,0.292,1.23,0.292,1.696,0
			l1.506-0.94c0.466-0.292,1.23-0.292,1.696,0l1.505,0.94c0.466,0.292,1.23,0.292,1.696,0l1.507-0.94
			c0.466-0.292,1.23-0.292,1.696,0l1.506,0.94c0.466,0.292,1.23,0.292,1.696,0l1.507-0.94c0.466-0.292,1.23-0.292,1.697-0.001
			L37.531,7.1c0.467,0.291,1.23,0.291,1.697,0l1.508-0.941c0.467-0.291,1.23-0.291,1.697,0.001l1.505,0.94
			c0.466,0.292,1.23,0.292,1.697,0.001l1.508-0.941c0.467-0.291,1.23-0.291,1.697,0L50.347,7.1c0.467,0.291,1.23,0.291,1.697,0
			l1.509-0.941c0.467-0.291,1.23-0.292,1.697-0.001l1.514,0.942c0.467,0.291,1.23,0.291,1.697,0l2.363-1.471V8.62z"/>
		<path class="st0" d="M57.613,10.807c-0.4,0-0.801-0.098-1.113-0.292l-1.513-0.942c-0.306-0.19-0.863-0.19-1.168,0l-1.509,0.941
			c-0.624,0.389-1.603,0.389-2.227,0l-1.508-0.941c-0.306-0.19-0.862-0.19-1.168,0l-1.508,0.941
			c-0.624,0.389-1.603,0.389-2.227-0.001l-1.505-0.94c-0.305-0.19-0.861-0.19-1.167,0l-1.508,0.941
			c-0.624,0.389-1.603,0.388-2.227,0l-1.508-0.941c-0.306-0.19-0.862-0.19-1.167,0l-1.508,0.941c-0.624,0.39-1.601,0.39-2.226,0
			l-1.505-0.94c-0.306-0.191-0.862-0.191-1.167,0l-1.508,0.941c-0.624,0.39-1.601,0.39-2.226,0l-1.505-0.94
			c-0.305-0.19-0.861-0.19-1.166,0l-1.507,0.941c-0.623,0.39-1.601,0.39-2.226-0.001l-1.503-0.939c-0.306-0.19-0.861-0.191-1.166,0
			l-1.507,0.941c-0.623,0.39-1.601,0.39-2.226-0.001l-1.503-0.939c-0.305-0.19-0.861-0.191-1.166,0l-1.501,0.939
			c-0.625,0.391-1.603,0.39-2.226,0l-2.352-1.47C2.753,8.952,2.664,8.792,2.664,8.62v-2.99c0-0.182,0.099-0.349,0.258-0.438
			C3.08,5.104,3.274,5.108,3.429,5.206l2.352,1.47c0.305,0.19,0.861,0.19,1.166,0l1.501-0.939c0.624-0.391,1.602-0.39,2.226,0
			l1.503,0.94c0.305,0.19,0.86,0.19,1.166,0l1.507-0.941c0.623-0.39,1.601-0.39,2.226,0.001l1.503,0.939
			c0.306,0.19,0.861,0.191,1.166,0l1.507-0.941c0.624-0.39,1.602-0.39,2.226,0l1.505,0.94c0.305,0.19,0.861,0.19,1.166,0
			l1.508-0.941c0.624-0.39,1.601-0.39,2.226,0l1.505,0.94c0.306,0.191,0.862,0.191,1.167,0l1.508-0.941
			c0.624-0.39,1.601-0.39,2.226,0l1.508,0.941c0.305,0.19,0.862,0.191,1.168,0l1.508-0.941c0.624-0.389,1.603-0.39,2.227,0.001
			l1.505,0.94c0.305,0.19,0.861,0.19,1.167,0l1.508-0.941c0.624-0.389,1.603-0.389,2.227,0l1.508,0.941
			c0.305,0.19,0.862,0.191,1.168,0l1.509-0.941c0.625-0.39,1.603-0.389,2.227,0l1.513,0.942c0.307,0.19,0.863,0.19,1.168,0
			l2.363-1.471c0.155-0.096,0.348-0.1,0.507-0.013c0.159,0.088,0.257,0.255,0.257,0.437v2.99c0,0.173-0.089,0.333-0.236,0.424
			l-2.363,1.471C58.414,10.71,58.014,10.807,57.613,10.807z M54.403,8.433c0.4,0,0.8,0.097,1.112,0.292l1.513,0.942
			c0.307,0.19,0.863,0.19,1.168,0l2.127-1.325V6.53l-1.599,0.995c-0.624,0.39-1.601,0.389-2.226,0l-1.513-0.942
			c-0.306-0.19-0.863-0.19-1.168,0l-1.509,0.941c-0.624,0.389-1.603,0.389-2.227,0l-1.508-0.941c-0.306-0.19-0.862-0.19-1.168,0
			l-1.508,0.941c-0.624,0.389-1.603,0.39-2.227-0.001l-1.505-0.94c-0.305-0.19-0.861-0.19-1.167,0l-1.508,0.941
			c-0.624,0.389-1.603,0.389-2.227,0l-1.508-0.941c-0.306-0.19-0.862-0.19-1.167,0l-1.508,0.941c-0.624,0.39-1.601,0.39-2.226,0
			l-1.505-0.94c-0.306-0.191-0.862-0.191-1.167,0l-1.508,0.941c-0.624,0.39-1.601,0.39-2.226,0l-1.505-0.94
			c-0.305-0.19-0.861-0.19-1.166,0l-1.507,0.941c-0.623,0.39-1.601,0.39-2.226-0.001l-1.503-0.939c-0.306-0.19-0.861-0.191-1.166,0
			l-1.507,0.941c-0.623,0.39-1.601,0.39-2.226-0.001l-1.503-0.939c-0.305-0.19-0.861-0.191-1.166,0L7.477,7.523
			c-0.625,0.391-1.603,0.391-2.226,0L3.664,6.532v1.811l2.117,1.323c0.305,0.19,0.861,0.19,1.166,0l1.501-0.939
			c0.624-0.391,1.602-0.39,2.226,0l1.503,0.94c0.305,0.19,0.86,0.19,1.166,0l1.507-0.941c0.623-0.39,1.601-0.39,2.226,0.001
			l1.503,0.939c0.306,0.19,0.861,0.191,1.166,0l1.507-0.941c0.624-0.39,1.602-0.39,2.226,0l1.505,0.94
			c0.305,0.19,0.861,0.19,1.166,0l1.508-0.941c0.624-0.39,1.601-0.39,2.226,0l1.505,0.94c0.306,0.191,0.862,0.191,1.167,0
			l1.508-0.941c0.624-0.39,1.601-0.39,2.226,0l1.508,0.941c0.305,0.19,0.862,0.191,1.168,0l1.508-0.941
			c0.624-0.389,1.603-0.39,2.227,0.001l1.505,0.94c0.305,0.19,0.861,0.19,1.167,0l1.508-0.941c0.624-0.389,1.603-0.389,2.227,0
			l1.508,0.941c0.305,0.19,0.862,0.191,1.168,0l1.509-0.941C53.602,8.53,54.002,8.433,54.403,8.433z"/>
	</g>
</g>
</svg>
