<?xml version="1.0" encoding="UTF-8" standalone="no"?>
<!-- icon666.com - MILLIONS vector ICONS FREE -->

<svg
   id="one_color"
   viewBox="0 0 64 64"
   version="1.1"
   sodipodi:docname="moonset.svg"
   xml:space="preserve"
   inkscape:version="1.3 (0e150ed6c4, 2023-07-21)"
   xmlns:inkscape="http://www.inkscape.org/namespaces/inkscape"
   xmlns:sodipodi="http://sodipodi.sourceforge.net/DTD/sodipodi-0.dtd"
   xmlns="http://www.w3.org/2000/svg"
   xmlns:svg="http://www.w3.org/2000/svg"><defs
     id="defs15" /><sodipodi:namedview
     id="namedview15"
     pagecolor="#ffffff"
     bordercolor="#000000"
     borderopacity="0.25"
     inkscape:showpageshadow="2"
     inkscape:pageopacity="0.0"
     inkscape:pagecheckerboard="true"
     inkscape:deskcolor="#d1d1d1"
     inkscape:zoom="5.2989553"
     inkscape:cx="-12.832718"
     inkscape:cy="43.876574"
     inkscape:window-width="1920"
     inkscape:window-height="1046"
     inkscape:window-x="-11"
     inkscape:window-y="-11"
     inkscape:window-maximized="1"
     inkscape:current-layer="one_color" /><path
     d="m55 27c0 5.73-2.1 10.98-5.58 15h-34.84c-3.48-4.02-5.58-9.27-5.58-15 0-12.7 10.3-23 23-23s23 10.3 23 23zm-5.75 0c0-1.91-1.54-3.45-3.45-3.45s-3.45 1.54-3.45 3.45 1.54 3.45 3.45 3.45 3.45-1.54 3.45-3.45zm-3.45-10.35c0-1.27-1.03-2.3-2.3-2.3s-2.3 1.03-2.3 2.3 1.03 2.3 2.3 2.3 2.3-1.03 2.3-2.3zm0 19.55c0-.64-.51-1.15-1.15-1.15s-1.15.51-1.15 1.15.51 1.15 1.15 1.15 1.15-.51 1.15-1.15zm-6.9-2.3c0-1.27-1.03-2.3-2.3-2.3s-2.3 1.03-2.3 2.3 1.03 2.3 2.3 2.3 2.3-1.03 2.3-2.3zm0-10.35c0-.64-.51-1.15-1.15-1.15s-1.15.51-1.15 1.15.51 1.15 1.15 1.15 1.15-.51 1.15-1.15zm-3.45-10.35c0-.64-.51-1.15-1.15-1.15s-1.15.51-1.15 1.15.51 1.15 1.15 1.15 1.15-.51 1.15-1.15zm-12.65 4.6c0-1.91-1.54-3.45-3.45-3.45s-3.45 1.54-3.45 3.45 1.54 3.45 3.45 3.45 3.45-1.54 3.45-3.45zm-2.3 11.5c0-.64-.51-1.15-1.15-1.15s-1.15.51-1.15 1.15.51 1.15 1.15 1.15 1.15-.51 1.15-1.15z"
     fill="#8fcbf7"
     id="path1" /><circle
     cx="44.65"
     cy="36.2"
     r="1.15"
     id="circle1" /><circle
     cx="37.75"
     cy="23.55"
     r="1.15"
     id="circle2" /><circle
     cx="19.35"
     cy="29.3"
     r="1.15"
     id="circle3" /><circle
     cx="34.3"
     cy="13.2"
     r="1.15"
     id="circle4" /><g
     id="g15"><path
       d="m46.8 16.65c0-1.82-1.48-3.301-3.3-3.301s-3.3 1.48-3.3 3.301c0 1.819 1.48 3.3 3.3 3.3s3.3-1.48 3.3-3.3zm-4.6 0c0-.717.583-1.301 1.3-1.301s1.3.584 1.3 1.301-.583 1.3-1.3 1.3-1.3-.583-1.3-1.3z"
       id="path4" /><path
       d="m36.6 30.6c-1.82 0-3.3 1.48-3.3 3.301 0 1.819 1.48 3.3 3.3 3.3 1.819 0 3.3-1.48 3.3-3.3 0-1.821-1.481-3.301-3.3-3.301zm0 4.6c-.717 0-1.3-.583-1.3-1.3s.583-1.301 1.3-1.301 1.3.584 1.3 1.301-.583 1.3-1.3 1.3z"
       id="path5" /><path
       d="m50.25 27c0-2.454-1.997-4.45-4.45-4.45s-4.45 1.996-4.45 4.45 1.996 4.45 4.45 4.45 4.45-1.996 4.45-4.45zm-6.9 0c0-1.351 1.099-2.45 2.45-2.45s2.45 1.1 2.45 2.45-1.099 2.45-2.45 2.45-2.45-1.099-2.45-2.45z"
       id="path6" /><path
       d="m19.35 13.35c-2.454 0-4.45 1.996-4.45 4.45s1.997 4.45 4.45 4.45 4.45-1.996 4.45-4.45-1.996-4.45-4.45-4.45zm0 6.9c-1.351 0-2.45-1.1-2.45-2.45s1.099-2.45 2.45-2.45 2.45 1.1 2.45 2.45-1.099 2.45-2.45 2.45z"
       id="path7" /><path
       d="m63 41h-11.517c2.925-4.054 4.517-8.951 4.517-14 0-13.233-10.767-24-24-24s-24 10.767-24 24c0 5.049 1.592 9.946 4.517 14h-11.517c-.552 0-1 .447-1 1s.448 1 1 1h62c.552 0 1-.447 1-1s-.448-1-1-1zm-53-14c0-12.131 9.869-22 22-22s22 9.869 22 22c0 5.128-1.803 10.076-5.063 14h-33.874c-3.26-3.924-5.063-8.872-5.063-14z"
       id="path8" /><path
       d="m61 46c0-.553-.448-1-1-1h-39c-.552 0-1 .447-1 1s.448 1 1 1h39c.552 0 1-.447 1-1z"
       id="path10" /><path
       d="m58 50c0-.553-.448-1-1-1h-10c-.552 0-1 .447-1 1s.448 1 1 1h10c.552 0 1-.447 1-1z"
       id="path12" /></g><g
     style="fill:none"
     id="g16"
     transform="rotate(-90,76.029792,49.002178)"><path
       d="m 80.351977,-16.607219 -9.0799,-9.0799 c -0.78,-0.78 -2.05,-0.78 -2.83,0 -0.78,0.78 -0.78,2.05 0,2.83 l 7.6799,7.6799 -7.6799,7.6799997 c -0.78,0.78 -0.78,2.0499 0,2.8299 0.39,0.39 0.9,0.59 1.41,0.59 0.51,0 1.02,-0.2 1.41,-0.59 l 9.0799,-9.0798997 c 0.39,-0.39 0.59,-0.91 0.59,-1.42 0,-0.53 -0.19,-1.05 -0.58,-1.44 z"
       fill="#000000"
       id="path2" /></g></svg>
