<?xml version="1.0" encoding="UTF-8" standalone="no"?>
<!-- Uploaded to: SVG Repo, www.svgrepo.com, Generator: SVG Repo Mixer Tools -->

<svg
   width="64"
   height="64"
   viewBox="0 0 5.12 5.12"
   version="1.1"
   id="svg25"
   sodipodi:docname="moonphase.svg"
   inkscape:version="1.3 (0e150ed6c4, 2023-07-21)"
   xmlns:inkscape="http://www.inkscape.org/namespaces/inkscape"
   xmlns:sodipodi="http://sodipodi.sourceforge.net/DTD/sodipodi-0.dtd"
   xmlns="http://www.w3.org/2000/svg"
   xmlns:svg="http://www.w3.org/2000/svg">
  <defs
     id="defs25" />
  <sodipodi:namedview
     id="namedview25"
     pagecolor="#ffffff"
     bordercolor="#000000"
     borderopacity="0.25"
     inkscape:showpageshadow="2"
     inkscape:pageopacity="0.0"
     inkscape:pagecheckerboard="true"
     inkscape:deskcolor="#d1d1d1"
     inkscape:zoom="6.8526926"
     inkscape:cx="35.168658"
     inkscape:cy="59.465676"
     inkscape:window-width="1920"
     inkscape:window-height="1046"
     inkscape:window-x="-11"
     inkscape:window-y="-11"
     inkscape:window-maximized="1"
     inkscape:current-layer="svg25" />
  <path
     d="m 2.7736761,0.09699803 c 0.4939683,-0.03359 0.8397461,0 1.5560006,0.6915556 0.716254,0.69155567 0.784421,1.18552397 0.803192,1.80298437 A 2.2347126,2.2347126 0 0 1 4.5025647,4.2186695 C 4.1014627,4.6138445 3.3733536,5.1206555 2.4377776,5.0277895 1.5022016,4.9349235 1.0941838,4.7047345 0.63578124,4.1475385 0.17737864,3.5903415 0.02424844,2.7644269 0.01436914,2.4235887 0.00448974,2.0827506 0.18133044,1.5285182 0.61404664,1.0286222 1.0467628,0.52872633 1.4043959,0.19579173 2.7736761,0.09699803 Z"
     fill="#1d1d1b"
     id="path1"
     style="stroke-width:0.0987937" />
  <path
     d="m 2.4348138,0.31829583 c 0.4139454,-0.0405054 0.8189995,-0.0523606 1.1736687,0.1294197 0.3546692,0.1817803 0.8832152,0.79034927 0.9691662,0.89507057 a 0.76565088,0.76565088 0 0 1 0.126456,0.2163581 c 0,0 -0.172889,0.1185524 -0.107686,0.4198731 0.0652,0.3013206 0.178817,0.4258006 0.228214,0.466306 a 0.42580068,0.42580068 0 0 0 0.108673,0.06224 c 0,0 0.03063,0.6352432 -0.136335,0.9750932 -0.166962,0.33985 -0.640183,0.941504 -1.0649961,1.102538 C 3.3071618,4.7462275 2.5583059,5.0850895 1.7857394,4.7264695 1.013173,4.3678485 0.78397174,4.0289855 0.50142184,3.4559825 0.21887204,2.8829793 0.19417354,2.3060243 0.33248474,1.890103 0.47079584,1.4741816 0.91635524,0.92686483 1.27794,0.67988063 1.6395248,0.43289643 2.12065,0.34892183 2.4348138,0.31829583 Z"
     fill="#e6e4da"
     id="path2"
     style="stroke-width:0.0987937" />
  <path
     d="m 4.7495497,1.6776966 c 0.01778,0 0.07706,0.1758527 0.123492,0.3615848 a 0.65401404,0.65401404 0 0 1 0.0247,0.2776102 0.56411181,0.56411181 0 0 1 -0.188696,-0.281562 c -0.04446,-0.1738768 0.0168,-0.357633 0.04051,-0.357633 z"
     fill="#ffffff"
     id="path3"
     style="stroke-width:0.0987937" />
  <g
     fill="#1d1d1b"
     id="g7"
     transform="matrix(0.09879366,0,0,0.09879366,-0.58530836,-0.59455757)">
    <path
       d="M 46.42,15.65 A 10.62,10.62 0 0 1 49.2,18 c -0.06,0.22 0.09,0.81 -0.22,0.59 -0.31,-0.22 -2.75,-2.09 -2.81,-2.25 a 0.78,0.78 0 0 1 0.25,-0.69 z"
       id="path4" />
    <path
       d="m 46.32,18.86 a 25.44,25.44 0 0 1 3.47,3.14 0.88,0.88 0 0 1 -0.18,0.59 c 0,0 -3.41,-2.93 -3.5,-3.06 -0.09,-0.13 0.21,-0.67 0.21,-0.67 z"
       id="path5" />
    <path
       d="M 45.82,21.24 A 24.12,24.12 0 0 1 49.17,24 c 0,0.28 -0.1,0.66 -0.19,0.69 -0.09,0.03 -3.72,-2.28 -3.66,-2.56 0.06,-0.28 0.32,-0.98 0.5,-0.89 z"
       id="path6" />
    <path
       d="m 38.29,18 a 2.47,2.47 0 0 1 3.47,2.31 3.26,3.26 0 0 1 -4.31,3 C 35.89,22.46 35.67,19 38.29,18 Z"
       id="path7" />
  </g>
  <path
     d="m 3.2202234,1.2607873 a 0.16893716,0.16893716 0 0 1 0.2371048,0.1580699 0.22327368,0.22327368 0 0 1 -0.296381,0.202527 C 3.0562259,1.5680356 3.0404189,1.3309308 3.2202234,1.2607873 Z"
     fill="#ffffff"
     id="path8"
     style="stroke-width:0.0987937" />
  <path
     d="m 0.91635524,1.4603505 c 0.011855,0 0.11756446,0.052361 0.10768506,0.06224 a 0.86740835,0.86740835 0 0 0 -0.20351486,0.342814 c -0.049397,0.1847442 -0.027662,0.2558756 -0.058288,0.2588394 -0.030626,0.00296 -0.098794,0 -0.1057092,-0.018771 a 1.1094528,1.1094528 0 0 1 0.0810105,-0.3289826 c 0.0523606,-0.1185524 0.1452267,-0.3032966 0.1788165,-0.3161398 z"
     fill="#1d1d1b"
     id="path9"
     style="stroke-width:0.0987937" />
  <path
     d="M 1.8420518,1.4514591 C 2.0969395,1.3872432 2.5158246,1.5225905 2.5770767,2.013595 2.6383287,2.5045995 2.0712531,2.7545475 1.6731147,2.5075634 1.2749762,2.2605792 1.0941838,1.6391671 1.8420518,1.4514591 Z"
     fill="#1d1d1b"
     id="path10"
     style="stroke-width:0.0987937" />
  <path
     d="M 1.8786055,1.6352153 A 0.41098163,0.41098163 0 0 1 2.3725738,2.0155709 C 2.4140671,2.3485056 2.0297598,2.5174427 1.7600531,2.3524573 1.4903464,2.1874719 1.3727819,1.7626591 1.8786055,1.6352153 Z"
     fill="#ffffff"
     id="path11"
     style="stroke-width:0.0987937" />
  <path
     d="m 0.88276544,2.7011989 c 0.054336,-0.02371 0.20647866,0 0.21240626,0.2045029 0.00593,0.2045029 -0.12941966,0.3181157 -0.27761006,0.2805737 -0.1481905,-0.037541 -0.2252496,-0.3576327 0.0652038,-0.4850766 z"
     fill="#1d1d1b"
     id="path12"
     style="stroke-width:0.0987937" />
  <path
     d="m 0.89659654,2.8128358 c 0.06224,-0.019759 0.13337136,0.052361 0.12349206,0.1422628 -0.00988,0.089902 -0.088914,0.1906718 -0.18474416,0.1541182 a 0.16300954,0.16300954 0 0 1 0.0612521,-0.296381 z"
     fill="#ffffff"
     id="path13"
     style="stroke-width:0.0987937" />
  <path
     d="m 2.3785014,3.3473095 c 0.1363353,-0.07311 0.2746464,-0.02865 0.3092242,0.11954 a 0.24698416,0.24698416 0 0 1 -0.2380928,0.32108 0.2292013,0.2292013 0 0 1 -0.071131,-0.44062 z"
     fill="#1d1d1b"
     id="path14"
     style="stroke-width:0.0987937" />
  <path
     d="m 2.4259224,3.4362235 a 0.11954033,0.11954033 0 0 1 0.1916597,0.104722 0.15510605,0.15510605 0 0 1 -0.2133943,0.152142 c -0.1017575,-0.0494 -0.1076851,-0.179805 0.021735,-0.256864 z"
     fill="#ffffff"
     id="path15"
     style="stroke-width:0.0987937" />
  <path
     d="m 1.465648,3.6061485 c 0.012843,0.01284 0,0.06817 0.074095,0.12942 0.074095,0.06125 0.1116369,0.06224 0.1047213,0.08398 -0.00692,0.02173 -0.011855,0.04643 -0.03359,0.04643 a 0.40110227,0.40110227 0 0 1 -0.1481905,-0.09287 c -0.049397,-0.04643 -0.098794,-0.148191 -0.074095,-0.15807 a 0.30230861,0.30230861 0 0 1 0.077059,-0.0089 z"
     fill="#1d1d1b"
     id="path16"
     style="stroke-width:0.0987937" />
  <path
     d="m 1.2562054,3.6308475 a 0.63030356,0.63030356 0 0 0 0.1343594,0.21043 c 0.098794,0.09879 0.1610337,0.119541 0.1511543,0.141275 -0.00988,0.02173 -0.036554,0.05236 -0.058288,0.04347 A 1.4275684,1.4275684 0 0 1 1.2739883,3.8284345 c -0.059276,-0.06817 -0.1205283,-0.166961 -0.1057092,-0.18178 0.014819,-0.01482 0.087926,-0.01581 0.087926,-0.01581 z"
     fill="#1d1d1b"
     id="path17"
     style="stroke-width:0.0987937" />
  <path
     d="m 1.0675095,3.6585095 a 1.9561145,1.9561145 0 0 0 0.1857321,0.284526 c 0.1076851,0.120528 0.1630095,0.132383 0.1570819,0.151154 a 0.04643302,0.04643302 0 0 1 -0.046433,0.03655 c -0.030626,0 -0.1639975,-0.120529 -0.2588394,-0.231177 -0.094842,-0.110649 -0.14522666,-0.19166 -0.12744376,-0.206479 a 0.37442798,0.37442798 0 0 1 0.089902,-0.03458 z"
     fill="#1d1d1b"
     id="path18"
     style="stroke-width:0.0987937" />
  <path
     d="m 3.2785117,4.0912255 c 0.1422628,-0.0089 0.2064787,0.05532 0.1689371,0.219322 -0.037542,0.163998 -0.1728889,0.148191 -0.2588394,0.09879 -0.08595,-0.0494 -0.1699251,-0.303297 0.089902,-0.318116 z"
     fill="#1d1d1b"
     id="path19"
     style="stroke-width:0.0987937" />
  <path
     d="m 3.2844393,4.1712485 a 0.09879366,0.09879366 0 0 1 0.081999,0.142263 0.08595049,0.08595049 0 0 1 -0.1511543,0 0.09879366,0.09879366 0 0 1 0.069155,-0.142263 z"
     fill="#ffffff"
     id="path20"
     style="stroke-width:0.0987937" />
  <path
     d="m 3.8426235,2.9145932 c 0.2479722,-0.058288 0.3675122,0.018771 0.4356802,0.2805743 0.06817,0.261803 -0.175853,0.448523 -0.3675126,0.48804 -0.1916597,0.03952 -0.2835378,0.0247 -0.389247,-0.216358 C 3.4158349,3.2257935 3.5007974,2.9946161 3.8426235,2.9145932 Z"
     fill="#1d1d1b"
     id="path21"
     style="stroke-width:0.0987937" />
  <path
     d="m 3.8149613,3.0074593 c 0.081999,-0.025686 0.2598274,-0.083975 0.3309584,0.1106489 0.07113,0.1946233 0.06125,0.3151513 -0.09879,0.4139453 C 3.8870806,3.6308475 3.8179251,3.6535695 3.662819,3.5162465 3.507713,3.3789235 3.4820266,3.1121806 3.8149613,3.0074593 Z"
     fill="#ffffff"
     id="path22"
     style="stroke-width:0.0987937" />
  <path
     d="m 4.6270447,2.5668395 a 1.0482008,1.0482008 0 0 1 0.213395,0.2469842 c 0,0.024698 -0.01581,0.061252 -0.02766,0.055324 a 1.6666491,1.6666491 0 0 1 -0.238093,-0.234141 c 0.003,-0.022723 0.03063,-0.068168 0.05236,-0.068168 z"
     fill="#1d1d1b"
     id="path23"
     style="stroke-width:0.0987937" />
  <path
     d="m 4.4847827,2.7140421 c 0,0.019759 0.296381,0.3181156 0.296381,0.3457778 0,0.027662 -0.0089,0.065204 -0.02075,0.058288 a 3.6830277,3.6830277 0 0 1 -0.327995,-0.342814 c 0.0069,-0.010867 0.05236,-0.070143 0.05236,-0.061252 z"
     fill="#1d1d1b"
     id="path24"
     style="stroke-width:0.0987937" />
  <path
     d="m 4.4699637,3.0015317 a 2.1527139,2.1527139 0 0 1 0.268718,0.2963808 c 0,0.02173 -0.01581,0.07409 -0.03161,0.06718 -0.01581,-0.0069 -0.296381,-0.2865018 -0.296381,-0.2963811 0,-0.00988 0.04248,-0.071131 0.05928,-0.06718 z"
     fill="#1d1d1b"
     id="path25"
     style="stroke-width:0.0987937" />
</svg>
