<svg xmlns="http://www.w3.org/2000/svg"  viewBox="0 0 100 100" width="100px" height="100px"><path fill="#c7ede6" d="M87.215,56.71C88.35,54.555,89,52.105,89,49.5c0-6.621-4.159-12.257-10.001-14.478 C78.999,35.015,79,35.008,79,35c0-11.598-9.402-21-21-21c-9.784,0-17.981,6.701-20.313,15.757C36.211,29.272,34.638,29,33,29 c-7.692,0-14.023,5.793-14.89,13.252C12.906,43.353,9,47.969,9,53.5C9,59.851,14.149,65,20.5,65c0.177,0,0.352-0.012,0.526-0.022 C21.022,65.153,21,65.324,21,65.5C21,76.822,30.178,86,41.5,86c6.437,0,12.175-2.972,15.934-7.614C59.612,80.611,62.64,82,66,82 c4.65,0,8.674-2.65,10.666-6.518C77.718,75.817,78.837,76,80,76c6.075,0,11-4.925,11-11C91,61.689,89.53,58.727,87.215,56.71z"/><path fill="#fdfcef" d="M39.875,33.5c0,0,3.64,0,6.125,0s4.5-2.015,4.5-4.5c0-2.333-1.782-4.229-4.055-4.455 C46.467,24.364,46.5,24.187,46.5,24c0-2.485-2.015-4.5-4.5-4.5c-1.438,0-2.703,0.686-3.527,1.736 C38.333,18.6,36.171,16.5,33.5,16.5c-2.761,0-5,2.239-5,5c0,0.446,0.077,0.87,0.187,1.282C28.045,22.005,27.086,21.5,26,21.5 c-1.781,0-3.234,1.335-3.455,3.055C22.364,24.533,22.187,24.5,22,24.5c-2.485,0-4.5,2.015-4.5,4.5s2.015,4.5,4.5,4.5s9.5,0,9.5,0 h5.375V34h3V33.5z"/><path fill="#472b29" d="M33.5,16c-3.033,0-5.5,2.467-5.5,5.5c0,0.016,0,0.031,0,0.047C27.398,21.192,26.71,21,26,21 c-1.831,0-3.411,1.261-3.858,3.005C22.095,24.002,22.048,24,22,24c-2.757,0-5,2.243-5,5s2.243,5,5,5h14.875 c0.276,0,0.5-0.224,0.5-0.5s-0.224-0.5-0.5-0.5H22c-2.206,0-4-1.794-4-4s1.794-4,4-4c0.117,0,0.23,0.017,0.343,0.032l0.141,0.019 c0.021,0.003,0.041,0.004,0.062,0.004c0.246,0,0.462-0.185,0.495-0.437C23.232,23.125,24.504,22,26,22 c0.885,0,1.723,0.401,2.301,1.1c0.098,0.118,0.241,0.182,0.386,0.182c0.078,0,0.156-0.018,0.228-0.056 c0.209-0.107,0.314-0.346,0.254-0.573C29.054,22.218,29,21.852,29,21.5c0-2.481,2.019-4.5,4.5-4.5 c2.381,0,4.347,1.872,4.474,4.263c0.011,0.208,0.15,0.387,0.349,0.45c0.05,0.016,0.101,0.024,0.152,0.024 c0.15,0,0.296-0.069,0.392-0.192C39.638,20.563,40.779,20,42,20c2.206,0,4,1.794,4,4c0,0.117-0.017,0.23-0.032,0.343l-0.019,0.141 c-0.016,0.134,0.022,0.268,0.106,0.373c0.084,0.105,0.207,0.172,0.34,0.185C48.451,25.247,50,26.949,50,29c0,2.206-1.794,4-4,4 h-6.125c-0.276,0-0.5,0.224-0.5,0.5s0.224,0.5,0.5,0.5H46c2.757,0,5-2.243,5-5c0-2.397-1.689-4.413-4.003-4.877 C46.999,24.082,47,24.041,47,24c0-2.757-2.243-5-5-5c-1.176,0-2.293,0.416-3.183,1.164C38.219,17.76,36.055,16,33.5,16L33.5,16z"/><path fill="#472b29" d="M32,23c-1.403,0-2.609,0.999-2.913,2.341C28.72,25.119,28.301,25,27.875,25 c-1.202,0-2.198,0.897-2.353,2.068C25.319,27.022,25.126,27,24.937,27c-1.529,0-2.811,1.2-2.918,2.732 C22.01,29.87,22.114,29.99,22.251,30c0.006,0,0.012,0,0.018,0c0.13,0,0.24-0.101,0.249-0.232c0.089-1.271,1.151-2.268,2.419-2.268 c0.229,0,0.47,0.042,0.738,0.127c0.022,0.007,0.045,0.01,0.067,0.01c0.055,0,0.11-0.02,0.156-0.054 C25.962,27.537,26,27.455,26,27.375c0-1.034,0.841-1.875,1.875-1.875c0.447,0,0.885,0.168,1.231,0.473 c0.047,0.041,0.106,0.063,0.165,0.063c0.032,0,0.063-0.006,0.093-0.019c0.088-0.035,0.148-0.117,0.155-0.212 C29.623,24.512,30.712,23.5,32,23.5c0.208,0,0.425,0.034,0.682,0.107c0.023,0.007,0.047,0.01,0.07,0.01 c0.109,0,0.207-0.073,0.239-0.182c0.038-0.133-0.039-0.271-0.172-0.309C32.517,23.04,32.256,23,32,23L32,23z"/><path fill="#fff" d="M28.405,77H18.5c-0.276,0-0.5-0.224-0.5-0.5s0.224-0.5,0.5-0.5h9.905c0.276,0,0.5,0.224,0.5,0.5 S28.682,77,28.405,77z"/><path fill="#fff" d="M31.5,77h-1c-0.276,0-0.5-0.224-0.5-0.5s0.224-0.5,0.5-0.5h1c0.276,0,0.5,0.224,0.5,0.5 S31.777,77,31.5,77z"/><path fill="#fff" d="M36.491,79H27.5c-0.276,0-0.5-0.224-0.5-0.5s0.224-0.5,0.5-0.5h8.991c0.276,0,0.5,0.224,0.5,0.5 S36.767,79,36.491,79z"/><path fill="#fff" d="M25.5,79h-1c-0.276,0-0.5-0.224-0.5-0.5s0.224-0.5,0.5-0.5h1c0.276,0,0.5,0.224,0.5,0.5 S25.777,79,25.5,79z"/><path fill="#fff" d="M22.5,79h-2c-0.276,0-0.5-0.224-0.5-0.5s0.224-0.5,0.5-0.5h2c0.276,0,0.5,0.224,0.5,0.5 S22.777,79,22.5,79z"/><path fill="#fff" d="M28.5,81h-2c-0.276,0-0.5-0.224-0.5-0.5s0.224-0.5,0.5-0.5h2c0.276,0,0.5,0.224,0.5,0.5 S28.776,81,28.5,81z"/><path fill="#fff" d="M31.5,72c-0.177,0-0.823,0-1,0c-0.276,0-0.5,0.224-0.5,0.5c0,0.276,0.224,0.5,0.5,0.5 c0.177,0,0.823,0,1,0c0.276,0,0.5-0.224,0.5-0.5C32,72.224,31.776,72,31.5,72z"/><path fill="#fff" d="M31.5,74c-0.177,0-4.823,0-5,0c-0.276,0-0.5,0.224-0.5,0.5c0,0.276,0.224,0.5,0.5,0.5 c0.177,0,4.823,0,5,0c0.276,0,0.5-0.224,0.5-0.5C32,74.224,31.776,74,31.5,74z"/><path fill="#fff" d="M36.5,76c-0.177,0-2.823,0-3,0c-0.276,0-0.5,0.224-0.5,0.5c0,0.276,0.224,0.5,0.5,0.5 c0.177,0,2.823,0,3,0c0.276,0,0.5-0.224,0.5-0.5C37,76.224,36.776,76,36.5,76z"/><g><path fill="#fff" d="M71.5,21h-10c-0.276,0-0.5-0.224-0.5-0.5s0.224-0.5,0.5-0.5h10c0.276,0,0.5,0.224,0.5,0.5 S71.776,21,71.5,21z"/><path fill="#fff" d="M75.5,21h-2c-0.276,0-0.5-0.224-0.5-0.5s0.224-0.5,0.5-0.5h2c0.276,0,0.5,0.224,0.5,0.5 S75.776,21,75.5,21z"/><path fill="#fff" d="M80.5,23h-10c-0.276,0-0.5-0.224-0.5-0.5s0.224-0.5,0.5-0.5h10c0.276,0,0.5,0.224,0.5,0.5 S80.777,23,80.5,23z"/><path fill="#fff" d="M68.5,23h-1c-0.276,0-0.5-0.224-0.5-0.5s0.224-0.5,0.5-0.5h1c0.276,0,0.5,0.224,0.5,0.5 S68.776,23,68.5,23z"/><path fill="#fff" d="M65.375,23H63.5c-0.276,0-0.5-0.224-0.5-0.5s0.224-0.5,0.5-0.5h1.875c0.276,0,0.5,0.224,0.5,0.5 S65.651,23,65.375,23z"/><path fill="#fff" d="M74.5,19h-5c-0.276,0-0.5-0.224-0.5-0.5s0.224-0.5,0.5-0.5h5c0.276,0,0.5,0.224,0.5,0.5 S74.777,19,74.5,19z"/><path fill="#fff" d="M71.5,25h-2c-0.276,0-0.5-0.224-0.5-0.5s0.224-0.5,0.5-0.5h2c0.276,0,0.5,0.224,0.5,0.5 S71.776,25,71.5,25z"/></g><g><path fill="#fdfcef" d="M83.5,77.5c0,0,1.567,0,3.5,0s3.5-1.567,3.5-3.5c0-1.781-1.335-3.234-3.055-3.455 C87.473,70.366,87.5,70.187,87.5,70c0-1.933-1.567-3.5-3.5-3.5c-1.032,0-1.95,0.455-2.59,1.165 c-0.384-1.808-1.987-3.165-3.91-3.165c-2.209,0-4,1.791-4,4c0,0.191,0.03,0.374,0.056,0.558C73.128,68.714,72.592,68.5,72,68.5 c-1.228,0-2.245,0.887-2.455,2.055C69.366,70.527,69.187,70.5,69,70.5c-1.933,0-3.5,1.567-3.5,3.5s1.567,3.5,3.5,3.5s7.5,0,7.5,0 V78h7V77.5z"/><path fill="#472b29" d="M85.25,73C85.112,73,85,72.888,85,72.75c0-1.223,0.995-2.218,2.218-2.218 c0.034,0.009,0.737-0.001,1.244,0.136c0.133,0.036,0.212,0.173,0.176,0.306c-0.036,0.134-0.173,0.213-0.306,0.176 c-0.444-0.12-1.1-0.12-1.113-0.118c-0.948,0-1.719,0.771-1.719,1.718C85.5,72.888,85.388,73,85.25,73z"/><circle cx="78.5" cy="77.5" r=".5" fill="#472b29"/><path fill="#472b29" d="M87,78h-3.5c-0.276,0-0.5-0.224-0.5-0.5s0.224-0.5,0.5-0.5H87c1.654,0,3-1.346,3-3 c0-1.496-1.125-2.768-2.618-2.959c-0.134-0.018-0.255-0.088-0.336-0.196s-0.115-0.244-0.094-0.377C86.975,70.314,87,70.16,87,70 c0-1.654-1.346-3-3-3c-0.85,0-1.638,0.355-2.219,1c-0.125,0.139-0.321,0.198-0.5,0.148c-0.182-0.049-0.321-0.195-0.36-0.379 C80.58,66.165,79.141,65,77.5,65c-1.93,0-3.5,1.57-3.5,3.5c0,0.143,0.021,0.28,0.041,0.418c0.029,0.203-0.063,0.438-0.242,0.54 c-0.179,0.102-0.396,0.118-0.556-0.01C72.878,69.155,72.449,69,72,69c-0.966,0-1.792,0.691-1.963,1.644 c-0.048,0.267-0.296,0.446-0.569,0.405C69.314,71.025,69.16,71,69,71c-1.654,0-3,1.346-3,3s1.346,3,3,3h7.5 c0.276,0,0.5,0.224,0.5,0.5S76.776,78,76.5,78H69c-2.206,0-4-1.794-4-4s1.794-4,4-4c0.059,0,0.116,0.002,0.174,0.006 C69.588,68.82,70.711,68,72,68c0.349,0,0.689,0.061,1.011,0.18C73.176,65.847,75.126,64,77.5,64c1.831,0,3.466,1.127,4.153,2.774 C82.333,66.276,83.155,66,84,66c2.206,0,4,1.794,4,4c0,0.048-0.001,0.095-0.004,0.142C89.739,70.59,91,72.169,91,74 C91,76.206,89.206,78,87,78z"/><path fill="#472b29" d="M81.5,77c-0.159,0-0.841,0-1,0c-0.276,0-0.5,0.224-0.5,0.5c0,0.276,0.224,0.5,0.5,0.5 c0.159,0,0.841,0,1,0c0.276,0,0.5-0.224,0.5-0.5C82,77.224,81.776,77,81.5,77z"/></g><g><path fill="#8889b9" d="M33.277,51.3c-3.075,0-5.577-2.724-5.577-6.073c0-2.676,1.646-5.073,4.001-5.827 c0.278-0.089,0.938-0.179,1.659-0.179c0.432,0,0.84,0.033,1.18,0.094l0.801,0.145l0.023-0.813 C35.545,32.508,40.118,27.7,45.775,27.7c3.974,0,7.549,2.407,9.329,6.281l0.473,1.031l0.709-0.885 c1.415-1.766,3.455-2.779,5.598-2.779c3.831,0,7.079,3.25,7.394,7.398l0.065,0.859l0.828-0.24 c0.483-0.14,0.966-0.211,1.435-0.211c1.48,0,2.874,0.625,3.926,1.76c1.064,1.149,1.651,2.681,1.65,4.313 c0,3.349-2.502,6.073-5.577,6.073H33.277z"/><path fill="#472b29" d="M45.775,28.4c3.697,0,7.028,2.25,8.693,5.873l0.947,2.061l1.418-1.77 c1.281-1.599,3.123-2.517,5.051-2.517c3.467,0,6.408,2.966,6.695,6.751l0.13,1.72l1.656-0.481c0.42-0.122,0.837-0.184,1.24-0.184 c1.283,0,2.494,0.545,3.412,1.536c0.945,1.02,1.465,2.382,1.465,3.838c0,2.963-2.188,5.373-4.877,5.373H33.277 c-2.689,0-4.877-2.41-4.877-5.373c0-2.376,1.445-4.498,3.515-5.161c0.149-0.048,0.698-0.146,1.445-0.146 c0.391,0,0.756,0.029,1.055,0.083l1.602,0.291l0.048-1.627C36.233,32.91,40.499,28.4,45.775,28.4 M45.775,27 c-6.026,0-10.921,5.172-11.11,11.625c-0.413-0.075-0.867-0.105-1.305-0.105c-0.779,0-1.509,0.097-1.872,0.213 C28.893,39.564,27,42.157,27,45.227C27,48.968,29.81,52,33.277,52c0.404,0,37.925,0,38.328,0c3.467,0,6.277-3.032,6.277-6.773 c0.001-3.741-2.809-6.773-6.276-6.773c-0.565,0-1.109,0.088-1.63,0.239c-0.342-4.503-3.83-8.045-8.091-8.045 c-2.457,0-4.654,1.182-6.144,3.041C53.921,29.729,50.149,27,45.775,27L45.775,27z"/><path fill="#472b29" d="M38.5,66c-0.276,0-0.5-0.224-0.5-0.5v-9c0-0.276,0.224-0.5,0.5-0.5s0.5,0.224,0.5,0.5v9 C39,65.776,38.776,66,38.5,66z"/><path fill="#472b29" d="M39.5,58h-2c-0.276,0-0.5-0.224-0.5-0.5s0.224-0.5,0.5-0.5h2c0.276,0,0.5,0.224,0.5,0.5 S39.776,58,39.5,58z"/><path fill="#472b29" d="M39.5,65h-2c-0.276,0-0.5-0.224-0.5-0.5s0.224-0.5,0.5-0.5h2c0.276,0,0.5,0.224,0.5,0.5 S39.776,65,39.5,65z"/><path fill="#472b29" d="M42.356,63.818c-0.088,0-0.177-0.023-0.258-0.072l-7.713-4.637 c-0.236-0.142-0.313-0.449-0.171-0.686c0.144-0.237,0.45-0.313,0.687-0.171l7.713,4.637c0.236,0.142,0.313,0.449,0.171,0.686 C42.691,63.732,42.525,63.818,42.356,63.818z"/><path fill="#472b29" d="M34.985,60.554c-0.088,0-0.177-0.023-0.258-0.072c-0.236-0.142-0.313-0.449-0.171-0.686 l1.03-1.714c0.143-0.237,0.45-0.313,0.687-0.171c0.236,0.142,0.313,0.449,0.171,0.686l-1.03,1.714 C35.32,60.468,35.154,60.554,34.985,60.554z"/><path fill="#472b29" d="M40.984,64.16c-0.088,0-0.177-0.023-0.258-0.072c-0.236-0.142-0.313-0.449-0.171-0.686 l1.03-1.714c0.143-0.237,0.45-0.312,0.687-0.171c0.236,0.142,0.313,0.449,0.171,0.686l-1.03,1.714 C41.319,64.074,41.153,64.16,40.984,64.16z"/><g><path fill="#472b29" d="M34.644,63.818c-0.169,0-0.335-0.086-0.429-0.242c-0.143-0.237-0.065-0.544,0.171-0.686 l7.713-4.637c0.237-0.142,0.544-0.066,0.687,0.171c0.143,0.237,0.065,0.544-0.171,0.686l-7.713,4.637 C34.82,63.795,34.731,63.818,34.644,63.818z"/><path fill="#472b29" d="M42.015,60.554c-0.169,0-0.335-0.086-0.429-0.242l-1.03-1.714 c-0.143-0.237-0.065-0.544,0.171-0.686c0.237-0.142,0.544-0.066,0.687,0.171l1.03,1.714c0.143,0.237,0.065,0.544-0.171,0.686 C42.191,60.531,42.103,60.554,42.015,60.554z"/><path fill="#472b29" d="M36.016,64.16c-0.169,0-0.335-0.086-0.429-0.242l-1.03-1.714 c-0.143-0.237-0.065-0.544,0.171-0.686c0.237-0.141,0.544-0.066,0.687,0.171l1.03,1.714c0.143,0.237,0.065,0.544-0.171,0.686 C36.192,64.137,36.104,64.16,36.016,64.16z"/></g><g><path fill="#472b29" d="M66.5,66c-0.276,0-0.5-0.224-0.5-0.5v-9c0-0.276,0.224-0.5,0.5-0.5s0.5,0.224,0.5,0.5v9 C67,65.776,66.776,66,66.5,66z"/><path fill="#472b29" d="M67.5,58h-2c-0.276,0-0.5-0.224-0.5-0.5s0.224-0.5,0.5-0.5h2c0.276,0,0.5,0.224,0.5,0.5 S67.776,58,67.5,58z"/><path fill="#472b29" d="M67.5,65h-2c-0.276,0-0.5-0.224-0.5-0.5s0.224-0.5,0.5-0.5h2c0.276,0,0.5,0.224,0.5,0.5 S67.776,65,67.5,65z"/><path fill="#472b29" d="M70.356,63.818c-0.088,0-0.177-0.023-0.258-0.072l-7.713-4.637 c-0.236-0.142-0.313-0.449-0.171-0.686c0.144-0.237,0.45-0.313,0.687-0.171l7.713,4.637c0.236,0.142,0.313,0.449,0.171,0.686 C70.691,63.732,70.525,63.818,70.356,63.818z"/><path fill="#472b29" d="M62.985,60.554c-0.088,0-0.177-0.023-0.258-0.072c-0.236-0.142-0.313-0.449-0.171-0.686 l1.03-1.714c0.144-0.237,0.45-0.313,0.687-0.171c0.236,0.142,0.313,0.449,0.171,0.686l-1.03,1.714 C63.32,60.468,63.154,60.554,62.985,60.554z"/><path fill="#472b29" d="M68.984,64.16c-0.088,0-0.177-0.023-0.258-0.072c-0.236-0.142-0.313-0.449-0.171-0.686 l1.03-1.714c0.144-0.237,0.45-0.312,0.687-0.171c0.236,0.142,0.313,0.449,0.171,0.686l-1.03,1.714 C69.319,64.074,69.153,64.16,68.984,64.16z"/><g><path fill="#472b29" d="M62.644,63.818c-0.169,0-0.335-0.086-0.429-0.242c-0.143-0.237-0.065-0.544,0.171-0.686 l7.713-4.637c0.237-0.142,0.544-0.066,0.687,0.171c0.143,0.237,0.065,0.544-0.171,0.686l-7.713,4.637 C62.82,63.795,62.731,63.818,62.644,63.818z"/><path fill="#472b29" d="M70.015,60.554c-0.169,0-0.335-0.086-0.429-0.242l-1.03-1.714 c-0.143-0.237-0.065-0.544,0.171-0.686c0.238-0.142,0.544-0.066,0.687,0.171l1.03,1.714c0.143,0.237,0.065,0.544-0.171,0.686 C70.191,60.531,70.103,60.554,70.015,60.554z"/><path fill="#472b29" d="M64.016,64.16c-0.169,0-0.335-0.086-0.429-0.242l-1.03-1.714 c-0.143-0.237-0.065-0.544,0.171-0.686c0.237-0.141,0.545-0.066,0.687,0.171l1.03,1.714c0.143,0.237,0.065,0.544-0.171,0.686 C64.192,64.137,64.104,64.16,64.016,64.16z"/></g></g><g><path fill="#472b29" d="M52.5,76c-0.276,0-0.5-0.224-0.5-0.5v-12c0-0.276,0.224-0.5,0.5-0.5s0.5,0.224,0.5,0.5v12 C53,75.776,52.776,76,52.5,76z"/><path fill="#472b29" d="M53.5,65h-2c-0.276,0-0.5-0.224-0.5-0.5s0.224-0.5,0.5-0.5h2c0.276,0,0.5,0.224,0.5,0.5 S53.776,65,53.5,65z"/><path fill="#472b29" d="M53.5,75h-2c-0.276,0-0.5-0.224-0.5-0.5s0.224-0.5,0.5-0.5h2c0.276,0,0.5,0.224,0.5,0.5 S53.776,75,53.5,75z"/><path fill="#472b29" d="M57.746,72.912c-0.083,0-0.166-0.02-0.242-0.063l-10.492-5.824 c-0.242-0.134-0.329-0.438-0.195-0.68c0.135-0.242,0.442-0.327,0.68-0.195l10.492,5.824c0.242,0.134,0.329,0.438,0.195,0.68 C58.092,72.819,57.922,72.912,57.746,72.912z"/><path fill="#472b29" d="M47.643,68.448c-0.083,0-0.166-0.02-0.243-0.063c-0.241-0.134-0.328-0.438-0.194-0.68 l0.971-1.749c0.136-0.242,0.44-0.327,0.681-0.195c0.241,0.134,0.328,0.438,0.194,0.68L48.08,68.19 C47.988,68.355,47.818,68.448,47.643,68.448z"/><path fill="#472b29" d="M56.387,73.301c-0.083,0-0.166-0.02-0.243-0.063c-0.241-0.134-0.328-0.438-0.194-0.68 l0.971-1.749c0.136-0.242,0.44-0.327,0.681-0.195c0.241,0.134,0.328,0.438,0.194,0.68l-0.971,1.749 C56.732,73.208,56.563,73.301,56.387,73.301z"/><g><path fill="#472b29" d="M47.254,72.912c-0.176,0-0.346-0.093-0.438-0.257c-0.134-0.241-0.047-0.546,0.195-0.68 l10.492-5.824c0.237-0.132,0.545-0.048,0.68,0.195c0.134,0.241,0.047,0.546-0.195,0.68l-10.492,5.824 C47.42,72.892,47.337,72.912,47.254,72.912z"/><path fill="#472b29" d="M57.357,68.448c-0.176,0-0.346-0.093-0.438-0.257l-0.971-1.749 c-0.134-0.241-0.047-0.546,0.194-0.68c0.241-0.132,0.545-0.048,0.681,0.195l0.971,1.749c0.134,0.241,0.047,0.546-0.194,0.68 C57.523,68.427,57.44,68.448,57.357,68.448z"/><path fill="#472b29" d="M48.613,73.301c-0.176,0-0.346-0.093-0.438-0.257l-0.971-1.749 c-0.134-0.241-0.047-0.546,0.194-0.68c0.24-0.132,0.545-0.048,0.681,0.195l0.971,1.749c0.134,0.241,0.047,0.546-0.194,0.68 C48.779,73.281,48.696,73.301,48.613,73.301z"/></g><g><path fill="#472b29" d="M52.5,73c-1.93,0-3.5-1.57-3.5-3.5s1.57-3.5,3.5-3.5s3.5,1.57,3.5,3.5S54.43,73,52.5,73z M52.5,67 c-1.379,0-2.5,1.122-2.5,2.5s1.121,2.5,2.5,2.5s2.5-1.122,2.5-2.5S53.879,67,52.5,67z"/></g></g><g><path fill="#472b29" d="M60,48.75H44.188c-0.138,0-0.25-0.112-0.25-0.25s0.112-0.25,0.25-0.25H60 c0.138,0,0.25,0.112,0.25,0.25S60.138,48.75,60,48.75z"/></g><g><path fill="#472b29" d="M40.688,48.75H36c-0.138,0-0.25-0.112-0.25-0.25s0.112-0.25,0.25-0.25h4.688 c0.138,0,0.25,0.112,0.25,0.25S40.825,48.75,40.688,48.75z"/></g></g></svg>