<svg xmlns="http://www.w3.org/2000/svg"  viewBox="0 0 100 100" width="100px" height="100px"><path fill="#c7ede6" d="M88.704,56.133c0.3-0.616,0.566-1.264,0.796-1.943c2.633-7.77-1.349-17.078-9.733-19.325C78.86,23.482,70.86,15.673,61.826,14.341c-10.341-1.525-19.814,5.044-22.966,15.485c-3.799-1.346-7.501-1.182-10.99,0.857c-1.583,0.732-3.031,1.812-4.33,3.233c-1.907,2.086-3.147,4.719-3.652,7.495c-0.748,0.118-1.483,0.236-2.176,0.484c-4.04,1.449-6.589,4.431-7.288,8.923c-0.435,2.797,0.443,5.587,0.933,6.714c1.935,4.455,6.422,6.98,10.981,6.312c0.227-0.033,0.557,0.069,0.752,0.233c0.241,7.12,3.698,13.417,8.884,17.014C40.295,86.863,51,85.085,57.754,77.17c2.894,2.96,6.338,4.398,10.384,3.876c4.023-0.519,7.147-2.739,9.426-6.349c1.053,0.283,2.051,0.691,3.083,0.804c4.042,0.442,7.324-1.165,9.732-4.8c0.922-1.391,1.793-3.194,1.793-6.354C92.174,61.09,90.88,58.123,88.704,56.133z"/><path fill="#fff" d="M18.369 48.169H8.338c-.276 0-.5-.224-.5-.5s.224-.5.5-.5h10.03c.276 0 .5.224.5.5S18.645 48.169 18.369 48.169zM21.249 48.169h-1.446c-.276 0-.5-.224-.5-.5s.224-.5.5-.5h1.446c.276 0 .5.224.5.5S21.526 48.169 21.249 48.169zM25.304 48.169h-2.546c-.276 0-.5-.224-.5-.5s.224-.5.5-.5h2.546c.276 0 .5.224.5.5S25.58 48.169 25.304 48.169zM25.304 50.034h-9.616c-.276 0-.5-.224-.5-.5s.224-.5.5-.5h9.616c.276 0 .5.224.5.5S25.58 50.034 25.304 50.034zM13.956 50.034h-.58c-.276 0-.5-.224-.5-.5s.224-.5.5-.5h.58c.276 0 .5.224.5.5S14.233 50.034 13.956 50.034zM11.579 50.034h-1.456c-.276 0-.5-.224-.5-.5s.224-.5.5-.5h1.456c.276 0 .5.224.5.5S11.856 50.034 11.579 50.034zM20.715 46.304h-5.027c-.276 0-.5-.224-.5-.5s.224-.5.5-.5h5.027c.276 0 .5.224.5.5S20.992 46.304 20.715 46.304zM20.715 44.44h-1.257c-.276 0-.5-.224-.5-.5s.224-.5.5-.5h1.257c.276 0 .5.224.5.5S20.992 44.44 20.715 44.44zM17.447 51.899h-1.759c-.276 0-.5-.224-.5-.5s.224-.5.5-.5h1.759c.276 0 .5.224.5.5S17.723 51.899 17.447 51.899z"/><path fill="#fdfcef" d="M68.365,46.906c0,0,11.233,0,11.301,0c2.594,0,4.697-2.103,4.697-4.697c0-2.263-1.601-4.152-3.732-4.597c0.025-0.198,0.041-0.399,0.041-0.603c0-2.687-2.178-4.865-4.865-4.865c-1.586,0-2.991,0.763-3.879,1.938c-0.227-2.991-2.898-5.298-6.024-4.916c-2.285,0.28-4.176,2.046-4.596,4.31c-0.135,0.726-0.121,1.431,0.014,2.092c-0.613-0.66-1.485-1.075-2.456-1.075c-1.778,0-3.229,1.384-3.344,3.133c-0.807-0.179-1.685-0.167-2.61,0.18c-1.768,0.664-3.027,2.328-3.1,4.215c-0.105,2.68,2.037,4.885,4.693,4.885c0.202,0,0.911,0,1.074,0h9.753"/><path fill="#472b29" d="M79.666,47.406H68.365c-0.276,0-0.5-0.224-0.5-0.5s0.224-0.5,0.5-0.5h11.301c2.314,0,4.197-1.883,4.197-4.197c0-1.977-1.402-3.704-3.334-4.108c-0.255-0.053-0.426-0.292-0.394-0.55c0.022-0.178,0.038-0.358,0.038-0.542c0-2.407-1.958-4.365-4.365-4.365c-1.376,0-2.645,0.634-3.48,1.739c-0.125,0.167-0.337,0.239-0.54,0.178c-0.199-0.059-0.342-0.234-0.357-0.441c-0.1-1.318-0.746-2.556-1.771-3.397c-1.036-0.849-2.344-1.223-3.694-1.061c-2.072,0.254-3.785,1.86-4.165,3.905c-0.119,0.639-0.115,1.278,0.012,1.9c0.045,0.22-0.062,0.442-0.261,0.545c-0.199,0.102-0.442,0.06-0.595-0.104c-0.548-0.59-1.291-0.916-2.09-0.916c-1.497,0-2.747,1.171-2.845,2.666c-0.01,0.146-0.083,0.28-0.199,0.367c-0.117,0.087-0.268,0.118-0.408,0.088c-0.805-0.179-1.566-0.125-2.327,0.16c-1.596,0.599-2.712,2.113-2.777,3.766c-0.045,1.154,0.37,2.248,1.168,3.078c0.799,0.831,1.874,1.288,3.025,1.288h10.828c0.276,0,0.5,0.224,0.5,0.5s-0.224,0.5-0.5,0.5H54.505c-1.427,0-2.757-0.566-3.746-1.595c-0.989-1.028-1.502-2.381-1.447-3.81c0.08-2.05,1.456-3.924,3.424-4.664c0.767-0.289,1.559-0.385,2.362-0.29c0.371-1.751,1.932-3.055,3.768-3.055c0.649,0,1.285,0.167,1.848,0.476c0.001-0.361,0.036-0.723,0.103-1.084c0.459-2.469,2.526-4.408,5.027-4.714c1.616-0.201,3.2,0.256,4.449,1.28c0.959,0.787,1.643,1.862,1.957,3.048c0.973-0.87,2.224-1.354,3.558-1.354c2.958,0,5.365,2.407,5.365,5.365c0,0.075-0.002,0.15-0.006,0.225c2.167,0.654,3.696,2.679,3.696,4.976C84.863,45.075,82.532,47.406,79.666,47.406z"/><path fill="#472b29" d="M55.339 43.2c-.006 0-.012 0-.017 0-.138-.009-.242-.128-.233-.266.103-1.53 1.536-2.696 3.188-2.578.128.009.256.025.385.049.268-.93 1.22-1.576 2.28-1.505.398.026.782.154 1.108.362.001-.013.001-.026.002-.039.117-1.729 1.732-3.033 3.606-2.913.138.009.242.128.233.266-.009.138-.131.243-.266.233-1.598-.108-2.976.993-3.074 2.447-.012.177-.004.354.022.528.017.109-.041.217-.141.264-.101.048-.22.022-.293-.061-.304-.343-.752-.557-1.23-.589-.893-.064-1.696.53-1.809 1.342-.01.071-.05.134-.11.174-.061.04-.133.052-.204.033-.181-.049-.363-.081-.543-.092-1.38-.084-2.573.857-2.657 2.112C55.579 43.099 55.469 43.2 55.339 43.2zM77.158 40.181c-.018 0-.037-.002-.055-.006-.135-.03-.219-.164-.188-.299.047-.208.118-.411.211-.604.755-1.563 2.795-2.162 4.548-1.335.125.059.179.208.12.333-.059.125-.209.178-.333.12-1.506-.709-3.25-.217-3.885 1.1-.077.159-.135.327-.174.498C77.375 40.102 77.272 40.181 77.158 40.181z"/><path fill="#fff" d="M74.394 25.848h-10.03c-.276 0-.5-.224-.5-.5s.224-.5.5-.5h10.03c.276 0 .5.224.5.5S74.671 25.848 74.394 25.848zM77.276 25.848H75.83c-.276 0-.5-.224-.5-.5s.224-.5.5-.5h1.446c.276 0 .5.224.5.5S77.552 25.848 77.276 25.848zM81.33 25.848h-2.546c-.276 0-.5-.224-.5-.5s.224-.5.5-.5h2.546c.276 0 .5.224.5.5S81.606 25.848 81.33 25.848zM81.33 27.714h-9.616c-.276 0-.5-.224-.5-.5s.224-.5.5-.5h9.616c.276 0 .5.224.5.5S81.606 27.714 81.33 27.714zM69.982 27.714h-.58c-.276 0-.5-.224-.5-.5s.224-.5.5-.5h.58c.276 0 .5.224.5.5S70.259 27.714 69.982 27.714zM67.605 27.714h-1.456c-.276 0-.5-.224-.5-.5s.224-.5.5-.5h1.456c.276 0 .5.224.5.5S67.882 27.714 67.605 27.714zM76.741 23.984h-5.027c-.276 0-.5-.224-.5-.5s.224-.5.5-.5h5.027c.276 0 .5.224.5.5S77.017 23.984 76.741 23.984zM76.741 22.119h-1.257c-.276 0-.5-.224-.5-.5s.224-.5.5-.5h1.257c.276 0 .5.224.5.5S77.017 22.119 76.741 22.119zM73.473 29.578h-1.759c-.276 0-.5-.224-.5-.5s.224-.5.5-.5h1.759c.276 0 .5.224.5.5S73.749 29.578 73.473 29.578z"/><path fill="#77cbd2" d="M72.815,50.821c-0.584,0-1.146,0.089-1.684,0.242c-0.353-4.551-3.956-8.13-8.357-8.13c-2.537,0-4.807,1.194-6.346,3.073c-1.879-4.001-5.776-6.759-10.292-6.759c-6.224,0-11.28,5.227-11.475,11.748c-0.462-0.11-0.94-0.173-1.433-0.173c-3.581,0-6.483,3.065-6.483,6.845c0,3.78,2.903,6.845,6.483,6.845c0.416,0,39.171,0,39.587,0c3.581,0,6.483-3.065,6.483-6.845C79.299,53.886,76.396,50.821,72.815,50.821z"/><path fill="#f1bc19" d="M56.071,70.487c-0.121-0.031-0.256-0.019-0.384-0.008c-1.559,0.138-3.117,0.279-4.676,0.42c-0.11,0.01-0.22,0.02-0.33,0.03l-0.039-0.076c0.087-0.09,0.177-0.178,0.262-0.27c1.512-1.626,4.322-4.803,5.387-6.071h-5.878c-0.025,0.027-0.05,0.051-0.073,0.083c-0.489,0.677-7.099,9.456-7.099,9.456c-0.09,0.12-0.158,0.348-0.103,0.461c0.057,0.117,0.274,0.214,0.424,0.218c0.622,0.017,2.717-0.012,3.204-0.011c-0.119,0.164-0.186,0.259-0.256,0.351c-1.801,2.341-5.596,7.597-5.514,7.691c0.08,0.093,14.661-11.166,14.661-11.166s0.395-0.298,0.577-0.465C56.489,70.894,56.409,70.575,56.071,70.487z"/><path fill="#472b29" d="M40.883,83.106c-0.085,0-0.125-0.046-0.172-0.101c-0.112-0.128-0.409-0.47,5.303-7.907l-0.126,0.001c-0.818,0.007-1.914,0.017-2.336,0.005c-0.229-0.006-0.613-0.144-0.751-0.43c-0.142-0.293,0.011-0.676,0.14-0.849c0.067-0.089,6.614-8.785,7.096-9.451c0.01-0.013,0.073-0.087,0.084-0.1c0.071-0.075,0.189-0.139,0.292-0.139h5.878c0.146,0,0.278,0.084,0.34,0.217c0.062,0.132,0.041,0.288-0.053,0.399c-0.988,1.176-3.491,4.012-5.066,5.724l4.141-0.371c0.148-0.013,0.329-0.029,0.512,0.019c0.293,0.077,0.507,0.277,0.572,0.538s-0.03,0.539-0.253,0.743c-0.19,0.175-0.604,0.488-0.604,0.488C43.264,81.636,41.361,83.106,40.883,83.106z M46.766,74.343c0.141,0,0.27,0.08,0.333,0.205c0.064,0.126,0.052,0.277-0.031,0.391l-0.261,0.357c-1.197,1.556-3.142,4.22-4.361,5.948c2.827-2.128,8.739-6.671,12.98-9.947c0.005-0.004,0.38-0.287,0.552-0.444c0,0-0.002-0.003-0.002-0.003c-0.059-0.016-0.163-0.006-0.254,0.002l-5.007,0.45c-0.154,0.016-0.3-0.067-0.37-0.205c-0.072-0.144-0.083-0.394,0.029-0.508l0.255-0.262c1.314-1.413,3.576-3.961,4.85-5.441H50.6c-0.94,1.262-6.8,9.045-7.059,9.389c-0.011,0.015-0.022,0.039-0.031,0.063c0.023,0.009,0.046,0.015,0.062,0.016c0.417,0.011,1.501,0.001,2.311-0.005L46.766,74.343z"/><path fill="#472b29" d="M44.567,64.752H33.228c-3.934,0-7.133-3.376-7.133-7.525c0-4.437,3.669-8.017,7.959-7.473c0.552-6.607,5.729-11.679,12.082-11.679c4.337,0,8.26,2.393,10.442,6.306c1.672-1.665,3.882-2.604,6.196-2.604c4.432,0,8.22,3.467,8.919,8.022c4.378-0.764,8.255,2.887,8.255,7.427c0,1.786-0.603,3.517-1.698,4.874c-0.225,0.279-0.634,0.323-0.914,0.098c-0.279-0.225-0.323-0.634-0.098-0.914c0.909-1.127,1.41-2.568,1.41-4.058c0-3.958-3.52-7.1-7.339-6.008c-0.187,0.054-0.389,0.021-0.55-0.091c-0.16-0.112-0.262-0.289-0.276-0.484c-0.327-4.243-3.713-7.566-7.709-7.566c-2.237,0-4.366,1.038-5.842,2.848c-0.142,0.173-0.357,0.262-0.584,0.234c-0.222-0.027-0.414-0.167-0.509-0.37c-1.85-3.957-5.568-6.415-9.704-6.415c-5.884,0-10.639,4.906-10.825,11.17c-0.006,0.195-0.1,0.378-0.255,0.497c-0.157,0.119-0.357,0.16-0.547,0.115c-3.757-0.901-7.115,2.19-7.115,6.069c0,3.433,2.617,6.226,5.833,6.226h11.339c0.359,0,0.65,0.291,0.65,0.65C45.217,64.461,44.926,64.752,44.567,64.752z"/><path fill="#472b29" d="M58.887 61.488h-3.273c-.138 0-.25-.112-.25-.25s.112-.25.25-.25h3.273c.138 0 .25.112.25.25S59.025 61.488 58.887 61.488zM53.977 61.488H53.16c-.138 0-.25-.112-.25-.25s.112-.25.25-.25h.818c.138 0 .25.112.25.25S54.116 61.488 53.977 61.488zM51.523 61.488h-18.82c-.138 0-.25-.112-.25-.25s.112-.25.25-.25h18.82c.138 0 .25.112.25.25S51.661 61.488 51.523 61.488z"/><path fill="#f1bc19" d="M72.378,63.941c-0.121-0.031-0.256-0.019-0.384-0.008c-1.559,0.138-3.117,0.279-4.676,0.42c-0.11,0.01-0.22,0.02-0.33,0.03l-0.039-0.076c0.087-0.09,0.177-0.178,0.262-0.27c1.512-1.626,4.322-4.803,5.387-6.071h-5.878c-0.025,0.027-0.05,0.051-0.073,0.083c-0.489,0.677-7.099,9.456-7.099,9.456c-0.09,0.12-0.158,0.348-0.103,0.461c0.057,0.117,0.274,0.214,0.424,0.218c0.622,0.017,2.717-0.012,3.204-0.011c-0.119,0.164-0.186,0.259-0.256,0.351c-1.801,2.341-5.596,7.597-5.514,7.691c0.08,0.093,14.661-11.166,14.661-11.166s0.395-0.298,0.577-0.465C72.796,64.348,72.716,64.029,72.378,63.941z"/><path fill="#472b29" d="M57.19,76.559c-0.085,0-0.125-0.046-0.172-0.101c-0.112-0.129-0.406-0.469,5.303-7.907l-0.087,0.001c-0.823,0.007-1.946,0.017-2.375,0.005c-0.267-0.007-0.621-0.16-0.751-0.43c-0.142-0.292,0.011-0.675,0.14-0.848c0.067-0.089,6.614-8.785,7.096-9.451c0.01-0.014,0.073-0.087,0.084-0.1c0.071-0.074,0.189-0.138,0.292-0.138h5.878c0.146,0,0.278,0.084,0.34,0.217c0.062,0.132,0.041,0.288-0.053,0.399c-0.988,1.176-3.491,4.012-5.066,5.724l4.142-0.371c0.136-0.012,0.324-0.029,0.511,0.019l0,0c0.294,0.076,0.509,0.278,0.574,0.54c0.064,0.261-0.03,0.538-0.254,0.743c-0.19,0.174-0.603,0.487-0.603,0.487C59.571,75.09,57.668,76.559,57.19,76.559z M63.073,67.797c0.141,0,0.27,0.08,0.334,0.205c0.064,0.126,0.052,0.277-0.031,0.391l-0.263,0.359c-1.196,1.555-3.14,4.217-4.359,5.945c2.827-2.128,8.739-6.671,12.98-9.946c0.005-0.004,0.379-0.286,0.552-0.444l0.092-0.366l-0.094,0.363c-0.058-0.015-0.167-0.004-0.254,0.003l-5.008,0.449c-0.157,0.011-0.299-0.068-0.368-0.204c-0.072-0.143-0.084-0.392,0.027-0.507l0.256-0.264c1.313-1.412,3.575-3.96,4.849-5.44h-4.879c-0.94,1.261-6.8,9.045-7.059,9.389c-0.011,0.015-0.022,0.039-0.031,0.062c0.023,0.009,0.046,0.015,0.062,0.016c0.424,0.012,1.535,0.001,2.349-0.005L63.073,67.797z"/><g><path fill="#fdfcef" d="M34.271,68.857c1.883,0,3.517,0,3.54,0c2.11,0,3.821-1.674,3.821-3.739c0-1.802-1.302-3.305-3.035-3.66c0.02-0.158,0.034-0.317,0.034-0.48c0-2.139-1.772-3.873-3.957-3.873c-1.29,0-2.433,0.607-3.155,1.543c-0.185-2.381-2.358-4.218-4.9-3.913c-1.859,0.223-3.397,1.629-3.739,3.431c-0.11,0.578-0.098,1.139,0.011,1.665c-0.498-0.525-1.208-0.856-1.998-0.856c-1.446,0-2.627,1.102-2.72,2.494c-0.657-0.142-1.371-0.133-2.123,0.143c-1.438,0.528-2.462,1.853-2.522,3.356c-0.085,2.133,1.657,3.889,3.818,3.889c0.164,0,0.741,0,0.874,0h7.934 M27.793,68.857h0.36"/><path fill="#472b29" d="M37.811,69.357h-3.54c-0.276,0-0.5-0.224-0.5-0.5s0.224-0.5,0.5-0.5h3.54c1.831,0,3.321-1.453,3.321-3.24c0-1.524-1.108-2.857-2.636-3.169c-0.256-0.052-0.429-0.293-0.396-0.553c0.018-0.137,0.03-0.276,0.03-0.417c0-1.86-1.551-3.373-3.457-3.373c-1.092,0-2.098,0.491-2.76,1.348c-0.126,0.164-0.339,0.232-0.539,0.173c-0.198-0.059-0.339-0.234-0.355-0.44c-0.079-1.019-0.565-1.944-1.369-2.604c-0.829-0.68-1.883-0.98-2.973-0.852c-1.646,0.197-3.006,1.441-3.307,3.027c-0.094,0.495-0.091,0.989,0.009,1.471c0.045,0.219-0.06,0.441-0.258,0.544c-0.197,0.104-0.44,0.063-0.594-0.099c-0.428-0.451-1.009-0.7-1.635-0.7c-1.169,0-2.145,0.891-2.221,2.028c-0.01,0.145-0.082,0.279-0.198,0.366c-0.116,0.087-0.264,0.119-0.407,0.089c-0.639-0.139-1.242-0.098-1.845,0.124c-1.262,0.464-2.144,1.632-2.195,2.907c-0.035,0.875,0.283,1.708,0.895,2.345c0.635,0.661,1.496,1.024,2.423,1.024h8.807c0.276,0,0.5,0.224,0.5,0.5s-0.224,0.5-0.5,0.5h-8.807c-1.185,0-2.331-0.485-3.144-1.332c-0.803-0.835-1.219-1.928-1.173-3.078c0.067-1.674,1.212-3.204,2.849-3.805c0.609-0.224,1.241-0.305,1.88-0.244c0.344-1.396,1.629-2.424,3.135-2.424c0.493,0,0.977,0.113,1.414,0.323c0.009-0.242,0.037-0.484,0.083-0.726c0.381-2.009,2.096-3.586,4.17-3.834c1.368-0.16,2.685,0.218,3.726,1.072c0.748,0.613,1.278,1.41,1.546,2.302c0.791-0.648,1.786-1.007,2.842-1.007c2.458,0,4.457,1.962,4.457,4.373c0,0.034,0,0.068-0.001,0.102c1.764,0.554,3.003,2.188,3.003,4.038C42.132,67.455,40.193,69.357,37.811,69.357z M28.153,69.357h-0.36c-0.276,0-0.5-0.224-0.5-0.5s0.224-0.5,0.5-0.5h0.36c0.276,0,0.5,0.224,0.5,0.5S28.43,69.357,28.153,69.357z"/><path fill="#472b29" d="M36.103,63.554c-0.018,0-0.036-0.002-0.055-0.006c-0.135-0.03-0.219-0.164-0.189-0.299c0.037-0.165,0.094-0.327,0.17-0.479c0.605-1.223,2.272-1.676,3.722-1.006c0.125,0.058,0.18,0.207,0.122,0.332c-0.058,0.125-0.207,0.18-0.332,0.122c-1.205-0.558-2.579-0.209-3.063,0.774c-0.058,0.117-0.102,0.241-0.13,0.367C36.321,63.475,36.218,63.554,36.103,63.554z"/><g><path fill="#472b29" d="M30.945,69.357h-1.107c-0.276,0-0.5-0.224-0.5-0.5s0.224-0.5,0.5-0.5h1.107c0.276,0,0.5,0.224,0.5,0.5S31.221,69.357,30.945,69.357z"/></g></g></svg>