<svg xmlns="http://www.w3.org/2000/svg"  viewBox="0 0 100 100" width="100px" height="100px"><path fill="#c7ede6" d="M88.704,55.881c0.3-0.616,0.566-1.264,0.796-1.943c2.633-7.77-1.349-17.078-9.733-19.325C78.86,23.23,70.86,15.421,61.826,14.088c-10.341-1.525-19.814,5.044-22.966,15.485c-3.799-1.346-7.501-1.182-10.99,0.857c-1.583,0.732-3.031,1.812-4.33,3.233c-1.907,2.086-3.147,4.719-3.652,7.495c-0.748,0.118-1.483,0.236-2.176,0.484c-4.04,1.449-6.589,4.431-7.288,8.923c-0.435,2.797,0.443,5.587,0.933,6.714c1.935,4.455,6.422,6.98,10.981,6.312c0.227-0.033,0.557,0.069,0.752,0.233c0.241,7.12,3.698,13.417,8.884,17.014c8.321,5.772,19.027,3.994,25.781-3.921c2.894,2.96,6.338,4.398,10.384,3.876c4.023-0.519,7.147-2.739,9.426-6.349c1.053,0.283,2.051,0.691,3.083,0.804c4.042,0.442,7.324-1.165,9.732-4.8c0.922-1.391,1.793-3.194,1.793-6.354C92.174,60.838,90.88,57.871,88.704,55.881z"/><path fill="#fff" d="M18.369 47.917H8.338c-.276 0-.5-.224-.5-.5s.224-.5.5-.5h10.031c.276 0 .5.224.5.5S18.645 47.917 18.369 47.917zM21.249 47.917h-1.446c-.276 0-.5-.224-.5-.5s.224-.5.5-.5h1.446c.276 0 .5.224.5.5S21.526 47.917 21.249 47.917zM25.304 47.917h-2.546c-.276 0-.5-.224-.5-.5s.224-.5.5-.5h2.546c.276 0 .5.224.5.5S25.58 47.917 25.304 47.917zM25.304 49.782h-9.616c-.276 0-.5-.224-.5-.5s.224-.5.5-.5h9.616c.276 0 .5.224.5.5S25.58 49.782 25.304 49.782zM13.956 49.782h-.58c-.276 0-.5-.224-.5-.5s.224-.5.5-.5h.58c.276 0 .5.224.5.5S14.233 49.782 13.956 49.782zM11.58 49.782h-1.457c-.276 0-.5-.224-.5-.5s.224-.5.5-.5h1.457c.276 0 .5.224.5.5S11.856 49.782 11.58 49.782zM20.715 46.053h-5.027c-.276 0-.5-.224-.5-.5s.224-.5.5-.5h5.027c.276 0 .5.224.5.5S20.992 46.053 20.715 46.053zM20.715 44.187h-1.257c-.276 0-.5-.224-.5-.5s.224-.5.5-.5h1.257c.276 0 .5.224.5.5S20.992 44.187 20.715 44.187zM17.447 51.647h-1.759c-.276 0-.5-.224-.5-.5s.224-.5.5-.5h1.759c.276 0 .5.224.5.5S17.723 51.647 17.447 51.647z"/><path fill="#f1bc19" d="M18.285 22.648L21.281 37.047 38.719 38.993"/><path fill="#472b29" d="M38.719,39.493c-0.019,0-0.037-0.001-0.056-0.003l-17.438-1.946c-0.215-0.024-0.39-0.184-0.434-0.395L17.795,22.75c-0.056-0.271,0.118-0.535,0.388-0.592c0.271-0.054,0.535,0.117,0.592,0.388l2.922,14.044l17.078,1.906c0.274,0.031,0.472,0.278,0.441,0.553C39.187,39.304,38.971,39.493,38.719,39.493z"/><path fill="#f1bc19" d="M18.285 22.648L32.989 22.408 38.719 38.993"/><path fill="#472b29" d="M38.719,39.493c-0.208,0-0.401-0.13-0.473-0.337l-5.611-16.242l-14.342,0.234c-0.003,0-0.006,0-0.008,0c-0.272,0-0.496-0.219-0.5-0.492C17.78,22.38,18,22.153,18.276,22.148l14.705-0.24c0.255,0.017,0.411,0.133,0.481,0.337l5.729,16.584c0.09,0.261-0.048,0.545-0.31,0.636C38.828,39.484,38.773,39.493,38.719,39.493z"/><path fill="#ee3e54" d="M18.453 22.961L27.117 29.727 32.819 22.885zM21.47 36.693L27.207 29.719 38.318 38.437z"/><path fill="#472b29" d="M38.719,39.243c-0.055,0-0.11-0.018-0.156-0.055L18.128,22.844c-0.108-0.086-0.125-0.244-0.039-0.352c0.087-0.108,0.244-0.124,0.352-0.039l20.434,16.345c0.108,0.086,0.125,0.244,0.039,0.352C38.865,39.211,38.792,39.243,38.719,39.243z"/><path fill="#472b29" d="M21.281,37.297c-0.055,0-0.11-0.018-0.156-0.055c-0.108-0.086-0.125-0.244-0.039-0.352l11.708-14.638c0.086-0.107,0.244-0.125,0.352-0.039c0.108,0.086,0.125,0.244,0.039,0.352L21.476,37.203C21.427,37.264,21.354,37.297,21.281,37.297z"/><path fill="#fbcd59" d="M41.038 40.293L40.697 43.844 37.792 41.774z"/><path fill="#472b29" d="M40.698,44.094c-0.051,0-0.102-0.016-0.145-0.046l-2.905-2.07c-0.073-0.052-0.112-0.139-0.104-0.228c0.009-0.089,0.064-0.167,0.146-0.204l3.246-1.48c0.08-0.037,0.177-0.028,0.249,0.024c0.073,0.052,0.112,0.139,0.104,0.228l-0.34,3.551c-0.009,0.089-0.064,0.167-0.145,0.204C40.768,44.087,40.733,44.094,40.698,44.094z M38.29,41.822l2.2,1.567l0.258-2.688L38.29,41.822z"/><path fill="#fbcd59" d="M41.038 40.293L44.284 38.813 41.379 36.742z"/><path fill="#472b29" d="M41.038,40.543c-0.051,0-0.102-0.016-0.145-0.046c-0.073-0.052-0.112-0.139-0.104-0.228l0.34-3.551c0.009-0.089,0.064-0.167,0.145-0.204c0.082-0.037,0.177-0.027,0.249,0.024l2.905,2.07c0.073,0.052,0.112,0.139,0.104,0.228c-0.009,0.089-0.064,0.167-0.145,0.204l-3.246,1.481C41.109,40.536,41.073,40.543,41.038,40.543z M41.586,37.197l-0.258,2.689l2.458-1.122L41.586,37.197z"/><path fill="#472b29" d="M66.882,44.592c-0.085,0-0.168-0.043-0.214-0.122c-0.071-0.119-0.032-0.272,0.086-0.343c0.277-0.166,0.535-0.355,0.767-0.562c0.101-0.092,0.259-0.084,0.353,0.02c0.092,0.103,0.083,0.261-0.02,0.353c-0.255,0.228-0.539,0.437-0.843,0.618C66.97,44.58,66.926,44.592,66.882,44.592z M68.238,43.422c-0.055,0-0.111-0.018-0.157-0.056c-0.107-0.086-0.124-0.244-0.037-0.352c0.197-0.244,0.371-0.511,0.519-0.793c0.064-0.123,0.216-0.168,0.337-0.106c0.122,0.064,0.17,0.215,0.106,0.337c-0.163,0.312-0.355,0.607-0.573,0.877C68.383,43.39,68.311,43.422,68.238,43.422z M49.474,43.346c-0.002,0-0.004,0-0.006,0c-0.33-0.008-0.673-0.034-1.021-0.076c-0.137-0.016-0.235-0.141-0.218-0.278s0.145-0.232,0.278-0.218c0.332,0.04,0.66,0.064,0.974,0.072c0.138,0.003,0.247,0.118,0.244,0.256C49.721,43.238,49.609,43.346,49.474,43.346z M50.273,43.331c-0.13,0-0.24-0.102-0.249-0.234c-0.009-0.138,0.096-0.257,0.233-0.266c0.331-0.021,0.653-0.063,0.958-0.124c0.138-0.026,0.267,0.062,0.294,0.196c0.027,0.136-0.061,0.267-0.196,0.294c-0.327,0.065-0.671,0.109-1.024,0.132C50.285,43.331,50.279,43.331,50.273,43.331z M47.687,43.151c-0.015,0-0.031-0.001-0.046-0.004c-0.327-0.061-0.658-0.134-0.993-0.219c-0.134-0.034-0.215-0.17-0.181-0.304c0.034-0.133,0.167-0.217,0.304-0.181c0.324,0.082,0.644,0.153,0.96,0.212c0.136,0.025,0.226,0.155,0.2,0.291C47.911,43.067,47.806,43.151,47.687,43.151z M52.039,43.001c-0.105,0-0.203-0.067-0.238-0.172c-0.043-0.131,0.029-0.272,0.16-0.315c0.306-0.1,0.603-0.225,0.882-0.372c0.121-0.064,0.273-0.018,0.337,0.105c0.064,0.122,0.017,0.273-0.105,0.337c-0.304,0.16-0.626,0.295-0.959,0.405C52.091,42.997,52.064,43.001,52.039,43.001z M45.94,42.72c-0.024,0-0.048-0.003-0.072-0.011c-0.318-0.096-0.639-0.202-0.961-0.317c-0.13-0.046-0.198-0.189-0.151-0.319c0.047-0.13,0.189-0.196,0.319-0.151c0.314,0.112,0.627,0.216,0.938,0.31c0.132,0.04,0.207,0.179,0.167,0.312C46.147,42.65,46.047,42.72,45.94,42.72z M53.642,42.199c-0.08,0-0.158-0.038-0.207-0.109c-0.078-0.114-0.049-0.27,0.065-0.348c0.263-0.18,0.519-0.381,0.76-0.596c0.101-0.092,0.259-0.083,0.353,0.02c0.092,0.103,0.083,0.261-0.02,0.353c-0.256,0.229-0.529,0.443-0.811,0.636C53.74,42.184,53.69,42.199,53.642,42.199z M44.241,42.125c-0.031,0-0.062-0.005-0.092-0.018c-0.31-0.122-0.62-0.252-0.932-0.388c-0.126-0.056-0.184-0.203-0.128-0.33c0.056-0.126,0.205-0.181,0.33-0.128c0.306,0.134,0.61,0.261,0.914,0.381c0.128,0.051,0.191,0.196,0.141,0.324C44.435,42.065,44.341,42.125,44.241,42.125z M69.099,41.853c-0.027,0-0.054-0.004-0.081-0.014c-0.131-0.045-0.2-0.187-0.155-0.317c0.101-0.295,0.18-0.608,0.234-0.929c0.023-0.136,0.155-0.228,0.288-0.205c0.136,0.023,0.228,0.152,0.205,0.288c-0.059,0.348-0.144,0.687-0.254,1.008C69.3,41.788,69.203,41.853,69.099,41.853z M42.59,41.409c-0.036,0-0.072-0.007-0.106-0.023c-0.302-0.142-0.604-0.289-0.906-0.441c-0.123-0.062-0.173-0.212-0.11-0.336c0.062-0.124,0.212-0.173,0.336-0.11c0.297,0.15,0.595,0.295,0.893,0.435c0.125,0.059,0.179,0.208,0.121,0.333C42.773,41.356,42.684,41.409,42.59,41.409z M54.992,41.018c-0.06,0-0.12-0.021-0.168-0.064c-0.102-0.093-0.11-0.251-0.018-0.354c0.213-0.235,0.417-0.489,0.605-0.756c0.081-0.113,0.237-0.137,0.349-0.06c0.113,0.08,0.139,0.236,0.06,0.349c-0.201,0.283-0.417,0.553-0.643,0.803C55.128,40.99,55.06,41.018,54.992,41.018z M40.979,40.603c-0.04,0-0.08-0.009-0.117-0.029c-0.295-0.156-0.59-0.317-0.884-0.482c-0.121-0.068-0.164-0.22-0.096-0.34c0.067-0.121,0.22-0.164,0.34-0.096c0.291,0.163,0.582,0.322,0.873,0.476c0.122,0.065,0.169,0.216,0.104,0.338C41.156,40.555,41.069,40.603,40.979,40.603z M69.428,40.09c-0.004,0-0.008,0-0.012,0c-0.138-0.006-0.244-0.123-0.238-0.261c0.005-0.113,0.008-0.226,0.008-0.34c0-0.208-0.009-0.418-0.026-0.627c-0.012-0.138,0.091-0.259,0.228-0.27c0.131-0.009,0.259,0.09,0.27,0.228c0.019,0.224,0.028,0.447,0.028,0.669c0,0.122-0.003,0.243-0.009,0.363C69.672,39.985,69.561,40.09,69.428,40.09z M39.407,39.727c-0.043,0-0.086-0.011-0.125-0.034c-0.29-0.168-0.578-0.34-0.864-0.514c-0.118-0.072-0.155-0.226-0.084-0.344c0.072-0.118,0.227-0.154,0.344-0.084c0.284,0.173,0.569,0.343,0.855,0.509c0.12,0.069,0.16,0.223,0.091,0.342C39.577,39.683,39.493,39.727,39.407,39.727z M56.051,39.567c-0.043,0-0.088-0.011-0.128-0.035c-0.119-0.07-0.158-0.224-0.087-0.343c0.169-0.284,0.322-0.572,0.464-0.862c0.061-0.125,0.213-0.173,0.334-0.115c0.124,0.061,0.175,0.21,0.115,0.334c-0.147,0.301-0.308,0.602-0.483,0.898C56.219,39.524,56.136,39.567,56.051,39.567z M69.303,38.297c-0.119,0-0.224-0.084-0.246-0.206c-0.057-0.316-0.133-0.634-0.227-0.946c-0.04-0.132,0.035-0.271,0.167-0.311c0.132-0.04,0.271,0.035,0.311,0.167c0.099,0.33,0.18,0.667,0.24,1c0.024,0.136-0.066,0.266-0.202,0.291C69.333,38.296,69.318,38.297,69.303,38.297z M56.86,37.96c-0.034,0-0.067-0.007-0.1-0.021c-0.126-0.055-0.184-0.203-0.129-0.329c0.135-0.309,0.26-0.615,0.381-0.917c0.051-0.129,0.196-0.191,0.325-0.139c0.128,0.051,0.19,0.197,0.139,0.325c-0.123,0.306-0.25,0.617-0.387,0.931C57.048,37.904,56.956,37.96,56.86,37.96z M68.808,36.568c-0.1,0-0.193-0.06-0.232-0.158c-0.12-0.302-0.256-0.6-0.407-0.884c-0.064-0.122-0.018-0.273,0.104-0.338c0.121-0.063,0.273-0.018,0.338,0.104c0.158,0.3,0.303,0.614,0.429,0.933c0.051,0.128-0.012,0.274-0.14,0.325C68.87,36.563,68.839,36.568,68.808,36.568z M57.542,36.293c-0.031,0-0.063-0.006-0.094-0.018c-0.128-0.052-0.19-0.198-0.138-0.326c0.131-0.323,0.261-0.636,0.396-0.931c0.057-0.126,0.207-0.18,0.331-0.123c0.125,0.057,0.181,0.206,0.123,0.331c-0.132,0.289-0.259,0.594-0.387,0.91C57.735,36.234,57.641,36.293,57.542,36.293z M67.986,34.97c-0.082,0-0.163-0.041-0.21-0.115c-0.177-0.274-0.369-0.537-0.573-0.782c-0.088-0.106-0.074-0.264,0.033-0.352c0.106-0.086,0.265-0.074,0.352,0.033c0.216,0.26,0.421,0.54,0.608,0.831c0.075,0.116,0.042,0.271-0.075,0.345C68.08,34.957,68.032,34.97,67.986,34.97z M58.295,34.659c-0.042,0-0.084-0.01-0.124-0.033c-0.12-0.068-0.162-0.221-0.094-0.341c0.194-0.341,0.392-0.623,0.604-0.859c0.092-0.103,0.251-0.111,0.353-0.019c0.103,0.092,0.111,0.25,0.019,0.353c-0.188,0.21-0.365,0.462-0.542,0.772C58.467,34.614,58.382,34.659,58.295,34.659z M66.855,33.575c-0.063,0-0.126-0.023-0.175-0.071c-0.235-0.229-0.482-0.438-0.735-0.622c-0.112-0.081-0.136-0.237-0.055-0.349c0.082-0.112,0.238-0.136,0.349-0.055c0.272,0.197,0.539,0.422,0.791,0.669c0.099,0.096,0.101,0.254,0.004,0.354C66.985,33.55,66.92,33.575,66.855,33.575z M59.459,33.308c-0.074,0-0.146-0.033-0.196-0.095c-0.086-0.108-0.068-0.266,0.041-0.351c0.278-0.221,0.563-0.419,0.846-0.589c0.117-0.07,0.271-0.034,0.343,0.085c0.071,0.118,0.034,0.271-0.085,0.343c-0.265,0.16-0.532,0.346-0.793,0.553C59.569,33.29,59.514,33.308,59.459,33.308z M65.415,32.505c-0.04,0-0.081-0.009-0.118-0.03c-0.286-0.153-0.581-0.277-0.876-0.37c-0.132-0.042-0.205-0.182-0.164-0.313c0.042-0.132,0.18-0.206,0.313-0.164c0.325,0.102,0.649,0.239,0.963,0.407c0.122,0.065,0.167,0.216,0.102,0.338C65.59,32.457,65.504,32.505,65.415,32.505z M60.987,32.366c-0.095,0-0.187-0.055-0.228-0.148c-0.057-0.126,0-0.274,0.126-0.33c0.327-0.146,0.659-0.261,0.987-0.34c0.137-0.034,0.27,0.049,0.302,0.184c0.033,0.134-0.049,0.27-0.184,0.302c-0.299,0.073-0.602,0.178-0.901,0.311C61.056,32.359,61.021,32.366,60.987,32.366z M63.717,31.942c-0.012,0-0.023-0.001-0.035-0.002c-0.308-0.042-0.624-0.051-0.943-0.028c-0.132,0.007-0.258-0.093-0.268-0.23c-0.011-0.138,0.092-0.258,0.23-0.269c0.355-0.026,0.706-0.015,1.05,0.032c0.137,0.019,0.232,0.145,0.213,0.282C63.947,31.851,63.84,31.942,63.717,31.942z"/><path fill="#ee3e54" d="M57.9 35.065L61.417 35.662 59.142 38.409z"/><path fill="#472b29" d="M59.142,38.659c-0.014,0-0.028-0.001-0.042-0.003c-0.088-0.015-0.161-0.076-0.192-0.16l-1.242-3.344c-0.031-0.083-0.015-0.178,0.042-0.247c0.057-0.068,0.144-0.103,0.234-0.087l3.517,0.597c0.088,0.015,0.161,0.076,0.192,0.16c0.031,0.083,0.015,0.178-0.042,0.247l-2.275,2.748C59.287,38.627,59.216,38.659,59.142,38.659z M58.286,35.384l0.94,2.532l1.723-2.081L58.286,35.384z"/><path fill="#ee3e54" d="M57.9 35.065L56.659 31.721 54.383 34.468z"/><path fill="#472b29" d="M57.9,35.315c-0.014,0-0.028-0.001-0.042-0.003l-3.517-0.597c-0.088-0.015-0.161-0.076-0.192-0.16c-0.031-0.083-0.015-0.178,0.042-0.247l2.275-2.748c0.057-0.068,0.144-0.101,0.234-0.087c0.088,0.015,0.161,0.076,0.192,0.16l1.242,3.345c0.031,0.083,0.015,0.178-0.042,0.247C58.045,35.283,57.974,35.315,57.9,35.315z M54.852,34.294l2.663,0.452l-0.94-2.533L54.852,34.294z"/><path fill="#fdfcef" d="M72.365,56.655c0,0,11.233,0,11.301,0c2.594,0,4.697-2.103,4.697-4.697c0-2.263-1.601-4.152-3.732-4.597c0.025-0.198,0.041-0.399,0.041-0.603c0-2.687-2.178-4.865-4.865-4.865c-1.586,0-2.991,0.763-3.879,1.938c-0.227-2.991-2.898-5.298-6.024-4.916c-2.285,0.28-4.176,2.046-4.596,4.31c-0.135,0.726-0.121,1.431,0.014,2.092c-0.613-0.66-1.485-1.075-2.456-1.075c-1.778,0-3.229,1.384-3.344,3.133c-0.807-0.179-1.685-0.167-2.61,0.18c-1.768,0.664-3.027,2.328-3.1,4.215c-0.105,2.68,2.037,4.885,4.693,4.885c0.202,0,0.911,0,1.074,0h9.753"/><path fill="#472b29" d="M83.666,57.155H72.365c-0.276,0-0.5-0.224-0.5-0.5s0.224-0.5,0.5-0.5h11.301c2.314,0,4.197-1.883,4.197-4.197c0-1.977-1.402-3.704-3.334-4.108c-0.255-0.053-0.426-0.293-0.394-0.552c0.022-0.178,0.038-0.357,0.038-0.541c0-2.407-1.958-4.365-4.365-4.365c-1.376,0-2.645,0.634-3.479,1.739c-0.125,0.166-0.341,0.237-0.54,0.179c-0.2-0.059-0.342-0.235-0.358-0.442c-0.1-1.318-0.746-2.556-1.771-3.396c-1.036-0.849-2.344-1.225-3.694-1.062c-2.072,0.254-3.785,1.86-4.165,3.905c-0.119,0.64-0.115,1.279,0.012,1.9c0.045,0.22-0.062,0.442-0.261,0.545c-0.199,0.102-0.442,0.059-0.595-0.104c-0.548-0.59-1.291-0.916-2.09-0.916c-1.497,0-2.747,1.171-2.845,2.666c-0.01,0.146-0.083,0.28-0.199,0.367c-0.117,0.087-0.267,0.118-0.408,0.088c-0.805-0.179-1.566-0.126-2.327,0.16c-1.596,0.599-2.712,2.113-2.776,3.766c-0.045,1.154,0.37,2.248,1.168,3.078c0.799,0.831,1.873,1.288,3.025,1.288h10.828c0.276,0,0.5,0.224,0.5,0.5s-0.224,0.5-0.5,0.5H58.505c-1.427,0-2.757-0.566-3.746-1.595c-0.989-1.028-1.502-2.381-1.446-3.81c0.08-2.05,1.456-3.924,3.424-4.664c0.767-0.289,1.56-0.385,2.362-0.29c0.371-1.751,1.932-3.055,3.768-3.055c0.649,0,1.286,0.167,1.848,0.476c0.001-0.36,0.036-0.722,0.103-1.084c0.459-2.47,2.526-4.409,5.027-4.715c1.615-0.202,3.2,0.256,4.45,1.28c0.959,0.786,1.643,1.862,1.957,3.047c0.972-0.87,2.223-1.353,3.557-1.353c2.958,0,5.365,2.407,5.365,5.365c0,0.075-0.002,0.15-0.006,0.225c2.167,0.654,3.696,2.679,3.696,4.976C88.863,54.824,86.532,57.155,83.666,57.155z"/><path fill="#472b29" d="M59.339 54.949c-.006 0-.012 0-.017 0-.138-.009-.242-.128-.233-.266.103-1.53 1.531-2.694 3.188-2.578.128.009.257.025.385.049.268-.929 1.224-1.575 2.281-1.505.404.026.783.151 1.108.359 0-.012.001-.024.002-.037.116-1.729 1.722-3.041 3.606-2.913.138.009.242.128.233.266s-.129.244-.266.233c-1.594-.105-2.976.993-3.074 2.447-.012.175-.005.352.022.528.017.109-.041.217-.141.264-.098.046-.219.022-.293-.061-.309-.348-.746-.557-1.23-.589-.913-.063-1.696.53-1.81 1.341-.01.071-.05.134-.11.174-.06.04-.135.051-.204.033-.18-.049-.363-.081-.543-.092-1.39-.095-2.572.857-2.656 2.112C59.58 54.847 59.47 54.949 59.339 54.949zM81.158 49.929c-.018 0-.037-.002-.056-.006-.135-.031-.219-.165-.188-.299.048-.21.119-.413.211-.604.755-1.562 2.795-2.162 4.549-1.334.125.059.179.208.12.333-.059.126-.209.177-.333.12-1.507-.709-3.249-.217-3.886 1.1-.076.157-.135.325-.174.498C81.375 49.851 81.272 49.929 81.158 49.929z"/><g><path fill="#fff" d="M74.394 25.596h-10.03c-.276 0-.5-.224-.5-.5s.224-.5.5-.5h10.03c.276 0 .5.224.5.5S74.671 25.596 74.394 25.596zM77.276 25.596H75.83c-.276 0-.5-.224-.5-.5s.224-.5.5-.5h1.446c.276 0 .5.224.5.5S77.552 25.596 77.276 25.596zM81.33 25.596h-2.546c-.276 0-.5-.224-.5-.5s.224-.5.5-.5h2.546c.276 0 .5.224.5.5S81.606 25.596 81.33 25.596zM81.33 27.461h-9.616c-.276 0-.5-.224-.5-.5s.224-.5.5-.5h9.616c.276 0 .5.224.5.5S81.606 27.461 81.33 27.461zM69.982 27.461h-.58c-.276 0-.5-.224-.5-.5s.224-.5.5-.5h.58c.276 0 .5.224.5.5S70.259 27.461 69.982 27.461zM67.605 27.461h-1.456c-.276 0-.5-.224-.5-.5s.224-.5.5-.5h1.456c.276 0 .5.224.5.5S67.882 27.461 67.605 27.461zM76.741 23.732h-5.027c-.276 0-.5-.224-.5-.5s.224-.5.5-.5h5.027c.276 0 .5.224.5.5S77.018 23.732 76.741 23.732zM76.741 21.867h-1.257c-.276 0-.5-.224-.5-.5s.224-.5.5-.5h1.257c.276 0 .5.224.5.5S77.018 21.867 76.741 21.867zM73.473 29.326h-1.759c-.276 0-.5-.224-.5-.5s.224-.5.5-.5h1.759c.276 0 .5.224.5.5S73.749 29.326 73.473 29.326z"/></g><g><path fill="#77cbd2" d="M76.224,54.683c-0.513,0-1.008,0.079-1.481,0.213c-0.31-4.02-3.479-7.182-7.35-7.182c-2.232,0-4.228,1.055-5.581,2.715c-1.652-3.535-5.08-5.971-9.052-5.971c-5.474,0-9.921,4.617-10.092,10.378c-0.406-0.097-0.827-0.153-1.26-0.153c-3.149,0-5.702,2.707-5.702,6.047c0,3.34,2.553,6.047,5.702,6.047c0.366,0,34.451,0,34.818,0c3.149,0,5.702-2.707,5.702-6.047C81.926,57.39,79.373,54.683,76.224,54.683z"/><path fill="#472b29" d="M46.018,67.277h-4.612c-3.42,0-6.202-2.937-6.202-6.547c0-3.886,3.235-7.017,6.994-6.491c0.45-5.811,4.987-10.281,10.561-10.281c3.82,0,7.271,2.125,9.168,5.593c1.464-1.493,3.418-2.336,5.466-2.336c3.886,0,7.204,3.06,7.785,7.067c3.831-0.716,7.248,2.475,7.249,6.449c0,0.898-0.169,1.768-0.502,2.585c-0.104,0.256-0.396,0.379-0.652,0.274c-0.255-0.104-0.378-0.396-0.274-0.652c0.284-0.696,0.428-1.439,0.428-2.208c0-3.527-3.14-6.323-6.546-5.353c-0.146,0.04-0.3,0.015-0.423-0.071c-0.123-0.085-0.201-0.222-0.213-0.372c-0.291-3.769-3.3-6.721-6.852-6.721c-1.99,0-3.883,0.922-5.193,2.531c-0.109,0.133-0.282,0.2-0.449,0.18c-0.171-0.021-0.318-0.128-0.392-0.284c-1.638-3.505-4.934-5.683-8.6-5.683c-5.214,0-9.427,4.346-9.592,9.893c-0.005,0.15-0.077,0.291-0.196,0.382c-0.119,0.092-0.271,0.126-0.42,0.089c-3.376-0.808-6.347,1.952-6.347,5.408c0,3.059,2.333,5.547,5.202,5.547h4.612c0.276,0,0.5,0.224,0.5,0.5S46.295,67.277,46.018,67.277z"/><path fill="#472b29" d="M63.839 63.814h-2.921c-.138 0-.25-.112-.25-.25s.112-.25.25-.25h2.921c.138 0 .25.112.25.25S63.977 63.814 63.839 63.814zM59.749 63.814H58.58c-.138 0-.25-.112-.25-.25s.112-.25.25-.25h1.169c.138 0 .25.112.25.25S59.888 63.814 59.749 63.814zM57.412 63.814h-16.36c-.138 0-.25-.112-.25-.25s.112-.25.25-.25h16.36c.138 0 .25.112.25.25S57.55 63.814 57.412 63.814zM65.028 75.663c-.775 0-1.508-.338-2.012-.926-.18-.21-.155-.525.055-.705.21-.178.526-.155.705.055.653.764 1.987.714 2.583-.098.315-.429.4-.981.233-1.514-.205-.651-.866-1.106-1.608-1.106H50.108c-.276 0-.5-.224-.5-.5s.224-.5.5-.5h14.875c1.174 0 2.228.743 2.562 1.807.264.84.125 1.717-.381 2.406C66.667 75.258 65.869 75.663 65.028 75.663z"/><path fill="#472b29" d="M69.076 67.277H54.199c-.276 0-.5-.224-.5-.5s.224-.5.5-.5h14.877c.504 0 .975-.227 1.29-.622.32-.401.432-.906.314-1.422-.133-.58-.609-1.062-1.187-1.201-.632-.153-1.257.044-1.669.526-.18.209-.495.234-.705.055-.209-.18-.234-.495-.055-.705.653-.762 1.675-1.086 2.664-.848.952.229 1.709.995 1.927 1.951.184.807 0 1.633-.507 2.268C70.641 66.913 69.886 67.277 69.076 67.277zM76.109 69.072h-1.168c-.138 0-.25-.112-.25-.25s.112-.25.25-.25h1.168c.138 0 .25.112.25.25S76.247 69.072 76.109 69.072zM73.188 69.072h-16.36c-.138 0-.25-.112-.25-.25s.112-.25.25-.25h16.36c.138 0 .25.112.25.25S73.326 69.072 73.188 69.072z"/></g><g><path fill="#fdfcef" d="M41.051,69.963c1.883,0,3.517,0,3.54,0c2.11,0,3.821-1.674,3.821-3.739c0-1.802-1.302-3.305-3.035-3.66c0.02-0.158,0.034-0.317,0.034-0.48c0-2.139-1.772-3.873-3.957-3.873c-1.29,0-2.433,0.607-3.155,1.543c-0.185-2.381-2.358-4.218-4.9-3.913c-1.859,0.223-3.397,1.629-3.739,3.431c-0.11,0.578-0.098,1.139,0.011,1.665c-0.498-0.525-1.208-0.856-1.998-0.856c-1.446,0-2.627,1.102-2.72,2.494c-0.657-0.142-1.371-0.133-2.123,0.143c-1.438,0.528-2.462,1.853-2.522,3.356c-0.085,2.133,1.657,3.889,3.818,3.889c0.164,0,0.741,0,0.874,0h7.934 M34.574,69.963h0.36"/><path fill="#472b29" d="M44.592,70.463h-3.541c-0.276,0-0.5-0.224-0.5-0.5s0.224-0.5,0.5-0.5h3.541c1.831,0,3.32-1.453,3.32-3.239c0-1.524-1.108-2.857-2.635-3.17c-0.256-0.052-0.429-0.293-0.396-0.553c0.018-0.137,0.029-0.275,0.029-0.417c0-1.86-1.551-3.373-3.457-3.373c-1.092,0-2.098,0.491-2.759,1.348c-0.127,0.164-0.34,0.233-0.539,0.173c-0.198-0.059-0.339-0.234-0.355-0.44c-0.079-1.019-0.565-1.944-1.37-2.604c-0.829-0.68-1.883-0.983-2.973-0.852c-1.646,0.197-3.006,1.442-3.307,3.028c-0.094,0.494-0.091,0.988,0.01,1.471c0.045,0.219-0.06,0.441-0.258,0.544c-0.197,0.104-0.44,0.063-0.595-0.099c-0.428-0.452-1.009-0.7-1.636-0.7c-1.169,0-2.145,0.891-2.221,2.028c-0.01,0.146-0.082,0.279-0.198,0.366c-0.116,0.087-0.264,0.12-0.407,0.089c-0.637-0.138-1.241-0.097-1.845,0.124c-1.262,0.464-2.144,1.632-2.195,2.906c-0.035,0.875,0.283,1.708,0.895,2.345c0.635,0.661,1.495,1.024,2.423,1.024h8.808c0.276,0,0.5,0.224,0.5,0.5s-0.224,0.5-0.5,0.5h-8.808c-1.185,0-2.332-0.485-3.145-1.332c-0.802-0.835-1.218-1.928-1.172-3.078c0.066-1.674,1.211-3.203,2.849-3.805c0.611-0.225,1.242-0.307,1.88-0.245c0.344-1.396,1.629-2.424,3.135-2.424c0.493,0,0.977,0.113,1.414,0.323c0.009-0.242,0.037-0.484,0.083-0.726c0.382-2.009,2.097-3.586,4.17-3.834c1.36-0.16,2.685,0.218,3.726,1.072c0.748,0.613,1.278,1.409,1.546,2.302c0.791-0.648,1.786-1.007,2.843-1.007c2.458,0,4.457,1.962,4.457,4.373c0,0.034,0,0.068-0.001,0.102c1.764,0.555,3.003,2.188,3.003,4.038C48.912,68.561,46.974,70.463,44.592,70.463z M34.934,70.463h-0.359c-0.276,0-0.5-0.224-0.5-0.5s0.224-0.5,0.5-0.5h0.359c0.276,0,0.5,0.224,0.5,0.5S35.21,70.463,34.934,70.463z"/><path fill="#472b29" d="M42.884,64.66c-0.018,0-0.037-0.002-0.055-0.006c-0.135-0.03-0.219-0.164-0.188-0.299c0.038-0.167,0.095-0.328,0.169-0.479c0.605-1.224,2.272-1.675,3.722-1.006c0.125,0.058,0.18,0.207,0.122,0.332c-0.058,0.125-0.206,0.181-0.332,0.122c-1.205-0.558-2.579-0.209-3.063,0.774c-0.058,0.116-0.101,0.24-0.13,0.368C43.101,64.582,42.998,64.66,42.884,64.66z"/><g><path fill="#472b29" d="M37.725,70.463h-1.107c-0.276,0-0.5-0.224-0.5-0.5s0.224-0.5,0.5-0.5h1.107c0.276,0,0.5,0.224,0.5,0.5S38.001,70.463,37.725,70.463z"/></g></g></svg>