<svg xmlns="http://www.w3.org/2000/svg"  viewBox="0 0 100 100" width="100px" height="100px"><path fill="#c7ede6" d="M87.215,56.71C88.35,54.555,89,52.105,89,49.5c0-6.621-4.159-12.257-10.001-14.478 C78.999,35.015,79,35.008,79,35c0-11.598-9.402-21-21-21c-9.784,0-17.981,6.701-20.313,15.757C36.211,29.272,34.638,29,33,29 c-7.692,0-14.023,5.793-14.89,13.252C12.906,43.353,9,47.969,9,53.5C9,59.851,14.149,65,20.5,65c0.177,0,0.352-0.012,0.526-0.022 C21.022,65.153,21,65.324,21,65.5C21,76.822,30.178,86,41.5,86c6.437,0,12.175-2.972,15.934-7.614C59.612,80.611,62.64,82,66,82 c4.65,0,8.674-2.65,10.666-6.518C77.718,75.817,78.837,76,80,76c6.075,0,11-4.925,11-11C91,61.689,89.53,58.727,87.215,56.71z"/><path fill="#fdfcef" d="M52.875,30.5c0,0,3.64,0,6.125,0s4.5-2.015,4.5-4.5c0-2.333-1.782-4.229-4.055-4.455 C59.467,21.364,59.5,21.187,59.5,21c0-2.485-2.015-4.5-4.5-4.5c-1.438,0-2.703,0.686-3.527,1.736 C51.333,15.6,49.171,13.5,46.5,13.5c-2.761,0-5,2.239-5,5c0,0.446,0.077,0.87,0.187,1.282C41.045,19.005,40.086,18.5,39,18.5 c-1.781,0-3.234,1.335-3.455,3.055C35.364,21.533,35.187,21.5,35,21.5c-2.485,0-4.5,2.015-4.5,4.5s2.015,4.5,4.5,4.5s9.5,0,9.5,0 h5.375V31h3V30.5z"/><path fill="#472b29" d="M46.5,13c-3.033,0-5.5,2.467-5.5,5.5c0,0.016,0,0.031,0,0.047C40.398,18.192,39.71,18,39,18 c-1.831,0-3.411,1.261-3.858,3.005C35.095,21.002,35.048,21,35,21c-2.757,0-5,2.243-5,5s2.243,5,5,5h14.875 c0.276,0,0.5-0.224,0.5-0.5s-0.224-0.5-0.5-0.5H35c-2.206,0-4-1.794-4-4s1.794-4,4-4c0.117,0,0.23,0.017,0.343,0.032l0.141,0.019 c0.021,0.003,0.041,0.004,0.062,0.004c0.246,0,0.462-0.185,0.495-0.437C36.232,20.125,37.504,19,39,19 c0.885,0,1.723,0.401,2.301,1.1c0.098,0.118,0.241,0.182,0.386,0.182c0.078,0,0.156-0.018,0.228-0.056 c0.209-0.107,0.314-0.346,0.254-0.573C42.054,19.218,42,18.852,42,18.5c0-2.481,2.019-4.5,4.5-4.5 c2.381,0,4.347,1.872,4.474,4.263c0.011,0.208,0.15,0.387,0.349,0.45c0.05,0.016,0.101,0.024,0.152,0.024 c0.15,0,0.296-0.069,0.392-0.192C52.638,17.563,53.779,17,55,17c2.206,0,4,1.794,4,4c0,0.117-0.017,0.23-0.032,0.343l-0.019,0.141 c-0.016,0.134,0.022,0.268,0.106,0.373c0.084,0.105,0.207,0.172,0.34,0.185C61.451,22.247,63,23.949,63,26c0,2.206-1.794,4-4,4 h-6.125c-0.276,0-0.5,0.224-0.5,0.5s0.224,0.5,0.5,0.5H59c2.757,0,5-2.243,5-5c0-2.397-1.689-4.413-4.003-4.877 C59.999,21.082,60,21.041,60,21c0-2.757-2.243-5-5-5c-1.176,0-2.293,0.416-3.183,1.164C51.219,14.76,49.055,13,46.5,13L46.5,13z"/><path fill="#472b29" d="M45,20c-1.403,0-2.609,0.999-2.913,2.341C41.72,22.119,41.301,22,40.875,22 c-1.202,0-2.198,0.897-2.353,2.068C38.319,24.022,38.126,24,37.937,24c-1.529,0-2.811,1.2-2.918,2.732 C35.01,26.87,35.114,26.99,35.251,27c0.006,0,0.012,0,0.018,0c0.13,0,0.24-0.101,0.249-0.232c0.089-1.271,1.151-2.268,2.419-2.268 c0.229,0,0.47,0.042,0.738,0.127c0.022,0.007,0.045,0.01,0.067,0.01c0.055,0,0.11-0.02,0.156-0.054 C38.962,24.537,39,24.455,39,24.375c0-1.034,0.841-1.875,1.875-1.875c0.447,0,0.885,0.168,1.231,0.473 c0.047,0.041,0.106,0.063,0.165,0.063c0.032,0,0.063-0.006,0.093-0.019c0.088-0.035,0.148-0.117,0.155-0.212 C42.623,21.512,43.712,20.5,45,20.5c0.208,0,0.425,0.034,0.682,0.107c0.023,0.007,0.047,0.01,0.07,0.01 c0.109,0,0.207-0.073,0.239-0.182c0.038-0.133-0.039-0.271-0.172-0.309C45.517,20.04,45.256,20,45,20L45,20z"/><path fill="#fff" d="M13.405,54H3.5C3.224,54,3,53.776,3,53.5S3.224,53,3.5,53h9.905c0.276,0,0.5,0.224,0.5,0.5 S13.682,54,13.405,54z"/><path fill="#fff" d="M16.5,54h-1c-0.276,0-0.5-0.224-0.5-0.5s0.224-0.5,0.5-0.5h1c0.276,0,0.5,0.224,0.5,0.5 S16.777,54,16.5,54z"/><path fill="#fff" d="M21.491,56H12.5c-0.276,0-0.5-0.224-0.5-0.5s0.224-0.5,0.5-0.5h8.991c0.276,0,0.5,0.224,0.5,0.5 S21.767,56,21.491,56z"/><path fill="#fff" d="M10.5,56h-1C9.224,56,9,55.776,9,55.5S9.224,55,9.5,55h1c0.276,0,0.5,0.224,0.5,0.5 S10.777,56,10.5,56z"/><path fill="#fff" d="M7.5,56h-2C5.224,56,5,55.776,5,55.5S5.224,55,5.5,55h2C7.776,55,8,55.224,8,55.5S7.777,56,7.5,56z"/><path fill="#fff" d="M13.5,58h-2c-0.276,0-0.5-0.224-0.5-0.5s0.224-0.5,0.5-0.5h2c0.276,0,0.5,0.224,0.5,0.5 S13.776,58,13.5,58z"/><path fill="#fff" d="M16.5,49c-0.177,0-0.823,0-1,0c-0.276,0-0.5,0.224-0.5,0.5c0,0.276,0.224,0.5,0.5,0.5 c0.177,0,0.823,0,1,0c0.276,0,0.5-0.224,0.5-0.5C17,49.224,16.776,49,16.5,49z"/><path fill="#fff" d="M16.5,51c-0.177,0-4.823,0-5,0c-0.276,0-0.5,0.224-0.5,0.5c0,0.276,0.224,0.5,0.5,0.5 c0.177,0,4.823,0,5,0c0.276,0,0.5-0.224,0.5-0.5C17,51.224,16.776,51,16.5,51z"/><path fill="#fff" d="M21.5,53c-0.177,0-2.823,0-3,0c-0.276,0-0.5,0.224-0.5,0.5c0,0.276,0.224,0.5,0.5,0.5 c0.177,0,2.823,0,3,0c0.276,0,0.5-0.224,0.5-0.5C22,53.224,21.776,53,21.5,53z"/><g><path fill="#fff" d="M33.5,78h-10c-0.276,0-0.5-0.224-0.5-0.5s0.224-0.5,0.5-0.5h10c0.276,0,0.5,0.224,0.5,0.5 S33.776,78,33.5,78z"/><path fill="#fff" d="M37.5,78h-2c-0.276,0-0.5-0.224-0.5-0.5s0.224-0.5,0.5-0.5h2c0.276,0,0.5,0.224,0.5,0.5 S37.776,78,37.5,78z"/><path fill="#fff" d="M42.5,80h-10c-0.276,0-0.5-0.224-0.5-0.5s0.224-0.5,0.5-0.5h10c0.276,0,0.5,0.224,0.5,0.5 S42.777,80,42.5,80z"/><path fill="#fff" d="M30.5,80h-1c-0.276,0-0.5-0.224-0.5-0.5s0.224-0.5,0.5-0.5h1c0.276,0,0.5,0.224,0.5,0.5 S30.776,80,30.5,80z"/><path fill="#fff" d="M27.375,80H25.5c-0.276,0-0.5-0.224-0.5-0.5s0.224-0.5,0.5-0.5h1.875c0.276,0,0.5,0.224,0.5,0.5 S27.651,80,27.375,80z"/><path fill="#fff" d="M36.5,76h-5c-0.276,0-0.5-0.224-0.5-0.5s0.224-0.5,0.5-0.5h5c0.276,0,0.5,0.224,0.5,0.5 S36.777,76,36.5,76z"/><path fill="#fff" d="M33.5,82h-2c-0.276,0-0.5-0.224-0.5-0.5s0.224-0.5,0.5-0.5h2c0.276,0,0.5,0.224,0.5,0.5 S33.776,82,33.5,82z"/></g><g><path fill="#fdfcef" d="M87.5,68.5c0,0,1.567,0,3.5,0s3.5-1.567,3.5-3.5c0-1.781-1.335-3.234-3.055-3.455 C91.473,61.366,91.5,61.187,91.5,61c0-1.933-1.567-3.5-3.5-3.5c-1.032,0-1.95,0.455-2.59,1.165 c-0.384-1.808-1.987-3.165-3.91-3.165c-2.209,0-4,1.791-4,4c0,0.191,0.03,0.374,0.056,0.558C77.128,59.714,76.592,59.5,76,59.5 c-1.228,0-2.245,0.887-2.455,2.055C73.366,61.527,73.187,61.5,73,61.5c-1.933,0-3.5,1.567-3.5,3.5s1.567,3.5,3.5,3.5s7.5,0,7.5,0 V69h7V68.5z"/><path fill="#472b29" d="M89.25,64C89.112,64,89,63.888,89,63.75c0-1.223,0.995-2.218,2.218-2.218 c0.034,0.009,0.737-0.001,1.244,0.136c0.133,0.036,0.212,0.173,0.176,0.306c-0.036,0.134-0.173,0.213-0.306,0.176 c-0.444-0.12-1.1-0.12-1.113-0.118c-0.948,0-1.719,0.771-1.719,1.718C89.5,63.888,89.388,64,89.25,64z"/><circle cx="82.5" cy="68.5" r=".5" fill="#472b29"/><path fill="#472b29" d="M91,69h-3.5c-0.276,0-0.5-0.224-0.5-0.5s0.224-0.5,0.5-0.5H91c1.654,0,3-1.346,3-3 c0-1.496-1.125-2.768-2.618-2.959c-0.134-0.018-0.255-0.088-0.336-0.196s-0.115-0.244-0.094-0.377C90.975,61.314,91,61.16,91,61 c0-1.654-1.346-3-3-3c-0.85,0-1.638,0.355-2.219,1c-0.125,0.139-0.321,0.198-0.5,0.148c-0.182-0.049-0.321-0.195-0.36-0.379 C84.58,57.165,83.141,56,81.5,56c-1.93,0-3.5,1.57-3.5,3.5c0,0.143,0.021,0.28,0.041,0.418c0.029,0.203-0.063,0.438-0.242,0.54 c-0.179,0.102-0.396,0.118-0.556-0.01C76.878,60.155,76.449,60,76,60c-0.966,0-1.792,0.691-1.963,1.644 c-0.048,0.267-0.296,0.446-0.569,0.405C73.314,62.025,73.16,62,73,62c-1.654,0-3,1.346-3,3s1.346,3,3,3h7.5 c0.276,0,0.5,0.224,0.5,0.5S80.776,69,80.5,69H73c-2.206,0-4-1.794-4-4s1.794-4,4-4c0.059,0,0.116,0.002,0.174,0.006 C73.588,59.82,74.711,59,76,59c0.349,0,0.689,0.061,1.011,0.18C77.176,56.847,79.126,55,81.5,55c1.831,0,3.466,1.127,4.153,2.774 C86.333,57.276,87.155,57,88,57c2.206,0,4,1.794,4,4c0,0.048-0.001,0.095-0.004,0.142C93.739,61.59,95,63.169,95,65 C95,67.206,93.206,69,91,69z"/><path fill="#472b29" d="M85.5,68c-0.159,0-0.841,0-1,0c-0.276,0-0.5,0.224-0.5,0.5c0,0.276,0.224,0.5,0.5,0.5 c0.159,0,0.841,0,1,0c0.276,0,0.5-0.224,0.5-0.5C86,68.224,85.776,68,85.5,68z"/></g><g><path fill="#77cbd2" d="M68.354,53H28c-1.104,0-2-0.896-2-2s0.896-2,2-2h40.354C70.916,49,73,46.981,73,44.5 S70.916,40,68.354,40c-1.879,0-3.562,1.085-4.287,2.764c-0.438,1.014-1.615,1.48-2.63,1.042c-1.014-0.438-1.48-1.616-1.042-2.629 C61.755,38.032,64.879,36,68.354,36C73.122,36,77,39.813,77,44.5S73.122,53,68.354,53z"/><path fill="#77cbd2" d="M49.354,45H32c-1.104,0-2-0.896-2-2s0.896-2,2-2h17.354C51.916,41,54,38.981,54,36.5 S51.916,32,49.354,32c-1.878,0-3.562,1.085-4.287,2.764c-0.438,1.014-1.615,1.48-2.63,1.042c-1.014-0.438-1.48-1.616-1.042-2.629 C42.755,30.032,45.879,28,49.354,28C54.122,28,58,31.813,58,36.5S54.122,45,49.354,45z"/><path fill="#77cbd2" d="M55.354,74c-3.475,0-6.599-2.032-7.959-5.176c-0.438-1.014,0.028-2.191,1.042-2.629 c1.015-0.438,2.191,0.028,2.63,1.042C51.793,68.915,53.476,70,55.354,70C57.916,70,60,67.981,60,65.5S57.916,61,55.354,61H32 c-1.104,0-2-0.896-2-2s0.896-2,2-2h23.354C60.122,57,64,60.813,64,65.5S60.122,74,55.354,74z"/><path fill="#472b29" d="M68.354,53.5h-6.167c-0.276,0-0.5-0.224-0.5-0.5s0.224-0.5,0.5-0.5h6.167 c4.491,0,8.146-3.589,8.146-8s-3.654-8-8.146-8c-3.276,0-6.22,1.913-7.5,4.875c-0.159,0.368-0.165,0.775-0.018,1.148 s0.432,0.665,0.799,0.824c0.759,0.328,1.646-0.022,1.973-0.781c0.805-1.862,2.668-3.065,4.746-3.065c2.837,0,5.146,2.243,5.146,5 s-2.309,5-5.146,5H41.438c-0.276,0-0.5-0.224-0.5-0.5s0.224-0.5,0.5-0.5h26.917c2.286,0,4.146-1.794,4.146-4s-1.859-4-4.146-4 c-1.679,0-3.182,0.966-3.828,2.462c-0.548,1.265-2.021,1.849-3.287,1.303c-0.613-0.265-1.086-0.753-1.332-1.374 s-0.235-1.3,0.029-1.913c1.438-3.328,4.743-5.478,8.418-5.478c5.043,0,9.146,4.037,9.146,9S73.397,53.5,68.354,53.5z"/><path fill="#472b29" d="M59.563,53.5H28c-1.378,0-2.5-1.122-2.5-2.5s1.122-2.5,2.5-2.5h8.75c0.276,0,0.5,0.224,0.5,0.5 s-0.224,0.5-0.5,0.5H28c-0.827,0-1.5,0.673-1.5,1.5s0.673,1.5,1.5,1.5h31.563c0.276,0,0.5,0.224,0.5,0.5S59.839,53.5,59.563,53.5z"/><path fill="#472b29" d="M49.354,45.5H32c-1.378,0-2.5-1.122-2.5-2.5s1.122-2.5,2.5-2.5h2.75c0.276,0,0.5,0.224,0.5,0.5 s-0.224,0.5-0.5,0.5H32c-0.827,0-1.5,0.673-1.5,1.5s0.673,1.5,1.5,1.5h17.354c4.491,0,8.146-3.589,8.146-8s-3.654-8-8.146-8 c-3.275,0-6.219,1.913-7.5,4.875c-0.328,0.759,0.022,1.644,0.781,1.972c0.758,0.328,1.644-0.023,1.973-0.781 c0.805-1.862,2.667-3.065,4.746-3.065c2.837,0,5.146,2.243,5.146,5s-2.309,5-5.146,5c-0.276,0-0.5-0.224-0.5-0.5 s0.224-0.5,0.5-0.5c2.286,0,4.146-1.794,4.146-4s-1.859-4-4.146-4c-1.679,0-3.182,0.966-3.828,2.462 c-0.547,1.265-2.02,1.85-3.287,1.303c-1.265-0.547-1.85-2.021-1.303-3.287c1.439-3.328,4.743-5.478,8.418-5.478 c5.043,0,9.146,4.037,9.146,9S54.397,45.5,49.354,45.5z"/><path fill="#472b29" d="M46,41.5h-8c-0.276,0-0.5-0.224-0.5-0.5s0.224-0.5,0.5-0.5h8c0.276,0,0.5,0.224,0.5,0.5 S46.276,41.5,46,41.5z"/><path fill="#472b29" d="M55.354,74.5c-3.675,0-6.979-2.15-8.418-5.478c-0.547-1.266,0.038-2.74,1.303-3.287 c1.267-0.546,2.74,0.039,3.287,1.302c0.646,1.496,2.149,2.462,3.828,2.462c2.286,0,4.146-1.794,4.146-4s-1.859-4-4.146-4H32 c-1.378,0-2.5-1.122-2.5-2.5s1.122-2.5,2.5-2.5h7.938v1H32c-0.827,0-1.5,0.673-1.5,1.5s0.673,1.5,1.5,1.5h23.354 c2.837,0,5.146,2.243,5.146,5s-2.309,5-5.146,5c-2.078,0-3.941-1.203-4.746-3.065c-0.329-0.758-1.214-1.11-1.973-0.781 c-0.758,0.328-1.109,1.213-0.781,1.972c1.281,2.961,4.225,4.875,7.5,4.875c4.491,0,8.146-3.589,8.146-8s-3.654-8-8.146-8H44v-1 h11.354c5.043,0,9.146,4.037,9.146,9S60.397,74.5,55.354,74.5z"/></g></svg>