<?xml version="1.0" encoding="UTF-8"?><svg id="_-crescent_moon" xmlns="http://www.w3.org/2000/svg" viewBox="0 0 64 64"><g><path d="M41.811,7.23c1.575,3.352,2.459,7.092,2.459,11.041,0,14.359-11.641,26-26,26-3.948,0-7.689-.884-11.041-2.459,4.152,8.838,13.13,14.959,23.541,14.959,14.359,0,26-11.641,26-26,0-10.411-6.121-19.388-14.959-23.541Z" fill="#fcea81"/><polygon points="10 1 12 8 19 8 13.438 12.22 16 19 10 14.952 4 19 6.562 12.22 1 8 8 8 10 1" fill="#dbb55c"/><polygon points="29 13 31 20 38 20 32.438 24.22 35 31 29 26.952 23 31 25.562 24.22 20 20 27 20 29 13" fill="#dbb55c"/><polygon points="57 51 58.416 55 63 55 59.292 58.015 61 63 57 60 53 63 54.708 58.015 51 55 55.584 55 57 51" fill="#dbb55c"/></g><g><path d="M30.771,57.771c-10.417,0-20.013-6.098-24.446-15.534-.179-.381-.1-.834,.198-1.132,.298-.298,.752-.376,1.132-.198,3.34,1.569,6.911,2.365,10.616,2.365,13.785,0,25-11.215,25-25,0-3.704-.795-7.275-2.364-10.616-.179-.382-.1-.834,.198-1.132,.297-.298,.752-.376,1.132-.198,9.437,4.434,15.534,14.03,15.534,24.446,0,14.888-12.112,27-27,27Zm-21.342-13.984c4.504,7.358,12.611,11.984,21.342,11.984,13.785,0,25-11.215,25-25,0-8.73-4.626-16.838-11.984-21.342,.986,2.833,1.484,5.797,1.484,8.842,0,14.888-12.112,27-27,27-3.046,0-6.01-.498-8.842-1.484Z"/><path d="M16,20c-.194,0-.39-.057-.56-.171l-5.44-3.671-5.44,3.671c-.361,.243-.84,.226-1.18-.045-.342-.27-.47-.73-.315-1.138l2.299-6.081L.396,8.797c-.342-.26-.48-.708-.344-1.116,.138-.407,.519-.681,.948-.681H7.246L9.038,.725c.123-.429,.516-.725,.962-.725s.839,.296,.962,.725l1.792,6.275h6.246c.43,0,.811,.274,.948,.681,.137,.407-.002,.856-.344,1.116l-4.968,3.769,2.299,6.081c.154,.407,.026,.868-.315,1.138-.181,.144-.4,.216-.62,.216Zm-6-6.048c.195,0,.391,.057,.56,.171l3.394,2.29-1.451-3.839c-.156-.415-.021-.882,.331-1.15l3.194-2.423h-4.027c-.446,0-.839-.296-.962-.725l-1.038-3.635-1.038,3.635c-.123,.429-.516,.725-.962,.725H3.973l3.194,2.423c.353,.268,.487,.736,.331,1.15l-1.451,3.839,3.394-2.29c.169-.114,.364-.171,.56-.171Z"/><path d="M35,32c-.194,0-.39-.057-.56-.171l-5.44-3.671-5.44,3.671c-.361,.244-.839,.226-1.18-.045-.342-.27-.47-.73-.315-1.138l2.299-6.081-4.968-3.769c-.342-.26-.48-.708-.344-1.116,.138-.407,.519-.681,.948-.681h6.246l1.792-6.275c.123-.429,.516-.725,.962-.725s.839,.296,.962,.725l1.792,6.275h6.246c.43,0,.811,.274,.948,.681,.137,.407-.002,.856-.344,1.116l-4.968,3.769,2.299,6.081c.154,.407,.026,.868-.315,1.138-.181,.144-.4,.216-.62,.216Zm-6-6.048c.195,0,.391,.057,.56,.171l3.394,2.29-1.451-3.839c-.156-.415-.021-.882,.331-1.15l3.194-2.423h-4.027c-.446,0-.839-.296-.962-.725l-1.038-3.635-1.038,3.635c-.123,.429-.516,.725-.962,.725h-4.027l3.194,2.423c.353,.268,.487,.736,.331,1.15l-1.451,3.839,3.394-2.29c.169-.114,.364-.171,.56-.171Z"/><path d="M61,63.999c-.211,0-.422-.067-.6-.2l-3.4-2.55-3.4,2.55c-.351,.264-.833,.268-1.188,.009-.355-.258-.5-.717-.358-1.133l1.482-4.325-3.167-2.575c-.328-.267-.453-.712-.312-1.111,.142-.398,.52-.665,.942-.665h3.877l1.181-3.333c.141-.399,.519-.667,.942-.667s.802,.267,.942,.667l1.181,3.333h3.877c.423,0,.801,.267,.942,.665,.142,.399,.017,.844-.312,1.111l-3.167,2.575,1.482,4.325c.142,.416-.003,.875-.358,1.133-.175,.128-.382,.191-.588,.191Zm-4-5c.211,0,.422,.067,.6,.2l1.401,1.05-.655-1.911c-.136-.396-.01-.835,.315-1.1l1.524-1.239h-1.77c-.424,0-.802-.267-.942-.667l-.474-1.337-.474,1.337c-.141,.399-.519,.667-.942,.667h-1.77l1.524,1.239c.325,.265,.451,.704,.315,1.1l-.655,1.911,1.401-1.05c.178-.133,.389-.2,.6-.2Z"/></g></svg>