<svg xmlns="http://www.w3.org/2000/svg"  viewBox="0 0 100 100" width="100px" height="100px"><path fill="#c7ede6" d="M87.215,56.71C88.35,54.555,89,52.105,89,49.5c0-6.621-4.159-12.257-10.001-14.478 C78.999,35.015,79,35.008,79,35c0-11.598-9.402-21-21-21c-9.784,0-17.981,6.701-20.313,15.757C36.211,29.272,34.638,29,33,29 c-7.692,0-14.023,5.793-14.89,13.252C12.906,43.353,9,47.969,9,53.5C9,59.851,14.149,65,20.5,65c0.177,0,0.352-0.012,0.526-0.022 C21.022,65.153,21,65.324,21,65.5C21,76.822,30.178,86,41.5,86c6.437,0,12.175-2.972,15.934-7.614C59.612,80.611,62.64,82,66,82 c4.65,0,8.674-2.65,10.666-6.518C77.718,75.817,78.837,76,80,76c6.075,0,11-4.925,11-11C91,61.689,89.53,58.727,87.215,56.71z"/><path fill="#fff" d="M17.405 53H7.5C7.224 53 7 52.776 7 52.5S7.224 52 7.5 52h9.905c.276 0 .5.224.5.5S17.682 53 17.405 53zM20.5 53h-1c-.276 0-.5-.224-.5-.5s.224-.5.5-.5h1c.276 0 .5.224.5.5S20.777 53 20.5 53zM25.491 55H16.5c-.276 0-.5-.224-.5-.5s.224-.5.5-.5h8.991c.276 0 .5.224.5.5S25.767 55 25.491 55zM14.5 55h-1c-.276 0-.5-.224-.5-.5s.224-.5.5-.5h1c.276 0 .5.224.5.5S14.777 55 14.5 55zM11.5 55h-2C9.224 55 9 54.776 9 54.5S9.224 54 9.5 54h2c.276 0 .5.224.5.5S11.777 55 11.5 55zM17.5 57h-2c-.276 0-.5-.224-.5-.5s.224-.5.5-.5h2c.276 0 .5.224.5.5S17.776 57 17.5 57zM20.5 48c-.177 0-.823 0-1 0-.276 0-.5.224-.5.5 0 .276.224.5.5.5.177 0 .823 0 1 0 .276 0 .5-.224.5-.5C21 48.224 20.776 48 20.5 48zM20.5 50c-.177 0-4.823 0-5 0-.276 0-.5.224-.5.5 0 .276.224.5.5.5.177 0 4.823 0 5 0 .276 0 .5-.224.5-.5C21 50.224 20.776 50 20.5 50zM25.5 52c-.177 0-2.823 0-3 0-.276 0-.5.224-.5.5 0 .276.224.5.5.5.177 0 2.823 0 3 0 .276 0 .5-.224.5-.5C26 52.224 25.776 52 25.5 52z"/><g><path fill="#fff" d="M70 23H60c-.276 0-.5-.224-.5-.5S59.724 22 60 22h10c.276 0 .5.224.5.5S70.276 23 70 23zM74 23h-2c-.276 0-.5-.224-.5-.5S71.724 22 72 22h2c.276 0 .5.224.5.5S74.276 23 74 23zM79 25H69c-.276 0-.5-.224-.5-.5S68.724 24 69 24h10c.276 0 .5.224.5.5S79.277 25 79 25zM67 25h-1c-.276 0-.5-.224-.5-.5S65.724 24 66 24h1c.276 0 .5.224.5.5S67.276 25 67 25zM63.875 25H62c-.276 0-.5-.224-.5-.5S61.724 24 62 24h1.875c.276 0 .5.224.5.5S64.151 25 63.875 25zM73 21h-5c-.276 0-.5-.224-.5-.5S67.724 20 68 20h5c.276 0 .5.224.5.5S73.277 21 73 21zM70 27h-2c-.276 0-.5-.224-.5-.5S67.724 26 68 26h2c.276 0 .5.224.5.5S70.276 27 70 27z"/></g><g><path fill="#fdfcef" d="M79,43h5.75c2.485,0.75,4.5-1.265,4.5-3.75c0-2.333-1.782-4.229-4.055-4.455 c0.022-0.181,0.055-0.358,0.055-0.545c0-2.485-2.015-4.5-4.5-4.5c-1.438,0-2.703,0.686-3.527,1.736 c-0.14-2.636-2.302-4.736-4.973-4.736c-2.761,0-5,2.239-5,5c0,0.446,0.077,0.87,0.187,1.282c-0.642-0.777-1.6-1.282-2.687-1.282 c-1.781,0-3.234,1.335-3.455,3.055c-0.181-0.022-0.358-0.055-0.545-0.055c-2.485,0-4.5,2.015-4.5,4.5s2.015,4.5,4.5,3.75h9.5H76v1 h3V43z"/><path fill="#472b29" d="M72.5,26c-3.033,0-5.5,2.467-5.5,5.5c0,0.016,0,0.031,0,0.047C66.398,31.192,65.71,31,65,31 c-1.831,0-3.411,1.261-3.858,3.005C61.095,34.002,61.048,34,61,34c-3.099,0-5.549,2.834-4.893,6.047 C56.587,42.398,58.796,44,61.196,44l14.679,0c0.276,0,0.5-0.224,0.5-0.5s-0.224-0.5-0.5-0.5l-14.718,0 c-1.92,0-3.687-1.282-4.071-3.163C56.561,37.267,58.521,35,61,35c0.117,0,0.23,0.017,0.343,0.032l0.141,0.019 c0.021,0.003,0.041,0.004,0.062,0.004c0.246,0,0.462-0.185,0.495-0.437C62.232,33.125,63.504,32,65,32 c0.885,0,1.723,0.401,2.301,1.1c0.098,0.118,0.241,0.182,0.386,0.182c0.078,0,0.156-0.018,0.228-0.056 c0.209-0.107,0.314-0.346,0.254-0.573c-0.16-0.6-0.202-1.069-0.147-1.549c0.24-2.127,1.959-3.909,4.092-4.088 c2.551-0.215,4.725,1.728,4.859,4.246c0.011,0.208,0.15,0.387,0.349,0.45c0.05,0.016,0.101,0.024,0.152,0.024 c0.15,0,0.296-0.069,0.392-0.192C78.638,30.563,79.779,30,81,30c2.206,0,4,1.794,4,4c0,0.117-0.017,0.23-0.032,0.343l-0.019,0.141 c-0.016,0.134,0.022,0.268,0.106,0.373c0.084,0.105,0.207,0.172,0.34,0.185c2.352,0.234,4.042,2.429,3.504,4.865 C88.491,41.76,86.725,43,84.827,43l-5.952,0c-0.276,0-0.5,0.224-0.5,0.5s0.224,0.5,0.5,0.5l5.938,0 c2.467,0,4.708-1.704,5.115-4.138c0.462-2.763-1.344-5.22-3.931-5.74C85.999,34.082,86,34.041,86,34c0-2.757-2.243-5-5-5 c-1.176,0-2.293,0.416-3.183,1.164C77.219,27.76,75.055,26,72.5,26L72.5,26z"/><path fill="#472b29" d="M70.75 33.25c-1.403 0-2.609.999-2.913 2.341-.367-.222-.786-.341-1.212-.341-1.202 0-2.198.897-2.353 2.068-.203-.045-.396-.068-.585-.068-1.529 0-2.811 1.2-2.918 2.732-.009.138.094.257.232.267.006 0 .012 0 .018 0 .13 0 .24-.101.249-.232.089-1.271 1.151-2.268 2.419-2.268.229 0 .47.042.738.127.022.007.045.01.067.01.055 0 .11-.02.156-.054.064-.047.102-.129.102-.209 0-1.034.841-1.875 1.875-1.875.447 0 .885.168 1.231.473.047.041.106.063.165.063.032 0 .063-.006.093-.019.088-.035.148-.117.155-.212.102-1.292 1.191-2.305 2.479-2.305.208 0 .425.034.682.107.023.007.047.01.07.01.109 0 .207-.073.239-.182.038-.133-.039-.271-.172-.309C71.267 33.29 71.006 33.25 70.75 33.25L70.75 33.25zM84.633 34.75c-1.326 0-2.508.897-2.874 2.182-.038.133.039.271.172.309.023.007.046.01.068.01.109 0 .209-.072.24-.182.305-1.071 1.289-1.818 2.393-1.818.117 0 .23.014.342.029.012.002.023.003.035.003.121 0 .229-.092.246-.217.019-.137-.077-.263-.214-.281C84.908 34.766 84.772 34.75 84.633 34.75L84.633 34.75z"/></g><g><path fill="#78cdd4" d="M31.233,50.3c-3.051,0-5.533-2.462-5.533-5.488c0-3.027,2.482-5.489,5.533-5.489l0.602,0.017 l0.196-0.588c0.502-2.807,2.952-4.844,5.826-4.844c0.481,0,0.979,0.064,1.477,0.192l0.499,0.129l0.271-0.439 c1.446-2.349,3.956-3.75,6.715-3.75c3.831,0,7.089,2.718,7.745,6.463l0.088,0.502l0.505,0.07 c3.288,0.458,5.767,3.285,5.767,6.576c0,3.534-2.788,6.447-6.349,6.631L54.215,50.3H31.233z"/><path fill="#472b29" d="M46.818,30.739c3.491,0,6.458,2.475,7.056,5.884l0.176,1.004l1.01,0.141 c2.943,0.409,5.162,2.938,5.162,5.883c0,3.161-2.497,5.766-5.685,5.932L54.273,49.6H31.234c-2.665,0-4.834-2.148-4.834-4.789 c0-2.631,2.153-4.773,4.805-4.789c0.039,0.003,0.079,0.005,0.119,0.005l1.188,0.016l0.209-1.169 c0.442-2.473,2.602-4.268,5.137-4.268c0.421,0,0.86,0.058,1.304,0.171l0.999,0.255l0.54-0.878 C42.018,32.017,44.305,30.739,46.818,30.739 M46.818,29.339c-3.098,0-5.804,1.637-7.31,4.083 c-0.529-0.135-1.08-0.215-1.651-0.215c-3.26,0-5.964,2.341-6.515,5.421c-0.036,0-0.072-0.005-0.108-0.005 c-3.443,0-6.234,2.771-6.234,6.188C25,48.229,27.791,51,31.234,51H54.61v-0.02c3.906-0.203,7.013-3.401,7.013-7.33 c0-3.71-2.772-6.77-6.37-7.27C54.552,32.382,51.047,29.339,46.818,29.339L46.818,29.339z"/><path fill="#39c2d8" d="M40.24,69.3c-4.268,0-7.739-3.499-7.739-7.801c0-4.301,3.472-7.8,7.739-7.8l0.147,0.007h0.588 l0.102-0.579c0.701-3.979,4.12-6.866,8.131-6.866c0.67,0,1.363,0.092,2.061,0.272l0.504,0.131l0.271-0.445 c2.004-3.301,5.479-5.271,9.298-5.271c5.308,0,9.821,3.823,10.732,9.092l0.087,0.503l0.505,0.071 c4.573,0.645,8.021,4.639,8.021,9.291c0,4.993-3.879,9.108-8.832,9.368L71.352,69.3H40.24z"/><path fill="#472b29" d="M61.341,41.648c4.966,0,9.189,3.58,10.042,8.512l0.174,1.005l1.01,0.143 c4.23,0.597,7.42,4.293,7.42,8.599c0,4.62-3.588,8.428-8.169,8.669L71.476,68.6H40.241c-3.882,0-7.04-3.186-7.04-7.101 s3.158-7.101,7.015-7.101c0.053,0.004,0.105,0.007,0.159,0.007l1.186,0.012l0.206-1.168c0.642-3.644,3.772-6.289,7.442-6.289 c0.611,0,1.245,0.084,1.884,0.25l1.008,0.261l0.54-0.89C54.517,43.493,57.769,41.648,61.341,41.648 M61.341,40.248 c-4.195,0-7.858,2.25-9.897,5.607c-0.716-0.186-1.462-0.294-2.236-0.294c-4.414,0-8.075,3.215-8.821,7.445 c-0.049,0-0.097-0.007-0.147-0.007c-4.661,0-8.44,3.806-8.44,8.5s3.779,8.5,8.44,8.5h31.651v-0.027 c5.289-0.278,9.495-4.672,9.495-10.067c0-5.096-3.753-9.298-8.625-9.985C71.812,44.428,67.067,40.248,61.341,40.248 L61.341,40.248z"/><path fill="#39c2d8" d="M73.801,55.567c2.485,1.817,2.964,5.29,1.139,7.987"/><path fill="#472b29" d="M74.94,64.054c-0.097,0-0.194-0.027-0.28-0.086c-0.229-0.155-0.288-0.466-0.134-0.694 c1.692-2.5,1.254-5.64-1.02-7.303c-0.223-0.163-0.271-0.476-0.108-0.698c0.163-0.224,0.478-0.271,0.698-0.108 c2.673,1.954,3.226,5.763,1.258,8.67C75.258,63.977,75.101,64.054,74.94,64.054z"/><path fill="#39c2d8" d="M67.847,49.717c0.539,1.313,0.846,2.875,0.833,4.663c1.037-0.098,1.971-0.037,2.797,0.152"/><path fill="#472b29" d="M71.478,55.032c-0.036,0-0.074-0.004-0.111-0.013c-0.804-0.183-1.691-0.229-2.639-0.142 c-0.142,0.007-0.28-0.035-0.385-0.13s-0.163-0.23-0.162-0.372c0.012-1.65-0.256-3.154-0.796-4.47 c-0.104-0.255,0.018-0.547,0.273-0.652c0.253-0.103,0.547,0.019,0.652,0.273c0.53,1.292,0.82,2.742,0.864,4.317 c0.854-0.034,1.663,0.029,2.414,0.2c0.27,0.062,0.438,0.329,0.376,0.599C71.912,54.875,71.706,55.032,71.478,55.032z"/><path fill="#39c2d8" d="M63.931,45.464c1.15,0.521,2.185,1.379,2.994,2.545"/><path fill="#472b29" d="M66.925,48.51c-0.158,0-0.314-0.075-0.411-0.216c-0.732-1.058-1.697-1.88-2.789-2.375 c-0.251-0.114-0.362-0.41-0.248-0.662c0.113-0.251,0.412-0.359,0.662-0.248c1.256,0.57,2.362,1.509,3.197,2.717 c0.157,0.227,0.101,0.538-0.127,0.695C67.122,48.481,67.023,48.51,66.925,48.51z"/><path fill="#39c2d8" d="M56.78,46.446c1.658-1.269,3.525-1.747,5.281-1.517"/><path fill="#472b29" d="M56.779,46.946c-0.15,0-0.299-0.067-0.397-0.196c-0.167-0.219-0.126-0.533,0.094-0.701 c1.695-1.296,3.702-1.863,5.65-1.615c0.273,0.036,0.466,0.287,0.431,0.562c-0.036,0.273-0.296,0.463-0.562,0.431 c-1.683-0.219-3.428,0.282-4.912,1.418C56.992,46.913,56.886,46.946,56.779,46.946z"/><g><path fill="#39c2d8" d="M50.833,35.952c0.341,0.723,0.489,1.562,0.4,2.457"/><path fill="#472b29" d="M51.234,38.909c-0.017,0-0.033-0.001-0.051-0.003c-0.274-0.026-0.475-0.271-0.447-0.547 c0.077-0.779-0.046-1.538-0.355-2.193c-0.118-0.25-0.011-0.548,0.238-0.666c0.25-0.112,0.549-0.012,0.666,0.238 c0.387,0.819,0.541,1.761,0.445,2.721C51.705,38.717,51.488,38.909,51.234,38.909z"/></g><g><path fill="#39c2d8" d="M46.413,33.009c1.321,0.068,2.418,0.604,3.171,1.435"/><path fill="#472b29" d="M49.584,34.944c-0.136,0-0.271-0.056-0.37-0.164c-0.69-0.762-1.694-1.214-2.826-1.272 c-0.276-0.014-0.488-0.249-0.474-0.524c0.014-0.276,0.254-0.494,0.524-0.474c1.398,0.072,2.647,0.64,3.516,1.599 c0.186,0.205,0.17,0.521-0.034,0.706C49.824,34.901,49.704,34.944,49.584,34.944z"/></g><g><path fill="#39c2d8" d="M37.217,59.315c0.697-1.138,1.953-1.898,3.385-1.898"/><path fill="#472b29" d="M37.217,59.815c-0.09,0-0.18-0.023-0.261-0.073c-0.236-0.145-0.31-0.452-0.166-0.688 c0.82-1.339,2.244-2.138,3.812-2.138c0.276,0,0.5,0.224,0.5,0.5s-0.224,0.5-0.5,0.5c-1.216,0-2.322,0.62-2.958,1.659 C37.549,59.73,37.385,59.815,37.217,59.815z"/></g><g><path fill="#39c2d8" d="M40.602,65.351c-2.191,0-3.967-1.776-3.967-3.967"/><path fill="#472b29" d="M40.602,65.852c-2.463,0-4.467-2.004-4.467-4.467c0-0.276,0.224-0.5,0.5-0.5s0.5,0.224,0.5,0.5 c0,1.911,1.556,3.467,3.467,3.467c0.276,0,0.5,0.224,0.5,0.5S40.878,65.852,40.602,65.852z"/></g><g><path fill="#39c2d8" d="M28.63,45.089c0.041-1.673,1.43-2.997,3.103-2.956"/><path fill="#472b29" d="M28.63,45.589c-0.004,0-0.008,0-0.013,0c-0.275-0.007-0.494-0.236-0.487-0.513 c0.048-1.945,1.659-3.491,3.615-3.444c0.276,0.007,0.495,0.236,0.488,0.512c-0.007,0.277-0.198,0.527-0.512,0.488 c-0.021-0.001-0.041-0.001-0.062-0.001c-1.367,0-2.497,1.096-2.53,2.471C29.123,45.373,28.9,45.589,28.63,45.589z"/></g></g><g><path fill="#fdfcef" d="M31.25,74.5c0,0-1.567,0-3.5,0s-3.5-1.567-3.5-3.5c0-1.781,1.335-3.234,3.055-3.455 C27.277,67.366,27.25,67.187,27.25,67c0-1.933,1.567-3.5,3.5-3.5c1.032,0,1.95,0.455,2.59,1.165 c0.384-1.808,1.987-3.165,3.91-3.165c2.209,0,4,1.791,4,4c0,0.191-0.03,0.374-0.056,0.558c0.428-0.344,0.965-0.558,1.556-0.558 c1.228,0,2.245,0.887,2.455,2.055c0.179-0.028,0.358-0.055,0.545-0.055c1.933,0,3.5,1.567,3.5,3.5s-1.567,3.5-3.5,3.5 s-7.5,0-7.5,0V75h-7V74.5z"/><path fill="#472b29" d="M29.5 70c.138 0 .25-.112.25-.25 0-1.223-.995-2.218-2.218-2.218-.034.009-.737-.001-1.244.136-.133.036-.212.173-.176.306.036.134.173.213.306.176.444-.12 1.1-.12 1.113-.118.948 0 1.719.771 1.719 1.718C29.25 69.888 29.362 70 29.5 70zM36.25 74A.5.5 0 1 0 36.25 75 .5.5 0 1 0 36.25 74z"/><path fill="#472b29" d="M27.75,75h3.5c0.276,0,0.5-0.224,0.5-0.5s-0.224-0.5-0.5-0.5h-3.5c-1.654,0-3-1.346-3-3 c0-1.496,1.125-2.768,2.618-2.959c0.134-0.018,0.255-0.088,0.336-0.196s0.115-0.244,0.094-0.377 C27.775,67.314,27.75,67.16,27.75,67c0-1.654,1.346-3,3-3c0.85,0,1.638,0.355,2.219,1c0.125,0.139,0.321,0.198,0.5,0.148 c0.182-0.049,0.321-0.195,0.36-0.379C34.17,63.165,35.609,62,37.25,62c1.93,0,3.5,1.57,3.5,3.5c0,0.143-0.021,0.28-0.041,0.418 c-0.029,0.203,0.063,0.438,0.242,0.54c0.179,0.102,0.396,0.118,0.556-0.01C41.872,66.155,42.301,66,42.75,66 c0.966,0,1.792,0.691,1.963,1.644c0.048,0.267,0.296,0.446,0.569,0.405C45.436,68.025,45.59,68,45.75,68c1.654,0,3,1.346,3,3 s-1.346,3-3,3h-7.5c-0.276,0-0.5,0.224-0.5,0.5s0.224,0.5,0.5,0.5h7.5c2.206,0,4-1.794,4-4s-1.794-4-4-4 c-0.059,0-0.116,0.002-0.174,0.006C45.162,65.82,44.039,65,42.75,65c-0.349,0-0.689,0.061-1.011,0.18 C41.574,62.847,39.624,61,37.25,61c-1.831,0-3.466,1.127-4.153,2.774C32.417,63.276,31.595,63,30.75,63c-2.206,0-4,1.794-4,4 c0,0.048,0.001,0.095,0.004,0.142C25.011,67.59,23.75,69.169,23.75,71C23.75,73.206,25.544,75,27.75,75z"/><path fill="#472b29" d="M33.25,74c0.159,0,0.841,0,1,0c0.276,0,0.5,0.224,0.5,0.5c0,0.276-0.224,0.5-0.5,0.5 c-0.159,0-0.841,0-1,0c-0.276,0-0.5-0.224-0.5-0.5C32.75,74.224,32.974,74,33.25,74z"/></g></svg>