<?xml version="1.0" encoding="utf-8"?>
<!-- Generator: Adobe Illustrator 25.3.1, SVG Export Plug-In . SVG Version: 6.00 Build 0)  -->
<svg version="1.1" xmlns="http://www.w3.org/2000/svg" xmlns:xlink="http://www.w3.org/1999/xlink" x="0px" y="0px"
	 viewBox="0 0 512 512" enable-background="new 0 0 512 512" xml:space="preserve">
<g id="_x33_0_1_">
</g>
<g id="_x32_9">
</g>
<g id="_x32_8">
</g>
<g id="_x32_7">
</g>
<g id="_x32_6">
</g>
<g id="_x32_5">
</g>
<g id="_x32_4">
</g>
<g id="_x32_3">
</g>
<g id="_x32_2">
</g>
<g id="_x32_1">
</g>
<g id="_x32_0">
</g>
<g id="_x31_9">
</g>
<g id="_x31_8">
</g>
<g id="_x31_7">
</g>
<g id="_x31_6">
</g>
<g id="_x31_5">
</g>
<g id="_x31_4">
</g>
<g id="_x31_3">
	<g>
		<g>
			<path fill="#ABDF92" d="M504.5,126V86c0-22.1-17.9-40-40-40h-417c-22.1,0-40,17.9-40,40v40H504.5z"/>
		</g>
		<g>
			<path fill="#95D87B" d="M207.5,126V86c0-22.1,17.9-40,40-40h-200c-22.1,0-40,17.9-40,40v40H207.5z"/>
		</g>
		<g>
			<path fill="#BFE7AD" d="M504.5,166v-40c0-22.1-17.9-40-40-40h-417c-22.1,0-40,17.9-40,40v40H504.5z"/>
		</g>
		<g>
			<path fill="#ABDF92" d="M167.5,166v-40c0-22.1,17.9-40,40-40h-160c-22.1,0-40,17.9-40,40v40H167.5z"/>
		</g>
		<g>
			<path fill="#ABDF92" d="M504.5,206v-40c0-22.1-17.9-40-40-40h-417c-22.1,0-40,17.9-40,40v40H504.5z"/>
		</g>
		<g>
			<path fill="#95D87B" d="M127.5,206v-40c0-22.1,17.9-40,40-40h-120c-22.1,0-40,17.9-40,40v40H127.5z"/>
		</g>
		<g>
			<path fill="#BFE7AD" d="M464.5,466h-417c-22.1,0-40-17.9-40-40V206c0-22.1,17.9-40,40-40h417c22.1,0,40,17.9,40,40v220
				C504.5,448.1,486.6,466,464.5,466z"/>
		</g>
		<g>
			<path fill="#ABDF92" d="M87.5,426V206c0-22.1,17.9-40,40-40h-80c-22.1,0-40,17.9-40,40v220c0,22.1,17.9,40,40,40h80
				C105.4,466,87.5,448.1,87.5,426z"/>
		</g>
		<g>
			<path fill="#95D87B" d="M464.5,386V246c-22.1,0-40-17.9-40-40h-337c0,22.1-17.9,40-40,40v140c22.1,0,40,17.9,40,40h337
				C424.5,403.9,442.4,386,464.5,386z"/>
		</g>
		<g>
			<path fill="#80D061" d="M47.5,246v140c22.1,0,40,17.9,40,40V206C87.5,228.1,69.6,246,47.5,246z"/>
		</g>
		<g>
			<circle fill="#BFE7AD" cx="256" cy="316" r="70"/>
		</g>
		<g>
			<path fill="#ABDF92" d="M241,371c0-8.3,6.7-15,15-15v-80c-8.3,0-15-6.7-15-15c0-8.3,6.7-15,15-15c-38.7,0-70,31.3-70,70
				c0,38.7,31.3,70,70,70C247.7,386,241,379.3,241,371z"/>
		</g>
		<g>
			<circle fill="#95D87B" cx="256" cy="316" r="40"/>
		</g>
		<g>
			<circle fill="#BFE7AD" cx="395.2" cy="316" r="20"/>
		</g>
		<g>
			<circle fill="#BFE7AD" cx="116.8" cy="316" r="20"/>
		</g>
		<g>
			<path d="M464.5,38.5h-417C21.3,38.5,0,59.8,0,86v340c0,26.2,21.3,47.5,47.5,47.5h417c26.2,0,47.5-21.3,47.5-47.5V86
				C512,59.8,490.7,38.5,464.5,38.5z M47.5,53.5h417c17.9,0,32.5,14.6,32.5,32.5v5.4c-8.5-8-19.9-12.9-32.5-12.9H420
				c-4.1,0-7.5,3.4-7.5,7.5s3.4,7.5,7.5,7.5h44.5c17.9,0,32.5,14.6,32.5,32.5v5.4c-8.5-8-19.9-12.9-32.5-12.9H103.9
				c-4.1,0-7.5,3.4-7.5,7.5s3.4,7.5,7.5,7.5h360.6c17.9,0,32.5,14.6,32.5,32.5v5.4c-8.5-8-19.9-12.9-32.5-12.9h-417
				c-12.6,0-24,4.9-32.5,12.9V166c0-17.9,14.6-32.5,32.5-32.5h26.4c4.1,0,7.5-3.4,7.5-7.5s-3.4-7.5-7.5-7.5H47.5
				c-12.6,0-24,4.9-32.5,12.9V126c0-17.9,14.6-32.5,32.5-32.5H360c4.1,0,7.5-3.4,7.5-7.5s-3.4-7.5-7.5-7.5H47.5
				c-12.6,0-24,4.9-32.5,12.9V86C15,68.1,29.6,53.5,47.5,53.5z M497,426c0,17.9-14.6,32.5-32.5,32.5h-417
				C29.6,458.5,15,443.9,15,426V206c0-17.9,14.6-32.5,32.5-32.5h417c17.9,0,32.5,14.6,32.5,32.5V426z"/>
			<path d="M464.5,238.5c-17.9,0-32.5-14.6-32.5-32.5c0-4.1-3.4-7.5-7.5-7.5h-337c-4.1,0-7.5,3.4-7.5,7.5
				c0,17.9-14.6,32.5-32.5,32.5c-4.1,0-7.5,3.4-7.5,7.5v140c0,4.1,3.4,7.5,7.5,7.5c17.9,0,32.5,14.6,32.5,32.5
				c0,4.1,3.4,7.5,7.5,7.5h247.7c4.1,0,7.5-3.4,7.5-7.5s-3.4-7.5-7.5-7.5H94.4c-3.2-20.2-19.2-36.2-39.4-39.4V252.9
				c20.2-3.2,36.2-19.2,39.4-39.4h323.2c3.2,20.2,19.2,36.2,39.4,39.4v126.2c-20.2,3.2-36.2,19.2-39.4,39.4h-52.4
				c-4.1,0-7.5,3.4-7.5,7.5s3.4,7.5,7.5,7.5h59.3c4.1,0,7.5-3.4,7.5-7.5c0-17.9,14.6-32.5,32.5-32.5c4.1,0,7.5-3.4,7.5-7.5V246
				C472,241.9,468.6,238.5,464.5,238.5z"/>
			<path d="M256,393.5c42.7,0,77.5-34.8,77.5-77.5s-34.8-77.5-77.5-77.5c-29.6,0-57,17.3-69.9,44c-1.8,3.7-0.2,8.2,3.5,10
				c3.7,1.8,8.2,0.2,10-3.5c10.4-21.5,32.5-35.5,56.4-35.5c34.5,0,62.5,28,62.5,62.5s-28,62.5-62.5,62.5c-23.9,0-46-13.9-56.4-35.4
				c-1.8-3.7-6.3-5.3-10-3.5c-3.7,1.8-5.3,6.3-3.5,10C199,376.3,226.4,393.5,256,393.5z"/>
			<path d="M256,363.5c26.2,0,47.5-21.3,47.5-47.5s-21.3-47.5-47.5-47.5s-47.5,21.3-47.5,47.5S229.8,363.5,256,363.5z M256,283.5
				c17.9,0,32.5,14.6,32.5,32.5s-14.6,32.5-32.5,32.5s-32.5-14.6-32.5-32.5S238.1,283.5,256,283.5z"/>
			<path d="M422.8,316c0-15.2-12.3-27.5-27.5-27.5s-27.5,12.3-27.5,27.5s12.3,27.5,27.5,27.5S422.8,331.2,422.8,316z M382.8,316
				c0-6.9,5.6-12.5,12.5-12.5s12.5,5.6,12.5,12.5s-5.6,12.5-12.5,12.5S382.8,322.9,382.8,316z"/>
			<path d="M89.2,316c0,15.2,12.3,27.5,27.5,27.5s27.5-12.3,27.5-27.5s-12.3-27.5-27.5-27.5S89.2,300.8,89.2,316z M129.2,316
				c0,6.9-5.6,12.5-12.5,12.5s-12.5-5.6-12.5-12.5s5.6-12.5,12.5-12.5S129.2,309.1,129.2,316z"/>
			<circle cx="390" cy="86" r="7.5"/>
			<circle cx="186" cy="316" r="7.5"/>
		</g>
	</g>
</g>
<g id="_x31_2">
</g>
<g id="_x31_1">
</g>
<g id="_x31_0">
</g>
<g id="_x30_9">
</g>
<g id="_x30_8">
</g>
<g id="_x30_7">
</g>
<g id="_x30_6">
</g>
<g id="_x30_5">
</g>
<g id="_x30_4">
</g>
<g id="_x30_3">
</g>
<g id="_x30_2">
</g>
<g id="_x30_1">
</g>
</svg>
