<svg xmlns="http://www.w3.org/2000/svg"  viewBox="0 0 100 100" width="100px" height="100px"><path fill="#c7ede6" d="M87.215,55.71C88.35,53.555,89,51.105,89,48.5c0-6.621-4.159-12.257-10.001-14.478 C78.999,34.015,79,34.008,79,34c0-11.598-9.402-21-21-21c-9.784,0-17.981,6.701-20.313,15.757C36.211,28.272,34.638,28,33,28 c-7.692,0-14.023,5.793-14.89,13.252C12.906,42.353,9,46.969,9,52.5C9,58.851,14.149,64,20.5,64c0.177,0,0.352-0.012,0.526-0.022 C21.022,64.153,21,64.324,21,64.5C21,75.822,30.178,85,41.5,85c6.437,0,12.175-2.972,15.934-7.614C59.612,79.611,62.64,81,66,81 c4.65,0,8.674-2.65,10.666-6.518C77.718,74.817,78.837,75,80,75c6.075,0,11-4.925,11-11C91,60.689,89.53,57.727,87.215,55.71z"/><path fill="#fdfcef" d="M79.5,51.5V52h-3v-0.5c0,0-4.242,0-5.5,0c-2.485,0-4.5-2.015-4.5-4.5 c0-2.333,1.782-4.229,4.055-4.455C70.533,42.364,70.5,42.187,70.5,42c0-2.485,2.015-4.5,4.5-4.5 c1.438,0,2.703,0.686,3.527,1.736C78.667,36.6,80.829,34.5,83.5,34.5c2.761,0,5,2.239,5,5c0,0.446-0.077,0.87-0.187,1.282 c0.642-0.777,1.6-1.282,2.687-1.282c1.781,0,3.234,1.335,3.455,3.055C94.636,42.533,94.813,42.5,95,42.5 c2.485,0,4.5,2.015,4.5,4.5s-2.015,4.5-4.5,4.5s-9.5,0-9.5,0H79.5z"/><path fill="#472b29" d="M83.5,34c3.033,0,5.5,2.467,5.5,5.5c0,0.016,0,0.031,0,0.047C89.602,39.192,90.29,39,91,39 c1.831,0,3.411,1.261,3.858,3.005C94.905,42.002,94.952,42,95,42c2.757,0,5,2.243,5,5s-2.243,5-5,5H79.5 c-0.276,0-0.5-0.224-0.5-0.5s0.224-0.5,0.5-0.5H95c2.206,0,4-1.794,4-4s-1.794-4-4-4c-0.117,0-0.23,0.017-0.343,0.032 l-0.141,0.019c-0.021,0.003-0.041,0.004-0.062,0.004c-0.246,0-0.462-0.185-0.495-0.437C93.768,41.125,92.496,40,91,40 c-0.885,0-1.723,0.401-2.301,1.1c-0.098,0.118-0.241,0.182-0.386,0.182c-0.078,0-0.156-0.018-0.228-0.056 c-0.209-0.107-0.314-0.346-0.254-0.573C87.946,40.218,88,39.852,88,39.5c0-2.481-2.019-4.5-4.5-4.5 c-2.381,0-4.347,1.872-4.474,4.263c-0.011,0.208-0.15,0.387-0.349,0.45c-0.05,0.016-0.101,0.024-0.152,0.024 c-0.15,0-0.296-0.069-0.392-0.192C77.362,38.563,76.221,38,75,38c-2.206,0-4,1.794-4,4c0,0.117,0.017,0.23,0.032,0.343 l0.019,0.141c0.016,0.134-0.022,0.268-0.106,0.373c-0.084,0.105-0.207,0.172-0.34,0.185C68.549,43.247,67,44.949,67,47 c0,2.206,1.794,4,4,4h5.5c0.276,0,0.5,0.224,0.5,0.5S76.776,52,76.5,52H71c-2.757,0-5-2.243-5-5 c0-2.397,1.689-4.413,4.003-4.877C70.001,42.082,70,42.041,70,42c0-2.757,2.243-5,5-5c1.176,0,2.293,0.416,3.183,1.164 C78.781,35.76,80.945,34,83.5,34L83.5,34z"/><path fill="#472b29" d="M85,41c1.403,0,2.609,0.999,2.913,2.341C88.28,43.119,88.699,43,89.125,43 c1.202,0,2.198,0.897,2.353,2.068C91.681,45.022,91.874,45,92.063,45c1.529,0,2.811,1.2,2.918,2.732 C94.99,47.87,94.886,47.99,94.749,48c-0.006,0-0.012,0-0.018,0c-0.13,0-0.24-0.101-0.249-0.232 c-0.089-1.271-1.151-2.268-2.419-2.268c-0.229,0-0.47,0.042-0.738,0.127c-0.022,0.007-0.045,0.01-0.067,0.01 c-0.055,0-0.11-0.02-0.156-0.054C91.038,45.537,91,45.455,91,45.375c0-1.034-0.841-1.875-1.875-1.875 c-0.447,0-0.885,0.168-1.231,0.473c-0.047,0.041-0.106,0.063-0.165,0.063c-0.032,0-0.063-0.006-0.093-0.019 c-0.088-0.035-0.148-0.117-0.155-0.212C87.377,42.512,86.288,41.5,85,41.5c-0.208,0-0.425,0.034-0.682,0.107 c-0.023,0.007-0.047,0.01-0.07,0.01c-0.109,0-0.207-0.073-0.239-0.182c-0.038-0.133,0.039-0.271,0.172-0.309 C84.483,41.04,84.744,41,85,41L85,41z"/><path fill="#472b29" d="M71.117,42.5c1.326,0,2.508,0.897,2.874,2.182c0.038,0.133-0.039,0.271-0.172,0.309 C73.795,44.997,73.772,45,73.75,45c-0.109,0-0.209-0.072-0.24-0.182C73.205,43.748,72.221,43,71.117,43 c-0.117,0-0.23,0.014-0.342,0.029c-0.012,0.002-0.023,0.003-0.035,0.003c-0.121,0-0.229-0.092-0.246-0.217 c-0.019-0.137,0.077-0.263,0.214-0.281C70.842,42.516,70.978,42.5,71.117,42.5L71.117,42.5z"/><path fill="#fff" d="M26.5,73h-10c-0.276,0-0.5-0.224-0.5-0.5s0.224-0.5,0.5-0.5h10c0.276,0,0.5,0.224,0.5,0.5 S26.777,73,26.5,73z"/><path fill="#fff" d="M29.5,70c-0.177,0-4.823,0-5,0c-0.276,0-0.5,0.224-0.5,0.5s0.224,0.5,0.5,0.5c0.177,0,4.823,0,5,0 c0.276,0,0.5-0.224,0.5-0.5S29.776,70,29.5,70z"/><path fill="#fff" d="M19.5,46h-10C9.224,46,9,45.776,9,45.5S9.224,45,9.5,45h10c0.276,0,0.5,0.224,0.5,0.5 S19.776,46,19.5,46z"/><path fill="#fff" d="M23.5,46h-2c-0.276,0-0.5-0.224-0.5-0.5s0.224-0.5,0.5-0.5h2c0.276,0,0.5,0.224,0.5,0.5 S23.776,46,23.5,46z"/><path fill="#fff" d="M28.5,48h-10c-0.276,0-0.5-0.224-0.5-0.5s0.224-0.5,0.5-0.5h10c0.276,0,0.5,0.224,0.5,0.5 S28.777,48,28.5,48z"/><path fill="#fff" d="M16.5,48h-1c-0.276,0-0.5-0.224-0.5-0.5s0.224-0.5,0.5-0.5h1c0.276,0,0.5,0.224,0.5,0.5 S16.776,48,16.5,48z"/><path fill="#fff" d="M22.5,44h-5c-0.276,0-0.5-0.224-0.5-0.5s0.224-0.5,0.5-0.5h5c0.276,0,0.5,0.224,0.5,0.5 S22.777,44,22.5,44z"/><path fill="#fff" d="M19.5,50h-2c-0.276,0-0.5-0.224-0.5-0.5s0.224-0.5,0.5-0.5h2c0.276,0,0.5,0.224,0.5,0.5 S19.776,50,19.5,50z"/><path fill="#fdfcef" d="M22.083,80.75c0,0-1.567,0-3.5,0s-3.5-1.567-3.5-3.5c0-1.781,1.335-3.234,3.055-3.455 c-0.028-0.179-0.055-0.358-0.055-0.545c0-1.933,1.567-3.5,3.5-3.5c1.032,0,1.95,0.455,2.59,1.165 c0.384-1.808,1.987-3.165,3.91-3.165c2.209,0,4,1.791,4,4c0,0.191-0.03,0.374-0.056,0.558c0.428-0.344,0.964-0.558,1.556-0.558 c1.228,0,2.245,0.887,2.455,2.055c0.179-0.028,0.358-0.055,0.545-0.055c1.933,0,3.5,1.567,3.5,3.5s-1.567,3.5-3.5,3.5 s-7.5,0-7.5,0v0.5h-7V80.75z"/><path fill="#472b29" d="M20.333,76.25c0.138,0,0.25-0.112,0.25-0.25c0-1.223-0.995-2.218-2.218-2.218 c-0.034,0.009-0.737-0.001-1.244,0.136c-0.133,0.036-0.212,0.173-0.176,0.306c0.036,0.134,0.173,0.213,0.306,0.176 c0.444-0.12,1.1-0.12,1.113-0.118c0.948,0,1.719,0.771,1.719,1.718C20.083,76.138,20.195,76.25,20.333,76.25z"/><circle cx="27.083" cy="80.75" r=".5" fill="#472b29"/><path fill="#472b29" d="M18.583,81.25h3.5c0.276,0,0.5-0.224,0.5-0.5s-0.224-0.5-0.5-0.5h-3.5c-1.654,0-3-1.346-3-3 c0-1.496,1.125-2.768,2.618-2.959c0.134-0.018,0.255-0.088,0.336-0.196c0.081-0.108,0.115-0.244,0.094-0.377 c-0.023-0.154-0.048-0.308-0.048-0.468c0-1.654,1.346-3,3-3c0.85,0,1.638,0.355,2.219,1c0.125,0.139,0.321,0.198,0.5,0.148 c0.182-0.049,0.321-0.195,0.36-0.379c0.341-1.604,1.78-2.769,3.421-2.769c1.93,0,3.5,1.57,3.5,3.5 c0,0.143-0.021,0.28-0.041,0.418c-0.029,0.203,0.063,0.438,0.242,0.54c0.179,0.102,0.396,0.118,0.556-0.01 c0.365-0.293,0.794-0.448,1.243-0.448c0.966,0,1.792,0.691,1.963,1.644c0.048,0.267,0.296,0.446,0.569,0.405 c0.154-0.024,0.308-0.049,0.468-0.049c1.654,0,3,1.346,3,3s-1.346,3-3,3h-7.5c-0.276,0-0.5,0.224-0.5,0.5s0.224,0.5,0.5,0.5h7.5 c2.206,0,4-1.794,4-4s-1.794-4-4-4c-0.059,0-0.116,0.002-0.174,0.006c-0.414-1.186-1.537-2.006-2.826-2.006 c-0.349,0-0.689,0.061-1.011,0.18c-0.165-2.333-2.115-4.18-4.489-4.18c-1.831,0-3.466,1.127-4.153,2.774 c-0.68-0.498-1.502-0.774-2.347-0.774c-2.206,0-4,1.794-4,4c0,0.048,0.001,0.095,0.004,0.142 c-1.743,0.448-3.004,2.027-3.004,3.858C14.583,79.456,16.377,81.25,18.583,81.25z"/><path fill="#472b29" d="M24.083,80.25c0.159,0,0.841,0,1,0c0.276,0,0.5,0.224,0.5,0.5s-0.224,0.5-0.5,0.5 c-0.159,0-0.841,0-1,0c-0.276,0-0.5-0.224-0.5-0.5S23.807,80.25,24.083,80.25z"/><g><path fill="#472b29" d="M43.5,48.2c-5.349,0-9.7-4.352-9.7-9.7s4.352-9.7,9.7-9.7s9.7,4.352,9.7,9.7S48.849,48.2,43.5,48.2 z M43.5,30.2c-4.577,0-8.3,3.724-8.3,8.3s3.723,8.3,8.3,8.3s8.3-3.724,8.3-8.3S48.077,30.2,43.5,30.2z"/><path fill="#472b29" d="M43.5,58.2c-0.387,0-0.7-0.313-0.7-0.7v-38c0-0.387,0.313-0.7,0.7-0.7s0.7,0.313,0.7,0.7v38 C44.2,57.887,43.887,58.2,43.5,58.2z"/><path fill="#472b29" d="M46.5,24.2h-6c-0.387,0-0.7-0.313-0.7-0.7s0.313-0.7,0.7-0.7h6c0.387,0,0.7,0.313,0.7,0.7 S46.887,24.2,46.5,24.2z"/><path fill="#472b29" d="M46.875,54.325H40c-0.387,0-0.7-0.313-0.7-0.7s0.313-0.7,0.7-0.7h6.875c0.387,0,0.7,0.313,0.7,0.7 S47.262,54.325,46.875,54.325z"/><g><path fill="#472b29" d="M58.5,47.2c-0.113,0-0.228-0.027-0.334-0.085L26.5,29.877c-0.34-0.186-0.465-0.61-0.28-0.95 c0.185-0.341,0.612-0.465,0.949-0.28l31.666,17.238c0.34,0.186,0.465,0.61,0.28,0.95C58.988,47.068,58.748,47.2,58.5,47.2z"/><path fill="#472b29" d="M28.753,35.02c-0.115,0-0.23-0.028-0.338-0.087c-0.338-0.188-0.461-0.613-0.274-0.951l3.323-6.019 c0.188-0.338,0.614-0.459,0.951-0.275c0.338,0.188,0.461,0.613,0.274,0.951l-3.323,6.019C29.239,34.889,29,35.02,28.753,35.02z"/><path fill="#472b29" d="M55.017,49.52c-0.115,0-0.23-0.028-0.338-0.087c-0.338-0.188-0.461-0.613-0.274-0.951l3.323-6.019 c0.188-0.339,0.614-0.458,0.951-0.275c0.338,0.188,0.461,0.613,0.274,0.951l-3.323,6.019 C55.502,49.389,55.263,49.52,55.017,49.52z"/></g><g><path fill="#472b29" d="M27.357,49.32c-0.231,0-0.458-0.115-0.592-0.325c-0.207-0.326-0.11-0.759,0.216-0.966 l30.143-19.12c0.326-0.207,0.76-0.11,0.966,0.216c0.207,0.326,0.11,0.759-0.216,0.966l-30.143,19.12 C27.616,49.285,27.486,49.32,27.357,49.32z"/><path fill="#472b29" d="M32.715,50.067c-0.231,0-0.458-0.115-0.592-0.325l-3.681-5.806 c-0.207-0.326-0.11-0.759,0.216-0.966c0.327-0.208,0.759-0.109,0.966,0.216l3.681,5.806c0.207,0.326,0.11,0.759-0.216,0.966 C32.974,50.032,32.844,50.067,32.715,50.067z"/><path fill="#472b29" d="M57.5,33.2c-0.213,0-0.423-0.097-0.561-0.28l-3-4c-0.232-0.31-0.169-0.748,0.14-0.979 c0.31-0.233,0.748-0.17,0.98,0.14l3,4c0.232,0.31,0.169,0.748-0.14,0.979C57.794,33.154,57.646,33.2,57.5,33.2z"/></g></g><g><path fill="#472b29" d="M58.886,31.232c0-0.448,0.364-0.811,0.811-0.811h6.491c0.448,0,0.811,0.364,0.811,0.811 c0,0.448-0.364,0.811-0.811,0.811h-6.491C59.25,32.043,58.886,31.679,58.886,31.232z"/></g><g><path fill="#472b29" d="M58.886,60.442c0-0.448,0.364-0.811,0.811-0.811h6.491c0.448,0,0.811,0.364,0.811,0.811 c0,0.448-0.364,0.811-0.811,0.811h-6.491C59.25,61.253,58.886,60.89,58.886,60.442z"/></g><g><path fill="#472b29" d="M58.886,50.705c0-0.448,0.364-0.811,0.811-0.811h3.246c0.448,0,0.811,0.364,0.811,0.811 c0,0.448-0.364,0.811-0.811,0.811h-3.246C59.25,51.516,58.886,51.153,58.886,50.705z"/></g><g><path fill="#472b29" d="M58.886,55.573c0-0.448,0.364-0.811,0.811-0.811h3.246c0.448,0,0.811,0.364,0.811,0.811 c0,0.448-0.364,0.811-0.811,0.811h-3.246C59.25,56.385,58.886,56.021,58.886,55.573z"/></g><g><path fill="#472b29" d="M58.886,36.1c0-0.448,0.364-0.811,0.811-0.811h3.246c0.448,0,0.811,0.364,0.811,0.811 s-0.364,0.811-0.811,0.811h-3.246C59.25,36.911,58.886,36.548,58.886,36.1z"/></g><g><path fill="#472b29" d="M58.886,40.968c0-0.448,0.364-0.811,0.811-0.811h3.246c0.448,0,0.811,0.363,0.811,0.811 s-0.364,0.811-0.811,0.811h-3.246C59.25,41.78,58.886,41.416,58.886,40.968z"/></g><g><path fill="#edf7f5" d="M49.281,66.334c0,3.512,2.848,6.359,6.359,6.359c3.512,0,6.359-2.848,6.359-6.359 c0-2.073-1.007-3.897-2.544-5.058V30.374c0-1.924-1.559-3.484-3.482-3.484h-0.665c-1.924,0-3.484,1.559-3.484,3.484v30.901 C50.288,62.435,49.281,64.26,49.281,66.334z"/></g><g><path fill="#2d80d3" d="M48.527,67.804c0,3.72,3.017,6.737,6.737,6.737S62,71.524,62,67.804 c0-2.196-1.067-4.128-2.695-5.358v-18.42h-8.084v18.42C49.594,63.674,48.527,65.608,48.527,67.804z"/></g><g><path fill="#472b29" d="M55.5,75.2c-4.246,0-7.7-3.454-7.7-7.7c0-2.398,1.115-4.65,3-6.096V30.25 c0-2.454,1.997-4.45,4.45-4.45c1.186,0,2.303,0.464,3.145,1.305c0.842,0.843,1.306,1.959,1.306,3.146v30.799 c2.168,1.41,3.5,3.846,3.5,6.451C63.2,71.746,59.746,75.2,55.5,75.2z M55.25,27.2c-1.682,0-3.05,1.368-3.05,3.05v31.877 l-0.302,0.208c-1.689,1.17-2.698,3.101-2.698,5.165c0,3.474,2.826,6.3,6.3,6.3s6.3-2.826,6.3-6.3c0-2.244-1.207-4.334-3.149-5.453 L58.3,61.845V30.25c0-0.812-0.318-1.578-0.895-2.155S56.062,27.2,55.25,27.2z"/></g></svg>