<?xml version="1.0" encoding="UTF-8" standalone="no"?>
<!-- Generator: Adobe Illustrator 25.0.0, SVG Export Plug-In . SVG Version: 6.00 Build 0)  -->

<svg
   version="1.1"
   id="katman_1"
   x="0px"
   y="0px"
   viewBox="0 0 1463.9917 925"
   xml:space="preserve"
   sodipodi:docname="oAuthGoogle.svg"
   width="1463.989"
   height="925"
   inkscape:version="1.3 (0e150ed6c4, 2023-07-21)"
   xmlns:inkscape="http://www.inkscape.org/namespaces/inkscape"
   xmlns:sodipodi="http://sodipodi.sourceforge.net/DTD/sodipodi-0.dtd"
   xmlns="http://www.w3.org/2000/svg"
   xmlns:svg="http://www.w3.org/2000/svg"><defs
   id="defs12" /><sodipodi:namedview
   id="namedview12"
   pagecolor="#ffffff"
   bordercolor="#000000"
   borderopacity="0.25"
   inkscape:showpageshadow="2"
   inkscape:pageopacity="0.0"
   inkscape:pagecheckerboard="true"
   inkscape:deskcolor="#d1d1d1"
   showgrid="false"
   inkscape:zoom="0.60342262"
   inkscape:cx="899.86683"
   inkscape:cy="604.05425"
   inkscape:window-width="1920"
   inkscape:window-height="1046"
   inkscape:window-x="-11"
   inkscape:window-y="-11"
   inkscape:window-maximized="1"
   inkscape:current-layer="katman_1" />&#10;<style
   type="text/css"
   id="style1">&#10;	.st0{fill-rule:evenodd;clip-rule:evenodd;fill:#E3ECF5;}&#10;	.st1{fill:#FFFFFF;stroke:#C7C6C6;stroke-width:0.8678;stroke-miterlimit:10;}&#10;	.st2{fill:#020203;}&#10;	.st3{font-family:'Roboto-Bold';}&#10;	.st4{font-size:67.077px;}&#10;	.st5{fill:#4877BB;}&#10;	.st6{fill:#21A849;}&#10;	.st7{fill:#FBBA10;}&#10;	.st8{fill:#E73830;}&#10;</style>&#10;&#10;<g
   id="g12"
   transform="translate(-165.72133,-58.002466)">&#10;	<g
   id="g6">&#10;		&#10;		<g
   id="g1">&#10;			&#10;		</g>&#10;		<g
   id="g5">&#10;			<path
   class="st5"
   d="m 1164.9541,403.91774 c 0,-24.77402 -2.2021,-42.94163 -6.6064,-62.21031 H 873.1713 v 112.8594 h 167.3622 c -3.3032,28.07722 -21.4708,69.91778 -62.21026,98.54553 l -0.55054,3.85373 90.2875,69.91778 6.0559,0.55054 c 57.806,-52.85124 90.838,-131.02702 90.838,-223.51667"
   id="path2"
   style="stroke-width:5.50534" />&#10;			<path
   class="st6"
   d="m 873.1713,701.20592 c 82.02952,0 150.8462,-26.97615 200.9448,-73.77151 l -95.79286,-74.32205 c -25.87509,17.61708 -60.00818,30.27934 -105.15194,30.27934 -80.37791,0 -148.64409,-52.85122 -172.86757,-126.0722 l -3.3032,0.55054 -93.59073,72.67044 -1.10106,3.3032 c 49.54803,99.09606 151.94729,167.36224 270.86256,167.36224"
   id="path3"
   style="stroke-width:5.50534" />&#10;			<path
   class="st7"
   d="m 700.30373,457.3195 c -6.6064,-18.71814 -9.9096,-39.08789 -9.9096,-60.00817 0,-20.92028 3.85373,-41.29003 9.9096,-60.00817 v -3.85374 l -94.6918,-73.7715 -3.30319,1.65159 c -20.36975,41.29003 -32.48149,87.53486 -32.48149,136.53235 0,48.9975 11.5612,95.24232 32.48149,136.53236 l 97.99499,-77.07472"
   id="path4"
   style="stroke-width:5.50534" />&#10;			<path
   class="st8"
   d="m 873.1713,211.23095 c 57.2555,0 95.24233,24.77401 117.26368,45.14376 l 85.88322,-83.68112 C 1023.467,123.6961 955.20082,93.96728 873.1713,93.96728 c -118.91527,0 -221.31453,68.26617 -271.4131,167.36223 l 97.995,76.52419 c 24.77401,-73.77152 93.04019,-126.62275 173.4181,-126.62275"
   id="path5"
   style="stroke-width:5.50534" />&#10;		</g>&#10;	</g>&#10;	<g
   id="g11">&#10;		<path
   class="st1"
   d="M 1541.3,947 H 258.7 C 227.4,947 202,921.6 202,890.3 V 789.9 c 0,-31.3 25.4,-56.7 56.7,-56.7 h 1282.6 c 31.3,0 56.7,25.4 56.7,56.7 v 100.4 c 0,31.3 -25.4,56.7 -56.7,56.7 z"
   id="path6" />&#10;		<g
   id="g7">&#10;			<text
   transform="translate(645.688,861.3538)"
   class="st2 st3 st4"
   id="text6"> Sign in with Google</text>&#10;		</g>&#10;		<g
   id="g10">&#10;			<path
   class="st5"
   d="m 363.5,841.4 c 0,-4.5 -0.4,-7.8 -1.2,-11.3 h -51.8 v 20.5 h 30.4 c -0.6,5.1 -3.9,12.7 -11.3,17.9 l -0.1,0.7 16.4,12.7 1.1,0.1 c 10.5,-9.6 16.5,-23.8 16.5,-40.6"
   id="path7" />&#10;			<path
   class="st6"
   d="m 310.5,895.4 c 14.9,0 27.4,-4.9 36.5,-13.4 l -17.4,-13.5 c -4.7,3.2 -10.9,5.5 -19.1,5.5 -14.6,0 -27,-9.6 -31.4,-22.9 l -0.6,0.1 -17,13.2 -0.2,0.6 c 9,18 27.7,30.4 49.2,30.4"
   id="path8" />&#10;			<path
   class="st7"
   d="m 279.1,851.1 c -1.2,-3.4 -1.8,-7.1 -1.8,-10.9 0,-3.8 0.7,-7.5 1.8,-10.9 v -0.7 l -17.2,-13.4 -0.6,0.3 c -3.7,7.5 -5.9,15.9 -5.9,24.8 0,8.9 2.1,17.3 5.9,24.8 l 17.8,-14"
   id="path9" />&#10;			<path
   class="st8"
   d="m 310.5,806.4 c 10.4,0 17.3,4.5 21.3,8.2 l 15.6,-15.2 c -9.6,-8.9 -22,-14.3 -36.9,-14.3 -21.6,0 -40.2,12.4 -49.3,30.4 l 17.8,13.9 c 4.6,-13.4 16.9,-23 31.5,-23"
   id="path10" />&#10;		</g>&#10;	</g>&#10;</g>&#10;</svg>
