<svg xmlns="http://www.w3.org/2000/svg"  viewBox="0 0 100 100" width="100px" height="100px"><path fill="#c7ede6" d="M87.215,56.71C88.35,54.555,89,52.105,89,49.5c0-6.621-4.159-12.257-10.001-14.478 C78.999,35.015,79,35.008,79,35c0-11.598-9.402-21-21-21c-9.784,0-17.981,6.701-20.313,15.757C36.211,29.272,34.638,29,33,29 c-7.692,0-14.023,5.793-14.89,13.252C12.906,43.353,9,47.969,9,53.5C9,59.851,14.149,65,20.5,65c0.177,0,0.352-0.012,0.526-0.022 C21.022,65.153,21,65.324,21,65.5C21,76.822,30.178,86,41.5,86c6.437,0,12.175-2.972,15.934-7.614C59.612,80.611,62.64,82,66,82 c4.65,0,8.674-2.65,10.666-6.518C77.718,75.817,78.837,76,80,76c6.075,0,11-4.925,11-11C91,61.689,89.53,58.727,87.215,56.71z"/><path fill="#fff" d="M15.5 51h-10C5.224 51 5 50.776 5 50.5S5.224 50 5.5 50h10c.276 0 .5.224.5.5S15.777 51 15.5 51zM18.5 51h-1c-.276 0-.5-.224-.5-.5s.224-.5.5-.5h1c.276 0 .5.224.5.5S18.777 51 18.5 51zM23.491 53H14.5c-.276 0-.5-.224-.5-.5s.224-.5.5-.5h8.991c.276 0 .5.224.5.5S23.767 53 23.491 53zM12.5 53h-1c-.276 0-.5-.224-.5-.5s.224-.5.5-.5h1c.276 0 .5.224.5.5S12.777 53 12.5 53zM9.5 53h-2C7.224 53 7 52.776 7 52.5S7.224 52 7.5 52h2c.276 0 .5.224.5.5S9.777 53 9.5 53zM15.5 55h-2c-.276 0-.5-.224-.5-.5s.224-.5.5-.5h2c.276 0 .5.224.5.5S15.776 55 15.5 55zM18.5 46c-.177 0-.823 0-1 0-.276 0-.5.224-.5.5 0 .276.224.5.5.5.177 0 .823 0 1 0 .276 0 .5-.224.5-.5C19 46.224 18.776 46 18.5 46zM18.5 48c-.177 0-4.823 0-5 0-.276 0-.5.224-.5.5 0 .276.224.5.5.5.177 0 4.823 0 5 0 .276 0 .5-.224.5-.5C19 48.224 18.776 48 18.5 48zM23.5 50c-.177 0-2.823 0-3 0-.276 0-.5.224-.5.5 0 .276.224.5.5.5.177 0 2.823 0 3 0 .276 0 .5-.224.5-.5C24 50.224 23.776 50 23.5 50zM72.5 24h-10c-.276 0-.5-.224-.5-.5s.224-.5.5-.5h10c.276 0 .5.224.5.5S72.776 24 72.5 24zM76.5 24h-2c-.276 0-.5-.224-.5-.5s.224-.5.5-.5h2c.276 0 .5.224.5.5S76.776 24 76.5 24zM81.5 26h-10c-.276 0-.5-.224-.5-.5s.224-.5.5-.5h10c.276 0 .5.224.5.5S81.777 26 81.5 26zM69.5 26h-1c-.276 0-.5-.224-.5-.5s.224-.5.5-.5h1c.276 0 .5.224.5.5S69.776 26 69.5 26zM66.47 26H64.5c-.276 0-.5-.224-.5-.5s.224-.5.5-.5h1.97c.276 0 .5.224.5.5S66.746 26 66.47 26zM75.5 22h-5c-.276 0-.5-.224-.5-.5s.224-.5.5-.5h5c.276 0 .5.224.5.5S75.777 22 75.5 22zM72.5 28h-2c-.276 0-.5-.224-.5-.5s.224-.5.5-.5h2c.276 0 .5.224.5.5S72.776 28 72.5 28z"/><g><path fill="#fdfcef" d="M42.5,36.5c0,0,1.567,0,3.5,0s3.5-1.567,3.5-3.5c0-1.781-1.335-3.234-3.055-3.455 C46.473,29.366,46.5,29.187,46.5,29c0-1.933-1.567-3.5-3.5-3.5c-1.032,0-1.95,0.455-2.59,1.165 c-0.384-1.808-1.987-3.165-3.91-3.165c-2.209,0-4,1.791-4,4c0,0.191,0.03,0.374,0.056,0.558C32.128,27.714,31.592,27.5,31,27.5 c-1.228,0-2.245,0.887-2.455,2.055C28.366,29.527,28.187,29.5,28,29.5c-1.933,0-3.5,1.567-3.5,3.5s1.567,3.5,3.5,3.5s7.5,0,7.5,0"/><path fill="#472b29" d="M44.25 32C44.112 32 44 31.888 44 31.75c0-1.223.995-2.218 2.218-2.218.034.009.737-.001 1.244.136.133.036.212.173.176.306-.036.134-.173.213-.306.176-.444-.12-1.1-.12-1.113-.118-.948 0-1.719.771-1.719 1.718C44.5 31.888 44.388 32 44.25 32zM38.5 36A.5.5 0 1 0 38.5 37 .5.5 0 1 0 38.5 36z"/><path fill="#472b29" d="M46,37h-2.5c-0.276,0-0.5-0.224-0.5-0.5s0.224-0.5,0.5-0.5H46c1.654,0,3-1.346,3-3 c0-1.496-1.125-2.768-2.618-2.959c-0.134-0.018-0.255-0.088-0.336-0.196s-0.115-0.244-0.094-0.377C45.975,29.314,46,29.16,46,29 c0-1.654-1.346-3-3-3c-0.85,0-1.638,0.355-2.219,1c-0.125,0.139-0.321,0.198-0.5,0.148c-0.182-0.049-0.321-0.195-0.36-0.379 C39.58,25.165,38.141,24,36.5,24c-1.93,0-3.5,1.57-3.5,3.5c0,0.143,0.021,0.28,0.041,0.418c0.029,0.203-0.063,0.438-0.242,0.54 c-0.179,0.102-0.396,0.118-0.556-0.01C31.878,28.155,31.449,28,31,28c-0.966,0-1.792,0.691-1.963,1.644 c-0.048,0.267-0.296,0.446-0.569,0.405C28.314,30.025,28.16,30,28,30c-1.654,0-3,1.346-3,3s1.346,3,3,3h8.5 c0.276,0,0.5,0.224,0.5,0.5S36.776,37,36.5,37H28c-2.206,0-4-1.794-4-4s1.794-4,4-4c0.059,0,0.116,0.002,0.174,0.006 C28.588,27.82,29.711,27,31,27c0.349,0,0.689,0.061,1.011,0.18C32.176,24.847,34.126,23,36.5,23c1.831,0,3.466,1.127,4.153,2.774 C41.334,25.276,42.155,25,43,25c2.206,0,4,1.794,4,4c0,0.048-0.001,0.095-0.004,0.142C48.739,29.59,50,31.169,50,33 C50,35.206,48.206,37,46,37z"/><path fill="#472b29" d="M41.5,36c-0.159,0-0.841,0-1,0c-0.276,0-0.5,0.224-0.5,0.5c0,0.276,0.224,0.5,0.5,0.5 c0.159,0,0.841,0,1,0c0.276,0,0.5-0.224,0.5-0.5C42,36.224,41.776,36,41.5,36z"/></g><path fill="#ee3e54" d="M54 29A23 23 0 1 0 54 75A23 23 0 1 0 54 29Z"/><path fill="#472b29" d="M74.69,62c-0.29,0-0.54,0.17-0.65,0.43C70.27,69.66,62.7,74.6,54,74.6c-12.46,0-22.6-10.14-22.6-22.6 c0-12.46,10.14-22.6,22.6-22.6c8.7,0,16.27,4.94,20.04,12.17C74.15,41.82,74.4,42,74.69,42c0.38,0,0.69-0.32,0.69-0.7 c0-0.1-0.02-0.19-0.05-0.27C71.36,33.3,63.29,28,54,28c-13.23,0-24,10.77-24,24c0,13.23,10.77,24,24,24 c9.29,0,17.36-5.3,21.33-13.03c0.03-0.08,0.05-0.17,0.05-0.27c0-0.1-0.02-0.19-0.05-0.27C75.22,62.17,74.98,62,74.69,62z"/><path fill="#fdfcef" d="M75.307,44.557c-0.843-0.819-2.242-0.717-2.948,0.295c-0.554,0.795-0.367,1.897,0.334,2.565 L75.402,50H57c-1.105,0-2,0.895-2,2v0c0,1.105,0.895,2,2,2h18.398l-2.702,2.571c-0.702,0.668-0.891,1.768-0.34,2.564 c0.702,1.013,2.103,1.119,2.948,0.3L83,52L75.307,44.557z"/><path fill="#472b29" d="M75.307,44.557c-0.376-0.365-0.863-0.547-1.349-0.547c-0.604,0-1.208,0.281-1.599,0.842 c-0.554,0.795-0.367,1.897,0.334,2.565L75.402,50H57c-1.105,0-2,0.895-2,2c0,1.105,0.895,2,2,2h18.398l-2.702,2.571 c-0.702,0.668-0.891,1.768-0.34,2.564c0.39,0.563,0.995,0.846,1.602,0.846c0.485,0,0.971-0.181,1.347-0.545L83,52L75.307,44.557z M74.783,58.896c-0.223,0.216-0.516,0.334-0.825,0.334c-0.396,0-0.755-0.191-0.985-0.523c-0.325-0.469-0.221-1.154,0.24-1.593 l2.702-2.571c0.222-0.211,0.293-0.537,0.179-0.822c-0.114-0.285-0.39-0.472-0.696-0.472H57c-0.689,0-1.25-0.561-1.25-1.25 c0-0.689,0.561-1.25,1.25-1.25h18.402c0.307,0,0.582-0.187,0.696-0.471c0.114-0.285,0.043-0.61-0.179-0.822l-2.709-2.583 c-0.454-0.433-0.558-1.133-0.237-1.594c0.231-0.331,0.589-0.521,0.984-0.521c0.31,0,0.604,0.119,0.828,0.336L81.921,52 L74.783,58.896z"/><g><path fill="#fdfcef" d="M37.875,73.5c0,0,4.64,0,7.125,0s4.5-2.015,4.5-4.5c0-2.333-1.782-4.229-4.055-4.455 C45.467,64.364,45.5,64.187,45.5,64c0-2.485-2.015-4.5-4.5-4.5c-1.438,0-2.703,0.686-3.527,1.736 C37.333,58.6,35.171,56.5,32.5,56.5c-2.761,0-5,2.239-5,5c0,0.446,0.077,0.87,0.187,1.282C27.045,62.005,26.086,61.5,25,61.5 c-1.781,0-3.234,1.335-3.455,3.055C21.364,64.533,21.187,64.5,21,64.5c-2.485,0-4.5,2.015-4.5,4.5s2.015,4.5,4.5,4.5s9.5,0,9.5,0 H37.875z"/><path fill="#472b29" d="M32.5,56c-3.033,0-5.5,2.467-5.5,5.5c0,0.016,0,0.031,0,0.047C26.398,61.192,25.71,61,25,61 c-1.831,0-3.411,1.261-3.858,3.005C21.095,64.002,21.048,64,21,64c-2.757,0-5,2.243-5,5s2.243,5,5,5h14.5 c0.276,0,0.5-0.224,0.5-0.5S35.776,73,35.5,73H21c-2.206,0-4-1.794-4-4s1.794-4,4-4c0.117,0,0.23,0.017,0.343,0.032l0.141,0.019 c0.021,0.003,0.041,0.004,0.062,0.004c0.246,0,0.462-0.185,0.495-0.437C22.232,63.125,23.504,62,25,62 c0.885,0,1.723,0.401,2.301,1.1c0.098,0.118,0.241,0.182,0.386,0.182c0.078,0,0.156-0.018,0.228-0.056 c0.209-0.107,0.314-0.346,0.254-0.573C28.054,62.218,28,61.852,28,61.5c0-2.481,2.019-4.5,4.5-4.5c2.381,0,4.347,1.872,4.474,4.263 c0.011,0.208,0.15,0.387,0.349,0.45c0.05,0.016,0.101,0.024,0.152,0.024c0.15,0,0.296-0.069,0.392-0.192 C38.638,60.563,39.779,60,41,60c2.206,0,4,1.794,4,4c0,0.117-0.017,0.23-0.032,0.343l-0.019,0.141 c-0.016,0.134,0.022,0.268,0.106,0.373c0.084,0.105,0.207,0.172,0.34,0.185C47.451,65.247,49,66.949,49,69c0,2.206-1.794,4-4,4 h-6.5c-0.276,0-0.5,0.224-0.5,0.5s0.224,0.5,0.5,0.5H45c2.757,0,5-2.243,5-5c0-2.397-1.689-4.413-4.003-4.877 C45.999,64.082,46,64.041,46,64c0-2.757-2.243-5-5-5c-1.176,0-2.293,0.416-3.183,1.164C37.219,57.76,35.055,56,32.5,56L32.5,56z"/><path fill="#472b29" d="M31 63c-1.403 0-2.609.999-2.913 2.341C27.72 65.119 27.301 65 26.875 65c-1.202 0-2.198.897-2.353 2.068C24.319 67.022 24.126 67 23.937 67c-1.529 0-2.811 1.2-2.918 2.732C21.01 69.87 21.114 69.99 21.251 70c.006 0 .012 0 .018 0 .13 0 .24-.101.249-.232.089-1.271 1.151-2.268 2.419-2.268.229 0 .47.042.738.127.022.007.045.01.067.01.055 0 .11-.02.156-.054C24.962 67.537 25 67.455 25 67.375c0-1.034.841-1.875 1.875-1.875.447 0 .885.168 1.231.473.047.041.106.063.165.063.032 0 .063-.006.093-.019.088-.035.148-.117.155-.212C28.623 64.512 29.712 63.5 31 63.5c.208 0 .425.034.682.107.023.007.047.01.07.01.109 0 .207-.073.239-.182.038-.133-.039-.271-.172-.309C31.517 63.04 31.256 63 31 63L31 63zM44.883 64.5c-1.326 0-2.508.897-2.874 2.182-.038.133.039.271.172.309C42.205 66.997 42.228 67 42.25 67c.109 0 .209-.072.24-.182C42.795 65.748 43.779 65 44.883 65c.117 0 .23.014.342.029.012.002.023.003.035.003.121 0 .229-.092.246-.217.019-.137-.077-.263-.214-.281C45.158 64.516 45.022 64.5 44.883 64.5L44.883 64.5z"/></g></svg>