<svg xmlns="http://www.w3.org/2000/svg"  viewBox="0 0 100 100" width="100px" height="100px"><path fill="#ee3e54" d="M13 27A2 2 0 1 0 13 31A2 2 0 1 0 13 27Z"/><path fill="#f1bc19" d="M77 12A1 1 0 1 0 77 14A1 1 0 1 0 77 12Z"/><path fill="#fce0a2" d="M50 13A37 37 0 1 0 50 87A37 37 0 1 0 50 13Z"/><path fill="#f1bc19" d="M83 11A4 4 0 1 0 83 19A4 4 0 1 0 83 11Z"/><path fill="#ee3e54" d="M87 22A2 2 0 1 0 87 26A2 2 0 1 0 87 22Z"/><path fill="#fbcd59" d="M81 74A2 2 0 1 0 81 78 2 2 0 1 0 81 74zM15 59A4 4 0 1 0 15 67 4 4 0 1 0 15 59z"/><path fill="#ee3e54" d="M25 85A2 2 0 1 0 25 89A2 2 0 1 0 25 85Z"/><path fill="#fff" d="M18.5 51A2.5 2.5 0 1 0 18.5 56A2.5 2.5 0 1 0 18.5 51Z"/><path fill="#f1bc19" d="M21 66A1 1 0 1 0 21 68A1 1 0 1 0 21 66Z"/><path fill="#fff" d="M80 33A1 1 0 1 0 80 35A1 1 0 1 0 80 33Z"/><g><path fill="#00ac9c" d="M35,72.3c-4.025,0-7.3-3.274-7.3-7.3V35c0-4.025,3.274-7.3,7.3-7.3h30c4.025,0,7.3,3.274,7.3,7.3 v30c0,4.025-3.274,7.3-7.3,7.3H35z"/><path fill="#472b29" d="M65,28.4c3.639,0,6.6,2.961,6.6,6.6v30c0,3.639-2.961,6.6-6.6,6.6H35c-3.639,0-6.6-2.961-6.6-6.6 V35c0-3.639,2.961-6.6,6.6-6.6H65 M65,27H35c-4.4,0-8,3.6-8,8v30c0,4.4,3.6,8,8,8h30c4.4,0,8-3.6,8-8V35C73,30.6,69.4,27,65,27 L65,27z"/></g><g><path fill="#fefdef" d="M62.391,69H37.609C33.974,69,31,66.026,31,62.391V37.609C31,33.974,33.974,31,37.609,31h24.783 C66.026,31,69,33.974,69,37.609v24.783C69,66.026,66.026,69,62.391,69z"/></g><g><path fill="#472b29" d="M68.5,47.375c-0.276,0-0.5-0.224-0.5-0.5V43c0-0.276,0.224-0.5,0.5-0.5S69,42.724,69,43v3.875 C69,47.151,68.776,47.375,68.5,47.375z"/></g><g><path fill="#472b29" d="M68.5,40.5c-0.276,0-0.5-0.224-0.5-0.5v-2c0-0.276,0.224-0.5,0.5-0.5S69,37.724,69,38v2 C69,40.276,68.776,40.5,68.5,40.5z"/></g><g><path fill="#472b29" d="M64,69H36c-2.757,0-5-2.243-5-5V36c0-2.757,2.243-5,5-5h25.375c0.276,0,0.5,0.224,0.5,0.5 s-0.224,0.5-0.5,0.5H36c-2.206,0-4,1.794-4,4v28c0,2.206,1.794,4,4,4h28c2.206,0,4-1.794,4-4V49.625c0-0.276,0.224-0.5,0.5-0.5 s0.5,0.224,0.5,0.5V64C69,66.757,66.757,69,64,69z"/></g><g><path fill="#77cbd2" d="M46.541,60.797c0,1.203-1.736,1.321-2.8,1.321l0,0c-1.064,0-1.944-0.975-1.944-2.178v-7.256 c0-1.203,0.88-2.178,1.944-2.178l0,0c1.064,0,1.935,0.975,1.935,2.178L46.541,60.797z"/><path fill="#472b29" d="M43.739,62.525c-1.296,0-2.351-1.159-2.351-2.585v-7.256c0-1.426,1.055-2.584,2.351-2.584 c1.291,0,2.343,1.159,2.343,2.584l0.863,8.07c0.001,0.014,0.002,0.028,0.002,0.043C46.947,61.943,45.868,62.525,43.739,62.525z M43.739,50.914c-0.846,0-1.536,0.793-1.536,1.769v7.256c0,0.976,0.69,1.77,1.536,1.77c1.571,0,2.376-0.301,2.393-0.894 l-0.863-8.088C45.267,51.708,44.582,50.914,43.739,50.914z"/><path fill="#00a5a5" d="M58.53,40.037c-0.367,0-9.487,2.388-9.487,2.388c-0.526,0.105-1.009,0.072-1.438,0.556h-3.917 c-0.419,0-5.28-0.422-5.28,5.082c0,5.733,4.86,5.082,5.28,5.082h4.454c0.278,0.484,0.567,0.308,0.866,0.401 c0,0,9.147,2.312,9.523,2.312c2.244,0,4.062-3.527,4.062-7.91S60.773,40.037,58.53,40.037z"/><path fill="#472b29" d="M58.529,56.267c-0.385,0-6.857-1.626-9.622-2.324c-0.06-0.018-0.114-0.021-0.178-0.024 c-0.202-0.011-0.52-0.027-0.8-0.364h-4.241c-1.838,0.105-3.21-0.31-4.179-1.223C38.507,51.386,38,49.95,38,48.065 c0-1.793,0.495-3.183,1.472-4.13c0.68-0.658,1.967-1.425,4.141-1.361l3.821,0.002c0.403-0.374,0.841-0.44,1.233-0.499 c0.097-0.014,0.194-0.029,0.294-0.049c2.735-0.717,9.189-2.396,9.568-2.396c2.507,0,4.469,3.654,4.469,8.318 S61.035,56.267,58.529,56.267z M43.687,52.738h4.454c0.146,0,0.28,0.078,0.353,0.204c0.087,0.151,0.105,0.152,0.277,0.161 c0.099,0.004,0.222,0.011,0.357,0.053c3.544,0.895,9.002,2.252,9.422,2.295c1.96-0.001,3.634-3.437,3.634-7.504 c0-4.057-1.665-7.487-3.64-7.503c-0.48,0.063-5.87,1.451-9.399,2.375c-0.136,0.028-0.248,0.046-0.356,0.062 c-0.382,0.058-0.635,0.096-0.878,0.371c-0.077,0.088-0.189,0.137-0.305,0.137h-3.917c-1.993-0.057-3.079,0.58-3.647,1.13 c-0.813,0.788-1.226,1.981-1.226,3.544c0,1.653,0.422,2.888,1.253,3.673c0.799,0.755,1.961,1.09,3.472,1.008L43.687,52.738z"/><path fill="#c0c0e2" d="M58.53,40.037c-0.367,0-9.487,2.261-9.487,2.261c-0.335,0.067-0.651,0.15-0.949,0.247 c-0.851,1.567-1.331,3.331-1.331,5.199c0,2.069,0.589,4.011,1.618,5.697c0.203,0.073,0.413,0.141,0.626,0.209 c0,0,9.147,2.261,9.523,2.261c2.244,0,4.062-3.553,4.062-7.936S60.773,40.037,58.53,40.037z"/><path fill="#472b29" d="M58.529,56.318c-0.385,0-6.856-1.59-9.621-2.272c-0.242-0.075-0.456-0.146-0.664-0.219 c-0.088-0.032-0.163-0.091-0.212-0.172c-1.097-1.798-1.678-3.842-1.678-5.909c0-1.892,0.465-3.707,1.381-5.394 c0.049-0.091,0.133-0.161,0.231-0.192c0.312-0.101,0.643-0.188,0.993-0.259c2.739-0.679,9.191-2.269,9.568-2.269 c2.507,0,4.469,3.665,4.469,8.344C62.999,52.653,61.035,56.318,58.529,56.318z M48.655,53.106 c0.155,0.053,0.313,0.105,0.474,0.155c3.546,0.876,9.006,2.202,9.422,2.243c1.961,0,3.635-3.448,3.635-7.529 c0-4.072-1.666-7.514-3.641-7.529c-0.469,0.056-5.868,1.372-9.403,2.248c-0.275,0.056-0.526,0.118-0.764,0.19 c-0.8,1.526-1.205,3.16-1.205,4.86C47.17,49.615,47.683,51.465,48.655,53.106z"/><g><path fill="#8889b9" d="M58.53 40.038A4.062 7.936 0 1 0 58.53 55.91A4.062 7.936 0 1 0 58.53 40.038Z"/><path fill="#472b29" d="M58.529,56.318c-2.507,0-4.469-3.665-4.469-8.344s1.963-8.344,4.469-8.344 c2.506,0,4.469,3.665,4.469,8.344C62.999,52.653,61.035,56.318,58.529,56.318z M58.529,40.445c-1.981,0-3.654,3.448-3.654,7.529 s1.673,7.529,3.654,7.529s3.654-3.448,3.654-7.529S60.511,40.445,58.529,40.445z"/></g><g><path fill="#595c84" d="M54.716,50.688c0.09,0.025,0.183,0.041,0.278,0.041c0.926,0,1.677-1.248,1.677-2.787 c0-1.54-0.751-2.788-1.677-2.788c-0.09,0-0.178,0.015-0.265,0.038c-0.166,0.867-0.262,1.802-0.262,2.783 C54.467,48.929,54.558,49.839,54.716,50.688z"/><path fill="#472b29" d="M54.994,51.001c-0.11,0-0.224-0.016-0.349-0.051c-0.101-0.027-0.177-0.11-0.197-0.212 c-0.167-0.9-0.252-1.83-0.252-2.763c0-0.958,0.09-1.911,0.267-2.834c0.02-0.102,0.096-0.184,0.197-0.211 c0.118-0.032,0.228-0.047,0.335-0.047c1.093,0,1.948,1.344,1.948,3.059C56.943,49.657,56.086,51.001,54.994,51.001z M54.951,50.456c0.015,0.001,0.029,0.001,0.043,0.001c0.762,0,1.405-1.153,1.405-2.515c0-1.363-0.643-2.515-1.405-2.515 c-0.011,0-0.022,0-0.032,0.001c-0.148,0.831-0.223,1.687-0.223,2.548C54.739,48.812,54.81,49.646,54.951,50.456z"/></g><g><path fill="#472b29" d="M46.062,56.057c-0.222,0-0.403-0.177-0.407-0.4c-0.004-0.225,0.174-0.411,0.4-0.415 c1.682-0.033,1.925-1.317,1.948-1.464c0.034-0.221,0.238-0.38,0.462-0.343c0.222,0.032,0.376,0.236,0.344,0.457 c-0.101,0.732-0.803,2.128-2.739,2.164C46.068,56.057,46.065,56.057,46.062,56.057z"/></g></g></svg>