<svg xmlns="http://www.w3.org/2000/svg"  viewBox="0 0 100 100" width="100px" height="100px"><path fill="#c7ede6" d="M88.704,55.881c0.3-0.616,0.566-1.264,0.796-1.943c2.633-7.77-1.349-17.078-9.733-19.325C78.86,23.23,70.86,15.421,61.826,14.088c-10.341-1.525-19.814,5.044-22.966,15.485c-3.799-1.346-7.501-1.182-10.99,0.857c-1.583,0.732-3.031,1.812-4.33,3.233c-1.907,2.086-3.147,4.719-3.652,7.495c-0.748,0.118-1.483,0.236-2.176,0.484c-4.04,1.449-6.589,4.431-7.288,8.923c-0.435,2.797,0.443,5.587,0.933,6.714c1.935,4.455,6.422,6.98,10.981,6.312c0.227-0.033,0.557,0.069,0.752,0.233c0.241,7.12,3.698,13.417,8.884,17.014c8.321,5.772,19.027,3.994,25.781-3.921c2.894,2.96,6.338,4.398,10.384,3.876c4.023-0.519,7.147-2.739,9.426-6.349c1.053,0.283,2.051,0.691,3.083,0.804c4.042,0.442,7.324-1.165,9.732-4.8c0.922-1.391,1.793-3.194,1.793-6.354C92.174,60.838,90.88,57.871,88.704,55.881z"/><path fill="#fff" d="M18.368 47.917H8.338c-.276 0-.5-.224-.5-.5s.224-.5.5-.5h10.03c.276 0 .5.224.5.5S18.645 47.917 18.368 47.917zM21.25 47.917h-1.446c-.276 0-.5-.224-.5-.5s.224-.5.5-.5h1.446c.276 0 .5.224.5.5S21.526 47.917 21.25 47.917zM25.304 47.917h-2.546c-.276 0-.5-.224-.5-.5s.224-.5.5-.5h2.546c.276 0 .5.224.5.5S25.58 47.917 25.304 47.917zM25.304 49.782h-9.616c-.276 0-.5-.224-.5-.5s.224-.5.5-.5h9.616c.276 0 .5.224.5.5S25.58 49.782 25.304 49.782zM13.956 49.782h-.58c-.276 0-.5-.224-.5-.5s.224-.5.5-.5h.58c.276 0 .5.224.5.5S14.233 49.782 13.956 49.782zM11.579 49.782h-1.456c-.276 0-.5-.224-.5-.5s.224-.5.5-.5h1.456c.276 0 .5.224.5.5S11.856 49.782 11.579 49.782zM20.715 46.053h-5.027c-.276 0-.5-.224-.5-.5s.224-.5.5-.5h5.027c.276 0 .5.224.5.5S20.991 46.053 20.715 46.053zM20.715 44.187h-1.257c-.276 0-.5-.224-.5-.5s.224-.5.5-.5h1.257c.276 0 .5.224.5.5S20.991 44.187 20.715 44.187zM17.447 51.647h-1.759c-.276 0-.5-.224-.5-.5s.224-.5.5-.5h1.759c.276 0 .5.224.5.5S17.723 51.647 17.447 51.647z"/><path fill="#fdfcef" d="M66.365,61.655c0,0,11.233,0,11.301,0c2.594,0,4.697-2.103,4.697-4.697c0-2.263-1.601-4.152-3.732-4.597c0.025-0.198,0.041-0.399,0.041-0.603c0-2.687-2.178-4.865-4.865-4.865c-1.586,0-2.991,0.763-3.879,1.938c-0.227-2.991-2.898-5.298-6.024-4.916c-2.285,0.28-4.176,2.046-4.596,4.31c-0.135,0.726-0.121,1.431,0.014,2.092c-0.613-0.66-1.485-1.075-2.456-1.075c-1.778,0-3.229,1.384-3.344,3.133c-0.807-0.179-1.685-0.167-2.61,0.18c-1.768,0.664-3.027,2.328-3.1,4.215c-0.105,2.68,2.037,4.885,4.693,4.885c0.202,0,0.911,0,1.074,0h9.753"/><path fill="#472b29" d="M77.666,62.155H66.365c-0.276,0-0.5-0.224-0.5-0.5s0.224-0.5,0.5-0.5h11.301c2.314,0,4.197-1.883,4.197-4.197c0-1.976-1.402-3.704-3.333-4.107c-0.255-0.053-0.426-0.292-0.394-0.55c0.022-0.178,0.038-0.358,0.038-0.542c0-2.407-1.958-4.365-4.365-4.365c-1.376,0-2.645,0.634-3.48,1.739c-0.125,0.166-0.337,0.24-0.54,0.178c-0.199-0.059-0.342-0.234-0.357-0.441c-0.1-1.318-0.746-2.556-1.771-3.396c-1.035-0.849-2.346-1.223-3.694-1.061c-2.072,0.253-3.785,1.859-4.165,3.905c-0.119,0.639-0.115,1.278,0.012,1.901c0.044,0.22-0.062,0.442-0.262,0.544c-0.199,0.102-0.442,0.06-0.595-0.105c-0.547-0.59-1.29-0.915-2.089-0.915c-1.497,0-2.747,1.171-2.845,2.666c-0.01,0.146-0.083,0.28-0.199,0.367c-0.117,0.087-0.268,0.118-0.408,0.088c-0.806-0.179-1.565-0.125-2.327,0.16c-1.596,0.599-2.712,2.112-2.777,3.766c-0.045,1.154,0.37,2.248,1.168,3.078c0.799,0.831,1.874,1.288,3.025,1.288h10.827c0.276,0,0.5,0.224,0.5,0.5s-0.224,0.5-0.5,0.5H52.505c-1.427,0-2.757-0.566-3.746-1.595c-0.989-1.028-1.502-2.381-1.447-3.81c0.08-2.051,1.456-3.925,3.424-4.664c0.767-0.288,1.559-0.385,2.362-0.29c0.371-1.751,1.932-3.055,3.768-3.055c0.649,0,1.286,0.167,1.848,0.476c0.001-0.36,0.036-0.723,0.103-1.084c0.459-2.47,2.526-4.409,5.027-4.714c1.617-0.2,3.2,0.256,4.449,1.28c0.959,0.786,1.643,1.861,1.957,3.047c0.973-0.87,2.224-1.353,3.558-1.353c2.958,0,5.365,2.407,5.365,5.365c0,0.075-0.002,0.15-0.006,0.225c2.166,0.654,3.696,2.679,3.696,4.976C82.863,59.824,80.532,62.155,77.666,62.155z"/><path fill="#472b29" d="M53.339 57.949c-.006 0-.012 0-.017 0-.138-.009-.242-.128-.233-.266.103-1.53 1.539-2.696 3.188-2.578.127.008.256.024.385.049.268-.93 1.219-1.571 2.28-1.505.398.026.782.154 1.108.362.001-.013.001-.026.002-.039.117-1.729 1.734-3.035 3.606-2.913.138.009.242.128.233.266-.009.138-.134.242-.266.233-1.612-.106-2.977.994-3.075 2.447-.012.177-.004.354.022.528.017.109-.041.217-.141.264-.1.047-.22.023-.293-.061-.304-.343-.752-.557-1.23-.589-.893-.058-1.696.529-1.809 1.341-.01.071-.05.134-.11.174-.06.04-.133.051-.204.033-.181-.049-.364-.081-.542-.092-1.385-.089-2.573.857-2.657 2.112C53.579 57.848 53.469 57.949 53.339 57.949zM75.158 54.929c-.018 0-.037-.002-.055-.006-.135-.03-.219-.165-.188-.299.047-.208.118-.411.211-.604.754-1.564 2.795-2.163 4.548-1.335.125.059.179.208.12.333-.059.125-.209.178-.333.12-1.507-.71-3.25-.216-3.885 1.1-.077.159-.135.326-.174.497C75.375 54.851 75.272 54.929 75.158 54.929z"/><path fill="#fff" d="M74.394 25.596h-10.03c-.276 0-.5-.224-.5-.5s.224-.5.5-.5h10.03c.276 0 .5.224.5.5S74.671 25.596 74.394 25.596zM77.276 25.596H75.83c-.276 0-.5-.224-.5-.5s.224-.5.5-.5h1.446c.276 0 .5.224.5.5S77.552 25.596 77.276 25.596zM81.33 25.596h-2.546c-.276 0-.5-.224-.5-.5s.224-.5.5-.5h2.546c.276 0 .5.224.5.5S81.607 25.596 81.33 25.596zM81.33 27.461h-9.617c-.276 0-.5-.224-.5-.5s.224-.5.5-.5h9.617c.276 0 .5.224.5.5S81.607 27.461 81.33 27.461zM69.982 27.461h-.58c-.276 0-.5-.224-.5-.5s.224-.5.5-.5h.58c.276 0 .5.224.5.5S70.259 27.461 69.982 27.461zM67.605 27.461h-1.456c-.276 0-.5-.224-.5-.5s.224-.5.5-.5h1.456c.276 0 .5.224.5.5S67.882 27.461 67.605 27.461zM76.741 23.732h-5.028c-.276 0-.5-.224-.5-.5s.224-.5.5-.5h5.028c.276 0 .5.224.5.5S77.018 23.732 76.741 23.732zM76.741 21.867h-1.257c-.276 0-.5-.224-.5-.5s.224-.5.5-.5h1.257c.276 0 .5.224.5.5S77.018 21.867 76.741 21.867zM73.472 29.326h-1.759c-.276 0-.5-.224-.5-.5s.224-.5.5-.5h1.759c.276 0 .5.224.5.5S73.749 29.326 73.472 29.326z"/><path fill="#77cbd2" d="M70.96,58.678c-0.515,0-1.012,0.079-1.487,0.214c-0.311-4.037-3.494-7.212-7.381-7.212c-2.241,0-4.245,1.059-5.604,2.726c-1.659-3.55-5.101-5.996-9.09-5.996c-5.497,0-9.962,4.637-10.134,10.422c-0.408-0.098-0.83-0.154-1.266-0.154c-3.162,0-5.726,2.719-5.726,6.072c0,3.354,2.564,6.072,5.726,6.072c0.368,0,34.595,0,34.963,0c3.162,0,5.726-2.719,5.726-6.072C76.686,61.396,74.123,58.678,70.96,58.678z"/><path fill="#472b29" d="M70.96 71.291h-5.469c-.359 0-.65-.291-.65-.65s.291-.65.65-.65h5.425c2.843 0 5.12-2.433 5.12-5.422 0-3.447-3.054-6.183-6.385-5.233-.187.054-.389.021-.55-.092-.16-.111-.262-.289-.276-.483-.286-3.708-3.244-6.612-6.733-6.612-1.953 0-3.812.907-5.101 2.487-.142.173-.361.262-.584.234-.222-.027-.414-.167-.509-.37-1.621-3.467-4.878-5.622-8.501-5.622-5.155 0-9.321 4.301-9.484 9.791-.006.195-.1.378-.255.497-.156.12-.356.16-.546.116-3.284-.787-6.19 1.909-6.19 5.287 0 2.99 2.277 5.422 5.076 5.422h7.785c.359 0 .65.291.65.65s-.291.65-.65.65h-7.736c-3.564 0-6.425-3.016-6.425-6.722 0-3.937 3.222-7.124 7.037-6.685.526-5.836 5.114-10.306 10.739-10.306 3.827 0 7.29 2.092 9.24 5.521 1.482-1.441 3.424-2.252 5.455-2.252 3.927 0 7.287 3.052 7.94 7.073 3.89-.627 7.304 2.618 7.304 6.647C77.336 68.275 74.476 71.291 70.96 71.291zM63.663 80.111c-.169 0-.327-.108-.381-.278l-.48-1.503c-.067-.21.049-.436.259-.502.209-.069.436.05.502.259l.48 1.503c.067.21-.049.436-.259.502C63.745 80.105 63.703 80.111 63.663 80.111zM62.836 77.666c-.11 0-.21-.05-.29-.12-.07-.08-.11-.18-.11-.29 0-.1.04-.2.11-.28.16-.15.42-.15.57 0 .07.08.12.18.12.28 0 .06-.01.11-.03.16-.02.05-.05.09-.09.13C63.036 77.616 62.936 77.666 62.836 77.666z"/><path fill="#472b29" d="M62.452 76.335c-.169 0-.327-.108-.381-.278l-2.93-9.167c-.067-.21.049-.436.259-.502.213-.068.435.049.502.259l2.93 9.167c.067.21-.049.436-.259.502C62.533 76.329 62.492 76.335 62.452 76.335zM59.345 83.274c-.106 0-.204-.068-.238-.174l-2.14-6.695c-.042-.131.031-.272.162-.314.13-.041.272.031.314.162l2.14 6.695c.042.131-.031.272-.162.314C59.396 83.27 59.37 83.274 59.345 83.274zM56.597 74.676c-.106 0-.204-.068-.238-.174l-1.832-5.729c-.042-.131.031-.272.162-.314.13-.042.272.03.314.162l1.832 5.729c.042.131-.031.272-.162.314C56.648 74.672 56.622 74.676 56.597 74.676zM49.939 80.522c-.106 0-.204-.068-.238-.174l-2.085-6.523c-.042-.131.031-.272.162-.314.13-.041.272.031.314.162l2.085 6.523c.042.131-.031.272-.162.314C49.99 80.518 49.965 80.522 49.939 80.522zM47.411 72.613c-.106 0-.204-.068-.238-.174l-1.123-3.513c-.042-.131.031-.272.162-.314.13-.042.272.031.314.162l1.123 3.513c.042.131-.031.272-.162.314C47.462 72.609 47.436 72.613 47.411 72.613zM54.771 82.813c-.164 0-.318-.102-.376-.265l-.51-1.426c-.075-.208.034-.437.242-.511.207-.075.437.033.511.242l.51 1.426c.075.208-.034.437-.242.511C54.862 82.805 54.816 82.813 54.771 82.813zM53.87 80.111c-.169 0-.327-.108-.381-.278l-2.786-8.717c-.067-.21.049-.436.259-.502.21-.069.436.049.502.259l2.786 8.717c.067.21-.049.436-.259.502C53.952 80.105 53.91 80.111 53.87 80.111zM56.906 75.606c-.06 0-.13-.03-.17-.08-.05-.04-.08-.11-.08-.17 0-.07.03-.13.08-.18.09-.09.26-.1.35 0 .05.05.07.11.07.18 0 .06-.02.13-.07.17C57.036 75.576 56.976 75.606 56.906 75.606zM50.766 70.346c-.11 0-.21-.04-.28-.12-.08-.07-.12-.18-.12-.28 0-.11.04-.21.12-.28.15-.15.41-.15.56 0 .08.07.12.17.12.28s-.04.21-.12.28C50.976 70.306 50.876 70.346 50.766 70.346z"/><g><path fill="#472b29" d="M63.752 54.471c-.041 0-.082-.01-.119-.03-.528-.287-1.086-.422-1.661-.396-.14-.007-.254-.102-.26-.24-.005-.138.102-.254.24-.26.665-.028 1.312.126 1.92.456.122.066.167.218.101.339C63.926 54.424 63.84 54.471 63.752 54.471zM66.878 59.866c-.003 0-.007 0-.01 0-.138-.006-.245-.122-.24-.26.007-.163.007-.327 0-.493-.067-1.61-.772-3.076-1.886-3.921-.11-.083-.132-.24-.048-.35.084-.11.241-.131.35-.048 1.231.934 2.011 2.541 2.084 4.299.007.18.007.358 0 .534C67.122 59.761 67.012 59.866 66.878 59.866z"/></g><g><path fill="#fdfcef" d="M48.525,63.238c0.911,1.19,2.087,1.762,3.584,1.502c1.548-0.27,2.458-1.29,2.959-2.713c0.118-0.334,0.166-0.707,0.172-1.063c0.008-0.489-0.429-0.862-0.931-0.864c-0.481-0.002-0.899,0.368-0.931,0.841c-0.043,0.632-0.322,1.144-0.784,1.558c-0.618,0.552-1.52,0.573-2.155,0.042c-0.527-0.441-0.834-1.002-0.834-1.709c0-1.052,0-4.535,0-5.587h-1.875c-0.001,0.655-0.002,2.269-0.003,3.637c-0.001,0.81-0.003,1.533-0.004,1.921C47.722,60.803,47.556,61.972,48.525,63.238z"/><path fill="#472b29" d="M51.406,65.303c-1.282,0-2.382-0.59-3.278-1.761l0,0c-1.084-1.416-0.909-2.753-0.901-2.81l0-1.851l0.003-3.637c0-0.276,0.224-0.5,0.5-0.5h1.875c0.276,0,0.5,0.224,0.5,0.5l0,5.587c0,0.523,0.214,0.957,0.655,1.326c0.445,0.373,1.062,0.36,1.5-0.031c0.384-0.343,0.586-0.742,0.619-1.219c0.05-0.734,0.676-1.307,1.426-1.307c0.422,0.001,0.784,0.159,1.055,0.435c0.25,0.255,0.385,0.587,0.38,0.936c-0.007,0.454-0.075,0.864-0.201,1.221c-0.611,1.737-1.736,2.759-3.344,3.04C51.925,65.279,51.662,65.303,51.406,65.303z M48.922,62.934c0.842,1.1,1.857,1.528,3.102,1.312c1.243-0.216,2.084-0.997,2.573-2.386c0.089-0.251,0.139-0.564,0.144-0.905c0.001-0.081-0.03-0.155-0.093-0.219c-0.083-0.085-0.21-0.136-0.339-0.136c-0.183,0.006-0.417,0.17-0.431,0.375c-0.05,0.74-0.37,1.377-0.95,1.896c-0.805,0.719-1.987,0.741-2.809,0.053c-0.673-0.562-1.014-1.267-1.014-2.092l0-5.087h-0.876l-0.007,5.06C48.212,60.908,48.105,61.866,48.922,62.934L48.922,62.934z"/><path fill="#472b29" d="M48.491,55.428c-0.276,0-0.5-0.224-0.5-0.5V39.833c0-0.276,0.224-0.5,0.5-0.5s0.5,0.224,0.5,0.5v15.094C48.991,55.204,48.767,55.428,48.491,55.428z"/><path fill="#fdfcef" d="M57.461,43.993c0.788-2.181,4.072-3.526,7.387-3.526c2.839,0,5.289,1.183,6.429,2.893c-1.444-10.386-11.118-18.415-22.839-18.415c-7.4,0-13.984,3.201-18.195,8.174c-0.446,0.527-0.866,1.074-1.257,1.639c-0.438,0.633-0.841,1.289-1.205,1.965c-0.997,1.853-1.707,3.859-2.076,5.97c1.278-1.343,3.441-2.226,5.894-2.226c3.436,0,6.303,1.732,6.966,4.035c0.379-2.611,4.585-4.669,9.721-4.669C50.911,39.833,56.652,41.825,57.461,43.993"/><path fill="#472b29" d="M38.565,45.002c-0.221,0-0.418-0.146-0.48-0.362c-0.613-2.128-3.34-3.673-6.485-3.673c-2.23,0-4.298,0.774-5.532,2.071c-0.152,0.16-0.39,0.2-0.587,0.102c-0.197-0.099-0.305-0.315-0.268-0.533c0.371-2.127,1.087-4.187,2.127-6.121c0.371-0.688,0.786-1.366,1.234-2.013c0.399-0.576,0.832-1.14,1.287-1.677c4.494-5.307,11.265-8.351,18.577-8.351c11.809,0,21.84,8.102,23.334,18.846c0.032,0.231-0.1,0.454-0.317,0.536c-0.217,0.082-0.465,0.005-0.594-0.19c-1.081-1.622-3.441-2.67-6.013-2.67c-3.339,0-6.248,1.344-6.917,3.196c-0.071,0.197-0.258,0.329-0.468,0.33c0,0-0.001,0-0.002,0c-0.208,0-0.396-0.129-0.468-0.325c-0.695-1.864-6.162-3.835-8.707-3.835c-4.748,0-8.887,1.902-9.227,4.24c-0.034,0.233-0.226,0.411-0.46,0.427C38.588,45.001,38.576,45.002,38.565,45.002z M31.599,39.967c3.002,0,5.689,1.3,6.911,3.221c1.307-2.266,5.175-3.855,9.776-3.855c2.382,0,7.378,1.588,9.134,3.654c1.227-1.814,4.109-3.021,7.428-3.021c2.194,0,4.212,0.665,5.626,1.8c-2.176-9.415-11.344-16.322-22.037-16.322c-7.017,0-13.51,2.915-17.814,7.998c-0.434,0.512-0.847,1.051-1.227,1.6c-0.427,0.617-0.823,1.262-1.176,1.918c-0.762,1.416-1.341,2.903-1.728,4.435C27.876,40.486,29.691,39.967,31.599,39.967z"/><path fill="#ee3e54" d="M47.296,25.272c-7.678,2.223-10.196,11.62-8.59,17.642c1.336-1.936,5.565-3.814,9.785-3.514c6.09,0.433,8.873,3.633,8.955,3.519c1.609-6.023-1.105-15.428-8.788-17.648c-0.243-0.007-0.486-0.015-0.731-0.015C47.715,25.255,47.506,25.267,47.296,25.272z"/><g><path fill="#fdfcef" d="M49.14,24.447v-1.568c0-0.614-0.503-1.117-1.117-1.117c-0.614,0-1.117,0.503-1.117,1.117v1.568H49.14z"/><path fill="#472b29" d="M49.14,24.947h-2.234c-0.276,0-0.5-0.224-0.5-0.5v-1.568c0-0.892,0.725-1.617,1.617-1.617s1.617,0.726,1.617,1.617v1.568C49.64,24.723,49.416,24.947,49.14,24.947z M47.406,23.947h1.234v-1.068c0-0.34-0.277-0.617-0.617-0.617c-0.34,0-0.617,0.277-0.617,0.617V23.947z"/></g><g><path fill="#472b29" d="M57.397,43.918c-0.024,0-0.048-0.003-0.072-0.011c-0.132-0.04-0.207-0.179-0.167-0.312c1.147-3.799,0.473-8.885-1.677-12.654c-1.722-3.018-4.237-5.007-7.273-5.753c-0.134-0.033-0.216-0.168-0.183-0.302c0.033-0.134,0.168-0.217,0.302-0.183c3.173,0.779,5.797,2.851,7.588,5.991c2.214,3.881,2.905,9.124,1.721,13.046C57.604,43.848,57.505,43.918,57.397,43.918z"/><path fill="#472b29" d="M38.641,43.918c-0.107,0-0.207-0.07-0.239-0.178c-1.184-3.922-0.493-9.166,1.721-13.046c1.791-3.14,4.415-5.212,7.588-5.991c0.137-0.034,0.27,0.049,0.302,0.183c0.033,0.134-0.049,0.27-0.183,0.302c-3.037,0.746-5.552,2.735-7.273,5.753c-2.15,3.77-2.824,8.855-1.677,12.654c0.04,0.132-0.035,0.271-0.167,0.312C38.69,43.914,38.665,43.918,38.641,43.918z"/></g></g></svg>