<svg xmlns="http://www.w3.org/2000/svg"  viewBox="0 0 100 100" width="100px" height="100px"><path fill="#c7ede6" d="M88.704,55.881c0.3-0.616,0.566-1.264,0.796-1.943c2.633-7.77-1.349-17.078-9.733-19.325C78.86,23.23,70.86,15.421,61.826,14.088c-10.341-1.525-19.814,5.044-22.966,15.485c-3.799-1.346-7.501-1.182-10.99,0.857c-1.583,0.732-3.031,1.812-4.33,3.233c-1.907,2.086-3.147,4.719-3.652,7.495c-0.748,0.118-1.483,0.236-2.176,0.484c-4.04,1.449-6.589,4.431-7.288,8.923c-0.435,2.797,0.443,5.587,0.933,6.714c1.935,4.455,6.422,6.98,10.981,6.312c0.227-0.033,0.557,0.069,0.752,0.233c0.241,7.12,3.698,13.417,8.884,17.014c8.321,5.772,19.027,3.994,25.781-3.921c2.894,2.96,6.338,4.398,10.384,3.876c4.023-0.519,7.147-2.739,9.426-6.349c1.053,0.283,2.051,0.691,3.083,0.804c4.042,0.442,7.324-1.165,9.732-4.8c0.922-1.391,1.793-3.194,1.793-6.354C92.174,60.838,90.88,57.871,88.704,55.881z"/><path fill="#fff" d="M18.369 47.917H8.338c-.276 0-.5-.224-.5-.5s.224-.5.5-.5h10.03c.276 0 .5.224.5.5S18.645 47.917 18.369 47.917zM21.25 47.917h-1.445c-.276 0-.5-.224-.5-.5s.224-.5.5-.5h1.445c.276 0 .5.224.5.5S21.526 47.917 21.25 47.917zM25.304 47.917h-2.546c-.276 0-.5-.224-.5-.5s.224-.5.5-.5h2.546c.276 0 .5.224.5.5S25.581 47.917 25.304 47.917zM25.304 49.782h-9.616c-.276 0-.5-.224-.5-.5s.224-.5.5-.5h9.616c.276 0 .5.224.5.5S25.581 49.782 25.304 49.782zM13.957 49.782h-.58c-.276 0-.5-.224-.5-.5s.224-.5.5-.5h.58c.276 0 .5.224.5.5S14.233 49.782 13.957 49.782zM11.58 49.782h-1.456c-.276 0-.5-.224-.5-.5s.224-.5.5-.5h1.456c.276 0 .5.224.5.5S11.856 49.782 11.58 49.782zM20.715 46.053h-5.027c-.276 0-.5-.224-.5-.5s.224-.5.5-.5h5.027c.276 0 .5.224.5.5S20.992 46.053 20.715 46.053zM20.715 44.187h-1.258c-.276 0-.5-.224-.5-.5s.224-.5.5-.5h1.258c.276 0 .5.224.5.5S20.992 44.187 20.715 44.187zM17.447 51.647h-1.759c-.276 0-.5-.224-.5-.5s.224-.5.5-.5h1.759c.276 0 .5.224.5.5S17.723 51.647 17.447 51.647z"/><path fill="#ee3e54" d="M32.469,66.851c-0.253-1.27-0.39-2.582-0.39-3.926c0-11.046,8.954-20,20-20c11.046,0,20,8.954,20,20c0,1.344-0.137,2.656-0.39,3.926h4.069c0.211-1.278,0.322-2.589,0.322-3.926c0-13.255-10.745-24-24-24s-24,10.745-24,24c0,1.338,0.111,2.649,0.322,3.926H32.469z"/><path fill="#472b29" d="M75.927,67.052h-4.483l0.048-0.239c0.257-1.284,0.387-2.592,0.387-3.887c0-10.918-8.882-19.8-19.8-19.8s-19.8,8.882-19.8,19.8c0,1.291,0.13,2.599,0.387,3.887l0.048,0.239h-4.482l-0.027-0.167c-0.216-1.306-0.325-2.638-0.325-3.959c0-13.344,10.856-24.2,24.2-24.2s24.2,10.856,24.2,24.2c0,1.325-0.109,2.657-0.324,3.959L75.927,67.052z M71.93,66.651h3.657c0.193-1.227,0.291-2.48,0.291-3.726c0-13.124-10.677-23.8-23.8-23.8s-23.8,10.676-23.8,23.8c0,1.243,0.099,2.495,0.292,3.726h3.656c-0.231-1.237-0.349-2.489-0.349-3.726c0-11.138,9.062-20.2,20.2-20.2s20.2,9.062,20.2,20.2C72.279,64.167,72.162,65.419,71.93,66.651z"/><path fill="#ef8f70" d="M36.585,66.851c-0.318-1.259-0.506-2.569-0.506-3.926c0-8.837,7.163-16,16-16c8.837,0,16,7.163,16,16c0,1.357-0.187,2.668-0.506,3.926h4.115c0.253-1.27,0.39-2.582,0.39-3.926c0-11.046-8.954-20-20-20c-11.046,0-20,8.954-20,20c0,1.344,0.137,2.656,0.39,3.926H36.585z"/><path fill="#472b29" d="M71.852,67.052h-4.535l0.062-0.249c0.331-1.313,0.499-2.617,0.499-3.877c0-8.712-7.088-15.8-15.8-15.8s-15.8,7.088-15.8,15.8c0,1.262,0.168,2.566,0.5,3.877l0.062,0.249h-4.536l-0.032-0.161c-0.262-1.314-0.395-2.648-0.395-3.965c0-11.138,9.062-20.2,20.2-20.2s20.2,9.062,20.2,20.2c0,1.322-0.133,2.656-0.395,3.965L71.852,67.052z M67.829,66.651h3.694c0.236-1.232,0.355-2.484,0.355-3.726c0-10.918-8.882-19.8-19.8-19.8s-19.8,8.882-19.8,19.8c0,1.237,0.119,2.49,0.355,3.726h3.695c-0.3-1.259-0.451-2.512-0.451-3.726c0-8.933,7.268-16.2,16.2-16.2s16.2,7.268,16.2,16.2C68.279,64.138,68.128,65.39,67.829,66.651z"/><path fill="#f9c32b" d="M40.749,66.851c-0.427-1.232-0.67-2.549-0.67-3.926c0-6.627,5.373-12,12-12s12,5.373,12,12c0,1.377-0.243,2.695-0.67,3.926h4.165c0.318-1.259,0.506-2.569,0.506-3.926c0-8.837-7.163-16-16-16c-8.837,0-16,7.163-16,16c0,1.357,0.187,2.668,0.506,3.926H40.749z"/><path fill="#472b29" d="M67.73,67.052h-4.603l0.092-0.266c0.438-1.262,0.659-2.561,0.659-3.861c0-6.506-5.293-11.8-11.8-11.8s-11.8,5.293-11.8,11.8c0,1.298,0.222,2.597,0.66,3.861l0.092,0.266h-4.602L36.39,66.9c-0.339-1.343-0.512-2.681-0.512-3.975c0-8.933,7.268-16.2,16.2-16.2s16.2,7.268,16.2,16.2c0,1.293-0.172,2.63-0.511,3.975L67.73,67.052z M63.686,66.651h3.731c0.306-1.262,0.461-2.514,0.461-3.726c0-8.712-7.088-15.8-15.8-15.8s-15.8,7.088-15.8,15.8c0,1.213,0.155,2.466,0.462,3.726h3.731c-0.395-1.222-0.594-2.474-0.594-3.726c0-6.727,5.473-12.2,12.2-12.2s12.2,5.473,12.2,12.2C64.279,64.179,64.08,65.43,63.686,66.651z"/><path fill="#bdc642" d="M45.113,66.851c-0.656-1.161-1.034-2.498-1.034-3.926c0-4.418,3.582-8,8-8c4.418,0,8,3.582,8,8c0,1.428-0.378,2.766-1.034,3.926h4.364c0.427-1.232,0.67-2.549,0.67-3.926c0-6.627-5.373-12-12-12s-12,5.373-12,12c0,1.377,0.243,2.695,0.67,3.926H45.113z"/><path fill="#472b29" d="M63.551,67.052h-4.85l0.169-0.299c0.659-1.167,1.008-2.49,1.008-3.828c0-4.301-3.499-7.8-7.8-7.8s-7.8,3.499-7.8,7.8c0,1.336,0.349,2.66,1.008,3.828l0.169,0.298h-4.849l-0.047-0.135c-0.452-1.306-0.682-2.649-0.682-3.992c0-6.727,5.473-12.2,12.2-12.2s12.2,5.473,12.2,12.2c0,1.344-0.229,2.687-0.681,3.992L63.551,67.052z M59.379,66.651h3.886c0.407-1.22,0.613-2.473,0.613-3.726c0-6.506-5.293-11.8-11.8-11.8s-11.8,5.293-11.8,11.8c0,1.252,0.206,2.505,0.614,3.726h3.885c-0.589-1.153-0.899-2.434-0.899-3.726c0-4.521,3.679-8.2,8.2-8.2s8.2,3.679,8.2,8.2C60.279,64.219,59.968,65.5,59.379,66.651z"/><path fill="#78a0cf" d="M52.079,54.925c-4.418,0-8,3.582-8,8c0,1.428,0.378,2.766,1.034,3.926h3.327c-0.007-0.029-0.012-0.058-0.018-0.087c-0.481-0.707-0.763-1.559-0.763-2.474v-0.944c0-2.154,1.564-3.955,3.611-4.339c0.262-0.054,0.532-0.082,0.81-0.082c0,0,0,0,0,0s0.001,0,0.001,0c0.063,0,0.121,0.016,0.183,0.019c0.211,0.01,0.422,0.022,0.624,0.063c2.049,0.383,3.615,2.184,3.615,4.34v0.944c0,0.914-0.282,1.766-0.762,2.473c-0.007,0.03-0.012,0.058-0.019,0.088h3.324c0.656-1.161,1.034-2.498,1.034-3.926C60.079,58.507,56.497,54.925,52.079,54.925z"/><path fill="#472b29" d="M59.161,67.052h-3.698l0.112-0.4c0.477-0.702,0.728-1.518,0.728-2.36v-0.944c0-2.027-1.451-3.77-3.452-4.143c-0.189-0.039-0.39-0.051-0.596-0.061c-0.034-0.001-0.067-0.006-0.101-0.011c-0.287-0.041-0.569,0.014-0.845,0.07c-2.001,0.376-3.45,2.119-3.45,4.144v0.944c0,0.844,0.252,1.66,0.728,2.362l0.031,0.072l0.075,0.327h-3.697l-0.057-0.102c-0.693-1.228-1.061-2.62-1.061-4.024c0-4.521,3.679-8.2,8.2-8.2s8.2,3.679,8.2,8.2c0,1.406-0.367,2.798-1.061,4.025L59.161,67.052z M56.049,66.651h2.877c0.623-1.142,0.952-2.427,0.952-3.726c0-4.301-3.499-7.8-7.8-7.8s-7.8,3.499-7.8,7.8c0,1.297,0.328,2.583,0.952,3.726h2.881c-0.428-0.715-0.653-1.525-0.653-2.36v-0.944c0-2.218,1.587-4.125,3.773-4.537c0.319-0.065,0.667-0.116,0.979-0.074c0.021,0.003,0.041,0.006,0.062,0.007c0.223,0.01,0.44,0.023,0.654,0.067c2.187,0.408,3.775,2.316,3.775,4.536v0.944C56.703,65.125,56.477,65.936,56.049,66.651z"/><path fill="#472b29" d="M75.757,67.552H55.721c-0.217,0-0.422-0.101-0.555-0.272c-0.132-0.172-0.178-0.396-0.122-0.605c0.02-0.077,0.072-0.237,0.117-0.303c0.419-0.618,0.641-1.337,0.641-2.08v-0.944c0-1.787-1.28-3.322-3.044-3.652c-0.179-0.037-0.353-0.044-0.527-0.052c-0.022-0.001-0.126-0.012-0.148-0.015c-0.232-0.015-0.454,0.02-0.673,0.065c-1.772,0.333-3.051,1.869-3.051,3.654v0.944c0,0.743,0.222,1.462,0.642,2.081c0.052,0.077,0.089,0.163,0.106,0.253c0.042,0.206-0.001,0.463-0.134,0.626c-0.134,0.163-0.323,0.3-0.533,0.3H28.401c-0.343,0-0.635-0.248-0.69-0.586c-0.221-1.333-0.332-2.692-0.332-4.04c0-13.62,11.08-24.7,24.7-24.7s24.7,11.081,24.7,24.7c0,1.352-0.111,2.711-0.331,4.04C76.392,67.304,76.1,67.552,75.757,67.552z M56.851,66.151h18.305c0.148-1.066,0.223-2.148,0.223-3.226c0-12.848-10.452-23.3-23.3-23.3s-23.3,10.452-23.3,23.3c0,1.075,0.075,2.157,0.224,3.226H47.31c-0.231-0.589-0.352-1.218-0.352-1.86v-0.944c0-2.458,1.759-4.572,4.182-5.028c0.365-0.075,0.775-0.13,1.141-0.078c0.264,0.014,0.512,0.031,0.748,0.08c2.413,0.451,4.174,2.565,4.174,5.025v0.944C57.203,64.932,57.083,65.562,56.851,66.151z"/><path fill="#fdfcef" d="M41.73,72.605c2.022,0,3.775,0,3.8,0c2.265,0,4.101-1.797,4.101-4.014c0-1.934-1.398-3.548-3.259-3.929c0.021-0.169,0.036-0.341,0.036-0.516c0-2.296-1.902-4.158-4.248-4.158c-1.385,0-2.612,0.652-3.387,1.656c-0.198-2.556-2.531-4.528-5.26-4.201c-1.996,0.239-3.646,1.749-4.014,3.683c-0.118,0.62-0.106,1.223,0.012,1.788c-0.535-0.564-1.297-0.919-2.145-0.919c-1.553,0-2.82,1.183-2.92,2.678c-0.705-0.153-1.472-0.143-2.279,0.154c-1.544,0.567-2.643,1.99-2.707,3.602c-0.091,2.29,1.778,4.175,4.098,4.175c0.176,0,0.795,0,0.938,0h8.517 M34.777,72.605h0.386"/><path fill="#472b29" d="M45.531,73.105H41.73c-0.276,0-0.5-0.224-0.5-0.5s0.224-0.5,0.5-0.5h3.801c1.986,0,3.602-1.577,3.602-3.514c0-1.653-1.202-3.1-2.859-3.439c-0.256-0.052-0.429-0.293-0.396-0.553c0.019-0.148,0.032-0.299,0.032-0.453c0-2.017-1.682-3.658-3.748-3.658c-1.184,0-2.273,0.533-2.991,1.462c-0.126,0.164-0.342,0.233-0.538,0.173c-0.198-0.059-0.34-0.234-0.355-0.44c-0.086-1.104-0.613-2.105-1.483-2.82c-0.897-0.736-2.044-1.064-3.22-0.923c-1.783,0.213-3.256,1.562-3.582,3.28c-0.102,0.537-0.098,1.073,0.011,1.592c0.046,0.219-0.06,0.441-0.257,0.545c-0.2,0.103-0.441,0.063-0.595-0.099c-0.468-0.492-1.101-0.763-1.783-0.763c-1.274,0-2.338,0.971-2.421,2.211c-0.01,0.145-0.082,0.278-0.198,0.366s-0.268,0.12-0.406,0.089c-0.691-0.15-1.346-0.106-2.002,0.134c-1.367,0.503-2.324,1.77-2.379,3.153c-0.038,0.95,0.307,1.853,0.97,2.544c0.688,0.717,1.622,1.111,2.628,1.111h9.455c0.276,0,0.5,0.224,0.5,0.5s-0.224,0.5-0.5,0.5h-9.455c-1.262,0-2.482-0.517-3.349-1.418c-0.854-0.889-1.298-2.053-1.249-3.277c0.071-1.782,1.291-3.411,3.034-4.051c0.66-0.242,1.343-0.331,2.034-0.257c0.354-1.498,1.728-2.605,3.338-2.605c0.543,0,1.075,0.129,1.553,0.368c0.007-0.275,0.036-0.553,0.089-0.83c0.406-2.142,2.234-3.822,4.445-4.087c1.451-0.174,2.862,0.232,3.973,1.143c0.812,0.666,1.383,1.534,1.664,2.506c0.849-0.713,1.926-1.108,3.07-1.108c2.618,0,4.748,2.089,4.748,4.658c0,0.046-0.001,0.091-0.003,0.137c1.894,0.583,3.226,2.329,3.226,4.308C50.132,71.08,48.068,73.105,45.531,73.105z M35.163,73.105h-0.386c-0.276,0-0.5-0.224-0.5-0.5s0.224-0.5,0.5-0.5h0.386c0.276,0,0.5,0.224,0.5,0.5S35.439,73.105,35.163,73.105z"/><path fill="#472b29" d="M43.698 66.894c-.018 0-.036-.002-.054-.006-.135-.03-.22-.163-.19-.298.038-.173.099-.345.18-.51.646-1.306 2.43-1.786 3.972-1.073.126.058.181.207.122.332-.058.125-.209.179-.331.122-1.3-.602-2.788-.225-3.314.839-.062.129-.11.263-.14.397C43.917 66.814 43.813 66.894 43.698 66.894zM38.16 73.105h-1.188c-.276 0-.5-.224-.5-.5s.224-.5.5-.5h1.188c.276 0 .5.224.5.5S38.436 73.105 38.16 73.105z"/><path fill="#fff" d="M50.393 22.596h-10.03c-.276 0-.5-.224-.5-.5s.224-.5.5-.5h10.03c.276 0 .5.224.5.5S50.67 22.596 50.393 22.596zM53.274 22.596h-1.445c-.276 0-.5-.224-.5-.5s.224-.5.5-.5h1.445c.276 0 .5.224.5.5S53.55 22.596 53.274 22.596zM57.329 22.596h-2.546c-.276 0-.5-.224-.5-.5s.224-.5.5-.5h2.546c.276 0 .5.224.5.5S57.605 22.596 57.329 22.596zM57.329 24.461h-9.616c-.276 0-.5-.224-.5-.5s.224-.5.5-.5h9.616c.276 0 .5.224.5.5S57.605 24.461 57.329 24.461zM45.981 24.461h-.58c-.276 0-.5-.224-.5-.5s.224-.5.5-.5h.58c.276 0 .5.224.5.5S46.257 24.461 45.981 24.461zM43.604 24.461h-1.456c-.276 0-.5-.224-.5-.5s.224-.5.5-.5h1.456c.276 0 .5.224.5.5S43.88 24.461 43.604 24.461zM52.74 20.732h-5.027c-.276 0-.5-.224-.5-.5s.224-.5.5-.5h5.027c.276 0 .5.224.5.5S53.016 20.732 52.74 20.732zM52.74 18.866h-1.257c-.276 0-.5-.224-.5-.5s.224-.5.5-.5h1.257c.276 0 .5.224.5.5S53.016 18.866 52.74 18.866zM49.471 26.326h-1.759c-.276 0-.5-.224-.5-.5s.224-.5.5-.5h1.759c.276 0 .5.224.5.5S49.748 26.326 49.471 26.326z"/><path fill="#fcc62b" d="M79.603 32.364000000000004A8.248 8.248 0 1 0 79.603 48.86A8.248 8.248 0 1 0 79.603 32.364000000000004Z"/><path fill="#472b29" d="M87.684 43.024c-.033 0-.067-.003-.102-.01-.271-.055-.444-.319-.39-.59.105-.515.159-1.044.159-1.571 0-4.296-3.495-7.792-7.792-7.792-2.507 0-4.876 1.218-6.338 3.258-.162.225-.476.275-.697.115-.225-.161-.276-.473-.115-.697 1.648-2.302 4.321-3.676 7.15-3.676 4.848 0 8.792 3.944 8.792 8.792 0 .594-.061 1.19-.179 1.771C88.125 42.861 87.917 43.024 87.684 43.024zM79.371 31.667c-.276 0-.5-.224-.5-.5v-2.935c0-.276.224-.5.5-.5s.5.224.5.5v2.935C79.871 31.443 79.647 31.667 79.371 31.667zM91.948 41.729h-2.516c-.276 0-.5-.224-.5-.5s.224-.5.5-.5h2.516c.276 0 .5.224.5.5S92.224 41.729 91.948 41.729z"/><path fill="#472b29" d="M86.3 34.525c-.128 0-.256-.049-.354-.146-.195-.195-.195-.512 0-.707l1.95-1.951c.195-.195.512-.195.707 0s.195.512 0 .707l-1.95 1.951C86.556 34.476 86.428 34.525 86.3 34.525zM72.341 34.431c-.128 0-.256-.049-.354-.146l-1.973-1.973c-.195-.195-.195-.512 0-.707.195-.195.512-.195.707 0l1.973 1.973c.195.195.195.512 0 .707C72.597 34.383 72.469 34.431 72.341 34.431zM83.73 36.044c-.056 0-.112-.019-.159-.057-.136-.112-.277-.219-.423-.32-.113-.079-.142-.234-.062-.348.078-.114.234-.14.348-.063.157.109.309.225.456.346.106.088.121.245.034.352C83.874 36.012 83.802 36.044 83.73 36.044zM74.502 36.932c-.057 0-.112-.019-.159-.057-.106-.088-.121-.246-.033-.352 1.298-1.574 3.212-2.477 5.251-2.477 1.128 0 2.245.282 3.231.814.121.065.166.217.101.338-.065.122-.216.167-.339.102-.913-.494-1.948-.754-2.993-.754-1.889 0-3.662.836-4.866 2.295C74.645 36.902 74.574 36.932 74.502 36.932z"/><g><path fill="#fdfcef" d="M72.365,55.655c0,0,11.233,0,11.301,0c2.594,0,4.697-2.103,4.697-4.697c0-2.263-1.601-4.152-3.732-4.597c0.025-0.198,0.041-0.399,0.041-0.603c0-2.687-2.178-4.865-4.865-4.865c-1.586,0-2.991,0.763-3.879,1.938c-0.227-2.991-2.898-5.298-6.024-4.916c-2.285,0.28-4.176,2.046-4.596,4.31c-0.135,0.726-0.121,1.431,0.014,2.092c-0.613-0.66-1.485-1.075-2.456-1.075c-1.778,0-3.229,1.384-3.344,3.133c-0.807-0.179-1.685-0.167-2.61,0.18c-1.768,0.664-3.027,2.328-3.1,4.215c-0.105,2.68,2.037,4.885,4.693,4.885c0.202,0,0.911,0,1.074,0h9.753"/><path fill="#472b29" d="M83.667,56.155H72.365c-0.276,0-0.5-0.224-0.5-0.5s0.224-0.5,0.5-0.5h11.302c2.313,0,4.196-1.883,4.196-4.197c0-1.977-1.402-3.704-3.334-4.108c-0.254-0.053-0.426-0.292-0.394-0.55c0.021-0.178,0.037-0.358,0.037-0.542c0-2.407-1.958-4.365-4.364-4.365c-1.377,0-2.645,0.634-3.48,1.739c-0.125,0.167-0.341,0.238-0.539,0.178c-0.2-0.059-0.342-0.234-0.358-0.442c-0.1-1.317-0.744-2.555-1.77-3.396c-1.036-0.849-2.347-1.224-3.694-1.062c-2.073,0.254-3.786,1.86-4.166,3.905c-0.118,0.64-0.114,1.279,0.013,1.9c0.045,0.22-0.062,0.442-0.262,0.545c-0.197,0.103-0.441,0.061-0.595-0.104c-0.549-0.59-1.291-0.916-2.091-0.916c-1.497,0-2.746,1.171-2.845,2.666c-0.01,0.146-0.082,0.28-0.199,0.367c-0.116,0.087-0.267,0.119-0.408,0.088c-0.803-0.177-1.563-0.125-2.325,0.16c-1.597,0.599-2.713,2.112-2.776,3.766c-0.046,1.154,0.369,2.247,1.167,3.077c0.799,0.831,1.873,1.289,3.025,1.289h10.828c0.276,0,0.5,0.224,0.5,0.5s-0.224,0.5-0.5,0.5H58.504c-1.427,0-2.757-0.566-3.746-1.595c-0.988-1.028-1.502-2.381-1.446-3.81c0.08-2.051,1.456-3.925,3.425-4.664c0.766-0.288,1.559-0.383,2.361-0.291c0.371-1.751,1.932-3.055,3.768-3.055c0.649,0,1.286,0.167,1.849,0.476c0.002-0.36,0.036-0.722,0.104-1.084c0.458-2.47,2.525-4.409,5.027-4.715c1.621-0.2,3.2,0.256,4.449,1.28c0.959,0.786,1.643,1.862,1.956,3.046c0.973-0.869,2.224-1.353,3.558-1.353c2.958,0,5.364,2.407,5.364,5.365c0,0.075-0.002,0.15-0.006,0.225c2.166,0.653,3.696,2.679,3.696,4.976C88.863,53.824,86.532,56.155,83.667,56.155z"/><path fill="#472b29" d="M59.338 51.949c-.006 0-.011 0-.017 0-.138-.009-.242-.128-.232-.266.102-1.53 1.522-2.694 3.188-2.578.127.008.256.025.384.049.269-.929 1.216-1.572 2.281-1.505.404.027.783.151 1.108.36.001-.013.002-.025.003-.038.115-1.729 1.738-3.026 3.605-2.912.138.009.242.128.232.266-.008.137-.097.25-.266.233-1.603-.112-2.978.993-3.074 2.447-.012.177-.004.354.022.528.017.109-.04.217-.141.264-.101.047-.221.023-.293-.06-.31-.348-.746-.558-1.231-.589-.909-.069-1.696.53-1.809 1.341-.011.071-.051.134-.11.174-.059.04-.131.053-.203.033-.182-.049-.364-.08-.543-.092-1.387-.092-2.572.858-2.657 2.112C59.579 51.847 59.469 51.949 59.338 51.949zM81.158 48.929c-.019 0-.037-.002-.056-.006-.135-.031-.219-.165-.188-.3.048-.21.119-.413.212-.604.752-1.562 2.791-2.162 4.548-1.334.125.059.179.208.12.333-.06.126-.21.177-.333.12-1.508-.71-3.249-.217-3.885 1.1-.077.157-.136.324-.176.498C81.375 48.851 81.272 48.929 81.158 48.929z"/></g></svg>