<?xml version="1.0" encoding="utf-8"?>
<!-- Generator: Adobe Illustrator 25.3.1, SVG Export Plug-In . SVG Version: 6.00 Build 0)  -->
<svg version="1.1" xmlns="http://www.w3.org/2000/svg" xmlns:xlink="http://www.w3.org/1999/xlink" x="0px" y="0px"
	 viewBox="0 0 512 512" enable-background="new 0 0 512 512" xml:space="preserve">
<g id="_x33_0_1_">
</g>
<g id="_x32_9">
</g>
<g id="_x32_8">
</g>
<g id="_x32_7">
</g>
<g id="_x32_6">
</g>
<g id="_x32_5">
</g>
<g id="_x32_4">
</g>
<g id="_x32_3">
</g>
<g id="_x32_2">
</g>
<g id="_x32_1">
</g>
<g id="_x32_0">
</g>
<g id="_x31_9">
</g>
<g id="_x31_8">
</g>
<g id="_x31_7">
</g>
<g id="_x31_6">
</g>
<g id="_x31_5">
</g>
<g id="_x31_4">
</g>
<g id="_x31_3">
</g>
<g id="_x31_2">
</g>
<g id="_x31_1">
</g>
<g id="_x31_0">
</g>
<g id="_x30_9">
</g>
<g id="_x30_8">
</g>
<g id="_x30_7">
	<g>
		<g>
			<path fill="#9FA2E2" d="M391.9,106H284.5v80h137.4v-50C421.9,119.4,408.4,106,391.9,106z"/>
		</g>
		<g>
			<path fill="#8E93D6" d="M391.9,106H284.5v80h77.4v-50C361.9,119.4,375.3,106,391.9,106z"/>
		</g>
		<g>
			<path fill="#B9BAF0" d="M304.5,406h170c16.6,0,30-13.4,30-30V262.6c0-10.9-3-21.5-8.6-30.9l-39.8-66.3
				c-7.2-12-20.2-19.4-34.3-19.4H284.5L304.5,406z"/>
		</g>
		<g>
			<polygon fill="#9FA2E2" points="361.9,146 284.5,146 304.5,406 361.9,406 			"/>
		</g>
		<g>
			<path fill="#FFE885" d="M474.5,307.1h30v40h-30c-11,0-20-9-20-20v0C454.5,316,463.5,307.1,474.5,307.1z"/>
		</g>
		<g>
			<path fill="#DAF3F6" d="M344.5,247.1V196c0-5.5,4.5-10,10-10h61.7c3.5,0,6.8,1.8,8.6,4.9l39.7,66.2h-110
				C349,257.1,344.5,252.6,344.5,247.1z"/>
		</g>
		<g>
			<path fill="#BFECF2" d="M374.5,247.1V196c0-5.5,4.5-10,10-10h-30c-5.5,0-10,4.5-10,10v51.1c0,5.5,4.5,10,10,10h30
				C379,257.1,374.5,252.6,374.5,247.1z"/>
		</g>
		<g>
			<path fill="#8E93D6" d="M304.5,297.1l-148.5-20l-148.5,20V376c0,16.6,13.4,30,30,30h267V297.1z"/>
		</g>
		<g>
			<path fill="#F7F5F6" d="M304.5,257.1l-148.5,20l-148.5-20V76c0-16.6,13.4-30,30-30h237c16.6,0,30,13.4,30,30V257.1z"/>
		</g>
		<g>
			<path fill="#7D84C9" d="M107.5,376v-92.4l-100,13.5V376c0,16.6,13.4,30,30,30h100C120.9,406,107.5,392.6,107.5,376z"/>
		</g>
		<g>
			<path fill="#EDEBED" d="M107.5,76c0-16.6,13.4-30,30-30h-100c-16.6,0-30,13.4-30,30v181.1l100,13.5V76z"/>
		</g>
		<g>
			<rect x="7.5" y="257.1" fill="#A4E5EE" width="297" height="40"/>
		</g>
		<g>
			<circle fill="#998C97" cx="404.5" cy="406" r="60"/>
		</g>
		<g>
			<path fill="#8A7E88" d="M384.5,446c0-11,9-20,20-20v-40c-11,0-20-9-20-20s9-20,20-20c-33.1,0-60,26.9-60,60s26.9,60,60,60
				C393.5,466,384.5,457,384.5,446z"/>
		</g>
		<g>
			<circle fill="#7C6A7A" cx="404.5" cy="406" r="20"/>
		</g>
		<g>
			<circle fill="#998C97" cx="107.5" cy="406" r="60"/>
		</g>
		<g>
			<path fill="#8A7E88" d="M87.5,446c0-11,9-20,20-20v-40c-11,0-20-9-20-20s9-20,20-20c-33.1,0-60,26.9-60,60s26.9,60,60,60
				C96.5,466,87.5,457,87.5,446z"/>
		</g>
		<g>
			<circle fill="#7C6A7A" cx="107.5" cy="406" r="20"/>
		</g>
		<g>
			<path fill="#8E93D6" d="M454.5,277.1h-20c-5.5,0-10-4.5-10-10v-20c0-5.5,4.5-10,10-10h20c11,0,20,9,20,20v0
				C474.5,268.1,465.5,277.1,454.5,277.1z"/>
		</g>
		<g>
			<path fill="#6BD7E5" d="M87.5,277.1c0-11,9-20,20-20H7.5v40h100C96.5,297.1,87.5,288.1,87.5,277.1z"/>
		</g>
		<g>
			<path d="M502.4,227.9l-39.8-66.3c-7.2-12.1-19.5-20.2-33.2-22.4V136c0-20.7-16.8-37.5-37.5-37.5H312V76
				c0-20.7-16.8-37.5-37.5-37.5h-237C16.8,38.5,0,55.3,0,76v45c0,4.1,3.4,7.5,7.5,7.5s7.5-3.4,7.5-7.5V76
				c0-12.4,10.1-22.5,22.5-22.5h237c12.4,0,22.5,10.1,22.5,22.5v70c0,0.2,0,0.3,0,0.5c0,0.2,0,0.3,0,0.5v39c0,4.1,3.4,7.5,7.5,7.5
				s7.5-3.4,7.5-7.5v-32.5h109.9c11.4,0,22,6,27.9,15.8l39.8,66.3c4.9,8.2,7.5,17.5,7.5,27v37h-22.5c-15.2,0-27.5,12.3-27.5,27.5
				s12.3,27.5,27.5,27.5H497V376c0,12.4-10.1,22.5-22.5,22.5h-2.9c-2.4-21.1-14.7-40.2-33.3-51c-3.6-2.1-8.2-0.8-10.2,2.7
				c-2.1,3.6-0.8,8.2,2.7,10.2c16.2,9.4,26.3,26.8,26.3,45.5c0,28.9-23.6,52.5-52.5,52.5S352,434.9,352,406
				c0-18.7,10.1-36.1,26.3-45.5c3.6-2.1,4.8-6.7,2.7-10.2c-2.1-3.6-6.7-4.8-10.2-2.7c-18.6,10.8-30.9,29.9-33.3,51H312V216
				c0-4.1-3.4-7.5-7.5-7.5s-7.5,3.4-7.5,7.5v33.6H15V181c0-4.1-3.4-7.5-7.5-7.5S0,176.9,0,181v195c0,20.7,16.8,37.5,37.5,37.5h2.9
				c3.7,33.7,32.4,60,67.1,60s63.3-26.3,67.1-60h162.9c3.7,33.7,32.4,60,67.1,60s63.3-26.3,67.1-60h2.9c20.7,0,37.5-16.8,37.5-37.5
				V262.6C512,250.4,508.7,238.4,502.4,227.9z M312,113.5h79.9c12.4,0,22.5,10.1,22.5,22.5v2.5H312V113.5z M15,376v-71.4h92.5
				c4.1,0,7.5-3.4,7.5-7.5s-3.4-7.5-7.5-7.5H15v-25h282v25H137.5c-4.1,0-7.5,3.4-7.5,7.5s3.4,7.5,7.5,7.5H297v93.9H174.6
				c-3.7-33.7-32.4-60-67.1-60s-63.3,26.3-67.1,60h-2.9C25.1,398.5,15,388.4,15,376z M107.5,458.5C78.6,458.5,55,434.9,55,406
				s23.6-52.5,52.5-52.5S160,377.1,160,406S136.4,458.5,107.5,458.5z M474.5,339.6c-6.9,0-12.5-5.6-12.5-12.5s5.6-12.5,12.5-12.5
				H497v25H474.5z"/>
			<path d="M404.5,433.5c15.2,0,27.5-12.3,27.5-27.5s-12.3-27.5-27.5-27.5S377,390.8,377,406S389.3,433.5,404.5,433.5z M404.5,393.5
				c6.9,0,12.5,5.6,12.5,12.5s-5.6,12.5-12.5,12.5S392,412.9,392,406S397.6,393.5,404.5,393.5z"/>
			<path d="M107.5,378.5C92.3,378.5,80,390.8,80,406s12.3,27.5,27.5,27.5S135,421.2,135,406S122.7,378.5,107.5,378.5z M107.5,418.5
				c-6.9,0-12.5-5.6-12.5-12.5s5.6-12.5,12.5-12.5S120,399.1,120,406S114.4,418.5,107.5,418.5z"/>
			<path d="M454.5,284.6c15.2,0,27.5-12.3,27.5-27.5c0-14.4-11.1-26.2-25.2-27.4L431.2,187c-3.1-5.2-8.9-8.5-15-8.5h-61.7
				c-9.6,0-17.5,7.9-17.5,17.5v51.1c0,9.6,7.9,17.5,17.5,17.5H417v2.5c0,9.6,7.9,17.5,17.5,17.5H454.5z M354.5,249.6
				c-1.4,0-2.5-1.1-2.5-2.5V196c0-1.4,1.1-2.5,2.5-2.5h61.7c0.9,0,1.7,0.5,2.1,1.2l20.9,34.9h-4.8c-9.6,0-17.5,7.9-17.5,17.5v2.5
				H354.5z M432,267.1v-20c0-1.4,1.1-2.5,2.5-2.5h20c6.9,0,12.5,5.6,12.5,12.5s-5.6,12.5-12.5,12.5h-20
				C433.1,269.6,432,268.5,432,267.1z"/>
			<path d="M379.5,284.6h-25c-4.1,0-7.5,3.4-7.5,7.5s3.4,7.5,7.5,7.5h25c4.1,0,7.5-3.4,7.5-7.5S383.6,284.6,379.5,284.6z"/>
			<circle cx="404.5" cy="346" r="7.5"/>
			<circle cx="7.5" cy="151" r="7.5"/>
		</g>
	</g>
</g>
<g id="_x30_6">
</g>
<g id="_x30_5">
</g>
<g id="_x30_4">
</g>
<g id="_x30_3">
</g>
<g id="_x30_2">
</g>
<g id="_x30_1">
</g>
</svg>
