<svg xmlns="http://www.w3.org/2000/svg"  viewBox="0 0 100 100" width="100px" height="100px"><path fill="#fdf5a9" d="M61.921 26.208A18.771 18.771 0 1 0 61.921 63.75A18.771 18.771 0 1 0 61.921 26.208Z"/><path fill="#8e9db5" d="M33.921,68.882H22.13c0,0,0,0-0.074,0c-4.773,0-8.643-4.104-8.643-9.166s3.87-9.166,8.643-9.166c0.657,0,1.295,0.085,1.911,0.232c0.26-8.732,7-15.73,15.297-15.73c6.021,0,11.216,3.692,13.721,9.05c2.051-2.516,5.077-4.115,8.459-4.115c5.867,0,10.671,4.793,11.141,10.886c0.717-0.204,1.467-0.323,2.245-0.323c4.773,0,8.643,4.104,8.643,9.166s-3.87,9.166-8.643,9.166c-0.15,0,0,0,0,0h-8.907"/><path fill="#1f212b" d="M74.828 69.882h-8.907c-.553 0-1-.447-1-1s.447-1 1-1h8.841c4.28 0 7.709-3.663 7.709-8.166 0-5.189-4.595-9.312-9.614-7.88-.289.08-.6.03-.845-.142-.246-.171-.402-.444-.426-.743-.431-5.587-4.886-9.963-10.144-9.963-2.941 0-5.742 1.365-7.684 3.746-.218.267-.56.402-.898.36-.342-.042-.637-.257-.783-.568-2.443-5.227-7.354-8.474-12.814-8.474-7.771 0-14.05 6.483-14.297 14.761-.01.301-.153.581-.393.764s-.549.248-.841.179c-4.938-1.187-9.319 2.875-9.319 7.96 0 4.503 3.429 8.166 7.643 8.166h11.865c.553 0 1 .447 1 1s-.447 1-1 1H22.13c-5.392 0-9.717-4.561-9.717-10.166 0-5.946 4.878-10.759 10.622-10.109.804-8.811 7.734-15.554 16.228-15.554 5.775 0 11.002 3.153 13.951 8.322 2.238-2.168 5.166-3.387 8.229-3.387 5.931 0 11.006 4.604 12.001 10.673.465-.073.928-.11 1.385-.11 5.317 0 9.643 4.56 9.643 10.165S80.146 69.882 74.828 69.882zM59.386 78.99c-.212 0-.408-.136-.477-.348l-.725-2.268c-.084-.264.062-.545.324-.629.264-.082.544.062.629.324l.725 2.268c.084.264-.062.545-.324.629C59.488 78.982 59.437 78.99 59.386 78.99zM58.131 75.292c-.07 0-.13-.011-.19-.04-.06-.021-.12-.061-.16-.11-.05-.04-.09-.1-.109-.16-.03-.06-.04-.12-.04-.189 0-.07.01-.13.04-.19.02-.06.06-.12.109-.16.181-.189.511-.189.7 0 .05.04.09.101.11.16.03.061.04.12.04.19 0 .069-.01.13-.04.189-.021.061-.061.12-.11.16C58.391 75.241 58.271 75.292 58.131 75.292z"/><path fill="#1f212b" d="M57.558 73.291c-.212 0-.408-.136-.477-.348l-4.423-13.837c-.084-.263.062-.545.324-.629.263-.08.544.062.629.324l4.423 13.837c.084.263-.062.545-.324.629C57.66 73.283 57.609 73.291 57.558 73.291zM51.097 78.678c-.212 0-.408-.136-.477-.348l-3.229-10.106c-.084-.264.062-.545.324-.629.262-.081.544.062.629.324l3.229 10.106c.084.264-.062.545-.324.629C51.199 78.67 51.148 78.678 51.097 78.678zM46.95 65.699c-.212 0-.408-.136-.477-.348l-2.765-8.648c-.084-.263.062-.545.324-.629.262-.082.544.062.629.324l2.765 8.648c.084.263-.062.545-.324.629C47.051 65.691 47 65.699 46.95 65.699zM44.194 83.069c-.205 0-.397-.127-.471-.332l-.77-2.152c-.093-.26.042-.546.303-.639.261-.09.546.042.639.303l.77 2.152c.093.26-.042.546-.303.639C44.306 83.06 44.249 83.069 44.194 83.069zM42.834 78.99c-.212 0-.408-.136-.477-.348l-4.206-13.156c-.084-.263.062-.545.324-.629.261-.082.544.062.629.324l4.206 13.156c.084.263-.062.545-.324.629C42.936 78.982 42.885 78.99 42.834 78.99zM47.421 67.102c-.061 0-.13-.02-.19-.04-.06-.03-.12-.06-.16-.11-.05-.05-.09-.1-.109-.159-.03-.061-.04-.13-.04-.19 0-.13.05-.26.149-.36.181-.18.521-.189.7 0 .101.101.15.23.15.36 0 .061-.01.13-.04.19-.021.06-.061.109-.11.159C47.681 67.052 47.551 67.102 47.421 67.102zM38.151 64.252c-.069 0-.13-.011-.189-.04-.061-.021-.12-.061-.16-.11-.1-.09-.15-.22-.15-.35s.051-.261.15-.36c.14-.14.35-.18.54-.1.06.02.12.06.16.1.1.1.149.23.149.36s-.05.26-.149.35c-.04.05-.101.09-.16.11C38.281 64.241 38.221 64.252 38.151 64.252zM35.286 78.611c-.276 0-.5-.224-.5-.5v-4.428c0-.276.224-.5.5-.5s.5.224.5.5v4.428C35.786 78.388 35.563 78.611 35.286 78.611z"/><path fill="#1f212b" d="M37.5,76.398h-4.428c-0.276,0-0.5-0.224-0.5-0.5s0.224-0.5,0.5-0.5H37.5c0.276,0,0.5,0.224,0.5,0.5S37.777,76.398,37.5,76.398z"/><path fill="#1f212b" d="M33.721,77.963c-0.128,0-0.256-0.049-0.354-0.146c-0.195-0.195-0.195-0.512,0-0.707l3.131-3.131c0.195-0.195,0.512-0.195,0.707,0s0.195,0.512,0,0.707l-3.131,3.131C33.977,77.914,33.849,77.963,33.721,77.963z"/><path fill="#1f212b" d="M36.852 77.963c-.128 0-.256-.049-.354-.146l-3.131-3.131c-.195-.195-.195-.512 0-.707s.512-.195.707 0l3.131 3.131c.195.195.195.512 0 .707C37.108 77.914 36.98 77.963 36.852 77.963zM61.242 65.651c-.276 0-.5-.224-.5-.5v-4.429c0-.276.224-.5.5-.5s.5.224.5.5v4.429C61.742 65.428 61.518 65.651 61.242 65.651z"/><path fill="#1f212b" d="M63.455,63.437h-4.429c-0.276,0-0.5-0.224-0.5-0.5s0.224-0.5,0.5-0.5h4.429c0.276,0,0.5,0.224,0.5,0.5S63.732,63.437,63.455,63.437z"/><path fill="#1f212b" d="M59.675,65.002c-0.128,0-0.256-0.049-0.354-0.146c-0.195-0.195-0.195-0.512,0-0.707l3.132-3.131c0.195-0.195,0.512-0.195,0.707,0s0.195,0.512,0,0.707l-3.132,3.131C59.931,64.953,59.803,65.002,59.675,65.002z"/><path fill="#1f212b" d="M62.807 65.002c-.128 0-.256-.049-.354-.146l-3.132-3.131c-.195-.195-.195-.512 0-.707s.512-.195.707 0l3.132 3.131c.195.195.195.512 0 .707C63.063 64.953 62.935 65.002 62.807 65.002zM53.135 85.825c-.276 0-.5-.224-.5-.5v-4.428c0-.276.224-.5.5-.5s.5.224.5.5v4.428C53.635 85.602 53.411 85.825 53.135 85.825z"/><path fill="#1f212b" d="M55.349,83.611h-4.428c-0.276,0-0.5-0.224-0.5-0.5s0.224-0.5,0.5-0.5h4.428c0.276,0,0.5,0.224,0.5,0.5S55.625,83.611,55.349,83.611z"/><path fill="#1f212b" d="M51.57,85.177c-0.128,0-0.256-0.049-0.354-0.146c-0.195-0.195-0.195-0.512,0-0.707l3.131-3.131c0.195-0.195,0.512-0.195,0.707,0s0.195,0.512,0,0.707l-3.131,3.131C51.826,85.128,51.698,85.177,51.57,85.177z"/><path fill="#1f212b" d="M54.701 85.177c-.128 0-.256-.049-.354-.146l-3.131-3.131c-.195-.195-.195-.512 0-.707s.512-.195.707 0l3.131 3.131c.195.195.195.512 0 .707C54.956 85.128 54.828 85.177 54.701 85.177zM80.57 49.899c-.066 0-.134-.007-.202-.021-.541-.11-.89-.64-.778-1.181.242-1.183.365-2.4.365-3.619 0-9.9-8.054-17.954-17.954-17.954-5.775 0-11.235 2.807-14.605 7.509-.321.448-.945.553-1.396.229-.448-.321-.552-.946-.229-1.396 3.744-5.224 9.812-8.343 16.23-8.343 11.003 0 19.954 8.951 19.954 19.954 0 1.354-.137 2.706-.406 4.021C81.452 49.573 81.035 49.899 80.57 49.899zM61.921 23.882c-.553 0-1-.447-1-1v-7c0-.553.447-1 1-1s1 .447 1 1v7C62.921 23.435 62.474 23.882 61.921 23.882zM89.921 46.882h-5c-.553 0-1-.447-1-1s.447-1 1-1h5c.553 0 1 .447 1 1S90.474 46.882 89.921 46.882z"/><path fill="#1f212b" d="M77.408 30.47c-.256 0-.512-.098-.707-.293-.391-.391-.391-1.023 0-1.414l4.459-4.458c.391-.391 1.023-.391 1.414 0s.391 1.023 0 1.414l-4.459 4.458C77.919 30.372 77.663 30.47 77.408 30.47zM45.498 30.258c-.256 0-.512-.098-.707-.293l-4.511-4.511c-.391-.391-.391-1.023 0-1.414s1.023-.391 1.414 0l4.511 4.511c.391.391.391 1.023 0 1.414C46.01 30.16 45.754 30.258 45.498 30.258zM71.534 34.015c-.112 0-.225-.037-.318-.114-.313-.259-.637-.504-.971-.735-.228-.157-.284-.469-.127-.695.156-.229.468-.285.695-.127.357.247.704.51 1.039.786.213.176.243.491.067.704C71.821 33.953 71.677 34.015 71.534 34.015zM50.435 36.046c-.112 0-.226-.037-.318-.114-.213-.176-.243-.491-.067-.704 2.956-3.581 7.312-5.635 11.951-5.635 2.566 0 5.108.641 7.351 1.853.243.131.334.435.202.677-.131.245-.437.333-.677.202-2.097-1.133-4.475-1.731-6.876-1.731-4.34 0-8.414 1.921-11.18 5.271C50.722 35.984 50.578 36.046 50.435 36.046z"/></svg>