<svg xmlns="http://www.w3.org/2000/svg"  viewBox="0 0 100 100" width="100px" height="100px"><path fill="#c7ede6" d="M87.215,56.71C88.35,54.555,89,52.105,89,49.5c0-6.621-4.159-12.257-10.001-14.478 C78.999,35.015,79,35.008,79,35c0-11.598-9.402-21-21-21c-9.784,0-17.981,6.701-20.313,15.757C36.211,29.272,34.638,29,33,29 c-7.692,0-14.023,5.793-14.89,13.252C12.906,43.353,9,47.969,9,53.5C9,59.851,14.149,65,20.5,65c0.177,0,0.352-0.012,0.526-0.022 C21.022,65.153,21,65.324,21,65.5C21,76.822,30.178,86,41.5,86c6.437,0,12.175-2.972,15.934-7.614C59.612,80.611,62.64,82,66,82 c4.65,0,8.674-2.65,10.666-6.518C77.718,75.817,78.837,76,80,76c6.075,0,11-4.925,11-11C91,61.689,89.53,58.727,87.215,56.71z"/><path fill="#fdfcef" d="M77.5,60.5V61h3v-0.5c0,0,4.242,0,5.5,0c2.485,0,4.5-2.015,4.5-4.5c0-2.333-1.782-4.229-4.055-4.455 C86.467,51.364,86.5,51.187,86.5,51c0-2.485-2.015-4.5-4.5-4.5c-1.438,0-2.703,0.686-3.527,1.736 C78.333,45.6,76.171,43.5,73.5,43.5c-2.761,0-5,2.239-5,5c0,0.446,0.077,0.87,0.187,1.282C68.045,49.005,67.086,48.5,66,48.5 c-1.781,0-3.234,1.335-3.455,3.055C62.364,51.533,62.187,51.5,62,51.5c-2.485,0-4.5,2.015-4.5,4.5s2.015,4.5,4.5,4.5s9.5,0,9.5,0 H77.5z"/><path fill="#472b29" d="M73.5,43c-3.033,0-5.5,2.467-5.5,5.5c0,0.016,0,0.031,0,0.047C67.398,48.192,66.71,48,66,48 c-1.831,0-3.411,1.261-3.858,3.005C62.095,51.002,62.048,51,62,51c-2.757,0-5,2.243-5,5s2.243,5,5,5h15.5 c0.276,0,0.5-0.224,0.5-0.5S77.776,60,77.5,60H62c-2.206,0-4-1.794-4-4s1.794-4,4-4c0.117,0,0.23,0.017,0.343,0.032l0.141,0.019 c0.021,0.003,0.041,0.004,0.062,0.004c0.246,0,0.462-0.185,0.495-0.437C63.232,50.125,64.504,49,66,49 c0.885,0,1.723,0.401,2.301,1.1c0.098,0.118,0.241,0.182,0.386,0.182c0.078,0,0.156-0.018,0.228-0.056 c0.209-0.107,0.314-0.346,0.254-0.573C69.054,49.218,69,48.852,69,48.5c0-2.481,2.019-4.5,4.5-4.5c2.381,0,4.347,1.872,4.474,4.263 c0.011,0.208,0.15,0.387,0.349,0.45c0.05,0.016,0.101,0.024,0.152,0.024c0.15,0,0.296-0.069,0.392-0.192 C79.638,47.563,80.779,47,82,47c2.206,0,4,1.794,4,4c0,0.117-0.017,0.23-0.032,0.343l-0.019,0.141 c-0.016,0.134,0.022,0.268,0.106,0.373c0.084,0.105,0.207,0.172,0.34,0.185C88.451,52.247,90,53.949,90,56c0,2.206-1.794,4-4,4 h-5.5c-0.276,0-0.5,0.224-0.5,0.5s0.224,0.5,0.5,0.5H86c2.757,0,5-2.243,5-5c0-2.397-1.689-4.413-4.003-4.877 C86.999,51.082,87,51.041,87,51c0-2.757-2.243-5-5-5c-1.176,0-2.293,0.416-3.183,1.164C78.219,44.76,76.055,43,73.5,43L73.5,43z"/><path fill="#472b29" d="M72 50c-1.403 0-2.609.999-2.913 2.341C68.72 52.119 68.301 52 67.875 52c-1.202 0-2.198.897-2.353 2.068C65.319 54.022 65.126 54 64.937 54c-1.529 0-2.811 1.2-2.918 2.732C62.01 56.87 62.114 56.99 62.251 57c.006 0 .012 0 .018 0 .13 0 .24-.101.249-.232.089-1.271 1.151-2.268 2.419-2.268.229 0 .47.042.738.127.022.007.045.01.067.01.055 0 .11-.02.156-.054C65.962 54.537 66 54.455 66 54.375c0-1.034.841-1.875 1.875-1.875.447 0 .885.168 1.231.473.047.041.106.063.165.063.032 0 .063-.006.093-.019.088-.035.148-.117.155-.212C69.623 51.512 70.712 50.5 72 50.5c.208 0 .425.034.682.107.023.007.047.01.07.01.109 0 .207-.073.239-.182.038-.133-.039-.271-.172-.309C72.517 50.04 72.256 50 72 50L72 50zM85.883 51.5c-1.326 0-2.508.897-2.874 2.182-.038.133.039.271.172.309C83.205 53.997 83.228 54 83.25 54c.109 0 .209-.072.24-.182C83.795 52.748 84.779 52 85.883 52c.117 0 .23.014.342.029.012.002.023.003.035.003.121 0 .229-.092.246-.217.019-.137-.077-.263-.214-.281C86.158 51.516 86.022 51.5 85.883 51.5L85.883 51.5z"/><path fill="#fff" d="M16.5 53h-10C6.224 53 6 52.776 6 52.5S6.224 52 6.5 52h10c.276 0 .5.224.5.5S16.777 53 16.5 53zM19.5 53h-1c-.276 0-.5-.224-.5-.5s.224-.5.5-.5h1c.276 0 .5.224.5.5S19.777 53 19.5 53zM24.491 55H15.5c-.276 0-.5-.224-.5-.5s.224-.5.5-.5h8.991c.276 0 .5.224.5.5S24.767 55 24.491 55zM13.5 55h-1c-.276 0-.5-.224-.5-.5s.224-.5.5-.5h1c.276 0 .5.224.5.5S13.777 55 13.5 55zM10.5 55h-2C8.224 55 8 54.776 8 54.5S8.224 54 8.5 54h2c.276 0 .5.224.5.5S10.777 55 10.5 55zM16.5 57h-2c-.276 0-.5-.224-.5-.5s.224-.5.5-.5h2c.276 0 .5.224.5.5S16.776 57 16.5 57zM19.5 48c-.177 0-.823 0-1 0-.276 0-.5.224-.5.5 0 .276.224.5.5.5.177 0 .823 0 1 0 .276 0 .5-.224.5-.5C20 48.224 19.776 48 19.5 48zM19.5 50c-.177 0-4.823 0-5 0-.276 0-.5.224-.5.5 0 .276.224.5.5.5.177 0 4.823 0 5 0 .276 0 .5-.224.5-.5C20 50.224 19.776 50 19.5 50zM24.5 52c-.177 0-2.823 0-3 0-.276 0-.5.224-.5.5 0 .276.224.5.5.5.177 0 2.823 0 3 0 .276 0 .5-.224.5-.5C25 52.224 24.776 52 24.5 52z"/><g><path fill="#fff" d="M70.5 22h-10c-.276 0-.5-.224-.5-.5s.224-.5.5-.5h10c.276 0 .5.224.5.5S70.776 22 70.5 22zM74.5 22h-2c-.276 0-.5-.224-.5-.5s.224-.5.5-.5h2c.276 0 .5.224.5.5S74.776 22 74.5 22zM79.5 24h-10c-.276 0-.5-.224-.5-.5s.224-.5.5-.5h10c.276 0 .5.224.5.5S79.777 24 79.5 24zM67.5 24h-1c-.276 0-.5-.224-.5-.5s.224-.5.5-.5h1c.276 0 .5.224.5.5S67.776 24 67.5 24zM64.47 24H62.5c-.276 0-.5-.224-.5-.5s.224-.5.5-.5h1.97c.276 0 .5.224.5.5S64.746 24 64.47 24zM73.5 20h-5c-.276 0-.5-.224-.5-.5s.224-.5.5-.5h5c.276 0 .5.224.5.5S73.777 20 73.5 20zM70.5 26h-2c-.276 0-.5-.224-.5-.5s.224-.5.5-.5h2c.276 0 .5.224.5.5S70.776 26 70.5 26z"/></g><g><path fill="#c6dff1" d="M51.5 25.005000000000003A23.479 23.479 0 1 0 51.5 71.963A23.479 23.479 0 1 0 51.5 25.005000000000003Z"/><path fill="#472b29" d="M51.499,25.4C64.237,25.4,74.6,35.762,74.6,48.499C74.6,61.237,64.237,71.6,51.499,71.6 C38.762,71.6,28.4,61.237,28.4,48.5S38.762,25.4,51.499,25.4 M51.499,24C37.99,24,27,34.991,27,48.5S37.99,73,51.499,73 C65.009,73,76,62.008,76,48.499S65.009,24,51.499,24L51.499,24z"/><path fill="#472b29" d="M44.5,37.875c-0.207,0-0.375-0.168-0.375-0.375v-5.125c0-0.207,0.168-0.375,0.375-0.375 s0.375,0.168,0.375,0.375V37.5C44.875,37.707,44.707,37.875,44.5,37.875z"/><path fill="#472b29" d="M44.5,37.875c-0.064,0-0.129-0.017-0.188-0.05l-4.438-2.563c-0.18-0.104-0.241-0.333-0.138-0.513 c0.104-0.181,0.336-0.238,0.513-0.138l4.438,2.563c0.18,0.104,0.241,0.333,0.138,0.513C44.755,37.808,44.629,37.875,44.5,37.875z"/><path fill="#472b29" d="M40.062,40.438c-0.129,0-0.255-0.067-0.325-0.188c-0.104-0.18-0.042-0.409,0.138-0.513 l4.438-2.563c0.179-0.101,0.408-0.041,0.513,0.138c0.104,0.18,0.042,0.409-0.138,0.513l-4.438,2.563 C40.19,40.421,40.125,40.438,40.062,40.438z"/><path fill="#472b29" d="M44.5,43c-0.207,0-0.375-0.168-0.375-0.375V37.5c0-0.207,0.168-0.375,0.375-0.375 s0.375,0.168,0.375,0.375v5.125C44.875,42.832,44.707,43,44.5,43z"/><path fill="#472b29" d="M48.938,40.438c-0.064,0-0.129-0.017-0.188-0.05l-4.438-2.563 c-0.18-0.104-0.241-0.333-0.138-0.513c0.104-0.181,0.336-0.237,0.513-0.138l4.438,2.563c0.18,0.104,0.241,0.333,0.138,0.513 C49.193,40.37,49.067,40.438,48.938,40.438z"/><path fill="#472b29" d="M44.5 37.875c-.129 0-.255-.067-.325-.188-.104-.18-.042-.409.138-.513l4.438-2.563c.179-.1.408-.041.513.138.104.18.042.409-.138.513l-4.438 2.563C44.629 37.858 44.563 37.875 44.5 37.875zM44.51 35.03l-1.391-1.39c-.146-.146-.146-.385 0-.531.146-.146.385-.146.531 0l.859.86.859-.86c.146-.146.385-.146.531 0 .146.146.146.385 0 .531L44.51 35.03z"/><g><path fill="#472b29" d="M40.375,36.787c-0.166,0-0.317-0.11-0.362-0.277c-0.054-0.2,0.065-0.406,0.265-0.46l1.175-0.314 l-0.314-1.176c-0.054-0.2,0.065-0.405,0.266-0.459c0.198-0.052,0.405,0.065,0.459,0.266l0.508,1.898l-1.897,0.51 C40.439,36.783,40.407,36.787,40.375,36.787z"/></g><g><path fill="#472b29" d="M41.5,40.912c-0.032,0-0.064-0.004-0.097-0.013c-0.2-0.054-0.319-0.259-0.266-0.459l0.314-1.176 l-1.175-0.314c-0.199-0.054-0.318-0.26-0.265-0.46c0.054-0.199,0.256-0.316,0.46-0.265l1.897,0.51l-0.508,1.898 C41.817,40.802,41.666,40.912,41.5,40.912z"/></g><g><path fill="#472b29" d="M45.635,42c-0.096,0-0.192-0.036-0.266-0.109l-0.859-0.86l-0.859,0.86 c-0.146,0.146-0.385,0.146-0.531,0c-0.146-0.146-0.146-0.385,0-0.531l1.391-1.39l1.391,1.39c0.146,0.146,0.146,0.385,0,0.531 C45.827,41.964,45.73,42,45.635,42z"/></g><g><path fill="#472b29" d="M47.52,40.912c-0.166,0-0.317-0.11-0.362-0.278l-0.509-1.898l1.899-0.51 c0.2-0.053,0.405,0.065,0.459,0.266c0.054,0.199-0.065,0.405-0.266,0.459l-1.175,0.314l0.315,1.176 c0.054,0.199-0.065,0.405-0.266,0.459C47.584,40.908,47.552,40.912,47.52,40.912z"/></g><g><path fill="#472b29" d="M48.645,36.787c-0.032,0-0.064-0.004-0.097-0.013l-1.899-0.51l0.509-1.898 c0.054-0.2,0.264-0.317,0.459-0.266c0.2,0.054,0.319,0.26,0.266,0.459l-0.315,1.176l1.175,0.314 c0.2,0.054,0.319,0.26,0.266,0.459C48.962,36.677,48.811,36.787,48.645,36.787z"/></g><g><path fill="#472b29" d="M37.5,50.875c-0.207,0-0.375-0.168-0.375-0.375v-5.125c0-0.207,0.168-0.375,0.375-0.375 s0.375,0.168,0.375,0.375V50.5C37.875,50.707,37.707,50.875,37.5,50.875z"/><path fill="#472b29" d="M37.5,50.875c-0.064,0-0.129-0.017-0.188-0.05l-4.438-2.563c-0.18-0.104-0.241-0.333-0.138-0.513 c0.104-0.181,0.336-0.238,0.513-0.138l4.438,2.563c0.18,0.104,0.241,0.333,0.138,0.513C37.755,50.808,37.629,50.875,37.5,50.875z"/><path fill="#472b29" d="M33.062,53.438c-0.129,0-0.255-0.067-0.325-0.188c-0.104-0.18-0.042-0.409,0.138-0.513 l4.438-2.563c0.178-0.1,0.408-0.041,0.513,0.138c0.104,0.18,0.042,0.409-0.138,0.513l-4.438,2.563 C33.19,53.421,33.125,53.438,33.062,53.438z"/><path fill="#472b29" d="M37.5,56c-0.207,0-0.375-0.168-0.375-0.375V50.5c0-0.207,0.168-0.375,0.375-0.375 s0.375,0.168,0.375,0.375v5.125C37.875,55.832,37.707,56,37.5,56z"/><path fill="#472b29" d="M41.938,53.438c-0.064,0-0.129-0.017-0.188-0.05l-4.438-2.563 c-0.18-0.104-0.241-0.333-0.138-0.513c0.104-0.181,0.336-0.238,0.513-0.138l4.438,2.563c0.18,0.104,0.241,0.333,0.138,0.513 C42.193,53.37,42.067,53.438,41.938,53.438z"/><path fill="#472b29" d="M37.5 50.875c-.129 0-.255-.067-.325-.188-.104-.18-.042-.409.138-.513l4.438-2.563c.179-.101.408-.041.513.138.104.18.042.409-.138.513l-4.438 2.563C37.629 50.858 37.563 50.875 37.5 50.875zM37.51 48.03l-1.391-1.39c-.146-.146-.146-.385 0-.531.146-.146.385-.146.531 0l.859.86.859-.86c.146-.146.385-.146.531 0 .146.146.146.385 0 .531L37.51 48.03z"/><g><path fill="#472b29" d="M33.375,49.787c-0.166,0-0.317-0.11-0.362-0.277c-0.054-0.2,0.065-0.406,0.265-0.46l1.175-0.314 l-0.314-1.176c-0.054-0.2,0.065-0.405,0.266-0.459c0.2-0.052,0.405,0.065,0.459,0.266l0.508,1.898l-1.897,0.51 C33.439,49.783,33.407,49.787,33.375,49.787z"/></g><g><path fill="#472b29" d="M34.5,53.912c-0.032,0-0.064-0.004-0.097-0.013c-0.2-0.054-0.319-0.259-0.266-0.459l0.314-1.176 l-1.175-0.314c-0.199-0.054-0.318-0.26-0.265-0.46c0.054-0.199,0.258-0.317,0.46-0.265l1.897,0.51l-0.508,1.898 C34.817,53.802,34.666,53.912,34.5,53.912z"/></g><g><path fill="#472b29" d="M38.635,55c-0.096,0-0.192-0.036-0.266-0.109l-0.859-0.86l-0.859,0.86 c-0.146,0.146-0.385,0.146-0.531,0c-0.146-0.146-0.146-0.385,0-0.531l1.391-1.39l1.391,1.39c0.146,0.146,0.146,0.385,0,0.531 C38.827,54.964,38.73,55,38.635,55z"/></g><g><path fill="#472b29" d="M40.52,53.912c-0.166,0-0.317-0.11-0.362-0.278l-0.509-1.898l1.899-0.51 c0.198-0.053,0.405,0.065,0.459,0.266c0.054,0.199-0.065,0.405-0.266,0.459l-1.175,0.314l0.315,1.176 c0.054,0.199-0.065,0.405-0.266,0.459C40.584,53.908,40.552,53.912,40.52,53.912z"/></g><g><path fill="#472b29" d="M41.645,49.787c-0.032,0-0.064-0.004-0.097-0.013l-1.899-0.51l0.509-1.898 c0.054-0.2,0.262-0.317,0.459-0.266c0.2,0.054,0.319,0.26,0.266,0.459l-0.315,1.176l1.175,0.314 c0.2,0.054,0.319,0.26,0.266,0.459C41.962,49.677,41.811,49.787,41.645,49.787z"/></g></g><g><path fill="#472b29" d="M51.563,61.875c-0.207,0-0.375-0.168-0.375-0.375v-5.125c0-0.207,0.168-0.375,0.375-0.375 s0.375,0.168,0.375,0.375V61.5C51.938,61.707,51.771,61.875,51.563,61.875z"/><path fill="#472b29" d="M51.563,61.875c-0.064,0-0.129-0.017-0.188-0.05l-4.438-2.563 c-0.18-0.104-0.241-0.333-0.138-0.513c0.104-0.181,0.336-0.238,0.513-0.138l4.438,2.563c0.18,0.104,0.241,0.333,0.138,0.513 C51.818,61.808,51.692,61.875,51.563,61.875z"/><path fill="#472b29" d="M47.125,64.438c-0.129,0-0.255-0.067-0.325-0.188c-0.104-0.18-0.042-0.409,0.138-0.513 l4.438-2.563c0.179-0.1,0.408-0.042,0.513,0.138c0.104,0.18,0.042,0.409-0.138,0.513l-4.438,2.563 C47.254,64.421,47.188,64.438,47.125,64.438z"/><path fill="#472b29" d="M51.563,67c-0.207,0-0.375-0.168-0.375-0.375V61.5c0-0.207,0.168-0.375,0.375-0.375 s0.375,0.168,0.375,0.375v5.125C51.938,66.832,51.771,67,51.563,67z"/><path fill="#472b29" d="M56.002,64.438c-0.064,0-0.129-0.017-0.188-0.05l-4.438-2.563 c-0.18-0.104-0.241-0.333-0.138-0.513c0.104-0.181,0.336-0.237,0.513-0.138l4.438,2.563c0.18,0.104,0.241,0.333,0.138,0.513 C56.257,64.37,56.131,64.438,56.002,64.438z"/><path fill="#472b29" d="M51.563 61.875c-.129 0-.255-.067-.325-.188-.104-.18-.042-.409.138-.513l4.438-2.563c.179-.101.408-.041.513.138.104.18.042.409-.138.513l-4.438 2.563C51.692 61.858 51.627 61.875 51.563 61.875zM51.573 59.03l-1.391-1.39c-.146-.146-.146-.385 0-.531.146-.146.385-.146.531 0l.859.86.859-.86c.146-.146.385-.146.531 0 .146.146.146.385 0 .531L51.573 59.03z"/><g><path fill="#472b29" d="M47.438,60.787c-0.166,0-0.317-0.11-0.362-0.277c-0.054-0.2,0.065-0.406,0.266-0.46l1.174-0.314 l-0.314-1.176c-0.054-0.2,0.065-0.405,0.266-0.459c0.199-0.053,0.405,0.065,0.459,0.266l0.508,1.898l-1.898,0.51 C47.503,60.783,47.471,60.787,47.438,60.787z"/></g><g><path fill="#472b29" d="M48.563,64.912c-0.032,0-0.064-0.004-0.097-0.013c-0.2-0.054-0.319-0.259-0.266-0.459l0.314-1.176 l-1.174-0.314c-0.2-0.054-0.319-0.26-0.266-0.46c0.054-0.199,0.264-0.317,0.459-0.265l1.898,0.51l-0.508,1.898 C48.881,64.802,48.729,64.912,48.563,64.912z"/></g><g><path fill="#472b29" d="M52.698,66c-0.096,0-0.192-0.036-0.266-0.109l-0.859-0.86l-0.859,0.86 c-0.146,0.146-0.385,0.146-0.531,0c-0.146-0.146-0.146-0.385,0-0.531l1.391-1.39l1.391,1.39c0.146,0.146,0.146,0.385,0,0.531 C52.891,65.964,52.794,66,52.698,66z"/></g><g><path fill="#472b29" d="M54.583,64.912c-0.166,0-0.317-0.11-0.362-0.278l-0.509-1.898l1.899-0.51 c0.198-0.054,0.405,0.065,0.459,0.266c0.054,0.199-0.065,0.405-0.266,0.459l-1.175,0.314l0.315,1.176 c0.054,0.199-0.065,0.405-0.266,0.459C54.647,64.908,54.615,64.912,54.583,64.912z"/></g><g><path fill="#472b29" d="M55.708,60.787c-0.032,0-0.064-0.004-0.097-0.013l-1.899-0.51l0.509-1.898 c0.054-0.2,0.262-0.317,0.459-0.266c0.2,0.054,0.319,0.26,0.266,0.459l-0.315,1.176l1.175,0.314 c0.2,0.054,0.319,0.26,0.266,0.459C56.025,60.677,55.874,60.787,55.708,60.787z"/></g></g><g><path fill="#472b29" d="M64.544,56.875c-0.207,0-0.375-0.168-0.375-0.375v-3.125c0-0.207,0.168-0.375,0.375-0.375 s0.375,0.168,0.375,0.375V56.5C64.919,56.707,64.751,56.875,64.544,56.875z"/><path fill="#472b29" d="M64.544,56.875c-0.064,0-0.128-0.017-0.188-0.05l-2.707-1.563 c-0.18-0.104-0.241-0.333-0.138-0.513c0.104-0.181,0.333-0.237,0.513-0.138l2.707,1.563c0.18,0.104,0.241,0.333,0.138,0.513 C64.799,56.808,64.673,56.875,64.544,56.875z"/><path fill="#472b29" d="M61.837,58.438c-0.129,0-0.255-0.067-0.325-0.188c-0.104-0.18-0.042-0.409,0.138-0.513 l2.707-1.563c0.179-0.101,0.408-0.041,0.513,0.138c0.104,0.18,0.042,0.409-0.138,0.513l-2.707,1.563 C61.966,58.421,61.9,58.438,61.837,58.438z"/><path fill="#472b29" d="M64.544,60c-0.207,0-0.375-0.168-0.375-0.375V56.5c0-0.207,0.168-0.375,0.375-0.375 s0.375,0.168,0.375,0.375v3.125C64.919,59.832,64.751,60,64.544,60z"/><path fill="#472b29" d="M67.25,58.438c-0.064,0-0.129-0.017-0.188-0.05l-2.706-1.563 c-0.18-0.104-0.241-0.333-0.138-0.513c0.104-0.181,0.336-0.238,0.513-0.138l2.706,1.563c0.18,0.104,0.241,0.333,0.138,0.513 C67.505,58.37,67.379,58.438,67.25,58.438z"/><path fill="#472b29" d="M64.544,56.875c-0.129,0-0.255-0.067-0.325-0.188c-0.104-0.18-0.042-0.408,0.138-0.513 l2.706-1.563c0.176-0.1,0.407-0.043,0.513,0.138c0.104,0.18,0.042,0.408-0.138,0.513l-2.706,1.563 C64.673,56.858,64.608,56.875,64.544,56.875z"/></g><g><path fill="#fdfcef" d="M65.009 39.001L65.012 39.001 62.127 38.739 60.465 36.378 60.467 36.375 58.796 38.743 55.921 39.001 55.919 38.998 57.135 41.629 55.921 44.248 55.917 44.248 58.803 44.511 60.465 46.872 60.463 46.875 62.133 44.507 65.009 44.248 65.011 44.251 63.795 41.621z"/><path fill="#472b29" d="M60.463,47.125c-0.049,0-0.099-0.015-0.142-0.044c-0.037-0.025-0.065-0.06-0.084-0.098 l-1.571-2.234l-2.771-0.252c-0.134-0.012-0.233-0.127-0.228-0.261c0.003-0.048,0.019-0.093,0.044-0.13l1.148-2.478l-1.167-2.526 c-0.055-0.118-0.01-0.259,0.104-0.322c0.043-0.024,0.089-0.04,0.14-0.031l2.723-0.244l1.604-2.274 c0.079-0.111,0.233-0.139,0.346-0.062c0.037,0.025,0.065,0.06,0.084,0.098l1.572,2.234l2.771,0.251 c0.133,0.012,0.233,0.127,0.228,0.261c-0.003,0.048-0.019,0.093-0.044,0.13l-1.148,2.479l1.167,2.525 c0.055,0.118,0.01,0.259-0.104,0.322c-0.044,0.024-0.099,0.037-0.139,0.031l-2.723,0.245l-1.604,2.274 C60.618,47.088,60.541,47.125,60.463,47.125z M56.297,44.031l2.529,0.23c0.073,0.007,0.14,0.045,0.182,0.105l1.457,2.071 l1.465-2.076c0.042-0.06,0.108-0.098,0.182-0.104l2.522-0.227l-1.065-2.306c-0.031-0.066-0.031-0.143,0-0.21l1.064-2.298 l-2.528-0.229c-0.073-0.007-0.14-0.045-0.182-0.105l-1.458-2.071l-1.464,2.076c-0.042,0.06-0.108,0.098-0.182,0.104l-2.523,0.227 l1.065,2.306c0.031,0.066,0.031,0.143,0,0.21L56.297,44.031z"/><g><path fill="#472b29" d="M61.871 48.917c-.096 0-.192-.037-.266-.11l-1.142-1.143-1.142 1.143c-.146.146-.384.147-.53.001s-.147-.384-.001-.53l1.673-1.674 1.673 1.674c.146.146.146.384-.001.53C62.063 48.881 61.967 48.917 61.871 48.917zM65.75 46.677c-.166 0-.317-.11-.362-.277l-.612-2.284 2.285-.613c.198-.052.405.065.459.266.054.199-.065.405-.266.459l-1.561.418.419 1.56c.054.2-.065.406-.265.46C65.814 46.673 65.782 46.677 65.75 46.677zM67.157 39.761c-.032 0-.064-.004-.097-.013l-2.285-.613.612-2.284c.054-.199.256-.317.46-.265.199.054.318.26.265.46l-.419 1.56 1.561.418c.2.054.319.26.266.459C67.475 39.65 67.323 39.761 67.157 39.761zM60.464 42c-.207 0-.375-.168-.375-.375V33.5c0-.207.168-.375.375-.375s.375.168.375.375v8.125C60.839 41.832 60.671 42 60.464 42z"/><path fill="#472b29" d="M60.464,42c-0.064,0-0.129-0.017-0.188-0.05l-7.037-4.063c-0.18-0.104-0.241-0.333-0.138-0.513 c0.104-0.181,0.336-0.238,0.513-0.138l7.037,4.063c0.18,0.104,0.241,0.333,0.138,0.513C60.719,41.933,60.593,42,60.464,42z"/><path fill="#472b29" d="M53.427,46.063c-0.129,0-0.255-0.067-0.325-0.188c-0.104-0.18-0.042-0.409,0.138-0.513 l7.037-4.063c0.179-0.1,0.408-0.042,0.513,0.138c0.104,0.18,0.042,0.409-0.138,0.513l-7.037,4.063 C53.556,46.046,53.49,46.063,53.427,46.063z"/><path fill="#472b29" d="M60.464,50.125c-0.207,0-0.375-0.168-0.375-0.375v-8.125c0-0.207,0.168-0.375,0.375-0.375 s0.375,0.168,0.375,0.375v8.125C60.839,49.957,60.671,50.125,60.464,50.125z"/><path fill="#472b29" d="M67.5,46.063c-0.064,0-0.129-0.017-0.188-0.05l-7.036-4.063c-0.18-0.104-0.241-0.333-0.138-0.513 c0.104-0.181,0.336-0.237,0.513-0.138l7.036,4.063c0.18,0.104,0.241,0.333,0.138,0.513C67.755,45.995,67.629,46.063,67.5,46.063z"/><path fill="#472b29" d="M60.464 42c-.129 0-.255-.067-.325-.188-.104-.18-.042-.409.138-.513l7.036-4.063c.175-.101.406-.043.513.138.104.18.042.409-.138.513l-7.036 4.063C60.593 41.983 60.528 42 60.464 42zM60.464 36.646l-1.673-1.674c-.146-.146-.146-.384.001-.53s.384-.146.53.001l1.142 1.143 1.142-1.143c.146-.146.384-.147.53-.001s.147.384.001.53L60.464 36.646zM53.77 39.761c-.166 0-.317-.11-.362-.278-.054-.199.065-.405.266-.459l1.561-.418-.418-1.561c-.054-.2.065-.405.266-.459.199-.054.405.065.459.266l.611 2.283-2.285.613C53.834 39.757 53.802 39.761 53.77 39.761zM55.178 46.677c-.032 0-.064-.004-.097-.013-.2-.054-.319-.259-.266-.459l.418-1.561-1.561-.418c-.2-.054-.319-.26-.266-.459.054-.2.261-.316.459-.266l2.285.613-.611 2.283C55.495 46.566 55.344 46.677 55.178 46.677z"/></g></g></g><g><path fill="#fdfcef" d="M36.5,73.5c0,0,1.567,0,3.5,0s3.5-1.567,3.5-3.5c0-1.781-1.335-3.234-3.055-3.455 C40.473,66.366,40.5,66.187,40.5,66c0-1.933-1.567-3.5-3.5-3.5c-1.032,0-1.95,0.455-2.59,1.165 c-0.384-1.808-1.987-3.165-3.91-3.165c-2.209,0-4,1.791-4,4c0,0.191,0.03,0.374,0.056,0.558C26.128,64.714,25.592,64.5,25,64.5 c-1.228,0-2.245,0.887-2.455,2.055C22.366,66.527,22.187,66.5,22,66.5c-1.933,0-3.5,1.567-3.5,3.5s1.567,3.5,3.5,3.5s7.5,0,7.5,0 V74h7V73.5z"/><path fill="#472b29" d="M38.25 69C38.112 69 38 68.888 38 68.75c0-1.223.995-2.218 2.218-2.218.034.009.737-.001 1.244.136.133.036.212.173.176.306-.036.134-.173.213-.306.176-.444-.12-1.1-.12-1.113-.118-.948 0-1.719.771-1.719 1.718C38.5 68.888 38.388 69 38.25 69zM31.5 73A.5.5 0 1 0 31.5 74 .5.5 0 1 0 31.5 73z"/><path fill="#472b29" d="M40,74h-3.5c-0.276,0-0.5-0.224-0.5-0.5s0.224-0.5,0.5-0.5H40c1.654,0,3-1.346,3-3 c0-1.496-1.125-2.768-2.618-2.959c-0.134-0.018-0.255-0.088-0.336-0.196s-0.115-0.244-0.094-0.377C39.975,66.314,40,66.16,40,66 c0-1.654-1.346-3-3-3c-0.85,0-1.638,0.355-2.219,1c-0.125,0.139-0.321,0.198-0.5,0.148c-0.182-0.049-0.321-0.195-0.36-0.379 C33.58,62.165,32.141,61,30.5,61c-1.93,0-3.5,1.57-3.5,3.5c0,0.143,0.021,0.28,0.041,0.418c0.029,0.203-0.063,0.438-0.242,0.54 c-0.179,0.102-0.396,0.118-0.556-0.01C25.878,65.155,25.449,65,25,65c-0.966,0-1.792,0.691-1.963,1.644 c-0.048,0.267-0.296,0.446-0.569,0.405C22.314,67.025,22.16,67,22,67c-1.654,0-3,1.346-3,3s1.346,3,3,3h7.5 c0.276,0,0.5,0.224,0.5,0.5S29.776,74,29.5,74H22c-2.206,0-4-1.794-4-4s1.794-4,4-4c0.059,0,0.116,0.002,0.174,0.006 C22.588,64.82,23.711,64,25,64c0.349,0,0.689,0.061,1.011,0.18C26.176,61.847,28.126,60,30.5,60c1.831,0,3.466,1.127,4.153,2.774 C35.333,62.276,36.155,62,37,62c2.206,0,4,1.794,4,4c0,0.048-0.001,0.095-0.004,0.142C42.739,66.59,44,68.169,44,70 C44,72.206,42.206,74,40,74z"/><path fill="#472b29" d="M34.5,73c-0.159,0-0.841,0-1,0c-0.276,0-0.5,0.224-0.5,0.5c0,0.276,0.224,0.5,0.5,0.5 c0.159,0,0.841,0,1,0c0.276,0,0.5-0.224,0.5-0.5C35,73.224,34.776,73,34.5,73z"/></g></svg>