<svg xmlns="http://www.w3.org/2000/svg"  viewBox="0 0 100 100" width="100px" height="100px"><path fill="#fdf5a9" d="M22,87c0-15.464,12.536-28,28-28s28,12.536,28,28H22z"/><polygon fill="#f27c7c" points="38,27 50,39 62,27 58,23 53,28 53,13 47,13 47,28 42,23"/><path fill="#1f212b" d="M78,88H22c-0.553,0-1-0.448-1-1c0-15.991,13.01-29,29-29s29,13.009,29,29C79,87.552,78.553,88,78,88z M23.019,86h53.963C76.454,71.573,64.554,60,50,60S23.546,71.573,23.019,86z"/><path fill="#1f212b" d="M50,56c-0.553,0-1-0.448-1-1v-9c0-0.552,0.447-1,1-1s1,0.448,1,1v9C51,55.552,50.553,56,50,56z"/><path fill="#1f212b" d="M34.001,60.287c-0.346,0-0.682-0.179-0.867-0.5l-4.5-7.794c-0.276-0.479-0.112-1.09,0.366-1.366	c0.477-0.276,1.089-0.112,1.366,0.366l4.5,7.794c0.276,0.479,0.112,1.09-0.366,1.366C34.343,60.244,34.171,60.287,34.001,60.287z"/><path fill="#1f212b" d="M22.286,72c-0.17,0-0.342-0.043-0.499-0.134l-7.795-4.5c-0.479-0.276-0.643-0.888-0.366-1.366	s0.888-0.643,1.366-0.366l7.795,4.5c0.479,0.276,0.643,0.888,0.366,1.366C22.968,71.821,22.632,72,22.286,72z"/><path fill="#1f212b" d="M91,88H8.999c-0.553,0-1-0.448-1-1s0.447-1,1-1H91c0.553,0,1,0.448,1,1S91.553,88,91,88z"/><path fill="#1f212b" d="M77.714,72c-0.346,0-0.682-0.179-0.867-0.5c-0.276-0.479-0.112-1.09,0.366-1.366l7.795-4.5	c0.476-0.276,1.089-0.112,1.366,0.366c0.276,0.479,0.112,1.09-0.366,1.366l-7.795,4.5C78.056,71.957,77.884,72,77.714,72z"/><path fill="#1f212b" d="M65.999,60.287c-0.17,0-0.342-0.043-0.499-0.134c-0.479-0.276-0.643-0.888-0.366-1.366l4.5-7.794	c0.276-0.479,0.888-0.642,1.366-0.366c0.479,0.276,0.643,0.888,0.366,1.366l-4.5,7.794C66.681,60.108,66.345,60.287,65.999,60.287z"/><path fill="#1f212b" d="M67.199,73c-0.142,0-0.283-0.061-0.382-0.178c-0.283-0.335-0.577-0.66-0.879-0.978	c-0.19-0.2-0.183-0.517,0.018-0.707c0.199-0.19,0.516-0.183,0.707,0.018c0.315,0.332,0.623,0.671,0.918,1.022	c0.179,0.211,0.151,0.526-0.06,0.705C67.428,72.961,67.313,73,67.199,73z"/><path fill="#1f212b" d="M64.137,70c-0.11,0-0.222-0.036-0.314-0.111c-0.526-0.426-1.065-0.823-1.601-1.182	c-0.229-0.154-0.291-0.464-0.137-0.694c0.152-0.23,0.463-0.291,0.693-0.137c0.56,0.375,1.123,0.791,1.673,1.235	c0.215,0.173,0.248,0.488,0.074,0.703C64.427,69.937,64.282,70,64.137,70z"/><path fill="#1f212b" d="M28.18,82c-0.04,0-0.081-0.005-0.122-0.015c-0.268-0.067-0.43-0.339-0.363-0.607	C30.267,71.146,39.438,64,50,64c3.733,0,7.444,0.919,10.733,2.659c0.244,0.129,0.338,0.432,0.209,0.676	c-0.13,0.244-0.434,0.336-0.676,0.208C57.121,65.879,53.57,65,50,65c-10.102,0-18.875,6.835-21.335,16.622	C28.607,81.849,28.404,82,28.18,82z"/><path fill="#1f212b" d="M50,40c-0.256,0-0.512-0.098-0.707-0.293l-12-12c-0.391-0.391-0.391-1.023,0-1.414l4-4	c0.391-0.391,1.023-0.391,1.414,0L46,25.586V13c0-0.552,0.447-1,1-1h6c0.553,0,1,0.448,1,1v12.586l3.293-3.293	c0.391-0.391,1.023-0.391,1.414,0l4,4c0.391,0.391,0.391,1.023,0,1.414l-12,12C50.512,39.902,50.256,40,50,40z M39.414,27L50,37.586	L60.586,27L58,24.414l-4.293,4.293c-0.286,0.287-0.716,0.371-1.09,0.217C52.243,28.769,52,28.404,52,28V14h-4v14	c0,0.404-0.243,0.769-0.617,0.924c-0.373,0.155-0.803,0.07-1.09-0.217L42,24.414L39.414,27z"/></svg>