<?xml version="1.0" encoding="UTF-8" standalone="no"?>
<!-- Generator: Adobe Illustrator 24.3.0, SVG Export Plug-In . SVG Version: 6.00 Build 0)  -->

<svg
   version="1.0"
   id="katman_1"
   x="0px"
   y="0px"
   viewBox="0 0 1315.86 500.92003"
   xml:space="preserve"
   sodipodi:docname="whisper.svg"
   width="1315.86"
   height="500.92001"
   inkscape:version="1.3 (0e150ed6c4, 2023-07-21)"
   xmlns:inkscape="http://www.inkscape.org/namespaces/inkscape"
   xmlns:sodipodi="http://sodipodi.sourceforge.net/DTD/sodipodi-0.dtd"
   xmlns="http://www.w3.org/2000/svg"
   xmlns:svg="http://www.w3.org/2000/svg"><defs
   id="defs1"><rect
     x="459.30981"
     y="11.202678"
     width="1051.1846"
     height="244.59181"
     id="rect1" /><rect
     x="459.30981"
     y="11.202678"
     width="1051.1846"
     height="244.59181"
     id="rect1-4" /></defs><sodipodi:namedview
   id="namedview1"
   pagecolor="#ffffff"
   bordercolor="#000000"
   borderopacity="0.25"
   inkscape:showpageshadow="2"
   inkscape:pageopacity="0.0"
   inkscape:pagecheckerboard="true"
   inkscape:deskcolor="#d1d1d1"
   inkscape:zoom="0.53558621"
   inkscape:cx="685.23048"
   inkscape:cy="333.27968"
   inkscape:window-width="1920"
   inkscape:window-height="1046"
   inkscape:window-x="-11"
   inkscape:window-y="-11"
   inkscape:window-maximized="1"
   inkscape:current-layer="katman_1" />&#10;<path
   d="M 447.01116,205.61659 C 457.80921,173.19448 454.09323,137.6932 436.82197,108.21028 410.85208,62.981676 358.63238,39.720052 307.64436,50.665047 284.96356,25.108052 252.3665,10.573034 218.20185,10.789974 166.06614,10.664009 119.82281,44.226814 103.78321,93.836222 70.297387,100.69434 41.395302,121.6606 24.480941,151.36747 -1.6918891,196.4701 4.2704729,253.31552 39.232896,292.00792 c -10.798038,32.42212 -7.082061,67.92339 10.189206,97.40631 25.969888,45.22862 78.189578,68.49024 129.177608,57.54524 22.68079,25.55699 55.27785,40.09201 89.4425,39.87507 52.1637,0.13297 98.42803,-33.45083 114.45363,-83.09523 33.48583,-6.85812 62.38791,-27.82437 79.30228,-57.53124 C 487.94295,301.10544 481.96659,244.288 447.01116,205.61659 Z M 268.08419,455.70708 c -20.86829,0.0279 -41.07875,-7.27802 -57.10436,-20.64436 0.72081,-0.39189 1.98747,-1.09169 2.81324,-1.59556 l 94.78203,-54.75299 c 4.84267,-2.75724 7.82386,-7.91484 7.78886,-13.4853 v -133.6284 l 40.06403,23.13566 c 0.42688,0.20995 0.7208,0.62283 0.77678,1.0987 v 110.66768 c -0.056,49.20352 -39.91007,89.09259 -89.12058,89.20457 z M 76.406712,373.84351 C 65.951577,355.78145 62.186608,334.61924 65.762628,314.05889 c 0.706807,0.41987 1.93147,1.17567 2.813231,1.67953 l 94.782021,54.753 c 4.80769,2.81324 10.76306,2.81324 15.57074,0 l 115.7203,-66.81769 v 46.26432 c 0.0279,0.48287 -0.18895,0.93775 -0.57385,1.23166 l -95.81774,55.31986 c -42.66031,24.57725 -97.17538,9.97226 -121.850618,-32.64606 z M 51.472545,166.9172 c 10.406148,-18.08304 26.844645,-31.93225 46.432279,-39.11228 0,0.81878 -0.049,2.26037 -0.049,3.26811 v 109.49899 c -0.035,5.57048 2.939196,10.72106 7.781866,13.4783 l 115.72029,66.8107 -40.06403,23.12866 c -0.39889,0.26592 -0.90975,0.30791 -1.35063,0.12602 L 84.118599,288.74681 C 41.52827,264.07157 26.923271,209.58451 51.472545,166.9172 Z m 329.161805,76.60101 -115.72729,-66.8177 40.06402,-23.12166 c 0.3989,-0.26592 0.90975,-0.30792 1.35063,-0.119 l 95.82474,55.31985 c 42.67432,24.64725 57.28632,79.2253 32.63907,121.89261 -10.42715,18.05505 -26.85164,31.89026 -46.42528,39.09829 V 256.99649 c 0.049,-5.56348 -2.9042,-10.71406 -7.72589,-13.4783 z m 39.87508,-60.01556 c -0.7068,-0.43388 -1.93147,-1.17567 -2.81323,-1.67953 l -94.78903,-54.75301 c -4.80768,-2.80622 -10.75605,-2.80622 -15.57074,0 l -115.7203,66.81771 v -46.26433 c -0.0279,-0.48288 0.18895,-0.93775 0.57386,-1.23167 l 95.81775,-55.277853 c 42.6883,-24.612259 97.24536,-9.965269 121.85761,32.723033 10.39915,18.04106 14.16412,39.14728 10.64408,59.66565 z M 169.83112,265.96806 129.7601,242.8324 c -0.42689,-0.20994 -0.72081,-0.62283 -0.7768,-1.0987 V 131.07303 c 0.035,-49.273513 40.00104,-89.197571 89.28155,-89.162582 20.84028,0.01398 41.01575,7.319993 57.02736,20.651344 -0.7208,0.391888 -1.98045,1.091697 -2.81322,1.595559 l -94.78204,54.752999 c -4.84266,2.75025 -7.82386,7.90784 -7.78886,13.47831 z m 21.76403,-46.92215 51.54088,-29.76983 51.54087,29.74884 v 59.51869 l -51.54087,29.74885 -51.54088,-29.74885 z"
   fill="#240d50"
   id="path1"
   style="fill:#000000;stroke-width:0.699809" />&#10;<text
   xml:space="preserve"
   id="text1"
   style="font-style:italic;font-variant:normal;font-weight:bold;font-stretch:normal;font-size:192px;font-family:'Trebuchet MS';-inkscape-font-specification:'Trebuchet MS, Bold Italic';font-variant-ligatures:normal;font-variant-caps:normal;font-variant-numeric:normal;font-variant-east-asian:normal;white-space:pre;shape-inside:url(#rect1);shape-padding:9.33557;display:inline;opacity:0.972689;fill:#000000;stroke:#000000;stroke-opacity:1"
   transform="translate(31.740922,128.8308)"><tspan
     x="468.64648"
     y="194.75668"
     id="tspan1">WHISPER </tspan></text><text
   xml:space="preserve"
   id="text1-9"
   style="font-style:italic;font-variant:normal;font-weight:bold;font-stretch:normal;font-size:64px;font-family:'Trebuchet MS';-inkscape-font-specification:'Trebuchet MS, Bold Italic';font-variant-ligatures:normal;font-variant-caps:normal;font-variant-numeric:normal;font-variant-east-asian:normal;white-space:pre;shape-inside:url(#rect1-4);shape-padding:9.33557;display:inline;opacity:0.972689;fill:#000000;stroke:#000000;stroke-opacity:1"
   transform="translate(517.25245,302.87635)"><tspan
     x="468.64648"
     y="78.611601"
     id="tspan2">By OpenAI</tspan></text></svg>
