<?xml version="1.0" encoding="UTF-8" standalone="no"?>
<svg
   viewBox="-0.10149301 -1.3469646 35.604299 34.112914"
   width="500"
   height="500"
   version="1.1"
   id="svg5"
   sodipodi:docname="google-cloud-3.svg"
   inkscape:version="1.3 (0e150ed6c4, 2023-07-21)"
   xmlns:inkscape="http://www.inkscape.org/namespaces/inkscape"
   xmlns:sodipodi="http://sodipodi.sourceforge.net/DTD/sodipodi-0.dtd"
   xmlns="http://www.w3.org/2000/svg"
   xmlns:svg="http://www.w3.org/2000/svg">
  <defs
     id="defs5">
    <clipPath
       clipPathUnits="userSpaceOnUse"
       id="clipPath5">
      <rect
         style="opacity:0.972689;fill:#000000;stroke:#000000;stroke-width:0.0712086"
         id="rect6"
         width="37.617638"
         height="30.7299"
         x="0.25172427"
         y="-1.6469737" />
    </clipPath>
    <clipPath
       clipPathUnits="userSpaceOnUse"
       id="clipPath6">
      <rect
         style="opacity:0.972689;fill:#000000;stroke:#000000;stroke-width:0.0712086"
         id="rect7"
         width="37.617638"
         height="30.7299"
         x="0.25172427"
         y="-1.6469737" />
    </clipPath>
    <clipPath
       clipPathUnits="userSpaceOnUse"
       id="clipPath7">
      <rect
         style="opacity:0.972689;fill:#000000;stroke:#000000;stroke-width:0.0712086"
         id="rect8"
         width="37.617638"
         height="30.7299"
         x="0.25172427"
         y="-1.6469737" />
    </clipPath>
    <clipPath
       clipPathUnits="userSpaceOnUse"
       id="clipPath8">
      <rect
         style="opacity:0.972689;fill:#000000;stroke:#000000;stroke-width:0.0712086"
         id="rect9"
         width="37.617638"
         height="30.7299"
         x="0.25172427"
         y="-1.6469737" />
    </clipPath>
    <clipPath
       clipPathUnits="userSpaceOnUse"
       id="clipPath9">
      <rect
         style="opacity:0.972689;fill:#000000;stroke:#000000;stroke-width:0.0712086"
         id="rect10"
         width="37.617638"
         height="30.7299"
         x="0.25172427"
         y="-1.6469737" />
    </clipPath>
  </defs>
  <sodipodi:namedview
     id="namedview5"
     pagecolor="#ffffff"
     bordercolor="#000000"
     borderopacity="0.25"
     inkscape:showpageshadow="2"
     inkscape:pageopacity="0.0"
     inkscape:pagecheckerboard="0"
     inkscape:deskcolor="#d1d1d1"
     inkscape:zoom="0.4032"
     inkscape:cx="1250"
     inkscape:cy="217.01389"
     inkscape:window-width="1920"
     inkscape:window-height="1046"
     inkscape:window-x="-11"
     inkscape:window-y="-11"
     inkscape:window-maximized="1"
     inkscape:current-layer="svg5" />
  <path
     d="m 21.85,7.41 h 1 L 25.7,4.56 25.84,3.35 A 12.81,12.81 0 0 0 5,9.6 1.55,1.55 0 0 1 6,9.54 L 11.7,8.6 c 0,0 0.29,-0.48 0.44,-0.45 a 7.11,7.11 0 0 1 9.73,-0.74 z"
     fill="#ea4335"
     id="path1"
     clip-path="url(#clipPath9)" />
  <path
     d="M 29.76,9.6 A 12.84,12.84 0 0 0 25.89,3.36 l -4,4 A 7.11,7.11 0 0 1 24.5,13 v 0.71 a 3.56,3.56 0 1 1 0,7.12 h -7.12 l -0.71,0.72 v 4.27 l 0.71,0.71 H 24.5 A 9.26,9.26 0 0 0 29.76,9.6 Z"
     fill="#4285f4"
     id="path2"
     clip-path="url(#clipPath8)" />
  <path
     d="m 10.25,26.49 h 7.12 v -5.7 H 10.25 A 3.54,3.54 0 0 1 8.78,20.47 l -1,0.31 -2.87,2.85 -0.25,1 a 9.21,9.21 0 0 0 5.59,1.86 z"
     fill="#34a853"
     id="path3"
     clip-path="url(#clipPath7)" />
  <path
     d="M 10.25,8 A 9.26,9.26 0 0 0 4.66,24.6 l 4.13,-4.13 a 3.56,3.56 0 1 1 4.71,-4.71 l 4.13,-4.13 A 9.25,9.25 0 0 0 10.25,8 Z"
     fill="#fbbc05"
     id="path4"
     clip-path="url(#clipPath6)" />
  <g
     fill="#5f6368"
     id="g5"
     clip-path="url(#clipPath5)">
    <path
       d="M 52.79,22.51 A 9.11,9.11 0 0 1 46.19,19.8 8.8,8.8 0 0 1 43.42,13.28 8.81,8.81 0 0 1 46.19,6.76 9.11,9.11 0 0 1 52.79,4 8.84,8.84 0 0 1 59.12,6.55 l -1.78,1.81 a 6.41,6.41 0 0 0 -4.55,-1.8 6.34,6.34 0 0 0 -4.7,2 6.53,6.53 0 0 0 -1.93,4.75 6.53,6.53 0 0 0 1.93,4.69 6.71,6.71 0 0 0 9.36,0.11 5.32,5.32 0 0 0 1.37,-3.11 h -6 v -2.56 h 8.49 a 8.12,8.12 0 0 1 0.1,1.56 8,8 0 0 1 -2.19,5.9 8.51,8.51 0 0 1 -6.43,2.61 z m 19.74,-1.7 a 6.12,6.12 0 0 1 -8.47,0 5.7,5.7 0 0 1 -1.73,-4.25 5.71,5.71 0 0 1 1.73,-4.25 6.13,6.13 0 0 1 8.47,0 5.71,5.71 0 0 1 1.73,4.25 5.7,5.7 0 0 1 -1.74,4.25 z m -6.6,-1.67 a 3.24,3.24 0 0 0 4.73,0 3.56,3.56 0 0 0 1,-2.58 3.57,3.57 0 0 0 -1,-2.59 3.29,3.29 0 0 0 -4.75,0 3.57,3.57 0 0 0 -1,2.59 3.56,3.56 0 0 0 1.01,2.58 z m 19.62,1.67 a 6.12,6.12 0 0 1 -8.47,0 5.7,5.7 0 0 1 -1.73,-4.25 5.71,5.71 0 0 1 1.73,-4.25 6.12,6.12 0 0 1 8.47,0 5.71,5.71 0 0 1 1.73,4.25 5.7,5.7 0 0 1 -1.73,4.25 z m -6.6,-1.67 a 3.24,3.24 0 0 0 4.73,0 3.56,3.56 0 0 0 1,-2.58 3.57,3.57 0 0 0 -1,-2.59 3.29,3.29 0 0 0 -4.75,0 3.57,3.57 0 0 0 -1,2.59 3.56,3.56 0 0 0 1.01,2.58 z m 15.16,8.71 a 5.24,5.24 0 0 1 -3.33,-1.06 6.13,6.13 0 0 1 -1.94,-2.46 l 2.28,-0.95 a 3.84,3.84 0 0 0 1.13,1.49 2.85,2.85 0 0 0 1.87,0.63 3,3 0 0 0 2.33,-0.9 3.65,3.65 0 0 0 0.83,-2.6 v -0.86 h -0.09 a 3.81,3.81 0 0 1 -3.13,1.35 5.43,5.43 0 0 1 -4,-1.74 5.75,5.75 0 0 1 -1.71,-4.19 5.81,5.81 0 0 1 1.71,-4.22 5.42,5.42 0 0 1 4,-1.75 4.3,4.3 0 0 1 1.84,0.41 3.7,3.7 0 0 1 1.3,0.95 h 0.09 V 11 h 2.48 v 10.65 a 6.21,6.21 0 0 1 -1.59,4.65 5.6,5.6 0 0 1 -4.07,1.55 z m 0.18,-7.68 a 2.91,2.91 0 0 0 2.26,-1 3.7,3.7 0 0 0 0.91,-2.56 3.78,3.78 0 0 0 -0.91,-2.61 2.9,2.9 0 0 0 -2.26,-1 3.09,3.09 0 0 0 -2.34,1 3.65,3.65 0 0 0 -1,2.59 3.58,3.58 0 0 0 1,2.56 3.1,3.1 0 0 0 2.34,1.02 z m 9.89,-15.5 v 17.48 h -2.61 V 4.67 Z m 7.16,17.84 a 5.68,5.68 0 0 1 -4.21,-1.71 5.79,5.79 0 0 1 -1.69,-4.24 5.86,5.86 0 0 1 1.63,-4.28 5.36,5.36 0 0 1 4,-1.67 5.05,5.05 0 0 1 2,0.39 4.71,4.71 0 0 1 1.53,1 7,7 0 0 1 1,1.21 7.15,7.15 0 0 1 0.59,1.17 l 0.27,0.68 -8,3.29 a 3,3 0 0 0 2.88,1.8 3.41,3.41 0 0 0 2.93,-1.65 l 2,1.35 a 6.59,6.59 0 0 1 -1.92,1.82 5.44,5.44 0 0 1 -3.01,0.84 z m -3.34,-6.13 5.32,-2.21 a 1.84,1.84 0 0 0 -0.83,-0.91 2.71,2.71 0 0 0 -1.37,-0.35 3.09,3.09 0 0 0 -2.15,0.95 3.17,3.17 0 0 0 -0.97,2.52 z m 22.13,6.13 a 8.24,8.24 0 0 1 -8.38,-8.43 8.24,8.24 0 0 1 8.38,-8.43 7.46,7.46 0 0 1 5.93,2.64 l -1.44,1.4 a 5.44,5.44 0 0 0 -4.48,-2.05 6.11,6.11 0 0 0 -4.45,1.78 6.24,6.24 0 0 0 -1.81,4.66 6.24,6.24 0 0 0 1.81,4.66 6.11,6.11 0 0 0 4.45,1.78 6.36,6.36 0 0 0 5,-2.34 l 1.44,1.44 a 7.86,7.86 0 0 1 -2.77,2.11 8.48,8.48 0 0 1 -3.68,0.78 z m 10.32,-0.36 h -2.07 V 6 h 2.07 z m 3.38,-9.72 a 5.79,5.79 0 0 1 8.16,0 5.85,5.85 0 0 1 1.6,4.2 5.85,5.85 0 0 1 -1.6,4.2 5.79,5.79 0 0 1 -8.16,0 5.85,5.85 0 0 1 -1.6,-4.2 5.85,5.85 0 0 1 1.6,-4.2 z m 1.54,7.1 a 3.49,3.49 0 0 0 5.07,0 4,4 0 0 0 1.07,-2.9 4,4 0 0 0 -1.07,-2.9 3.49,3.49 0 0 0 -5.07,0 4,4 0 0 0 -1.07,2.9 4,4 0 0 0 1.08,2.89 z m 19.69,2.62 h -2 V 20.62 H 163 a 3.85,3.85 0 0 1 -1.46,1.38 4.08,4.08 0 0 1 -2.05,0.55 3.89,3.89 0 0 1 -3.14,-1.26 5,5 0 0 1 -1.07,-3.38 v -6.8 h 2.07 v 6.42 q 0,3.09 2.73,3.09 a 2.54,2.54 0 0 0 2.1,-1 3.77,3.77 0 0 0 0.81,-2.39 v -6.12 h 2.07 z m 7.03,0.36 a 4.86,4.86 0 0 1 -3.7,-1.69 6,6 0 0 1 -1.55,-4.19 6,6 0 0 1 1.55,-4.19 4.86,4.86 0 0 1 3.7,-1.69 4.69,4.69 0 0 1 2.26,0.54 3.83,3.83 0 0 1 1.5,1.35 h 0.09 l -0.09,-1.53 V 6 h 2.07 v 16.15 h -2 v -1.53 h -0.09 a 3.83,3.83 0 0 1 -1.5,1.35 4.69,4.69 0 0 1 -2.24,0.54 z m 0.34,-1.89 a 3.3,3.3 0 0 0 2.49,-1.08 4.05,4.05 0 0 0 1,-2.91 4.05,4.05 0 0 0 -1,-2.91 3.38,3.38 0 0 0 -5,0 4,4 0 0 0 -1,2.9 4,4 0 0 0 1,2.9 3.3,3.3 0 0 0 2.51,1.1 z"
       id="path5" />
  </g>
</svg>
