<svg xmlns="http://www.w3.org/2000/svg"  viewBox="0 0 100 100" width="100px" height="100px"><path fill="#ead6c7" d="M68,73c-4.325-1.622-7.188-2.659-8.907-3.27c-0.286-0.102-0.54-0.191-0.764-0.27 C57.528,69.178,57,68.424,57,67.575v-3.034c4.442-2.889,8-7.543,8-9.542c0-1,0-4,0-4c2,0,2.381-1.898,3-4c0.57-1.935,1-4,1-5 c0-1.875-3.257-2.5-3.257-2.5h-0.121c-0.031-1.75-0.325-9.907-2.871-15c0,0-6.25-2-12.75-2s-12.75,2-12.75,2 c-2.553,5.107-2.932,13.284-2.989,15.014C33.508,39.611,31,40.277,31,42c0,1,0.43,3.065,1,5c0.619,2.102,1,4,3,4c0,0,0,3,0,4 c0,1.999,3.558,6.653,8,9.542v3.034c0,0.849-0.528,1.602-1.329,1.884c-0.224,0.079-0.478,0.169-0.764,0.27 C39.188,70.34,36.325,71.378,32,73c-8,3-8,11-8,11h52C76,84,76,76,68,73z"/><path fill="#78cdd4" d="M68,73c-4.325-1.622-7.188-2.659-8.907-3.27c-0.249-0.089-0.464-0.164-0.666-0.236 C57.178,70.057,54.429,71,50,71c-4.406,0-7.166-0.944-8.423-1.507c-0.203,0.072-0.419,0.148-0.67,0.237 C39.188,70.341,36.325,71.378,32,73c-8,3-8,11-8,11h52C76,84,76,76,68,73z"/><path fill="#b07454" d="M50.5,15.5c-9,0-12.5,4.749-13,5.999c-3.959,1.682-7,6-7,11c0,8,4,11,4,11c0-9,5-14,5-17 c1.803,2.856,6.733,5,12,5c5.125,0,7.625-0.625,10-2c3,4,4,14,4,14s3-3,3-9c0-4.738-1.403-5.298-3-8c1.5-1,2-2.75,2-4 C63,22.5,60.5,15.5,50.5,15.5z"/><path fill="#fff" d="M57.5,56.5c0,0-2,4-7.5,4s-7.5-4-7.5-4H57.5z"/><path fill="#a1d3a2" d="M93.434,66.138l-9.571-9.571c-0.755-0.755-1.979-0.755-2.735,0L58.566,79.128 c-0.755,0.755-0.755,1.98,0,2.735l9.571,9.571c0.755,0.755,1.98,0.755,2.735,0L76,86.306l5.128-5.128l12.306-12.306 C94.189,68.117,94.189,66.893,93.434,66.138z"/><path fill="#60be92" d="M73.5,69.144l-9.521,9.521c0.32,0.355,0.521,0.82,0.521,1.336c0,0.771-0.441,1.432-1.08,1.766 l4.814,4.814c0.334-0.639,0.995-1.08,1.766-1.08c0.516,0,0.981,0.2,1.335,0.521l16.686-16.685C87.701,68.981,87.5,68.516,87.5,68 c0-0.771,0.441-1.432,1.08-1.766l-4.814-4.814C83.432,62.059,82.771,62.5,82,62.5c-0.516,0-0.981-0.2-1.335-0.521L78.644,64 l-0.354-0.354l-5.144,5.144L73.5,69.144z"/><circle cx="76.25" cy="73.75" r="2.75" fill="#a1d3a2"/><circle cx="69.75" cy="79.75" r="1.25" fill="#a1d3a2"/><circle cx="82.25" cy="67.75" r="1.25" fill="#a1d3a2"/><path fill="#ead6c7" d="M82.626,80.984l-2.11-2.11c-1.165-1.165-3.054-1.165-4.22,0l-4.923,4.923 c-1.165,1.165-1.165,3.054,0,4.22l2.11,2.11c1.165,1.165,3.054,1.165,4.22,0l4.923-4.923 C83.791,84.038,83.791,82.149,82.626,80.984z"/><g><path fill="#1f212b" d="M50,53c-1.977,0-2.863-1.151-2.9-1.2c-0.166-0.221-0.121-0.534,0.1-0.7 c0.22-0.165,0.531-0.121,0.697,0.097C47.93,51.237,48.555,52,50,52c1.454,0,2.077-0.771,2.104-0.805 c0.169-0.215,0.483-0.257,0.699-0.09c0.217,0.167,0.262,0.476,0.098,0.694C52.863,51.849,51.978,53,50,53z"/><path fill="#1f212b" d="M50,67c-2.106,0-4.526-0.85-7-2.458l0.545-0.838C45.856,65.206,48.088,66,50,66 s4.145-0.794,6.455-2.296L57,64.542C54.526,66.15,52.106,67,50,67z"/><path fill="#1f212b" d="M50,61c-5.743,0-7.86-4.102-7.947-4.276c-0.078-0.155-0.069-0.339,0.022-0.486S42.327,56,42.5,56h15 c0.173,0,0.334,0.09,0.425,0.237s0.1,0.331,0.022,0.486C57.86,56.898,55.743,61,50,61z M43.423,57c0.836,1.086,2.84,3,6.577,3 s5.741-1.914,6.577-3H43.423z"/><path fill="#1f212b" d="M43,40c-0.799,0-1.482,0.589-1.803,1.435C41.378,41.178,41.662,41,42,41c0.552,0,1,0.448,1,1 s-0.448,1-1,1c-0.502,0-0.899-0.376-0.971-0.857C41.015,42.26,41,42.377,41,42.5c0,1.381,0.895,2.5,2,2.5s2-1.119,2-2.5 S44.105,40,43,40z"/><path fill="#1f212b" d="M57,40c-0.799,0-1.482,0.589-1.803,1.435C55.378,41.178,55.662,41,56,41c0.552,0,1,0.448,1,1 s-0.448,1-1,1c-0.502,0-0.899-0.376-0.971-0.857C55.015,42.26,55,42.377,55,42.5c0,1.381,0.895,2.5,2,2.5s2-1.119,2-2.5 S58.105,40,57,40z"/><path fill="#1f212b" d="M60.314,37.751L61,36.441c-1.277-0.298-2.64-0.443-4-0.441c-1.73,0.003-3.456,0.247-5,0.723 L52.865,38c1.268-0.417,2.7-0.622,4.135-0.625C58.128,37.372,59.259,37.491,60.314,37.751z"/><path fill="#1f212b" d="M43,37.375c1.435,0.003,2.867,0.208,4.135,0.625L48,36.723c-1.544-0.476-3.27-0.719-5-0.723 c-1.36-0.003-2.723,0.143-4,0.441l0.686,1.31C40.741,37.491,41.872,37.372,43,37.375z"/><path fill="#1f212b" d="M66.976,27.827c-0.264-0.374-0.535-0.758-0.812-1.2C67.509,25.51,68,23.8,68,22.499 c0-0.133-0.052-0.261-0.146-0.354s-0.221-0.146-0.354-0.146h-0.001c-1.638,0-3.018-1.048-4.765-2.376 C60.025,17.563,56.653,15,50.5,15c-8.597,0-12.513,4.334-13.377,6.118C32.854,23.024,30,27.57,30,32.499 c0,8.156,4.028,11.272,4.2,11.4c0.088,0.066,0.194,0.1,0.3,0.1c0.076,0,0.153-0.018,0.224-0.053C34.893,43.861,35,43.688,35,43.499 c0-5.59,1.982-9.632,3.431-12.583c0.599-1.221,1.112-2.267,1.377-3.194c2.312,2.561,6.899,4.277,11.693,4.277 c4.683,0,7.338-0.488,9.851-1.844c2.689,4.058,3.642,13.298,3.652,13.394c0.018,0.192,0.147,0.356,0.329,0.421 c0.179,0.067,0.383,0.02,0.521-0.117C65.982,43.724,69,40.636,69,34.499C69,30.704,68.106,29.434,66.976,27.827z M65.852,42.228 c-0.373-2.825-1.505-9.766-3.952-13.029c-0.153-0.204-0.432-0.259-0.651-0.133c-2.114,1.225-4.387,1.933-9.749,1.933 c-4.964,0-9.833-2.005-11.577-4.767c-0.118-0.188-0.345-0.273-0.562-0.213C39.147,26.081,39,26.276,39,26.499 c0,0.982-0.648,2.303-1.469,3.976c-1.387,2.829-3.252,6.632-3.503,11.84C32.917,40.998,31,37.937,31,32.499 c0-4.603,2.691-8.838,6.695-10.54c0.123-0.051,0.219-0.15,0.269-0.274C37.987,21.628,40.679,16,50.5,16 c5.816,0,9.039,2.45,11.628,4.419c1.659,1.26,3.111,2.364,4.847,2.552c-0.111,1.081-0.613,2.352-1.753,3.112 c-0.22,0.147-0.288,0.441-0.153,0.67c0.381,0.645,0.757,1.178,1.088,1.649C67.228,29.922,68,31.02,68,34.499 C68,38.368,66.697,40.956,65.852,42.228z"/><path fill="#1f212b" d="M50,72c-6.576,0-9.65-1.999-9.777-2.084c-0.229-0.153-0.291-0.462-0.139-0.691 c0.151-0.231,0.461-0.294,0.692-0.142C40.805,69.103,43.76,71,50,71c0.517,0,1.002-0.017,1.475-0.04 c0.312-0.033,0.51,0.198,0.524,0.474s-0.198,0.511-0.474,0.524C51.037,71.983,50.534,72,50,72z M53.499,71.787 c-0.248,0-0.464-0.185-0.495-0.438c-0.034-0.274,0.16-0.524,0.434-0.559c0.661-0.083,1.301-0.192,1.957-0.334 c0.272-0.061,0.535,0.114,0.594,0.383c0.059,0.27-0.112,0.536-0.383,0.594c-0.685,0.148-1.354,0.263-2.043,0.35 C53.541,71.786,53.521,71.787,53.499,71.787z"/><path fill="#1f212b" d="M57.986,70.401l0.769,0.273c1.216,0.432,3.18,1.139,6.059,2.206l1.557-1.557 c-3.364-1.252-5.606-2.06-6.943-2.534l-0.77-0.273c-0.319-0.111-0.557-0.38-0.631-0.708C58.01,67.726,58,67.647,58,67.58v-2.506 c4.242-2.913,8-6.609,8-9.074v-4.131c1.781-0.507,2.329-2.404,2.82-4.107l0.139-0.479C69.439,45.658,70,43.299,70,42 c0-1.001-0.705-1.819-2.096-2.433l-0.807,1.83C67.883,41.744,67.997,42,68,42c0,0.853-0.403,2.836-0.959,4.717l-0.143,0.491 C66.274,49.371,65.949,50,65,50c-0.553,0-1,0.447-1,1v5c0,1.491-3.24,4.9-7.546,7.702C56.171,63.887,56,64.202,56,64.54v3.04 c0,0.21,0.024,0.43,0.074,0.663C56.304,69.258,57.025,70.067,57.986,70.401z"/><path fill="#1f212b" d="M59.705,83.001H25.092c0.306-2.1,1.62-6.949,7.259-9.063c4.49-1.685,7.314-2.704,8.897-3.265 l0.75-0.268c0.976-0.339,1.716-1.177,1.93-2.186C43.977,67.988,44,67.786,44,67.58v-3.04c0-0.338-0.171-0.653-0.455-0.838 C39.24,60.899,36,56.491,36,55v-4c0-0.553-0.448-1-1-1c-0.949,0-1.274-0.629-1.898-2.792l-0.143-0.491 c-0.556-1.882-0.959-3.866-0.961-4.704c0.001-0.002,0.094-0.237,0.8-0.567l-0.846-1.813C30.657,40.237,30,41.034,30,42 c0,1.297,0.561,3.657,1.041,5.283l0.139,0.479c0.491,1.702,1.039,3.599,2.82,4.107V55c0,2.464,3.758,7.161,8,10.074v2.506 c0,0.063-0.009,0.131-0.028,0.221c-0.07,0.329-0.312,0.603-0.645,0.719l-0.751,0.268c-1.586,0.561-4.423,1.586-8.927,3.275 C23.099,75.27,23,83.913,23,84c0,0.553,0.448,1,1,1h37.704L59.705,83.001z"/><path fill="#1f212b" d="M75.644,67.5c-0.128,0-0.256-0.049-0.354-0.146c-0.195-0.195-0.195-0.512,0-0.707l1-1 c0.195-0.195,0.512-0.195,0.707,0s0.195,0.512,0,0.707l-1,1C75.899,67.451,75.771,67.5,75.644,67.5z"/><path fill="#1f212b" d="M76.25,77C74.458,77,73,75.542,73,73.75s1.458-3.25,3.25-3.25s3.25,1.458,3.25,3.25 S78.042,77,76.25,77z M76.25,71.5c-1.24,0-2.25,1.009-2.25,2.25S75.01,76,76.25,76s2.25-1.009,2.25-2.25S77.49,71.5,76.25,71.5z"/><path fill="#1f212b" d="M69.75,82C68.785,82,68,81.215,68,80.25s0.785-1.75,1.75-1.75s1.75,0.785,1.75,1.75 S70.715,82,69.75,82z M69.75,79.5c-0.413,0-0.75,0.336-0.75,0.75S69.337,81,69.75,81s0.75-0.336,0.75-0.75S70.163,79.5,69.75,79.5z"/><path fill="#1f212b" d="M82.25,69.5c-0.965,0-1.75-0.785-1.75-1.75S81.285,66,82.25,66S84,66.785,84,67.75 S83.215,69.5,82.25,69.5z M82.25,67c-0.413,0-0.75,0.336-0.75,0.75s0.337,0.75,0.75,0.75S83,68.164,83,67.75S82.663,67,82.25,67z"/><path fill="#1f212b" d="M75.593,92c-0.931,0-1.805-0.362-2.463-1.021l-2.109-2.11c-1.358-1.358-1.358-3.568,0-4.926 l4.923-4.923c1.315-1.315,3.609-1.317,4.927,0l2.109,2.11c1.358,1.358,1.358,3.568,0,4.926l-4.923,4.923 C77.398,91.638,76.524,92,75.593,92z M78.407,79c-0.664,0-1.288,0.258-1.757,0.728l-4.923,4.923c-0.968,0.968-0.968,2.544,0,3.512 l2.109,2.11c0.938,0.938,2.575,0.938,3.513,0l4.923-4.923c0.968-0.968,0.968-2.544,0-3.512l-2.109-2.11 C79.694,79.258,79.07,79,78.407,79z"/><path fill="#1f212b" d="M70.792,85.144c-0.912-0.296-1.978-0.041-2.623,0.664l-3.977-3.977C64.701,81.365,65,80.706,65,80 c0-0.455-0.127-0.898-0.362-1.286l9.216-9.216c0.195-0.195,0.195-0.512,0-0.707s-0.512-0.195-0.707,0l-9.521,9.521 C63.438,78.5,63.43,78.802,63.608,79C63.861,79.279,64,79.634,64,80c0,0.555-0.311,1.062-0.812,1.323 c-0.141,0.074-0.238,0.21-0.263,0.368s0.028,0.317,0.141,0.429l4.814,4.814c0.095,0.095,0.222,0.146,0.354,0.146 c0.025,0,0.051-0.002,0.076-0.006c0.157-0.024,0.294-0.122,0.367-0.263c0.345-0.663,1.172-0.932,1.85-0.69 C70.56,85.785,70.646,85.456,70.792,85.144z"/><path fill="#1f212b" d="M88.934,65.88l-4.814-4.814c-0.113-0.113-0.273-0.164-0.43-0.141 c-0.157,0.024-0.294,0.122-0.367,0.263c-0.433,0.83-1.619,1.056-2.322,0.419c-0.195-0.177-0.498-0.171-0.688,0.018l-2.021,2.021 c-0.195,0.195-0.195,0.512,0,0.707s0.512,0.195,0.707,0l1.717-1.716c0.989,0.603,2.351,0.392,3.117-0.445l3.978,3.977 C87.299,66.635,87,67.294,87,68c0,0.455,0.127,0.899,0.363,1.287l-9.241,9.24c0.426-0.041,0.856,0.007,1.265,0.149l8.988-8.987 c0.188-0.188,0.196-0.492,0.018-0.689C88.14,68.721,88,68.366,88,68c0-0.554,0.312-1.061,0.812-1.323 c0.142-0.074,0.238-0.21,0.263-0.367S89.046,65.993,88.934,65.88z"/><path fill="#1f212b" d="M94.141,65.431L84.57,55.86c-1.107-1.108-3.041-1.108-4.148,0L57.859,78.42 c-1.144,1.144-1.144,3.005,0,4.149l9.571,9.571c0.554,0.555,1.291,0.86,2.075,0.86s1.521-0.305,2.074-0.859l1.71-1.71l-1.414-1.414 l-1.71,1.71c-0.354,0.353-0.967,0.353-1.32,0l-9.571-9.571c-0.363-0.364-0.363-0.957,0-1.321l22.562-22.561 C82.012,57.097,82.246,57,82.495,57s0.483,0.097,0.66,0.273l9.571,9.571c0.363,0.364,0.363,0.957,0,1.321l-11.709,11.71 l1.414,1.414l11.71-11.709C95.284,68.436,95.284,66.575,94.141,65.431z"/></g></svg>