<svg xmlns="http://www.w3.org/2000/svg"  viewBox="0 0 100 100" width="100px" height="100px"><path fill="#a3a3cd" d="M69,82H31c-7.18,0-13-5.82-13-13V31c0-7.18,5.82-13,13-13h38c7.18,0,13,5.82,13,13v38	C82,76.18,76.18,82,69,82z"/><path fill="#fdfcee" d="M66.5,78h-33C27.149,78,22,72.851,22,66.5v-33C22,27.149,27.149,22,33.5,22h33	C72.851,22,78,27.149,78,33.5v33C78,72.851,72.851,78,66.5,78z"/><path fill="#1f212b" d="M69,83H31c-7.72,0-14-6.28-14-14V31c0-7.72,6.28-14,14-14h38c7.72,0,14,6.28,14,14v38	C83,76.72,76.72,83,69,83z M31,19c-6.617,0-12,5.383-12,12v38c0,6.617,5.383,12,12,12h38c6.617,0,12-5.383,12-12V31	c0-6.617-5.383-12-12-12H31z"/><path fill="#1f212b" d="M66.5,78h-33C27.159,78,22,72.841,22,66.5v-33C22,27.159,27.159,22,33.5,22h33	c0.353,0,0.7,0.021,1.045,0.053c0.275,0.025,0.478,0.268,0.453,0.543c-0.025,0.275-0.27,0.479-0.543,0.453	C67.14,23.021,66.823,23,66.5,23h-33C27.71,23,23,27.71,23,33.5v33C23,72.29,27.71,77,33.5,77h33C72.29,77,77,72.29,77,66.5v-17	c0-0.276,0.224-0.5,0.5-0.5s0.5,0.224,0.5,0.5v17C78,72.841,72.841,78,66.5,78z"/><path fill="#1f212b" d="M77.5,40c-0.276,0-0.5-0.224-0.5-0.5v-2c0-0.276,0.224-0.5,0.5-0.5s0.5,0.224,0.5,0.5v2	C78,39.776,77.776,40,77.5,40z"/><path fill="#1f212b" d="M77.5,47c-0.276,0-0.5-0.224-0.5-0.5v-4c0-0.276,0.224-0.5,0.5-0.5s0.5,0.224,0.5,0.5v4	C78,46.776,77.776,47,77.5,47z"/><path fill="#e1dfcf" d="M33.5,50c0,0,6.5,9.5,16.5,9.5S66.5,50,66.5,50S60,40.5,50,40.5S33.5,50,33.5,50z"/><circle cx="50" cy="50" r="8" fill="#a2a2cc"/><circle cx="50" cy="50" r="2.5" fill="#6b6aaf"/><path fill="#1f212b" d="M50,53c-1.654,0-3-1.346-3-3s1.346-3,3-3s3,1.346,3,3S51.654,53,50,53z M50,48c-1.103,0-2,0.897-2,2	s0.897,2,2,2s2-0.897,2-2S51.103,48,50,48z"/><path fill="#1f212b" d="M50,58c-4.411,0-8-3.589-8-8s3.589-8,8-8s8,3.589,8,8c0,0.152-0.01,0.301-0.021,0.45	c-0.02,0.275-0.25,0.524-0.537,0.506c-0.275-0.019-0.486-0.214-0.467-0.49c0,0,0.006-0.087,0.006-0.087	C56.991,50.253,57,50.128,57,50c0-3.86-3.14-7-7-7s-7,3.14-7,7s3.14,7,7,7c1.521,0,2.974-0.487,4.199-1.41	c0.222-0.166,0.535-0.121,0.7,0.099c0.166,0.221,0.122,0.534-0.099,0.7C53.4,57.443,51.74,58,50,58z"/><path fill="#1f212b" d="M55.989,55c-0.104,0-0.21-0.033-0.3-0.101c-0.221-0.166-0.265-0.479-0.099-0.7	c0.429-0.57,0.766-1.198,1.002-1.866c0.092-0.26,0.377-0.397,0.638-0.304c0.26,0.092,0.396,0.377,0.304,0.638	c-0.271,0.764-0.656,1.482-1.146,2.134C56.291,54.931,56.141,55,55.989,55z"/><path fill="#1f212b" d="M50,60c-10.147,0-16.641-9.321-16.913-9.718c-0.117-0.17-0.117-0.395,0-0.564	C33.359,49.321,39.853,40,50,40s16.641,9.321,16.913,9.718c0.117,0.17,0.117,0.395,0,0.564C66.641,50.679,60.147,60,50,60z M34.119,50c1.172,1.557,7.23,9,15.881,9s14.709-7.443,15.881-9c-1.172-1.557-7.23-9-15.881-9S35.291,48.443,34.119,50z"/></svg>